<?xml version="1.0" encoding="UTF-8"?>
<!DOCTYPE svg PUBLIC "-//W3C//DTD SVG 1.1//EN" "http://www.w3.org/Graphics/SVG/1.1/DTD/svg11.dtd">
<svg xmlns="http://www.w3.org/2000/svg" version="1.1" width="512px" height="512px" style="shape-rendering:geometricPrecision; text-rendering:geometricPrecision; image-rendering:optimizeQuality; fill-rule:evenodd; clip-rule:evenodd" xmlns:xlink="http://www.w3.org/1999/xlink">
<g><path style="opacity:0.989" fill="#000000" d="M 412.5,-0.5 C 413.5,-0.5 414.5,-0.5 415.5,-0.5C 447.158,19.6651 479.158,39.3318 511.5,58.5C 511.5,59.1667 511.5,59.8333 511.5,60.5C 406.36,125.238 301.36,190.238 196.5,255.5C 301.36,320.762 406.36,385.762 511.5,450.5C 511.5,451.167 511.5,451.833 511.5,452.5C 479.158,471.668 447.158,491.335 415.5,511.5C 414.5,511.5 413.5,511.5 412.5,511.5C 275.121,426.138 137.454,341.138 -0.5,256.5C -0.5,255.833 -0.5,255.167 -0.5,254.5C 137.37,169.736 275.037,84.7365 412.5,-0.5 Z"/></g>
</svg>
