<?xml version="1.0" encoding="UTF-8"?>
<!DOCTYPE svg PUBLIC "-//W3C//DTD SVG 1.1//EN" "http://www.w3.org/Graphics/SVG/1.1/DTD/svg11.dtd">
<svg xmlns="http://www.w3.org/2000/svg" version="1.1" width="512px" height="512px" style="shape-rendering:geometricPrecision; text-rendering:geometricPrecision; image-rendering:optimizeQuality; fill-rule:evenodd; clip-rule:evenodd" xmlns:xlink="http://www.w3.org/1999/xlink">
<g><path style="opacity:0.981" fill="#000000" d="M 233.5,-0.5 C 248.167,-0.5 262.833,-0.5 277.5,-0.5C 369.216,10.5909 437.716,56.2576 483,136.5C 498.58,167.171 508.08,199.505 511.5,233.5C 511.5,248.167 511.5,262.833 511.5,277.5C 500.409,369.216 454.742,437.716 374.5,483C 343.829,498.58 311.495,508.08 277.5,511.5C 262.833,511.5 248.167,511.5 233.5,511.5C 141.784,500.409 73.2844,454.742 28,374.5C 12.4204,343.829 2.92039,311.495 -0.5,277.5C -0.5,262.833 -0.5,248.167 -0.5,233.5C 10.5909,141.784 56.2576,73.2844 136.5,28C 167.171,12.4204 199.505,2.92039 233.5,-0.5 Z M 236.5,51.5 C 324.015,47.6642 390.182,82.9975 435,157.5C 463.926,214.343 467.26,272.676 445,332.5C 415.691,398.472 365.858,439.639 295.5,456C 215.324,468.804 148.824,444.637 96,383.5C 49.1762,320.738 39.1762,252.404 66,178.5C 95.3088,112.528 145.142,71.3609 215.5,55C 222.664,53.9561 229.664,52.7895 236.5,51.5 Z"/></g>
<g><path style="opacity:0.993" fill="#000000" d="M 239.5,127.5 C 293.89,123.78 336.057,144.447 366,189.5C 386.295,226.93 388.962,265.596 374,305.5C 346.745,361.39 301.911,387.223 239.5,383C 189.347,374.841 154.513,347.341 135,300.5C 117.497,244.698 129.997,196.865 172.5,157C 192.232,141.131 214.566,131.298 239.5,127.5 Z"/></g>
</svg>
