<?xml version="1.0" encoding="UTF-8"?>
<!DOCTYPE svg PUBLIC "-//W3C//DTD SVG 1.1//EN" "http://www.w3.org/Graphics/SVG/1.1/DTD/svg11.dtd">
<svg xmlns="http://www.w3.org/2000/svg" version="1.1" width="896px" height="320px" style="shape-rendering:geometricPrecision; text-rendering:geometricPrecision; image-rendering:optimizeQuality; fill-rule:evenodd; clip-rule:evenodd" xmlns:xlink="http://www.w3.org/1999/xlink">
<g><path style="opacity:1" fill="#cecece" d="M 23.5,-0.5 C 306.167,-0.5 588.833,-0.5 871.5,-0.5C 883.167,3.83333 891.167,11.8333 895.5,23.5C 895.5,114.167 895.5,204.833 895.5,295.5C 891.167,307.167 883.167,315.167 871.5,319.5C 588.833,319.5 306.167,319.5 23.5,319.5C 11.8333,315.167 3.83333,307.167 -0.5,295.5C -0.5,204.833 -0.5,114.167 -0.5,23.5C 3.83333,11.8333 11.8333,3.83333 23.5,-0.5 Z"/></g>
<g><path style="opacity:1" fill="#fefefe" d="M 183.5,55.5 C 230.841,53.0742 265.341,72.7409 287,114.5C 302.059,152.753 297.059,188.087 272,220.5C 239.538,254.534 201.038,263.701 156.5,248C 110.588,225.022 90.7549,187.855 97,136.5C 108.639,91.0244 137.473,64.0244 183.5,55.5 Z"/></g>
<g><path style="opacity:1" fill="#4fcb82" d="M 259.5,103.5 C 263.631,107.13 267.631,110.963 271.5,115C 239.167,147.333 206.833,179.667 174.5,212C 173.5,212.667 172.5,212.667 171.5,212C 156.653,197.319 141.986,182.486 127.5,167.5C 130.651,163.849 133.984,160.349 137.5,157C 138.5,156.333 139.5,156.333 140.5,157C 151.347,168.014 162.347,178.848 173.5,189.5C 202.521,161.146 231.188,132.479 259.5,103.5 Z"/></g>
<g><path style="opacity:1" fill="#030303" d="M 514.5,114.5 C 517.833,114.5 521.167,114.5 524.5,114.5C 524.5,117.167 524.5,119.833 524.5,122.5C 532.167,122.5 539.833,122.5 547.5,122.5C 547.5,124.833 547.5,127.167 547.5,129.5C 529.167,129.5 510.833,129.5 492.5,129.5C 492.5,127.167 492.5,124.833 492.5,122.5C 499.833,122.5 507.167,122.5 514.5,122.5C 514.5,119.833 514.5,117.167 514.5,114.5 Z"/></g>
<g><path style="opacity:1" fill="#000000" d="M 577.5,138.5 C 577.5,141.167 577.5,143.833 577.5,146.5C 573.958,146.187 570.625,146.521 567.5,147.5C 566.507,155.65 566.174,163.983 566.5,172.5C 563.5,172.5 560.5,172.5 557.5,172.5C 557.5,153.833 557.5,135.167 557.5,116.5C 560.5,116.5 563.5,116.5 566.5,116.5C 566.5,123.833 566.5,131.167 566.5,138.5C 570.167,138.5 573.833,138.5 577.5,138.5 Z"/></g>
<g><path style="opacity:1" fill="#0e0e0e" d="M 651.5,116.5 C 654.833,116.5 658.167,116.5 661.5,116.5C 661.5,136.833 661.5,157.167 661.5,177.5C 658.167,177.5 654.833,177.5 651.5,177.5C 651.5,157.167 651.5,136.833 651.5,116.5 Z"/></g>
<g><path style="opacity:1" fill="#070707" d="M 603.5,117.5 C 614.937,115.592 624.77,118.592 633,126.5C 641.596,143.378 637.43,155.878 620.5,164C 608.544,166.968 598.378,164.135 590,155.5C 581.366,137.99 585.866,125.324 603.5,117.5 Z"/></g>
<g><path style="opacity:1" fill="#cbcbcb" d="M 605.5,125.5 C 622.038,123.87 629.205,131.203 627,147.5C 625.64,150.735 623.473,153.235 620.5,155C 602.205,159.961 594.038,153.128 596,134.5C 598.406,130.592 601.572,127.592 605.5,125.5 Z"/></g>
<g><path style="opacity:1" fill="#050505" d="M 514.5,163.5 C 515.461,161.735 515.795,159.735 515.5,157.5C 514.5,157.5 513.5,157.5 512.5,157.5C 505.714,157.193 500.547,154.193 497,148.5C 496.134,141.34 499.301,136.84 506.5,135C 517.864,132.299 528.864,133.299 539.5,138C 545.009,143.636 544.676,148.969 538.5,154C 534.064,156.109 529.397,157.276 524.5,157.5C 524.5,159.5 524.5,161.5 524.5,163.5C 529.844,163.666 535.177,163.499 540.5,163C 543.692,162.803 546.692,161.97 549.5,160.5C 550.48,163.086 550.813,165.753 550.5,168.5C 531.232,170.343 511.899,171.01 492.5,170.5C 492.5,168.167 492.5,165.833 492.5,163.5C 499.833,163.5 507.167,163.5 514.5,163.5 Z"/></g>
<g><path style="opacity:1" fill="#c8c8c8" d="M 510.5,140.5 C 516.509,140.334 522.509,140.501 528.5,141C 532.918,141.238 534.751,143.405 534,147.5C 526.265,151.716 518.098,152.549 509.5,150C 506.125,148.971 504.958,146.804 506,143.5C 507.652,142.601 509.152,141.601 510.5,140.5 Z"/></g>
<g><path style="opacity:1" fill="#3c3c3c" d="M 577.5,138.5 C 578.477,141.287 578.81,144.287 578.5,147.5C 574.833,147.5 571.167,147.5 567.5,147.5C 570.625,146.521 573.958,146.187 577.5,146.5C 577.5,143.833 577.5,141.167 577.5,138.5 Z"/></g>
<g><path style="opacity:1" fill="#808080" d="M 512.5,157.5 C 513.5,157.5 514.5,157.5 515.5,157.5C 515.795,159.735 515.461,161.735 514.5,163.5C 514.741,161.114 514.075,159.114 512.5,157.5 Z"/></g>
<g><path style="opacity:1" fill="#060606" d="M 593.5,170.5 C 596.5,170.5 599.5,170.5 602.5,170.5C 602.5,176.5 602.5,182.5 602.5,188.5C 622.833,188.5 643.167,188.5 663.5,188.5C 663.5,191.167 663.5,193.833 663.5,196.5C 640.167,196.5 616.833,196.5 593.5,196.5C 593.5,187.833 593.5,179.167 593.5,170.5 Z"/></g>
<g><path style="opacity:1" fill="#000000" d="M 497.5,177.5 C 520.5,177.5 543.5,177.5 566.5,177.5C 566.5,184.5 566.5,191.5 566.5,198.5C 563.5,198.5 560.5,198.5 557.5,198.5C 557.5,193.833 557.5,189.167 557.5,184.5C 537.5,184.5 517.5,184.5 497.5,184.5C 497.5,182.167 497.5,179.833 497.5,177.5 Z"/></g>
<g><path style="opacity:1" fill="#1e1e1e" d="M 593.5,170.5 C 593.5,179.167 593.5,187.833 593.5,196.5C 616.833,196.5 640.167,196.5 663.5,196.5C 640.006,197.498 616.339,197.831 592.5,197.5C 592.173,188.318 592.507,179.318 593.5,170.5 Z"/></g>
</svg>
