<?xml version="1.0" encoding="UTF-8"?>
<!DOCTYPE svg PUBLIC "-//W3C//DTD SVG 1.1//EN" "http://www.w3.org/Graphics/SVG/1.1/DTD/svg11.dtd">
<svg xmlns="http://www.w3.org/2000/svg" version="1.1" width="512px" height="512px" style="shape-rendering:geometricPrecision; text-rendering:geometricPrecision; image-rendering:optimizeQuality; fill-rule:evenodd; clip-rule:evenodd" xmlns:xlink="http://www.w3.org/1999/xlink">
<g><path style="opacity:0.988" fill="#000000" d="M 29.5,-0.5 C 35.1667,-0.5 40.8333,-0.5 46.5,-0.5C 52.6215,1.22734 58.2881,4.06067 63.5,8C 127.347,72.0136 191.347,135.847 255.5,199.5C 320.347,134.819 385.347,70.3194 450.5,6C 455.367,3.22592 460.367,1.05926 465.5,-0.5C 470.167,-0.5 474.833,-0.5 479.5,-0.5C 496.067,3.73371 506.734,14.067 511.5,30.5C 511.5,35.5 511.5,40.5 511.5,45.5C 509.931,52.0104 507.098,58.0104 503,63.5C 438.986,127.347 375.153,191.347 311.5,255.5C 375.486,319.986 439.653,384.32 504,448.5C 507.073,453.313 509.573,458.313 511.5,463.5C 511.5,469.5 511.5,475.5 511.5,481.5C 508.053,493.118 501.053,501.951 490.5,508C 487.402,509.228 484.402,510.394 481.5,511.5C 475.833,511.5 470.167,511.5 464.5,511.5C 458.379,509.773 452.712,506.939 447.5,503C 383.653,438.986 319.653,375.153 255.5,311.5C 191.014,375.486 126.68,439.653 62.5,504C 57.6867,507.073 52.6867,509.573 47.5,511.5C 41.5,511.5 35.5,511.5 29.5,511.5C 17.8824,508.053 9.04907,501.053 3,490.5C 1.77236,487.402 0.605695,484.402 -0.5,481.5C -0.5,475.833 -0.5,470.167 -0.5,464.5C 1.22734,458.379 4.06067,452.712 8,447.5C 72.0136,383.653 135.847,319.653 199.5,255.5C 135.514,191.014 71.347,126.68 7,62.5C 3.92666,57.6867 1.42666,52.6867 -0.5,47.5C -0.5,41.5 -0.5,35.5 -0.5,29.5C 2.94725,17.8824 9.94725,9.04907 20.5,3C 23.5984,1.77236 26.5984,0.605695 29.5,-0.5 Z"/></g>
</svg>
