<?xml version="1.0" encoding="UTF-8"?>
<!DOCTYPE svg PUBLIC "-//W3C//DTD SVG 1.1//EN" "http://www.w3.org/Graphics/SVG/1.1/DTD/svg11.dtd">
<svg xmlns="http://www.w3.org/2000/svg" version="1.1" width="512px" height="512px" style="shape-rendering:geometricPrecision; text-rendering:geometricPrecision; image-rendering:optimizeQuality; fill-rule:evenodd; clip-rule:evenodd" xmlns:xlink="http://www.w3.org/1999/xlink">
<g><path style="opacity:0.999" fill="#ffb2c0" d="M 255.5,85.5 C 265.846,100.87 276.18,116.204 286.5,131.5C 343.332,132.333 400.332,132.833 457.5,133C 468.974,136.474 476.474,143.974 480,155.5C 480.5,245.499 480.667,335.499 480.5,425.5C 320.167,425.5 159.833,425.5 -0.5,425.5C -0.5,304.5 -0.5,183.5 -0.5,62.5C 3.83108,50.0079 12.4977,42.1746 25.5,39C 83.1667,38.3333 140.833,38.3333 198.5,39C 215.657,41.4937 229.824,49.3271 241,62.5C 246.084,70.0683 250.917,77.735 255.5,85.5 Z"/></g>
<g><path style="opacity:1" fill="#ff738d" d="M 255.5,85.5 C 322.167,85.5 388.833,85.5 455.5,85.5C 476.788,93.3876 485.121,108.721 480.5,131.5C 415.833,131.5 351.167,131.5 286.5,131.5C 276.18,116.204 265.846,100.87 255.5,85.5 Z"/></g>
<g><path style="opacity:0.997" fill="#ff4d6b" d="M 455.5,85.5 C 467.576,85.0625 479.576,85.5625 491.5,87C 501.509,91.1713 508.175,98.338 511.5,108.5C 511.5,124.833 511.5,141.167 511.5,157.5C 507.331,141.677 496.998,133.01 480.5,131.5C 485.121,108.721 476.788,93.3876 455.5,85.5 Z"/></g>
<g><path style="opacity:1" fill="#ff91a5" d="M 286.5,131.5 C 351.167,131.5 415.833,131.5 480.5,131.5C 496.998,133.01 507.331,141.677 511.5,157.5C 511.5,246.833 511.5,336.167 511.5,425.5C 501.167,425.5 490.833,425.5 480.5,425.5C 480.667,335.499 480.5,245.499 480,155.5C 476.474,143.974 468.974,136.474 457.5,133C 400.332,132.833 343.332,132.333 286.5,131.5 Z"/></g>
<g><path style="opacity:1" fill="#ff90a4" d="M -0.5,425.5 C 159.833,425.5 320.167,425.5 480.5,425.5C 480.666,432.841 480.5,440.174 480,447.5C 475.611,461.762 466.111,470.095 451.5,472.5C 309.833,472.667 168.166,472.5 26.5,472C 12.949,469.276 3.94895,461.442 -0.5,448.5C -0.5,440.833 -0.5,433.167 -0.5,425.5 Z"/></g>
<g><path style="opacity:0.978" fill="#ff738d" d="M 480.5,425.5 C 490.833,425.5 501.167,425.5 511.5,425.5C 511.5,433.167 511.5,440.833 511.5,448.5C 507.169,460.992 498.502,468.825 485.5,472C 474.172,472.5 462.838,472.667 451.5,472.5C 466.111,470.095 475.611,461.762 480,447.5C 480.5,440.174 480.666,432.841 480.5,425.5 Z"/></g>
</svg>
