<?xml version="1.0" encoding="UTF-8"?>
<!DOCTYPE svg PUBLIC "-//W3C//DTD SVG 1.1//EN" "http://www.w3.org/Graphics/SVG/1.1/DTD/svg11.dtd">
<svg xmlns="http://www.w3.org/2000/svg" version="1.1" width="512px" height="512px" style="shape-rendering:geometricPrecision; text-rendering:geometricPrecision; image-rendering:optimizeQuality; fill-rule:evenodd; clip-rule:evenodd" xmlns:xlink="http://www.w3.org/1999/xlink">
<g><path style="opacity:0.999" fill="#b2bfd5" d="M 255.5,85.5 C 265.846,100.87 276.18,116.204 286.5,131.5C 343.332,132.333 400.332,132.833 457.5,133C 468.974,136.474 476.474,143.974 480,155.5C 480.5,245.499 480.667,335.499 480.5,425.5C 320.167,425.5 159.833,425.5 -0.5,425.5C -0.5,304.5 -0.5,183.5 -0.5,62.5C 3.83108,50.0079 12.4977,42.1746 25.5,39C 83.1667,38.3333 140.833,38.3333 198.5,39C 215.657,41.4937 229.824,49.3271 241,62.5C 246.084,70.0683 250.917,77.735 255.5,85.5 Z"/></g>
<g><path style="opacity:1" fill="#7d9bd0" d="M 255.5,85.5 C 321.833,85.5 388.167,85.5 454.5,85.5C 476.517,92.8332 485.184,108.167 480.5,131.5C 415.833,131.5 351.167,131.5 286.5,131.5C 276.18,116.204 265.846,100.87 255.5,85.5 Z"/></g>
<g><path style="opacity:0.992" fill="#6486c3" d="M 454.5,85.5 C 466.909,85.0606 479.242,85.5606 491.5,87C 501.509,91.1713 508.175,98.338 511.5,108.5C 511.5,124.167 511.5,139.833 511.5,155.5C 506.261,141.034 495.928,133.034 480.5,131.5C 485.184,108.167 476.517,92.8332 454.5,85.5 Z"/></g>
<g><path style="opacity:1" fill="#91a8d0" d="M 286.5,131.5 C 351.167,131.5 415.833,131.5 480.5,131.5C 495.928,133.034 506.261,141.034 511.5,155.5C 511.5,245.5 511.5,335.5 511.5,425.5C 501.167,425.5 490.833,425.5 480.5,425.5C 480.667,335.499 480.5,245.499 480,155.5C 476.474,143.974 468.974,136.474 457.5,133C 400.332,132.833 343.332,132.333 286.5,131.5 Z"/></g>
<g><path style="opacity:1" fill="#90a7cf" d="M -0.5,425.5 C 159.833,425.5 320.167,425.5 480.5,425.5C 480.666,432.508 480.5,439.508 480,446.5C 476.452,461.178 467.286,469.845 452.5,472.5C 310.5,472.667 168.5,472.5 26.5,472C 12.949,469.276 3.94895,461.442 -0.5,448.5C -0.5,440.833 -0.5,433.167 -0.5,425.5 Z"/></g>
<g><path style="opacity:0.995" fill="#7d9bd0" d="M 480.5,425.5 C 490.833,425.5 501.167,425.5 511.5,425.5C 511.5,433.167 511.5,440.833 511.5,448.5C 507.169,460.992 498.502,468.825 485.5,472C 474.505,472.5 463.505,472.667 452.5,472.5C 467.286,469.845 476.452,461.178 480,446.5C 480.5,439.508 480.666,432.508 480.5,425.5 Z"/></g>
</svg>
