<?xml version="1.0" encoding="UTF-8"?>
<!DOCTYPE svg PUBLIC "-//W3C//DTD SVG 1.1//EN" "http://www.w3.org/Graphics/SVG/1.1/DTD/svg11.dtd">
<svg xmlns="http://www.w3.org/2000/svg" version="1.1" width="512px" height="512px" style="shape-rendering:geometricPrecision; text-rendering:geometricPrecision; image-rendering:optimizeQuality; fill-rule:evenodd; clip-rule:evenodd" xmlns:xlink="http://www.w3.org/1999/xlink">
<g><path style="opacity:0.999" fill="#9cfe93" d="M 255.5,85.5 C 265.474,100.482 275.474,115.482 285.5,130.5C 341.496,131.5 397.496,131.833 453.5,131.5C 466.847,134.34 475.68,142.34 480,155.5C 480.5,245.499 480.667,335.499 480.5,425.5C 320.167,425.5 159.833,425.5 -0.5,425.5C -0.5,304.5 -0.5,183.5 -0.5,62.5C 3.83108,50.0079 12.4977,42.1746 25.5,39C 83.1667,38.3333 140.833,38.3333 198.5,39C 215.657,41.4937 229.824,49.3271 241,62.5C 246.084,70.0683 250.917,77.735 255.5,85.5 Z"/></g>
<g><path style="opacity:1" fill="#61c258" d="M 255.5,85.5 C 321.833,85.5 388.167,85.5 454.5,85.5C 467.283,88.7781 475.783,96.7781 480,109.5C 480.5,116.826 480.666,124.159 480.5,131.5C 471.5,131.5 462.5,131.5 453.5,131.5C 397.496,131.833 341.496,131.5 285.5,130.5C 275.474,115.482 265.474,100.482 255.5,85.5 Z"/></g>
<g><path style="opacity:0.996" fill="#0ca94d" d="M 454.5,85.5 C 466.909,85.0606 479.242,85.5606 491.5,87C 501.509,91.1713 508.175,98.338 511.5,108.5C 511.5,124.833 511.5,141.167 511.5,157.5C 507.331,141.677 496.998,133.01 480.5,131.5C 480.666,124.159 480.5,116.826 480,109.5C 475.783,96.7781 467.283,88.7781 454.5,85.5 Z"/></g>
<g><path style="opacity:1" fill="#42d880" d="M 453.5,131.5 C 462.5,131.5 471.5,131.5 480.5,131.5C 496.998,133.01 507.331,141.677 511.5,157.5C 511.5,246.833 511.5,336.167 511.5,425.5C 501.167,425.5 490.833,425.5 480.5,425.5C 480.667,335.499 480.5,245.499 480,155.5C 475.68,142.34 466.847,134.34 453.5,131.5 Z"/></g>
<g><path style="opacity:0.987" fill="#42d780" d="M -0.5,425.5 C 159.833,425.5 320.167,425.5 480.5,425.5C 480.666,432.841 480.5,440.174 480,447.5C 476.015,461.656 466.848,469.99 452.5,472.5C 310.5,472.667 168.5,472.5 26.5,472C 12.949,469.276 3.94895,461.442 -0.5,448.5C -0.5,440.833 -0.5,433.167 -0.5,425.5 Z"/></g>
<g><path style="opacity:0.977" fill="#60c258" d="M 480.5,425.5 C 490.833,425.5 501.167,425.5 511.5,425.5C 511.5,433.167 511.5,440.833 511.5,448.5C 507.169,460.992 498.502,468.825 485.5,472C 474.505,472.5 463.505,472.667 452.5,472.5C 466.848,469.99 476.015,461.656 480,447.5C 480.5,440.174 480.666,432.841 480.5,425.5 Z"/></g>
</svg>
