<?xml version="1.0" encoding="UTF-8"?>
<!DOCTYPE svg PUBLIC "-//W3C//DTD SVG 1.1//EN" "http://www.w3.org/Graphics/SVG/1.1/DTD/svg11.dtd">
<svg xmlns="http://www.w3.org/2000/svg" version="1.1" width="1000px" height="200px" style="shape-rendering:geometricPrecision; text-rendering:geometricPrecision; image-rendering:optimizeQuality; fill-rule:evenodd; clip-rule:evenodd" xmlns:xlink="http://www.w3.org/1999/xlink">
<g><path style="opacity:1" fill="#121212" d="M -0.5,-0.5 C 332.833,-0.5 666.167,-0.5 999.5,-0.5C 999.5,66.1667 999.5,132.833 999.5,199.5C 666.167,199.5 332.833,199.5 -0.5,199.5C -0.5,132.833 -0.5,66.1667 -0.5,-0.5 Z"/></g>
<g><path style="opacity:1" fill="#fbfbfb" d="M 205.5,155.5 C 207.43,159.373 208.097,163.706 207.5,168.5C 207.389,169.117 207.056,169.617 206.5,170C 204.5,170.667 202.5,170.667 200.5,170C 165.21,153.943 149.71,126.443 154,87.5C 165.539,47.6234 192.039,28.1234 233.5,29C 268.092,34.5899 289.592,54.4233 298,88.5C 301.573,127.211 285.74,154.377 250.5,170C 247.975,170.896 245.808,170.396 244,168.5C 243.667,158.5 243.333,148.5 243,138.5C 241.954,136.91 240.787,135.41 239.5,134C 263.568,130.75 274.401,116.917 272,92.5C 270.762,86.8677 268.595,81.701 265.5,77C 266.963,71.4383 266.797,65.9383 265,60.5C 261.927,59.3832 258.76,59.2165 255.5,60C 251.239,62.0467 247.072,64.2133 243,66.5C 231.325,63.8616 219.658,63.8616 208,66.5C 202.267,62.8845 196.1,60.2179 189.5,58.5C 188.833,58.8333 188.167,59.1667 187.5,59.5C 185.23,65.3488 184.897,71.3488 186.5,77.5C 177.5,91.9489 177.333,106.616 186,121.5C 193.201,129.016 202.035,133.183 212.5,134C 210.179,136.808 208.512,139.975 207.5,143.5C 201.541,146.38 195.874,145.88 190.5,142C 187.472,135.472 182.472,131.306 175.5,129.5C 174,129.453 173,130.119 172.5,131.5C 178.023,135.192 181.857,140.192 184,146.5C 189.088,154.083 196.255,157.083 205.5,155.5 Z"/></g>
<g><path style="opacity:1" fill="#fdfdfd" d="M 620.5,68.5 C 624.833,68.5 629.167,68.5 633.5,68.5C 633.5,85.8333 633.5,103.167 633.5,120.5C 642.833,120.5 652.167,120.5 661.5,120.5C 661.5,123.5 661.5,126.5 661.5,129.5C 647.833,129.5 634.167,129.5 620.5,129.5C 620.5,109.167 620.5,88.8333 620.5,68.5 Z"/></g>
<g><path style="opacity:1" fill="#fcfcfc" d="M 680.5,68.5 C 686.842,68.3338 693.175,68.5005 699.5,69C 704.8,70.2286 708.967,73.0619 712,77.5C 713.612,91.0972 713.945,104.764 713,118.5C 711.221,122.612 708.388,125.778 704.5,128C 695.911,129.576 687.244,129.91 678.5,129C 673.792,127.622 670.292,124.788 668,120.5C 666.389,107.236 666.056,93.9031 667,80.5C 669.833,74.4933 674.333,70.4933 680.5,68.5 Z"/></g>
<g><path style="opacity:1" fill="#f8f8f8" d="M 736.5,68.5 C 743.589,68.1156 750.589,68.6156 757.5,70C 762.697,72.3635 766.363,76.1968 768.5,81.5C 764.985,83.2275 761.318,84.5608 757.5,85.5C 755.684,84.1851 754.017,82.6851 752.5,81C 737.438,77.7465 731.438,83.7465 734.5,99C 731.051,116.559 737.718,122.892 754.5,118C 757.126,113.908 758.126,109.408 757.5,104.5C 754.167,104.5 750.833,104.5 747.5,104.5C 747.5,102.167 747.5,99.8333 747.5,97.5C 754.833,97.5 762.167,97.5 769.5,97.5C 769.666,103.842 769.5,110.175 769,116.5C 767.675,124.749 762.841,129.249 754.5,130C 745.283,131.623 736.616,130.29 728.5,126C 725.193,123.222 723.026,119.722 722,115.5C 721.333,104.833 721.333,94.1667 722,83.5C 724.351,75.9841 729.184,70.9841 736.5,68.5 Z"/></g>
<g><path style="opacity:1" fill="#333333" d="M 805.5,68.5 C 805.5,88.8333 805.5,109.167 805.5,129.5C 809.5,129.5 813.5,129.5 817.5,129.5C 813.366,130.485 809.032,130.818 804.5,130.5C 804.169,109.66 804.503,88.9933 805.5,68.5 Z"/></g>
<g><path style="opacity:1" fill="#fefffe" d="M 805.5,68.5 C 809.5,68.5 813.5,68.5 817.5,68.5C 817.5,88.8333 817.5,109.167 817.5,129.5C 813.5,129.5 809.5,129.5 805.5,129.5C 805.5,109.167 805.5,88.8333 805.5,68.5 Z"/></g>
<g><path style="opacity:1" fill="#6d6d6d" d="M 827.5,68.5 C 827.5,88.8333 827.5,109.167 827.5,129.5C 832.167,129.5 836.833,129.5 841.5,129.5C 841.333,116.829 841.5,104.162 842,91.5C 842.717,92.0442 843.217,92.7109 843.5,93.5C 842.505,105.655 842.171,117.989 842.5,130.5C 837.167,130.5 831.833,130.5 826.5,130.5C 826.169,109.66 826.503,88.9933 827.5,68.5 Z"/></g>
<g><path style="opacity:1" fill="#fdfdfd" d="M 827.5,68.5 C 832.544,68.1725 837.544,68.5059 842.5,69.5C 849.179,82.1935 855.846,94.8602 862.5,107.5C 862.987,108.473 863.487,109.473 864,110.5C 864.5,96.504 864.667,82.504 864.5,68.5C 868.5,68.5 872.5,68.5 876.5,68.5C 876.5,88.8333 876.5,109.167 876.5,129.5C 871.901,129.8 867.401,129.467 863,128.5C 856.488,116.806 849.988,105.139 843.5,93.5C 843.217,92.7109 842.717,92.0442 842,91.5C 841.5,104.162 841.333,116.829 841.5,129.5C 836.833,129.5 832.167,129.5 827.5,129.5C 827.5,109.167 827.5,88.8333 827.5,68.5 Z"/></g>
<g><path style="opacity:1" fill="#4e4e4e" d="M 864.5,68.5 C 864.667,82.504 864.5,96.504 864,110.5C 863.487,109.473 862.987,108.473 862.5,107.5C 863.167,94.5 863.833,81.5 864.5,68.5 Z"/></g>
<g><path style="opacity:1" fill="#f6f6f6" d="M 361.5,70.5 C 368.713,70.1246 375.713,71.1246 382.5,73.5C 383.55,76.7694 383.216,79.9361 381.5,83C 359.863,78.9719 351.363,87.8053 356,109.5C 358.703,118.106 364.536,121.439 373.5,119.5C 373.5,115.5 373.5,111.5 373.5,107.5C 370.833,107.5 368.167,107.5 365.5,107.5C 365.5,103.833 365.5,100.167 365.5,96.5C 372.5,96.5 379.5,96.5 386.5,96.5C 386.819,106.749 386.486,116.916 385.5,127C 353.026,136.539 338.859,124.372 343,90.5C 345.623,80.3829 351.79,73.7162 361.5,70.5 Z"/></g>
<g><path style="opacity:1" fill="#fdfdfd" d="M 451.5,73.5 C 451.5,80.5 451.5,87.5 451.5,94.5C 457.167,94.5 462.833,94.5 468.5,94.5C 468.5,87.5 468.5,80.5 468.5,73.5C 472.5,73.5 476.5,73.5 480.5,73.5C 480.5,92.1667 480.5,110.833 480.5,129.5C 476.5,129.5 472.5,129.5 468.5,129.5C 468.5,121.5 468.5,113.5 468.5,105.5C 462.833,105.5 457.167,105.5 451.5,105.5C 451.5,113.5 451.5,121.5 451.5,129.5C 447.833,129.5 444.167,129.5 440.5,129.5C 440.5,110.833 440.5,92.1667 440.5,73.5C 444.167,73.5 447.833,73.5 451.5,73.5 Z"/></g>
<g><path style="opacity:1" fill="#f7f7f7" d="M 538.5,73.5 C 538.17,79.8682 538.504,86.2015 539.5,92.5C 540.107,92.3764 540.44,92.0431 540.5,91.5C 555.995,86.8147 563.662,92.648 563.5,109C 564.054,129.058 555.054,135.225 536.5,127.5C 533.444,129.289 530.111,129.956 526.5,129.5C 526.333,110.83 526.5,92.1637 527,73.5C 530.934,72.179 534.767,72.179 538.5,73.5 Z"/></g>
<g><path style="opacity:1" fill="#888888" d="M 538.5,73.5 C 539.167,79.5 539.833,85.5 540.5,91.5C 540.44,92.0431 540.107,92.3764 539.5,92.5C 538.504,86.2015 538.17,79.8682 538.5,73.5 Z"/></g>
<g><path style="opacity:1" fill="#f8f8f8" d="M 394.5,74.5 C 400.391,73.4296 403.724,75.7629 404.5,81.5C 403.422,87.0945 400.088,88.9278 394.5,87C 390.547,82.8353 390.547,78.6686 394.5,74.5 Z"/></g>
<g><path style="opacity:1" fill="#c3c3c3" d="M 451.5,73.5 C 447.833,73.5 444.167,73.5 440.5,73.5C 440.5,92.1667 440.5,110.833 440.5,129.5C 439.503,110.674 439.17,91.674 439.5,72.5C 443.702,72.1832 447.702,72.5166 451.5,73.5 Z"/></g>
<g><path style="opacity:1" fill="#fafafa" d="M 414.5,80.5 C 418.167,80.5 421.833,80.5 425.5,80.5C 425.5,84.1667 425.5,87.8333 425.5,91.5C 428.5,91.5 431.5,91.5 434.5,91.5C 434.5,94.8333 434.5,98.1667 434.5,101.5C 431.833,101.5 429.167,101.5 426.5,101.5C 426.334,107.509 426.501,113.509 427,119.5C 427.383,120.056 427.883,120.389 428.5,120.5C 430.265,121.461 432.265,121.795 434.5,121.5C 434.5,124.167 434.5,126.833 434.5,129.5C 430.354,130.647 426.02,130.814 421.5,130C 418.417,129.214 416.251,127.381 415,124.5C 414.5,116.841 414.334,109.174 414.5,101.5C 412.167,101.5 409.833,101.5 407.5,101.5C 407.5,98.5 407.5,95.5 407.5,92.5C 409.861,92.3259 412.194,91.9926 414.5,91.5C 414.5,87.8333 414.5,84.1667 414.5,80.5 Z"/></g>
<g><path style="opacity:1" fill="#a3a3a3" d="M 414.5,80.5 C 418.298,79.5166 422.298,79.1832 426.5,79.5C 426.5,83.1667 426.5,86.8333 426.5,90.5C 429.385,90.1936 432.052,90.5269 434.5,91.5C 431.5,91.5 428.5,91.5 425.5,91.5C 425.5,87.8333 425.5,84.1667 425.5,80.5C 421.833,80.5 418.167,80.5 414.5,80.5 Z"/></g>
<g><path style="opacity:1" fill="#151515" d="M 684.5,79.5 C 688.182,79.3347 691.848,79.5014 695.5,80C 698.057,80.6853 699.891,82.1853 701,84.5C 701.667,94.5 701.667,104.5 701,114.5C 700.065,117.102 698.232,118.602 695.5,119C 691.5,119.667 687.5,119.667 683.5,119C 681.333,118.167 679.833,116.667 679,114.5C 678.333,104.5 678.333,94.5 679,84.5C 680.73,82.5981 682.563,80.9314 684.5,79.5 Z"/></g>
<g><path style="opacity:1" fill="#f9f9f9" d="M 391.5,91.5 C 395.5,91.5 399.5,91.5 403.5,91.5C 403.5,104.167 403.5,116.833 403.5,129.5C 399.5,129.5 395.5,129.5 391.5,129.5C 391.5,116.833 391.5,104.167 391.5,91.5 Z"/></g>
<g><path style="opacity:1" fill="#f7f7f7" d="M 485.5,91.5 C 489.833,91.5 494.167,91.5 498.5,91.5C 498.334,100.839 498.5,110.173 499,119.5C 502.135,120.799 505.301,120.799 508.5,119.5C 509.498,110.19 509.832,100.857 509.5,91.5C 513.5,91.5 517.5,91.5 521.5,91.5C 521.5,104.167 521.5,116.833 521.5,129.5C 517.97,130.011 514.804,129.344 512,127.5C 505.799,130.313 499.299,131.146 492.5,130C 488.479,128.132 486.313,124.965 486,120.5C 485.5,110.839 485.334,101.172 485.5,91.5 Z"/></g>
<g><path style="opacity:1" fill="#606060" d="M 451.5,73.5 C 452.491,79.979 452.824,86.6457 452.5,93.5C 457.5,93.5 462.5,93.5 467.5,93.5C 467.176,86.6457 467.509,79.979 468.5,73.5C 468.5,80.5 468.5,87.5 468.5,94.5C 462.833,94.5 457.167,94.5 451.5,94.5C 451.5,87.5 451.5,80.5 451.5,73.5 Z"/></g>
<g><path style="opacity:1" fill="#1a1a1a" d="M 540.5,100.5 C 544.603,99.7691 548.103,100.769 551,103.5C 551.974,109.187 551.474,114.687 549.5,120C 540.526,122.856 536.859,119.689 538.5,110.5C 538.591,106.902 539.257,103.569 540.5,100.5 Z"/></g>
<g><path style="opacity:1" fill="#858585" d="M 428.5,120.5 C 430.833,120.5 433.167,120.5 435.5,120.5C 435.81,123.713 435.477,126.713 434.5,129.5C 434.5,126.833 434.5,124.167 434.5,121.5C 432.265,121.795 430.265,121.461 428.5,120.5 Z"/></g>
<g><path style="opacity:1" fill="#787878" d="M 205.5,155.5 C 206.209,154.596 207.209,154.263 208.5,154.5C 208.819,159.363 208.486,164.03 207.5,168.5C 208.097,163.706 207.43,159.373 205.5,155.5 Z"/></g>
</svg>
