<?xml version="1.0" encoding="UTF-8"?>
<!DOCTYPE svg PUBLIC "-//W3C//DTD SVG 1.1//EN" "http://www.w3.org/Graphics/SVG/1.1/DTD/svg11.dtd">
<svg xmlns="http://www.w3.org/2000/svg" version="1.1" width="1570px" height="512px" style="shape-rendering:geometricPrecision; text-rendering:geometricPrecision; image-rendering:optimizeQuality; fill-rule:evenodd; clip-rule:evenodd" xmlns:xlink="http://www.w3.org/1999/xlink">
<g><path style="opacity:1" fill="#121212" d="M 1.5,-0.5 C 523.167,-0.5 1044.83,-0.5 1566.5,-0.5C 1566.78,0.28913 1567.28,0.955796 1568,1.5C 1568.67,170.833 1568.67,340.167 1568,509.5C 1567.28,510.044 1566.78,510.711 1566.5,511.5C 1044.83,511.5 523.167,511.5 1.5,511.5C 1.16667,510.5 0.5,509.833 -0.5,509.5C -0.5,340.167 -0.5,170.833 -0.5,1.5C 0.5,1.16667 1.16667,0.5 1.5,-0.5 Z"/></g>
<g><path style="opacity:1" fill="#c7c7c7" d="M 425.5,67.5 C 405.876,65.2661 386.209,64.9328 366.5,66.5C 367.952,65.6981 369.618,65.1981 371.5,65C 385.833,64.3333 400.167,64.3333 414.5,65C 418.465,65.1077 422.132,65.941 425.5,67.5 Z"/></g>
<g><path style="opacity:1" fill="#fdfdfd" d="M 425.5,67.5 C 434.084,68.064 442.417,69.7307 450.5,72.5C 450.62,73.5862 451.287,74.2528 452.5,74.5C 455.185,75.1712 457.852,75.8379 460.5,76.5C 499.946,91.4584 531.78,116.125 556,150.5C 560.228,157.705 564.394,164.871 568.5,172C 570.059,176.274 571.726,180.441 573.5,184.5C 573.592,186.848 574.592,188.514 576.5,189.5C 577.87,197.6 580.204,205.267 583.5,212.5C 583.743,218.184 584.243,223.851 585,229.5C 585.383,230.056 585.883,230.389 586.5,230.5C 586.808,234.36 587.475,238.026 588.5,241.5C 588.832,257.552 588.165,273.552 586.5,289.5C 585.833,293.833 585.167,298.167 584.5,302.5C 583.076,304.515 582.41,306.848 582.5,309.5C 581.659,311.379 581.325,313.379 581.5,315.5C 580.414,315.62 579.747,316.287 579.5,317.5C 578.829,320.185 578.162,322.852 577.5,325.5C 575.319,330.289 573.653,335.289 572.5,340.5C 570.592,341.486 569.592,343.152 569.5,345.5C 547.135,390.86 512.468,423.194 465.5,442.5C 462.843,442.935 460.509,443.935 458.5,445.5C 454.354,446.647 450.02,446.814 445.5,446C 442.603,444.285 441.269,441.785 441.5,438.5C 441.667,415.831 441.5,393.164 441,370.5C 440.79,368.942 440.29,367.609 439.5,366.5C 438.167,363.5 436.833,360.5 435.5,357.5C 435.573,355.973 434.906,354.973 433.5,354.5C 431.833,352.167 430.167,349.833 428.5,347.5C 432.686,347.456 436.853,347.123 441,346.5C 442.986,346.431 444.486,345.765 445.5,344.5C 446.167,344.5 446.833,344.5 447.5,344.5C 451.595,344.192 455.595,343.359 459.5,342C 460.056,341.617 460.389,341.117 460.5,340.5C 461.167,340.5 461.833,340.5 462.5,340.5C 465.539,339.722 468.206,338.388 470.5,336.5C 489.332,328.106 502.666,314.44 510.5,295.5C 512.117,292.811 513.117,289.811 513.5,286.5C 513.366,284.708 513.699,283.042 514.5,281.5C 515.117,281.389 515.617,281.056 516,280.5C 516.501,276.49 517.001,272.49 517.5,268.5C 517.666,258.161 517.5,247.828 517,237.5C 516.768,236.263 516.268,235.263 515.5,234.5C 513.426,221.599 508.092,210.266 499.5,200.5C 499.322,199.305 498.989,198.138 498.5,197C 499.749,192.922 500.416,188.755 500.5,184.5C 500.5,183.5 500.5,182.5 500.5,181.5C 501.74,173.633 501.573,165.633 500,157.5C 499.8,155.68 498.966,154.347 497.5,153.5C 497.741,151.102 497.074,149.102 495.5,147.5C 493.603,146.195 491.269,145.529 488.5,145.5C 486.167,145.667 483.833,145.833 481.5,146C 480.584,146.278 479.918,146.778 479.5,147.5C 476.779,147.963 474.112,148.629 471.5,149.5C 468.279,149.896 465.612,151.229 463.5,153.5C 463.167,153.5 462.833,153.5 462.5,153.5C 459.683,154.095 457.35,155.428 455.5,157.5C 452.265,158.733 449.265,160.399 446.5,162.5C 440.614,164.537 434.614,164.537 428.5,162.5C 421.477,162.031 414.477,161.364 407.5,160.5C 401.175,159.834 394.675,159.5 388,159.5C 381.131,159.503 374.631,160.17 368.5,161.5C 364.452,161.395 360.452,161.728 356.5,162.5C 354.304,162.59 352.137,162.923 350,163.5C 348.624,163.684 347.791,164.351 347.5,165.5C 345.143,165.663 342.81,165.497 340.5,165C 333.458,159.81 325.791,155.643 317.5,152.5C 316.514,150.592 314.848,149.592 312.5,149.5C 311.041,149.567 309.708,149.234 308.5,148.5C 308.389,147.883 308.056,147.383 307.5,147C 305.527,146.505 303.527,146.338 301.5,146.5C 297.232,145.627 292.898,145.294 288.5,145.5C 286.431,150.985 284.931,156.652 284,162.5C 283.333,169.833 283.333,177.167 284,184.5C 284.186,187.036 284.686,189.369 285.5,191.5C 285.664,194.187 285.497,196.854 285,199.5C 283.331,200.846 282.164,202.513 281.5,204.5C 278.78,207.26 276.78,210.594 275.5,214.5C 273.166,216.176 272.166,218.509 272.5,221.5C 271.833,222.5 271.167,223.5 270.5,224.5C 268.627,228.515 267.627,232.849 267.5,237.5C 263.607,265.814 269.44,291.814 285,315.5C 288.655,318.989 292.155,322.655 295.5,326.5C 299.675,329.496 304.009,332.33 308.5,335C 310.743,336.136 313.076,336.97 315.5,337.5C 317.033,339.245 319.033,340.245 321.5,340.5C 328.667,342.791 336,344.458 343.5,345.5C 346.965,347.082 350.632,348.415 354.5,349.5C 351.975,352.459 349.975,355.792 348.5,359.5C 347.503,359.47 346.836,359.97 346.5,361C 345.751,363.497 345.084,365.997 344.5,368.5C 344.5,370.5 344.5,372.5 344.5,374.5C 341.682,375.97 338.682,376.97 335.5,377.5C 325.721,377.95 316.054,377.284 306.5,375.5C 303.076,374.621 300.076,372.954 297.5,370.5C 294.822,367.323 291.988,364.323 289,361.5C 285.769,354.438 280.935,348.771 274.5,344.5C 274.027,343.094 273.027,342.427 271.5,342.5C 269.351,341.264 267.018,340.264 264.5,339.5C 261.983,338.027 259.15,337.36 256,337.5C 254.167,337.667 252.333,337.833 250.5,338C 249.944,338.383 249.611,338.883 249.5,339.5C 248.503,339.47 247.836,339.97 247.5,341C 249.044,342.586 250.211,344.42 251,346.5C 255.223,348.456 259.057,350.956 262.5,354C 265.677,356.932 268.51,360.098 271,363.5C 273.557,367.547 275.39,371.881 276.5,376.5C 276.755,378.967 277.755,380.967 279.5,382.5C 288.319,398.513 302.152,406.513 321,406.5C 328.536,406.161 336.036,405.495 343.5,404.5C 343.963,417.932 343.463,431.265 342,444.5C 335.712,448.104 329.212,448.437 322.5,445.5C 320.711,444.037 318.711,443.037 316.5,442.5C 314.967,440.755 312.967,439.755 310.5,439.5C 295.202,433.672 281.535,425.172 269.5,414C 267.783,412.441 265.783,411.608 263.5,411.5C 263.5,410.5 263.5,409.5 263.5,408.5C 262.448,408.649 261.448,408.483 260.5,408C 253.688,400.255 246.522,392.755 239,385.5C 233.112,377.414 227.445,369.081 222,360.5C 218.013,353.357 214.513,346.023 211.5,338.5C 211.379,335.895 210.379,333.895 208.5,332.5C 204.877,322.408 201.877,312.074 199.5,301.5C 199.001,294.957 198.001,288.623 196.5,282.5C 195.63,270.189 195.296,257.856 195.5,245.5C 196.731,240.338 197.731,235.004 198.5,229.5C 198.917,225.165 199.417,220.832 200,216.5C 202.217,211.017 203.717,205.351 204.5,199.5C 206.245,197.967 207.245,195.967 207.5,193.5C 207.328,192.508 207.662,191.842 208.5,191.5C 209.945,189.429 210.945,187.096 211.5,184.5C 211.433,183.041 211.766,181.708 212.5,180.5C 215.012,178.535 216.345,175.868 216.5,172.5C 243.806,119.693 286.14,85.6932 343.5,70.5C 345.527,70.6621 347.527,70.4955 349.5,70C 350.056,69.6174 350.389,69.1174 350.5,68.5C 355.847,67.9267 361.18,67.26 366.5,66.5C 386.209,64.9328 405.876,65.2661 425.5,67.5 Z"/></g>
<g><path style="opacity:1" fill="#9c9c9c" d="M 350.5,68.5 C 350.389,69.1174 350.056,69.6174 349.5,70C 347.527,70.4955 345.527,70.6621 343.5,70.5C 345.657,69.5933 347.99,68.9267 350.5,68.5 Z"/></g>
<g><path style="opacity:1" fill="#a3a3a3" d="M 450.5,72.5 C 453.48,73.2655 456.48,74.0989 459.5,75C 460.056,75.3826 460.389,75.8826 460.5,76.5C 457.852,75.8379 455.185,75.1712 452.5,74.5C 451.287,74.2528 450.62,73.5862 450.5,72.5 Z"/></g>
<g><path style="opacity:1" fill="#454545" d="M 495.5,147.5 C 490.249,146.81 484.915,146.81 479.5,147.5C 479.918,146.778 480.584,146.278 481.5,146C 483.833,145.833 486.167,145.667 488.5,145.5C 491.269,145.529 493.603,146.195 495.5,147.5 Z"/></g>
<g><path style="opacity:1" fill="#9d9d9d" d="M 301.5,146.5 C 303.527,146.338 305.527,146.505 307.5,147C 308.056,147.383 308.389,147.883 308.5,148.5C 305.848,148.59 303.515,147.924 301.5,146.5 Z"/></g>
<g><path style="opacity:1" fill="#737373" d="M 312.5,149.5 C 314.848,149.592 316.514,150.592 317.5,152.5C 315.326,152.25 313.659,151.25 312.5,149.5 Z"/></g>
<g><path style="opacity:1" fill="#8c8c8c" d="M 471.5,149.5 C 469.305,151.417 466.638,152.751 463.5,153.5C 465.612,151.229 468.279,149.896 471.5,149.5 Z"/></g>
<g><path style="opacity:1" fill="#767676" d="M 462.5,153.5 C 460.954,155.931 458.621,157.264 455.5,157.5C 457.35,155.428 459.683,154.095 462.5,153.5 Z"/></g>
<g><path style="opacity:1" fill="#727272" d="M 407.5,160.5 C 394.474,160.265 381.474,160.599 368.5,161.5C 374.631,160.17 381.131,159.503 388,159.5C 394.675,159.5 401.175,159.834 407.5,160.5 Z"/></g>
<g><path style="opacity:1" fill="#4d4d4d" d="M 497.5,153.5 C 498.966,154.347 499.8,155.68 500,157.5C 501.573,165.633 501.74,173.633 500.5,181.5C 500.99,171.981 499.99,162.648 497.5,153.5 Z"/></g>
<g><path style="opacity:1" fill="#939393" d="M 356.5,162.5 C 353.746,163.946 350.746,164.946 347.5,165.5C 347.791,164.351 348.624,163.684 350,163.5C 352.137,162.923 354.304,162.59 356.5,162.5 Z"/></g>
<g><path style="opacity:1" fill="#9e9e9e" d="M 428.5,162.5 C 434.614,164.537 440.614,164.537 446.5,162.5C 445.41,164.649 443.576,165.982 441,166.5C 437.158,165.721 433.325,164.887 429.5,164C 428.944,163.617 428.611,163.117 428.5,162.5 Z"/></g>
<g><path style="opacity:1" fill="#999999" d="M 216.5,172.5 C 216.345,175.868 215.012,178.535 212.5,180.5C 212.896,177.279 214.229,174.612 216.5,172.5 Z"/></g>
<g><path style="opacity:1" fill="#fcfcfc" d="M 799.5,179.5 C 801.438,181.163 803.772,181.829 806.5,181.5C 809.203,182.963 812.203,183.796 815.5,184C 816.056,184.383 816.389,184.883 816.5,185.5C 817.521,189.104 817.521,192.771 816.5,196.5C 815.665,202.356 814.331,208.023 812.5,213.5C 808.922,213.451 805.589,212.785 802.5,211.5C 796.246,209.946 789.746,209.28 783,209.5C 778.167,209.667 773.333,209.833 768.5,210C 766.563,210.122 765.23,210.955 764.5,212.5C 761.951,212.387 759.618,213.054 757.5,214.5C 748.637,221.215 743.637,230.215 742.5,241.5C 741.778,241.918 741.278,242.584 741,243.5C 740.333,254.5 740.333,265.5 741,276.5C 741.21,278.058 741.71,279.391 742.5,280.5C 743.988,285.841 745.822,291.174 748,296.5C 750.728,299.947 753.894,302.947 757.5,305.5C 759.729,306.577 762.063,307.244 764.5,307.5C 768.276,308.825 772.443,309.491 777,309.5C 781.557,309.491 785.724,308.825 789.5,307.5C 790.167,307.5 790.833,307.5 791.5,307.5C 792.494,297.347 792.828,287.014 792.5,276.5C 785.5,276.5 778.5,276.5 771.5,276.5C 770.197,267.559 770.197,258.559 771.5,249.5C 789.167,248.18 806.833,248.18 824.5,249.5C 824.833,275.842 824.5,302.175 823.5,328.5C 821.332,330.17 818.998,331.503 816.5,332.5C 814.033,332.755 812.033,333.755 810.5,335.5C 797.514,339.775 784.181,341.441 770.5,340.5C 770.082,339.778 769.416,339.278 768.5,339C 763.816,338.565 759.149,338.065 754.5,337.5C 748.19,336.8 742.357,334.8 737,331.5C 721.535,321.382 712.368,307.048 709.5,288.5C 709.116,283.99 708.449,279.657 707.5,275.5C 707.473,263.82 707.806,252.154 708.5,240.5C 710.302,206.553 727.636,186.053 760.5,179C 773.511,178.397 786.511,178.564 799.5,179.5 Z"/></g>
<g><path style="opacity:1" fill="#777777" d="M 799.5,179.5 C 802.067,179.721 804.401,180.388 806.5,181.5C 803.772,181.829 801.438,181.163 799.5,179.5 Z"/></g>
<g><path style="opacity:1" fill="#fdfdfd" d="M 1078.5,337.5 C 1067.75,337.809 1057.09,337.476 1046.5,336.5C 1046.5,314.833 1046.5,293.167 1046.5,271.5C 1031.66,271.171 1016.99,271.504 1002.5,272.5C 1002.5,293.833 1002.5,315.167 1002.5,336.5C 1002.17,336.5 1001.83,336.5 1001.5,336.5C 991.167,336.5 980.833,336.5 970.5,336.5C 970.5,286.167 970.5,235.833 970.5,185.5C 980.833,185.5 991.167,185.5 1001.5,185.5C 1001.17,204.008 1001.5,222.341 1002.5,240.5C 1017.32,241.496 1032.32,241.829 1047.5,241.5C 1047.5,222.5 1047.5,203.5 1047.5,184.5C 1057.9,183.171 1068.4,183.171 1079,184.5C 1079.83,235.571 1079.66,286.571 1078.5,337.5 Z"/></g>
<g><path style="opacity:1" fill="#fafafa" d="M 1236.5,183.5 C 1237.15,200.931 1237.82,218.265 1238.5,235.5C 1240.75,234.545 1243.08,233.878 1245.5,233.5C 1248.49,233.097 1251.15,232.097 1253.5,230.5C 1274.42,225.393 1289.92,232.06 1300,250.5C 1300.41,253.742 1301.24,256.742 1302.5,259.5C 1303.32,272.149 1303.65,284.815 1303.5,297.5C 1301.95,301.567 1301.28,305.9 1301.5,310.5C 1300.69,312.631 1300.19,314.964 1300,317.5C 1298.03,319.921 1296.53,322.588 1295.5,325.5C 1293.94,326.945 1292.6,328.611 1291.5,330.5C 1289.05,333.277 1286.05,335.277 1282.5,336.5C 1279.84,336.935 1277.51,337.935 1275.5,339.5C 1267.48,340.719 1259.48,340.719 1251.5,339.5C 1249.15,337.903 1246.49,336.903 1243.5,336.5C 1239.18,336.173 1235.52,334.506 1232.5,331.5C 1232.18,329.952 1231.18,329.285 1229.5,329.5C 1229.5,331.167 1229.5,332.833 1229.5,334.5C 1228.6,335.209 1228.26,336.209 1228.5,337.5C 1220.58,337.815 1212.75,337.482 1205,336.5C 1204.33,285.833 1204.33,235.167 1205,184.5C 1215.42,183.513 1225.92,183.18 1236.5,183.5 Z"/></g>
<g><path style="opacity:1" fill="#5a5a5a" d="M 573.5,184.5 C 575.25,185.659 576.25,187.326 576.5,189.5C 574.592,188.514 573.592,186.848 573.5,184.5 Z"/></g>
<g><path style="opacity:1" fill="#d7d7d7" d="M 1002.5,240.5 C 1001.5,222.341 1001.17,204.008 1001.5,185.5C 991.167,185.5 980.833,185.5 970.5,185.5C 970.5,235.833 970.5,286.167 970.5,336.5C 980.833,336.5 991.167,336.5 1001.5,336.5C 991.013,337.494 980.346,337.828 969.5,337.5C 969.5,286.167 969.5,234.833 969.5,183.5C 980.415,183.18 991.248,183.513 1002,184.5C 1002.5,203.164 1002.67,221.83 1002.5,240.5 Z"/></g>
<g><path style="opacity:1" fill="#4b4b4b" d="M 1236.5,183.5 C 1238.49,200.468 1239.15,217.801 1238.5,235.5C 1237.82,218.265 1237.15,200.931 1236.5,183.5 Z"/></g>
<g><path style="opacity:1" fill="#fafafa" d="M 852.5,187.5 C 855.167,187.5 857.833,187.5 860.5,187.5C 862.033,189.245 864.033,190.245 866.5,190.5C 869.63,191.698 871.63,194.032 872.5,197.5C 873.833,203.167 873.833,208.833 872.5,214.5C 867.247,223.19 859.581,226.19 849.5,223.5C 844.542,221.21 841.209,217.543 839.5,212.5C 839.5,208.167 839.5,203.833 839.5,199.5C 840.167,195.15 842.5,192.15 846.5,190.5C 848.967,190.245 850.967,189.245 852.5,187.5 Z"/></g>
<g><path style="opacity:1" fill="#989898" d="M 852.5,187.5 C 850.967,189.245 848.967,190.245 846.5,190.5C 848.033,188.755 850.033,187.755 852.5,187.5 Z"/></g>
<g><path style="opacity:1" fill="#868686" d="M 860.5,187.5 C 862.967,187.755 864.967,188.755 866.5,190.5C 864.033,190.245 862.033,189.245 860.5,187.5 Z"/></g>
<g><path style="opacity:1" fill="#9e9e9e" d="M 211.5,184.5 C 210.945,187.096 209.945,189.429 208.5,191.5C 208.179,188.423 209.179,186.09 211.5,184.5 Z"/></g>
<g><path style="opacity:1" fill="#707070" d="M 500.5,184.5 C 500.416,188.755 499.749,192.922 498.5,197C 498.989,198.138 499.322,199.305 499.5,200.5C 498.007,199.688 497.34,198.355 497.5,196.5C 498.01,192.251 499.01,188.251 500.5,184.5 Z"/></g>
<g><path style="opacity:1" fill="#787878" d="M 816.5,185.5 C 818.252,185.418 819.252,186.251 819.5,188C 818.839,190.464 818.339,192.964 818,195.5C 817.617,196.056 817.117,196.389 816.5,196.5C 817.521,192.771 817.521,189.104 816.5,185.5 Z"/></g>
<g><path style="opacity:1" fill="#5c5c5c" d="M 207.5,193.5 C 207.245,195.967 206.245,197.967 204.5,199.5C 204.755,197.033 205.755,195.033 207.5,193.5 Z"/></g>
<g><path style="opacity:1" fill="#494949" d="M 933.5,203.5 C 933.167,203.5 932.833,203.5 932.5,203.5C 921.833,203.5 911.167,203.5 900.5,203.5C 900.611,202.883 900.944,202.383 901.5,202C 906.833,201.833 912.167,201.667 917.5,201.5C 923.211,201.505 928.544,202.172 933.5,203.5 Z"/></g>
<g><path style="opacity:1" fill="#5f5f5f" d="M 285.5,191.5 C 286.806,194.687 286.806,198.02 285.5,201.5C 284.358,202.826 283.024,203.826 281.5,204.5C 282.164,202.513 283.331,200.846 285,199.5C 285.497,196.854 285.664,194.187 285.5,191.5 Z"/></g>
<g><path style="opacity:1" fill="#b1b1b1" d="M 872.5,197.5 C 873.117,197.611 873.617,197.944 874,198.5C 874.667,203.5 874.667,208.5 874,213.5C 873.617,214.056 873.117,214.389 872.5,214.5C 873.833,208.833 873.833,203.167 872.5,197.5 Z"/></g>
<g><path style="opacity:1" fill="#fcfcfc" d="M 900.5,203.5 C 911.167,203.5 921.833,203.5 932.5,203.5C 932.5,213.5 932.5,223.5 932.5,233.5C 940.167,233.5 947.833,233.5 955.5,233.5C 956.657,241.99 956.824,250.657 956,259.5C 948.587,260.481 941.087,260.814 933.5,260.5C 933.333,275.837 933.5,291.17 934,306.5C 934.969,309.302 936.802,311.302 939.5,312.5C 945.128,313.495 950.794,313.829 956.5,313.5C 956.5,321.167 956.5,328.833 956.5,336.5C 953.368,337.36 950.368,338.36 947.5,339.5C 936.063,341.647 925.063,340.48 914.5,336C 910.62,333.621 907.62,330.454 905.5,326.5C 904.488,323.743 903.488,321.076 902.5,318.5C 901.596,317.791 901.263,316.791 901.5,315.5C 900.539,297.201 900.206,278.868 900.5,260.5C 894.741,260.786 889.075,260.452 883.5,259.5C 883.5,252.5 883.5,245.5 883.5,238.5C 885.987,237.677 888.321,236.677 890.5,235.5C 893.764,234.676 897.098,234.342 900.5,234.5C 900.5,224.167 900.5,213.833 900.5,203.5 Z"/></g>
<g><path style="opacity:1" fill="#b7b7b7" d="M 839.5,199.5 C 839.5,203.833 839.5,208.167 839.5,212.5C 836.939,208.185 836.939,203.852 839.5,199.5 Z"/></g>
<g><path style="opacity:1" fill="#9f9f9f" d="M 932.5,203.5 C 932.833,203.5 933.167,203.5 933.5,203.5C 933.5,213.167 933.5,222.833 933.5,232.5C 941.019,232.175 948.352,232.508 955.5,233.5C 947.833,233.5 940.167,233.5 932.5,233.5C 932.5,223.5 932.5,213.5 932.5,203.5 Z"/></g>
<g><path style="opacity:1" fill="#676767" d="M 802.5,211.5 C 789.752,209.862 777.085,210.195 764.5,212.5C 765.23,210.955 766.563,210.122 768.5,210C 773.333,209.833 778.167,209.667 783,209.5C 789.746,209.28 796.246,209.946 802.5,211.5 Z"/></g>
<g><path style="opacity:1" fill="#5f5f5f" d="M 275.5,214.5 C 275.065,217.157 274.065,219.491 272.5,221.5C 272.166,218.509 273.166,216.176 275.5,214.5 Z"/></g>
<g><path style="opacity:1" fill="#bbbbbb" d="M 583.5,212.5 C 585.229,218.25 586.229,224.25 586.5,230.5C 585.883,230.389 585.383,230.056 585,229.5C 584.243,223.851 583.743,218.184 583.5,212.5 Z"/></g>
<g><path style="opacity:1" fill="#575757" d="M 1189.5,233.5 C 1179.17,233.5 1168.83,233.5 1158.5,233.5C 1158.17,233.5 1157.83,233.5 1157.5,233.5C 1157.61,232.883 1157.94,232.383 1158.5,232C 1168.5,231.333 1178.5,231.333 1188.5,232C 1189.06,232.383 1189.39,232.883 1189.5,233.5 Z"/></g>
<g><path style="opacity:1" fill="#929292" d="M 1253.5,230.5 C 1251.15,232.097 1248.49,233.097 1245.5,233.5C 1247.52,231.307 1250.19,230.307 1253.5,230.5 Z"/></g>
<g><path style="opacity:1" fill="#fdfdfd" d="M 871.5,336.5 C 861.5,336.5 851.5,336.5 841.5,336.5C 840.502,302.004 840.168,267.337 840.5,232.5C 851.082,232.18 861.582,232.513 872,233.5C 872.831,268.002 872.664,302.336 871.5,336.5 Z"/></g>
<g><path style="opacity:1" fill="#fcfcfc" d="M 1125.5,233.5 C 1126.33,256.996 1126.83,280.663 1127,304.5C 1127.28,305.416 1127.78,306.082 1128.5,306.5C 1128.95,308.565 1129.95,310.232 1131.5,311.5C 1131.61,312.117 1131.94,312.617 1132.5,313C 1137.83,313.667 1143.17,313.667 1148.5,313C 1149.42,312.722 1150.08,312.222 1150.5,311.5C 1151.39,310.89 1152.39,310.557 1153.5,310.5C 1155.12,309.962 1156.78,309.629 1158.5,309.5C 1158.5,284.167 1158.5,258.833 1158.5,233.5C 1168.83,233.5 1179.17,233.5 1189.5,233.5C 1190.83,268.069 1190.83,302.736 1189.5,337.5C 1182.08,337.797 1174.75,337.464 1167.5,336.5C 1167.5,334.5 1167.5,332.5 1167.5,330.5C 1166.21,330.263 1165.21,330.596 1164.5,331.5C 1160.29,334.462 1155.63,336.462 1150.5,337.5C 1146.2,337.755 1142.2,338.755 1138.5,340.5C 1134.5,340.5 1130.5,340.5 1126.5,340.5C 1122.46,338.763 1118.12,337.763 1113.5,337.5C 1103.08,334.356 1097.08,327.356 1095.5,316.5C 1094.38,289.186 1094.21,261.853 1095,234.5C 1105.08,233.514 1115.25,233.181 1125.5,233.5 Z"/></g>
<g><path style="opacity:1" fill="#585858" d="M 270.5,224.5 C 270.299,227.508 269.966,230.508 269.5,233.5C 269.415,235.333 268.748,236.666 267.5,237.5C 267.627,232.849 268.627,228.515 270.5,224.5 Z"/></g>
<g><path style="opacity:1" fill="#a0a0a0" d="M 1125.5,232.5 C 1125.5,232.833 1125.5,233.167 1125.5,233.5C 1115.25,233.181 1105.08,233.514 1095,234.5C 1094.21,261.853 1094.38,289.186 1095.5,316.5C 1094.78,316.082 1094.28,315.416 1094,314.5C 1093.33,287.5 1093.33,260.5 1094,233.5C 1104.42,232.513 1114.92,232.18 1125.5,232.5 Z"/></g>
<g><path style="opacity:1" fill="#3b3b3b" d="M 1125.5,233.5 C 1125.5,233.167 1125.5,232.833 1125.5,232.5C 1126.5,232.5 1127.5,232.5 1128.5,232.5C 1128.5,257.167 1128.5,281.833 1128.5,306.5C 1127.78,306.082 1127.28,305.416 1127,304.5C 1126.83,280.663 1126.33,256.996 1125.5,233.5 Z"/></g>
<g><path style="opacity:1" fill="#a8a8a8" d="M 1157.5,233.5 C 1157.83,233.5 1158.17,233.5 1158.5,233.5C 1158.5,258.833 1158.5,284.167 1158.5,309.5C 1156.78,309.629 1155.12,309.962 1153.5,310.5C 1153.81,309.522 1154.48,308.855 1155.5,308.5C 1156.18,283.434 1156.84,258.434 1157.5,233.5 Z"/></g>
<g><path style="opacity:1" fill="#5b5b5b" d="M 890.5,235.5 C 888.321,236.677 885.987,237.677 883.5,238.5C 885.09,236.179 887.423,235.179 890.5,235.5 Z"/></g>
<g><path style="opacity:1" fill="#838383" d="M 1047.5,184.5 C 1047.5,203.5 1047.5,222.5 1047.5,241.5C 1032.32,241.829 1017.32,241.496 1002.5,240.5C 1017.17,240.5 1031.83,240.5 1046.5,240.5C 1046.17,221.659 1046.5,202.993 1047.5,184.5 Z"/></g>
<g><path style="opacity:1" fill="#808080" d="M 198.5,229.5 C 197.731,235.004 196.731,240.338 195.5,245.5C 195.503,241.476 195.836,237.476 196.5,233.5C 196.585,231.667 197.252,230.334 198.5,229.5 Z"/></g>
<g><path style="opacity:1" fill="#4b4b4b" d="M 515.5,234.5 C 516.268,235.263 516.768,236.263 517,237.5C 517.5,247.828 517.666,258.161 517.5,268.5C 516.833,269.5 516.167,270.5 515.5,271.5C 516.81,259.171 516.81,246.838 515.5,234.5 Z"/></g>
<g><path style="opacity:1" fill="#dcdcdc" d="M 824.5,249.5 C 806.833,248.18 789.167,248.18 771.5,249.5C 770.197,258.559 770.197,267.559 771.5,276.5C 769.527,267.225 768.86,257.558 769.5,247.5C 788.197,246.846 806.53,247.513 824.5,249.5 Z"/></g>
<g><path style="opacity:1" fill="#767676" d="M 588.5,241.5 C 589.66,253.66 589.827,265.993 589,278.5C 589.094,282.633 588.26,286.299 586.5,289.5C 588.165,273.552 588.832,257.552 588.5,241.5 Z"/></g>
<g><path style="opacity:1" fill="#969696" d="M 708.5,240.5 C 707.806,252.154 707.473,263.82 707.5,275.5C 706.834,269.843 706.501,264.01 706.5,258C 706.504,251.793 707.171,245.96 708.5,240.5 Z"/></g>
<g><path style="opacity:1" fill="#6f6f6f" d="M 742.5,241.5 C 741.305,254.49 741.305,267.49 742.5,280.5C 741.71,279.391 741.21,278.058 741,276.5C 740.333,265.5 740.333,254.5 741,243.5C 741.278,242.584 741.778,241.918 742.5,241.5 Z"/></g>
<g><path style="opacity:1" fill="#636363" d="M 1262.5,258.5 C 1255.45,257.394 1248.45,257.727 1241.5,259.5C 1244.85,257.107 1248.68,256.107 1253,256.5C 1256.48,256.328 1259.64,256.994 1262.5,258.5 Z"/></g>
<g><path style="opacity:1" fill="#131313" d="M 1262.5,258.5 C 1265.64,260.355 1268.14,263.022 1270,266.5C 1271.31,275.448 1271.81,284.448 1271.5,293.5C 1270.14,297.632 1269.14,301.965 1268.5,306.5C 1267.35,309.146 1265.35,310.979 1262.5,312C 1254.99,313.01 1247.66,312.51 1240.5,310.5C 1240.22,309.711 1239.72,309.044 1239,308.5C 1238.5,292.837 1238.33,277.17 1238.5,261.5C 1240.18,261.715 1241.18,261.048 1241.5,259.5C 1248.45,257.727 1255.45,257.394 1262.5,258.5 Z"/></g>
<g><path style="opacity:1" fill="#333333" d="M 883.5,259.5 C 889.075,260.452 894.741,260.786 900.5,260.5C 900.206,278.868 900.539,297.201 901.5,315.5C 899.513,297.864 898.847,279.864 899.5,261.5C 893.729,262.113 888.396,261.446 883.5,259.5 Z"/></g>
<g><path style="opacity:1" fill="#424242" d="M 1241.5,259.5 C 1241.18,261.048 1240.18,261.715 1238.5,261.5C 1238.33,277.17 1238.5,292.837 1239,308.5C 1239.72,309.044 1240.22,309.711 1240.5,310.5C 1239.5,310.586 1238.67,310.252 1238,309.5C 1237.17,293.156 1237.33,276.823 1238.5,260.5C 1239.42,259.873 1240.42,259.539 1241.5,259.5 Z"/></g>
<g><path style="opacity:1" fill="#3e3e3e" d="M 1002.5,272.5 C 1016.99,271.504 1031.66,271.171 1046.5,271.5C 1046.5,293.167 1046.5,314.833 1046.5,336.5C 1045.5,315.34 1045.17,294.007 1045.5,272.5C 1031.17,272.5 1016.83,272.5 1002.5,272.5 Z"/></g>
<g><path style="opacity:1" fill="#a8a8a8" d="M 517.5,268.5 C 517.001,272.49 516.501,276.49 516,280.5C 515.617,281.056 515.117,281.389 514.5,281.5C 515.051,278.193 515.384,274.86 515.5,271.5C 516.167,270.5 516.833,269.5 517.5,268.5 Z"/></g>
<g><path style="opacity:1" fill="#bcbcbc" d="M 1302.5,259.5 C 1304.04,266.599 1304.71,273.932 1304.5,281.5C 1304.5,287.011 1304.17,292.344 1303.5,297.5C 1303.65,284.815 1303.32,272.149 1302.5,259.5 Z"/></g>
<g><path style="opacity:1" fill="#959595" d="M 771.5,276.5 C 778.5,276.5 785.5,276.5 792.5,276.5C 792.828,287.014 792.494,297.347 791.5,307.5C 791.5,297.5 791.5,287.5 791.5,277.5C 784.646,277.824 777.979,277.491 771.5,276.5 Z"/></g>
<g><path style="opacity:1" fill="#606060" d="M 707.5,275.5 C 708.449,279.657 709.116,283.99 709.5,288.5C 708.778,288.082 708.278,287.416 708,286.5C 707.501,282.848 707.335,279.182 707.5,275.5 Z"/></g>
<g><path style="opacity:1" fill="#8e8e8e" d="M 513.5,286.5 C 513.117,289.811 512.117,292.811 510.5,295.5C 510.446,292.008 511.446,289.008 513.5,286.5 Z"/></g>
<g><path style="opacity:1" fill="#454545" d="M 1271.5,293.5 C 1271.88,298.273 1270.88,302.607 1268.5,306.5C 1269.14,301.965 1270.14,297.632 1271.5,293.5 Z"/></g>
<g><path style="opacity:1" fill="#484848" d="M 196.5,282.5 C 198.001,288.623 199.001,294.957 199.5,301.5C 198.883,301.389 198.383,301.056 198,300.5C 197.169,294.523 196.669,288.523 196.5,282.5 Z"/></g>
<g><path style="opacity:1" fill="#8c8c8c" d="M 1303.5,297.5 C 1303.84,302.122 1303.18,306.455 1301.5,310.5C 1301.28,305.9 1301.95,301.567 1303.5,297.5 Z"/></g>
<g><path style="opacity:1" fill="#606060" d="M 584.5,302.5 C 584.662,304.527 584.495,306.527 584,308.5C 583.617,309.056 583.117,309.389 582.5,309.5C 582.41,306.848 583.076,304.515 584.5,302.5 Z"/></g>
<g><path style="opacity:1" fill="#828282" d="M 764.5,307.5 C 772.829,308.792 781.162,308.792 789.5,307.5C 785.724,308.825 781.557,309.491 777,309.5C 772.443,309.491 768.276,308.825 764.5,307.5 Z"/></g>
<g><path style="opacity:1" fill="#828282" d="M 1131.5,311.5 C 1137.81,312.734 1144.15,312.734 1150.5,311.5C 1150.08,312.222 1149.42,312.722 1148.5,313C 1143.17,313.667 1137.83,313.667 1132.5,313C 1131.94,312.617 1131.61,312.117 1131.5,311.5 Z"/></g>
<g><path style="opacity:1" fill="#6c6c6c" d="M 581.5,315.5 C 580.712,318.096 580.046,320.763 579.5,323.5C 579.253,324.713 578.586,325.38 577.5,325.5C 578.162,322.852 578.829,320.185 579.5,317.5C 579.747,316.287 580.414,315.62 581.5,315.5 Z"/></g>
<g><path style="opacity:1" fill="#6f6f6f" d="M 902.5,318.5 C 903.488,321.076 904.488,323.743 905.5,326.5C 903.018,324.497 902.018,321.831 902.5,318.5 Z"/></g>
<g><path style="opacity:1" fill="#5b5b5b" d="M 1295.5,325.5 C 1295.33,328.204 1294,329.871 1291.5,330.5C 1292.6,328.611 1293.94,326.945 1295.5,325.5 Z"/></g>
<g><path style="opacity:1" fill="#616161" d="M 1232.5,331.5 C 1231.1,332.1 1230.1,333.1 1229.5,334.5C 1229.5,332.833 1229.5,331.167 1229.5,329.5C 1231.18,329.285 1232.18,329.952 1232.5,331.5 Z"/></g>
<g><path style="opacity:1" fill="#7d7d7d" d="M 1164.5,331.5 C 1165.21,330.596 1166.21,330.263 1167.5,330.5C 1167.5,332.5 1167.5,334.5 1167.5,336.5C 1167.03,334.469 1166.03,332.802 1164.5,331.5 Z"/></g>
<g><path style="opacity:1" fill="#7b7b7b" d="M 816.5,332.5 C 814.967,334.245 812.967,335.245 810.5,335.5C 812.033,333.755 814.033,332.755 816.5,332.5 Z"/></g>
<g><path style="opacity:1" fill="#777777" d="M 208.5,332.5 C 210.379,333.895 211.379,335.895 211.5,338.5C 209.755,336.967 208.755,334.967 208.5,332.5 Z"/></g>
<g><path style="opacity:1" fill="#606060" d="M 264.5,339.5 C 259.477,338.31 254.477,338.31 249.5,339.5C 249.611,338.883 249.944,338.383 250.5,338C 252.333,337.833 254.167,337.667 256,337.5C 259.15,337.36 261.983,338.027 264.5,339.5 Z"/></g>
<g><path style="opacity:1" fill="#595959" d="M 841.5,336.5 C 851.5,336.5 861.5,336.5 871.5,336.5C 866.881,337.828 861.881,338.494 856.5,338.5C 851.119,338.494 846.119,337.828 841.5,336.5 Z"/></g>
<g><path style="opacity:1" fill="#717171" d="M 956.5,336.5 C 956.53,337.497 956.03,338.164 955,338.5C 952.566,339.322 950.066,339.656 947.5,339.5C 950.368,338.36 953.368,337.36 956.5,336.5 Z"/></g>
<g><path style="opacity:1" fill="#454545" d="M 1001.5,336.5 C 1001.83,336.5 1002.17,336.5 1002.5,336.5C 997.376,337.829 991.876,338.495 986,338.5C 980.323,338.499 974.823,338.166 969.5,337.5C 980.346,337.828 991.013,337.494 1001.5,336.5 Z"/></g>
<g><path style="opacity:1" fill="#474747" d="M 1046.5,336.5 C 1057.09,337.476 1067.75,337.809 1078.5,337.5C 1073.34,338.166 1068.01,338.499 1062.5,338.5C 1056.79,338.495 1051.46,337.828 1046.5,336.5 Z"/></g>
<g><path style="opacity:1" fill="#454545" d="M 1167.5,336.5 C 1174.75,337.464 1182.08,337.797 1189.5,337.5C 1186.02,338.165 1182.35,338.499 1178.5,338.5C 1174.43,338.489 1170.77,337.822 1167.5,336.5 Z"/></g>
<g><path style="opacity:1" fill="#6d6d6d" d="M 1243.5,336.5 C 1246.49,336.903 1249.15,337.903 1251.5,339.5C 1248.28,339.655 1245.62,338.655 1243.5,336.5 Z"/></g>
<g><path style="opacity:1" fill="#7a7a7a" d="M 470.5,336.5 C 468.206,338.388 465.539,339.722 462.5,340.5C 464.531,338.245 467.198,336.912 470.5,336.5 Z"/></g>
<g><path style="opacity:1" fill="#aaaaaa" d="M 754.5,337.5 C 759.149,338.065 763.816,338.565 768.5,339C 769.416,339.278 770.082,339.778 770.5,340.5C 765.448,340.55 760.448,340.05 755.5,339C 754.944,338.617 754.611,338.117 754.5,337.5 Z"/></g>
<g><path style="opacity:1" fill="#8a8a8a" d="M 1150.5,337.5 C 1146.87,339.498 1142.87,340.498 1138.5,340.5C 1142.2,338.755 1146.2,337.755 1150.5,337.5 Z"/></g>
<g><path style="opacity:1" fill="#5d5d5d" d="M 1282.5,336.5 C 1280.82,338.834 1278.49,339.834 1275.5,339.5C 1277.51,337.935 1279.84,336.935 1282.5,336.5 Z"/></g>
<g><path style="opacity:1" fill="#6c6c6c" d="M 315.5,337.5 C 317.967,337.755 319.967,338.755 321.5,340.5C 319.033,340.245 317.033,339.245 315.5,337.5 Z"/></g>
<g><path style="opacity:1" fill="#acacac" d="M 1113.5,337.5 C 1118.12,337.763 1122.46,338.763 1126.5,340.5C 1122.49,340.142 1118.49,339.642 1114.5,339C 1113.94,338.617 1113.61,338.117 1113.5,337.5 Z"/></g>
<g><path style="opacity:1" fill="#a9a9a9" d="M 460.5,340.5 C 460.389,341.117 460.056,341.617 459.5,342C 455.595,343.359 451.595,344.192 447.5,344.5C 451.509,342.422 455.842,341.089 460.5,340.5 Z"/></g>
<g><path style="opacity:1" fill="#7e7e7e" d="M 271.5,342.5 C 273.027,342.427 274.027,343.094 274.5,344.5C 272.973,344.573 271.973,343.906 271.5,342.5 Z"/></g>
<g><path style="opacity:1" fill="#636363" d="M 572.5,340.5 C 572.25,342.674 571.25,344.341 569.5,345.5C 569.592,343.152 570.592,341.486 572.5,340.5 Z"/></g>
<g><path style="opacity:1" fill="#9d9d9d" d="M 343.5,345.5 C 347.163,345.952 350.83,346.452 354.5,347C 355.774,347.977 355.774,348.811 354.5,349.5C 350.632,348.415 346.965,347.082 343.5,345.5 Z"/></g>
<g><path style="opacity:1" fill="#bcbcbc" d="M 445.5,344.5 C 444.486,345.765 442.986,346.431 441,346.5C 436.853,347.123 432.686,347.456 428.5,347.5C 433.921,345.852 439.588,344.852 445.5,344.5 Z"/></g>
<g><path style="opacity:1" fill="#7d7d7d" d="M 433.5,354.5 C 434.906,354.973 435.573,355.973 435.5,357.5C 434.094,357.027 433.427,356.027 433.5,354.5 Z"/></g>
<g><path style="opacity:1" fill="#7b7b7b" d="M 348.5,359.5 C 347.909,362.925 346.575,365.925 344.5,368.5C 345.084,365.997 345.751,363.497 346.5,361C 346.836,359.97 347.503,359.47 348.5,359.5 Z"/></g>
<g><path style="opacity:1" fill="#353535" d="M 439.5,366.5 C 440.29,367.609 440.79,368.942 441,370.5C 441.5,393.164 441.667,415.831 441.5,438.5C 440.739,414.659 440.072,390.659 439.5,366.5 Z"/></g>
<g><path style="opacity:1" fill="#c8c8c8" d="M 306.5,375.5 C 316.054,377.284 325.721,377.95 335.5,377.5C 327.7,379.978 319.7,380.145 311.5,378C 309.347,377.901 307.681,377.067 306.5,375.5 Z"/></g>
<g><path style="opacity:1" fill="#737373" d="M 276.5,376.5 C 278.245,378.033 279.245,380.033 279.5,382.5C 277.755,380.967 276.755,378.967 276.5,376.5 Z"/></g>
<g><path style="opacity:1" fill="#a2a2a2" d="M 310.5,439.5 C 312.967,439.755 314.967,440.755 316.5,442.5C 314.033,442.245 312.033,441.245 310.5,439.5 Z"/></g>
<g><path style="opacity:1" fill="#656565" d="M 465.5,442.5 C 463.824,444.834 461.491,445.834 458.5,445.5C 460.509,443.935 462.843,442.935 465.5,442.5 Z"/></g>
</svg>
