<?xml version="1.0" encoding="UTF-8"?>
<!DOCTYPE svg PUBLIC "-//W3C//DTD SVG 1.1//EN" "http://www.w3.org/Graphics/SVG/1.1/DTD/svg11.dtd">
<svg xmlns="http://www.w3.org/2000/svg" version="1.1" width="512px" height="512px" style="shape-rendering:geometricPrecision; text-rendering:geometricPrecision; image-rendering:optimizeQuality; fill-rule:evenodd; clip-rule:evenodd" xmlns:xlink="http://www.w3.org/1999/xlink">
<g><path style="opacity:0.993" fill="#888888" d="M 232.5,-0.5 C 247.5,-0.5 262.5,-0.5 277.5,-0.5C 339.013,6.09262 392.013,30.7593 436.5,73.5C 461.521,49.1457 486.188,24.479 510.5,-0.5C 510.833,-0.5 511.167,-0.5 511.5,-0.5C 511.5,74.1667 511.5,148.833 511.5,223.5C 436.833,223.667 362.166,223.5 287.5,223C 321.68,188.986 355.68,154.82 389.5,120.5C 339.437,72.0984 280.104,54.9318 211.5,69C 151.794,84.7113 108.294,120.211 81,175.5C 53.1769,242.449 59.1769,306.115 99,366.5C 147.336,429.068 210.836,454.902 289.5,444C 360.05,428.61 408.717,387.444 435.5,320.5C 458.159,319.334 480.826,319.167 503.5,320C 475.474,414.693 414.14,476.026 319.5,504C 305.492,507.277 291.492,509.777 277.5,511.5C 262.833,511.5 248.167,511.5 233.5,511.5C 133.193,499.016 61.693,447.016 19,355.5C 8.70393,330.316 2.20393,304.316 -0.5,277.5C -0.5,262.833 -0.5,248.167 -0.5,233.5C 11.9842,133.193 63.9842,61.693 155.5,19C 180.377,8.86452 206.043,2.36452 232.5,-0.5 Z"/></g>
</svg>
