<?xml version="1.0" encoding="UTF-8"?>
<!DOCTYPE svg PUBLIC "-//W3C//DTD SVG 1.1//EN" "http://www.w3.org/Graphics/SVG/1.1/DTD/svg11.dtd">
<svg xmlns="http://www.w3.org/2000/svg" version="1.1" width="512px" height="512px" style="shape-rendering:geometricPrecision; text-rendering:geometricPrecision; image-rendering:optimizeQuality; fill-rule:evenodd; clip-rule:evenodd" xmlns:xlink="http://www.w3.org/1999/xlink">
<g><path style="opacity:0.995" fill="#888888" d="M 197.5,-0.5 C 236.167,-0.5 274.833,-0.5 313.5,-0.5C 318.031,2.20594 320.865,6.20594 322,11.5C 324.854,33.8194 328.354,55.986 332.5,78C 347.875,84.7667 362.375,92.9333 376,102.5C 397.889,94.1387 419.722,85.6387 441.5,77C 448.561,75.4603 454.061,77.627 458,83.5C 475.608,113.728 493.441,143.728 511.5,173.5C 511.5,176.833 511.5,180.167 511.5,183.5C 496.001,197.267 479.668,210.101 462.5,222C 458.471,225.034 454.804,228.367 451.5,232C 453.98,248.207 454.147,264.373 452,280.5C 468.5,293 485,305.5 501.5,318C 505.361,320.696 508.694,323.863 511.5,327.5C 511.5,330.833 511.5,334.167 511.5,337.5C 493.774,366.605 476.274,395.938 459,425.5C 455.399,432.923 449.566,435.756 441.5,434C 419.588,425.696 397.755,417.196 376,408.5C 367.934,413.785 359.768,418.952 351.5,424C 345.148,427.679 338.481,430.512 331.5,432.5C 328.085,456.902 324.252,481.235 320,505.5C 317.937,507.734 315.771,509.734 313.5,511.5C 274.833,511.5 236.167,511.5 197.5,511.5C 192.94,508.766 190.107,504.766 189,499.5C 186.146,477.181 182.646,455.014 178.5,433C 163.125,426.233 148.625,418.067 135,408.5C 113.111,416.861 91.2776,425.361 69.5,434C 62.4389,435.54 56.9389,433.373 53,427.5C 35.3924,397.272 17.559,367.272 -0.5,337.5C -0.5,334.167 -0.5,330.833 -0.5,327.5C 1.26589,325.229 3.26589,323.063 5.5,321C 23.6025,307.864 41.4358,294.364 59,280.5C 58.4729,272.713 57.9729,264.88 57.5,257C 57.6472,248.187 58.6472,239.52 60.5,231C 43.4495,217.615 26.1162,204.615 8.5,192C 4.59151,189.594 1.59151,186.428 -0.5,182.5C -0.5,179.833 -0.5,177.167 -0.5,174.5C 16.9737,144.896 34.4737,115.23 52,85.5C 55.6008,78.0772 61.4342,75.2439 69.5,77C 91.4121,85.3039 113.245,93.8039 135,102.5C 143.733,96.8812 152.566,91.3812 161.5,86C 167.252,82.8076 173.252,80.3076 179.5,78.5C 182.915,54.0982 186.748,29.7648 191,5.5C 193.063,3.26589 195.229,1.26589 197.5,-0.5 Z M 252.5,159.5 C 296.505,160.705 328.005,181.038 347,220.5C 362.131,268.441 349.298,306.941 308.5,336C 275.365,355.023 241.698,356.023 207.5,339C 162.94,310.662 148.44,271.162 164,220.5C 181.694,182.964 211.194,162.631 252.5,159.5 Z"/></g>
</svg>
