<svg width="560" height="560" viewBox="0 0 560 560" fill="none" xmlns="http://www.w3.org/2000/svg">
<g clip-path="url(#clip0_1027_6654)">
<path d="M478.37 110.055L442.226 514.96L279.757 560.002L117.736 515.023L81.6299 110.055H478.37Z" fill="#004CE8"/>
<path d="M411.283 489.174L442.17 143.164H280V525.571L411.283 489.174Z" fill="#0065F4"/>
<path d="M164.402 293.367L168.853 343.034H280L301.365 318.201L280 293.367H164.402Z" fill="#EBEBEB"/>
<path d="M280 192.836H279.828H155.457L159.972 242.504H280L301.364 217.67L280 192.836Z" fill="#EBEBEB"/>
<path d="M280 474.033L301.364 447.695L280 422.358L279.783 422.416L224.467 407.48L220.931 367.867H194.052H171.073L178.031 445.853L279.772 474.097L280 474.033Z" fill="#EBEBEB"/>
<path d="M175 0H235.156V25.1562H200.156V50.3125H235.156V75.4688H175V0Z" fill="black"/>
<path d="M247.188 0H307.344V21.875H272.344V26.25H307.344V76.5625H247.188V53.5938H282.188V49.2188H247.188V0Z" fill="black"/>
<path d="M319.375 0H379.531V21.875H344.531V26.25H379.531V76.5625H319.375V53.5938H354.375V49.2188H319.375V0Z" fill="black"/>
<path d="M340.988 343.032L335.223 407.447L279.828 422.399V474.072L381.65 445.852L382.397 437.461L394.068 306.702L395.28 293.365L404.247 192.836H279.828V242.504H349.815L345.296 293.365H279.828V343.032H340.988Z" fill="white"/>
</g>
<defs>
<clipPath id="clip0_1027_6654">
<rect width="560" height="560" fill="white"/>
</clipPath>
</defs>
</svg>
