<svg width="545" height="545" viewBox="0 0 545 545" fill="none" xmlns="http://www.w3.org/2000/svg">
<path d="M110.96 433.118L17.88 340.038C6.84 328.718 0 312.718 0 297.078C0 289.838 4.08 278.518 7.16 272.038L93.08 93.0781L110.96 433.118Z" fill="#01579B"/>
<path d="M429.56 110.96L336.48 17.88C328.36 9.72 311.44 0 297.12 0C284.8 0 272.72 2.48 264.92 7.16L93.1196 93.08L429.56 110.96ZM221.92 544.08H447.44V447.44L279.2 393.72L125.28 447.44L221.92 544.08Z" fill="#40C4FF"/>
<path d="M93.0801 382.998C93.0801 411.718 96.6801 418.758 110.96 433.118L125.28 447.438H447.44L289.96 268.478L93.0801 93.0781V382.998Z" fill="#29B6F6"/>
<path d="M379.44 93.0391H93.0801L447.44 447.399H544.08V225.479L429.52 110.919C413.44 94.7991 399.16 93.0391 379.44 93.0391Z" fill="#01579B"/>
<path opacity="0.2" d="M114.56 436.678C100.24 422.318 96.6799 408.158 96.6799 382.998V96.6381L93.1199 93.0781V382.998C93.0799 408.158 93.0799 415.118 114.56 436.678Z" fill="white"/>
<path opacity="0.2" d="M540.52 221.922V443.842H443.88L447.44 447.442H544.08V225.482L540.52 221.922Z" fill="#263238"/>
<path opacity="0.2" d="M429.56 110.958C411.8 93.1981 397.28 93.0781 375.88 93.0781H93.1196L96.6796 96.6381H375.88C386.56 96.6381 413.52 94.8381 429.56 110.958Z" fill="white"/>
<path opacity="0.2" d="M540.52 221.92L429.56 110.96L336.48 17.88C328.36 9.72 311.44 0 297.12 0C284.8 0 272.72 2.48 264.92 7.16L93.12 93.08L7.20004 272.04C4.12004 278.56 0.0400391 289.88 0.0400391 297.08C0.0400391 312.72 6.92004 328.68 17.92 340.04L103.68 425.2C105.72 427.72 108.12 430.28 110.96 433.12L114.52 436.68L125.24 447.4L218.32 540.48L221.88 544.04H447.36V447.4H544V225.48L540.52 221.92Z" fill="url(#paint0_radial_1333_6667)"/>
<path opacity="0.2" d="M540.52 221.92L429.56 110.96L336.48 17.88C328.36 9.72 311.44 0 297.12 0C284.8 0 272.72 2.48 264.92 7.16L93.12 93.08L7.20004 272.04C4.12004 278.56 0.0400391 289.88 0.0400391 297.08C0.0400391 312.72 6.92004 328.68 17.92 340.04L103.68 425.2C105.72 427.72 108.12 430.28 110.96 433.12L114.52 436.68L125.24 447.4L218.32 540.48L221.88 544.04H447.36V447.4H544V225.48L540.52 221.92Z" fill="url(#paint1_radial_1333_6667)"/>
<defs>
<radialGradient id="paint0_radial_1333_6667" cx="0" cy="0" r="1" gradientUnits="userSpaceOnUse" gradientTransform="translate(272.02 272.028) scale(272 272)">
<stop stop-color="white" stop-opacity="0.1"/>
<stop offset="1" stop-color="white" stop-opacity="0"/>
</radialGradient>
<radialGradient id="paint1_radial_1333_6667" cx="0" cy="0" r="1" gradientUnits="userSpaceOnUse" gradientTransform="translate(272.02 272.028) scale(272 272)">
<stop stop-color="white" stop-opacity="0.1"/>
<stop offset="1" stop-color="white" stop-opacity="0"/>
</radialGradient>
</defs>
</svg>
