<svg width="592" height="222" viewBox="0 0 592 222" fill="none" xmlns="http://www.w3.org/2000/svg">
<g clip-path="url(#clip0_1275_6556)">
<path d="M44.6739 67.1546C43.521 67.1546 43.2328 66.5757 43.8092 65.7074L49.8618 57.8925C50.4382 57.0242 51.8793 56.4453 53.0322 56.4453H155.926C157.079 56.4453 157.367 57.3136 156.791 58.1819L151.891 65.7074C151.315 66.5757 149.873 67.444 149.009 67.444L44.6739 67.1546Z" fill="#00ACD7"/>
<path d="M1.15287 93.7718C0 93.7718 -0.288218 93.1929 0.288218 92.3246L6.3408 84.5097C6.91723 83.6414 8.35833 83.0625 9.5112 83.0625H140.939C142.092 83.0625 142.668 83.9308 142.38 84.7991L140.074 91.7457C139.786 92.9034 138.633 93.4823 137.48 93.4823L1.15287 93.7718Z" fill="#00ACD7"/>
<path d="M70.9019 120.397C69.749 120.397 69.4608 119.528 70.0372 118.66L74.0723 111.424C74.6487 110.556 75.8016 109.688 76.9545 109.688H134.598C135.751 109.688 136.327 110.556 136.327 111.714L135.751 118.66C135.751 119.818 134.598 120.686 133.733 120.686L70.9019 120.397Z" fill="#00ACD7"/>
<path d="M370.072 61.93C351.914 66.561 339.521 70.0343 321.652 74.6653C317.328 75.8231 317.04 76.1125 313.293 71.7709C308.97 66.8505 305.8 63.6666 299.747 60.7723C281.589 51.7996 264.008 54.4046 247.58 65.1138C227.981 77.8492 217.893 96.6627 218.181 120.107C218.469 143.262 234.321 162.365 257.091 165.549C276.69 168.154 293.118 161.208 306.088 146.446C308.682 143.262 310.988 139.789 313.87 135.737C303.494 135.737 290.524 135.737 258.244 135.737C252.191 135.737 250.75 131.974 252.767 127.054C256.514 118.081 263.432 103.03 267.467 95.505C268.331 93.7683 270.349 90.8739 274.672 90.8739C289.371 90.8739 343.556 90.8739 379.583 90.8739C379.007 98.6888 379.007 106.504 377.854 114.319C374.684 135.158 366.902 154.261 354.22 171.049C333.469 198.545 306.376 215.622 272.078 220.253C243.833 224.016 217.605 218.517 194.547 201.15C173.219 184.942 161.114 163.523 157.944 136.895C154.197 105.346 163.42 76.9809 182.442 52.0891C202.906 25.1712 229.998 8.09428 263.143 2.01606C290.236 -2.90441 316.175 0.279419 339.521 16.1986C354.797 26.329 365.749 40.2221 372.954 57.0095C374.684 59.6145 373.531 61.0617 370.072 61.93Z" fill="#00ACD7"/>
<path d="M465.473 221.99C439.245 221.411 415.323 213.885 395.147 196.519C378.143 181.757 367.478 162.944 364.02 140.657C358.832 107.95 367.767 79.0065 387.366 53.2464C408.405 25.4602 433.769 10.9882 468.067 4.90998C497.465 -0.299933 525.134 2.59446 550.209 19.6714C572.978 35.3011 587.101 56.4302 590.848 84.2164C595.747 123.291 584.507 155.129 557.702 182.336C538.68 201.729 515.334 213.885 488.53 219.385C480.748 220.832 472.966 221.121 465.473 221.99ZM534.069 105.056C533.78 101.293 533.78 98.3989 533.204 95.5045C528.016 66.85 501.788 50.6414 474.407 57.0091C447.603 63.0873 430.31 80.1642 423.969 107.372C418.781 129.948 429.734 152.813 450.485 162.076C466.337 169.022 482.189 168.154 497.465 160.339C520.234 148.472 532.627 129.948 534.069 105.056Z" fill="#00ACD7"/>
</g>
<defs>
<clipPath id="clip0_1275_6556">
<rect width="592" height="222" fill="white"/>
</clipPath>
</defs>
</svg>
