<svg width="596" height="596" viewBox="0 0 596 596" fill="none" xmlns="http://www.w3.org/2000/svg">
<path d="M126.184 0H152.958V26.5406H177.636V0H204.409V80.3203H177.636V53.5469H153.191V80.3203H126.184V0ZM239.797 26.7734H216.166V0H290.317V26.7734H266.57V80.3203H239.797V26.7734ZM302.074 0H330.128L347.356 28.2867L364.584 0H392.638V80.3203H365.865V40.5094L347.123 69.3781L328.382 40.5094V80.3203H302.074V0ZM405.909 0H432.682V53.7797H470.63V80.3203H405.909V0Z" fill="black"/>
<path d="M125.253 548.27L86.8391 117.102H509.161L470.747 548.037L297.651 595.997" fill="#FF4C1E"/>
<path d="M298 559.332V152.492H470.63L437.688 520.336L298 559.332Z" fill="#FF651E"/>
<path d="M165.297 205.227H298L317.732 231.651L298 258.075H223.267L228.156 312.204H298L317.732 339.616L298 364.936H179.731L165.297 205.227ZM182.059 391.477H235.141L238.866 433.732L298 449.563L320.265 475.941L298 504.74L189.509 474.474L182.059 391.477Z" fill="#EBEBEB"/>
<path d="M430.238 205.227H297.767V258.075H425.349L430.238 205.227ZM420.576 312.204H297.767V365.052H362.955L356.785 433.732L297.767 449.563V504.507L406.025 474.474L420.576 312.204Z" fill="white"/>
</svg>
