<svg width="548" height="548" viewBox="0 0 548 548" fill="none" xmlns="http://www.w3.org/2000/svg">
<g clip-path="url(#clip0_1027_6643)">
<path d="M0 0H548V548H0V0Z" fill="#FFDF00"/>
<path d="M368.117 428.129C379.155 446.152 393.516 459.4 418.916 459.4C440.253 459.4 453.883 448.735 453.883 434C453.883 416.342 439.879 410.088 416.393 399.815L403.52 394.291C366.359 378.46 341.674 358.628 341.674 316.701C341.674 278.08 371.101 248.68 417.089 248.68C449.83 248.68 473.368 260.074 490.329 289.91L450.23 315.658C441.401 299.827 431.876 293.59 417.089 293.59C402.006 293.59 392.446 303.159 392.446 315.658C392.446 331.107 402.015 337.36 424.108 346.929L436.982 352.443C480.735 371.206 505.438 390.333 505.438 433.339C505.438 479.701 469.017 505.101 420.106 505.101C372.283 505.101 341.386 482.311 326.268 452.44L368.117 428.129ZM186.207 432.591C194.296 446.944 201.655 459.079 219.348 459.079C236.266 459.079 246.939 452.459 246.939 426.721V251.621H298.434V427.415C298.434 480.736 267.172 505.006 221.54 505.006C180.309 505.006 156.433 483.668 144.289 457.969L186.207 432.591Z" fill="black"/>
</g>
<defs>
<clipPath id="clip0_1027_6643">
<rect width="548" height="548" fill="white"/>
</clipPath>
</defs>
</svg>
