<svg width="876" height="1016" viewBox="0 0 876 1016" fill="none" xmlns="http://www.w3.org/2000/svg">
<path d="M45.4927 534.603C45.4927 565.641 43.0112 575.75 36.6301 583.199C29.5284 589.598 20.3086 593.137 10.7517 593.132L13.2332 610.868C28.0495 611.068 42.4261 605.831 53.6462 596.147C59.6833 588.78 64.1758 580.272 66.8555 571.131C69.5355 561.989 70.3478 552.401 69.2442 542.939V425.525H45.4927V533.893V534.603Z" fill="#4E4E4E"/>
<path d="M222.625 520.615C222.625 533.917 222.625 545.8 223.689 556.087H202.596L201.178 534.981C196.766 542.449 190.457 548.614 182.892 552.851C175.326 557.088 166.775 559.245 158.106 559.102C137.545 559.102 113.085 547.928 113.085 502.347V426.613H136.836V497.558C136.836 522.211 144.458 538.706 165.905 538.706C170.318 538.753 174.695 537.918 178.781 536.251C182.867 534.583 186.579 532.116 189.699 528.993C192.819 525.871 195.285 522.157 196.952 518.068C198.619 513.98 199.453 509.6 199.406 505.184V425.727H223.157V519.905L222.625 520.615Z" fill="#4E4E4E"/>
<path d="M267.647 468.806C267.647 452.311 267.647 438.832 266.583 426.594H287.853L288.916 448.764C293.655 440.754 300.478 434.181 308.656 429.746C316.834 425.311 326.062 423.179 335.356 423.579C366.907 423.579 390.658 450.005 390.658 489.38C390.658 535.848 362.121 558.905 331.279 558.905C323.385 559.258 315.534 557.566 308.485 553.992C301.437 550.419 295.429 545.086 291.044 538.509V609.453H267.647V469.338V468.806ZM291.044 503.391C291.108 506.609 291.464 509.815 292.107 512.969C294.118 520.844 298.696 527.823 305.117 532.802C311.537 537.781 319.434 540.476 327.557 540.46C352.549 540.46 367.261 520.063 367.261 490.444C367.261 464.549 353.436 442.379 328.443 442.379C318.553 443.189 309.298 447.582 302.412 454.732C295.527 461.883 291.485 471.301 291.044 481.221V503.391Z" fill="#4E4E4E"/>
<path d="M432.977 426.474L461.514 502.917C464.527 511.43 467.718 521.717 469.845 529.343C472.326 521.539 474.985 511.607 478.176 502.384L504.054 426.474H529.046L493.596 518.702C475.871 563.042 465.059 585.922 448.752 599.756C440.538 607.263 430.525 612.517 419.683 615.009L413.834 595.144C421.415 592.652 428.452 588.74 434.572 583.616C443.219 576.564 450.081 567.571 454.601 557.366C455.569 555.599 456.228 553.68 456.551 551.691C456.349 549.55 455.811 547.455 454.956 545.483L406.744 426.119H432.622L432.977 426.474Z" fill="#4E4E4E"/>
<path d="M592.1 389.266V426.511H626.132V444.248H592.1V514.128C592.1 530.09 596.709 539.313 609.825 539.313C614.484 539.389 619.132 538.853 623.65 537.717L624.714 555.453C617.938 557.802 610.788 558.884 603.621 558.646C598.875 558.943 594.12 558.209 589.684 556.495C585.248 554.78 581.235 552.126 577.92 548.713C570.7 539.051 567.407 527.01 568.703 515.015V444.07H548.496V426.334H569.057V394.764L592.1 389.266Z" fill="#4E4E4E"/>
<path d="M669.884 495.424C669.403 501.439 670.233 507.487 672.316 513.15C674.4 518.812 677.687 523.955 681.951 528.222C686.215 532.489 691.355 535.778 697.014 537.863C702.673 539.948 708.717 540.778 714.728 540.297C726.887 540.569 738.966 538.272 750.178 533.557L754.255 551.293C740.497 556.964 725.703 559.683 710.829 559.274C702.157 559.868 693.461 558.578 685.334 555.493C677.208 552.408 669.845 547.601 663.75 541.401C657.655 535.201 652.972 527.755 650.023 519.574C647.074 511.393 645.928 502.671 646.664 494.005C646.664 454.986 669.884 424.125 707.815 424.125C750.355 424.125 760.99 461.371 760.99 485.137C761.218 488.799 761.218 492.472 760.99 496.134H669.352L669.884 495.424ZM739.366 477.688C740.05 472.946 739.71 468.113 738.37 463.514C737.029 458.914 734.719 454.656 731.595 451.025C728.47 447.395 724.605 444.477 720.258 442.468C715.912 440.458 711.185 439.405 706.397 439.378C696.659 440.083 687.534 444.403 680.813 451.49C674.091 458.576 670.257 467.92 670.061 477.688H739.366Z" fill="#4E4E4E"/>
<path d="M797.029 466.806C797.029 451.554 797.029 438.429 795.965 426.368H817.235V451.731H818.299C820.531 443.903 825.144 436.965 831.496 431.879C837.849 426.794 845.626 423.814 853.749 423.353C855.984 423.059 858.248 423.059 860.484 423.353V445.523C857.775 445.209 855.039 445.209 852.331 445.523C844.284 445.835 836.627 449.067 830.788 454.616C824.949 460.164 821.329 467.65 820.603 475.675C819.94 479.304 819.584 482.982 819.539 486.671V555.664H796.142V466.984L797.029 466.806Z" fill="#4E4E4E"/>
<path d="M786.62 70.2328C787.347 82.1481 784.514 94.0104 778.481 104.309C772.448 114.607 763.487 122.875 752.741 128.06C741.995 133.245 729.95 135.111 718.14 133.422C706.33 131.732 695.29 126.563 686.426 118.573C677.563 110.584 671.276 100.134 668.368 88.5568C665.46 76.9794 666.063 64.7978 670.098 53.564C674.133 42.3302 681.419 32.5526 691.027 25.4767C700.636 18.4009 712.132 14.3472 724.05 13.8319C731.865 13.4017 739.687 14.5214 747.068 17.1268C754.448 19.7321 761.241 23.7718 767.056 29.0133C772.871 34.2548 777.593 40.5949 780.95 47.6688C784.308 54.7428 786.234 62.4112 786.62 70.2328Z" fill="#767677"/>
<path d="M436.132 764.834C276.608 764.834 136.403 707.547 63.9075 622.945C92.0358 699.054 142.79 764.713 209.339 811.085C275.888 857.458 355.038 882.316 436.132 882.316C517.228 882.316 596.376 857.458 662.926 811.085C729.474 764.713 780.229 699.054 808.358 622.945C736.04 707.547 596.366 764.834 436.132 764.834Z" fill="#F37726"/>
<path d="M436.132 214.693C595.657 214.693 735.863 271.981 808.358 356.582C780.229 280.474 729.474 214.815 662.926 168.442C596.376 122.07 517.228 97.2109 436.132 97.2109C355.038 97.2109 275.888 122.07 209.339 168.442C142.79 214.815 92.0358 280.474 63.9075 356.582C136.403 271.804 275.899 214.693 436.132 214.693Z" fill="#F37726"/>
<path d="M216.527 929.473C217.463 944.481 213.912 959.429 206.328 972.41C198.743 985.392 187.468 995.821 173.94 1002.37C160.411 1008.91 145.24 1011.28 130.362 1009.17C115.483 1007.06 101.568 1000.56 90.3921 990.512C79.2157 980.46 71.2831 967.305 67.6047 952.726C63.9264 938.146 64.6689 922.8 69.7378 908.644C74.8066 894.488 83.9722 882.162 96.0668 873.237C108.162 864.312 122.638 859.192 137.651 858.529C147.486 858.003 157.328 859.42 166.615 862.701C175.903 865.982 184.453 871.062 191.778 877.65C199.103 884.238 205.059 892.206 209.305 901.098C213.552 909.99 216.006 919.632 216.527 929.473Z" fill="#9E9E9E"/>
<path d="M82.0376 195.417C73.4418 195.654 64.9677 193.344 57.681 188.775C50.3943 184.206 44.6204 177.583 41.0852 169.74C37.55 161.896 36.4116 153.182 37.8129 144.692C39.2143 136.203 43.0929 128.318 48.9611 122.028C54.8292 115.739 62.4249 111.326 70.7929 109.344C79.1607 107.363 87.9273 107.902 95.9903 110.893C104.053 113.884 111.052 119.193 116.107 126.154C121.162 133.114 124.048 141.415 124.4 150.013C124.736 161.637 120.476 172.926 112.545 181.426C104.613 189.927 93.6508 194.955 82.0376 195.417Z" fill="#616262"/>
</svg>
