<svg width="40" height="34" viewBox="0 0 40 34" fill="none" xmlns="http://www.w3.org/2000/svg">
<path d="M15.8758 7.11816C17.8578 3.89878 22.5579 3.95887 24.457 7.22785L35.6205 26.4443C37.5604 29.7836 35.145 33.9702 31.2831 33.9674C27.6865 33.9648 23.5894 33.9671 20.2581 33.983C16.7404 33.9999 12.3887 34.0019 8.62121 33.9988C4.78072 33.9957 2.38781 29.8403 4.30566 26.513L9.74193 17.0814L15.8758 7.11816Z" fill="#5EC639"/>
<path d="M17.8387 14.6926C17.8387 15.8144 17.4271 16.3853 16.9194 16.3853C16.4116 16.3853 16 15.8144 16 14.6926C16 13.5709 16.4116 13 16.9194 13C17.4271 13 17.8387 13.5709 17.8387 14.6926Z" fill="black"/>
<path d="M23.3548 14.6926C23.3548 15.8144 22.9432 16.3853 22.4355 16.3853C21.9277 16.3853 21.5161 15.8144 21.5161 14.6926C21.5161 13.5709 21.9277 13 22.4355 13C22.9432 13 23.3548 13.5709 23.3548 14.6926Z" fill="black"/>
</svg>
