<svg width="317" height="317" viewBox="0 0 317 317" fill="none" xmlns="http://www.w3.org/2000/svg">
<g clip-path="url(#clip0_1350_6597)">
<path fill-rule="evenodd" clip-rule="evenodd" d="M84.6454 145.26C82.5484 145.699 80.9913 146.469 79.9857 147.593C78.9732 148.7 78.899 150.46 79.7612 152.847C81.0915 156.313 82.1353 160.252 82.8847 164.617C83.6506 168.993 84.0186 173.172 84.0186 177.152H85.4957C86.4599 172.894 87.011 167.956 87.1234 162.355C87.2449 156.752 86.4152 151.053 84.6454 145.26ZM158.114 47.7293C218.911 47.7293 268.498 97.3162 268.498 158.114C268.498 218.911 218.911 268.498 158.114 268.498C97.3162 268.498 47.7293 218.911 47.7293 158.114C47.7293 97.3162 97.3162 47.7293 158.114 47.7293ZM158.114 52.2166C193.9 52.2166 225.632 70.1282 244.817 97.4409L241.438 96.9053L234.333 96.2727L228.806 97.0606L223.285 99.5901L216.651 104.326L211.916 108.113L207.968 113.163L205.917 117.905L200.862 120.901L196.128 122.64L193.285 124.377L186.967 129.9L182.393 135.741C165.373 169.289 177.4 122.505 176.747 105.887C179.704 92.4387 177.573 93.7212 169.761 81.9082L161.549 75.1191L154.699 73.5433L149.257 74.8718L141.974 76.5702L140.736 80.9109L135.094 84.4339L125.783 85.6463L121.188 85.947L115.275 86.5532L111.047 87.6194L104.276 96.1721L106.295 99.6129L108.353 99.7805L107.817 101.143L110.866 107.402C118.053 107.23 119.898 107.058 127.085 106.886C131.949 108.164 135.561 113.836 135.614 117.518C137.665 120.428 134.376 127.839 128.354 138.052C120.253 151.789 123.248 165.13 124.53 176.33C125.313 180.587 126.095 182.183 127.317 185.563H105.579C103.84 183.85 98.8329 179.948 88.8654 179.379C88.6045 179.363 88.3471 179.351 88.0908 179.335C87.9081 179.191 87.7318 179.03 87.5657 178.864C87.5657 177.966 87.69 177.184 87.925 176.532C88.8441 171.55 89.1347 166.217 88.7959 160.572C88.4538 154.916 87.8021 149.723 86.8383 144.993C89.1347 145.495 90.3922 146.19 90.5789 147.072C90.7815 147.972 91.0385 149.353 91.3755 151.231C92.943 149.047 93.7947 147.245 93.9169 145.821C94.0293 144.399 93.0555 143.345 90.9837 142.665C91.8354 141.028 93.8636 140.467 97.0671 140.985C100.267 141.488 102.723 143.73 104.436 147.694C104.436 146.361 103.965 144.512 103.033 142.172C102.102 139.831 100.706 138.663 98.8239 138.663C99.1007 138.663 99.4481 138.568 99.8662 138.374C100.288 138.17 101.198 138.107 102.6 138.17C99.118 135.486 96.3945 134.812 94.4464 136.154C92.4831 137.502 90.8038 138.17 89.4071 138.17C90.4344 134.387 92.1616 132.227 94.5909 131.675C97.0188 131.124 98.4973 132.424 99.0484 135.586C99.2939 135.057 99.3357 134.126 99.1818 132.805C99.0268 131.484 98.6253 130.466 97.9722 129.739C96.1909 127.903 94.1642 128.037 91.8786 130.13C89.5927 132.237 88.1597 134.02 87.5657 135.486C88.3745 132.248 89.2352 130.039 90.1438 128.889C91.0493 127.721 91.9266 127.075 92.7887 126.941C93.6375 126.791 94.4464 126.904 95.1957 127.273C95.944 127.652 96.5812 127.733 97.1104 127.546C93.6613 125.961 91.0976 125.357 89.4179 125.715C87.7473 126.074 86.5813 126.812 85.9451 127.937C85.292 129.054 84.9813 130.252 84.9932 131.542C85.0029 132.832 84.9564 133.612 84.8808 133.869C81.9915 131.318 78.9423 130.109 75.7409 130.252C72.5377 130.387 69.9267 133.345 67.9086 139.122C69.1078 138.026 70.2424 136.562 71.3021 134.687C72.3658 132.832 74.7316 133.051 78.4066 135.351C77.9157 135.619 77.1491 136.078 76.1327 136.726C75.1101 137.39 74.6077 138.957 74.6077 141.455C73.3079 141.037 72.2695 141.098 71.4726 141.633C70.6749 142.172 70.0928 142.766 69.7504 143.425C69.0659 143.055 68.1937 142.698 67.1293 142.361C66.0545 142.013 64.9664 142.205 63.8811 142.933C63.2608 143.484 62.8275 144.345 62.5799 145.543C62.324 146.732 62.5122 147.656 63.1155 148.309C62.7461 149.038 62.1741 149.695 61.4135 150.299C60.6552 150.893 60.3611 152.477 60.564 155.041C60.9763 154.12 61.8973 152.856 63.33 151.231C64.7638 149.62 66.0426 148.801 67.1603 148.801C67.1603 149.723 67.1295 150.771 67.0691 151.937C67.0154 153.114 67.3265 154.178 68.012 155.141C68.012 153.997 68.1663 152.899 68.4817 151.857C68.8086 150.808 69.1781 149.823 69.6156 148.902C69.7933 148.902 70.5628 149.038 71.9444 149.294C73.3198 149.562 74.2923 150.091 74.8646 150.871C72.4782 151.241 71.1046 152.274 70.7142 153.975C70.3275 155.665 70.0816 157.046 69.9804 158.083C69.9804 158.4 70.2046 158.197 70.654 157.501C71.1046 156.8 71.687 156.046 72.4252 155.253C73.1526 154.457 73.9715 153.841 74.8646 153.413C75.7646 152.992 76.6564 153.205 77.5549 154.056C78.1496 154.65 78.8561 156.035 79.6577 158.222C80.4665 160.406 81.1128 162.857 81.5997 165.56C82.0766 168.253 82.2478 170.92 82.104 173.568C81.9641 176.013 81.3438 177.96 80.242 179.4C69.2231 180.179 65.6569 183.899 65.1682 185.563H55.8434C53.4815 176.803 52.2167 167.602 52.2167 158.114C52.2167 99.787 99.787 52.2166 158.114 52.2166ZM256.665 119.403C257.134 120.591 257.575 121.792 258.002 122.999C258.012 123.208 258.019 123.405 258.019 123.586C258.019 124.533 258.019 127.058 257.226 127.534C256.44 128.006 255.177 131.007 254.224 131.007C253.278 131.007 251.699 132.115 250.753 133.533C249.805 134.955 249.175 138.428 249.175 138.428L247.44 141.27L245.225 141.901L243.016 147.112L242.861 153.108L242.068 179.159L244.91 176.319L246.018 170.32C246.376 170.619 246.733 171.123 247.088 171.674L247.039 172.386C247.039 172.386 246.564 181.539 246.564 182.487C246.564 183.433 245.145 188.174 245.145 188.174L244.354 192.592H247.825C247.825 192.592 249.564 190.383 250.035 189.276C250.512 188.174 250.351 182.647 250.351 182.647C250.351 182.647 251.175 176.991 251.635 173.862C251.961 173.734 252.176 173.637 252.176 173.637L255.965 177.896C255.965 177.896 253.914 181.374 254.386 182.636C254.862 183.899 256.91 187.526 256.91 187.526C256.91 187.526 253.123 189.582 254.386 190.843C255.09 191.548 256.705 192.523 257.995 193.247C255.33 200.784 251.836 207.936 247.62 214.588H229.7C229.833 214.363 229.913 214.213 229.913 214.213L231.491 212.63C231.491 212.63 234.493 210.579 236.226 210.104C237.965 209.633 240.651 207.895 240.651 207.895L244.124 205.369V202.998L247.28 201.581L248.227 199.687L244.594 196.054C244.594 196.054 243.808 195.263 242.386 195.579C240.968 195.893 237.173 197.161 237.173 197.161L235.279 198.578L232.284 199.527L227.703 200.474L225.649 199.211L221.707 197.161L218.544 196.53L217.442 200.474L218.228 204.107L218.705 207.578L216.966 210.579L214.917 213.897L215.387 218.001L215.233 223.683L214.285 229.681L213.809 235.051L213.339 240.262V245.785L213.231 248.469C209.875 250.526 206.395 252.397 202.808 254.077H184.578C184.175 248.09 183.758 241.212 183.689 234.33H194.514L197.427 250.792L202.916 252.525L208.443 238.208L210.492 221.629L207.652 219.58L209.39 213.106L207.335 208.211L204.02 206.792L204.656 203.79L202.6 204.577L202.916 199.527L200.706 202.053L198.812 198.739L196.442 197.478L196.919 189.582C196.074 186.108 195.234 182.636 194.388 179.159C193.601 179.003 192.81 178.843 192.022 178.688L190.916 184.53L189.498 186.741L186.336 181.374L183.179 181.214L188.368 188.779L185.061 198.879L183.322 199.825L175.139 197.781L173.949 201.819L170.315 199.295L167.442 194.934L166.019 197.144H161.599L160.182 200.776L155.507 198.553L151.681 198.039C145.361 196.931 133.32 189.281 131.186 182.605C130.89 181.651 130.604 179.938 130.333 178.303C130.121 177.031 129.919 175.806 129.727 175.022C127.83 167.255 126.99 160.924 129.242 151.312C133.708 134.326 140.096 126.005 141.45 119.651C141.7 118.474 150.976 113.938 150.838 112.854C148.032 113.387 144.145 115.813 141.341 114.903L149.73 109.624C145.259 110.721 145.657 111.3 141.186 110.954L152.58 105.501L136.948 107.843C136.94 107.71 133.236 105.582 125.537 103.825L113.21 104.732L112.233 99.974L116.482 97.8618L110.908 97.97L108.767 94.73L112.283 90.3763L121.579 88.9533L134.551 88.6913L137.238 90.5919C141.005 89.1984 142.674 90.6312 144.563 92.9938C145.072 95.5821 141.21 90.3727 139.371 92.491L139.9 96.7146C144.862 96.2435 149.575 97.1759 151.719 93.6033C153.154 89.9294 151.64 86.8177 147.179 84.2673L145.877 87.4456L141.776 88.7717L140.607 85.1327L149.093 79.8001L154.444 79.3182L161.257 81.1654L167.106 86.6909C169.518 88.8347 156.546 92.0747 169.252 98.9248L160.255 103.806C158.851 104.567 170.899 102.829 168.612 110.522C170.313 114.312 162.775 110.926 153.461 120.517C156.608 124.831 165.105 116.509 154.425 126.017L169.077 120.808L169.117 122.768C166.246 123.572 158.888 126.677 153.262 128.182C157.869 129.453 165.73 128.16 169.028 125.759L168.623 133.89L164.186 138.992L159.922 140.094L162.292 143.889L161.501 147.045L157.867 149.254L163.18 149.729L160.703 152.32L153.137 154.11L161.378 153.912C164.445 156.757 157.583 157.124 152.675 158.246C158.376 158.902 163.389 159.282 163.593 157.739L164.139 158.627C167.796 163.235 159.001 161.811 154.281 163.259C161.369 164.661 166.516 164.921 167.397 162.671C168.827 165.228 168.817 164.775 168.896 165.286C169.135 166.82 162.207 169.065 157.067 171.868C155.099 172.941 170.077 172.212 173.803 166.487C174.723 165.071 165.734 173.994 176.275 167.322C177.081 166.812 176.997 168.951 177.755 167.793C178.333 168.323 177.391 170.272 177.97 166.687C179.022 174.734 182.2 176.419 186.336 175.215C186.966 174.585 187.599 173.952 188.235 173.321C186.235 169.426 184.233 165.532 182.233 161.636C184.748 164.611 186.614 166.296 183.972 158.951C186.443 161.005 188.914 163.055 191.392 165.109C192.022 164.585 192.655 164.055 193.285 163.53C191.328 160.699 189.365 157.871 187.405 155.041C187.096 152.119 188.074 150.749 190.338 150.914C191.708 151.573 193.083 152.235 194.458 152.895C195.046 152.938 195.64 152.98 196.228 153.017C194.318 150.984 189.775 146.341 191.005 140.638L202.691 129.113L209.706 134.48L210.653 135.111L211.761 137.635L214.285 140.007L217.281 143.323L227.543 145.849L228.967 146.003L227.859 142.692L229.282 139.691L232.754 137.481C232.754 137.481 228.334 137.481 227.543 137.635C226.756 137.796 219.336 137.953 219.336 137.953L215.864 137.796L214.285 135.426L216.651 136.374H219.175L220.284 134.955L220.438 132.115L217.597 130.06L218.86 129.744L222.338 132.27L223.6 130.851L222.338 129.112L218.86 124.533L215.548 116.957L215.387 116.165L222.177 112.378L225.177 110.009L229.127 109.06L232.599 106.374L234.963 106.22L238.126 109.376L242.386 113.163L245.225 116.796L248.227 120.431L250.436 122.955L251.545 119.483L253.439 120.583L254.224 117.589L256.124 120.269L256.665 119.403ZM246.609 216.15C242.666 222.136 238.137 227.706 233.097 232.768H218.519L219.021 231.265L220.438 225.107L220.284 220.366L222.338 218.001L225.649 216.262C225.649 216.262 227.073 216.578 227.859 216.578C228.073 216.578 228.323 216.403 228.572 216.15H246.609ZM231.506 234.33C226.681 238.978 221.417 243.172 215.786 246.848L216.966 237.416L217.997 234.33H231.506ZM199.339 255.634C186.658 261.026 172.724 264.011 158.114 264.011C143.504 264.011 129.569 261.025 116.887 255.634H170.326L173.711 260.788L184.876 258.443C184.814 257.536 184.75 256.598 184.684 255.634H199.339ZM113.418 254.077C102.776 249.093 93.0908 242.391 84.7211 234.33H164.616C164.524 237.699 164.029 241.151 163.132 244.682L169.303 254.077H113.418ZM83.1301 232.768C78.0898 227.707 73.562 222.136 69.6185 216.15H160.847C163.31 221.449 164.572 226.988 164.629 232.768H83.1301ZM68.6071 214.588C66.8849 211.871 65.2796 209.074 63.805 206.198H150.969C155.163 209.167 158.156 211.964 159.948 214.588H68.6071ZM63.0294 204.641C61.863 202.271 60.7824 199.852 59.7919 197.388H133.91C134.075 197.578 134.241 197.765 134.41 197.948C138.88 200.266 145.416 202.496 148.682 204.641H63.0294ZM59.1835 195.83C58.6959 194.558 58.2262 193.277 57.7869 191.983H130.185C130.952 193.377 131.776 194.658 132.654 195.83H59.1835ZM57.279 190.426C57.0822 189.815 56.8919 189.202 56.7059 188.586H128.519C128.795 189.218 129.079 189.831 129.373 190.426H57.279ZM158.114 0C245.2 0 316.228 71.0278 316.228 158.114C316.228 245.2 245.2 316.228 158.114 316.228C71.0278 316.228 0 245.2 0 158.114C0 71.0278 71.0278 0 158.114 0ZM158.114 10.7313C239.29 10.7313 305.497 76.9382 305.497 158.114C305.497 239.29 239.29 305.497 158.114 305.497C76.9382 305.497 10.7313 239.29 10.7313 158.114C10.7313 76.9382 76.9382 10.7313 158.114 10.7313ZM78.0487 140.958C78.2942 140.958 78.7436 140.75 79.4126 140.301C80.0762 139.862 80.9693 139.888 82.0936 140.364C81.954 138.797 81.2642 137.882 80.0066 137.614C78.7436 137.353 78.0905 138.465 78.0487 140.958ZM68.4024 145.362C68.012 144.949 67.4061 144.724 66.5782 144.693C65.7575 144.655 65.1426 144.757 64.731 144.993C64.5273 145.33 64.3457 145.79 64.1698 146.393C63.9881 146.999 63.9672 147.469 64.1006 147.817C64.5183 147.164 65.1004 146.844 65.8606 146.854C66.6092 146.865 67.2032 146.896 67.6531 146.967C67.7752 146.732 67.8877 146.426 67.9789 146.079C68.0694 145.73 68.2038 145.484 68.4024 145.362ZM72.4043 144.768C72.7842 144.902 73.3198 145.185 74.0252 145.618C74.7417 146.056 75.3469 146.549 75.8551 147.1C75.7163 146.796 75.4803 146.137 75.1494 145.148C74.8113 144.152 74.5554 143.494 74.3737 143.157C74.116 143.157 73.7466 143.323 73.287 143.649C72.826 143.986 72.5377 144.354 72.4043 144.768ZM78.2823 144.019C78.1496 144.275 78.101 145.115 78.1392 146.528C78.1608 147.94 78.3371 148.721 78.6431 148.902C78.7761 147.94 79.0428 146.618 79.445 144.949C79.8513 143.28 80.6428 142.44 81.8211 142.44C80.7131 142.575 79.9738 142.729 79.6267 142.933C79.2792 143.124 78.8298 143.494 78.2823 144.019ZM194.237 232.768L191.297 216.15H184.639C183.915 221.301 183.667 227.013 183.679 232.768H194.237ZM191.02 214.588L190.917 214.004L188.758 214.588H191.02ZM57.8131 261.311L56.4925 248.705L44.4064 245.582L55.6357 240.675L54.5869 229.242L62.3291 237.749L73.8107 232.735L67.8931 243.724L75.8807 253.125L63.8858 250.532L57.8131 261.311ZM256.974 262.618L250.891 251.283L238.341 252.992L246.997 244.073L241.626 233.741L252.166 238.755L261.014 229.632L259.682 242.227L270.795 247.984L258.538 250.157L256.974 262.618ZM182.35 295.134L178.198 274.852L182.542 274.049L185.984 290.886L196.786 288.891L197.491 292.336L182.35 295.134ZM160.179 296.906L159.028 276.098L168.332 275.633C170.671 275.521 172.384 275.623 173.463 275.943C174.539 276.264 175.428 276.884 176.116 277.805C176.807 278.737 177.182 279.812 177.251 281.042C177.337 282.599 176.925 283.915 176.021 284.981C175.111 286.045 173.699 286.757 171.795 287.116C172.778 287.602 173.602 288.143 174.262 288.747C174.914 289.352 175.812 290.432 176.956 291.999L179.857 295.927L174.571 296.188L171.126 291.818C169.9 290.256 169.072 289.277 168.633 288.875C168.187 288.48 167.728 288.211 167.252 288.077C166.775 287.944 166.032 287.901 165.01 287.956L164.121 287.998L164.598 296.687L160.179 296.906ZM163.94 284.675L167.204 284.514C169.323 284.407 170.644 284.259 171.163 284.065C171.681 283.868 172.078 283.552 172.356 283.118C172.629 282.69 172.752 282.161 172.714 281.541C172.677 280.834 172.448 280.283 172.029 279.87C171.617 279.459 171.045 279.218 170.323 279.139C169.959 279.112 168.884 279.139 167.091 279.227L163.646 279.4L163.94 284.675ZM139.747 295.709L141.271 274.927L157.476 276.003L157.221 279.523L145.429 278.737L145.086 283.343L156.065 284.07L155.808 287.569L144.829 286.842L144.416 292.497L156.627 293.31L156.369 296.814L139.747 295.709ZM119.886 291.379L124.814 271.08L131.732 272.601C134.348 273.173 136.034 273.654 136.783 274.034C137.933 274.6 138.799 275.488 139.378 276.694C139.956 277.897 140.047 279.303 139.656 280.914C139.35 282.161 138.859 283.16 138.174 283.899C137.494 284.649 136.729 285.183 135.872 285.504C135.027 285.831 134.205 285.987 133.412 285.975C132.331 285.944 130.818 285.717 128.864 285.285L126.056 284.669L124.194 292.327L119.886 291.379ZM128.292 275.462L126.891 281.218L129.249 281.738C130.951 282.113 132.112 282.256 132.739 282.171C133.358 282.08 133.888 281.85 134.327 281.47C134.761 281.085 135.048 280.599 135.199 279.994C135.376 279.26 135.296 278.597 134.953 278.015C134.621 277.442 134.113 277.009 133.443 276.741C132.947 276.533 131.924 276.259 130.372 275.922L128.292 275.462ZM275.268 173.888L295.843 177.146L293.607 191.255L290.124 190.704L291.702 180.754L286.834 179.982L285.47 188.569L281.988 188.019L283.351 179.432L274.61 178.045L275.268 173.888ZM286.53 150.332C288.654 150.332 290.435 150.647 291.874 151.285C292.934 151.76 293.885 152.402 294.732 153.227C295.57 154.044 296.197 154.944 296.604 155.917C297.155 157.218 297.427 158.711 297.427 160.406C297.427 163.478 296.482 165.933 294.571 167.778C292.671 169.62 290.023 170.539 286.63 170.539C283.266 170.539 280.633 169.625 278.734 167.795C276.84 165.965 275.889 163.521 275.889 160.464C275.889 157.367 276.835 154.901 278.719 153.077C280.612 151.247 283.218 150.332 286.53 150.332ZM286.668 154.666C284.315 154.666 282.522 155.21 281.307 156.297C280.089 157.389 279.482 158.774 279.482 160.449C279.482 162.124 280.082 163.505 281.297 164.58C282.506 165.648 284.315 166.19 286.727 166.19C289.113 166.19 290.895 165.666 292.071 164.622C293.25 163.573 293.832 162.182 293.832 160.449C293.832 158.716 293.238 157.32 292.05 156.253C290.863 155.201 289.071 154.666 286.668 154.666ZM281.59 133.682L281.324 137.946C278.964 137.892 277.076 137.293 275.652 136.149C274.229 135.01 273.245 133.35 272.704 131.178C272.035 128.497 272.405 126.058 273.807 123.876C275.208 121.692 277.504 120.199 280.682 119.408C284.047 118.568 286.872 118.787 289.172 120.06C291.463 121.334 292.965 123.383 293.671 126.219C294.286 128.685 294.056 130.879 292.98 132.788C292.35 133.923 291.275 134.923 289.771 135.786L287.797 131.987C288.792 131.489 289.493 130.782 289.911 129.867C290.328 128.958 290.402 127.963 290.129 126.876C289.76 125.383 288.916 124.298 287.61 123.634C286.305 122.971 284.442 122.938 282.036 123.538C279.477 124.175 277.77 125.084 276.92 126.278C276.059 127.465 275.819 128.797 276.181 130.269C276.455 131.354 277.034 132.199 277.915 132.809C278.798 133.421 280.025 133.708 281.59 133.682ZM267.76 115.1L286.941 106.958L288.584 110.831L269.403 118.969L267.76 115.1ZM260.147 99.2322L278.392 89.5311L280.365 93.2454L265.221 101.297L270.131 110.533L267.028 112.179L260.147 99.2322ZM265.397 69.8859L270.174 76.7072C271.12 78.0566 271.768 79.1055 272.122 79.8538C272.474 80.5912 272.65 81.3463 272.662 82.1224C272.672 82.898 272.502 83.6629 272.148 84.4288C271.805 85.1926 271.259 85.8352 270.52 86.3499C269.724 86.91 268.842 87.2106 267.873 87.247C266.9 87.2849 265.99 87.0499 265.145 86.5471C265.567 87.7981 265.61 88.9591 265.273 90.0249C264.936 91.1001 264.273 91.9774 263.288 92.6669C262.512 93.2079 261.629 93.5604 260.646 93.7122C259.661 93.8661 258.723 93.7796 257.852 93.4635C256.981 93.1492 256.166 92.5649 255.423 91.7215C254.963 91.1913 253.951 89.8317 252.395 87.6439L248.328 81.8333L265.397 69.8859ZM264.969 75.3217L261.026 78.088L262.603 80.3454C263.544 81.6899 264.15 82.5077 264.417 82.8065C264.894 83.3475 265.422 83.6686 266 83.7688C266.572 83.8723 267.135 83.727 267.686 83.3367C268.215 82.9683 268.542 82.5232 268.67 82.0045C268.794 81.4808 268.691 80.9077 268.355 80.287C268.157 79.9176 267.488 78.9235 266.354 77.3015L264.969 75.3217ZM258.184 80.0729L253.62 83.2675L255.852 86.4559C256.723 87.6979 257.306 88.4617 257.612 88.7461C258.061 89.1956 258.586 89.4518 259.168 89.5221C259.752 89.5913 260.35 89.4151 260.955 88.9919C261.468 88.634 261.812 88.2044 261.998 87.7077C262.18 87.2052 262.192 86.6646 262.025 86.081C261.859 85.4982 261.228 84.4234 260.131 82.8562L258.184 80.0729ZM247.36 52.0166L250.436 54.885L242.744 63.1389C241.522 64.4448 240.769 65.3329 240.48 65.7928C240.031 66.5357 239.881 67.3351 240.019 68.1685C240.164 69.0079 240.667 69.8322 241.522 70.6288C242.395 71.4492 243.224 71.8827 244 71.9404C244.776 71.9988 245.449 71.8071 246.022 71.3684C246.6 70.9344 247.445 70.1108 248.575 68.9073L256.435 60.4757L259.51 63.348L252.048 71.3472C250.339 73.1771 249.052 74.3971 248.179 74.9947C247.312 75.5945 246.414 75.9488 245.477 76.049C244.551 76.151 243.561 76.0072 242.53 75.6219C241.492 75.2312 240.372 74.471 239.164 73.3483C237.714 71.9887 236.762 70.796 236.327 69.7583C235.89 68.7199 235.703 67.7294 235.767 66.7876C235.83 65.8411 236.066 65.0114 236.479 64.2959C237.089 63.2301 238.19 61.8511 239.784 60.143L247.36 52.0166ZM217.191 56.2168L228.538 38.7436L234.199 42.4182C236.339 43.8091 237.681 44.8097 238.217 45.403C239.053 46.3185 239.523 47.4326 239.629 48.7478C239.732 50.0692 239.335 51.4226 238.43 52.8081C237.735 53.883 236.954 54.6586 236.087 55.1351C235.221 55.6123 234.36 55.8679 233.481 55.8953C232.615 55.9219 231.828 55.7987 231.122 55.5316C230.17 55.1524 228.897 54.4459 227.297 53.4075L224.996 51.9164L220.716 58.5063L217.191 56.2168ZM230.143 43.9912L226.928 48.945L228.854 50.1975C230.245 51.1011 231.235 51.6158 231.824 51.7384C232.406 51.8559 232.957 51.813 233.481 51.5935C234.001 51.3743 234.43 51.0106 234.766 50.4967C235.178 49.8601 235.328 49.2139 235.226 48.5543C235.12 47.908 234.815 47.3356 234.312 46.8642C233.942 46.5052 233.118 45.9231 231.852 45.0988L230.143 43.9912ZM199.685 47.7732L208.16 28.7447L222.268 35.0239L220.833 38.2462L210.567 33.6712L208.684 37.8919L218.239 42.1457L216.816 45.3507L207.262 41.0969L204.955 46.2756L215.586 51.0106L214.157 54.216L199.685 47.7732ZM179.364 41.6797L185.106 21.6492L193.617 24.0937C195.758 24.7035 197.261 25.3357 198.128 25.9719C198.994 26.6088 199.588 27.4695 199.909 28.5566C200.226 29.6484 200.215 30.7751 199.879 31.9638C199.445 33.4621 198.648 34.5798 197.486 35.3072C196.325 36.0309 194.822 36.2713 192.992 36.019C193.719 36.7857 194.281 37.5498 194.676 38.3255C195.067 39.0961 195.523 40.3955 196.043 42.2308L197.37 46.8436L192.537 45.4578L190.863 40.2556C190.269 38.4001 189.84 37.2178 189.572 36.7046C189.311 36.1899 188.98 35.7945 188.599 35.5227C188.209 35.2499 187.556 34.9821 186.624 34.7143L185.806 34.4782L183.409 42.8403L179.364 41.6797ZM186.727 31.2793L189.712 32.135C191.654 32.6911 192.89 32.9593 193.42 32.9384C193.949 32.911 194.405 32.7348 194.795 32.4147C195.179 32.0932 195.464 31.6322 195.635 31.0274C195.832 30.3537 195.806 29.7604 195.564 29.2411C195.324 28.7209 194.892 28.3147 194.265 28.0152C193.949 27.8826 192.976 27.5766 191.334 27.1065L188.181 26.203L186.727 31.2793ZM158.392 32.8534V29.3373H167.46V37.6349C166.578 38.4913 165.3 39.2399 163.631 39.8926C161.955 40.5403 160.258 40.8619 158.547 40.8619C156.369 40.8619 154.472 40.4074 152.849 39.4972C151.229 38.5763 150.014 37.2712 149.195 35.5714C148.382 33.868 147.975 32.0171 147.975 30.0232C147.975 27.8552 148.43 25.9236 149.334 24.2335C150.249 22.5528 151.576 21.2585 153.337 20.3595C154.669 19.665 156.332 19.3215 158.323 19.3215C160.906 19.3215 162.928 19.8621 164.379 20.9471C165.834 22.0341 166.772 23.5336 167.188 25.4482L163.009 26.2278C162.715 25.2067 162.164 24.3943 161.35 23.8046C160.543 23.2106 159.531 22.9165 158.323 22.9165C156.483 22.9165 155.023 23.5008 153.936 24.6606C152.849 25.8331 152.309 27.5546 152.309 29.8505C152.309 32.3232 152.86 34.1805 153.963 35.4142C155.054 36.6498 156.499 37.2647 158.274 37.2647C159.156 37.2647 160.04 37.0953 160.928 36.7464C161.811 36.4047 162.577 35.9826 163.213 35.4953V32.8534H158.392ZM127.992 43.6646L124.734 23.0884L128.779 22.4468L139.378 34.853L137.199 21.1132L141.062 20.4983L144.321 41.076L140.148 41.7395L129.726 29.6329L131.855 43.0494L127.992 43.6646ZM120.251 46.6238L114.161 26.6993L118.186 25.4691L124.275 45.3936L120.251 46.6238ZM98.0259 55.9702L89.5563 36.9346L95.3078 34.3776L104.536 45.8207L102.172 31.3172L107.935 28.7537L116.41 47.7837L112.84 49.3746L106.169 34.3931L109.063 51.0528L105.362 52.7011L94.9225 39.4007L101.594 54.3822L98.0259 55.9702ZM78.4704 70.6731L65.6465 54.2528L70.6057 50.3788L82.3336 59.2491L76.5284 45.7519L81.4995 41.8671L94.3285 58.2871L91.2529 60.6887L81.1575 47.7628L87.9892 63.2355L84.8001 65.729L71.4509 55.3442L81.5478 68.2705L78.4704 70.6731ZM76.5342 71.8766L73.5325 75.3336L68.7657 73.6038L63.3037 79.8862L65.7485 84.2889L62.8218 87.6594L52.4203 67.8628L55.3355 64.5086L76.5342 71.8766ZM65.2338 72.3218L57.514 69.4156L61.5055 76.612L65.2338 72.3218ZM52.3724 103.399L35.5206 91.1531L40.7253 83.9844C42.0311 82.1861 43.1333 80.987 44.0315 80.3941C44.9251 79.7961 45.9361 79.5323 47.0707 79.6026C48.1996 79.6757 49.26 80.0729 50.2606 80.8003C51.5218 81.7147 52.2974 82.8497 52.5811 84.1923C52.8658 85.5292 52.5759 87.0225 51.7153 88.6549C52.6816 88.2317 53.5971 87.9639 54.4593 87.8634C55.32 87.7563 56.6954 87.7718 58.6007 87.9106L63.3829 88.2433L60.4249 92.3093L54.9675 92.1057C53.0255 92.0307 51.7687 92.0257 51.1902 92.1003C50.6117 92.1745 50.1362 92.3457 49.7459 92.6136C49.3548 92.8814 48.8787 93.4062 48.3121 94.1912L47.8089 94.8782L54.8446 99.9913L52.3724 103.399ZM45.1182 92.9242L46.9485 90.4102C48.1304 88.7728 48.8037 87.7077 48.9645 87.2002C49.1202 86.6974 49.1148 86.2047 48.9425 85.7281C48.7727 85.2524 48.4401 84.8292 47.9311 84.4598C47.3645 84.0485 46.7979 83.8723 46.2248 83.9206C45.6582 83.9674 45.1287 84.2352 44.631 84.7225C44.3953 84.968 43.7746 85.7833 42.774 87.1677L40.8439 89.8162L45.1182 92.9242ZM40.5919 112.79L37.3591 111.421L40.9015 103.074L48.5417 106.316C48.9854 107.467 49.1785 108.932 49.1202 110.724C49.0614 112.516 48.7024 114.203 48.028 115.78C47.1781 117.786 46.0157 119.36 44.5452 120.495C43.0681 121.628 41.3885 122.238 39.5048 122.323C37.6234 122.404 35.7606 122.055 33.9203 121.28C31.9234 120.431 30.3249 119.258 29.1257 117.76C27.9334 116.267 27.2587 114.532 27.1199 112.569C27.001 111.072 27.334 109.403 28.1154 107.573C29.1192 105.192 30.4154 103.544 31.9771 102.629C33.5454 101.714 35.2895 101.441 37.2153 101.805L36.3053 105.952C35.2459 105.829 34.2839 106.021 33.4214 106.535C32.561 107.049 31.8975 107.862 31.421 108.974C30.7041 110.67 30.667 112.243 31.315 113.694C31.9663 115.154 33.3475 116.326 35.4564 117.219C37.7293 118.183 39.6558 118.407 41.2223 117.877C42.7895 117.347 43.9191 116.267 44.6144 114.624C44.9618 113.811 45.1442 112.934 45.1759 111.982C45.2034 111.035 45.1121 110.167 44.9095 109.392L42.4748 108.359L40.5919 112.79ZM29.3939 146.036C27.3015 145.666 25.601 145.045 24.2952 144.168C23.331 143.515 22.5085 142.718 21.8175 141.761C21.1331 140.809 20.6721 139.819 20.4385 138.786C20.121 137.411 20.1105 135.892 20.4058 134.218C20.9414 131.194 22.3049 128.942 24.4989 127.46C26.6914 125.973 29.4632 125.528 32.8026 126.116C36.1136 126.7 38.5479 128.058 40.0993 130.188C41.6509 132.323 42.1646 134.891 41.629 137.904C41.0933 140.952 39.7352 143.216 37.5593 144.693C35.3808 146.164 32.6573 146.609 29.3939 146.036ZM30.0034 141.745C32.3246 142.151 34.187 141.921 35.5725 141.064C36.9634 140.204 37.7996 138.946 38.0869 137.293C38.3817 135.646 38.0292 134.184 37.0171 132.911C36.0169 131.648 34.3268 130.803 31.9508 130.381C29.5975 129.969 27.7561 130.177 26.4134 130.996C25.0744 131.826 24.2584 133.093 23.9528 134.8C23.6525 136.513 24.0011 137.989 24.9861 139.24C25.9698 140.492 27.64 141.327 30.0034 141.745ZM39.7885 167.891L18.96 168.254L18.8054 159.4C18.7679 157.174 18.9286 155.559 19.2811 154.543C19.6387 153.525 20.2868 152.702 21.2347 152.081C22.187 151.461 23.2723 151.141 24.5042 151.117C26.066 151.092 27.3654 151.531 28.4038 152.429C29.4303 153.328 30.1004 154.692 30.3945 156.516C30.9128 155.597 31.4794 154.832 32.1062 154.232C32.7322 153.628 33.8395 152.814 35.4445 151.781L39.4619 149.166L39.5535 154.189L35.0697 157.313C33.4697 158.422 32.4641 159.176 32.0478 159.582C31.6365 159.989 31.3568 160.413 31.2011 160.86C31.0522 161.311 30.9885 162.016 31.0094 162.985L31.0213 163.836L39.7196 163.685L39.7885 167.891ZM27.6919 163.894L27.64 160.787C27.6073 158.769 27.5002 157.506 27.3224 157.004C27.1408 156.511 26.8402 156.121 26.4189 155.843C25.9957 155.57 25.4771 155.431 24.8499 155.441C24.1463 155.458 23.5887 155.656 23.1598 156.035C22.7381 156.416 22.4753 156.95 22.3686 157.634C22.3322 157.977 22.3258 158.998 22.3567 160.706L22.4115 163.986L27.6919 163.894ZM42.7466 187.14L22.2288 190.764L21.057 184.12C20.6148 181.599 20.432 179.935 20.5023 179.137C20.5978 177.906 21.0956 176.799 21.9887 175.825C22.8769 174.852 24.1398 174.221 25.7708 173.931C27.0341 173.713 28.1309 173.755 29.0673 174.06C30.0088 174.365 30.7848 174.825 31.3997 175.446C32.015 176.061 32.4641 176.724 32.7477 177.421C33.1176 178.373 33.4697 179.79 33.8031 181.668L34.2785 184.365L42.0192 183L42.7466 187.14ZM24.9742 186.007L30.7902 184.98L30.3945 182.717C30.1057 181.085 29.8066 180.009 29.4944 179.496C29.1852 178.988 28.7732 178.612 28.2585 178.378C27.746 178.152 27.1891 178.084 26.5792 178.19C25.8364 178.325 25.2575 178.651 24.8463 179.18C24.444 179.699 24.235 180.309 24.235 181C24.2257 181.514 24.359 182.513 24.6217 184.006L24.9742 186.007ZM238.805 168.667L240.068 173.722C240.068 173.722 238.645 177.667 238.49 178.612C238.329 179.56 238.174 183.353 238.174 184.455C238.174 185.563 238.013 191.09 238.013 191.09L234.696 198.195L233.91 194.246L232.488 190.613L230.122 184.932V178.458C230.122 178.458 229.806 175.141 230.753 174.67C231.7 174.194 233.433 172.931 233.433 172.931L236.436 171.037L238.805 168.667Z" fill="#1B1918"/>
</g>
<defs>
<clipPath id="clip0_1350_6597">
<rect width="316.228" height="316.228" fill="white"/>
</clipPath>
</defs>
</svg>
