<svg width="176" height="176" viewBox="0 0 176 176" fill="none" xmlns="http://www.w3.org/2000/svg">
<rect width="176" height="176" rx="88" fill="#4BCA80" fill-opacity="0.4"/>
<g clip-path="url(#clip0_1206_6512)">
<path d="M88.0001 51.9592C97.5477 51.9913 106.694 55.8024 113.44 62.5592L110.772 65.2267C108.253 67.7466 110.037 72.0552 113.601 72.0552H127.264C128.48 72.0552 129.646 71.5722 130.505 70.7125C131.365 69.8529 131.848 68.6869 131.848 67.4712V53.808C131.848 50.2444 127.54 48.4597 125.02 50.9796L121.884 54.1152C115.187 47.3861 106.641 42.7982 97.3321 40.9334C88.0231 39.0687 78.3698 40.0112 69.5973 43.6413C60.8247 47.2715 53.3281 53.4256 48.0586 61.3231C42.7892 69.2205 39.9844 78.5052 40.0001 87.9992H51.9601C51.9707 78.444 55.7711 69.2832 62.5276 62.5267C69.2841 55.7702 78.4449 51.9697 88.0001 51.9592Z" fill="#00712F"/>
<path d="M124.04 88.0005C124.053 95.1294 121.948 102.101 117.992 108.032C114.036 113.962 108.407 118.584 101.82 121.309C95.2323 124.035 87.9838 124.742 80.9939 123.341C74.004 121.94 67.5879 118.494 62.56 113.44L65.2276 110.773C67.7474 108.253 65.9627 103.944 62.3991 103.944H47.972C46.9592 103.946 45.9882 104.348 45.272 105.065C44.5558 105.781 44.153 106.752 44.152 107.764V122.192C44.152 125.755 48.4605 127.54 50.9804 125.02L54.116 121.884C60.8135 128.614 69.3588 133.201 78.6679 135.066C87.977 136.931 97.6302 135.988 106.403 132.358C115.175 128.728 122.672 122.574 127.941 114.677C133.211 106.779 136.016 97.4945 136 88.0005H124.04Z" fill="#00712F"/>
</g>
<defs>
<clipPath id="clip0_1206_6512">
<rect x="40" y="40" width="96" height="96" fill="white"/>
</clipPath>
</defs>
</svg>
