<svg width="824" height="824" viewBox="0 0 824 824" fill="none" xmlns="http://www.w3.org/2000/svg">
<path d="M406.564 135.5C257.443 135.5 136.074 256.926 136.074 405.989C136.074 555.053 257.5 676.479 406.564 676.479C555.628 676.479 677.053 555.053 677.053 405.989C677.053 256.926 555.628 135.5 406.564 135.5ZM406.163 159.533C410.788 159.653 415.183 161.581 418.412 164.905C421.64 168.23 423.446 172.688 423.444 177.329C423.444 182.049 421.57 186.576 418.232 189.913C414.895 193.251 410.368 195.126 405.648 195.126C400.929 195.126 396.402 193.251 393.065 189.913C389.727 186.576 387.852 182.049 387.852 177.329C387.851 174.948 388.328 172.591 389.254 170.398C390.181 168.205 391.538 166.219 393.245 164.56C394.953 162.901 396.976 161.601 399.195 160.737C401.414 159.874 403.783 159.464 406.163 159.533ZM446.906 188.831C478.147 194.683 507.74 207.265 533.629 225.704C559.519 244.143 581.084 267.996 596.828 295.608L575.827 342.988C572.222 351.171 575.942 360.784 584.067 364.446L624.466 382.357C625.719 394.985 625.872 407.698 624.924 420.352H602.436C600.204 420.352 599.288 421.84 599.288 424.014V434.314C599.288 458.577 585.612 463.898 573.596 465.214C562.151 466.531 549.505 460.408 547.903 453.427C541.151 415.488 529.935 407.42 512.196 393.401C534.227 379.438 557.116 358.781 557.116 331.2C557.116 301.387 536.687 282.618 522.782 273.406C503.212 260.531 481.582 257.956 475.746 257.956H243.423C275.548 222.068 318.608 197.773 365.936 188.831L393.346 217.557C399.526 224.023 409.768 224.309 416.234 218.072L446.906 188.831ZM193.983 320.557C198.613 320.691 203.009 322.625 206.235 325.948C209.462 329.271 211.266 333.721 211.264 338.353C211.264 343.073 209.39 347.599 206.052 350.937C202.715 354.274 198.188 356.149 193.468 356.149C188.749 356.149 184.222 354.274 180.885 350.937C177.547 347.599 175.672 343.073 175.672 338.353C175.671 335.972 176.148 333.615 177.074 331.421C178.001 329.228 179.358 327.243 181.065 325.583C182.773 323.924 184.796 322.624 187.015 321.761C189.234 320.897 191.603 320.488 193.983 320.557ZM618.286 321.358C622.916 321.492 627.311 323.426 630.538 326.749C633.765 330.072 635.569 334.522 635.567 339.154C635.567 343.874 633.692 348.4 630.355 351.738C627.017 355.075 622.491 356.95 617.771 356.95C613.051 356.95 608.525 355.075 605.187 351.738C601.85 348.4 599.975 343.874 599.975 339.154C599.974 336.773 600.451 334.416 601.377 332.223C602.304 330.029 603.661 328.044 605.368 326.384C607.076 324.725 609.099 323.425 611.318 322.562C613.537 321.698 615.906 321.289 618.286 321.358ZM227.516 324.219H258.53V464.07H195.929C188.198 436.921 185.788 408.532 188.833 380.468L227.172 363.416C235.355 359.754 239.074 350.198 235.412 342.015L227.516 324.219ZM356.952 325.707H430.826C434.66 325.707 457.778 330.113 457.778 347.451C457.778 361.814 440.039 366.964 425.447 366.964H356.895L356.952 325.707ZM356.952 426.189H413.545C418.695 426.189 441.183 427.677 448.336 456.402C450.568 465.214 455.546 493.94 458.922 503.153C462.298 513.453 475.974 534.053 490.566 534.053H582.923C576.733 542.342 569.964 550.182 562.666 557.514L525.071 549.446C516.316 547.557 507.676 553.165 505.787 561.92L496.861 603.578C468.155 616.581 436.982 623.236 405.469 623.088C373.956 622.94 342.846 615.992 314.264 602.719L305.338 561.062C303.449 552.307 294.866 546.699 286.111 548.587L249.317 556.484C242.489 549.441 236.143 541.947 230.319 534.053H409.253C411.256 534.053 412.629 533.709 412.629 531.821V468.533C412.629 466.702 411.256 466.302 409.253 466.302H356.895L356.952 426.189ZM274.381 571.133C279.011 571.267 283.406 573.201 286.633 576.524C289.86 579.847 291.664 584.297 291.662 588.929C291.662 593.649 289.787 598.175 286.449 601.513C283.112 604.85 278.585 606.725 273.866 606.725C269.146 606.725 264.619 604.85 261.282 601.513C257.944 598.175 256.069 593.649 256.069 588.929C256.068 586.548 256.545 584.191 257.472 581.998C258.398 579.804 259.755 577.819 261.463 576.159C263.17 574.5 265.193 573.2 267.412 572.337C269.631 571.473 272.001 571.064 274.381 571.133ZM537.889 571.934C542.519 572.068 546.914 574.002 550.141 577.325C553.368 580.648 555.172 585.098 555.17 589.73C555.17 594.45 553.295 598.976 549.958 602.314C546.62 605.651 542.094 607.526 537.374 607.526C532.654 607.526 528.128 605.651 524.79 602.314C521.453 598.976 519.578 594.45 519.578 589.73C519.577 587.349 520.054 584.992 520.98 582.799C521.906 580.605 523.263 578.62 524.971 576.961C526.678 575.301 528.701 574.001 530.92 573.138C533.139 572.274 535.509 571.865 537.889 571.934Z" fill="black"/>
<path fill-rule="evenodd" clip-rule="evenodd" d="M661.947 405.989C661.947 473.72 635.04 538.678 587.147 586.572C539.253 634.465 474.296 661.371 406.564 661.371C338.832 661.371 273.875 634.465 225.981 586.572C178.087 538.678 151.181 473.72 151.181 405.989C151.181 338.257 178.087 273.299 225.981 225.406C273.875 177.512 338.832 150.606 406.564 150.606C474.296 150.606 539.253 177.512 587.147 225.406C635.04 273.299 661.947 338.257 661.947 405.989ZM657.14 381.326L696.967 405.989L657.14 430.651L691.359 462.639L647.527 479.061L674.879 517.114L628.586 524.668L648.042 567.355L601.177 565.696L611.934 611.359L566.271 600.601L567.931 647.466L525.243 628.011L517.689 674.304L479.637 646.951L463.214 690.784L431.227 656.565L406.564 696.391L381.901 656.565L349.914 690.784L333.491 646.951L295.438 674.304L287.885 628.011L245.197 647.466L246.857 600.601L201.193 611.359L211.951 565.696L165.086 567.355L184.542 524.668L138.249 517.114L165.601 479.061L121.769 462.639L155.988 430.651L116.161 405.989L155.988 381.326L121.769 349.339L165.601 332.916L138.249 294.863L184.542 287.31L165.086 244.622L211.951 246.281L201.193 200.618L246.857 211.376L245.197 164.511L287.885 183.966L295.438 137.674L333.491 165.026L349.914 121.194L381.901 155.413L406.564 115.586L431.227 155.413L463.214 121.194L479.637 165.026L517.689 137.674L525.243 183.966L567.931 164.511L566.271 211.376L611.934 200.618L601.177 246.281L648.042 244.622L628.586 287.31L674.879 294.863L647.527 332.916L691.359 349.339L657.14 381.326Z" fill="black" stroke="black" stroke-width="12" stroke-linecap="round" stroke-linejoin="round"/>
</svg>
