<svg width="536" height="849" viewBox="0 0 536 849" fill="none" xmlns="http://www.w3.org/2000/svg">
<path fill-rule="evenodd" clip-rule="evenodd" d="M0.759766 315.677C8.15977 325.877 70.5598 345.117 163.64 365.157C256.72 382.997 353.52 453.437 428.8 431.717C479.72 416.997 534.96 285.837 534.96 266.357V264.357C534.96 250.757 524.76 239.837 507.44 230.757C436.44 194.477 423 181.117 396.68 188.357C260.04 226.077 18.7998 206.797 0.759766 315.677Z" fill="#380D09"/>
<path fill-rule="evenodd" clip-rule="evenodd" d="M0.759766 582C8.15977 592.36 70.5598 611.44 163.64 631.52C267.64 650.48 358.08 712.28 433.4 690.52C484.32 675.8 534.96 552.2 534.96 532.68V530.76C534.96 517.2 524.76 506.24 507.44 497.2C453.28 468.4 381.72 436.68 355.44 443.92C218.56 481.56 35.5998 489.84 0.759766 582Z" fill="#380D09"/>
<path fill-rule="evenodd" clip-rule="evenodd" d="M433.199 51.48C307.359 87.84 107.719 108.36 0.15918 108.36V313.76C0.193385 314.466 0.460641 315.142 0.919182 315.68C74.3192 315.68 300.919 291.68 437.639 254.08C461.483 248.011 484.863 240.245 507.599 230.84C524.319 223.32 535.119 215.4 535.119 207.16V0C534.959 19.52 484.119 36.8 433.199 51.48Z" fill="#DE3423"/>
<path fill-rule="evenodd" clip-rule="evenodd" d="M433.199 317.839C357.879 339.559 256.239 355.719 163.639 365.159C101.479 371.519 43.3992 374.839 0.15918 374.839V580.079C0.193385 580.786 0.460641 581.461 0.919182 581.999C74.3192 581.999 300.919 557.999 437.639 520.439C461.478 514.353 484.857 506.587 507.599 497.199C524.319 489.639 535.119 481.759 535.119 473.519V266.359C534.959 285.839 484.119 303.119 433.199 317.839Z" fill="#DE3423"/>
<path fill-rule="evenodd" clip-rule="evenodd" d="M433.2 584.36C357.88 606.08 256.24 622.2 163.64 631.68C101.4 638.04 43.24 641.36 0 641.36V848.36C72.64 848.36 300.4 824.56 437.48 786.8C488 772.88 534.96 757.04 534.96 739.84V532.68C534.96 552.36 484.12 569.48 433.2 584.36Z" fill="#DE3423"/>
</svg>
