<svg width="600" height="556" viewBox="0 0 600 556" fill="none" xmlns="http://www.w3.org/2000/svg">
<path d="M300.04 529.237C295.32 529.237 290.84 527.797 287.08 525.077L272.6 514.477H134.88L122.16 413.197L30.44 346.437C27.84 331.477 26.52 315.997 26.52 300.277C26.52 149.437 149.2 26.7969 300.04 26.7969C450.84 26.7969 573.52 149.477 573.52 300.277C573.52 315.677 572.2 331.197 569.6 346.477L477.92 413.237L465.16 514.517H327.48L312.92 525.237C309.36 527.797 304.72 529.237 300.04 529.237Z" fill="#FFCD00"/>
<path d="M273.88 543.362C281.56 548.922 290.68 551.762 300 551.762C309.32 551.762 318.52 548.882 326.16 543.362L334.84 537.042H484.96L499 425.682L590.04 359.402C594 340.002 596 320.162 596 300.242C596 136.802 463.4 4.24219 300 4.24219C136.6 4.24219 4 136.802 4 300.242C4 320.162 5.92 340.002 10 359.402L101.04 425.682L115 537.042H265.24L273.88 543.362ZM269.96 485.242H160.72L149.76 397.002L59.76 331.602C57.12 321.322 55.76 310.882 55.76 300.242C55.76 282.562 59.48 265.082 66.76 248.962L226 409.882L71.2 218.882C77.28 194.082 90.76 171.722 109.88 154.802L248.68 394.242L125.64 132.122C141.52 110.882 163.68 95.3222 189.04 87.5222L273.88 384.842L211.88 75.2422C230.84 64.5622 251.96 59.0022 273.68 59.0022C278.28 59.0022 282.84 59.2022 287.36 59.6822L300 381.682L312.6 59.7222C317.2 59.2422 321.72 59.0422 326.4 59.0422C347.96 59.0422 369.28 64.6022 388.16 75.2822L326.16 384.882L411.08 87.5622C436.32 95.3622 458.48 110.962 474.4 132.162L351.44 394.242L490.24 154.802C509.24 171.722 522.76 194.082 528.92 218.882L374.12 409.922L533.36 249.002C540.56 265.122 544.2 282.602 544.2 300.282C544.2 310.922 542.92 321.362 540.2 331.642L450.36 397.042L439.32 485.282H330.08L314 497.002C309.88 499.922 305 501.642 300 501.642C295 501.642 290.12 499.962 286.08 497.002L269.96 485.242Z" fill="#DA291C"/>
</svg>
