<svg width="951" height="951" viewBox="0 0 951 951" fill="none" xmlns="http://www.w3.org/2000/svg">
<path d="M950.761 263.768C950.721 254.21 950.577 244.652 950.329 235.097C949.769 214.281 948.537 193.273 944.841 172.697C941.097 151.785 934.953 132.329 925.289 113.337C906.158 75.7691 875.613 45.23 838.041 26.1061C819.065 16.4422 799.625 10.3142 778.729 6.55427C758.121 2.8423 737.129 1.6263 716.297 1.06631C706.742 0.822394 697.184 0.678387 687.625 0.634312C676.249 0.570312 664.889 0.570312 653.577 0.570312H297.817C286.457 0.570312 275.113 0.570312 263.769 0.634312C254.217 0.698312 244.649 0.794311 235.097 1.06631C229.897 1.21031 224.681 1.38631 219.449 1.6423C203.801 2.3943 188.105 3.77029 172.665 6.55427C156.985 9.37025 142.137 13.5302 127.689 19.5142C103.431 29.5493 81.3851 44.2608 62.8087 62.8098C47.9956 77.6196 35.6089 94.6713 26.1047 113.337C16.4407 132.329 10.3287 151.769 6.55269 172.697C2.85669 193.273 1.62469 214.281 1.06469 235.097C0.820834 244.652 0.676826 254.21 0.632689 263.768C0.552689 275.128 0.568689 286.472 0.568689 297.816V653.573C0.568689 664.933 0.568689 676.261 0.632689 687.621C0.696689 697.173 0.792689 706.725 1.06469 716.277C1.62469 737.109 2.85669 758.116 6.55269 778.692C10.3127 799.604 16.4407 819.06 26.1047 838.052C45.2266 875.631 75.7735 906.177 113.353 925.299C132.329 934.947 151.769 941.075 172.665 944.819C193.257 948.531 214.265 949.779 235.097 950.323C244.649 950.579 254.217 950.691 263.785 950.755C275.129 950.835 286.457 950.819 297.817 950.819H653.577C664.921 950.819 676.265 950.819 687.625 950.755C697.177 950.691 706.729 950.579 716.297 950.323C737.129 949.763 758.121 948.531 778.729 944.835C799.625 941.075 819.065 934.947 838.041 925.283C875.615 906.162 906.161 875.622 925.289 838.052C934.953 819.06 941.081 799.604 944.841 778.692C948.537 758.116 949.769 737.093 950.329 716.293C950.585 706.725 950.697 697.189 950.761 687.621C950.825 676.261 950.825 664.917 950.825 653.557V297.816C950.825 286.456 950.825 275.112 950.761 263.768Z" fill="#F05138"/>
<path d="M753.526 587.136L753.462 587.072C754.518 583.488 755.606 579.936 756.518 576.272C795.958 419.137 699.718 233.362 536.822 135.539C608.198 232.306 639.766 349.521 611.718 452.017C609.222 461.153 606.214 469.936 602.886 478.464C599.286 476.096 594.726 473.408 588.646 470.032C588.646 470.032 426.614 370.001 250.998 193.043C246.39 188.403 344.63 333.474 456.15 451.281C403.606 421.793 257.206 315.282 164.518 230.45C175.91 249.442 189.446 267.73 204.342 285.33C281.734 383.489 382.678 504.576 503.606 597.599C418.646 649.599 298.582 653.631 179.046 597.648C149.784 583.904 121.952 567.301 95.958 548.08C146.55 629.007 224.486 698.847 319.318 739.598C432.438 788.222 544.918 784.926 628.694 740.398L628.63 740.51C629.014 740.254 629.51 739.998 629.91 739.758C633.334 737.902 636.758 736.014 640.086 734.03C680.342 713.135 759.846 691.951 802.518 774.974C812.982 795.294 835.158 687.615 753.526 587.136Z" fill="white"/>
</svg>
