<svg width="2351" height="1568" viewBox="0 0 2351 1568" fill="none" xmlns="http://www.w3.org/2000/svg">
<path d="M427.441 1211.08C663.511 1211.08 854.883 1019.71 854.883 783.643C854.883 547.575 663.511 356.203 427.441 356.203C191.372 356.203 0 547.575 0 783.643C0 1019.71 191.372 1211.08 427.441 1211.08Z" fill="#D9FFFD"/>
<path d="M926.052 1567.28C1162.12 1567.28 1353.49 1375.91 1353.49 1139.84C1353.49 903.768 1162.12 712.397 926.052 712.397C689.982 712.397 498.61 903.768 498.61 1139.84C498.61 1375.91 689.982 1567.28 926.052 1567.28Z" fill="#D9FFFD"/>
<path d="M926.052 854.88C1162.12 854.88 1353.49 663.509 1353.49 427.44C1353.49 191.371 1162.12 0 926.052 0C689.982 0 498.61 191.371 498.61 427.44C498.61 663.509 689.982 854.88 926.052 854.88Z" fill="#D9FFFD"/>
<path d="M1567.36 926.129C1803.43 926.129 1994.8 734.758 1994.8 498.689C1994.8 262.62 1803.43 71.249 1567.36 71.249C1331.29 71.249 1139.92 262.62 1139.92 498.689C1139.92 734.758 1331.29 926.129 1567.36 926.129Z" fill="#D9FFFD"/>
<path d="M1923.45 1282.32C2159.52 1282.32 2350.89 1090.95 2350.89 854.879C2350.89 618.81 2159.52 427.438 1923.45 427.438C1687.38 427.438 1496.01 618.81 1496.01 854.879C1496.01 1090.95 1687.38 1282.32 1923.45 1282.32Z" fill="#D9FFFD"/>
<path d="M1496.1 1567.28C1732.17 1567.28 1923.55 1375.91 1923.55 1139.84C1923.55 903.768 1732.17 712.397 1496.1 712.397C1260.03 712.397 1068.66 903.768 1068.66 1139.84C1068.66 1375.91 1260.03 1567.28 1496.1 1567.28Z" fill="#D9FFFD"/>
<path d="M1139.83 1211.08C1375.89 1211.08 1567.27 1019.71 1567.27 783.639C1567.27 547.57 1375.89 356.199 1139.83 356.199C903.756 356.199 712.384 547.57 712.384 783.639C712.384 1019.71 903.756 1211.08 1139.83 1211.08Z" fill="#D9FFFD"/>
</svg>
