<svg width="896" height="896" viewBox="0 0 896 896" fill="none" xmlns="http://www.w3.org/2000/svg">
<g clip-path="url(#clip0_1187_6778)">
<path d="M198.54 541.355L167.359 657.76L53.3933 660.171C19.3344 596.998 0.015625 524.72 0.015625 447.912C0.015625 373.639 18.0782 303.598 50.0954 241.926H50.1199L151.581 260.528L196.027 361.383C186.725 388.503 181.655 417.617 181.655 447.912C181.658 480.79 187.614 512.292 198.54 541.355Z" fill="#FBBB00"/>
<path d="M887.926 364.227C893.07 391.321 895.752 419.303 895.752 447.9C895.752 479.967 892.381 511.247 885.958 541.419C864.155 644.092 807.183 733.745 728.262 797.19L728.237 797.165L600.442 790.645L582.355 677.733C634.723 647.02 675.649 598.957 697.207 541.419H457.708V364.227H700.701H887.926Z" fill="#518EF8"/>
<path d="M728.252 797.17L728.277 797.194C651.521 858.891 554.018 895.806 447.878 895.806C277.311 895.806 129.015 800.468 53.3652 660.166L198.512 541.35C236.336 642.299 333.715 714.161 447.878 714.161C496.948 714.161 542.92 700.895 582.368 677.737L728.252 797.17Z" fill="#28B446"/>
<path d="M733.767 103.12L588.67 221.912C547.844 196.392 499.584 181.65 447.88 181.65C331.133 181.65 231.932 256.808 196.003 361.378L50.0938 241.921H50.0693C124.612 98.1986 274.777 0.00488281 447.88 0.00488281C556.555 0.00488281 656.198 38.7169 733.767 103.12Z" fill="#F14336"/>
</g>
<defs>
<clipPath id="clip0_1187_6778">
<rect width="895.781" height="895.803" fill="white" transform="translate(0.015625 0.00488281)"/>
</clipPath>
</defs>
</svg>
