<svg width="4363" height="3181" viewBox="0 0 4363 3181" fill="none" xmlns="http://www.w3.org/2000/svg">
<path d="M1542.92 298.56C1896.55 -107.102 2529.82 -98.0364 2871.7 317.575L4203.91 1937.1C4534.31 2338.75 4322.69 2941.26 3809.06 3022.97C3297.7 3104.33 2699.85 3178.87 2218.54 3180.5C1714.72 3182.2 1086.13 3104.86 554.354 3020.88C41.409 2939.88 -171.412 2339.17 156.941 1936.86L776.382 1177.88L1542.92 298.56Z" fill="#5EC639"/>
<g filter="url(#filter0_f_1187_6590)">
<path d="M2704.1 1557.01C2792.53 1557.01 2864.2 1530.61 2864.2 1498.05C2864.2 1465.49 2792.53 1439.1 2704.1 1439.1C2615.68 1439.1 2544.01 1465.49 2544.01 1498.05C2544.01 1530.61 2615.68 1557.01 2704.1 1557.01Z" fill="#FF9C9C"/>
</g>
<g filter="url(#filter1_f_1187_6590)">
<path d="M1690.23 1557.01C1778.65 1557.01 1850.33 1530.61 1850.33 1498.05C1850.33 1465.49 1778.65 1439.1 1690.23 1439.1C1601.81 1439.1 1530.13 1465.49 1530.13 1498.05C1530.13 1530.61 1601.81 1557.01 1690.23 1557.01Z" fill="#FF9C9C"/>
</g>
<path d="M2024.48 1562.44C2024.48 1562.44 2094.42 1603.38 2198.62 1603.38C2302.82 1603.38 2372.76 1562.44 2372.76 1562.44" stroke="black" stroke-width="87.0714" stroke-linecap="round"/>
<path d="M2038.49 1238.2C2038.49 1335.87 2002.65 1385.58 1958.44 1385.58C1914.23 1385.58 1878.39 1335.87 1878.39 1238.2C1878.39 1140.52 1914.23 1090.82 1958.44 1090.82C2002.65 1090.82 2038.49 1140.52 2038.49 1238.2Z" fill="black"/>
<path fill-rule="evenodd" clip-rule="evenodd" d="M2026.71 1153.89C2030.66 1165.62 2033.72 1178.98 2035.74 1193.95C2031.35 1203.77 2022.33 1208.74 2011.9 1208.74C1997.17 1208.74 1985.22 1198.8 1985.22 1179.26C1985.22 1159.73 1997.17 1149.78 2011.9 1149.78C2017.38 1149.78 2022.48 1151.16 2026.71 1153.89Z" fill="white"/>
<path d="M2518.73 1238.2C2518.73 1335.87 2482.89 1385.58 2438.68 1385.58C2394.47 1385.58 2358.63 1335.87 2358.63 1238.2C2358.63 1140.52 2394.47 1090.81 2438.68 1090.81C2482.89 1090.81 2518.73 1140.52 2518.73 1238.2Z" fill="black"/>
<path fill-rule="evenodd" clip-rule="evenodd" d="M2506.94 1153.89C2510.89 1165.62 2513.96 1178.98 2515.97 1193.95C2511.58 1203.77 2502.56 1208.74 2492.14 1208.74C2477.4 1208.74 2465.46 1198.8 2465.46 1179.26C2465.46 1159.73 2477.4 1149.79 2492.14 1149.79C2497.61 1149.79 2502.71 1151.16 2506.94 1153.89Z" fill="white"/>
<defs>
<filter id="filter0_f_1187_6590" x="2282.79" y="1177.89" width="842.627" height="640.333" filterUnits="userSpaceOnUse" color-interpolation-filters="sRGB">
<feFlood flood-opacity="0" result="BackgroundImageFix"/>
<feBlend mode="normal" in="SourceGraphic" in2="BackgroundImageFix" result="shape"/>
<feGaussianBlur stdDeviation="130.607" result="effect1_foregroundBlur_1187_6590"/>
</filter>
<filter id="filter1_f_1187_6590" x="1268.92" y="1177.89" width="842.627" height="640.333" filterUnits="userSpaceOnUse" color-interpolation-filters="sRGB">
<feFlood flood-opacity="0" result="BackgroundImageFix"/>
<feBlend mode="normal" in="SourceGraphic" in2="BackgroundImageFix" result="shape"/>
<feGaussianBlur stdDeviation="130.607" result="effect1_foregroundBlur_1187_6590"/>
</filter>
</defs>
</svg>
