<svg width="1051" height="960" viewBox="0 0 1051 960" fill="none" xmlns="http://www.w3.org/2000/svg">
<rect width="45.7979" height="228.977" transform="matrix(0.988646 -0.150263 0.15028 0.988644 452.431 366.561)" fill="#75D753"/>
<path d="M476.476 381.92C532.514 421.349 611.932 413.903 683.816 396.731C816.739 364.978 898.753 231.488 866.999 98.5722C857.637 59.3868 845.32 35.2125 836.741 21.9261C831.309 13.5144 820.611 11.9187 811.851 16.7676C782.099 33.2345 715.254 69.8417 689.107 80.9621C537.894 147.859 468.548 217.294 476.476 381.92Z" fill="#75D753"/>
<path d="M492.266 381.082C450.475 435.38 372.432 451.866 298.691 456.828C162.336 466.003 44.3602 362.908 35.1848 226.561C32.4798 186.364 37.0572 159.622 41.301 144.386C43.9879 134.741 53.7289 130.038 63.5345 132.065C96.8351 138.949 171.539 154.042 199.81 156.892C364.072 175.84 450.918 221.535 492.266 381.082Z" fill="#75D753"/>
<path d="M1050.06 813.61C1050.06 985.733 832.744 958.307 551.587 958.307C270.43 958.307 42.5068 985.733 42.5068 813.61C63.7185 626.852 270.43 501.955 551.587 501.955C832.744 501.955 1028.85 637.26 1050.06 813.61Z" fill="#9F7147"/>
<path d="M813.651 690.972C813.651 698.56 808.525 702.421 802.201 702.421C795.878 702.421 790.752 698.56 790.752 690.972C790.752 683.385 795.878 679.523 802.201 679.523C808.525 679.523 813.651 683.385 813.651 690.972Z" fill="#463822"/>
<path d="M744.979 713.873C744.979 721.46 739.853 725.322 733.53 725.322C727.206 725.322 722.08 721.46 722.08 713.873C722.08 706.285 727.206 702.424 733.53 702.424C739.853 702.424 744.979 706.285 744.979 713.873Z" fill="#463822"/>
<path d="M790.802 736.78C790.802 744.368 785.676 748.229 779.353 748.229C773.029 748.229 767.903 744.368 767.903 736.78C767.903 729.193 773.029 725.332 779.353 725.332C785.676 725.332 790.802 729.193 790.802 736.78Z" fill="#463822"/>
<path d="M860.975 659.958C860.975 660.021 860.975 660.084 860.975 660.146C860.975 660.084 860.975 660.021 860.975 659.958C860.975 659.895 860.975 659.832 860.975 659.769C860.975 659.832 860.975 659.895 860.975 659.958Z" fill="black" stroke="black" stroke-width="22.8983"/>
<path d="M891.945 743.236C891.945 743.236 902.01 743.236 913.182 743.236C924.354 743.236 955.656 722 955.656 722" stroke="black" stroke-width="31.4669" stroke-linecap="round"/>
</svg>
