<svg width="809" height="920" viewBox="0 0 809 920" fill="none" xmlns="http://www.w3.org/2000/svg">
<rect x="269.677" y="427.881" width="285.12" height="491.041" rx="31.68" fill="#996A3D"/>
<path d="M293.437 713.002V681.322L182.557 633.802L173.879 626.86C169.268 623.171 163.174 629.077 166.717 633.802C162.812 632.24 160.083 637.741 163.69 639.905L166.717 641.722C163.499 641.722 163.111 646.401 166.286 646.93L182.557 649.642L293.437 713.002Z" fill="#996A3D"/>
<path d="M538.958 713.002V681.322L649.838 633.802L658.516 626.86C663.128 623.171 669.222 629.077 665.678 633.802C669.583 632.24 672.312 637.741 668.705 639.905L665.678 641.722C668.897 641.722 669.284 646.401 666.109 646.93L649.838 649.642L538.958 713.002Z" fill="#996A3D"/>
<ellipse cx="253.839" cy="427.88" rx="110.88" ry="95.0401" fill="#6DC94C"/>
<ellipse cx="528.317" cy="396.2" rx="148.298" ry="126.72" fill="#6DC94C"/>
<ellipse cx="380.019" cy="396.2" rx="148.298" ry="126.72" fill="#6DC94C"/>
<ellipse cx="478.885" cy="353.96" rx="148.298" ry="126.72" fill="#6DC94C"/>
<ellipse cx="172.616" cy="377.517" rx="142.56" ry="78.4671" transform="rotate(-12.7697 172.616 377.517)" fill="#6DC94C"/>
<ellipse cx="230.079" cy="190.279" rx="150.48" ry="126.72" fill="#6DC94C"/>
<ellipse cx="301.359" cy="126.92" rx="110.88" ry="126.72" fill="#6DC94C"/>
<ellipse cx="646.665" cy="382.963" rx="126.72" ry="71.2801" transform="rotate(12.8316 646.665 382.963)" fill="#6DC94C"/>
<ellipse cx="449.657" cy="126.92" rx="148.298" ry="126.72" fill="#6DC94C"/>
<ellipse cx="697.359" cy="293.24" rx="110.88" ry="87.1201" fill="#6DC94C"/>
<ellipse cx="554.798" cy="119.001" rx="126.72" ry="87.1201" fill="#6DC94C"/>
<ellipse cx="610.239" cy="198.2" rx="150.48" ry="102.96" fill="#6DC94C"/>
<ellipse cx="150.879" cy="285.32" rx="150.48" ry="110.88" fill="#6DC94C"/>
<ellipse cx="275.417" cy="237.8" rx="148.298" ry="126.72" fill="#6DC94C"/>
<mask id="path-18-inside-1_1001_7231" fill="white">
<path d="M443.918 586.282C443.918 596.78 440.372 602.122 435.998 602.122C431.624 602.122 428.078 596.78 428.078 586.282C428.078 575.784 431.624 570.442 435.998 570.442C440.372 570.442 443.918 575.784 443.918 586.282Z"/>
</mask>
<path d="M443.918 586.282C443.918 596.78 440.372 602.122 435.998 602.122C431.624 602.122 428.078 596.78 428.078 586.282C428.078 575.784 431.624 570.442 435.998 570.442C440.372 570.442 443.918 575.784 443.918 586.282Z" fill="black"/>
<path d="M428.078 586.282C428.078 590.044 427.397 591.099 427.668 590.598C427.849 590.263 428.502 589.195 429.982 588.157C431.579 587.036 433.691 586.282 435.998 586.282V617.962C445.715 617.962 452.253 611.73 455.528 605.679C458.666 599.882 459.758 593.018 459.758 586.282H428.078ZM435.998 586.282C438.304 586.282 440.416 587.036 442.013 588.157C443.493 589.195 444.146 590.263 444.327 590.598C444.599 591.099 443.918 590.044 443.918 586.282H412.238C412.238 593.018 413.329 599.882 416.467 605.679C419.743 611.73 426.28 617.962 435.998 617.962V586.282ZM443.918 586.282C443.918 582.52 444.599 581.464 444.327 581.966C444.146 582.3 443.493 583.368 442.013 584.407C440.416 585.528 438.304 586.282 435.998 586.282V554.602C426.28 554.602 419.743 560.834 416.467 566.885C413.329 572.682 412.238 579.546 412.238 586.282H443.918ZM435.998 586.282C433.691 586.282 431.579 585.528 429.982 584.407C428.502 583.368 427.849 582.3 427.668 581.966C427.397 581.464 428.078 582.52 428.078 586.282H459.758C459.758 579.546 458.666 572.682 455.528 566.885C452.253 560.834 445.715 554.602 435.998 554.602V586.282Z" fill="black" mask="url(#path-18-inside-1_1001_7231)"/>
<mask id="path-20-inside-2_1001_7231" fill="white">
<path d="M396.398 586.282C396.398 596.78 392.852 602.122 388.478 602.122C384.104 602.122 380.558 596.78 380.558 586.282C380.558 575.784 384.104 570.442 388.478 570.442C392.852 570.442 396.398 575.784 396.398 586.282Z"/>
</mask>
<path d="M396.398 586.282C396.398 596.78 392.852 602.122 388.478 602.122C384.104 602.122 380.558 596.78 380.558 586.282C380.558 575.784 384.104 570.442 388.478 570.442C392.852 570.442 396.398 575.784 396.398 586.282Z" fill="black"/>
<path d="M380.558 586.282C380.558 590.044 379.876 591.099 380.148 590.598C380.329 590.263 380.982 589.195 382.462 588.157C384.059 587.036 386.171 586.282 388.478 586.282V617.962C398.195 617.962 404.733 611.73 408.008 605.679C411.146 599.882 412.238 593.018 412.238 586.282H380.558ZM388.478 586.282C390.784 586.282 392.896 587.036 394.493 588.157C395.973 589.195 396.626 590.263 396.807 590.598C397.079 591.099 396.398 590.044 396.398 586.282H364.718C364.718 593.018 365.809 599.882 368.947 605.679C372.223 611.73 378.76 617.962 388.478 617.962V586.282ZM396.398 586.282C396.398 582.52 397.079 581.464 396.807 581.966C396.626 582.3 395.973 583.368 394.493 584.407C392.896 585.528 390.784 586.282 388.478 586.282V554.602C378.76 554.602 372.223 560.834 368.947 566.885C365.809 572.682 364.718 579.546 364.718 586.282H396.398ZM388.478 586.282C386.171 586.282 384.059 585.528 382.462 584.407C380.982 583.368 380.329 582.3 380.148 581.966C379.876 581.464 380.558 582.52 380.558 586.282H412.238C412.238 579.546 411.146 572.682 408.008 566.885C404.733 560.834 398.195 554.602 388.478 554.602V586.282Z" fill="black" mask="url(#path-20-inside-2_1001_7231)"/>
<path d="M388.478 633.802C388.478 633.802 403.802 641.722 412.238 641.722C420.673 641.722 435.998 633.802 435.998 633.802" stroke="black" stroke-width="15.84" stroke-linecap="round"/>
<path d="M237.996 285.323C237.996 329.064 202.537 364.523 158.796 364.523C115.055 364.523 79.5962 329.064 79.5962 285.323C79.5962 263.168 84.9908 239.066 103.356 229.883C119.196 221.963 142.956 229.883 142.956 229.883C142.956 229.883 141.616 210.419 158.796 206.123C190.476 198.201 237.996 229.882 237.996 285.323Z" fill="#EC4141"/>
<path d="M135.037 229.881L119.194 202.743C117.654 200.105 118.444 196.723 120.993 195.04C123.645 193.288 127.215 194.019 128.966 196.671L144.31 219.91L142.957 229.881L135.037 229.881Z" fill="#822D22"/>
<g filter="url(#filter0_d_1001_7231)">
<path d="M135.037 229.882H131.077C128.89 229.882 127.117 231.655 127.117 233.842C127.117 236.029 128.89 237.802 131.077 237.802H135.037H139.223C141.614 237.802 143.907 236.852 145.597 235.162L150.057 230.702C150.582 230.177 150.877 229.464 150.877 228.722C150.877 226.227 147.861 224.978 146.097 226.742L143.583 229.256C143.182 229.657 142.639 229.882 142.072 229.882H135.037Z" fill="#572018"/>
</g>
<path d="M459.759 348.683C459.759 392.424 424.3 427.883 380.559 427.883C336.818 427.883 301.359 392.424 301.359 348.683C301.359 326.528 306.754 302.426 325.119 293.243C340.959 285.323 364.719 293.243 364.719 293.243C364.719 293.243 363.378 273.779 380.559 269.483C412.239 261.561 459.759 293.242 459.759 348.683Z" fill="#EC4141"/>
<path d="M356.799 293.24L340.957 266.103C339.416 263.464 340.206 260.082 342.756 258.399C345.408 256.648 348.978 257.378 350.729 260.031L366.072 283.269L364.719 293.24L356.799 293.24Z" fill="#822D22"/>
<g filter="url(#filter1_d_1001_7231)">
<path d="M356.799 293.241H352.839C350.652 293.241 348.879 295.014 348.879 297.201C348.879 299.388 350.652 301.161 352.839 301.161H356.799H360.985C363.376 301.161 365.669 300.211 367.359 298.521L371.819 294.061C372.344 293.536 372.639 292.823 372.639 292.081C372.639 289.586 369.623 288.337 367.859 290.101L365.345 292.615C364.944 293.015 364.401 293.241 363.834 293.241H356.799Z" fill="#572018"/>
</g>
<path d="M538.355 188.352C511.48 222.863 461.716 229.053 427.205 202.178C392.694 175.303 386.504 125.54 413.379 91.0288C426.992 73.5485 446.056 57.8473 466.189 61.8859C483.553 65.3692 497.432 86.2167 497.432 86.2167C497.432 86.2167 508.334 70.036 524.529 77.2024C554.391 90.4169 572.419 144.609 538.355 188.352Z" fill="#EC4141"/>
<path d="M491.185 81.3489L495.359 50.2038C495.765 47.1759 498.466 44.9927 501.512 45.2311C504.68 45.479 507.048 48.2487 506.8 51.4172L504.627 79.1794L497.433 86.215L491.185 81.3489Z" fill="#822D22"/>
<g filter="url(#filter2_d_1001_7231)">
<path d="M491.189 81.3517L488.064 78.9187C486.339 77.5749 483.85 77.8844 482.507 79.61C481.163 81.3355 481.472 83.8237 483.198 85.1674L486.322 87.6005L489.625 90.1727C491.512 91.6415 493.904 92.3009 496.276 92.0058L502.535 91.2272C503.272 91.1356 503.942 90.7549 504.399 90.1689C505.931 88.2007 504.319 85.3618 501.844 85.6698L498.315 86.1087C497.753 86.1786 497.186 86.0223 496.739 85.6742L491.189 81.3517Z" fill="#572018"/>
</g>
<path d="M565.429 300.302C559.559 343.647 589.939 383.544 633.284 389.414C676.629 395.284 716.526 364.905 722.396 321.559C725.37 299.604 723.258 274.997 706.291 263.432C691.658 253.458 667.05 258.118 667.05 258.118C667.05 258.118 670.99 239.01 654.541 232.447C624.211 220.345 572.869 245.362 565.429 300.302Z" fill="#EC4141"/>
<path d="M674.899 259.179L694.24 234.413C696.12 232.005 695.791 228.548 693.491 226.538C691.097 224.446 687.462 224.691 685.371 227.084L667.047 248.054L667.05 258.116L674.899 259.179Z" fill="#822D22"/>
<g filter="url(#filter3_d_1001_7231)">
<path d="M674.898 259.179L678.822 259.71C680.989 260.004 682.508 261.999 682.215 264.166C681.921 266.333 679.926 267.852 677.759 267.559L673.835 267.027L669.686 266.466C667.317 266.145 665.173 264.896 663.725 262.994L659.904 257.976C659.454 257.385 659.257 256.64 659.357 255.904C659.692 253.432 662.848 252.599 664.359 254.583L666.513 257.412C666.857 257.863 667.365 258.159 667.926 258.235L674.898 259.179Z" fill="#572018"/>
</g>
<path d="M301.356 522.923V911.085" stroke="#80542B" stroke-opacity="0.4" stroke-width="15.84" stroke-linecap="round"/>
<path d="M475.597 522.923V911.085" stroke="#80542B" stroke-opacity="0.4" stroke-width="15.84" stroke-linecap="round"/>
<path d="M364.716 617.963V903.084" stroke="#80542B" stroke-opacity="0.4" stroke-width="15.84" stroke-linecap="round"/>
<path d="M507.277 617.963V903.084" stroke="#80542B" stroke-opacity="0.4" stroke-width="15.84" stroke-linecap="round"/>
<path d="M428.076 728.844V903.084" stroke="#80542B" stroke-opacity="0.4" stroke-width="15.84" stroke-linecap="round"/>
<path d="M333.036 538.763V697.164" stroke="#80542B" stroke-opacity="0.4" stroke-width="15.84" stroke-linecap="round"/>
<defs>
<filter id="filter0_d_1001_7231" x="111.277" y="225.916" width="150.48" height="138.606" filterUnits="userSpaceOnUse" color-interpolation-filters="sRGB">
<feFlood flood-opacity="0" result="BackgroundImageFix"/>
<feColorMatrix in="SourceAlpha" type="matrix" values="0 0 0 0 0 0 0 0 0 0 0 0 0 0 0 0 0 0 127 0" result="hardAlpha"/>
<feOffset dx="47.5201" dy="63.3601"/>
<feGaussianBlur stdDeviation="31.68"/>
<feComposite in2="hardAlpha" operator="out"/>
<feColorMatrix type="matrix" values="0 0 0 0 0 0 0 0 0 0 0 0 0 0 0 0 0 0 0.25 0"/>
<feBlend mode="normal" in2="BackgroundImageFix" result="effect1_dropShadow_1001_7231"/>
<feBlend mode="normal" in="SourceGraphic" in2="effect1_dropShadow_1001_7231" result="shape"/>
</filter>
<filter id="filter1_d_1001_7231" x="333.039" y="289.275" width="150.48" height="138.606" filterUnits="userSpaceOnUse" color-interpolation-filters="sRGB">
<feFlood flood-opacity="0" result="BackgroundImageFix"/>
<feColorMatrix in="SourceAlpha" type="matrix" values="0 0 0 0 0 0 0 0 0 0 0 0 0 0 0 0 0 0 127 0" result="hardAlpha"/>
<feOffset dx="47.5201" dy="63.3601"/>
<feGaussianBlur stdDeviation="31.68"/>
<feComposite in2="hardAlpha" operator="out"/>
<feColorMatrix type="matrix" values="0 0 0 0 0 0 0 0 0 0 0 0 0 0 0 0 0 0 0.25 0"/>
<feBlend mode="normal" in2="BackgroundImageFix" result="effect1_dropShadow_1001_7231"/>
<feBlend mode="normal" in="SourceGraphic" in2="effect1_dropShadow_1001_7231" result="shape"/>
</filter>
<filter id="filter2_d_1001_7231" x="465.831" y="78.0828" width="150.047" height="140.712" filterUnits="userSpaceOnUse" color-interpolation-filters="sRGB">
<feFlood flood-opacity="0" result="BackgroundImageFix"/>
<feColorMatrix in="SourceAlpha" type="matrix" values="0 0 0 0 0 0 0 0 0 0 0 0 0 0 0 0 0 0 127 0" result="hardAlpha"/>
<feOffset dx="47.5201" dy="63.3601"/>
<feGaussianBlur stdDeviation="31.68"/>
<feComposite in2="hardAlpha" operator="out"/>
<feColorMatrix type="matrix" values="0 0 0 0 0 0 0 0 0 0 0 0 0 0 0 0 0 0 0.25 0"/>
<feBlend mode="normal" in2="BackgroundImageFix" result="effect1_dropShadow_1001_7231"/>
<feBlend mode="normal" in="SourceGraphic" in2="effect1_dropShadow_1001_7231" result="shape"/>
</filter>
<filter id="filter3_d_1001_7231" x="643.492" y="253.477" width="149.64" height="140.839" filterUnits="userSpaceOnUse" color-interpolation-filters="sRGB">
<feFlood flood-opacity="0" result="BackgroundImageFix"/>
<feColorMatrix in="SourceAlpha" type="matrix" values="0 0 0 0 0 0 0 0 0 0 0 0 0 0 0 0 0 0 127 0" result="hardAlpha"/>
<feOffset dx="47.5201" dy="63.3601"/>
<feGaussianBlur stdDeviation="31.68"/>
<feComposite in2="hardAlpha" operator="out"/>
<feColorMatrix type="matrix" values="0 0 0 0 0 0 0 0 0 0 0 0 0 0 0 0 0 0 0.25 0"/>
<feBlend mode="normal" in2="BackgroundImageFix" result="effect1_dropShadow_1001_7231"/>
<feBlend mode="normal" in="SourceGraphic" in2="effect1_dropShadow_1001_7231" result="shape"/>
</filter>
</defs>
</svg>
