<svg width="1531" height="2475" viewBox="0 0 1531 2475" fill="none" xmlns="http://www.w3.org/2000/svg">
<g clip-path="url(#clip0_1337_6601)">
<path d="M0.498962 0H1530.5V2385C1530.5 2434.71 1490.2 2475 1440.5 2475H90.4989C40.7933 2475 0.498962 2434.71 0.498962 2385V0Z" fill="white"/>
<path d="M45.499 157.5H1476.5V2137.5H45.499V157.5Z" fill="white"/>
<path d="M217.531 235.384V244.996H220.939C224.251 244.996 226.171 243.064 226.171 240.196C226.171 237.328 224.251 235.384 220.939 235.384H217.531ZM220.975 243.856H218.791V236.512H220.975C223.411 236.512 224.899 237.856 224.899 240.196C224.899 242.536 223.411 243.856 220.975 243.856ZM230.808 245.164C232.056 245.164 232.896 244.564 233.244 243.976V244.996H234.48V238.132H233.244V239.152C232.896 238.564 232.056 237.964 230.808 237.964C228.864 237.964 227.412 239.512 227.412 241.564C227.412 243.616 228.864 245.164 230.808 245.164ZM230.916 244.072C229.536 244.072 228.624 242.992 228.624 241.564C228.624 240.136 229.536 239.056 230.916 239.056C232.308 239.056 233.268 240.136 233.268 241.564C233.268 242.992 232.308 244.072 230.916 244.072ZM240.02 238.132H238.496V236.044H237.26V238.132H235.736V239.224H237.26V244.996H238.496V239.224H240.02V238.132ZM244.108 245.164C245.356 245.164 246.196 244.564 246.544 243.976V244.996H247.78V238.132H246.544V239.152C246.196 238.564 245.356 237.964 244.108 237.964C242.164 237.964 240.712 239.512 240.712 241.564C240.712 243.616 242.164 245.164 244.108 245.164ZM244.216 244.072C242.836 244.072 241.924 242.992 241.924 241.564C241.924 240.136 242.836 239.056 244.216 239.056C245.608 239.056 246.568 240.136 246.568 241.564C246.568 242.992 245.608 244.072 244.216 244.072Z" fill="black"/>
<ellipse cx="414.499" cy="265.5" rx="27" ry="27" fill="#FF00B8"/>
<path d="M147.401 285.097L123.356 261L147.401 236.902L139.999 229.5L108.499 261L139.999 292.5L147.401 285.097Z" fill="black"/>
<path d="M144.571 418.132H143.047V416.044H141.811V418.132H140.287V419.224H141.811V424.996H143.047V419.224H144.571V418.132ZM155.071 418.132L153.259 423.496L151.459 418.132H150.211L148.423 423.46L146.623 418.132H145.339L147.763 424.996H149.011L150.811 419.74L152.623 424.996H153.871L156.295 418.132H155.071ZM158.2 414.964C157.732 414.964 157.384 415.312 157.384 415.78C157.384 416.248 157.732 416.596 158.2 416.596C158.68 416.596 159.028 416.248 159.028 415.78C159.028 415.312 158.68 414.964 158.2 414.964ZM158.824 425.008V418.132H157.588V425.008H158.824ZM164.364 418.132H162.84V416.044H161.604V418.132H160.08V419.224H161.604V424.996H162.84V419.224H164.364V418.132ZM169.333 418.132H167.809V416.044H166.573V418.132H165.049V419.224H166.573V424.996H167.809V419.224H169.333V418.132ZM173.469 425.164C175.041 425.164 176.277 424.312 176.649 423.124H175.389C175.137 423.688 174.405 424.12 173.469 424.12C172.245 424.12 171.393 423.244 171.261 422.068H176.877C176.901 421.9 176.901 421.72 176.901 421.564C176.901 419.5 175.473 417.964 173.469 417.964C171.465 417.964 170.025 419.5 170.025 421.564C170.025 423.628 171.465 425.164 173.469 425.164ZM175.689 421.06H171.261C171.393 419.872 172.233 419.008 173.469 419.008C174.705 419.008 175.545 419.86 175.689 421.06ZM178.471 418.132V424.996H179.707V421.444C179.707 420.196 180.691 419.068 182.095 419.068C182.515 419.068 182.851 419.14 183.115 419.26V418.084C182.875 418 182.599 417.964 182.179 417.964C180.835 417.964 180.007 418.672 179.707 419.188V418.132H178.471ZM188.242 419.848H184.042V420.928H188.242V419.848ZM192.921 425.164C194.169 425.164 195.009 424.564 195.357 423.976V424.996H196.593V418.132H195.357V419.152C195.009 418.564 194.169 417.964 192.921 417.964C190.977 417.964 189.525 419.512 189.525 421.564C189.525 423.616 190.977 425.164 192.921 425.164ZM193.029 424.072C191.649 424.072 190.737 422.992 190.737 421.564C190.737 420.136 191.649 419.056 193.029 419.056C194.421 419.056 195.381 420.136 195.381 421.564C195.381 422.992 194.421 424.072 193.029 424.072ZM199.769 424.996V415.084H198.533V424.996H199.769ZM205.069 428.08C207.037 428.08 208.417 426.736 208.417 424.84V418.132H207.181V419.152C206.833 418.564 205.993 417.964 204.745 417.964C202.801 417.964 201.349 419.5 201.349 421.528C201.349 423.544 202.801 425.068 204.745 425.068C205.993 425.068 206.833 424.468 207.181 423.88V424.828C207.181 426.172 206.317 427.012 205.069 427.012C203.833 427.012 203.221 426.376 203.077 425.644H201.817C202.057 426.94 203.101 428.08 205.069 428.08ZM204.853 424C203.473 424 202.561 422.932 202.561 421.528C202.561 420.124 203.473 419.056 204.853 419.056C206.245 419.056 207.205 420.124 207.205 421.528C207.205 422.932 206.245 424 204.853 424ZM213.514 417.964C211.474 417.964 209.998 419.5 209.998 421.564C209.998 423.628 211.474 425.164 213.514 425.164C215.542 425.164 217.018 423.628 217.018 421.564C217.018 419.5 215.542 417.964 213.514 417.964ZM213.514 419.056C214.87 419.056 215.806 420.136 215.806 421.564C215.806 422.992 214.87 424.072 213.514 424.072C212.146 424.072 211.21 422.992 211.21 421.564C211.21 420.136 212.146 419.056 213.514 419.056ZM218.596 418.132V424.996H219.832V421.444C219.832 420.196 220.816 419.068 222.22 419.068C222.64 419.068 222.976 419.14 223.24 419.26V418.084C223 418 222.724 417.964 222.304 417.964C220.96 417.964 220.132 418.672 219.832 419.188V418.132H218.596ZM225.079 414.964C224.611 414.964 224.263 415.312 224.263 415.78C224.263 416.248 224.611 416.596 225.079 416.596C225.559 416.596 225.907 416.248 225.907 415.78C225.907 415.312 225.559 414.964 225.079 414.964ZM225.703 425.008V418.132H224.467V425.008H225.703ZM231.243 418.132H229.719V416.044H228.483V418.132H226.959V419.224H228.483V424.996H229.719V419.224H231.243V418.132ZM232.518 415.084V424.996H233.754V421.444C233.754 420.172 234.618 419.044 235.818 419.044C236.934 419.044 237.606 419.8 237.606 421.192V424.996H238.842V420.976C238.842 419.128 237.702 417.964 236.082 417.964C234.822 417.964 234.042 418.672 233.754 419.176V415.084H232.518ZM240.627 418.132V424.996H241.863V421.288C241.863 420.052 242.619 419.044 243.639 419.044C244.599 419.044 245.211 419.788 245.211 421.072V424.996H246.447V421.3C246.447 420.052 247.191 419.044 248.223 419.044C249.195 419.044 249.795 419.788 249.795 421.024V424.996H251.031V420.82C251.031 419.08 249.975 417.964 248.511 417.964C247.347 417.964 246.483 418.54 246.075 419.404C245.739 418.528 244.959 417.964 243.939 417.964C242.787 417.964 242.175 418.6 241.863 419.104V418.132H240.627Z" fill="black"/>
<rect x="139.999" y="504" width="225" height="54" rx="22.5" fill="#FF0505"/>
<path d="M240.327 527.885V533.492H241.062V531.777H242.315C243.771 531.777 244.625 531 244.625 529.831C244.625 528.662 243.771 527.885 242.315 527.885H240.327ZM242.259 531.112H241.062V528.55H242.259C243.274 528.55 243.89 528.998 243.89 529.831C243.89 530.664 243.274 531.112 242.259 531.112ZM245.405 529.488V533.492H246.126V531.42C246.126 530.692 246.7 530.034 247.519 530.034C247.764 530.034 247.96 530.076 248.114 530.146V529.46C247.974 529.411 247.813 529.39 247.568 529.39C246.784 529.39 246.301 529.803 246.126 530.104V529.488H245.405ZM249.187 527.64C248.914 527.64 248.711 527.843 248.711 528.116C248.711 528.389 248.914 528.592 249.187 528.592C249.467 528.592 249.67 528.389 249.67 528.116C249.67 527.843 249.467 527.64 249.187 527.64ZM249.551 533.499V529.488H248.83V533.499H249.551ZM253.686 529.488L252.377 532.673L251.068 529.488H250.284L251.971 533.492H252.734L254.428 529.488H253.686ZM256.665 533.59C257.393 533.59 257.883 533.24 258.086 532.897V533.492H258.807V529.488H258.086V530.083C257.883 529.74 257.393 529.39 256.665 529.39C255.531 529.39 254.684 530.293 254.684 531.49C254.684 532.687 255.531 533.59 256.665 533.59ZM256.728 532.953C255.923 532.953 255.391 532.323 255.391 531.49C255.391 530.657 255.923 530.027 256.728 530.027C257.54 530.027 258.1 530.657 258.1 531.49C258.1 532.323 257.54 532.953 256.728 532.953ZM262.039 529.488H261.15V528.27H260.429V529.488H259.54V530.125H260.429V533.492H261.15V530.125H262.039V529.488ZM264.452 533.59C265.369 533.59 266.09 533.093 266.307 532.4H265.572C265.425 532.729 264.998 532.981 264.452 532.981C263.738 532.981 263.241 532.47 263.164 531.784H266.44C266.454 531.686 266.454 531.581 266.454 531.49C266.454 530.286 265.621 529.39 264.452 529.39C263.283 529.39 262.443 530.286 262.443 531.49C262.443 532.694 263.283 533.59 264.452 533.59ZM265.747 531.196H263.164C263.241 530.503 263.731 529.999 264.452 529.999C265.173 529.999 265.663 530.496 265.747 531.196Z" fill="white"/>
<ellipse cx="432.499" cy="531" rx="22.5" ry="22.5" fill="#64B4FF"/>
<path d="M478.187 513.256V519.664H479.027V517.704H480.459C482.123 517.704 483.099 516.816 483.099 515.48C483.099 514.144 482.123 513.256 480.459 513.256H478.187ZM480.395 516.944H479.027V514.016H480.395C481.555 514.016 482.259 514.528 482.259 515.48C482.259 516.432 481.555 516.944 480.395 516.944ZM487.407 515.088L485.895 518.688L484.423 515.088H483.519L485.479 519.568L484.575 521.608H485.407L488.263 515.088H487.407ZM491.586 515.088H490.57V513.696H489.746V515.088H488.73V515.816H489.746V519.664H490.57V515.816H491.586V515.088ZM492.436 513.056V519.664H493.26V517.296C493.26 516.448 493.836 515.696 494.636 515.696C495.38 515.696 495.828 516.2 495.828 517.128V519.664H496.652V516.984C496.652 515.752 495.892 514.976 494.812 514.976C493.972 514.976 493.452 515.448 493.26 515.784V513.056H492.436ZM499.946 514.976C498.586 514.976 497.602 516 497.602 517.376C497.602 518.752 498.586 519.776 499.946 519.776C501.298 519.776 502.282 518.752 502.282 517.376C502.282 516 501.298 514.976 499.946 514.976ZM499.946 515.704C500.85 515.704 501.474 516.424 501.474 517.376C501.474 518.328 500.85 519.048 499.946 519.048C499.034 519.048 498.41 518.328 498.41 517.376C498.41 516.424 499.034 515.704 499.946 515.704ZM503.334 515.088V519.664H504.158V517.296C504.158 516.448 504.734 515.696 505.534 515.696C506.278 515.696 506.726 516.2 506.726 517.128V519.664H507.55V516.984C507.55 515.752 506.79 514.976 505.71 514.976C504.87 514.976 504.35 515.448 504.158 515.784V515.088H503.334Z" fill="black"/>
<path d="M914.599 639.256V642.904C914.599 644.664 915.695 645.816 917.399 645.816C919.095 645.816 920.191 644.664 920.191 642.904V639.256H919.351V642.904C919.351 644.192 918.615 645.048 917.399 645.048C916.183 645.048 915.439 644.192 915.439 642.904V639.256H914.599ZM923.884 645.776C925.18 645.776 926.148 644.744 926.148 643.376C926.148 642.008 925.18 640.976 923.884 640.976C923.052 640.976 922.492 641.376 922.26 641.768V641.088H921.436V647.608H922.26V644.984C922.492 645.376 923.052 645.776 923.884 645.776ZM923.812 645.048C922.884 645.048 922.244 644.328 922.244 643.376C922.244 642.424 922.884 641.704 923.812 641.704C924.732 641.704 925.34 642.424 925.34 643.376C925.34 644.328 924.732 645.048 923.812 645.048ZM929.225 645.776C930.057 645.776 930.617 645.376 930.849 644.984V645.664H931.673V639.056H930.849V641.768C930.617 641.376 930.057 640.976 929.225 640.976C927.929 640.976 926.961 642.008 926.961 643.376C926.961 644.744 927.929 645.776 929.225 645.776ZM929.297 645.048C928.377 645.048 927.769 644.328 927.769 643.376C927.769 642.424 928.377 641.704 929.297 641.704C930.225 641.704 930.865 642.424 930.865 643.376C930.865 644.328 930.225 645.048 929.297 645.048ZM934.991 645.776C935.823 645.776 936.383 645.376 936.615 644.984V645.664H937.439V641.088H936.615V641.768C936.383 641.376 935.823 640.976 934.991 640.976C933.695 640.976 932.727 642.008 932.727 643.376C932.727 644.744 933.695 645.776 934.991 645.776ZM935.063 645.048C934.143 645.048 933.535 644.328 933.535 643.376C933.535 642.424 934.143 641.704 935.063 641.704C935.991 641.704 936.631 642.424 936.631 643.376C936.631 644.328 935.991 645.048 935.063 645.048ZM941.133 641.088H940.117V639.696H939.293V641.088H938.277V641.816H939.293V645.664H940.117V641.816H941.133V641.088ZM943.89 645.776C944.938 645.776 945.762 645.208 946.01 644.416H945.17C945.002 644.792 944.514 645.08 943.89 645.08C943.074 645.08 942.506 644.496 942.418 643.712H946.162C946.178 643.6 946.178 643.48 946.178 643.376C946.178 642 945.226 640.976 943.89 640.976C942.554 640.976 941.594 642 941.594 643.376C941.594 644.752 942.554 645.776 943.89 645.776ZM945.37 643.04H942.418C942.506 642.248 943.066 641.672 943.89 641.672C944.714 641.672 945.274 642.24 945.37 643.04ZM949.249 645.776C950.081 645.776 950.641 645.376 950.873 644.984V645.664H951.697V639.056H950.873V641.768C950.641 641.376 950.081 640.976 949.249 640.976C947.953 640.976 946.985 642.008 946.985 643.376C946.985 644.744 947.953 645.776 949.249 645.776ZM949.321 645.048C948.401 645.048 947.793 644.328 947.793 643.376C947.793 642.424 948.401 641.704 949.321 641.704C950.249 641.704 950.889 642.424 950.889 643.376C950.889 644.328 950.249 645.048 949.321 645.048ZM957.337 640.976C955.977 640.976 954.993 642 954.993 643.376C954.993 644.752 955.977 645.776 957.337 645.776C958.689 645.776 959.673 644.752 959.673 643.376C959.673 642 958.689 640.976 957.337 640.976ZM957.337 641.704C958.241 641.704 958.865 642.424 958.865 643.376C958.865 644.328 958.241 645.048 957.337 645.048C956.425 645.048 955.801 644.328 955.801 643.376C955.801 642.424 956.425 641.704 957.337 641.704ZM960.725 641.088V645.664H961.549V643.296C961.549 642.448 962.125 641.696 962.925 641.696C963.669 641.696 964.117 642.2 964.117 643.128V645.664H964.941V642.984C964.941 641.752 964.181 640.976 963.101 640.976C962.261 640.976 961.741 641.448 961.549 641.784V641.088H960.725ZM968.39 639.256V645.664H970.662C972.87 645.664 974.15 644.376 974.15 642.464C974.15 640.552 972.87 639.256 970.662 639.256H968.39ZM970.686 644.904H969.23V640.008H970.686C972.31 640.008 973.302 640.904 973.302 642.464C973.302 644.024 972.31 644.904 970.686 644.904ZM977.273 645.776C978.321 645.776 979.145 645.208 979.393 644.416H978.553C978.385 644.792 977.897 645.08 977.273 645.08C976.457 645.08 975.889 644.496 975.801 643.712H979.545C979.561 643.6 979.561 643.48 979.561 643.376C979.561 642 978.609 640.976 977.273 640.976C975.937 640.976 974.977 642 974.977 643.376C974.977 644.752 975.937 645.776 977.273 645.776ZM978.753 643.04H975.801C975.889 642.248 976.449 641.672 977.273 641.672C978.097 641.672 978.657 642.24 978.753 643.04ZM984.872 644.112H984.032C983.848 644.664 983.352 645.048 982.704 645.048C981.792 645.048 981.176 644.328 981.176 643.376C981.176 642.424 981.792 641.704 982.704 641.704C983.352 641.704 983.832 642.08 984.016 642.624H984.856C984.632 641.672 983.784 640.976 982.704 640.976C981.352 640.976 980.368 642 980.368 643.376C980.368 644.752 981.36 645.776 982.72 645.776C983.784 645.776 984.624 645.104 984.872 644.112ZM987.867 645.664H992.323V644.936H989.075L990.755 643.288C991.715 642.304 992.107 641.72 992.107 641.032C992.107 639.88 991.259 639.104 989.971 639.104C988.635 639.104 987.795 640.056 987.795 641.216H988.635C988.635 640.504 989.099 639.848 989.963 639.848C990.763 639.848 991.275 640.288 991.275 641.04C991.275 641.496 990.955 642.016 990.139 642.84L987.867 645.12V645.664ZM995.909 643.304L994.293 645.656H995.253L996.989 643.056C997.381 642.472 997.613 641.952 997.613 641.296C997.613 639.96 996.581 639.104 995.285 639.104C993.997 639.104 992.965 639.96 992.965 641.296C992.965 642.6 993.973 643.456 995.221 643.456C995.501 643.456 995.757 643.376 995.909 643.304ZM995.285 639.832C996.213 639.832 996.789 640.472 996.789 641.288C996.789 642.104 996.213 642.752 995.285 642.752C994.365 642.752 993.789 642.112 993.789 641.288C993.789 640.472 994.365 639.832 995.285 639.832ZM998.659 644.664H997.859L997.603 646.472H998.259L998.659 644.664ZM1001.73 645.664H1006.19V644.936H1002.94L1004.62 643.288C1005.58 642.304 1005.97 641.72 1005.97 641.032C1005.97 639.88 1005.13 639.104 1003.84 639.104C1002.5 639.104 1001.66 640.056 1001.66 641.216H1002.5C1002.5 640.504 1002.97 639.848 1003.83 639.848C1004.63 639.848 1005.14 640.288 1005.14 641.04C1005.14 641.496 1004.82 642.016 1004.01 642.84L1001.73 645.12V645.664ZM1009.37 645.808C1010.71 645.808 1011.73 644.696 1011.73 642.456C1011.73 640.216 1010.71 639.104 1009.37 639.104C1008.02 639.104 1007 640.216 1007 642.456C1007 644.696 1008.02 645.808 1009.37 645.808ZM1009.37 645.064C1008.5 645.064 1007.81 644.2 1007.81 642.456C1007.81 640.72 1008.5 639.848 1009.37 639.848C1010.23 639.848 1010.92 640.72 1010.92 642.456C1010.92 644.2 1010.23 645.064 1009.37 645.064ZM1012.53 645.664H1016.99V644.936H1013.74L1015.42 643.288C1016.38 642.304 1016.77 641.72 1016.77 641.032C1016.77 639.88 1015.92 639.104 1014.64 639.104C1013.3 639.104 1012.46 640.056 1012.46 641.216H1013.3C1013.3 640.504 1013.76 639.848 1014.63 639.848C1015.43 639.848 1015.94 640.288 1015.94 641.04C1015.94 641.496 1015.62 642.016 1014.8 642.84L1012.53 645.12V645.664ZM1019.08 645.664H1019.92V639.256H1017.75V639.992H1019.08V645.664Z" fill="black"/>
<path d="M143.047 580.604C141.631 580.604 140.583 581.252 140.583 582.316C140.583 583.38 141.319 583.9 142.767 584.204C144.159 584.5 144.743 584.788 144.743 585.5C144.743 586.14 144.063 586.58 143.103 586.58C142.031 586.58 141.335 586.028 141.247 585.252H140.383C140.471 586.492 141.551 587.308 143.047 587.308C144.471 587.308 145.599 586.604 145.599 585.452C145.599 584.5 144.967 583.892 143.391 583.556C142.023 583.268 141.431 582.98 141.431 582.316C141.431 581.74 141.999 581.324 143.007 581.324C144.007 581.324 144.623 581.844 144.711 582.524H145.575C145.495 581.404 144.455 580.604 143.047 580.604ZM148.727 582.476C147.367 582.476 146.383 583.5 146.383 584.876C146.383 586.252 147.367 587.276 148.727 587.276C150.079 587.276 151.063 586.252 151.063 584.876C151.063 583.5 150.079 582.476 148.727 582.476ZM148.727 583.204C149.631 583.204 150.255 583.924 150.255 584.876C150.255 585.828 149.631 586.548 148.727 586.548C147.815 586.548 147.191 585.828 147.191 584.876C147.191 583.924 147.815 583.204 148.727 583.204ZM156.228 587.164V582.588H155.404V584.956C155.404 585.804 154.828 586.556 154.028 586.556C153.284 586.556 152.836 586.052 152.836 585.124V582.588H152.012V585.268C152.012 586.5 152.772 587.276 153.852 587.276C154.692 587.276 155.212 586.804 155.404 586.468V587.164H156.228ZM157.522 582.588V587.164H158.346V584.796C158.346 583.964 159.002 583.212 159.938 583.212C160.218 583.212 160.442 583.26 160.618 583.34V582.556C160.458 582.5 160.274 582.476 159.994 582.476C159.098 582.476 158.546 582.948 158.346 583.292V582.588H157.522ZM165.458 585.612H164.618C164.434 586.164 163.938 586.548 163.29 586.548C162.378 586.548 161.762 585.828 161.762 584.876C161.762 583.924 162.378 583.204 163.29 583.204C163.938 583.204 164.418 583.58 164.602 584.124H165.442C165.218 583.172 164.37 582.476 163.29 582.476C161.938 582.476 160.954 583.5 160.954 584.876C160.954 586.252 161.946 587.276 163.306 587.276C164.37 587.276 165.21 586.604 165.458 585.612ZM168.523 587.276C169.571 587.276 170.395 586.708 170.643 585.916H169.803C169.635 586.292 169.147 586.58 168.523 586.58C167.707 586.58 167.139 585.996 167.051 585.212H170.795C170.811 585.1 170.811 584.98 170.811 584.876C170.811 583.5 169.859 582.476 168.523 582.476C167.187 582.476 166.227 583.5 166.227 584.876C166.227 586.252 167.187 587.276 168.523 587.276ZM170.003 584.54H167.051C167.139 583.748 167.699 583.172 168.523 583.172C169.347 583.172 169.907 583.74 170.003 584.54ZM178.364 585.612H177.524C177.34 586.164 176.844 586.548 176.196 586.548C175.284 586.548 174.668 585.828 174.668 584.876C174.668 583.924 175.284 583.204 176.196 583.204C176.844 583.204 177.324 583.58 177.508 584.124H178.348C178.124 583.172 177.276 582.476 176.196 582.476C174.844 582.476 173.86 583.5 173.86 584.876C173.86 586.252 174.852 587.276 176.212 587.276C177.276 587.276 178.116 586.604 178.364 585.612ZM181.477 582.476C180.117 582.476 179.133 583.5 179.133 584.876C179.133 586.252 180.117 587.276 181.477 587.276C182.829 587.276 183.813 586.252 183.813 584.876C183.813 583.5 182.829 582.476 181.477 582.476ZM181.477 583.204C182.381 583.204 183.005 583.924 183.005 584.876C183.005 585.828 182.381 586.548 181.477 586.548C180.565 586.548 179.941 585.828 179.941 584.876C179.941 583.924 180.565 583.204 181.477 583.204ZM186.89 587.276C187.722 587.276 188.282 586.876 188.514 586.484V587.164H189.338V580.556H188.514V583.268C188.282 582.876 187.722 582.476 186.89 582.476C185.594 582.476 184.626 583.508 184.626 584.876C184.626 586.244 185.594 587.276 186.89 587.276ZM186.962 586.548C186.042 586.548 185.434 585.828 185.434 584.876C185.434 583.924 186.042 583.204 186.962 583.204C187.89 583.204 188.53 583.924 188.53 584.876C188.53 585.828 187.89 586.548 186.962 586.548ZM192.687 587.276C193.735 587.276 194.559 586.708 194.807 585.916H193.967C193.799 586.292 193.311 586.58 192.687 586.58C191.871 586.58 191.303 585.996 191.215 585.212H194.959C194.975 585.1 194.975 584.98 194.975 584.876C194.975 583.5 194.023 582.476 192.687 582.476C191.351 582.476 190.391 583.5 190.391 584.876C190.391 586.252 191.351 587.276 192.687 587.276ZM194.167 584.54H191.215C191.303 583.748 191.863 583.172 192.687 583.172C193.511 583.172 194.071 583.74 194.167 584.54ZM200.568 582.588H199.552V581.836C199.552 581.46 199.76 581.244 200.096 581.244C200.216 581.244 200.376 581.244 200.488 581.268V580.572C200.344 580.54 200.152 580.524 199.952 580.524C199.168 580.524 198.728 581.052 198.728 581.812V582.588H197.824V583.316H198.728V587.164H199.552V583.316H200.568V582.588ZM203.321 582.476C201.961 582.476 200.977 583.5 200.977 584.876C200.977 586.252 201.961 587.276 203.321 587.276C204.673 587.276 205.657 586.252 205.657 584.876C205.657 583.5 204.673 582.476 203.321 582.476ZM203.321 583.204C204.225 583.204 204.849 583.924 204.849 584.876C204.849 585.828 204.225 586.548 203.321 586.548C202.409 586.548 201.785 585.828 201.785 584.876C201.785 583.924 202.409 583.204 203.321 583.204ZM206.709 582.588V587.164H207.533V584.796C207.533 583.964 208.189 583.212 209.125 583.212C209.405 583.212 209.629 583.26 209.805 583.34V582.556C209.645 582.5 209.461 582.476 209.181 582.476C208.285 582.476 207.733 582.948 207.533 583.292V582.588H206.709ZM217.962 581.508V580.756H212.522V581.508H214.826V587.164H215.666V581.508H217.962ZM224.289 582.588L223.081 586.164L221.881 582.588H221.049L219.857 586.14L218.657 582.588H217.801L219.417 587.164H220.249L221.449 583.66L222.657 587.164H223.489L225.105 582.588H224.289ZM226.375 580.476C226.063 580.476 225.831 580.708 225.831 581.02C225.831 581.332 226.063 581.564 226.375 581.564C226.695 581.564 226.927 581.332 226.927 581.02C226.927 580.708 226.695 580.476 226.375 580.476ZM226.791 587.172V582.588H225.967V587.172H226.791ZM230.484 582.588H229.468V581.196H228.644V582.588H227.628V583.316H228.644V587.164H229.468V583.316H230.484V582.588ZM233.797 582.588H232.781V581.196H231.957V582.588H230.941V583.316H231.957V587.164H232.781V583.316H233.797V582.588ZM236.554 587.276C237.602 587.276 238.426 586.708 238.674 585.916H237.834C237.666 586.292 237.178 586.58 236.554 586.58C235.738 586.58 235.17 585.996 235.082 585.212H238.826C238.842 585.1 238.842 584.98 238.842 584.876C238.842 583.5 237.89 582.476 236.554 582.476C235.218 582.476 234.258 583.5 234.258 584.876C234.258 586.252 235.218 587.276 236.554 587.276ZM238.034 584.54H235.082C235.17 583.748 235.73 583.172 236.554 583.172C237.378 583.172 237.938 583.74 238.034 584.54ZM239.889 582.588V587.164H240.713V584.796C240.713 583.964 241.369 583.212 242.305 583.212C242.585 583.212 242.809 583.26 242.985 583.34V582.556C242.825 582.5 242.641 582.476 242.361 582.476C241.465 582.476 240.913 582.948 240.713 583.292V582.588H239.889ZM244.299 582.284L244.379 580.5H243.603L243.683 582.284H244.299ZM247.119 582.476C245.999 582.476 245.143 582.996 245.143 583.804C245.143 584.604 245.719 585.004 246.967 585.172C248.063 585.316 248.415 585.532 248.415 585.908C248.415 586.316 247.879 586.604 247.175 586.604C246.359 586.604 245.943 586.244 245.895 585.884H245.087C245.143 586.684 245.927 587.276 247.151 587.276C248.287 587.276 249.223 586.748 249.223 585.86C249.223 585.148 248.735 584.7 247.359 584.516C246.239 584.364 245.951 584.132 245.951 583.756C245.951 583.412 246.431 583.148 247.095 583.148C247.759 583.148 248.279 583.42 248.311 583.804H249.119C249.079 583.028 248.239 582.476 247.119 582.476ZM145.895 595.164L144.287 592.716C145.167 592.404 145.655 591.732 145.655 590.828C145.655 589.564 144.703 588.756 143.087 588.756H140.687V595.164H141.527V592.9H143.087C143.207 592.9 143.327 592.892 143.447 592.884L144.903 595.164H145.895ZM143.023 592.148H141.527V589.508H143.023C144.135 589.508 144.815 589.964 144.815 590.828C144.815 591.692 144.135 592.148 143.023 592.148ZM148.679 595.276C149.727 595.276 150.551 594.708 150.799 593.916H149.959C149.791 594.292 149.303 594.58 148.679 594.58C147.863 594.58 147.295 593.996 147.207 593.212H150.951C150.967 593.1 150.967 592.98 150.967 592.876C150.967 591.5 150.015 590.476 148.679 590.476C147.343 590.476 146.383 591.5 146.383 592.876C146.383 594.252 147.343 595.276 148.679 595.276ZM150.159 592.54H147.207C147.295 591.748 147.855 591.172 148.679 591.172C149.503 591.172 150.063 591.74 150.159 592.54ZM156.278 593.612H155.438C155.254 594.164 154.758 594.548 154.11 594.548C153.198 594.548 152.582 593.828 152.582 592.876C152.582 591.924 153.198 591.204 154.11 591.204C154.758 591.204 155.238 591.58 155.422 592.124H156.262C156.038 591.172 155.19 590.476 154.11 590.476C152.758 590.476 151.774 591.5 151.774 592.876C151.774 594.252 152.766 595.276 154.126 595.276C155.19 595.276 156.03 594.604 156.278 593.612ZM159.392 590.476C158.032 590.476 157.048 591.5 157.048 592.876C157.048 594.252 158.032 595.276 159.392 595.276C160.744 595.276 161.728 594.252 161.728 592.876C161.728 591.5 160.744 590.476 159.392 590.476ZM159.392 591.204C160.296 591.204 160.92 591.924 160.92 592.876C160.92 593.828 160.296 594.548 159.392 594.548C158.48 594.548 157.856 593.828 157.856 592.876C157.856 591.924 158.48 591.204 159.392 591.204ZM162.78 590.588V595.164H163.604V592.692C163.604 591.868 164.108 591.196 164.788 591.196C165.428 591.196 165.836 591.692 165.836 592.548V595.164H166.66V592.7C166.66 591.868 167.156 591.196 167.844 591.196C168.492 591.196 168.892 591.692 168.892 592.516V595.164H169.716V592.38C169.716 591.22 169.012 590.476 168.036 590.476C167.26 590.476 166.684 590.86 166.412 591.436C166.188 590.852 165.668 590.476 164.988 590.476C164.22 590.476 163.812 590.9 163.604 591.236V590.588H162.78ZM170.889 590.588V595.164H171.713V592.692C171.713 591.868 172.217 591.196 172.897 591.196C173.537 591.196 173.945 591.692 173.945 592.548V595.164H174.769V592.7C174.769 591.868 175.265 591.196 175.953 591.196C176.601 591.196 177.001 591.692 177.001 592.516V595.164H177.825V592.38C177.825 591.22 177.121 590.476 176.145 590.476C175.369 590.476 174.793 590.86 174.521 591.436C174.297 590.852 173.777 590.476 173.097 590.476C172.329 590.476 171.921 590.9 171.713 591.236V590.588H170.889ZM181.054 595.276C182.102 595.276 182.926 594.708 183.174 593.916H182.334C182.166 594.292 181.678 594.58 181.054 594.58C180.238 594.58 179.67 593.996 179.582 593.212H183.326C183.342 593.1 183.342 592.98 183.342 592.876C183.342 591.5 182.39 590.476 181.054 590.476C179.718 590.476 178.758 591.5 178.758 592.876C178.758 594.252 179.718 595.276 181.054 595.276ZM182.534 592.54H179.582C179.67 591.748 180.23 591.172 181.054 591.172C181.878 591.172 182.438 591.74 182.534 592.54ZM184.389 590.588V595.164H185.213V592.796C185.213 591.948 185.789 591.196 186.589 591.196C187.333 591.196 187.781 591.7 187.781 592.628V595.164H188.605V592.484C188.605 591.252 187.845 590.476 186.765 590.476C185.925 590.476 185.405 590.948 185.213 591.284V590.588H184.389ZM191.796 595.276C192.628 595.276 193.188 594.876 193.42 594.484V595.164H194.244V588.556H193.42V591.268C193.188 590.876 192.628 590.476 191.796 590.476C190.5 590.476 189.532 591.508 189.532 592.876C189.532 594.244 190.5 595.276 191.796 595.276ZM191.868 594.548C190.948 594.548 190.34 593.828 190.34 592.876C190.34 591.924 190.948 591.204 191.868 591.204C192.796 591.204 193.436 591.924 193.436 592.876C193.436 593.828 192.796 594.548 191.868 594.548ZM197.562 595.276C198.394 595.276 198.954 594.876 199.186 594.484V595.164H200.01V590.588H199.186V591.268C198.954 590.876 198.394 590.476 197.562 590.476C196.266 590.476 195.298 591.508 195.298 592.876C195.298 594.244 196.266 595.276 197.562 595.276ZM197.634 594.548C196.714 594.548 196.106 593.828 196.106 592.876C196.106 591.924 196.714 591.204 197.634 591.204C198.562 591.204 199.202 591.924 199.202 592.876C199.202 593.828 198.562 594.548 197.634 594.548ZM203.703 590.588H202.687V589.196H201.863V590.588H200.847V591.316H201.863V595.164H202.687V591.316H203.703V590.588ZM204.961 588.476C204.649 588.476 204.417 588.708 204.417 589.02C204.417 589.332 204.649 589.564 204.961 589.564C205.281 589.564 205.513 589.332 205.513 589.02C205.513 588.708 205.281 588.476 204.961 588.476ZM205.377 595.172V590.588H204.553V595.172H205.377ZM208.774 590.476C207.414 590.476 206.43 591.5 206.43 592.876C206.43 594.252 207.414 595.276 208.774 595.276C210.126 595.276 211.11 594.252 211.11 592.876C211.11 591.5 210.126 590.476 208.774 590.476ZM208.774 591.204C209.678 591.204 210.302 591.924 210.302 592.876C210.302 593.828 209.678 594.548 208.774 594.548C207.862 594.548 207.238 593.828 207.238 592.876C207.238 591.924 207.862 591.204 208.774 591.204ZM212.163 590.588V595.164H212.987V592.796C212.987 591.948 213.563 591.196 214.363 591.196C215.107 591.196 215.555 591.7 215.555 592.628V595.164H216.379V592.484C216.379 591.252 215.619 590.476 214.539 590.476C213.699 590.476 213.179 590.948 212.987 591.284V590.588H212.163ZM224.548 595.164H225.468L222.836 588.756H221.948L219.308 595.164H220.188L220.828 593.58H223.908L224.548 595.164ZM221.124 592.836L222.372 589.74L223.612 592.836H221.124ZM227.104 595.164V588.556H226.28V595.164H227.104ZM230.637 597.22C231.949 597.22 232.869 596.324 232.869 595.06V590.588H232.045V591.268C231.813 590.876 231.253 590.476 230.421 590.476C229.125 590.476 228.157 591.5 228.157 592.852C228.157 594.196 229.125 595.212 230.421 595.212C231.253 595.212 231.813 594.812 232.045 594.42V595.052C232.045 595.948 231.469 596.508 230.637 596.508C229.813 596.508 229.405 596.084 229.309 595.596H228.469C228.629 596.46 229.325 597.22 230.637 597.22ZM230.493 594.5C229.573 594.5 228.965 593.788 228.965 592.852C228.965 591.916 229.573 591.204 230.493 591.204C231.421 591.204 232.061 591.916 232.061 592.852C232.061 593.788 231.421 594.5 230.493 594.5ZM236.267 590.476C234.907 590.476 233.923 591.5 233.923 592.876C233.923 594.252 234.907 595.276 236.267 595.276C237.619 595.276 238.603 594.252 238.603 592.876C238.603 591.5 237.619 590.476 236.267 590.476ZM236.267 591.204C237.171 591.204 237.795 591.924 237.795 592.876C237.795 593.828 237.171 594.548 236.267 594.548C235.355 594.548 234.731 593.828 234.731 592.876C234.731 591.924 235.355 591.204 236.267 591.204ZM239.655 590.588V595.164H240.479V592.796C240.479 591.964 241.135 591.212 242.071 591.212C242.351 591.212 242.575 591.26 242.751 591.34V590.556C242.591 590.5 242.407 590.476 242.127 590.476C241.231 590.476 240.679 590.948 240.479 591.292V590.588H239.655ZM243.977 588.476C243.665 588.476 243.433 588.708 243.433 589.02C243.433 589.332 243.665 589.564 243.977 589.564C244.297 589.564 244.529 589.332 244.529 589.02C244.529 588.708 244.297 588.476 243.977 588.476ZM244.393 595.172V590.588H243.569V595.172H244.393ZM248.086 590.588H247.07V589.196H246.246V590.588H245.23V591.316H246.246V595.164H247.07V591.316H248.086V590.588ZM248.936 588.556V595.164H249.76V592.796C249.76 591.948 250.336 591.196 251.136 591.196C251.88 591.196 252.328 591.7 252.328 592.628V595.164H253.152V592.484C253.152 591.252 252.392 590.476 251.312 590.476C250.472 590.476 249.952 590.948 249.76 591.284V588.556H248.936ZM254.342 590.588V595.164H255.166V592.692C255.166 591.868 255.67 591.196 256.35 591.196C256.99 591.196 257.398 591.692 257.398 592.548V595.164H258.222V592.7C258.222 591.868 258.718 591.196 259.406 591.196C260.054 591.196 260.454 591.692 260.454 592.516V595.164H261.278V592.38C261.278 591.22 260.574 590.476 259.598 590.476C258.822 590.476 258.246 590.86 257.974 591.436C257.75 590.852 257.23 590.476 256.55 590.476C255.782 590.476 255.374 590.9 255.166 591.236V590.588H254.342Z" fill="#858181"/>
<rect x="1096.25" y="416.25" width="279" height="72" rx="20.25" fill="#FFFFF6"/>
<path d="M1130.69 436.756V443.164H1131.53V438.436L1133.59 442.084H1134.2L1136.26 438.436V443.164H1137.1V436.756H1136.37L1133.89 441.108L1131.42 436.756H1130.69ZM1140.53 438.476C1139.17 438.476 1138.19 439.5 1138.19 440.876C1138.19 442.252 1139.17 443.276 1140.53 443.276C1141.88 443.276 1142.87 442.252 1142.87 440.876C1142.87 439.5 1141.88 438.476 1140.53 438.476ZM1140.53 439.204C1141.44 439.204 1142.06 439.924 1142.06 440.876C1142.06 441.828 1141.44 442.548 1140.53 442.548C1139.62 442.548 1139 441.828 1139 440.876C1139 439.924 1139.62 439.204 1140.53 439.204ZM1147.13 438.588L1145.63 442.228L1144.13 438.588H1143.24L1145.17 443.164H1146.04L1147.97 438.588H1147.13ZM1150.56 443.276C1151.61 443.276 1152.43 442.708 1152.68 441.916H1151.84C1151.67 442.292 1151.19 442.58 1150.56 442.58C1149.75 442.58 1149.18 441.996 1149.09 441.212H1152.83C1152.85 441.1 1152.85 440.98 1152.85 440.876C1152.85 439.5 1151.9 438.476 1150.56 438.476C1149.23 438.476 1148.27 439.5 1148.27 440.876C1148.27 442.252 1149.23 443.276 1150.56 443.276ZM1152.04 440.54H1149.09C1149.18 439.748 1149.74 439.172 1150.56 439.172C1151.39 439.172 1151.95 439.74 1152.04 440.54ZM1158.54 438.588H1157.52V437.196H1156.7V438.588H1155.68V439.316H1156.7V443.164H1157.52V439.316H1158.54V438.588ZM1161.34 438.476C1159.98 438.476 1159 439.5 1159 440.876C1159 442.252 1159.98 443.276 1161.34 443.276C1162.7 443.276 1163.68 442.252 1163.68 440.876C1163.68 439.5 1162.7 438.476 1161.34 438.476ZM1161.34 439.204C1162.25 439.204 1162.87 439.924 1162.87 440.876C1162.87 441.828 1162.25 442.548 1161.34 442.548C1160.43 442.548 1159.81 441.828 1159.81 440.876C1159.81 439.924 1160.43 439.204 1161.34 439.204Z" fill="black"/>
<path d="M1317.28 436.5C1313.93 436.5 1311.76 440.02 1313.26 443.012L1323.97 464.45C1325.63 467.767 1330.37 467.767 1332.02 464.45L1342.74 443.012C1344.24 440.02 1342.06 436.5 1338.72 436.5H1317.28Z" fill="black"/>
<rect x="1096.25" y="416.25" width="279" height="72" rx="20.25" stroke="black" stroke-width="4.5"/>
<rect x="97.249" y="371.25" width="1323" height="364.5" rx="42.75" stroke="#AEAEAE" stroke-width="4.5"/>
<path d="M140.971 877.132H142.207V878.104C142.519 877.6 143.131 876.964 144.283 876.964C145.303 876.964 146.083 877.528 146.419 878.404C146.827 877.54 147.691 876.964 148.855 876.964C150.319 876.964 151.375 878.08 151.375 879.82V883.996H150.139V880.024C150.139 878.788 149.539 878.044 148.567 878.044C147.535 878.044 146.791 879.052 146.791 880.3V883.996H145.555V880.072C145.555 878.788 144.943 878.044 143.983 878.044C142.963 878.044 142.207 879.052 142.207 880.288V883.996H140.971V877.132ZM156.291 876.964C158.319 876.964 159.795 878.5 159.795 880.564C159.795 882.628 158.319 884.164 156.291 884.164C154.251 884.164 152.775 882.628 152.775 880.564C152.775 878.5 154.251 876.964 156.291 876.964ZM156.291 878.056C154.923 878.056 153.987 879.136 153.987 880.564C153.987 881.992 154.923 883.072 156.291 883.072C157.647 883.072 158.583 881.992 158.583 880.564C158.583 879.136 157.647 878.056 156.291 878.056ZM166.181 877.132H167.453L164.549 883.996H163.241L160.349 877.132H161.693L163.937 882.592L166.181 877.132ZM169.321 873.964C169.801 873.964 170.149 874.312 170.149 874.78C170.149 875.248 169.801 875.596 169.321 875.596C168.853 875.596 168.505 875.248 168.505 874.78C168.505 874.312 168.853 873.964 169.321 873.964ZM169.945 884.008H168.709V877.132H169.945V884.008ZM174.969 884.164C172.965 884.164 171.525 882.628 171.525 880.564C171.525 878.5 172.965 876.964 174.969 876.964C176.973 876.964 178.401 878.5 178.401 880.564C178.401 880.72 178.401 880.9 178.377 881.068H172.761C172.893 882.244 173.745 883.12 174.969 883.12C175.905 883.12 176.637 882.688 176.889 882.124H178.149C177.777 883.312 176.541 884.164 174.969 884.164ZM177.189 880.06C177.045 878.86 176.205 878.008 174.969 878.008C173.733 878.008 172.893 878.872 172.761 880.06H177.189ZM183.871 878.848V879.928H179.671V878.848H183.871ZM186.75 883.996H185.514V874.084H186.75V883.996ZM189.302 873.964C189.782 873.964 190.13 874.312 190.13 874.78C190.13 875.248 189.782 875.596 189.302 875.596C188.834 875.596 188.486 875.248 188.486 874.78C188.486 874.312 188.834 873.964 189.302 873.964ZM189.926 884.008H188.69V877.132H189.926V884.008ZM194.565 876.964C196.245 876.964 197.505 877.792 197.565 878.956H196.353C196.305 878.38 195.525 877.972 194.529 877.972C193.533 877.972 192.813 878.368 192.813 878.884C192.813 879.448 193.245 879.796 194.925 880.024C196.989 880.3 197.721 880.972 197.721 882.04C197.721 883.372 196.317 884.164 194.613 884.164C192.777 884.164 191.601 883.276 191.517 882.076H192.729C192.801 882.616 193.425 883.156 194.649 883.156C195.705 883.156 196.509 882.724 196.509 882.112C196.509 881.548 195.981 881.224 194.337 881.008C192.465 880.756 191.601 880.156 191.601 878.956C191.601 877.744 192.885 876.964 194.565 876.964ZM202.813 877.132V878.224H201.289V883.996H200.053V878.224H198.529V877.132H200.053V875.044H201.289V877.132H202.813ZM207.988 878.848V879.928H203.788V878.848H207.988ZM216.027 881.668C215.655 883.156 214.395 884.164 212.799 884.164C210.759 884.164 209.271 882.628 209.271 880.564C209.271 878.5 210.747 876.964 212.775 876.964C214.395 876.964 215.667 878.008 216.003 879.436H214.743C214.467 878.62 213.747 878.056 212.775 878.056C211.407 878.056 210.483 879.136 210.483 880.564C210.483 881.992 211.407 883.072 212.775 883.072C213.747 883.072 214.491 882.496 214.767 881.668H216.027ZM217.541 877.132H218.777V878.188C219.077 877.672 219.905 876.964 221.249 876.964C221.669 876.964 221.945 877 222.185 877.084V878.26C221.921 878.14 221.585 878.068 221.165 878.068C219.761 878.068 218.777 879.196 218.777 880.444V883.996H217.541V877.132ZM226.085 884.164C224.141 884.164 222.689 882.616 222.689 880.564C222.689 878.512 224.141 876.964 226.085 876.964C227.333 876.964 228.173 877.564 228.521 878.152V877.132H229.757V883.996H228.521V882.976C228.173 883.564 227.333 884.164 226.085 884.164ZM226.193 883.072C227.585 883.072 228.545 881.992 228.545 880.564C228.545 879.136 227.585 878.056 226.193 878.056C224.813 878.056 223.901 879.136 223.901 880.564C223.901 881.992 224.813 883.072 226.193 883.072ZM240.781 877.132H242.005L239.581 883.996H238.333L236.521 878.74L234.721 883.996H233.473L231.049 877.132H232.333L234.133 882.46L235.921 877.132H237.169L238.969 882.496L240.781 877.132ZM244.535 883.996H243.299V874.084H244.535V883.996ZM247.087 873.964C247.567 873.964 247.915 874.312 247.915 874.78C247.915 875.248 247.567 875.596 247.087 875.596C246.619 875.596 246.271 875.248 246.271 874.78C246.271 874.312 246.619 873.964 247.087 873.964ZM247.711 884.008H246.475V877.132H247.711V884.008ZM249.651 877.132H250.887V878.176C251.175 877.672 251.955 876.964 253.215 876.964C254.835 876.964 255.975 878.128 255.975 879.976V883.996H254.739V880.192C254.739 878.8 254.067 878.044 252.951 878.044C251.751 878.044 250.887 879.172 250.887 880.444V883.996H249.651V877.132ZM261.085 887.08C259.117 887.08 258.073 885.94 257.833 884.644H259.093C259.237 885.376 259.849 886.012 261.085 886.012C262.333 886.012 263.197 885.172 263.197 883.828V882.88C262.849 883.468 262.009 884.068 260.761 884.068C258.817 884.068 257.365 882.544 257.365 880.528C257.365 878.5 258.817 876.964 260.761 876.964C262.009 876.964 262.849 877.564 263.197 878.152V877.132H264.433V883.84C264.433 885.736 263.053 887.08 261.085 887.08ZM260.869 883C262.261 883 263.221 881.932 263.221 880.528C263.221 879.124 262.261 878.056 260.869 878.056C259.489 878.056 258.577 879.124 258.577 880.528C258.577 881.932 259.489 883 260.869 883Z" fill="black"/>
<ellipse cx="432.499" cy="990" rx="22.5" ry="22.5" fill="#64B4FF"/>
<path d="M478.187 972.256V978.664H479.027V976.704H480.459C482.123 976.704 483.099 975.816 483.099 974.48C483.099 973.144 482.123 972.256 480.459 972.256H478.187ZM480.395 975.944H479.027V973.016H480.395C481.555 973.016 482.259 973.528 482.259 974.48C482.259 975.432 481.555 975.944 480.395 975.944ZM487.407 974.088L485.895 977.688L484.423 974.088H483.519L485.479 978.568L484.575 980.608H485.407L488.263 974.088H487.407ZM491.586 974.088H490.57V972.696H489.746V974.088H488.73V974.816H489.746V978.664H490.57V974.816H491.586V974.088ZM492.436 972.056V978.664H493.26V976.296C493.26 975.448 493.836 974.696 494.636 974.696C495.38 974.696 495.828 975.2 495.828 976.128V978.664H496.652V975.984C496.652 974.752 495.892 973.976 494.812 973.976C493.972 973.976 493.452 974.448 493.26 974.784V972.056H492.436ZM499.946 973.976C498.586 973.976 497.602 975 497.602 976.376C497.602 977.752 498.586 978.776 499.946 978.776C501.298 978.776 502.282 977.752 502.282 976.376C502.282 975 501.298 973.976 499.946 973.976ZM499.946 974.704C500.85 974.704 501.474 975.424 501.474 976.376C501.474 977.328 500.85 978.048 499.946 978.048C499.034 978.048 498.41 977.328 498.41 976.376C498.41 975.424 499.034 974.704 499.946 974.704ZM503.334 974.088V978.664H504.158V976.296C504.158 975.448 504.734 974.696 505.534 974.696C506.278 974.696 506.726 975.2 506.726 976.128V978.664H507.55V975.984C507.55 974.752 506.79 973.976 505.71 973.976C504.87 973.976 504.35 974.448 504.158 974.784V974.088H503.334Z" fill="black"/>
<path d="M914.599 1098.26V1101.9C914.599 1103.66 915.695 1104.82 917.399 1104.82C919.095 1104.82 920.191 1103.66 920.191 1101.9V1098.26H919.351V1101.9C919.351 1103.19 918.615 1104.05 917.399 1104.05C916.183 1104.05 915.439 1103.19 915.439 1101.9V1098.26H914.599ZM923.884 1104.78C925.18 1104.78 926.148 1103.74 926.148 1102.38C926.148 1101.01 925.18 1099.98 923.884 1099.98C923.052 1099.98 922.492 1100.38 922.26 1100.77V1100.09H921.436V1106.61H922.26V1103.98C922.492 1104.38 923.052 1104.78 923.884 1104.78ZM923.812 1104.05C922.884 1104.05 922.244 1103.33 922.244 1102.38C922.244 1101.42 922.884 1100.7 923.812 1100.7C924.732 1100.7 925.34 1101.42 925.34 1102.38C925.34 1103.33 924.732 1104.05 923.812 1104.05ZM929.225 1104.78C930.057 1104.78 930.617 1104.38 930.849 1103.98V1104.66H931.673V1098.06H930.849V1100.77C930.617 1100.38 930.057 1099.98 929.225 1099.98C927.929 1099.98 926.961 1101.01 926.961 1102.38C926.961 1103.74 927.929 1104.78 929.225 1104.78ZM929.297 1104.05C928.377 1104.05 927.769 1103.33 927.769 1102.38C927.769 1101.42 928.377 1100.7 929.297 1100.7C930.225 1100.7 930.865 1101.42 930.865 1102.38C930.865 1103.33 930.225 1104.05 929.297 1104.05ZM934.991 1104.78C935.823 1104.78 936.383 1104.38 936.615 1103.98V1104.66H937.439V1100.09H936.615V1100.77C936.383 1100.38 935.823 1099.98 934.991 1099.98C933.695 1099.98 932.727 1101.01 932.727 1102.38C932.727 1103.74 933.695 1104.78 934.991 1104.78ZM935.063 1104.05C934.143 1104.05 933.535 1103.33 933.535 1102.38C933.535 1101.42 934.143 1100.7 935.063 1100.7C935.991 1100.7 936.631 1101.42 936.631 1102.38C936.631 1103.33 935.991 1104.05 935.063 1104.05ZM941.133 1100.09H940.117V1098.7H939.293V1100.09H938.277V1100.82H939.293V1104.66H940.117V1100.82H941.133V1100.09ZM943.89 1104.78C944.938 1104.78 945.762 1104.21 946.01 1103.42H945.17C945.002 1103.79 944.514 1104.08 943.89 1104.08C943.074 1104.08 942.506 1103.5 942.418 1102.71H946.162C946.178 1102.6 946.178 1102.48 946.178 1102.38C946.178 1101 945.226 1099.98 943.89 1099.98C942.554 1099.98 941.594 1101 941.594 1102.38C941.594 1103.75 942.554 1104.78 943.89 1104.78ZM945.37 1102.04H942.418C942.506 1101.25 943.066 1100.67 943.89 1100.67C944.714 1100.67 945.274 1101.24 945.37 1102.04ZM949.249 1104.78C950.081 1104.78 950.641 1104.38 950.873 1103.98V1104.66H951.697V1098.06H950.873V1100.77C950.641 1100.38 950.081 1099.98 949.249 1099.98C947.953 1099.98 946.985 1101.01 946.985 1102.38C946.985 1103.74 947.953 1104.78 949.249 1104.78ZM949.321 1104.05C948.401 1104.05 947.793 1103.33 947.793 1102.38C947.793 1101.42 948.401 1100.7 949.321 1100.7C950.249 1100.7 950.889 1101.42 950.889 1102.38C950.889 1103.33 950.249 1104.05 949.321 1104.05ZM957.337 1099.98C955.977 1099.98 954.993 1101 954.993 1102.38C954.993 1103.75 955.977 1104.78 957.337 1104.78C958.689 1104.78 959.673 1103.75 959.673 1102.38C959.673 1101 958.689 1099.98 957.337 1099.98ZM957.337 1100.7C958.241 1100.7 958.865 1101.42 958.865 1102.38C958.865 1103.33 958.241 1104.05 957.337 1104.05C956.425 1104.05 955.801 1103.33 955.801 1102.38C955.801 1101.42 956.425 1100.7 957.337 1100.7ZM960.725 1100.09V1104.66H961.549V1102.3C961.549 1101.45 962.125 1100.7 962.925 1100.7C963.669 1100.7 964.117 1101.2 964.117 1102.13V1104.66H964.941V1101.98C964.941 1100.75 964.181 1099.98 963.101 1099.98C962.261 1099.98 961.741 1100.45 961.549 1100.78V1100.09H960.725ZM968.39 1098.26V1104.66H970.662C972.87 1104.66 974.15 1103.38 974.15 1101.46C974.15 1099.55 972.87 1098.26 970.662 1098.26H968.39ZM970.686 1103.9H969.23V1099.01H970.686C972.31 1099.01 973.302 1099.9 973.302 1101.46C973.302 1103.02 972.31 1103.9 970.686 1103.9ZM977.273 1104.78C978.321 1104.78 979.145 1104.21 979.393 1103.42H978.553C978.385 1103.79 977.897 1104.08 977.273 1104.08C976.457 1104.08 975.889 1103.5 975.801 1102.71H979.545C979.561 1102.6 979.561 1102.48 979.561 1102.38C979.561 1101 978.609 1099.98 977.273 1099.98C975.937 1099.98 974.977 1101 974.977 1102.38C974.977 1103.75 975.937 1104.78 977.273 1104.78ZM978.753 1102.04H975.801C975.889 1101.25 976.449 1100.67 977.273 1100.67C978.097 1100.67 978.657 1101.24 978.753 1102.04ZM984.872 1103.11H984.032C983.848 1103.66 983.352 1104.05 982.704 1104.05C981.792 1104.05 981.176 1103.33 981.176 1102.38C981.176 1101.42 981.792 1100.7 982.704 1100.7C983.352 1100.7 983.832 1101.08 984.016 1101.62H984.856C984.632 1100.67 983.784 1099.98 982.704 1099.98C981.352 1099.98 980.368 1101 980.368 1102.38C980.368 1103.75 981.36 1104.78 982.72 1104.78C983.784 1104.78 984.624 1104.1 984.872 1103.11ZM987.867 1104.66H992.323V1103.94H989.075L990.755 1102.29C991.715 1101.3 992.107 1100.72 992.107 1100.03C992.107 1098.88 991.259 1098.1 989.971 1098.1C988.635 1098.1 987.795 1099.06 987.795 1100.22H988.635C988.635 1099.5 989.099 1098.85 989.963 1098.85C990.763 1098.85 991.275 1099.29 991.275 1100.04C991.275 1100.5 990.955 1101.02 990.139 1101.84L987.867 1104.12V1104.66ZM995.909 1102.3L994.293 1104.66H995.253L996.989 1102.06C997.381 1101.47 997.613 1100.95 997.613 1100.3C997.613 1098.96 996.581 1098.1 995.285 1098.1C993.997 1098.1 992.965 1098.96 992.965 1100.3C992.965 1101.6 993.973 1102.46 995.221 1102.46C995.501 1102.46 995.757 1102.38 995.909 1102.3ZM995.285 1098.83C996.213 1098.83 996.789 1099.47 996.789 1100.29C996.789 1101.1 996.213 1101.75 995.285 1101.75C994.365 1101.75 993.789 1101.11 993.789 1100.29C993.789 1099.47 994.365 1098.83 995.285 1098.83ZM998.659 1103.66H997.859L997.603 1105.47H998.259L998.659 1103.66ZM1001.73 1104.66H1006.19V1103.94H1002.94L1004.62 1102.29C1005.58 1101.3 1005.97 1100.72 1005.97 1100.03C1005.97 1098.88 1005.13 1098.1 1003.84 1098.1C1002.5 1098.1 1001.66 1099.06 1001.66 1100.22H1002.5C1002.5 1099.5 1002.97 1098.85 1003.83 1098.85C1004.63 1098.85 1005.14 1099.29 1005.14 1100.04C1005.14 1100.5 1004.82 1101.02 1004.01 1101.84L1001.73 1104.12V1104.66ZM1009.37 1104.81C1010.71 1104.81 1011.73 1103.7 1011.73 1101.46C1011.73 1099.22 1010.71 1098.1 1009.37 1098.1C1008.02 1098.1 1007 1099.22 1007 1101.46C1007 1103.7 1008.02 1104.81 1009.37 1104.81ZM1009.37 1104.06C1008.5 1104.06 1007.81 1103.2 1007.81 1101.46C1007.81 1099.72 1008.5 1098.85 1009.37 1098.85C1010.23 1098.85 1010.92 1099.72 1010.92 1101.46C1010.92 1103.2 1010.23 1104.06 1009.37 1104.06ZM1012.53 1104.66H1016.99V1103.94H1013.74L1015.42 1102.29C1016.38 1101.3 1016.77 1100.72 1016.77 1100.03C1016.77 1098.88 1015.92 1098.1 1014.64 1098.1C1013.3 1098.1 1012.46 1099.06 1012.46 1100.22H1013.3C1013.3 1099.5 1013.76 1098.85 1014.63 1098.85C1015.43 1098.85 1015.94 1099.29 1015.94 1100.04C1015.94 1100.5 1015.62 1101.02 1014.8 1101.84L1012.53 1104.12V1104.66ZM1019.08 1104.66H1019.92V1098.26H1017.75V1098.99H1019.08V1104.66Z" fill="black"/>
<rect x="1096.25" y="965.25" width="279" height="378" rx="20.25" fill="#FFFFF6"/>
<path d="M1341.5 994.5C1329.08 994.5 1319 1004.58 1319 1017C1319 1029.42 1329.08 1039.5 1341.5 1039.5C1353.92 1039.5 1364 1029.42 1364 1017C1364 1004.58 1353.92 994.5 1341.5 994.5ZM1341.5 1035C1331.55 1035 1323.5 1026.94 1323.5 1017C1323.5 1007.06 1331.55 999 1341.5 999C1351.44 999 1359.5 1007.06 1359.5 1017C1359.5 1026.94 1351.44 1035 1341.5 1035Z" fill="black"/>
<path d="M1134.15 1016.26V1022.66H1134.99V1019.94H1138.28V1019.18L1134.99 1019.19V1017.01H1138.63V1016.26H1134.15ZM1139.52 1016.26V1022.66H1144.15V1021.92H1140.36V1019.76H1143.79V1019.02H1140.36V1017H1144.07V1016.26H1139.52Z" fill="black"/>
<ellipse cx="1199.75" cy="1019.25" rx="15.75" ry="15.75" fill="#4134D9"/>
<path d="M1113.49 1149.76V1149.19H1109.41V1149.76H1111.14V1154H1111.77V1149.76H1113.49ZM1114.79 1154.08C1115.57 1154.08 1116.19 1153.66 1116.38 1153.06H1115.75C1115.62 1153.34 1115.26 1153.56 1114.79 1153.56C1114.18 1153.56 1113.75 1153.12 1113.68 1152.53H1116.49C1116.5 1152.45 1116.5 1152.36 1116.5 1152.28C1116.5 1151.25 1115.79 1150.48 1114.79 1150.48C1113.79 1150.48 1113.07 1151.25 1113.07 1152.28C1113.07 1153.31 1113.79 1154.08 1114.79 1154.08ZM1115.9 1152.03H1113.68C1113.75 1151.44 1114.17 1151 1114.79 1151C1115.41 1151 1115.83 1151.43 1115.9 1152.03ZM1118.81 1154.08C1119.43 1154.08 1119.85 1153.78 1120.03 1153.49V1154H1120.64V1150.57H1120.03V1151.08C1119.85 1150.78 1119.43 1150.48 1118.81 1150.48C1117.84 1150.48 1117.11 1151.26 1117.11 1152.28C1117.11 1153.31 1117.84 1154.08 1118.81 1154.08ZM1118.86 1153.54C1118.17 1153.54 1117.72 1153 1117.72 1152.28C1117.72 1151.57 1118.17 1151.03 1118.86 1151.03C1119.56 1151.03 1120.04 1151.57 1120.04 1152.28C1120.04 1153 1119.56 1153.54 1118.86 1153.54ZM1121.61 1150.57V1154H1122.23V1152.14C1122.23 1151.53 1122.61 1151.02 1123.12 1151.02C1123.6 1151.02 1123.91 1151.39 1123.91 1152.04V1154H1124.52V1152.15C1124.52 1151.53 1124.9 1151.02 1125.41 1151.02C1125.9 1151.02 1126.2 1151.39 1126.2 1152.01V1154H1126.82V1151.91C1126.82 1151.04 1126.29 1150.48 1125.56 1150.48C1124.97 1150.48 1124.54 1150.77 1124.34 1151.2C1124.17 1150.76 1123.78 1150.48 1123.27 1150.48C1122.69 1150.48 1122.39 1150.8 1122.23 1151.05V1150.57H1121.61ZM1129.41 1149.19V1154H1130.04V1152.53H1131.11C1132.36 1152.53 1133.09 1151.86 1133.09 1150.86C1133.09 1149.86 1132.36 1149.19 1131.11 1149.19H1129.41ZM1131.06 1151.96H1130.04V1149.76H1131.06C1131.93 1149.76 1132.46 1150.15 1132.46 1150.86C1132.46 1151.57 1131.93 1151.96 1131.06 1151.96ZM1133.76 1150.57V1154H1134.38V1152.22C1134.38 1151.6 1134.87 1151.03 1135.57 1151.03C1135.78 1151.03 1135.95 1151.07 1136.08 1151.13V1150.54C1135.96 1150.5 1135.82 1150.48 1135.61 1150.48C1134.94 1150.48 1134.53 1150.84 1134.38 1151.09V1150.57H1133.76ZM1136.69 1154.08C1136.93 1154.08 1137.11 1153.89 1137.11 1153.65C1137.11 1153.41 1136.93 1153.22 1136.69 1153.22C1136.45 1153.22 1136.26 1153.41 1136.26 1153.65C1136.26 1153.89 1136.45 1154.08 1136.69 1154.08ZM1138.23 1154.08C1138.47 1154.08 1138.65 1153.89 1138.65 1153.65C1138.65 1153.41 1138.47 1153.22 1138.23 1153.22C1137.99 1153.22 1137.81 1153.41 1137.81 1153.65C1137.81 1153.89 1137.99 1154.08 1138.23 1154.08ZM1139.77 1154.08C1140.01 1154.08 1140.19 1153.89 1140.19 1153.65C1140.19 1153.41 1140.01 1153.22 1139.77 1153.22C1139.53 1153.22 1139.35 1153.41 1139.35 1153.65C1139.35 1153.89 1139.53 1154.08 1139.77 1154.08Z" fill="black"/>
<path d="M1341.5 1129.5C1329.08 1129.5 1319 1139.58 1319 1152C1319 1164.42 1329.08 1174.5 1341.5 1174.5C1353.92 1174.5 1364 1164.42 1364 1152C1364 1139.58 1353.92 1129.5 1341.5 1129.5ZM1341.5 1170C1331.55 1170 1323.5 1161.94 1323.5 1152C1323.5 1142.06 1331.55 1134 1341.5 1134C1351.44 1134 1359.5 1142.06 1359.5 1152C1359.5 1161.94 1351.44 1170 1341.5 1170Z" fill="black"/>
<path d="M1341.5 1062C1329.08 1062 1319 1072.08 1319 1084.5C1319 1096.92 1329.08 1107 1341.5 1107C1353.92 1107 1364 1096.92 1364 1084.5C1364 1072.08 1353.92 1062 1341.5 1062ZM1341.5 1102.5C1331.55 1102.5 1323.5 1094.44 1323.5 1084.5C1323.5 1074.56 1331.55 1066.5 1341.5 1066.5C1351.44 1066.5 1359.5 1074.56 1359.5 1084.5C1359.5 1094.44 1351.44 1102.5 1341.5 1102.5Z" fill="black"/>
<path d="M1133.73 1083.76V1090.16H1136.58C1138.02 1090.16 1138.86 1089.46 1138.86 1088.36C1138.86 1087.56 1138.29 1087 1137.57 1086.85C1138.14 1086.72 1138.56 1086.13 1138.56 1085.53C1138.56 1084.44 1137.76 1083.76 1136.34 1083.76H1133.73ZM1136.32 1086.58H1134.57V1084.48H1136.32C1137.21 1084.48 1137.71 1084.85 1137.71 1085.53C1137.71 1086.21 1137.21 1086.58 1136.32 1086.58ZM1136.56 1089.44H1134.57V1087.28H1136.56C1137.45 1087.28 1138.01 1087.65 1138.01 1088.36C1138.01 1089.06 1137.45 1089.44 1136.56 1089.44ZM1139.94 1083.76V1090.16H1144.57V1089.42H1140.78V1087.26H1144.22V1086.52H1140.78V1084.5H1144.5V1083.76H1139.94Z" fill="black"/>
<ellipse cx="1199.75" cy="1086.75" rx="15.75" ry="15.75" fill="#FF4C00"/>
<ellipse cx="1285.25" cy="1149.75" rx="15.75" ry="15.75" fill="#00FF19"/>
<path d="M1158.23 1222.83H1159.02V1216H1158.23V1222.83ZM1153.04 1222.42H1156.91V1216.25H1153.04V1222.42ZM1153.83 1221.68V1216.99H1156.12V1221.68H1153.83ZM1166.67 1216.04H1165.89V1216.86H1161.61V1216.04H1160.83V1218.95H1166.67V1216.04ZM1161.61 1218.32V1217.47H1165.89V1218.32H1161.61ZM1160.34 1219.62V1220.3H1163.35V1221.36H1164.15V1220.3H1167.17V1219.62H1160.34ZM1161.62 1220.91H1160.81V1222.75H1166.81V1222.08H1161.62V1220.91ZM1174.49 1219.15H1169.3V1218.35H1174.39V1216.2H1168.52V1216.88H1173.61V1217.68H1168.52V1219.83H1174.49V1219.15ZM1174.86 1220.63H1168.04V1221.34H1169.72V1222.99H1170.5V1221.34H1172.39V1222.99H1173.17V1221.34H1174.86V1220.63Z" fill="black"/>
<path d="M1341.5 1208.25C1335.29 1208.25 1330.25 1213.29 1330.25 1219.5C1330.25 1225.71 1335.29 1230.75 1341.5 1230.75C1347.71 1230.75 1352.75 1225.71 1352.75 1219.5C1352.75 1213.29 1347.71 1208.25 1341.5 1208.25ZM1341.5 1197C1329.08 1197 1319 1207.08 1319 1219.5C1319 1231.92 1329.08 1242 1341.5 1242C1353.92 1242 1364 1231.92 1364 1219.5C1364 1207.08 1353.92 1197 1341.5 1197ZM1341.5 1237.5C1331.55 1237.5 1323.5 1229.45 1323.5 1219.5C1323.5 1209.55 1331.55 1201.5 1341.5 1201.5C1351.44 1201.5 1359.5 1209.55 1359.5 1219.5C1359.5 1229.45 1351.44 1237.5 1341.5 1237.5Z" fill="black"/>
<rect x="1107.5" y="1269" width="256.5" height="63" rx="18" fill="#4BCA80"/>
<ellipse cx="1188.5" cy="1300.5" rx="18" ry="18" fill="white"/>
<path d="M1184.5 1306.73L1178.35 1300.59L1176.26 1302.66L1184.5 1310.9L1202.18 1293.22L1200.1 1291.14L1184.5 1306.73Z" fill="#4BCA80"/>
<path d="M1258.17 1297.69H1256.5V1297.08H1255.79V1297.69H1254.17V1298.21H1258.17V1297.69ZM1260.4 1298.85H1259.58V1297.25H1258.88V1301.35H1259.58V1299.49H1260.4V1298.85ZM1258.39 1300.99V1300.46C1258.01 1300.62 1257.29 1300.69 1256.5 1300.69V1300.27C1257.36 1300.2 1257.88 1299.87 1257.88 1299.38C1257.88 1298.82 1257.23 1298.47 1256.16 1298.47C1255.09 1298.47 1254.44 1298.82 1254.44 1299.38C1254.44 1299.87 1254.95 1300.2 1255.81 1300.27V1300.69H1254.15V1301.23H1256.4C1257.24 1301.23 1258.01 1301.16 1258.39 1300.99ZM1255.09 1299.38C1255.09 1299.15 1255.45 1298.98 1256.16 1298.98C1256.87 1298.98 1257.22 1299.15 1257.22 1299.38C1257.22 1299.62 1256.87 1299.79 1256.16 1299.79C1255.45 1299.79 1255.09 1299.62 1255.09 1299.38ZM1254.54 1302.21H1258.88V1303.23H1259.58V1301.67H1254.54V1302.21ZM1265.77 1301.69H1266.46V1297.25H1265.77V1301.69ZM1262.84 1300.78C1264.01 1300.78 1264.73 1300.05 1264.73 1299.05C1264.73 1298.05 1264.01 1297.31 1262.84 1297.31C1261.67 1297.31 1260.94 1298.05 1260.94 1299.05C1260.94 1300.05 1261.67 1300.78 1262.84 1300.78ZM1262.84 1300.2C1262.12 1300.2 1261.63 1299.76 1261.63 1299.05C1261.63 1298.34 1262.12 1297.89 1262.84 1297.89C1263.54 1297.89 1264.03 1298.34 1264.03 1299.05C1264.03 1299.76 1263.54 1300.2 1262.84 1300.2ZM1261.46 1303.15H1266.62V1302.52H1262.17V1301.2H1261.46V1303.15Z" fill="white"/>
<rect x="1096.25" y="965.25" width="279" height="378" rx="20.25" stroke="black" stroke-width="4.5"/>
<rect x="139.999" y="963" width="225" height="54" rx="22.5" fill="#0596FF"/>
<path d="M242.262 986.885V992.492H242.997V990.777H244.25C245.706 990.777 246.56 990 246.56 988.831C246.56 987.662 245.706 986.885 244.25 986.885H242.262ZM244.194 990.112H242.997V987.55H244.194C245.209 987.55 245.825 987.998 245.825 988.831C245.825 989.664 245.209 990.112 244.194 990.112ZM250.938 992.492V988.488H250.217V990.56C250.217 991.302 249.713 991.96 249.013 991.96C248.362 991.96 247.97 991.519 247.97 990.707V988.488H247.249V990.833C247.249 991.911 247.914 992.59 248.859 992.59C249.594 992.59 250.049 992.177 250.217 991.883V992.492H250.938ZM254.213 992.59C255.347 992.59 256.194 991.687 256.194 990.49C256.194 989.293 255.347 988.39 254.213 988.39C253.485 988.39 252.995 988.74 252.792 989.083V986.71H252.071V992.492H252.792V991.897C252.995 992.24 253.485 992.59 254.213 992.59ZM254.15 991.953C253.338 991.953 252.778 991.323 252.778 990.49C252.778 989.657 253.338 989.027 254.15 989.027C254.955 989.027 255.487 989.657 255.487 990.49C255.487 991.323 254.955 991.953 254.15 991.953ZM257.836 992.492V986.71H257.115V992.492H257.836ZM259.325 986.64C259.052 986.64 258.849 986.843 258.849 987.116C258.849 987.389 259.052 987.592 259.325 987.592C259.605 987.592 259.808 987.389 259.808 987.116C259.808 986.843 259.605 986.64 259.325 986.64ZM259.689 992.499V988.488H258.968V992.499H259.689ZM264.552 991.134H263.817C263.656 991.617 263.222 991.953 262.655 991.953C261.857 991.953 261.318 991.323 261.318 990.49C261.318 989.657 261.857 989.027 262.655 989.027C263.222 989.027 263.642 989.356 263.803 989.832H264.538C264.342 988.999 263.6 988.39 262.655 988.39C261.472 988.39 260.611 989.286 260.611 990.49C260.611 991.694 261.479 992.59 262.669 992.59C263.6 992.59 264.335 992.002 264.552 991.134Z" fill="white"/>
<rect x="1096.25" y="875.25" width="279" height="72" rx="20.25" fill="#FFFFF6"/>
<path d="M1130.69 895.756V902.164H1131.53V897.436L1133.59 901.084H1134.2L1136.26 897.436V902.164H1137.1V895.756H1136.37L1133.89 900.108L1131.42 895.756H1130.69ZM1140.53 897.476C1139.17 897.476 1138.19 898.5 1138.19 899.876C1138.19 901.252 1139.17 902.276 1140.53 902.276C1141.88 902.276 1142.87 901.252 1142.87 899.876C1142.87 898.5 1141.88 897.476 1140.53 897.476ZM1140.53 898.204C1141.44 898.204 1142.06 898.924 1142.06 899.876C1142.06 900.828 1141.44 901.548 1140.53 901.548C1139.62 901.548 1139 900.828 1139 899.876C1139 898.924 1139.62 898.204 1140.53 898.204ZM1147.13 897.588L1145.63 901.228L1144.13 897.588H1143.24L1145.17 902.164H1146.04L1147.97 897.588H1147.13ZM1150.56 902.276C1151.61 902.276 1152.43 901.708 1152.68 900.916H1151.84C1151.67 901.292 1151.19 901.58 1150.56 901.58C1149.75 901.58 1149.18 900.996 1149.09 900.212H1152.83C1152.85 900.1 1152.85 899.98 1152.85 899.876C1152.85 898.5 1151.9 897.476 1150.56 897.476C1149.23 897.476 1148.27 898.5 1148.27 899.876C1148.27 901.252 1149.23 902.276 1150.56 902.276ZM1152.04 899.54H1149.09C1149.18 898.748 1149.74 898.172 1150.56 898.172C1151.39 898.172 1151.95 898.74 1152.04 899.54ZM1158.54 897.588H1157.52V896.196H1156.7V897.588H1155.68V898.316H1156.7V902.164H1157.52V898.316H1158.54V897.588ZM1161.34 897.476C1159.98 897.476 1159 898.5 1159 899.876C1159 901.252 1159.98 902.276 1161.34 902.276C1162.7 902.276 1163.68 901.252 1163.68 899.876C1163.68 898.5 1162.7 897.476 1161.34 897.476ZM1161.34 898.204C1162.25 898.204 1162.87 898.924 1162.87 899.876C1162.87 900.828 1162.25 901.548 1161.34 901.548C1160.43 901.548 1159.81 900.828 1159.81 899.876C1159.81 898.924 1160.43 898.204 1161.34 898.204Z" fill="black"/>
<path d="M1317.28 895.5C1313.93 895.5 1311.76 899.02 1313.26 902.012L1323.97 923.45C1325.63 926.767 1330.37 926.767 1332.02 923.45L1342.74 902.012C1344.24 899.02 1342.06 895.5 1338.72 895.5H1317.28Z" fill="black"/>
<rect x="1096.25" y="875.25" width="279" height="72" rx="20.25" stroke="black" stroke-width="4.5"/>
<rect x="97.249" y="830.25" width="1323" height="364.5" rx="42.75" stroke="#AEAEAE" stroke-width="4.5"/>
<path d="M509.071 2299.13H507.547V2297.04H506.311V2299.13H504.787V2300.22H506.311V2306H507.547V2300.22H509.071V2299.13ZM513.279 2298.96C511.239 2298.96 509.763 2300.5 509.763 2302.56C509.763 2304.63 511.239 2306.16 513.279 2306.16C515.307 2306.16 516.783 2304.63 516.783 2302.56C516.783 2300.5 515.307 2298.96 513.279 2298.96ZM513.279 2300.06C514.635 2300.06 515.571 2301.14 515.571 2302.56C515.571 2303.99 514.635 2305.07 513.279 2305.07C511.911 2305.07 510.975 2303.99 510.975 2302.56C510.975 2301.14 511.911 2300.06 513.279 2300.06ZM521.739 2299.13H520.215V2297.04H518.979V2299.13H517.455V2300.22H518.979V2306H520.215V2300.22H521.739V2299.13ZM525.827 2306.16C527.075 2306.16 527.915 2305.56 528.263 2304.98V2306H529.499V2299.13H528.263V2300.15C527.915 2299.56 527.075 2298.96 525.827 2298.96C523.883 2298.96 522.431 2300.51 522.431 2302.56C522.431 2304.62 523.883 2306.16 525.827 2306.16ZM525.935 2305.07C524.555 2305.07 523.643 2303.99 523.643 2302.56C523.643 2301.14 524.555 2300.06 525.935 2300.06C527.327 2300.06 528.287 2301.14 528.287 2302.56C528.287 2303.99 527.327 2305.07 525.935 2305.07ZM532.676 2306V2296.08H531.44V2306H532.676ZM540.931 2306.21C542.947 2306.21 544.315 2304.99 544.315 2303.38C544.315 2302.05 543.319 2301.29 542.347 2301.11C543.235 2300.9 544.063 2300.08 544.063 2298.9C544.063 2297.39 542.779 2296.16 540.799 2296.16C538.831 2296.16 537.535 2297.48 537.535 2299.17H538.795C538.795 2298.15 539.503 2297.24 540.799 2297.24C542.071 2297.24 542.815 2298 542.815 2298.94C542.815 2299.94 541.987 2300.63 540.763 2300.63H539.707V2301.68H540.763C542.215 2301.68 543.079 2302.31 543.079 2303.39C543.079 2304.35 542.275 2305.12 540.931 2305.12C539.575 2305.12 538.807 2304.32 538.771 2303.28H537.523C537.595 2304.96 538.867 2306.21 540.931 2306.21ZM548.853 2306.21C550.857 2306.21 552.249 2305.08 552.249 2303.48C552.249 2302.02 551.109 2301.22 550.233 2301.02C550.977 2300.79 551.913 2300.01 551.913 2298.78C551.913 2297.36 550.677 2296.16 548.853 2296.16C547.017 2296.16 545.781 2297.34 545.781 2298.78C545.781 2300.01 546.717 2300.79 547.461 2301.02C546.597 2301.22 545.445 2302.02 545.445 2303.48C545.445 2305.08 546.837 2306.21 548.853 2306.21ZM548.853 2300.45C547.761 2300.45 546.993 2299.72 546.993 2298.8C546.993 2297.91 547.725 2297.21 548.853 2297.21C549.981 2297.21 550.713 2297.93 550.713 2298.82C550.713 2299.73 549.945 2300.45 548.853 2300.45ZM548.853 2305.16C547.521 2305.16 546.669 2304.4 546.669 2303.4C546.669 2302.4 547.593 2301.62 548.853 2301.62C550.101 2301.62 551.025 2302.4 551.025 2303.4C551.025 2304.4 550.173 2305.16 548.853 2305.16ZM557.127 2299.13V2306H558.363V2302.44C558.363 2301.2 559.347 2300.07 560.751 2300.07C561.171 2300.07 561.507 2300.14 561.771 2300.26V2299.08C561.531 2299 561.255 2298.96 560.835 2298.96C559.491 2298.96 558.663 2299.67 558.363 2300.19V2299.13H557.127ZM565.719 2306.16C567.291 2306.16 568.527 2305.31 568.899 2304.12H567.639C567.387 2304.69 566.655 2305.12 565.719 2305.12C564.495 2305.12 563.643 2304.24 563.511 2303.07H569.127C569.151 2302.9 569.151 2302.72 569.151 2302.56C569.151 2300.5 567.723 2298.96 565.719 2298.96C563.715 2298.96 562.275 2300.5 562.275 2302.56C562.275 2304.63 563.715 2306.16 565.719 2306.16ZM567.939 2302.06H563.511C563.643 2300.87 564.483 2300.01 565.719 2300.01C566.955 2300.01 567.795 2300.86 567.939 2302.06ZM574.393 2306.16C576.337 2306.16 577.789 2304.62 577.789 2302.56C577.789 2300.51 576.337 2298.96 574.393 2298.96C573.145 2298.96 572.305 2299.56 571.957 2300.15V2299.13H570.721V2308.91H571.957V2304.98C572.305 2305.56 573.145 2306.16 574.393 2306.16ZM574.285 2305.07C572.893 2305.07 571.933 2303.99 571.933 2302.56C571.933 2301.14 572.893 2300.06 574.285 2300.06C575.665 2300.06 576.577 2301.14 576.577 2302.56C576.577 2303.99 575.665 2305.07 574.285 2305.07ZM582.525 2298.96C580.485 2298.96 579.009 2300.5 579.009 2302.56C579.009 2304.63 580.485 2306.16 582.525 2306.16C584.553 2306.16 586.029 2304.63 586.029 2302.56C586.029 2300.5 584.553 2298.96 582.525 2298.96ZM582.525 2300.06C583.881 2300.06 584.817 2301.14 584.817 2302.56C584.817 2303.99 583.881 2305.07 582.525 2305.07C581.157 2305.07 580.221 2303.99 580.221 2302.56C580.221 2301.14 581.157 2300.06 582.525 2300.06ZM590.308 2298.96C588.628 2298.96 587.344 2299.74 587.344 2300.96C587.344 2302.16 588.208 2302.76 590.08 2303.01C591.724 2303.22 592.252 2303.55 592.252 2304.11C592.252 2304.72 591.448 2305.16 590.392 2305.16C589.168 2305.16 588.544 2304.62 588.472 2304.08H587.26C587.344 2305.28 588.52 2306.16 590.356 2306.16C592.06 2306.16 593.464 2305.37 593.464 2304.04C593.464 2302.97 592.732 2302.3 590.668 2302.02C588.988 2301.8 588.556 2301.45 588.556 2300.88C588.556 2300.37 589.276 2299.97 590.272 2299.97C591.268 2299.97 592.048 2300.38 592.096 2300.96H593.308C593.248 2299.79 591.988 2298.96 590.308 2298.96ZM595.638 2295.96C595.17 2295.96 594.822 2296.31 594.822 2296.78C594.822 2297.25 595.17 2297.6 595.638 2297.6C596.118 2297.6 596.466 2297.25 596.466 2296.78C596.466 2296.31 596.118 2295.96 595.638 2295.96ZM596.262 2306.01V2299.13H595.026V2306.01H596.262ZM601.801 2299.13H600.277V2297.04H599.041V2299.13H597.517V2300.22H599.041V2306H600.277V2300.22H601.801V2299.13ZM606.01 2298.96C603.97 2298.96 602.494 2300.5 602.494 2302.56C602.494 2304.63 603.97 2306.16 606.01 2306.16C608.038 2306.16 609.514 2304.63 609.514 2302.56C609.514 2300.5 608.038 2298.96 606.01 2298.96ZM606.01 2300.06C607.366 2300.06 608.302 2301.14 608.302 2302.56C608.302 2303.99 607.366 2305.07 606.01 2305.07C604.642 2305.07 603.706 2303.99 603.706 2302.56C603.706 2301.14 604.642 2300.06 606.01 2300.06ZM611.092 2299.13V2306H612.328V2302.44C612.328 2301.2 613.312 2300.07 614.716 2300.07C615.136 2300.07 615.472 2300.14 615.736 2300.26V2299.08C615.496 2299 615.22 2298.96 614.8 2298.96C613.456 2298.96 612.628 2299.67 612.328 2300.19V2299.13H611.092ZM622.204 2299.13L619.936 2304.53L617.728 2299.13H616.372L619.312 2305.85L617.956 2308.91H619.204L623.488 2299.13H622.204Z" fill="black"/>
<path d="M563.143 2373.66C565.087 2373.66 566.539 2372.12 566.539 2370.06C566.539 2368.01 565.087 2366.46 563.143 2366.46C561.895 2366.46 561.055 2367.06 560.707 2367.65V2366.63H559.471V2376.41H560.707V2372.48C561.055 2373.06 561.895 2373.66 563.143 2373.66ZM563.035 2372.57C561.643 2372.57 560.683 2371.49 560.683 2370.06C560.683 2368.64 561.643 2367.56 563.035 2367.56C564.415 2367.56 565.327 2368.64 565.327 2370.06C565.327 2371.49 564.415 2372.57 563.035 2372.57ZM571.275 2366.46C569.235 2366.46 567.759 2368 567.759 2370.06C567.759 2372.13 569.235 2373.66 571.275 2373.66C573.303 2373.66 574.779 2372.13 574.779 2370.06C574.779 2368 573.303 2366.46 571.275 2366.46ZM571.275 2367.56C572.631 2367.56 573.567 2368.64 573.567 2370.06C573.567 2371.49 572.631 2372.57 571.275 2372.57C569.907 2372.57 568.971 2371.49 568.971 2370.06C568.971 2368.64 569.907 2367.56 571.275 2367.56ZM585.125 2366.63L583.313 2372L581.513 2366.63H580.265L578.477 2371.96L576.677 2366.63H575.393L577.817 2373.5H579.065L580.865 2368.24L582.677 2373.5H583.925L586.349 2366.63H585.125ZM590.293 2373.66C591.865 2373.66 593.101 2372.81 593.473 2371.62H592.213C591.961 2372.19 591.229 2372.62 590.293 2372.62C589.069 2372.62 588.217 2371.74 588.085 2370.57H593.701C593.725 2370.4 593.725 2370.22 593.725 2370.06C593.725 2368 592.297 2366.46 590.293 2366.46C588.289 2366.46 586.849 2368 586.849 2370.06C586.849 2372.13 588.289 2373.66 590.293 2373.66ZM592.513 2369.56H588.085C588.217 2368.37 589.057 2367.51 590.293 2367.51C591.529 2367.51 592.369 2368.36 592.513 2369.56ZM595.295 2366.63V2373.5H596.531V2369.94C596.531 2368.7 597.515 2367.57 598.919 2367.57C599.339 2367.57 599.675 2367.64 599.939 2367.76V2366.58C599.699 2366.5 599.423 2366.46 599.003 2366.46C597.659 2366.46 596.831 2367.17 596.531 2367.69V2366.63H595.295ZM603.887 2373.66C605.459 2373.66 606.695 2372.81 607.067 2371.62H605.807C605.555 2372.19 604.823 2372.62 603.887 2372.62C602.663 2372.62 601.811 2371.74 601.679 2370.57H607.295C607.319 2370.4 607.319 2370.22 607.319 2370.06C607.319 2368 605.891 2366.46 603.887 2366.46C601.883 2366.46 600.443 2368 600.443 2370.06C600.443 2372.13 601.883 2373.66 603.887 2373.66ZM606.107 2369.56H601.679C601.811 2368.37 602.651 2367.51 603.887 2367.51C605.123 2367.51 605.963 2368.36 606.107 2369.56ZM611.925 2373.66C613.173 2373.66 614.013 2373.06 614.361 2372.48V2373.5H615.597V2363.58H614.361V2367.65C614.013 2367.06 613.173 2366.46 611.925 2366.46C609.981 2366.46 608.529 2368.01 608.529 2370.06C608.529 2372.12 609.981 2373.66 611.925 2373.66ZM612.033 2372.57C610.653 2372.57 609.741 2371.49 609.741 2370.06C609.741 2368.64 610.653 2367.56 612.033 2367.56C613.425 2367.56 614.385 2368.64 614.385 2370.06C614.385 2371.49 613.425 2372.57 612.033 2372.57ZM624.573 2373.66C626.517 2373.66 627.969 2372.12 627.969 2370.06C627.969 2368.01 626.517 2366.46 624.573 2366.46C623.325 2366.46 622.485 2367.06 622.137 2367.65V2363.58H620.901V2373.5H622.137V2372.48C622.485 2373.06 623.325 2373.66 624.573 2373.66ZM624.465 2372.57C623.073 2372.57 622.113 2371.49 622.113 2370.06C622.113 2368.64 623.073 2367.56 624.465 2367.56C625.845 2367.56 626.757 2368.64 626.757 2370.06C626.757 2371.49 625.845 2372.57 624.465 2372.57ZM634.298 2366.63L632.03 2372.03L629.822 2366.63H628.466L631.406 2373.35L630.05 2376.41H631.298L635.582 2366.63H634.298ZM646.79 2364.44H643.91V2363.32H642.71V2364.44H639.83V2365.38H646.79V2364.44ZM650.582 2365.97V2364.95H649.142V2363.5H647.954V2370.69H649.142V2368.53H650.582V2367.51H649.142V2365.97H650.582ZM643.31 2369.91C643.862 2369.91 644.378 2369.82 644.858 2369.67C645.77 2369.34 646.334 2368.73 646.334 2367.92C646.334 2367.52 646.202 2367.16 645.938 2366.86C645.41 2366.27 644.462 2365.94 643.31 2365.94C642.758 2365.94 642.242 2366.02 641.762 2366.18C640.838 2366.5 640.274 2367.1 640.274 2367.92C640.274 2368.32 640.406 2368.67 640.67 2368.97C641.198 2369.58 642.158 2369.91 643.31 2369.91ZM643.31 2366.84C644.426 2366.84 645.194 2367.29 645.194 2367.92C645.194 2368.55 644.462 2369.01 643.31 2369.01C642.158 2369.01 641.426 2368.55 641.426 2367.92C641.426 2367.28 642.158 2366.84 643.31 2366.84ZM645.83 2370.35L644.666 2370.14C644.534 2370.64 644.258 2371.07 643.838 2371.43C642.974 2372.15 641.75 2372.54 640.442 2372.55V2373.62C641.27 2373.6 642.062 2373.48 642.83 2373.23C643.586 2372.97 644.246 2372.6 644.762 2372.12L649.142 2373.76L649.55 2372.73L645.434 2371.3C645.614 2371.01 645.746 2370.7 645.83 2370.35Z" fill="black"/>
<path d="M0.499023 2268H1530.5V2259H0.499023V2268Z" fill="black" mask="url(#path-43-inside-1_1337_6601)"/>
<path d="M102.073 84.094V89.008H95.215V114.982H89.653V89.008H82.795V84.094H89.653V74.698H95.215V84.094H102.073ZM131.554 84.094H137.332L118.054 128.104H112.438L118.54 114.334L105.31 84.094H111.412L121.348 108.394L131.554 84.094ZM164.749 114.982L154.219 100.834L148.117 107.26V114.982H142.555V70.378H148.117V100.618L163.507 84.094H170.041L157.729 97.108L171.337 114.982H164.749ZM178.856 69.838C181.016 69.838 182.582 71.404 182.582 73.51C182.582 75.616 181.016 77.182 178.856 77.182C176.75 77.182 175.184 75.616 175.184 73.51C175.184 71.404 176.75 69.838 178.856 69.838ZM181.664 115.036H176.102V84.094H181.664V115.036ZM190.393 84.094H195.955V88.468C197.359 86.2 200.113 83.338 205.297 83.338C209.887 83.338 213.397 85.876 214.909 89.818C216.745 85.93 220.633 83.338 225.871 83.338C232.459 83.338 237.211 88.36 237.211 96.19V114.982H231.649V97.108C231.649 91.546 228.949 88.198 224.575 88.198C219.931 88.198 216.583 92.734 216.583 98.35V114.982H211.021V97.324C211.021 91.546 208.267 88.198 203.947 88.198C199.357 88.198 195.955 92.734 195.955 98.296V114.982H190.393V84.094ZM258.793 115.738C250.045 115.738 243.511 108.772 243.511 99.538C243.511 90.304 250.045 83.338 258.793 83.338C264.409 83.338 268.189 86.038 269.755 88.684V70.378H275.317V114.982H269.755V110.392C268.189 113.038 264.409 115.738 258.793 115.738ZM259.279 110.824C265.543 110.824 269.863 105.964 269.863 99.538C269.863 93.112 265.543 88.252 259.279 88.252C253.069 88.252 248.965 93.112 248.965 99.538C248.965 105.964 253.069 110.824 259.279 110.824ZM284.049 84.094H289.611V88.846C290.961 86.524 294.687 83.338 300.735 83.338C302.625 83.338 303.867 83.5 304.947 83.878V89.17C303.759 88.63 302.247 88.306 300.357 88.306C294.039 88.306 289.611 93.382 289.611 98.998V114.982H284.049V84.094ZM322.712 115.738C313.694 115.738 307.214 108.826 307.214 99.538C307.214 90.25 313.694 83.338 322.712 83.338C331.73 83.338 338.156 90.25 338.156 99.538C338.156 100.24 338.156 101.05 338.048 101.806H312.776C313.37 107.098 317.204 111.04 322.712 111.04C326.924 111.04 330.218 109.096 331.352 106.558H337.022C335.348 111.904 329.786 115.738 322.712 115.738ZM332.702 97.27C332.054 91.87 328.274 88.036 322.712 88.036C317.15 88.036 313.37 91.924 312.776 97.27H332.702ZM358.883 115.738C350.135 115.738 343.601 108.772 343.601 99.538C343.601 90.304 350.135 83.338 358.883 83.338C364.499 83.338 368.279 86.038 369.845 88.684V84.094H375.407V114.982H369.845V110.392C368.279 113.038 364.499 115.738 358.883 115.738ZM359.369 110.824C365.633 110.824 369.953 105.964 369.953 99.538C369.953 93.112 365.633 88.252 359.369 88.252C353.159 88.252 349.055 93.112 349.055 99.538C349.055 105.964 353.159 110.824 359.369 110.824ZM384.139 84.094H389.701V88.468C391.105 86.2 393.859 83.338 399.043 83.338C403.633 83.338 407.143 85.876 408.655 89.818C410.491 85.93 414.379 83.338 419.617 83.338C426.205 83.338 430.957 88.36 430.957 96.19V114.982H425.395V97.108C425.395 91.546 422.695 88.198 418.321 88.198C413.677 88.198 410.329 92.734 410.329 98.35V114.982H404.767V97.324C404.767 91.546 402.013 88.198 397.693 88.198C393.103 88.198 389.701 92.734 389.701 98.296V114.982H384.139V84.094Z" fill="black"/>
<path d="M1442.08 97.5844C1442.22 96.6 1442.29 95.5828 1442.29 94.5C1442.29 93.45 1442.22 92.4 1442.05 91.4156L1448.9 86.2312C1449.51 85.7719 1449.67 84.8859 1449.3 84.2297L1442.83 73.3359C1442.42 72.6141 1441.58 72.3844 1440.84 72.6141L1432.77 75.7641C1431.09 74.5172 1429.3 73.4672 1427.31 72.6797L1426.09 64.3453C1425.96 63.5578 1425.29 63 1424.48 63H1411.52C1410.71 63 1410.07 63.5578 1409.94 64.3453L1408.72 72.6797C1406.73 73.4672 1404.91 74.55 1403.26 75.7641L1395.2 72.6141C1394.45 72.3516 1393.61 72.6141 1393.21 73.3359L1386.76 84.2297C1386.36 84.9187 1386.49 85.7719 1387.17 86.2312L1394.01 91.4156C1393.85 92.4 1393.71 93.4828 1393.71 94.5C1393.71 95.5172 1393.78 96.6 1393.95 97.5844L1387.1 102.769C1386.49 103.228 1386.32 104.114 1386.69 104.77L1393.17 115.664C1393.58 116.386 1394.42 116.616 1395.16 116.386L1403.22 113.236C1404.91 114.483 1406.7 115.533 1408.69 116.32L1409.9 124.655C1410.07 125.442 1410.71 126 1411.52 126H1424.48C1425.29 126 1425.96 125.442 1426.06 124.655L1427.28 116.32C1429.27 115.533 1431.09 114.483 1432.74 113.236L1440.8 116.386C1441.54 116.648 1442.39 116.386 1442.79 115.664L1449.27 104.77C1449.67 104.048 1449.51 103.228 1448.86 102.769L1442.08 97.5844ZM1418 106.312C1411.32 106.312 1405.85 100.997 1405.85 94.5C1405.85 88.0031 1411.32 82.6875 1418 82.6875C1424.68 82.6875 1430.14 88.0031 1430.14 94.5C1430.14 100.997 1424.68 106.312 1418 106.312Z" fill="#898989"/>
<path d="M1318.74 72.2531C1313.03 66.5437 1305.19 63 1296.48 63C1279.06 63 1265 77.0962 1265 94.5C1265 111.904 1279.06 126 1296.48 126C1311.18 126 1323.43 115.959 1326.94 102.375H1318.74C1315.51 111.549 1306.76 118.125 1296.48 118.125C1283.44 118.125 1272.84 107.533 1272.84 94.5C1272.84 81.4669 1283.44 70.875 1296.48 70.875C1303.02 70.875 1308.85 73.5919 1313.11 77.8837L1300.42 90.5625H1328V63L1318.74 72.2531Z" fill="#898989"/>
<path d="M1494.5 148.5H36.499V157.5H1494.5V148.5Z" fill="black" mask="url(#path-47-inside-2_1337_6601)"/>
</g>
<defs>
<clipPath id="clip0_1337_6601">
<path d="M0.498962 0H1530.5V2385C1530.5 2434.71 1490.2 2475 1440.5 2475H90.4989C40.7933 2475 0.498962 2434.71 0.498962 2385V0Z" fill="white"/>
</clipPath>
</defs>
</svg>
