<svg width="1068" height="927" viewBox="0 0 1068 927" fill="none" xmlns="http://www.w3.org/2000/svg">
<g clip-path="url(#clip0_1337_6587)">
<path d="M-0.0371094 0.015625V853.857C-0.0371094 894.011 32.5292 926.648 72.7532 926.648H994.265C1034.42 926.648 1067.06 894.081 1067.06 853.857L1066.99 0.015625H-0.0371094ZM412.245 101.942H654.705C681.521 101.942 703.214 123.635 703.214 150.451C703.214 177.197 681.521 198.96 654.705 198.96H412.245C385.429 198.96 363.736 177.267 363.736 150.451C363.736 123.635 385.429 101.942 412.245 101.942Z" fill="#F1F3F4"/>
<path d="M-0.0371094 0.015625V853.857C-0.0371094 894.011 32.5292 926.648 72.7532 926.648H994.265C1034.42 926.648 1067.06 894.081 1067.06 853.857L1066.99 0.015625H-0.0371094ZM412.245 101.942H654.705C681.521 101.942 703.214 123.635 703.214 150.451C703.214 177.197 681.521 198.96 654.705 198.96H412.245C385.429 198.96 363.736 177.267 363.736 150.451C363.736 123.635 385.429 101.942 412.245 101.942Z" fill="#F1F3F4"/>
<path d="M-0.0371094 0.015625V465.786H1066.99V0.015625H-0.0371094ZM412.245 101.942H654.705C681.521 101.942 703.214 123.635 703.214 150.451C703.214 177.197 681.521 198.96 654.705 198.96H412.245C385.429 198.96 363.736 177.267 363.736 150.451C363.736 123.635 385.429 101.942 412.245 101.942Z" fill="#E8EAED"/>
<path d="M533.478 393.06C362.965 393.06 214.144 485.656 134.468 623.388L198.004 817.204L296.063 926.643H358.501L533.478 623.456L932.488 623.386C852.812 485.656 703.991 393.06 533.478 393.06Z" fill="url(#paint0_linear_1337_6587)"/>
<path d="M134.441 623.378C82.0294 714.392 61.7035 821.709 78.46 926.634H309.472L134.441 623.378Z" fill="url(#paint1_linear_1337_6587)"/>
<path d="M533.459 623.448L708.49 926.636H988.45C1005.2 821.737 984.878 714.458 932.469 623.448H533.459Z" fill="url(#paint2_linear_1337_6587)"/>
<path d="M533.44 623.448C406.236 623.448 303.113 726.602 303.113 853.845C303.113 879.294 307.314 903.746 314.932 926.636H751.948C759.566 903.746 763.767 879.294 763.767 853.845C763.766 726.602 660.644 623.448 533.44 623.448Z" fill="#F1F3F4"/>
<path d="M533.455 666.646C508.879 666.645 484.542 671.488 461.836 680.897C439.13 690.305 418.498 704.096 401.12 721.481C383.741 738.866 369.956 759.505 360.55 782.22C351.145 804.935 346.304 829.28 346.304 853.867C346.413 878.894 351.536 903.645 361.372 926.657H705.539C715.375 903.645 720.498 878.894 720.607 853.867C720.607 829.28 715.766 804.935 706.361 782.22C696.956 759.505 683.17 738.866 665.791 721.481C648.413 704.096 627.781 690.305 605.075 680.897C582.369 671.488 558.032 666.645 533.455 666.646Z" fill="#1A73E8"/>
<path opacity="0.1" d="M1066.99 465.772H-0.0371094V471.81H1066.99V465.772Z" fill="#BDC1C6"/>
<path opacity="0.1" d="M1066.99 459.668H-0.0374756V465.705H1066.99V459.668Z" fill="#BDC1C6"/>
</g>
<defs>
<linearGradient id="paint0_linear_1337_6587" x1="134.467" y1="681.051" x2="932.489" y2="681.051" gradientUnits="userSpaceOnUse">
<stop stop-color="#D93025"/>
<stop offset="1" stop-color="#EA4335"/>
</linearGradient>
<linearGradient id="paint1_linear_1337_6587" x1="583.356" y1="1285.84" x2="184.258" y2="594.609" gradientUnits="userSpaceOnUse">
<stop stop-color="#1E8E3E"/>
<stop offset="1" stop-color="#34A853"/>
</linearGradient>
<linearGradient id="paint2_linear_1337_6587" x1="866.487" y1="622.516" x2="467.402" y2="1313.73" gradientUnits="userSpaceOnUse">
<stop stop-color="#FBBC04"/>
<stop offset="1" stop-color="#FCC934"/>
</linearGradient>
<clipPath id="clip0_1337_6587">
<rect width="1067.09" height="926.632" fill="white"/>
</clipPath>
</defs>
</svg>
