<svg width="1412" height="707" viewBox="0 0 1412 707" fill="none" xmlns="http://www.w3.org/2000/svg">
<g clip-path="url(#clip0_1387_7600)">
<rect x="0.599609" y="0.799927" width="1411.2" height="705.6" rx="50.4" fill="#7FD2F5"/>
<rect x="61.0732" y="630.799" width="720.72" height="20.16" rx="10.08" fill="#FDFFEF" fill-opacity="0.82"/>
<rect x="61.0732" y="630.799" width="297.36" height="20.16" rx="10.08" fill="#47A7FF"/>
<path d="M109.568 124.036C85.5774 124.036 69.9534 114.864 69.9534 100.248C69.9534 85.6316 85.5774 76.4588 109.568 76.4588C133.558 76.4588 149.182 85.6316 149.182 100.248C149.182 114.864 133.558 124.036 109.568 124.036ZM109.568 91.478C97.2702 91.478 87.8958 94.502 87.8958 100.248C87.8958 105.892 97.2702 109.017 109.568 109.017C121.865 109.017 131.24 105.892 131.24 100.248C131.24 94.502 121.865 91.478 109.568 91.478ZM153.113 129.177V144.7H134.869V164.86H117.934V144.7H101.201V164.86H84.267V144.7H66.0222V129.177H153.113ZM229.209 76.7612H246.244V162.844H229.209V76.7612ZM203.505 94.4012C203.303 102.163 202.598 109.32 201.388 115.872L226.386 148.329L212.879 158.409L195.542 134.822C188.586 150.144 177.599 158.712 164.495 158.812V141.676C177.095 140.265 185.764 122.02 186.369 94.4012H166.914V78.7772H221.951V94.4012H203.505ZM317.4 106.598H326.875V98.4332H317.4L316.392 83.414H326.875V76.7612H343.608V140.568H326.875V121.617H316.392L317.4 106.598ZM314.779 102.667C314.779 118.291 303.591 128.472 287.059 128.472C270.528 128.472 259.339 118.291 259.339 102.667C259.339 87.1436 270.528 76.862 287.059 76.862C303.591 76.862 314.779 87.1436 314.779 102.667ZM276.173 102.667C276.173 110.126 280.608 114.259 287.059 114.259C293.511 114.259 297.946 110.126 297.946 102.667C297.946 95.2076 293.511 91.0748 287.059 91.0748C280.608 91.0748 276.173 95.2076 276.173 102.667ZM284.943 147.624H344.818V162.844H267.605V132.705H284.943V147.624Z" fill="white"/>
<path d="M113.761 442.42V449.133H67.252V424.76H113.156V431.534H77.3521V433.953H112.31V440.001H77.3521V442.42H113.761ZM64.0465 451.431H116.301V459.233H64.0465V451.431ZM66.8286 469.334V461.532H113.277V477.014H102.935V469.334H66.8286ZM172.18 424.76V453.185H161.958V424.76H172.18ZM141.153 444.174C137.101 448.77 130.811 452.157 123.372 452.339V443.388C130.085 443.025 134.561 438.428 135.71 433.832H124.098V425.365H157.483V433.832H146.052C145.931 434.799 145.75 435.707 145.447 436.674L159.297 444.234L154.519 451.794L141.153 444.174ZM149.076 453.911C162.261 453.911 172.663 456.875 172.663 465.463C172.663 474.051 162.261 477.014 149.076 477.014C135.892 477.014 125.489 474.051 125.489 465.463C125.489 456.875 135.892 453.911 149.076 453.911ZM149.076 468.85C156.031 468.85 161.656 467.942 161.656 465.463C161.656 463.044 156.031 462.076 149.076 462.076C142.121 462.076 136.496 463.044 136.496 465.463C136.496 467.942 142.121 468.85 149.076 468.85Z" fill="white"/>
<path d="M415.189 424.76H424.866V476.41H415.189V453.427H410.532V475.502H400.976V425.002H410.532V443.75H415.189V424.76ZM374.184 435.162V425.969H396.864V441.392C396.864 463.286 386.401 473.809 374.184 473.99V464.435C381.986 463.83 387.066 456.27 387.066 441.755V435.162H374.184ZM480.14 432.017H486.188V441.331H480.14V450.645H469.918V424.76H480.14V432.017ZM464.294 425.365V449.557H432.784V425.365H442.702V429.598H454.375V425.365H464.294ZM442.702 441.634H454.375V437.34H442.702V441.634ZM444.638 467.58V469.575H480.684V476.41H434.598V461.29H470.1V459.294H434.477V452.46H480.14V467.58H444.638ZM506.399 455.302V445.565L535.732 428.872V439.335L515.895 450.343L535.732 461.35V471.995L506.399 455.302ZM608.989 424.76V476.41H598.768V424.76H608.989ZM591.994 425.969V435.283H571.673V464.677H582.68C587.579 464.677 592.901 463.769 596.046 462.318V471.511C592.901 473.083 587.216 473.99 582.257 473.99H561.331V425.969H591.994ZM671.762 443.63V453.548H665.714V476.41H655.493V424.76H665.714V443.63H671.762ZM640.736 435.344C640.615 440.001 640.191 444.355 639.466 448.286L654.223 467.761L646.118 473.749L635.958 459.778C631.785 468.789 625.313 473.93 617.572 473.99V463.709C625.132 462.862 630.091 451.915 630.454 435.344H619.023V425.969H651.562V435.344H640.736ZM725.342 424.76V462.983H715.121V424.76H725.342ZM692.199 424.82C702.299 424.82 709.194 430.989 709.194 440.303C709.194 449.678 702.299 455.786 692.199 455.786C682.099 455.786 675.204 449.678 675.204 440.303C675.204 430.989 682.099 424.82 692.199 424.82ZM692.199 433.348C688.268 433.348 685.365 435.828 685.365 440.303C685.365 444.779 688.268 447.258 692.199 447.258C696.13 447.258 699.033 444.779 699.033 440.303C699.033 435.828 696.13 433.348 692.199 433.348ZM690.143 458.326V467.217H726.068V476.41H679.74V458.326H690.143Z" fill="#47A7FF"/>
<path d="M118.599 337.589V347.508H112.551V356.943H102.33V329.001H112.551V337.589H118.599ZM99.9112 353.556C97.2501 354.705 92.4116 355.371 87.5733 355.371H65.1956V329.606H96.9477V338.013H75.4168V346.964H87.9966C92.6536 346.964 97.1896 346.359 99.9112 345.27V353.556ZM66.9496 380.651V358.757H112.551V380.651H66.9496ZM77.1707 367.164V372.245H102.33V367.164H77.1707ZM170.728 337.589H176.776V347.508H170.728V357.427H160.507V329.001H170.728V337.589ZM158.088 353.556C155.427 354.705 150.588 355.371 145.75 355.371H123.372V329.606H155.124V338.013H133.593V347.024H146.173C150.83 347.024 155.366 346.42 158.088 345.331V353.556ZM147.927 358.153C160.93 358.153 171.212 361.116 171.212 369.704C171.212 378.293 160.93 381.256 147.927 381.256C134.924 381.256 124.642 378.293 124.642 369.704C124.642 361.116 134.924 358.153 147.927 358.153ZM147.927 373.091C154.761 373.091 160.205 372.184 160.205 369.704C160.205 367.285 154.761 366.317 147.927 366.317C141.093 366.317 135.65 367.285 135.65 369.704C135.65 372.184 141.093 373.091 147.927 373.091Z" fill="white"/>
<path d="M294.508 329.001H304.729V380.651H294.508V329.001ZM277.695 345.391V330.211H287.734V378.232H257.131V330.211H267.171V345.391H277.695ZM267.171 368.858H277.695V354.705H267.171V368.858ZM339.137 351.5C333.331 358.032 324.319 361.902 314.764 361.963V352.589C323.352 352.407 331.335 347.629 334.117 339.585H315.671V330.211H362.603V339.585H345.366C345.004 340.976 344.58 342.367 344.096 343.637L364.781 354.161L360.003 362.386L339.137 351.5ZM313.01 369.281H365.264V378.837H313.01V369.281ZM421.143 329.001V380.651H410.922V329.001H421.143ZM384.008 329.909V368.918H394.834C399.733 368.918 405.055 367.95 408.2 366.438V375.752C405.055 377.325 399.793 378.232 394.834 378.232H373.484V329.909H384.008ZM455.127 348.657C449.14 356.762 440.249 361.902 430.391 361.963V352.286C440.673 352.226 450.228 342.67 452.103 328.82L462.506 330.453C462.022 334.082 461.054 337.469 459.663 340.674L481.678 353.919L476.295 362.205L455.127 348.657ZM429.363 378.837V369.281H481.618V378.837H429.363ZM499.393 368.979L495.644 384.643H487.6L489.777 368.979H499.393ZM547.792 381.014C532.612 381.014 521.423 370.067 521.423 355.129C521.423 340.19 532.612 329.243 547.792 329.243C561.34 329.243 570.412 337.408 572.407 347.811H561.279C560.13 343.093 555.11 339.343 548.034 339.343C539.083 339.343 532.43 345.936 532.43 355.129C532.43 364.261 539.083 370.914 548.034 370.914C555.11 370.914 560.916 366.257 561.763 361.781H572.891C571.379 371.7 561.461 381.014 547.792 381.014ZM579.237 330.513H590.244V379.805H579.237V330.513ZM628.539 326.885L606.403 383.433H595.819L617.955 326.885H628.539ZM655.522 381.014C640.342 381.014 629.153 370.067 629.153 355.129C629.153 340.19 640.342 329.243 655.522 329.243C669.07 329.243 678.142 337.408 680.137 347.811H669.009C667.86 343.093 662.84 339.343 655.764 339.343C646.813 339.343 640.16 345.936 640.16 355.129C640.16 364.261 646.813 370.914 655.764 370.914C662.84 370.914 668.646 366.257 669.493 361.781H680.621C679.109 371.7 669.191 381.014 655.522 381.014ZM686.967 379.805V330.513H706.079C722.408 330.513 732.508 340.613 732.508 355.189C732.508 369.765 722.408 379.805 706.079 379.805H686.967ZM697.974 370.067H706.26C715.695 370.067 721.501 364.685 721.501 355.189C721.501 345.694 715.695 340.251 706.26 340.251H697.974V370.067Z" fill="#47A7FF"/>
<path d="M644.536 284.046V234.755H665.946C676.893 234.755 683.062 240.44 683.062 249.451C683.062 252.959 680.703 256.951 677.316 258.221C682.034 259.733 685.36 264.329 685.36 269.107C685.36 278.24 678.828 284.046 667.761 284.046H644.536ZM655.544 254.713H665.462C669.636 254.713 672.055 252.899 672.055 249.451C672.055 246.004 669.636 244.129 665.462 244.129H655.544V254.713ZM655.544 274.671H667.277C671.631 274.671 674.353 272.736 674.353 269.107C674.353 265.478 671.631 263.543 667.277 263.543H655.544V274.671ZM691.845 284.046V234.755H728.496V244.31H702.853V254.35H726.379V263.906H702.853V274.49H729.041V284.046H691.845Z" fill="#47A7FF"/>
<path d="M103.782 233.243H114.003V263.966H103.782V233.243ZM82.8558 254.531C78.8036 259.491 72.5742 263.059 65.1956 263.241V254.048C72.2113 253.564 76.6868 248.181 77.594 242.435H65.9214V233.847H99.3064V242.435H87.9361C87.8152 243.887 87.5128 245.278 87.0894 246.669L101.242 255.378L95.98 262.817L82.8558 254.531ZM67.5544 274.55V265.781H114.003V285.497H103.6V274.55H67.5544ZM136.013 257.495C132.747 261.91 127.908 264.692 122.223 264.874V256.164C126.88 255.56 129.904 251.326 130.569 245.943H122.888V237.537H130.569V232.396H140.367V237.537H147.927V245.943H140.246C140.125 247.213 139.944 248.423 139.641 249.572L150.165 257.979L144.238 264.571L136.013 257.495ZM164.075 233.243H173.631V265.539H164.075V253.201H159.781V264.995H150.346V233.484H159.781V243.706H164.075V233.243ZM125.852 275.881V267.353H173.631V285.497H163.531V275.881H125.852Z" fill="white"/>
<path d="M840.246 584.051C833.924 585.322 827.396 583.269 822.952 578.613C802.92 557.623 789.32 531.544 783.619 503.194C778.116 475.824 780.251 447.45 789.794 421.14C796.279 403.264 806.052 386.63 818.514 372.107C796.103 354.017 780.614 328.864 774.896 300.423C761.253 232.568 806.783 165.98 876.39 151.984C945.994 137.989 1013.72 181.806 1027.37 249.66C1033.08 278.097 1028.52 307.284 1014.85 332.631C1031.95 341.21 1047.4 352.772 1060.29 366.753C1079.26 387.33 1092.19 412.674 1097.7 440.045C1103.4 468.396 1100.93 497.706 1090.57 524.807C1088.27 530.817 1083.04 535.233 1076.72 536.504L840.246 584.051Z" fill="#E8EEFF"/>
<path d="M870.518 277.488C871.748 283.606 867.66 289.591 861.382 290.853C855.107 292.115 849.023 288.175 847.792 282.057C846.562 275.939 850.651 269.954 856.927 268.692C863.204 267.43 869.288 271.369 870.518 277.488Z" fill="#636052"/>
<path d="M953.049 260.892C954.279 267.01 950.192 272.995 943.917 274.257C937.641 275.518 931.557 271.579 930.327 265.461C929.096 259.342 933.185 253.357 939.462 252.095C945.737 250.834 951.819 254.773 953.049 260.892Z" fill="#636052"/>
<path d="M927.042 291.972C929.17 302.556 922.095 312.906 911.245 315.087C900.389 317.27 889.864 310.459 887.736 299.875C885.608 289.29 892.683 278.941 903.538 276.758C914.389 274.577 924.913 281.386 927.042 291.972Z" fill="#EF6B3A"/>
<path d="M928.583 404.868C938.79 402.816 945.401 392.878 943.348 382.671C941.296 372.464 931.358 365.853 921.151 367.905C910.943 369.957 904.333 379.896 906.385 390.103C908.437 400.31 918.376 406.921 928.583 404.868Z" fill="#636052"/>
<path d="M942.237 472.78C952.444 470.728 959.055 460.789 957.003 450.582C954.95 440.375 945.012 433.764 934.805 435.817C924.598 437.869 917.987 447.807 920.039 458.014C922.092 468.221 932.03 474.832 942.237 472.78Z" fill="#636052"/>
<path opacity="0.1" d="M858.795 571.411C838.763 550.422 825.162 524.342 819.462 495.993C813.959 468.622 816.093 440.248 825.637 413.938C832.121 396.062 841.894 379.428 854.357 364.905C831.945 346.817 816.456 321.664 810.738 293.222C798.288 231.305 835.116 170.449 894.541 149.639C888.53 149.999 882.469 150.767 876.394 151.988C806.788 165.984 761.258 232.572 774.901 300.427C780.619 328.867 796.107 354.021 818.52 372.111C806.058 386.635 796.285 403.268 789.8 421.144C780.257 447.453 778.122 475.828 783.625 503.198C789.326 531.548 802.926 557.628 822.958 578.617C827.4 583.274 833.928 585.326 840.251 584.055L876.089 576.849C869.766 578.121 863.238 576.068 858.795 571.411Z" fill="#414042"/>
<path d="M822.16 369.712L1011.76 330.274" stroke="#FB5C5C" stroke-width="14.5151" stroke-linecap="round"/>
<path d="M1076.53 237.828C1135.58 168.483 1243.16 170.016 1300.2 241.015L1525.13 520.961C1578.91 587.895 1543.74 686.999 1459.01 700.898C1372.99 715.008 1271.65 728.085 1190.29 728.367C1105.19 728.661 998.73 715.105 909.346 700.553C824.726 686.777 789.338 587.962 842.781 520.922L949.88 386.573L1076.53 237.828Z" fill="#78AEFF"/>
<path d="M1022.59 312.876L1017.46 302.155L1074.43 232.67C1134.1 159.896 1246.18 162.264 1302.72 237.493L1351.31 302.155L1343.98 312.373C1335.98 323.536 1320.48 326.193 1309.21 318.338L1307.62 317.23C1299.3 311.43 1288.05 318.245 1289.33 328.307C1292.37 352.125 1261.84 364.519 1247.42 345.324L1236.19 330.385C1229.81 321.9 1216.48 324.36 1213.55 334.564L1213.05 336.323C1207.33 356.271 1181.11 360.81 1169.01 343.947C1163.2 335.854 1150.71 337.55 1147.27 346.897L1146.26 349.646C1137.18 374.335 1102.12 373.926 1093.61 349.031L1087.47 331.05C1085.12 324.178 1076.85 321.468 1070.89 325.62C1054.3 337.178 1031.31 331.111 1022.59 312.876Z" fill="#D3E0FF"/>
<g clip-path="url(#clip1_1387_7600)">
<mask id="mask0_1387_7600" style="mask-type:luminance" maskUnits="userSpaceOnUse" x="944" y="467" width="74" height="73">
<path d="M944.877 467.107H1017.45V539.682H944.877V467.107Z" fill="white"/>
</mask>
<g mask="url(#mask0_1387_7600)">
<path d="M1015.26 501.204H1010.34L1012.79 498.748C1013.65 497.893 1013.65 496.506 1012.79 495.65C1011.94 494.795 1010.55 494.795 1009.69 495.65L1004.14 501.204H997.945L1000.4 498.748C1001.26 497.893 1001.26 496.506 1000.4 495.65C999.546 494.795 998.159 494.795 997.304 495.65L991.75 501.204H986.452L998.96 488.697H1000.24H1006.81C1008.02 488.697 1009 487.716 1009 486.506V486.506C1009 485.296 1008.02 484.316 1006.81 484.316H1003.34L1006.82 480.833C1007.68 479.978 1007.68 478.591 1006.82 477.735C1005.97 476.88 1004.58 476.88 1003.73 477.735L1000.24 481.218V477.745C1000.24 476.535 999.262 475.554 998.052 475.554C996.843 475.554 995.862 476.535 995.862 477.745V484.316V485.599L983.354 498.107V492.809L984.262 491.902L988.908 487.255C989.764 486.4 989.764 485.013 988.908 484.157C988.053 483.302 986.666 483.302 985.81 484.157L983.354 486.613V480.418L984.262 479.511L988.908 474.864C989.764 474.009 989.764 472.622 988.908 471.766C988.053 470.911 986.666 470.911 985.81 471.766L983.354 474.223V469.297C983.354 468.088 982.374 467.107 981.164 467.107C979.954 467.107 978.973 468.088 978.973 469.297V474.223L976.517 471.766C975.662 470.911 974.275 470.911 973.42 471.766C972.564 472.622 972.564 474.009 973.42 474.864L978.066 479.511L978.973 480.418V486.613L976.517 484.157C975.662 483.302 974.275 483.302 973.42 484.157C972.564 485.013 972.564 486.4 973.42 487.255L978.066 491.902L978.973 492.809V498.107L966.466 485.599V484.316V477.745C966.466 476.535 965.485 475.554 964.275 475.554C963.066 475.554 962.085 476.535 962.085 477.745V481.218L958.602 477.735C957.747 476.88 956.36 476.88 955.504 477.735C954.649 478.591 954.649 479.978 955.504 480.833L958.987 484.316H955.514C954.304 484.316 953.323 485.296 953.323 486.506V486.506C953.323 487.716 954.304 488.697 955.514 488.697H962.085H963.368L975.876 501.204H970.578L965.024 495.65C964.169 494.795 962.782 494.795 961.926 495.65C961.071 496.506 961.071 497.893 961.926 498.748L964.383 501.204H958.187L952.633 495.65C951.778 494.795 950.391 494.795 949.536 495.65C948.68 496.506 948.68 497.893 949.536 498.748L951.992 501.204H947.066C945.857 501.204 944.876 502.185 944.876 503.395C944.876 504.604 945.857 505.585 947.066 505.585H951.992L949.536 508.041C948.68 508.897 948.68 510.283 949.536 511.139C950.391 511.994 951.778 511.994 952.633 511.139L958.187 505.585H964.383L961.926 508.041C961.071 508.897 961.071 510.283 961.926 511.139C962.782 511.994 964.169 511.994 965.024 511.139L969.671 506.492L970.578 505.585H975.876L963.368 518.093H962.085H955.514C954.304 518.093 953.323 519.073 953.323 520.283C953.323 521.493 954.304 522.473 955.514 522.473H958.987L955.504 525.956C954.649 526.812 954.649 528.198 955.504 529.054C956.36 529.909 957.747 529.909 958.602 529.054L962.085 525.571V529.045C962.085 530.254 963.066 531.235 964.275 531.235C965.485 531.235 966.466 530.254 966.466 529.045V522.473V521.19L978.973 508.683V513.98L978.066 514.888L973.42 519.534C972.564 520.39 972.564 521.776 973.42 522.632V522.632C974.275 523.487 975.662 523.487 976.517 522.632L978.973 520.176V526.371L978.066 527.278L973.42 531.925C972.564 532.78 972.564 534.167 973.42 535.023C974.275 535.878 975.662 535.878 976.517 535.023L978.973 532.567V537.492C978.973 538.702 979.954 539.682 981.164 539.682C982.374 539.682 983.354 538.702 983.354 537.492V532.567L985.81 535.023C986.666 535.878 988.053 535.878 988.908 535.023C989.764 534.167 989.764 532.78 988.908 531.925L984.262 527.278L983.354 526.371V520.176L985.81 522.632C986.666 523.487 988.053 523.487 988.908 522.632V522.632C989.764 521.776 989.764 520.39 988.908 519.534L984.262 514.888L983.354 513.98V508.683L995.862 521.19V522.473V529.045C995.862 530.254 996.843 531.235 998.052 531.235C999.262 531.235 1000.24 530.254 1000.24 529.045V525.571L1003.73 529.054C1004.58 529.909 1005.97 529.909 1006.82 529.054C1007.68 528.198 1007.68 526.812 1006.82 525.956L1003.34 522.473H1006.81C1008.02 522.473 1009 521.493 1009 520.283C1009 519.073 1008.02 518.093 1006.81 518.093H1000.24H998.96L986.452 505.585H991.75L992.657 506.492L997.304 511.139C998.159 511.994 999.546 511.994 1000.4 511.139C1001.26 510.283 1001.26 508.897 1000.4 508.041L997.945 505.585H1004.14L1009.69 511.139C1010.55 511.994 1011.94 511.994 1012.79 511.139C1013.65 510.283 1013.65 508.897 1012.79 508.041L1010.34 505.585H1015.26C1016.47 505.585 1017.45 504.604 1017.45 503.395C1017.45 502.185 1016.47 501.204 1015.26 501.204Z" fill="#A2DDFD"/>
<path d="M991.75 505.585C990.54 505.585 989.559 504.604 989.559 503.395C989.559 502.185 990.54 501.204 991.75 501.204H986.452L990.198 497.458C989.343 498.314 987.956 498.314 987.1 497.458C986.245 496.603 986.245 495.216 987.1 494.361L983.354 498.107V492.809L984.262 491.902L988.908 487.255C989.764 486.4 989.764 485.013 988.908 484.157C988.053 483.302 986.666 483.302 985.81 484.157L983.354 486.614V480.418L984.262 479.511L988.908 474.864C989.764 474.009 989.764 472.622 988.908 471.767C988.053 470.911 986.666 470.911 985.81 471.767L983.354 474.223V469.297C983.354 468.088 982.374 467.107 981.164 467.107C979.954 467.107 978.973 468.088 978.973 469.297V474.223L976.517 471.767C975.662 470.911 974.275 470.911 973.42 471.767C972.564 472.622 972.564 474.009 973.42 474.864L978.066 479.511L978.973 480.418V486.614L976.517 484.157C975.662 483.302 974.275 483.302 973.42 484.157C972.564 485.013 972.564 486.4 973.42 487.255L978.066 491.902L978.973 492.809V498.107L966.466 485.599V484.316V477.745C966.466 476.535 965.485 475.554 964.275 475.554C963.066 475.554 962.085 476.535 962.085 477.745V481.218L958.602 477.735C957.747 476.88 956.36 476.88 955.504 477.735C954.649 478.591 954.649 479.978 955.504 480.833L958.987 484.316H955.514C954.304 484.316 953.323 485.297 953.323 486.506C953.323 487.716 954.304 488.697 955.514 488.697H962.085H963.368L975.876 501.204H970.578L965.024 495.65C964.169 494.795 962.782 494.795 961.926 495.65C961.071 496.506 961.071 497.893 961.926 498.748L964.383 501.204H958.187L952.633 495.65C951.778 494.795 950.391 494.795 949.536 495.65C948.68 496.506 948.68 497.893 949.536 498.748L951.992 501.204H947.066C945.857 501.204 944.876 502.185 944.876 503.395C944.876 504.604 945.857 505.585 947.066 505.585H951.992L949.536 508.041C948.68 508.897 948.68 510.283 949.536 511.139C950.391 511.994 951.778 511.994 952.633 511.139L958.187 505.585H964.383L961.926 508.041C961.071 508.897 961.071 510.283 961.926 511.139C962.782 511.994 964.169 511.994 965.024 511.139L969.671 506.492L970.578 505.585H975.876L963.368 518.093H962.085H955.514C954.304 518.093 953.323 519.073 953.323 520.283C953.323 521.493 954.304 522.473 955.514 522.473H958.987L955.504 525.956C954.649 526.812 954.649 528.199 955.504 529.054C956.36 529.909 957.747 529.909 958.602 529.054L962.085 525.571V529.045C962.085 530.255 963.066 531.235 964.275 531.235C965.485 531.235 966.466 530.255 966.466 529.045V522.473V521.19L978.973 508.683V513.98L978.066 514.888L973.42 519.534C972.564 520.39 972.564 521.776 973.42 522.632C974.275 523.487 975.662 523.487 976.517 522.632L978.973 520.176V526.371L978.066 527.278L973.42 531.925C972.564 532.78 972.564 534.167 973.42 535.023C974.275 535.878 975.662 535.878 976.517 535.023L978.973 532.567V537.492C978.973 538.702 979.954 539.682 981.164 539.682C982.374 539.682 983.354 538.702 983.354 537.492V532.567L985.81 535.023C986.666 535.878 988.053 535.878 988.908 535.023C989.764 534.167 989.764 532.78 988.908 531.925L984.262 527.278L983.354 526.371V520.176L985.81 522.632C986.666 523.487 988.053 523.487 988.908 522.632C989.764 521.776 989.764 520.39 988.908 519.534L984.262 514.888L983.354 513.98V508.683L987.1 512.429C986.245 511.573 986.245 510.187 987.1 509.331C987.956 508.476 989.342 508.476 990.198 509.331L986.452 505.585H991.75Z" fill="#A2DDFD"/>
</g>
</g>
<g clip-path="url(#clip2_1387_7600)">
<mask id="mask1_1387_7600" style="mask-type:luminance" maskUnits="userSpaceOnUse" x="1351" y="525" width="73" height="73">
<path d="M1351.33 525.167H1423.91V597.743H1351.33V525.167Z" fill="white"/>
</mask>
<g mask="url(#mask1_1387_7600)">
<path d="M1421.72 559.265H1416.8L1419.25 556.809C1420.11 555.953 1420.11 554.566 1419.25 553.711C1418.4 552.855 1417.01 552.855 1416.15 553.711L1410.6 559.265H1404.41L1406.86 556.809C1407.72 555.953 1407.72 554.566 1406.86 553.711C1406.01 552.855 1404.62 552.855 1403.76 553.711L1398.21 559.265H1392.91L1405.42 546.757H1406.7H1413.27C1414.48 546.757 1415.46 545.776 1415.46 544.567V544.567C1415.46 543.357 1414.48 542.376 1413.27 542.376H1409.8L1413.28 538.893C1414.14 538.038 1414.14 536.651 1413.28 535.796C1412.43 534.94 1411.04 534.94 1410.19 535.796L1406.7 539.278V535.805C1406.7 534.595 1405.72 533.615 1404.51 533.615C1403.3 533.615 1402.32 534.595 1402.32 535.805V542.376V543.659L1389.81 556.167V550.869L1390.72 549.962L1395.37 545.315C1396.22 544.46 1396.22 543.073 1395.37 542.218C1394.51 541.362 1393.13 541.362 1392.27 542.218L1389.81 544.674V538.478L1390.72 537.571L1395.37 532.925C1396.22 532.069 1396.22 530.682 1395.37 529.827C1394.51 528.971 1393.13 528.971 1392.27 529.827L1389.81 532.283V527.358C1389.81 526.148 1388.83 525.167 1387.62 525.167C1386.41 525.167 1385.43 526.148 1385.43 527.358V532.283L1382.98 529.827C1382.12 528.971 1380.73 528.971 1379.88 529.827C1379.02 530.682 1379.02 532.069 1379.88 532.925L1384.53 537.571L1385.43 538.478V544.674L1382.98 542.218C1382.12 541.362 1380.73 541.362 1379.88 542.218C1379.02 543.073 1379.02 544.46 1379.88 545.315L1384.53 549.962L1385.43 550.869V556.167L1372.93 543.659V542.376V535.805C1372.93 534.595 1371.95 533.615 1370.74 533.615C1369.53 533.615 1368.54 534.595 1368.54 535.805V539.278L1365.06 535.796C1364.21 534.94 1362.82 534.94 1361.96 535.796C1361.11 536.651 1361.11 538.038 1361.96 538.893L1365.45 542.376H1361.97C1360.76 542.376 1359.78 543.357 1359.78 544.567V544.567C1359.78 545.776 1360.76 546.757 1361.97 546.757H1368.54H1369.83L1382.34 559.265H1377.04L1371.48 553.711C1370.63 552.855 1369.24 552.855 1368.39 553.711C1367.53 554.566 1367.53 555.953 1368.39 556.809L1370.84 559.265H1364.65L1359.09 553.711C1358.24 552.855 1356.85 552.855 1356 553.711C1355.14 554.566 1355.14 555.953 1356 556.809L1358.45 559.265H1353.53C1352.32 559.265 1351.34 560.245 1351.34 561.455C1351.34 562.665 1352.32 563.645 1353.53 563.645H1358.45L1356 566.102C1355.14 566.957 1355.14 568.344 1356 569.199C1356.85 570.055 1358.24 570.055 1359.09 569.199L1364.65 563.645H1370.84L1368.39 566.102C1367.53 566.957 1367.53 568.344 1368.39 569.199C1369.24 570.055 1370.63 570.055 1371.48 569.199L1376.13 564.553L1377.04 563.645H1382.34L1369.83 576.153H1368.54H1361.97C1360.76 576.153 1359.78 577.134 1359.78 578.343C1359.78 579.553 1360.76 580.534 1361.97 580.534H1365.45L1361.96 584.017C1361.11 584.872 1361.11 586.259 1361.96 587.114C1362.82 587.97 1364.21 587.97 1365.06 587.114L1368.54 583.632V587.105C1368.54 588.315 1369.53 589.295 1370.74 589.295C1371.95 589.295 1372.93 588.315 1372.93 587.105V580.534V579.251L1385.43 566.743V572.041L1384.53 572.948L1379.88 577.595C1379.02 578.45 1379.02 579.837 1379.88 580.692V580.692C1380.73 581.548 1382.12 581.548 1382.98 580.692L1385.43 578.236V584.432L1384.53 585.339L1379.88 589.985C1379.02 590.841 1379.02 592.228 1379.88 593.083C1380.73 593.939 1382.12 593.939 1382.98 593.083L1385.43 590.627V595.552C1385.43 596.762 1386.41 597.743 1387.62 597.743C1388.83 597.743 1389.81 596.762 1389.81 595.552V590.627L1392.27 593.083C1393.13 593.939 1394.51 593.939 1395.37 593.083C1396.22 592.228 1396.22 590.841 1395.37 589.985L1390.72 585.339L1389.81 584.432V578.236L1392.27 580.692C1393.13 581.548 1394.51 581.548 1395.37 580.692V580.692C1396.22 579.837 1396.22 578.45 1395.37 577.595L1390.72 572.948L1389.81 572.041V566.743L1402.32 579.251V580.534V587.105C1402.32 588.315 1403.3 589.295 1404.51 589.295C1405.72 589.295 1406.7 588.315 1406.7 587.105V583.632L1410.19 587.114C1411.04 587.97 1412.43 587.97 1413.28 587.114C1414.14 586.259 1414.14 584.872 1413.28 584.017L1409.8 580.534H1413.27C1414.48 580.534 1415.46 579.553 1415.46 578.343C1415.46 577.134 1414.48 576.153 1413.27 576.153H1406.7H1405.42L1392.91 563.645H1398.21L1399.12 564.553L1403.76 569.199C1404.62 570.055 1406.01 570.055 1406.86 569.199C1407.72 568.344 1407.72 566.957 1406.86 566.102L1404.41 563.645H1410.6L1416.15 569.199C1417.01 570.055 1418.4 570.055 1419.25 569.199C1420.11 568.344 1420.11 566.957 1419.25 566.102L1416.8 563.645H1421.72C1422.93 563.645 1423.91 562.665 1423.91 561.455C1423.91 560.245 1422.93 559.265 1421.72 559.265Z" fill="#A2DDFD"/>
<path d="M1398.21 563.641C1397 563.641 1396.02 562.661 1396.02 561.451C1396.02 560.241 1397 559.26 1398.21 559.26H1392.91L1396.66 555.514C1395.81 556.37 1394.42 556.37 1393.56 555.514C1392.71 554.659 1392.71 553.272 1393.56 552.417L1389.82 556.163V550.865L1390.72 549.958L1395.37 545.311C1396.23 544.456 1396.23 543.069 1395.37 542.213C1394.52 541.358 1393.13 541.358 1392.27 542.213L1389.82 544.67V538.474L1390.72 537.567L1395.37 532.92C1396.23 532.065 1396.23 530.678 1395.37 529.823C1394.52 528.967 1393.13 528.967 1392.27 529.823L1389.82 532.279V527.353C1389.82 526.144 1388.84 525.163 1387.63 525.163C1386.42 525.163 1385.44 526.144 1385.44 527.353V532.279L1382.98 529.823C1382.12 528.967 1380.74 528.967 1379.88 529.823C1379.03 530.678 1379.03 532.065 1379.88 532.92L1384.53 537.567L1385.44 538.474V544.67L1382.98 542.213C1382.12 541.358 1380.74 541.358 1379.88 542.213C1379.03 543.069 1379.03 544.456 1379.88 545.311L1384.53 549.958L1385.44 550.865V556.163L1372.93 543.655V542.372V535.801C1372.93 534.591 1371.95 533.61 1370.74 533.61C1369.53 533.61 1368.55 534.591 1368.55 535.801V539.274L1365.07 535.792C1364.21 534.936 1362.82 534.936 1361.97 535.792C1361.11 536.647 1361.11 538.034 1361.97 538.889L1365.45 542.372H1361.98C1360.77 542.372 1359.79 543.353 1359.79 544.562C1359.79 545.772 1360.77 546.753 1361.98 546.753H1368.55H1369.83L1382.34 559.26H1377.04L1371.49 553.707C1370.63 552.851 1369.24 552.851 1368.39 553.707C1367.53 554.562 1367.53 555.949 1368.39 556.804L1370.85 559.26H1364.65L1359.1 553.707C1358.24 552.851 1356.85 552.851 1356 553.707C1355.14 554.562 1355.14 555.949 1356 556.804L1358.45 559.26H1353.53C1352.32 559.26 1351.34 560.241 1351.34 561.451C1351.34 562.661 1352.32 563.641 1353.53 563.641H1358.45L1356 566.097C1355.14 566.953 1355.14 568.34 1356 569.195C1356.85 570.051 1358.24 570.051 1359.1 569.195L1364.65 563.641H1370.85L1368.39 566.097C1367.53 566.953 1367.53 568.34 1368.39 569.195C1369.24 570.051 1370.63 570.05 1371.49 569.195L1376.13 564.549L1377.04 563.641H1382.34L1369.83 576.149H1368.55H1361.98C1360.77 576.149 1359.79 577.129 1359.79 578.339C1359.79 579.549 1360.77 580.53 1361.98 580.53H1365.45L1361.97 584.012C1361.11 584.868 1361.11 586.255 1361.97 587.11C1362.82 587.965 1364.21 587.965 1365.07 587.11L1368.55 583.627V587.101C1368.55 588.311 1369.53 589.291 1370.74 589.291C1371.95 589.291 1372.93 588.311 1372.93 587.101V580.53V579.247L1385.44 566.739V572.037L1384.53 572.944L1379.88 577.59C1379.03 578.446 1379.03 579.833 1379.88 580.688C1380.74 581.544 1382.12 581.544 1382.98 580.688L1385.44 578.232V584.427L1384.53 585.335L1379.88 589.981C1379.03 590.837 1379.03 592.223 1379.88 593.079C1380.74 593.934 1382.12 593.934 1382.98 593.079L1385.44 590.623V595.548C1385.44 596.758 1386.42 597.739 1387.63 597.739C1388.84 597.739 1389.82 596.758 1389.82 595.548V590.623L1392.27 593.079C1393.13 593.934 1394.52 593.934 1395.37 593.079C1396.23 592.223 1396.23 590.837 1395.37 589.981L1390.72 585.335L1389.82 584.427V578.232L1392.27 580.688C1393.13 581.544 1394.52 581.544 1395.37 580.688C1396.23 579.833 1396.23 578.446 1395.37 577.59L1390.72 572.944L1389.82 572.037V566.739L1393.56 570.485C1392.71 569.63 1392.71 568.243 1393.56 567.387C1394.42 566.532 1395.81 566.532 1396.66 567.387L1392.91 563.641H1398.21Z" fill="#A2DDFD"/>
</g>
</g>
<g clip-path="url(#clip3_1387_7600)">
<mask id="mask2_1387_7600" style="mask-type:luminance" maskUnits="userSpaceOnUse" x="1002" y="583" width="30" height="30">
<path d="M1002.95 583.227H1031.98V612.257H1002.95V583.227Z" fill="white"/>
</mask>
<g mask="url(#mask2_1387_7600)">
<path d="M1031.11 596.869H1029.14L1030.13 595.887C1030.47 595.545 1030.47 594.99 1030.13 594.648C1029.78 594.306 1029.23 594.306 1028.89 594.648L1026.66 596.869H1024.19L1025.17 595.887C1025.51 595.545 1025.51 594.99 1025.17 594.648C1024.83 594.306 1024.27 594.306 1023.93 594.648L1021.71 596.869H1019.59L1024.59 591.866H1025.11H1027.73C1028.22 591.866 1028.61 591.474 1028.61 590.99V590.99C1028.61 590.506 1028.22 590.114 1027.73 590.114H1026.34L1027.74 588.721C1028.08 588.379 1028.08 587.824 1027.74 587.482C1027.4 587.14 1026.84 587.14 1026.5 587.482L1025.11 588.875V587.486C1025.11 587.002 1024.71 586.609 1024.23 586.609C1023.75 586.609 1023.35 587.002 1023.35 587.486V590.114V590.627L1018.35 595.63V593.511L1018.71 593.148L1020.57 591.29C1020.91 590.948 1020.91 590.393 1020.57 590.051C1020.23 589.709 1019.67 589.709 1019.33 590.051L1018.35 591.033V588.555L1018.71 588.192L1020.57 586.333C1020.91 585.991 1020.91 585.437 1020.57 585.094C1020.23 584.752 1019.67 584.752 1019.33 585.094L1018.35 586.077V584.107C1018.35 583.623 1017.96 583.231 1017.47 583.231C1016.99 583.231 1016.6 583.623 1016.6 584.107V586.077L1015.62 585.094C1015.27 584.752 1014.72 584.752 1014.38 585.094C1014.03 585.437 1014.03 585.991 1014.38 586.333L1016.24 588.192L1016.6 588.555V591.033L1015.62 590.051C1015.27 589.709 1014.72 589.709 1014.38 590.051C1014.03 590.393 1014.03 590.948 1014.38 591.29L1016.24 593.148L1016.6 593.511V595.63L1011.59 590.627V590.114V587.486C1011.59 587.002 1011.2 586.609 1010.72 586.609C1010.23 586.609 1009.84 587.002 1009.84 587.486V588.875L1008.45 587.482C1008.11 587.14 1007.55 587.14 1007.21 587.482C1006.87 587.824 1006.87 588.379 1007.21 588.721L1008.6 590.114H1007.21C1006.73 590.114 1006.34 590.506 1006.34 590.99V590.99C1006.34 591.474 1006.73 591.866 1007.21 591.866H1009.84H1010.36L1015.36 596.869H1013.24L1011.02 594.648C1010.68 594.306 1010.12 594.306 1009.78 594.648C1009.44 594.99 1009.44 595.545 1009.78 595.887L1010.76 596.869H1008.28L1006.06 594.648C1005.72 594.306 1005.17 594.306 1004.82 594.648C1004.48 594.99 1004.48 595.545 1004.82 595.887L1005.81 596.869H1003.84C1003.35 596.869 1002.96 597.262 1002.96 597.746C1002.96 598.23 1003.35 598.622 1003.84 598.622H1005.81L1004.82 599.604C1004.48 599.946 1004.48 600.501 1004.82 600.843C1005.17 601.185 1005.72 601.185 1006.06 600.843L1008.28 598.622H1010.76L1009.78 599.604C1009.44 599.946 1009.44 600.501 1009.78 600.843C1010.12 601.185 1010.68 601.185 1011.02 600.843L1012.88 598.985L1013.24 598.622H1015.36L1010.36 603.625H1009.84H1007.21C1006.73 603.625 1006.34 604.017 1006.34 604.501C1006.34 604.985 1006.73 605.377 1007.21 605.377H1008.6L1007.21 606.77C1006.87 607.112 1006.87 607.667 1007.21 608.009C1007.55 608.352 1008.11 608.352 1008.45 608.009L1009.84 606.616V608.006C1009.84 608.49 1010.23 608.882 1010.72 608.882C1011.2 608.882 1011.59 608.49 1011.59 608.006V605.377V604.864L1016.6 599.861V601.98L1016.24 602.343L1014.38 604.201C1014.03 604.544 1014.03 605.098 1014.38 605.441V605.441C1014.72 605.783 1015.27 605.783 1015.62 605.441L1016.6 604.458V606.936L1016.24 607.299L1014.38 609.158C1014.03 609.5 1014.03 610.055 1014.38 610.397C1014.72 610.739 1015.27 610.739 1015.62 610.397L1016.6 609.414V611.385C1016.6 611.868 1016.99 612.261 1017.47 612.261C1017.96 612.261 1018.35 611.868 1018.35 611.385V609.414L1019.33 610.397C1019.67 610.739 1020.23 610.739 1020.57 610.397C1020.91 610.055 1020.91 609.5 1020.57 609.158L1018.71 607.299L1018.35 606.936V604.458L1019.33 605.441C1019.67 605.783 1020.23 605.783 1020.57 605.441V605.441C1020.91 605.098 1020.91 604.544 1020.57 604.201L1018.71 602.343L1018.35 601.98V599.861L1023.35 604.864V605.377V608.006C1023.35 608.49 1023.75 608.882 1024.23 608.882C1024.71 608.882 1025.11 608.49 1025.11 608.006V606.616L1026.5 608.009C1026.84 608.352 1027.4 608.352 1027.74 608.009C1028.08 607.667 1028.08 607.112 1027.74 606.77L1026.34 605.377H1027.73C1028.22 605.377 1028.61 604.985 1028.61 604.501C1028.61 604.017 1028.22 603.625 1027.73 603.625H1025.11H1024.59L1019.59 598.622H1021.71L1022.07 598.985L1023.93 600.843C1024.27 601.185 1024.83 601.185 1025.17 600.843C1025.51 600.501 1025.51 599.946 1025.17 599.604L1024.19 598.622H1026.66L1028.89 600.843C1029.23 601.185 1029.78 601.185 1030.13 600.843C1030.47 600.501 1030.47 599.946 1030.13 599.604L1029.14 598.622H1031.11C1031.6 598.622 1031.99 598.23 1031.99 597.746C1031.99 597.262 1031.6 596.869 1031.11 596.869Z" fill="#A2DDFD"/>
<path d="M1021.71 598.611C1021.22 598.611 1020.83 598.218 1020.83 597.735C1020.83 597.251 1021.22 596.858 1021.71 596.858H1019.59L1021.09 595.36C1020.75 595.702 1020.19 595.702 1019.85 595.36C1019.51 595.018 1019.51 594.463 1019.85 594.121L1018.35 595.619V593.5L1018.71 593.137L1020.57 591.279C1020.91 590.937 1020.91 590.382 1020.57 590.04C1020.23 589.697 1019.67 589.697 1019.33 590.04L1018.35 591.022V588.544L1018.71 588.181L1020.57 586.322C1020.91 585.98 1020.91 585.425 1020.57 585.083C1020.23 584.741 1019.67 584.741 1019.33 585.083L1018.35 586.066V584.096C1018.35 583.612 1017.96 583.219 1017.47 583.219C1016.99 583.219 1016.6 583.612 1016.6 584.096V586.066L1015.62 585.083C1015.27 584.741 1014.72 584.741 1014.38 585.083C1014.03 585.425 1014.03 585.98 1014.38 586.322L1016.24 588.181L1016.6 588.544V591.022L1015.62 590.04C1015.27 589.697 1014.72 589.697 1014.38 590.04C1014.03 590.382 1014.03 590.937 1014.38 591.279L1016.24 593.137L1016.6 593.5V595.619L1011.59 590.616V590.103V587.475C1011.59 586.991 1011.2 586.598 1010.72 586.598C1010.23 586.598 1009.84 586.991 1009.84 587.475V588.864L1008.45 587.471C1008.11 587.129 1007.55 587.129 1007.21 587.471C1006.87 587.813 1006.87 588.368 1007.21 588.71L1008.6 590.103H1007.21C1006.73 590.103 1006.34 590.495 1006.34 590.979C1006.34 591.463 1006.73 591.855 1007.21 591.855H1009.84H1010.36L1015.36 596.858H1013.24L1011.02 594.637C1010.68 594.295 1010.12 594.295 1009.78 594.637C1009.44 594.979 1009.44 595.534 1009.78 595.876L1010.76 596.858H1008.28L1006.06 594.637C1005.72 594.295 1005.17 594.295 1004.82 594.637C1004.48 594.979 1004.48 595.534 1004.82 595.876L1005.81 596.858H1003.84C1003.35 596.858 1002.96 597.251 1002.96 597.735C1002.96 598.218 1003.35 598.611 1003.84 598.611H1005.81L1004.82 599.593C1004.48 599.935 1004.48 600.49 1004.82 600.832C1005.17 601.174 1005.72 601.174 1006.06 600.832L1008.28 598.611H1010.76L1009.78 599.593C1009.44 599.935 1009.44 600.49 1009.78 600.832C1010.12 601.174 1010.68 601.174 1011.02 600.832L1012.88 598.974L1013.24 598.611H1015.36L1010.36 603.614H1009.84H1007.21C1006.73 603.614 1006.34 604.006 1006.34 604.49C1006.34 604.974 1006.73 605.366 1007.21 605.366H1008.6L1007.21 606.759C1006.87 607.101 1006.87 607.656 1007.21 607.998C1007.55 608.34 1008.11 608.34 1008.45 607.998L1009.84 606.605V607.995C1009.84 608.478 1010.23 608.871 1010.72 608.871C1011.2 608.871 1011.59 608.478 1011.59 607.995V605.366V604.853L1016.6 599.85V601.969L1016.24 602.332L1014.38 604.19C1014.03 604.533 1014.03 605.087 1014.38 605.429C1014.72 605.772 1015.27 605.772 1015.62 605.429L1016.6 604.447V606.925L1016.24 607.288L1014.38 609.147C1014.03 609.489 1014.03 610.044 1014.38 610.386C1014.72 610.728 1015.27 610.728 1015.62 610.386L1016.6 609.403V611.374C1016.6 611.857 1016.99 612.25 1017.47 612.25C1017.96 612.25 1018.35 611.857 1018.35 611.374V609.403L1019.33 610.386C1019.67 610.728 1020.23 610.728 1020.57 610.386C1020.91 610.044 1020.91 609.489 1020.57 609.147L1018.71 607.288L1018.35 606.925V604.447L1019.33 605.429C1019.67 605.772 1020.23 605.772 1020.57 605.429C1020.91 605.087 1020.91 604.533 1020.57 604.19L1018.71 602.332L1018.35 601.969V599.85L1019.85 601.348C1019.51 601.006 1019.51 600.451 1019.85 600.109C1020.19 599.767 1020.75 599.767 1021.09 600.109L1019.59 598.611H1021.71Z" fill="#A2DDFD"/>
</g>
</g>
<g clip-path="url(#clip4_1387_7600)">
<mask id="mask3_1387_7600" style="mask-type:luminance" maskUnits="userSpaceOnUse" x="857" y="597" width="30" height="30">
<path d="M857.809 597.748H886.839V626.778H857.809V597.748Z" fill="white"/>
</mask>
<g mask="url(#mask3_1387_7600)">
<path d="M885.96 611.386H883.99L884.972 610.404C885.314 610.062 885.314 609.507 884.972 609.165C884.63 608.823 884.075 608.823 883.733 609.165L881.511 611.386H879.033L880.016 610.404C880.358 610.062 880.358 609.507 880.016 609.165C879.674 608.823 879.119 608.823 878.777 609.165L876.555 611.386H874.436L879.439 606.383H879.952H882.581C883.065 606.383 883.457 605.991 883.457 605.507V605.507C883.457 605.023 883.065 604.631 882.581 604.631H881.191L882.585 603.238C882.927 602.896 882.927 602.341 882.585 601.999C882.242 601.657 881.688 601.657 881.346 601.999L879.952 603.392V602.002C879.952 601.519 879.56 601.126 879.076 601.126C878.592 601.126 878.2 601.519 878.2 602.002V604.631V605.144L873.197 610.147V608.028L873.56 607.665L875.419 605.807C875.761 605.464 875.761 604.91 875.419 604.568C875.076 604.225 874.522 604.225 874.179 604.568L873.197 605.55V603.072L873.56 602.709L875.419 600.85C875.761 600.508 875.761 599.953 875.419 599.611C875.076 599.269 874.522 599.269 874.179 599.611L873.197 600.594V598.624C873.197 598.14 872.805 597.747 872.321 597.747C871.837 597.747 871.445 598.14 871.445 598.624V600.594L870.462 599.611C870.12 599.269 869.565 599.269 869.223 599.611C868.881 599.953 868.881 600.508 869.223 600.85L871.082 602.709L871.445 603.072V605.55L870.462 604.568C870.12 604.225 869.565 604.225 869.223 604.568C868.881 604.91 868.881 605.464 869.223 605.807L871.082 607.665L871.445 608.028V610.147L866.442 605.144V604.631V602.002C866.442 601.519 866.049 601.126 865.565 601.126C865.082 601.126 864.689 601.519 864.689 602.002V603.392L863.296 601.999C862.954 601.657 862.399 601.657 862.057 601.999C861.715 602.341 861.715 602.896 862.057 603.238L863.45 604.631H862.061C861.577 604.631 861.185 605.023 861.185 605.507V605.507C861.185 605.991 861.577 606.383 862.061 606.383H864.689H865.203L870.206 611.386H868.086L865.865 609.165C865.523 608.823 864.968 608.823 864.626 609.165C864.284 609.507 864.284 610.062 864.626 610.404L865.608 611.386H863.13L860.909 609.165C860.566 608.823 860.012 608.823 859.67 609.165C859.327 609.507 859.327 610.062 859.67 610.404L860.652 611.386H858.682C858.198 611.386 857.806 611.779 857.806 612.262C857.806 612.746 858.198 613.139 858.682 613.139H860.652L859.67 614.121C859.327 614.463 859.327 615.018 859.67 615.36C860.012 615.702 860.566 615.702 860.909 615.36L863.13 613.139H865.608L864.626 614.121C864.284 614.463 864.284 615.018 864.626 615.36C864.968 615.702 865.523 615.702 865.865 615.36L867.724 613.502L868.086 613.139H870.206L865.203 618.142H864.689H862.061C861.577 618.142 861.185 618.534 861.185 619.018C861.185 619.502 861.577 619.894 862.061 619.894H863.45L862.057 621.287C861.715 621.629 861.715 622.184 862.057 622.526C862.399 622.868 862.954 622.868 863.296 622.526L864.689 621.133V622.523C864.689 623.006 865.082 623.399 865.565 623.399C866.049 623.399 866.442 623.006 866.442 622.523V619.894V619.381L871.445 614.378V616.497L871.082 616.86L869.223 618.718C868.881 619.06 868.881 619.615 869.223 619.957V619.957C869.565 620.3 870.12 620.3 870.462 619.957L871.445 618.975V621.453L871.082 621.816L869.223 623.675C868.881 624.017 868.881 624.572 869.223 624.914C869.565 625.256 870.12 625.256 870.462 624.914L871.445 623.931V625.901C871.445 626.385 871.837 626.778 872.321 626.778C872.805 626.778 873.197 626.385 873.197 625.901V623.931L874.179 624.914C874.522 625.256 875.076 625.256 875.419 624.914C875.761 624.572 875.761 624.017 875.419 623.675L873.56 621.816L873.197 621.453V618.975L874.179 619.957C874.522 620.3 875.076 620.3 875.419 619.957V619.957C875.761 619.615 875.761 619.06 875.419 618.718L873.56 616.86L873.197 616.497V614.378L878.2 619.381V619.894V622.523C878.2 623.006 878.592 623.399 879.076 623.399C879.56 623.399 879.952 623.006 879.952 622.523V621.133L881.346 622.526C881.688 622.868 882.242 622.868 882.585 622.526C882.927 622.184 882.927 621.629 882.585 621.287L881.191 619.894H882.581C883.065 619.894 883.457 619.502 883.457 619.018C883.457 618.534 883.065 618.142 882.581 618.142H879.952H879.439L874.436 613.139H876.555L876.918 613.502L878.777 615.36C879.119 615.702 879.674 615.702 880.016 615.36C880.358 615.018 880.358 614.463 880.016 614.121L879.033 613.139H881.511L883.733 615.36C884.075 615.702 884.63 615.702 884.972 615.36C885.314 615.018 885.314 614.463 884.972 614.121L883.99 613.139H885.96C886.444 613.139 886.836 612.746 886.836 612.262C886.836 611.779 886.444 611.386 885.96 611.386Z" fill="#D2F0FF"/>
<path d="M876.555 613.138C876.071 613.138 875.679 612.746 875.679 612.262C875.679 611.778 876.071 611.386 876.555 611.386H874.436L875.934 609.887C875.592 610.23 875.038 610.23 874.695 609.887C874.353 609.545 874.353 608.991 874.695 608.648L873.197 610.147V608.028L873.56 607.665L875.419 605.806C875.761 605.464 875.761 604.909 875.419 604.567C875.076 604.225 874.522 604.225 874.179 604.567L873.197 605.55V603.071L873.56 602.708L875.419 600.85C875.761 600.508 875.761 599.953 875.419 599.611C875.076 599.269 874.522 599.269 874.179 599.611L873.197 600.593V598.623C873.197 598.139 872.805 597.747 872.321 597.747C871.837 597.747 871.445 598.139 871.445 598.623V600.593L870.462 599.611C870.12 599.269 869.565 599.269 869.223 599.611C868.881 599.953 868.881 600.508 869.223 600.85L871.082 602.708L871.445 603.071V605.55L870.462 604.567C870.12 604.225 869.565 604.225 869.223 604.567C868.881 604.909 868.881 605.464 869.223 605.806L871.082 607.665L871.445 608.028V610.147L866.442 605.144V604.63V602.002C866.442 601.518 866.049 601.126 865.565 601.126C865.082 601.126 864.689 601.518 864.689 602.002V603.391L863.296 601.998C862.954 601.656 862.399 601.656 862.057 601.998C861.715 602.34 861.715 602.895 862.057 603.237L863.45 604.63H862.061C861.577 604.63 861.185 605.023 861.185 605.507C861.185 605.991 861.577 606.383 862.061 606.383H864.689H865.203L870.206 611.386H868.086L865.865 609.164C865.523 608.822 864.968 608.822 864.626 609.164C864.284 609.506 864.284 610.061 864.626 610.403L865.608 611.386H863.13L860.909 609.164C860.566 608.822 860.012 608.822 859.67 609.164C859.327 609.506 859.327 610.061 859.67 610.403L860.652 611.386H858.682C858.198 611.386 857.806 611.778 857.806 612.262C857.806 612.746 858.198 613.138 858.682 613.138H860.652L859.67 614.121C859.327 614.463 859.327 615.018 859.67 615.36C860.012 615.702 860.566 615.702 860.909 615.36L863.13 613.138H865.608L864.626 614.121C864.284 614.463 864.284 615.018 864.626 615.36C864.968 615.702 865.523 615.702 865.865 615.36L867.724 613.501L868.086 613.138H870.206L865.203 618.141H864.689H862.061C861.577 618.141 861.185 618.533 861.185 619.017C861.185 619.501 861.577 619.894 862.061 619.894H863.45L862.057 621.287C861.715 621.629 861.715 622.184 862.057 622.526C862.399 622.868 862.954 622.868 863.296 622.526L864.689 621.133V622.522C864.689 623.006 865.082 623.398 865.565 623.398C866.049 623.398 866.442 623.006 866.442 622.522V619.894V619.38L871.445 614.377V616.496L871.082 616.859L869.223 618.718C868.881 619.06 868.881 619.615 869.223 619.957C869.565 620.299 870.12 620.299 870.462 619.957L871.445 618.974V621.453L871.082 621.816L869.223 623.674C868.881 624.016 868.881 624.571 869.223 624.913C869.565 625.255 870.12 625.255 870.462 624.913L871.445 623.931V625.901C871.445 626.385 871.837 626.777 872.321 626.777C872.805 626.777 873.197 626.385 873.197 625.901V623.931L874.179 624.913C874.522 625.255 875.076 625.255 875.419 624.913C875.761 624.571 875.761 624.016 875.419 623.674L873.56 621.816L873.197 621.453V618.974L874.179 619.957C874.522 620.299 875.076 620.299 875.419 619.957C875.761 619.615 875.761 619.06 875.419 618.718L873.56 616.859L873.197 616.496V614.377L874.695 615.876C874.353 615.534 874.353 614.979 874.695 614.637C875.038 614.294 875.592 614.294 875.934 614.637L874.436 613.138H876.555Z" fill="#D2F0FF"/>
</g>
</g>
<path d="M1347.94 625.028C1350.18 625.028 1352 623.43 1352 621.459C1352 619.487 1350.18 617.889 1347.94 617.889C1345.69 617.889 1343.87 619.487 1343.87 621.459C1343.87 623.43 1345.69 625.028 1347.94 625.028Z" fill="#E8F7FF"/>
<path d="M1068.58 576.033L1068.66 575.956C1069.46 575.259 1069.46 574.13 1068.66 573.433C1067.87 572.735 1066.58 572.735 1065.79 573.433L1065.7 573.509L1065.61 573.433C1064.82 572.735 1063.53 572.735 1062.74 573.433C1061.95 574.13 1061.95 575.259 1062.74 575.956L1062.83 576.033L1062.74 576.11C1061.95 576.807 1061.95 577.936 1062.74 578.634C1063.14 578.982 1063.66 579.157 1064.18 579.157C1064.7 579.157 1065.22 578.982 1065.61 578.634L1065.7 578.557L1065.79 578.634C1066.19 578.982 1066.71 579.157 1067.23 579.157C1067.75 579.157 1068.27 578.982 1068.66 578.634C1069.46 577.936 1069.46 576.807 1068.66 576.11L1068.58 576.033Z" fill="#D2F0FF"/>
<path d="M1406.72 678.046L1406.81 677.969C1407.6 677.272 1407.6 676.143 1406.81 675.446C1406.01 674.748 1404.73 674.748 1403.93 675.446L1403.85 675.522L1403.76 675.446C1402.97 674.748 1401.68 674.748 1400.89 675.446C1400.09 676.143 1400.09 677.272 1400.89 677.969L1400.97 678.046L1400.89 678.123C1400.09 678.82 1400.09 679.949 1400.89 680.647C1401.28 680.995 1401.8 681.169 1402.32 681.169C1402.84 681.169 1403.36 680.995 1403.76 680.647L1403.85 680.57L1403.93 680.647C1404.33 680.995 1404.85 681.169 1405.37 681.169C1405.89 681.169 1406.41 680.995 1406.81 680.647C1407.6 679.949 1407.6 678.82 1406.81 678.123L1406.72 678.046Z" fill="#D2F0FF"/>
<path d="M1250.79 678.492H1248.76V676.707C1248.76 675.722 1247.85 674.923 1246.72 674.923C1245.6 674.923 1244.69 675.722 1244.69 676.707V678.492H1242.66C1241.54 678.492 1240.63 679.291 1240.63 680.277C1240.63 681.263 1241.54 682.062 1242.66 682.062H1244.69V683.847C1244.69 684.832 1245.6 685.632 1246.72 685.632C1247.85 685.632 1248.76 684.832 1248.76 683.847V682.062H1250.79C1251.91 682.062 1252.82 681.263 1252.82 680.277C1252.82 679.291 1251.91 678.492 1250.79 678.492Z" fill="#D2F0FF"/>
<path d="M945.978 649.461H943.946V647.676C943.946 646.69 943.037 645.891 941.913 645.891C940.79 645.891 939.881 646.69 939.881 647.676V649.461H937.848C936.725 649.461 935.815 650.26 935.815 651.245C935.815 652.231 936.725 653.03 937.848 653.03H939.881V654.815C939.881 655.801 940.79 656.6 941.913 656.6C943.037 656.6 943.946 655.801 943.946 654.815V653.03H945.978C947.102 653.03 948.011 652.231 948.011 651.245C948.011 650.26 947.102 649.461 945.978 649.461Z" fill="#D2F0FF"/>
<path d="M1043.85 518.377L1043.94 518.301C1044.73 517.603 1044.73 516.474 1043.94 515.777C1043.14 515.079 1041.86 515.079 1041.06 515.777L1040.97 515.853L1040.89 515.777C1040.09 515.079 1038.81 515.079 1038.01 515.777C1037.22 516.474 1037.22 517.603 1038.01 518.301L1038.1 518.377L1038.01 518.454C1037.22 519.151 1037.22 520.28 1038.01 520.978C1038.41 521.326 1038.93 521.501 1039.45 521.501C1039.97 521.501 1040.49 521.326 1040.89 520.978L1040.97 520.901L1041.06 520.978C1041.46 521.326 1041.98 521.501 1042.5 521.501C1043.02 521.501 1043.54 521.326 1043.94 520.978C1044.73 520.28 1044.73 519.151 1043.94 518.454L1043.85 518.377Z" fill="#D2F0FF"/>
<path d="M1222.25 609.77L1222.34 609.846C1223.13 610.544 1223.13 611.673 1222.34 612.37C1221.55 613.068 1220.26 613.068 1219.47 612.37L1219.38 612.294L1219.29 612.37C1218.5 613.068 1217.21 613.068 1216.42 612.37C1215.62 611.673 1215.62 610.544 1216.42 609.846L1216.5 609.77L1216.42 609.693C1215.62 608.996 1215.62 607.867 1216.42 607.169C1216.81 606.821 1217.33 606.646 1217.85 606.646C1218.37 606.646 1218.89 606.821 1219.29 607.169L1219.38 607.246L1219.47 607.169C1219.86 606.821 1220.38 606.646 1220.9 606.646C1221.42 606.646 1221.94 606.821 1222.34 607.169C1223.13 607.867 1223.13 608.996 1222.34 609.693L1222.25 609.77Z" fill="#D2F0FF"/>
<path d="M901.235 535.128L903.863 532.82C904.657 532.123 904.657 530.994 903.863 530.296C903.069 529.599 901.783 529.599 900.989 530.296L898.36 532.604L895.732 530.296C894.938 529.599 893.652 529.599 892.858 530.296C892.064 530.994 892.064 532.123 892.858 532.82L895.486 535.128L892.858 537.436C892.064 538.133 892.064 539.262 892.858 539.96C893.255 540.308 893.775 540.483 894.295 540.483C894.815 540.483 895.335 540.308 895.732 539.96L898.36 537.652L900.989 539.96C901.385 540.308 901.906 540.483 902.426 540.483C902.946 540.483 903.466 540.308 903.863 539.96C904.657 539.262 904.657 538.133 903.863 537.436L901.235 535.128Z" fill="#D2F0FF"/>
<path d="M1379.64 497.768H1377.61V495.983C1377.61 494.998 1376.7 494.198 1375.58 494.198C1374.45 494.198 1373.55 494.998 1373.55 495.983V497.768H1371.51C1370.39 497.768 1369.48 498.567 1369.48 499.553C1369.48 500.539 1370.39 501.338 1371.51 501.338H1373.55V503.123C1373.55 504.108 1374.45 504.907 1375.58 504.907C1376.7 504.907 1377.61 504.108 1377.61 503.123V501.338H1379.64C1380.77 501.338 1381.68 500.539 1381.68 499.553C1381.68 498.567 1380.77 497.768 1379.64 497.768Z" fill="#D2F0FF"/>
<path d="M954.386 580.457C956.632 580.457 958.452 578.859 958.452 576.888C958.452 574.916 956.632 573.318 954.386 573.318C952.141 573.318 950.321 574.916 950.321 576.888C950.321 578.859 952.141 580.457 954.386 580.457Z" fill="#E8F7FF"/>
<path d="M1296.72 523.824C1298.97 523.824 1300.79 522.225 1300.79 520.254C1300.79 518.283 1298.97 516.684 1296.72 516.684C1294.48 516.684 1292.66 518.283 1292.66 520.254C1292.66 522.225 1294.48 523.824 1296.72 523.824Z" fill="#E8F7FF"/>
<path d="M1174.75 568.803H1172.72V570.587C1172.72 571.573 1171.81 572.372 1170.69 572.372C1169.57 572.372 1168.66 571.573 1168.66 570.587V568.803H1166.62C1165.5 568.803 1164.59 568.003 1164.59 567.018C1164.59 566.032 1165.5 565.233 1166.62 565.233H1168.66V563.448C1168.66 562.462 1169.57 561.663 1170.69 561.663C1171.81 561.663 1172.72 562.462 1172.72 563.448V565.233H1174.75C1175.88 565.233 1176.79 566.032 1176.79 567.018C1176.79 568.003 1175.88 568.803 1174.75 568.803Z" fill="#D2F0FF"/>
<path d="M1168.66 643.947C1170.9 643.947 1172.72 645.546 1172.72 647.517C1172.72 649.488 1170.9 651.087 1168.66 651.087C1166.41 651.087 1164.59 649.488 1164.59 647.517C1164.59 645.546 1166.41 643.947 1168.66 643.947Z" fill="#E8F7FF"/>
<g clip-path="url(#clip5_1387_7600)">
<mask id="mask4_1387_7600" style="mask-type:luminance" maskUnits="userSpaceOnUse" x="1066" y="631" width="70" height="70">
<path d="M1078.82 631.376L1135.55 643.739L1123.19 700.467L1066.46 688.105L1078.82 631.376Z" fill="white"/>
</mask>
<g mask="url(#mask4_1387_7600)">
<path d="M1128.03 670.015L1124.18 669.176L1126.52 667.675C1127.33 667.152 1127.57 666.068 1127.05 665.254C1126.52 664.439 1125.44 664.203 1124.63 664.726L1119.34 668.121L1114.5 667.066L1116.83 665.564C1117.65 665.041 1117.89 663.957 1117.36 663.143C1116.84 662.328 1115.76 662.092 1114.94 662.615L1109.65 666.01L1105.51 665.108L1117.42 657.462L1118.42 657.68L1123.56 658.8C1124.5 659.006 1125.44 658.406 1125.64 657.461L1125.64 657.461C1125.85 656.515 1125.25 655.582 1124.31 655.376L1121.59 654.784L1124.91 652.655C1125.72 652.132 1125.96 651.048 1125.43 650.233C1124.91 649.419 1123.83 649.183 1123.01 649.706L1119.7 651.835L1120.29 649.12C1120.49 648.174 1119.89 647.241 1118.95 647.034C1118 646.828 1117.07 647.428 1116.86 648.373L1115.74 653.51L1115.53 654.513L1103.62 662.159L1104.52 658.018L1105.39 657.463L1109.81 654.623C1110.62 654.1 1110.86 653.016 1110.34 652.201C1109.81 651.387 1108.73 651.151 1107.91 651.674L1105.58 653.175L1106.63 648.333L1107.5 647.778L1111.92 644.938C1112.73 644.415 1112.97 643.331 1112.45 642.516C1111.92 641.702 1110.84 641.466 1110.03 641.988L1107.69 643.49L1108.53 639.64C1108.73 638.694 1108.13 637.761 1107.19 637.555C1106.24 637.349 1105.31 637.948 1105.1 638.894L1104.26 642.744L1102.76 640.405C1102.24 639.591 1101.15 639.355 1100.34 639.878C1099.53 640.401 1099.29 641.485 1099.81 642.299L1102.65 646.723L1103.21 647.586L1102.15 652.429L1100.65 650.091C1100.13 649.276 1099.04 649.04 1098.23 649.563C1097.42 650.086 1097.18 651.17 1097.7 651.984L1100.54 656.408L1101.1 657.272L1100.19 661.413L1092.55 649.505L1092.77 648.502L1093.89 643.366C1094.09 642.42 1093.49 641.487 1092.55 641.281C1091.6 641.075 1090.67 641.674 1090.46 642.62L1089.87 645.335L1087.74 642.019C1087.22 641.205 1086.13 640.969 1085.32 641.492C1084.51 642.015 1084.27 643.099 1084.79 643.913L1086.92 647.229L1084.21 646.637C1083.26 646.431 1082.33 647.03 1082.12 647.976L1082.12 647.976C1081.92 648.921 1082.51 649.855 1083.46 650.061L1088.6 651.18L1089.6 651.399L1097.25 663.306L1093.1 662.404L1089.71 657.117C1089.19 656.302 1088.1 656.066 1087.29 656.589C1086.47 657.112 1086.24 658.196 1086.76 659.01L1088.26 661.348L1083.42 660.293L1080.02 655.006C1079.5 654.191 1078.42 653.955 1077.6 654.478C1076.79 655.001 1076.55 656.085 1077.08 656.9L1078.58 659.238L1074.73 658.399C1073.78 658.193 1072.85 658.792 1072.64 659.738C1072.44 660.683 1073.03 661.617 1073.98 661.823L1077.83 662.662L1075.49 664.164C1074.68 664.686 1074.44 665.771 1074.96 666.585C1075.49 667.399 1076.57 667.635 1077.39 667.113L1082.67 663.717L1087.52 664.773L1085.18 666.274C1084.36 666.797 1084.13 667.881 1084.65 668.696C1085.17 669.51 1086.26 669.746 1087.07 669.223L1091.49 666.383L1092.36 665.828L1096.5 666.731L1084.59 674.377L1083.59 674.158L1078.45 673.039C1077.51 672.833 1076.57 673.432 1076.37 674.378C1076.16 675.323 1076.76 676.257 1077.71 676.463L1080.42 677.055L1077.11 679.184C1076.29 679.707 1076.06 680.791 1076.58 681.605C1077.1 682.419 1078.19 682.656 1079 682.133L1082.32 680.004L1081.72 682.719C1081.52 683.664 1082.12 684.598 1083.06 684.804C1084.01 685.01 1084.94 684.411 1085.15 683.465L1086.27 678.329L1086.49 677.326L1098.39 669.68L1097.49 673.82L1096.63 674.375L1092.2 677.216C1091.39 677.739 1091.15 678.823 1091.68 679.637L1091.68 679.637C1092.2 680.451 1093.28 680.687 1094.1 680.165L1096.44 678.663L1095.38 683.506L1094.52 684.06L1090.09 686.901C1089.28 687.424 1089.04 688.508 1089.56 689.322C1090.09 690.137 1091.17 690.373 1091.99 689.85L1094.32 688.348L1093.49 692.198C1093.28 693.144 1093.88 694.078 1094.82 694.284C1095.77 694.49 1096.7 693.89 1096.91 692.945L1097.75 689.095L1099.25 691.433C1099.77 692.247 1100.86 692.484 1101.67 691.961C1102.49 691.438 1102.72 690.354 1102.2 689.539L1099.36 685.116L1098.8 684.252L1099.86 679.409L1101.36 681.748C1101.88 682.562 1102.97 682.798 1103.78 682.275L1103.78 682.275C1104.6 681.752 1104.83 680.668 1104.31 679.854L1101.47 675.43L1100.91 674.567L1101.82 670.426L1109.46 682.333L1109.24 683.336L1108.13 688.472C1107.92 689.418 1108.52 690.352 1109.46 690.558C1110.41 690.764 1111.34 690.164 1111.55 689.219L1112.14 686.504L1114.27 689.819C1114.79 690.634 1115.88 690.87 1116.69 690.347C1117.51 689.824 1117.74 688.74 1117.22 687.926L1115.09 684.61L1117.81 685.202C1118.75 685.408 1119.68 684.808 1119.89 683.863C1120.1 682.917 1119.5 681.983 1118.55 681.777L1113.42 680.658L1112.41 680.439L1104.77 668.532L1108.91 669.435L1109.46 670.298L1112.3 674.722C1112.83 675.536 1113.91 675.772 1114.72 675.249C1115.54 674.727 1115.77 673.643 1115.25 672.828L1113.75 670.49L1118.59 671.545L1121.99 676.832C1122.51 677.647 1123.59 677.883 1124.41 677.36C1125.22 676.837 1125.46 675.753 1124.94 674.939L1123.44 672.601L1127.29 673.44C1128.23 673.646 1129.16 673.046 1129.37 672.101C1129.58 671.155 1128.98 670.221 1128.03 670.015Z" fill="#D2F0FF"/>
<path d="M1108.91 669.435C1107.96 669.229 1107.36 668.295 1107.57 667.349C1107.77 666.404 1108.71 665.804 1109.65 666.01L1105.51 665.108L1109.08 662.818C1108.26 663.341 1107.18 663.105 1106.66 662.29C1106.13 661.476 1106.37 660.392 1107.19 659.869L1103.62 662.159L1104.52 658.018L1105.39 657.463L1109.81 654.623C1110.62 654.1 1110.86 653.016 1110.34 652.201C1109.81 651.387 1108.73 651.151 1107.91 651.674L1105.58 653.175L1106.63 648.333L1107.5 647.778L1111.92 644.938C1112.73 644.415 1112.97 643.331 1112.45 642.516C1111.92 641.702 1110.84 641.466 1110.03 641.989L1107.69 643.49L1108.53 639.64C1108.73 638.695 1108.13 637.761 1107.19 637.555C1106.24 637.349 1105.31 637.948 1105.1 638.894L1104.26 642.744L1102.76 640.406C1102.24 639.591 1101.15 639.355 1100.34 639.878C1099.53 640.401 1099.29 641.485 1099.81 642.299L1102.65 646.723L1103.21 647.586L1102.15 652.429L1100.65 650.091C1100.13 649.277 1099.04 649.04 1098.23 649.563C1097.42 650.086 1097.18 651.17 1097.7 651.985L1100.54 656.408L1101.1 657.272L1100.19 661.413L1092.55 649.505L1092.77 648.502L1093.89 643.366C1094.09 642.42 1093.49 641.487 1092.55 641.281C1091.6 641.075 1090.67 641.674 1090.46 642.62L1089.87 645.335L1087.74 642.019C1087.22 641.205 1086.13 640.969 1085.32 641.492C1084.51 642.015 1084.27 643.099 1084.79 643.913L1086.92 647.229L1084.21 646.637C1083.26 646.431 1082.33 647.03 1082.12 647.976C1081.92 648.921 1082.51 649.855 1083.46 650.061L1088.6 651.181L1089.6 651.399L1097.25 663.306L1093.1 662.404L1089.71 657.117C1089.19 656.302 1088.1 656.066 1087.29 656.589C1086.47 657.112 1086.24 658.196 1086.76 659.01L1088.26 661.349L1083.42 660.293L1080.02 655.006C1079.5 654.192 1078.42 653.955 1077.6 654.478C1076.79 655.001 1076.55 656.085 1077.08 656.9L1078.58 659.238L1074.73 658.399C1073.78 658.193 1072.85 658.792 1072.64 659.738C1072.44 660.684 1073.03 661.617 1073.98 661.823L1077.83 662.662L1075.49 664.164C1074.68 664.686 1074.44 665.771 1074.96 666.585C1075.49 667.399 1076.57 667.636 1077.39 667.113L1082.67 663.717L1087.52 664.773L1085.18 666.274C1084.36 666.797 1084.13 667.881 1084.65 668.696C1085.17 669.51 1086.26 669.746 1087.07 669.223L1091.49 666.383L1092.36 665.828L1096.5 666.731L1084.59 674.377L1083.59 674.158L1078.45 673.039C1077.51 672.833 1076.57 673.432 1076.37 674.378C1076.16 675.323 1076.76 676.257 1077.71 676.463L1080.42 677.055L1077.11 679.184C1076.29 679.707 1076.06 680.791 1076.58 681.605C1077.1 682.419 1078.19 682.656 1079 682.133L1082.32 680.004L1081.72 682.719C1081.52 683.664 1082.12 684.598 1083.06 684.804C1084.01 685.01 1084.94 684.411 1085.15 683.465L1086.27 678.329L1086.49 677.326L1098.39 669.68L1097.49 673.821L1096.63 674.375L1092.2 677.216C1091.39 677.739 1091.15 678.823 1091.68 679.637C1092.2 680.451 1093.28 680.688 1094.1 680.165L1096.44 678.663L1095.38 683.506L1094.52 684.06L1090.09 686.901C1089.28 687.424 1089.04 688.508 1089.56 689.322C1090.09 690.137 1091.17 690.373 1091.99 689.85L1094.32 688.348L1093.49 692.199C1093.28 693.144 1093.88 694.078 1094.82 694.284C1095.77 694.49 1096.7 693.89 1096.91 692.945L1097.75 689.095L1099.25 691.433C1099.77 692.247 1100.86 692.484 1101.67 691.961C1102.49 691.438 1102.72 690.354 1102.2 689.539L1099.36 685.116L1098.8 684.252L1099.86 679.409L1101.36 681.748C1101.88 682.562 1102.97 682.798 1103.78 682.275C1104.6 681.752 1104.83 680.668 1104.31 679.854L1101.47 675.43L1100.91 674.567L1101.82 670.426L1104.11 673.992C1103.58 673.178 1103.82 672.094 1104.63 671.571C1105.45 671.048 1106.53 671.284 1107.06 672.098L1104.77 668.532L1108.91 669.435Z" fill="#D2F0FF"/>
</g>
</g>
<path d="M1012.46 667.548C1014.7 667.548 1016.52 665.95 1016.52 663.979C1016.52 662.007 1014.7 660.409 1012.46 660.409C1010.21 660.409 1008.39 662.007 1008.39 663.979C1008.39 665.95 1010.21 667.548 1012.46 667.548Z" fill="#E8F7FF"/>
<mask id="mask5_1387_7600" style="mask-type:luminance" maskUnits="userSpaceOnUse" x="1261" y="566" width="35" height="35">
<path d="M1261.72 571.753L1290.21 566.186L1295.78 594.678L1267.29 600.245L1261.72 571.753Z" fill="white"/>
</mask>
<g mask="url(#mask5_1387_7600)">
<path d="M1291.97 579.74L1290.03 580.118L1290.81 578.965C1291.08 578.564 1290.97 578.019 1290.57 577.749C1290.17 577.479 1289.63 577.585 1289.36 577.986L1287.6 580.593L1285.17 581.068L1285.95 579.915C1286.22 579.514 1286.11 578.97 1285.71 578.699C1285.31 578.429 1284.76 578.535 1284.49 578.937L1282.74 581.543L1280.66 581.95L1284.61 576.08L1285.11 575.982L1287.69 575.478C1288.17 575.385 1288.48 574.925 1288.38 574.45L1288.38 574.45C1288.29 573.975 1287.83 573.665 1287.36 573.758L1285.99 574.024L1287.09 572.39C1287.36 571.988 1287.26 571.444 1286.86 571.174C1286.45 570.904 1285.91 571.01 1285.64 571.411L1284.54 573.046L1284.27 571.682C1284.18 571.207 1283.72 570.897 1283.24 570.99C1282.77 571.083 1282.46 571.543 1282.55 572.018L1283.06 574.598L1283.16 575.102L1279.2 580.971L1278.8 578.891L1279.08 578.466L1280.55 576.285C1280.82 575.884 1280.72 575.339 1280.31 575.069C1279.91 574.799 1279.37 574.905 1279.1 575.307L1278.32 576.459L1277.85 574.027L1278.13 573.601L1279.6 571.421C1279.87 571.019 1279.77 570.475 1279.36 570.205C1278.96 569.934 1278.42 570.041 1278.15 570.442L1277.37 571.595L1276.99 569.661C1276.9 569.186 1276.44 568.877 1275.97 568.969C1275.49 569.062 1275.18 569.522 1275.27 569.997L1275.65 571.931L1274.5 571.155C1274.1 570.885 1273.55 570.991 1273.28 571.393C1273.01 571.794 1273.12 572.339 1273.52 572.609L1275.7 574.077L1276.13 574.363L1276.6 576.795L1275.45 576.019C1275.05 575.749 1274.5 575.856 1274.23 576.257C1273.96 576.659 1274.07 577.203 1274.47 577.473L1276.65 578.941L1277.08 579.227L1277.48 581.307L1271.62 577.356L1271.52 576.853L1271.01 574.273C1270.92 573.798 1270.46 573.488 1269.98 573.581C1269.51 573.674 1269.2 574.134 1269.29 574.609L1269.56 575.973L1267.92 574.873C1267.52 574.602 1266.98 574.709 1266.71 575.11C1266.44 575.512 1266.55 576.056 1266.95 576.326L1268.58 577.426L1267.22 577.693C1266.74 577.786 1266.43 578.246 1266.53 578.721L1266.53 578.721C1266.62 579.196 1267.08 579.505 1267.55 579.413L1270.13 578.909L1270.64 578.81L1276.51 582.761L1274.43 583.167L1271.82 581.413C1271.42 581.143 1270.87 581.249 1270.6 581.651C1270.33 582.052 1270.44 582.596 1270.84 582.867L1271.99 583.642L1269.56 584.118L1266.96 582.363C1266.55 582.093 1266.01 582.2 1265.74 582.601C1265.47 583.002 1265.58 583.547 1265.98 583.817L1267.13 584.593L1265.2 584.971C1264.72 585.064 1264.41 585.524 1264.5 585.999C1264.6 586.474 1265.06 586.783 1265.53 586.691L1267.47 586.313L1266.69 587.465C1266.42 587.867 1266.53 588.411 1266.93 588.681C1267.33 588.952 1267.87 588.845 1268.14 588.444L1269.9 585.837L1272.33 585.362L1271.55 586.515C1271.28 586.916 1271.39 587.461 1271.79 587.731C1272.19 588.001 1272.74 587.895 1273.01 587.493L1274.48 585.313L1274.76 584.887L1276.84 584.481L1272.89 590.35L1272.39 590.449L1269.81 590.953C1269.33 591.046 1269.02 591.506 1269.12 591.981C1269.21 592.456 1269.67 592.765 1270.14 592.673L1271.51 592.406L1270.41 594.041C1270.14 594.442 1270.24 594.986 1270.65 595.257C1271.05 595.527 1271.59 595.42 1271.86 595.019L1272.96 593.385L1273.23 594.748C1273.32 595.223 1273.78 595.533 1274.26 595.44C1274.73 595.347 1275.04 594.887 1274.95 594.412L1274.44 591.833L1274.35 591.329L1278.3 585.459L1278.7 587.539L1278.42 587.965L1276.95 590.145C1276.68 590.547 1276.78 591.091 1277.19 591.361L1277.19 591.361C1277.59 591.631 1278.13 591.525 1278.4 591.124L1279.18 589.971L1279.65 592.403L1279.37 592.829L1277.9 595.01C1277.63 595.411 1277.73 595.955 1278.14 596.226C1278.54 596.496 1279.08 596.389 1279.35 595.988L1280.13 594.835L1280.51 596.769C1280.6 597.244 1281.06 597.554 1281.53 597.461C1282.01 597.368 1282.32 596.908 1282.23 596.433L1281.85 594.499L1283 595.275C1283.4 595.545 1283.95 595.439 1284.22 595.038C1284.49 594.636 1284.38 594.092 1283.98 593.822L1281.8 592.354L1281.37 592.067L1280.9 589.635L1282.05 590.411C1282.45 590.681 1283 590.575 1283.27 590.173L1283.27 590.173C1283.54 589.772 1283.43 589.227 1283.03 588.957L1280.85 587.489L1280.42 587.203L1280.02 585.123L1285.89 589.074L1285.98 589.578L1286.49 592.157C1286.58 592.632 1287.04 592.942 1287.52 592.849C1287.99 592.756 1288.3 592.296 1288.21 591.821L1287.94 590.458L1289.58 591.558C1289.98 591.828 1290.52 591.722 1290.79 591.32C1291.06 590.919 1290.96 590.374 1290.55 590.104L1288.92 589.004L1290.28 588.738C1290.76 588.645 1291.07 588.185 1290.98 587.71C1290.88 587.235 1290.42 586.925 1289.95 587.018L1287.37 587.522L1286.86 587.62L1280.99 583.669L1283.07 583.263L1283.5 583.55L1285.68 585.017C1286.08 585.288 1286.63 585.181 1286.9 584.78C1287.17 584.378 1287.06 583.834 1286.66 583.564L1285.51 582.788L1287.94 582.313L1290.54 584.067C1290.95 584.337 1291.49 584.231 1291.76 583.829C1292.03 583.428 1291.92 582.883 1291.52 582.613L1290.37 581.837L1292.3 581.46C1292.78 581.367 1293.09 580.907 1293 580.432C1292.9 579.957 1292.44 579.647 1291.97 579.74Z" fill="#D2F0FF"/>
<path d="M1283.07 583.26C1282.6 583.352 1282.14 583.043 1282.05 582.568C1281.95 582.093 1282.26 581.633 1282.74 581.54L1280.66 581.946L1281.84 580.188C1281.57 580.59 1281.03 580.696 1280.63 580.426C1280.22 580.156 1280.12 579.611 1280.39 579.21L1279.2 580.968L1278.8 578.888L1279.08 578.462L1280.55 576.282C1280.82 575.88 1280.72 575.336 1280.31 575.065C1279.91 574.795 1279.37 574.902 1279.1 575.303L1278.32 576.456L1277.85 574.024L1278.13 573.598L1279.6 571.417C1279.87 571.016 1279.77 570.471 1279.36 570.201C1278.96 569.931 1278.42 570.037 1278.15 570.439L1277.37 571.591L1276.99 569.658C1276.9 569.183 1276.44 568.873 1275.97 568.966C1275.49 569.059 1275.18 569.519 1275.27 569.994L1275.65 571.927L1274.5 571.152C1274.1 570.881 1273.55 570.988 1273.28 571.389C1273.01 571.791 1273.12 572.335 1273.52 572.605L1275.7 574.073L1276.13 574.36L1276.6 576.792L1275.45 576.016C1275.05 575.746 1274.5 575.852 1274.23 576.254C1273.96 576.655 1274.07 577.199 1274.47 577.47L1276.65 578.937L1277.08 579.224L1277.48 581.304L1271.62 577.353L1271.52 576.849L1271.01 574.269C1270.92 573.795 1270.46 573.485 1269.98 573.578C1269.51 573.67 1269.2 574.131 1269.29 574.606L1269.56 575.969L1267.92 574.869C1267.52 574.599 1266.98 574.705 1266.71 575.107C1266.44 575.508 1266.54 576.053 1266.95 576.323L1268.58 577.423L1267.22 577.689C1266.74 577.782 1266.43 578.242 1266.53 578.717C1266.62 579.192 1267.08 579.502 1267.55 579.409L1270.13 578.905L1270.64 578.807L1276.51 582.757L1274.43 583.164L1271.82 581.409C1271.42 581.139 1270.87 581.246 1270.6 581.647C1270.33 582.048 1270.44 582.593 1270.84 582.863L1271.99 583.639L1269.56 584.114L1266.96 582.36C1266.55 582.09 1266.01 582.196 1265.74 582.598C1265.47 582.999 1265.58 583.543 1265.98 583.814L1267.13 584.589L1265.2 584.967C1264.72 585.06 1264.41 585.52 1264.5 585.995C1264.6 586.47 1265.06 586.78 1265.53 586.687L1267.47 586.309L1266.69 587.462C1266.42 587.863 1266.53 588.408 1266.93 588.678C1267.33 588.948 1267.87 588.842 1268.14 588.44L1269.9 585.834L1272.33 585.359L1271.55 586.511C1271.28 586.913 1271.39 587.457 1271.79 587.727C1272.19 587.998 1272.74 587.891 1273.01 587.49L1274.48 585.309L1274.76 584.884L1276.84 584.477L1272.89 590.347L1272.39 590.445L1269.81 590.949C1269.33 591.042 1269.02 591.502 1269.12 591.977C1269.21 592.452 1269.67 592.762 1270.14 592.669L1271.51 592.403L1270.41 594.037C1270.14 594.438 1270.24 594.983 1270.65 595.253C1271.05 595.523 1271.59 595.417 1271.86 595.016L1272.96 593.381L1273.23 594.745C1273.32 595.22 1273.78 595.529 1274.26 595.437C1274.73 595.344 1275.04 594.884 1274.95 594.409L1274.44 591.829L1274.35 591.325L1278.3 585.456L1278.7 587.535L1278.42 587.961L1276.95 590.142C1276.68 590.543 1276.78 591.088 1277.19 591.358C1277.59 591.628 1278.13 591.522 1278.4 591.12L1279.18 589.968L1279.65 592.4L1279.37 592.825L1277.9 595.006C1277.63 595.407 1277.73 595.952 1278.14 596.222C1278.54 596.492 1279.08 596.386 1279.35 595.985L1280.13 594.832L1280.51 596.766C1280.6 597.24 1281.06 597.55 1281.53 597.457C1282.01 597.365 1282.32 596.904 1282.23 596.429L1281.85 594.496L1283 595.272C1283.4 595.542 1283.95 595.436 1284.22 595.034C1284.49 594.633 1284.38 594.088 1283.98 593.818L1281.8 592.35L1281.37 592.064L1280.9 589.632L1282.05 590.407C1282.45 590.678 1283 590.571 1283.27 590.17C1283.54 589.768 1283.43 589.224 1283.03 588.954L1280.85 587.486L1280.42 587.199L1280.02 585.12L1281.77 586.303C1281.37 586.033 1281.27 585.488 1281.54 585.087C1281.81 584.685 1282.35 584.579 1282.75 584.849L1280.99 583.666L1283.07 583.26Z" fill="#D2F0FF"/>
</g>
<mask id="mask6_1387_7600" style="mask-type:luminance" maskUnits="userSpaceOnUse" x="1293" y="655" width="30" height="30">
<path d="M1293.28 655.807H1322.31V684.837H1293.28V655.807Z" fill="white"/>
</mask>
<g mask="url(#mask6_1387_7600)">
<path d="M1321.44 669.447H1319.47L1320.45 668.464C1320.79 668.122 1320.79 667.567 1320.45 667.225C1320.11 666.883 1319.55 666.883 1319.21 667.225L1316.99 669.447H1314.51L1315.49 668.464C1315.83 668.122 1315.83 667.567 1315.49 667.225C1315.15 666.883 1314.6 666.883 1314.25 667.225L1312.03 669.447H1309.91L1314.92 664.444H1315.43H1318.06C1318.54 664.444 1318.93 664.051 1318.93 663.567V663.567C1318.93 663.084 1318.54 662.691 1318.06 662.691H1316.67L1318.06 661.298C1318.4 660.956 1318.4 660.401 1318.06 660.059C1317.72 659.717 1317.16 659.717 1316.82 660.059L1315.43 661.452V660.063C1315.43 659.579 1315.04 659.187 1314.55 659.187C1314.07 659.187 1313.68 659.579 1313.68 660.063V662.691V663.205L1308.67 668.208V666.089L1309.04 665.726L1310.9 663.867C1311.24 663.525 1311.24 662.97 1310.9 662.628C1310.55 662.286 1310 662.286 1309.66 662.628L1308.67 663.61V661.132L1309.04 660.769L1310.9 658.911C1311.24 658.569 1311.24 658.014 1310.9 657.672C1310.55 657.329 1310 657.329 1309.66 657.672L1308.67 658.654V656.684C1308.67 656.2 1308.28 655.808 1307.8 655.808C1307.31 655.808 1306.92 656.2 1306.92 656.684V658.654L1305.94 657.672C1305.6 657.329 1305.04 657.329 1304.7 657.672C1304.36 658.014 1304.36 658.569 1304.7 658.911L1306.56 660.769L1306.92 661.132V663.61L1305.94 662.628C1305.6 662.286 1305.04 662.286 1304.7 662.628C1304.36 662.97 1304.36 663.525 1304.7 663.867L1306.56 665.726L1306.92 666.089V668.208L1301.92 663.205V662.691V660.063C1301.92 659.579 1301.53 659.187 1301.04 659.187C1300.56 659.187 1300.17 659.579 1300.17 660.063V661.452L1298.77 660.059C1298.43 659.717 1297.88 659.717 1297.53 660.059C1297.19 660.401 1297.19 660.956 1297.53 661.298L1298.93 662.691H1297.54C1297.05 662.691 1296.66 663.084 1296.66 663.567V663.567C1296.66 664.051 1297.05 664.444 1297.54 664.444H1300.17H1300.68L1305.68 669.447H1303.56L1301.34 667.225C1301 666.883 1300.44 666.883 1300.1 667.225C1299.76 667.567 1299.76 668.122 1300.1 668.464L1301.08 669.447H1298.61L1296.39 667.225C1296.04 666.883 1295.49 666.883 1295.15 667.225C1294.8 667.567 1294.8 668.122 1295.15 668.464L1296.13 669.447H1294.16C1293.67 669.447 1293.28 669.839 1293.28 670.323C1293.28 670.807 1293.67 671.199 1294.16 671.199H1296.13L1295.15 672.181C1294.8 672.524 1294.8 673.078 1295.15 673.421C1295.49 673.763 1296.04 673.763 1296.39 673.421L1298.61 671.199H1301.08L1300.1 672.181C1299.76 672.524 1299.76 673.078 1300.1 673.421C1300.44 673.763 1301 673.763 1301.34 673.421L1303.2 671.562L1303.56 671.199H1305.68L1300.68 676.202H1300.17H1297.54C1297.05 676.202 1296.66 676.594 1296.66 677.078C1296.66 677.562 1297.05 677.954 1297.54 677.954H1298.93L1297.53 679.348C1297.19 679.69 1297.19 680.244 1297.53 680.587C1297.88 680.929 1298.43 680.929 1298.77 680.587L1300.17 679.193V680.583C1300.17 681.067 1300.56 681.459 1301.04 681.459C1301.53 681.459 1301.92 681.067 1301.92 680.583V677.954V677.441L1306.92 672.438V674.557L1306.56 674.92L1304.7 676.779C1304.36 677.121 1304.36 677.676 1304.7 678.018V678.018C1305.04 678.36 1305.6 678.36 1305.94 678.018L1306.92 677.035V679.513L1306.56 679.876L1304.7 681.735C1304.36 682.077 1304.36 682.632 1304.7 682.974C1305.04 683.316 1305.6 683.316 1305.94 682.974L1306.92 681.992V683.962C1306.92 684.446 1307.31 684.838 1307.8 684.838C1308.28 684.838 1308.67 684.446 1308.67 683.962V681.992L1309.66 682.974C1310 683.316 1310.55 683.316 1310.9 682.974C1311.24 682.632 1311.24 682.077 1310.9 681.735L1309.04 679.876L1308.67 679.513V677.035L1309.66 678.018C1310 678.36 1310.55 678.36 1310.9 678.018V678.018C1311.24 677.676 1311.24 677.121 1310.9 676.779L1309.04 674.92L1308.67 674.557V672.438L1313.68 677.441V677.954V680.583C1313.68 681.067 1314.07 681.459 1314.55 681.459C1315.04 681.459 1315.43 681.067 1315.43 680.583V679.193L1316.82 680.587C1317.16 680.929 1317.72 680.929 1318.06 680.587C1318.4 680.244 1318.4 679.69 1318.06 679.348L1316.67 677.954H1318.06C1318.54 677.954 1318.93 677.562 1318.93 677.078C1318.93 676.594 1318.54 676.202 1318.06 676.202H1315.43H1314.92L1309.91 671.199H1312.03L1312.39 671.562L1314.25 673.421C1314.6 673.763 1315.15 673.763 1315.49 673.421C1315.83 673.078 1315.83 672.524 1315.49 672.181L1314.51 671.199H1316.99L1319.21 673.421C1319.55 673.763 1320.11 673.763 1320.45 673.421C1320.79 673.078 1320.79 672.524 1320.45 672.181L1319.47 671.199H1321.44C1321.92 671.199 1322.31 670.807 1322.31 670.323C1322.31 669.839 1321.92 669.447 1321.44 669.447Z" fill="#A2DDFD"/>
<path d="M1312.03 671.196C1311.55 671.196 1311.16 670.804 1311.16 670.32C1311.16 669.836 1311.55 669.444 1312.03 669.444H1309.91L1311.41 667.945C1311.07 668.288 1310.52 668.288 1310.17 667.945C1309.83 667.603 1309.83 667.049 1310.17 666.706L1308.67 668.205V666.086L1309.04 665.723L1310.9 663.864C1311.24 663.522 1311.24 662.967 1310.9 662.625C1310.55 662.283 1310 662.283 1309.66 662.625L1308.67 663.607V661.129L1309.04 660.766L1310.9 658.908C1311.24 658.566 1311.24 658.011 1310.9 657.669C1310.55 657.327 1310 657.327 1309.66 657.669L1308.67 658.651V656.681C1308.67 656.197 1308.28 655.805 1307.8 655.805C1307.31 655.805 1306.92 656.197 1306.92 656.681V658.651L1305.94 657.669C1305.6 657.327 1305.04 657.327 1304.7 657.669C1304.36 658.011 1304.36 658.566 1304.7 658.908L1306.56 660.766L1306.92 661.129V663.607L1305.94 662.625C1305.6 662.283 1305.04 662.283 1304.7 662.625C1304.36 662.967 1304.36 663.522 1304.7 663.864L1306.56 665.723L1306.92 666.086V668.205L1301.92 663.202V662.688V660.06C1301.92 659.576 1301.53 659.184 1301.04 659.184C1300.56 659.184 1300.17 659.576 1300.17 660.06V661.449L1298.77 660.056C1298.43 659.714 1297.88 659.714 1297.53 660.056C1297.19 660.398 1297.19 660.953 1297.53 661.295L1298.93 662.688H1297.54C1297.05 662.688 1296.66 663.081 1296.66 663.565C1296.66 664.048 1297.05 664.441 1297.54 664.441H1300.17H1300.68L1305.68 669.444H1303.56L1301.34 667.222C1301 666.88 1300.45 666.88 1300.1 667.222C1299.76 667.564 1299.76 668.119 1300.1 668.461L1301.09 669.444H1298.61L1296.39 667.222C1296.04 666.88 1295.49 666.88 1295.15 667.222C1294.8 667.564 1294.8 668.119 1295.15 668.461L1296.13 669.444H1294.16C1293.68 669.444 1293.28 669.836 1293.28 670.32C1293.28 670.804 1293.68 671.196 1294.16 671.196H1296.13L1295.15 672.179C1294.8 672.521 1294.8 673.075 1295.15 673.418C1295.49 673.76 1296.04 673.76 1296.39 673.418L1298.61 671.196H1301.09L1300.1 672.179C1299.76 672.521 1299.76 673.075 1300.1 673.418C1300.45 673.76 1301 673.76 1301.34 673.418L1303.2 671.559L1303.56 671.196H1305.68L1300.68 676.199H1300.17H1297.54C1297.05 676.199 1296.66 676.591 1296.66 677.075C1296.66 677.559 1297.05 677.951 1297.54 677.951H1298.93L1297.53 679.345C1297.19 679.687 1297.19 680.242 1297.53 680.584C1297.88 680.926 1298.43 680.926 1298.77 680.584L1300.17 679.191V680.58C1300.17 681.064 1300.56 681.456 1301.04 681.456C1301.53 681.456 1301.92 681.064 1301.92 680.58V677.951V677.438L1306.92 672.435V674.554L1306.56 674.917L1304.7 676.776C1304.36 677.118 1304.36 677.673 1304.7 678.015C1305.04 678.357 1305.6 678.357 1305.94 678.015L1306.92 677.032V679.511L1306.56 679.873L1304.7 681.732C1304.36 682.074 1304.36 682.629 1304.7 682.971C1305.04 683.313 1305.6 683.313 1305.94 682.971L1306.92 681.989V683.959C1306.92 684.443 1307.31 684.835 1307.8 684.835C1308.28 684.835 1308.67 684.443 1308.67 683.959V681.989L1309.66 682.971C1310 683.313 1310.55 683.313 1310.9 682.971C1311.24 682.629 1311.24 682.074 1310.9 681.732L1309.04 679.873L1308.67 679.511V677.032L1309.66 678.015C1310 678.357 1310.55 678.357 1310.9 678.015C1311.24 677.673 1311.24 677.118 1310.9 676.776L1309.04 674.917L1308.67 674.554V672.435L1310.17 673.934C1309.83 673.591 1309.83 673.037 1310.17 672.695C1310.52 672.352 1311.07 672.352 1311.41 672.694L1309.91 671.196H1312.03Z" fill="#A2DDFD"/>
</g>
<path d="M1157.92 458.639C1157.92 458.639 1169.58 465.464 1186.95 465.464C1204.32 465.464 1215.98 458.639 1215.98 458.639" stroke="black" stroke-width="14.5151" stroke-linecap="round"/>
<path d="M1160.26 404.581C1160.26 420.864 1154.29 429.15 1146.92 429.15C1139.55 429.15 1133.57 420.864 1133.57 404.581C1133.57 388.298 1139.55 380.012 1146.92 380.012C1154.29 380.012 1160.26 388.298 1160.26 404.581Z" fill="black"/>
<path fill-rule="evenodd" clip-rule="evenodd" d="M1158.31 390.537C1158.96 392.484 1159.47 394.698 1159.81 397.179C1159.08 398.832 1157.57 399.669 1155.82 399.669C1153.36 399.669 1151.37 398.012 1151.37 394.755C1151.37 391.498 1153.36 389.841 1155.82 389.841C1156.74 389.841 1157.6 390.074 1158.31 390.537Z" fill="white"/>
<path d="M1240.32 404.581C1240.32 420.864 1234.35 429.15 1226.98 429.15C1219.61 429.15 1213.63 420.864 1213.63 404.581C1213.63 388.298 1219.61 380.012 1226.98 380.012C1234.35 380.012 1240.32 388.298 1240.32 404.581Z" fill="black"/>
<path fill-rule="evenodd" clip-rule="evenodd" d="M1238.35 390.526C1239.01 392.481 1239.52 394.708 1239.86 397.203C1239.13 398.84 1237.62 399.669 1235.88 399.669C1233.43 399.669 1231.44 398.012 1231.44 394.755C1231.44 391.498 1233.43 389.841 1235.88 389.841C1236.8 389.841 1237.65 390.07 1238.35 390.526Z" fill="white"/>
<g filter="url(#filter0_f_1387_7600)">
<ellipse cx="1271.23" cy="447.904" rx="26.6892" ry="9.82755" fill="#FF9C9C"/>
</g>
<g filter="url(#filter1_f_1387_7600)">
<ellipse cx="1102.2" cy="447.904" rx="26.6892" ry="9.82755" fill="#FF9C9C"/>
</g>
</g>
<defs>
<filter id="filter0_f_1387_7600" x="1201" y="394.531" width="140.469" height="106.746" filterUnits="userSpaceOnUse" color-interpolation-filters="sRGB">
<feFlood flood-opacity="0" result="BackgroundImageFix"/>
<feBlend mode="normal" in="SourceGraphic" in2="BackgroundImageFix" result="shape"/>
<feGaussianBlur stdDeviation="21.7727" result="effect1_foregroundBlur_1387_7600"/>
</filter>
<filter id="filter1_f_1387_7600" x="1031.97" y="394.531" width="140.469" height="106.746" filterUnits="userSpaceOnUse" color-interpolation-filters="sRGB">
<feFlood flood-opacity="0" result="BackgroundImageFix"/>
<feBlend mode="normal" in="SourceGraphic" in2="BackgroundImageFix" result="shape"/>
<feGaussianBlur stdDeviation="21.7727" result="effect1_foregroundBlur_1387_7600"/>
</filter>
<clipPath id="clip0_1387_7600">
<rect x="0.599609" y="0.799927" width="1411.2" height="705.6" rx="50.4" fill="white"/>
</clipPath>
<clipPath id="clip1_1387_7600">
<rect width="72.5758" height="72.5755" fill="white" transform="translate(944.892 467.103)"/>
</clipPath>
<clipPath id="clip2_1387_7600">
<rect width="72.5758" height="72.5755" fill="white" transform="translate(1351.31 525.167)"/>
</clipPath>
<clipPath id="clip3_1387_7600">
<rect width="29.0303" height="29.0302" fill="white" transform="translate(1002.96 583.224)"/>
</clipPath>
<clipPath id="clip4_1387_7600">
<rect width="29.0303" height="29.0302" fill="white" transform="translate(857.804 597.739)"/>
</clipPath>
<clipPath id="clip5_1387_7600">
<rect width="58.0606" height="58.0604" fill="white" transform="matrix(0.977068 0.212929 -0.212931 0.977067 1078.81 631.373)"/>
</clipPath>
</defs>
</svg>
