<?xml version="1.0" encoding="UTF-8"?>
<!DOCTYPE svg PUBLIC "-//W3C//DTD SVG 1.1//EN" "http://www.w3.org/Graphics/SVG/1.1/DTD/svg11.dtd">
<svg xmlns="http://www.w3.org/2000/svg" version="1.1" width="630px" height="480px" style="shape-rendering:geometricPrecision; text-rendering:geometricPrecision; image-rendering:optimizeQuality; fill-rule:evenodd; clip-rule:evenodd" xmlns:xlink="http://www.w3.org/1999/xlink">
<g><path style="opacity:0.996" fill="#fed058" d="M 344.5,-0.5 C 354.5,-0.5 364.5,-0.5 374.5,-0.5C 426.266,8.64426 460.099,38.3109 476,88.5C 477.546,93.7297 478.38,99.0631 478.5,104.5C 448.924,93.225 426.424,101.225 411,128.5C 409.394,132.031 408.228,135.698 407.5,139.5C 401.528,140.33 395.528,140.83 389.5,141C 388.263,141.232 387.263,141.732 386.5,142.5C 375.431,132.294 362.765,124.628 348.5,119.5C 352.848,92.6913 342.848,73.5246 318.5,62C 314.986,60.4383 311.319,59.605 307.5,59.5C 307.327,53.8106 305.827,48.4772 303,43.5C 298.688,35.6909 292.855,29.3576 285.5,24.5C 302.924,10.9568 322.591,2.62346 344.5,-0.5 Z"/></g>
<g><path style="opacity:0.996" fill="#d8fefc" d="M 285.5,24.5 C 292.855,29.3576 298.688,35.6909 303,43.5C 305.827,48.4772 307.327,53.8106 307.5,59.5C 311.319,59.605 314.986,60.4383 318.5,62C 342.848,73.5246 352.848,92.6913 348.5,119.5C 340.231,143.505 323.231,156.171 297.5,157.5C 283.204,185.975 260.871,195.142 230.5,185C 226.332,182.75 222.332,180.25 218.5,177.5C 215.138,179.843 211.804,182.176 208.5,184.5C 207.833,184.5 207.5,184.833 207.5,185.5C 177.499,195.905 154.999,187.238 140,159.5C 138.438,155.986 137.605,152.319 137.5,148.5C 107.688,151.021 88.5209,138.021 80,109.5C 76.8448,87.2639 84.3448,69.7639 102.5,57C 113.496,51.0028 125.162,48.8361 137.5,50.5C 141.677,29.1535 154.343,15.6535 175.5,10C 196.361,6.78156 213.361,13.2816 226.5,29.5C 245.092,15.4849 264.759,13.8183 285.5,24.5 Z"/></g>
<g><path style="opacity:0.996" fill="#d8fefc" d="M 478.5,104.5 C 485.699,108.029 491.699,113.029 496.5,119.5C 515.477,105.278 535.477,103.778 556.5,115C 568.4,123.466 576.067,134.799 579.5,149C 608.946,157.455 622.113,176.955 619,207.5C 614.878,226.289 603.712,238.789 585.5,245C 579.518,246.275 573.518,247.441 567.5,248.5C 556.476,272.515 537.81,282.681 511.5,279C 505.967,277.656 500.634,275.823 495.5,273.5C 495.5,272.833 495.167,272.5 494.5,272.5C 458.183,229.508 422.183,186.175 386.5,142.5C 387.263,141.732 388.263,141.232 389.5,141C 395.528,140.83 401.528,140.33 407.5,139.5C 408.228,135.698 409.394,132.031 411,128.5C 426.424,101.225 448.924,93.225 478.5,104.5 Z"/></g>
<g><path style="opacity:0.999" fill="#5ec539" d="M 348.5,119.5 C 362.765,124.628 375.431,132.294 386.5,142.5C 422.183,186.175 458.183,229.508 494.5,272.5C 495.167,272.5 495.5,272.833 495.5,273.5C 513.325,295.136 531.159,316.803 549,338.5C 569.722,368.506 570.722,399.173 552,430.5C 540.855,446.501 525.688,456.668 506.5,461C 454.965,469.558 403.298,475.725 351.5,479.5C 328.167,479.5 304.833,479.5 281.5,479.5C 227.31,475.81 173.31,469.31 119.5,460C 79.6777,446.562 61.1777,418.728 64,376.5C 65.4749,364.556 69.4749,353.556 76,343.5C 118.538,289.792 162.371,237.125 207.5,185.5C 208.167,185.5 208.5,185.167 208.5,184.5C 211.804,182.176 215.138,179.843 218.5,177.5C 222.332,180.25 226.332,182.75 230.5,185C 260.871,195.142 283.204,185.975 297.5,157.5C 323.231,156.171 340.231,143.505 348.5,119.5 Z"/></g>
<g><path style="opacity:1" fill="#070904" d="M 289.5,237.5 C 285.527,238.075 284.527,240.242 286.5,244C 287.928,244.579 289.262,244.412 290.5,243.5C 291.382,250.556 290.048,257.056 286.5,263C 285.099,263.41 283.766,263.91 282.5,264.5C 279.675,264.919 277.509,263.919 276,261.5C 274.396,258.541 273.229,255.541 272.5,252.5C 271.358,244.905 273.025,238.072 277.5,232C 283.405,229.365 287.405,231.199 289.5,237.5 Z"/></g>
<g><path style="opacity:1" fill="#050703" d="M 344.5,237.5 C 340.775,237.78 339.608,239.78 341,243.5C 342.915,244.916 344.415,244.582 345.5,242.5C 346.161,244.134 346.494,245.967 346.5,248C 346.351,251.94 345.684,255.773 344.5,259.5C 343.5,259.833 342.833,260.5 342.5,261.5C 338.915,265.474 335.248,265.474 331.5,261.5C 328.129,253.033 327.629,244.367 330,235.5C 335.941,228.456 340.774,229.123 344.5,237.5 Z"/></g>
<g><path style="opacity:1" fill="#eff0ee" d="M 289.5,237.5 C 290.341,239.379 290.675,241.379 290.5,243.5C 289.262,244.412 287.928,244.579 286.5,244C 284.527,240.242 285.527,238.075 289.5,237.5 Z"/></g>
<g><path style="opacity:1" fill="#eceeeb" d="M 344.5,237.5 C 345.451,238.919 345.784,240.585 345.5,242.5C 344.415,244.582 342.915,244.916 341,243.5C 339.608,239.78 340.775,237.78 344.5,237.5 Z"/></g>
<g><path style="opacity:1" fill="#79bd49" d="M 277.5,279.5 C 274.829,281.347 273.829,284.014 274.5,287.5C 271.203,287.632 269.537,289.298 269.5,292.5C 266.53,293.549 263.53,294.716 260.5,296C 245.14,299.003 235.807,293.003 232.5,278C 233.758,273.891 235.592,270.058 238,266.5C 245.341,260.09 253.841,258.257 263.5,261C 266.562,262.061 269.062,263.894 271,266.5C 274.222,270.349 276.388,274.682 277.5,279.5 Z"/></g>
<g><path style="opacity:1" fill="#69c13f" d="M 339.5,290.5 C 345.895,288.486 346.895,284.986 342.5,280C 341.207,279.51 339.873,279.343 338.5,279.5C 338.872,274.079 340.539,268.746 343.5,263.5C 343.457,262.584 343.124,261.917 342.5,261.5C 342.833,260.5 343.5,259.833 344.5,259.5C 344.435,259.938 344.601,260.272 345,260.5C 350.38,255.215 356.547,252.381 363.5,252C 385.749,248.402 399.082,257.069 403.5,278C 401.935,285.005 399.435,291.171 396,296.5C 393.804,298.83 391.47,300.163 389,300.5C 386.403,303.268 383.403,304.268 380,303.5C 379.667,304.167 379.333,304.833 379,305.5C 372.964,305.9 366.964,305.233 361,303.5C 353.904,303.159 348.071,299.992 343.5,294C 343.833,293.667 344.167,293.333 344.5,293C 342.922,291.906 341.255,291.072 339.5,290.5 Z"/></g>
<g><path style="opacity:1" fill="#79be49" d="M 365.5,259.5 C 377.403,258.457 386.403,263.29 392.5,274C 392.332,289.161 384.165,296.994 368,297.5C 359.301,295.158 353.301,289.825 350,281.5C 349.977,270.555 355.144,263.221 365.5,259.5 Z"/></g>
<g><path style="opacity:1" fill="#88ba52" d="M 252.5,269.5 C 256.793,269.652 260.626,270.986 264,273.5C 266.619,281.746 263.453,286.079 254.5,286.5C 250.55,285.775 247.05,284.108 244,281.5C 242.734,274.599 245.568,270.599 252.5,269.5 Z"/></g>
<g><path style="opacity:1" fill="#88ba52" d="M 367.5,269.5 C 370.078,268.954 372.578,269.621 375,271.5C 375.333,271.167 375.667,270.833 376,270.5C 383.079,274.026 384.246,278.526 379.5,284C 374.621,286.247 369.621,286.747 364.5,285.5C 362.587,283.709 360.92,281.709 359.5,279.5C 360.189,277.556 360.689,275.556 361,273.5C 363.314,272.267 365.481,270.933 367.5,269.5 Z"/></g>
<g><path style="opacity:1" fill="#070703" d="M 277.5,279.5 C 280.823,280.492 284.156,281.492 287.5,282.5C 305.003,288.533 322.003,287.533 338.5,279.5C 339.873,279.343 341.207,279.51 342.5,280C 346.895,284.986 345.895,288.486 339.5,290.5C 329.238,293.69 318.738,295.69 308,296.5C 299.267,295.875 290.767,294.208 282.5,291.5C 279.554,290.694 276.888,289.361 274.5,287.5C 273.829,284.014 274.829,281.347 277.5,279.5 Z"/></g>
<g><path style="opacity:1" fill="#69c13f" d="M 272.5,252.5 C 273.229,255.541 274.396,258.541 276,261.5C 277.509,263.919 279.675,264.919 282.5,264.5C 283.476,265.815 284.476,267.148 285.5,268.5C 285.291,269.086 284.957,269.586 284.5,270C 285.945,274.066 286.945,278.233 287.5,282.5C 284.156,281.492 280.823,280.492 277.5,279.5C 276.388,274.682 274.222,270.349 271,266.5C 269.062,263.894 266.562,262.061 263.5,261C 253.841,258.257 245.341,260.09 238,266.5C 235.592,270.058 233.758,273.891 232.5,278C 235.807,293.003 245.14,299.003 260.5,296C 263.53,294.716 266.53,293.549 269.5,292.5C 269.537,289.298 271.203,287.632 274.5,287.5C 276.888,289.361 279.554,290.694 282.5,291.5C 279.802,296.69 275.635,300.357 270,302.5C 261.478,305.608 253.144,305.941 245,303.5C 236.508,303.412 230.174,299.412 226,291.5C 220.121,278.149 222.621,266.316 233.5,256C 244.772,251.335 256.438,250.335 268.5,253C 270.061,253.318 271.228,254.151 272,255.5C 272.483,254.552 272.649,253.552 272.5,252.5 Z"/></g>
</svg>
