<svg xmlns="http://www.w3.org/2000/svg" version="1.1" xmlns:xlink="http://www.w3.org/1999/xlink" xmlns:svgjs="http://svgjs.com/svgjs" width="512" height="512" x="0" y="0" viewBox="0 0 97 96" style="enable-background:new 0 0 512 512" xml:space="preserve"><g><g fill="#000"><path d="M22.52 37.9a3.767 3.767 0 1 0 0-7.533 3.767 3.767 0 0 0 0 7.534zM12.267 49.479a3.767 3.767 0 1 0 0-7.534 3.767 3.767 0 0 0 0 7.534z" fill="#ffffff" data-original="#000000"></path><path fill-rule="evenodd" d="M77.411 9.429a8.694 8.694 0 0 0-11.718 3.72l-9.645 18.622a2.63 2.63 0 0 0-.134.304c-4.724-.162-9.404 1.925-12.56 5.619-3.72 4.352-8.295 9.102-12.204 11.527-5.574 3.458-10.182 4.704-13.044 5.146a4.922 4.922 0 0 0-3.693 2.734c-.692 1.46-.64 3.372.704 4.852 2.92 3.218 8.613 8.488 19.055 15.13 7.232 4.6 13.716 7.143 17.206 8.322 2.675.903 5.533-.13 7.067-2.428 1.94-2.906 5.348-8.386 8.274-15.054 2.164-4.932 4.028-10.017 5.813-15.092 1.505-4.282.828-8.798-1.46-12.368l10.051-19.299a8.694 8.694 0 0 0-3.712-11.735zm-10.13 27.056 9.23-17.723a3.494 3.494 0 1 0-6.2-3.22L61.147 33.23c.307.13.611.271.913.424l3.348 1.698c.66.334 1.284.713 1.872 1.132zm.345 14.621c-.37 1.054-.76 2.15-1.166 3.266L45.36 43.298c.68-.757 1.33-1.504 1.948-2.226 3.14-3.676 8.296-4.861 12.402-2.779l3.348 1.698c4.125 2.091 6.076 6.83 4.57 11.115zM33.891 53.64c2.566-1.592 5.243-3.918 7.755-6.418l.034.018L64.63 59.283a156.103 156.103 0 0 1-2.672 6.551c-2.763 6.296-5.997 11.5-7.836 14.255-.262.393-.688.521-1.08.39a69.345 69.345 0 0 1-6.34-2.517c1.213-1.28 2.973-3.37 4.659-6.244.729-1.241.308-2.817-.94-3.52s-2.851-.265-3.58.976c-1.356 2.31-3.011 4.584-5.041 6.358a78.423 78.423 0 0 1-4.837-2.837 147.835 147.835 0 0 1-3.81-2.504 21.816 21.816 0 0 0 2.023-1.549c1.093-.937 1.202-2.559.242-3.62s-2.623-1.163-3.717-.225c-1.61 1.38-2.733 1.905-3.187 2.082-4.14-3.11-6.914-5.665-8.709-7.527 3.478-.647 8.391-2.179 14.087-5.712z" clip-rule="evenodd" fill="#ffffff" data-original="#000000"></path></g></g></svg>