<svg xmlns="http://www.w3.org/2000/svg" version="1.1" xmlns:xlink="http://www.w3.org/1999/xlink" xmlns:svgjs="http://svgjs.com/svgjs" width="512" height="512" x="0" y="0" viewBox="0 0 32 32" style="enable-background:new 0 0 512 512" xml:space="preserve" class=""><g><path d="m30.71 7.29-6-6A1 1 0 0 0 24 1H4a3 3 0 0 0-3 3v24a3 3 0 0 0 3 3h24a3 3 0 0 0 3-3V8a1 1 0 0 0-.29-.71ZM20 3v6h-8V3ZM8 29v-7a1 1 0 0 1 1-1h14a1 1 0 0 1 1 1v7Zm21-1a1 1 0 0 1-1 1h-2v-7a3 3 0 0 0-3-3H9a3 3 0 0 0-3 3v7H4a1 1 0 0 1-1-1V4a1 1 0 0 1 1-1h6v6a2 2 0 0 0 2 2h8a2 2 0 0 0 2-2V3h1.59L29 8.41Z" fill="#ffffff" data-original="#000000"></path></g></svg>