<?xml version="1.0" encoding="UTF-8"?>
<!DOCTYPE svg PUBLIC "-//W3C//DTD SVG 1.1//EN" "http://www.w3.org/Graphics/SVG/1.1/DTD/svg11.dtd">
<svg xmlns="http://www.w3.org/2000/svg" version="1.1" width="512px" height="433px" style="shape-rendering:geometricPrecision; text-rendering:geometricPrecision; image-rendering:optimizeQuality; fill-rule:evenodd; clip-rule:evenodd" xmlns:xlink="http://www.w3.org/1999/xlink">
<g><path style="opacity:1" fill="#c9f683" d="M 22.5,-0.5 C 82.5,-0.5 142.5,-0.5 202.5,-0.5C 217.137,3.07256 229.637,10.4059 240,21.5C 245.39,29.3831 250.557,37.3831 255.5,45.5C 265.451,61.2294 275.784,76.7294 286.5,92C 343.499,92.5 400.499,92.6667 457.5,92.5C 468.816,96.3171 476.316,103.984 480,115.5C 480.5,205.499 480.667,295.499 480.5,385.5C 320.167,385.5 159.833,385.5 -0.5,385.5C -0.5,264.5 -0.5,143.5 -0.5,22.5C 3.52592,11.1407 11.1926,3.47406 22.5,-0.5 Z"/></g>
<g><path style="opacity:0.988" fill="#92cf30" d="M 454.5,45.5 C 465.172,45.3335 475.839,45.5002 486.5,46C 499.139,48.8098 507.473,56.3098 511.5,68.5C 511.5,84.5 511.5,100.5 511.5,116.5C 506.421,101.759 496.088,93.7588 480.5,92.5C 483.836,76.6484 479.836,63.1484 468.5,52C 463.966,49.3327 459.3,47.166 454.5,45.5 Z"/></g>
<g><path style="opacity:1" fill="#9cdb39" d="M 255.5,45.5 C 321.833,45.5 388.167,45.5 454.5,45.5C 459.3,47.166 463.966,49.3327 468.5,52C 479.836,63.1484 483.836,76.6484 480.5,92.5C 472.833,92.5 465.167,92.5 457.5,92.5C 400.499,92.6667 343.499,92.5 286.5,92C 275.784,76.7294 265.451,61.2294 255.5,45.5 Z"/></g>
<g><path style="opacity:1" fill="#b8ec66" d="M 457.5,92.5 C 465.167,92.5 472.833,92.5 480.5,92.5C 496.088,93.7588 506.421,101.759 511.5,116.5C 511.5,206.167 511.5,295.833 511.5,385.5C 501.167,385.5 490.833,385.5 480.5,385.5C 480.667,295.499 480.5,205.499 480,115.5C 476.316,103.984 468.816,96.3171 457.5,92.5 Z"/></g>
<g><path style="opacity:0.992" fill="#b8ec66" d="M -0.5,385.5 C 159.833,385.5 320.167,385.5 480.5,385.5C 480.666,392.508 480.5,399.508 480,406.5C 476.652,420.347 468.152,429.014 454.5,432.5C 311.167,432.5 167.833,432.5 24.5,432.5C 12.0357,429.371 3.70238,421.704 -0.5,409.5C -0.5,401.5 -0.5,393.5 -0.5,385.5 Z"/></g>
<g><path style="opacity:0.997" fill="#9cdb39" d="M 480.5,385.5 C 490.833,385.5 501.167,385.5 511.5,385.5C 511.5,393.5 511.5,401.5 511.5,409.5C 507.405,421.262 499.405,428.928 487.5,432.5C 476.5,432.5 465.5,432.5 454.5,432.5C 468.152,429.014 476.652,420.347 480,406.5C 480.5,399.508 480.666,392.508 480.5,385.5 Z"/></g>
</svg>
