<?xml version="1.0" encoding="UTF-8"?>
<!DOCTYPE svg PUBLIC "-//W3C//DTD SVG 1.1//EN" "http://www.w3.org/Graphics/SVG/1.1/DTD/svg11.dtd">
<svg xmlns="http://www.w3.org/2000/svg" version="1.1" width="512px" height="433px" style="shape-rendering:geometricPrecision; text-rendering:geometricPrecision; image-rendering:optimizeQuality; fill-rule:evenodd; clip-rule:evenodd" xmlns:xlink="http://www.w3.org/1999/xlink">
<g><path style="opacity:1" fill="#fea985" d="M 22.5,-0.5 C 82.5,-0.5 142.5,-0.5 202.5,-0.5C 217.137,3.07256 229.637,10.4059 240,21.5C 245.39,29.3831 250.557,37.3831 255.5,45.5C 265.451,61.2294 275.784,76.7294 286.5,92C 343.166,92.5 399.832,92.6667 456.5,92.5C 468.388,95.8864 476.221,103.553 480,115.5C 480.5,205.499 480.667,295.499 480.5,385.5C 320.167,385.5 159.833,385.5 -0.5,385.5C -0.5,264.5 -0.5,143.5 -0.5,22.5C 3.52592,11.1407 11.1926,3.47406 22.5,-0.5 Z"/></g>
<g><path style="opacity:0.992" fill="#fc8e5f" d="M 255.5,45.5 C 321.5,45.5 387.5,45.5 453.5,45.5C 466.835,48.3264 475.668,56.3264 480,69.5C 480.5,77.1594 480.666,84.8261 480.5,92.5C 472.5,92.5 464.5,92.5 456.5,92.5C 399.832,92.6667 343.166,92.5 286.5,92C 275.784,76.7294 265.451,61.2294 255.5,45.5 Z"/></g>
<g><path style="opacity:0.991" fill="#fe783f" d="M 453.5,45.5 C 464.505,45.3335 475.505,45.5002 486.5,46C 499.139,48.8098 507.473,56.3098 511.5,68.5C 511.5,84.5 511.5,100.5 511.5,116.5C 506.438,101.779 496.105,93.7793 480.5,92.5C 480.666,84.8261 480.5,77.1594 480,69.5C 475.668,56.3264 466.835,48.3264 453.5,45.5 Z"/></g>
<g><path style="opacity:1" fill="#ff9b71" d="M 456.5,92.5 C 464.5,92.5 472.5,92.5 480.5,92.5C 496.105,93.7793 506.438,101.779 511.5,116.5C 511.5,206.167 511.5,295.833 511.5,385.5C 501.167,385.5 490.833,385.5 480.5,385.5C 480.667,295.499 480.5,205.499 480,115.5C 476.221,103.553 468.388,95.8864 456.5,92.5 Z"/></g>
<g><path style="opacity:1" fill="#ff9b71" d="M -0.5,385.5 C 159.833,385.5 320.167,385.5 480.5,385.5C 480.666,392.508 480.5,399.508 480,406.5C 476.673,420.326 468.173,428.993 454.5,432.5C 311.167,432.5 167.833,432.5 24.5,432.5C 12.0357,429.371 3.70238,421.704 -0.5,409.5C -0.5,401.5 -0.5,393.5 -0.5,385.5 Z"/></g>
<g><path style="opacity:0.98" fill="#fd8e5f" d="M 480.5,385.5 C 490.833,385.5 501.167,385.5 511.5,385.5C 511.5,393.5 511.5,401.5 511.5,409.5C 507.405,421.262 499.405,428.928 487.5,432.5C 476.5,432.5 465.5,432.5 454.5,432.5C 468.173,428.993 476.673,420.326 480,406.5C 480.5,399.508 480.666,392.508 480.5,385.5 Z"/></g>
</svg>
