<?xml version="1.0" encoding="UTF-8"?>
<!DOCTYPE svg PUBLIC "-//W3C//DTD SVG 1.1//EN" "http://www.w3.org/Graphics/SVG/1.1/DTD/svg11.dtd">
<svg xmlns="http://www.w3.org/2000/svg" version="1.1" width="512px" height="433px" style="shape-rendering:geometricPrecision; text-rendering:geometricPrecision; image-rendering:optimizeQuality; fill-rule:evenodd; clip-rule:evenodd" xmlns:xlink="http://www.w3.org/1999/xlink">
<g><path style="opacity:1" fill="#d5ccff" d="M 22.5,-0.5 C 82.5,-0.5 142.5,-0.5 202.5,-0.5C 217.137,3.07256 229.637,10.4059 240,21.5C 245.39,29.3831 250.557,37.3831 255.5,45.5C 265.451,61.2294 275.784,76.7294 286.5,92C 343.499,92.5 400.499,92.6667 457.5,92.5C 469.255,96.4242 476.755,104.424 480,116.5C 480.5,206.166 480.667,295.833 480.5,385.5C 320.167,385.5 159.833,385.5 -0.5,385.5C -0.5,264.5 -0.5,143.5 -0.5,22.5C 3.52592,11.1407 11.1926,3.47406 22.5,-0.5 Z"/></g>
<g><path style="opacity:0.983" fill="#b0a1ef" d="M 453.5,45.5 C 464.505,45.3335 475.505,45.5002 486.5,46C 499.139,48.8098 507.473,56.3098 511.5,68.5C 511.5,84.5 511.5,100.5 511.5,116.5C 506.414,101.749 496.08,93.7492 480.5,92.5C 483.926,76.6182 479.926,63.1182 468.5,52C 463.694,49.1294 458.694,46.9627 453.5,45.5 Z"/></g>
<g><path style="opacity:1" fill="#c3b6fe" d="M 255.5,45.5 C 321.5,45.5 387.5,45.5 453.5,45.5C 458.694,46.9627 463.694,49.1294 468.5,52C 479.926,63.1182 483.926,76.6182 480.5,92.5C 472.833,92.5 465.167,92.5 457.5,92.5C 400.499,92.6667 343.499,92.5 286.5,92C 275.784,76.7294 265.451,61.2294 255.5,45.5 Z"/></g>
<g><path style="opacity:1" fill="#cbbffe" d="M 457.5,92.5 C 465.167,92.5 472.833,92.5 480.5,92.5C 496.08,93.7492 506.414,101.749 511.5,116.5C 511.5,206.167 511.5,295.833 511.5,385.5C 501.167,385.5 490.833,385.5 480.5,385.5C 480.667,295.833 480.5,206.166 480,116.5C 476.755,104.424 469.255,96.4242 457.5,92.5 Z"/></g>
<g><path style="opacity:0.984" fill="#c3b6ff" d="M 480.5,385.5 C 490.833,385.5 501.167,385.5 511.5,385.5C 511.5,393.5 511.5,401.5 511.5,409.5C 507.405,421.262 499.405,428.928 487.5,432.5C 476.5,432.5 465.5,432.5 454.5,432.5C 467.719,429.115 476.219,420.782 480,407.5C 480.5,400.174 480.666,392.841 480.5,385.5 Z"/></g>
<g><path style="opacity:0.992" fill="#cbbfff" d="M -0.5,385.5 C 159.833,385.5 320.167,385.5 480.5,385.5C 480.666,392.841 480.5,400.174 480,407.5C 476.219,420.782 467.719,429.115 454.5,432.5C 311.167,432.5 167.833,432.5 24.5,432.5C 12.0357,429.371 3.70238,421.704 -0.5,409.5C -0.5,401.5 -0.5,393.5 -0.5,385.5 Z"/></g>
</svg>
