<?xml version="1.0" encoding="UTF-8"?>
<!DOCTYPE svg PUBLIC "-//W3C//DTD SVG 1.1//EN" "http://www.w3.org/Graphics/SVG/1.1/DTD/svg11.dtd">
<svg xmlns="http://www.w3.org/2000/svg" version="1.1" width="512px" height="433px" style="shape-rendering:geometricPrecision; text-rendering:geometricPrecision; image-rendering:optimizeQuality; fill-rule:evenodd; clip-rule:evenodd" xmlns:xlink="http://www.w3.org/1999/xlink">
<g><path style="opacity:0.93" fill="#bbbaba" d="M 22.5,-0.5 C 82.5,-0.5 142.5,-0.5 202.5,-0.5C 217.137,3.07256 229.637,10.4059 240,21.5C 245.39,29.3831 250.557,37.3831 255.5,45.5C 255.833,46.1667 256.167,46.8333 256.5,47.5C 251.867,42.3392 247.7,36.6725 244,30.5C 239.692,27.3588 235.858,23.6922 232.5,19.5C 224.802,10.6815 215.135,4.8482 203.5,2C 143.167,1.33333 82.8333,1.33333 22.5,2C 20.6803,2.20041 19.347,3.03374 18.5,4.5C 16.9236,5.14294 15.5903,6.14294 14.5,7.5C 9.30252,9.4273 5.30252,12.7606 2.5,17.5C 6.35512,8.30849 13.0218,2.30849 22.5,-0.5 Z"/></g>
<g><path style="opacity:1" fill="#c7c6c6" d="M 232.5,19.5 C 226.655,16.0794 220.988,12.4128 215.5,8.5C 215.389,7.88258 215.056,7.38258 214.5,7C 211.167,6 207.833,5 204.5,4C 142.459,3.17424 80.4593,3.34091 18.5,4.5C 19.347,3.03374 20.6803,2.20041 22.5,2C 82.8333,1.33333 143.167,1.33333 203.5,2C 215.135,4.8482 224.802,10.6815 232.5,19.5 Z"/></g>
<g><path style="opacity:1" fill="#dbd9d9" d="M 215.5,8.5 C 208.842,7.33625 202.176,6.16958 195.5,5C 137.833,4.33333 80.1667,4.33333 22.5,5C 19.846,5.9406 17.1794,6.77394 14.5,7.5C 15.5903,6.14294 16.9236,5.14294 18.5,4.5C 80.4593,3.34091 142.459,3.17424 204.5,4C 207.833,5 211.167,6 214.5,7C 215.056,7.38258 215.389,7.88258 215.5,8.5 Z"/></g>
<g><path style="opacity:1" fill="#eae8e8" d="M 215.5,8.5 C 220.988,12.4128 226.655,16.0794 232.5,19.5C 235.858,23.6922 239.692,27.3588 244,30.5C 247.7,36.6725 251.867,42.3392 256.5,47.5C 256.5,48.1667 256.833,48.5 257.5,48.5C 257.5,49.1667 257.833,49.5 258.5,49.5C 258.5,49.8333 258.5,50.1667 258.5,50.5C 254.077,50.2555 251.244,47.9222 250,43.5C 247.828,42.4147 245.828,41.0814 244,39.5C 233.242,20.765 217.075,9.93171 195.5,7C 139.833,6.33333 84.1667,6.33333 28.5,7C 13.987,9.51301 5.48698,18.013 3,32.5C 2.5,150.166 2.33333,267.833 2.5,385.5C 161.833,385.5 321.167,385.5 480.5,385.5C 480.5,385.833 480.5,386.167 480.5,386.5C 320.5,386.5 160.5,386.5 0.5,386.5C 0.333335,267.166 0.500001,147.833 1,28.5C 1.43786,25.624 2.43786,22.9573 4,20.5C 7.36405,15.9784 10.864,11.6451 14.5,7.5C 17.1794,6.77394 19.846,5.9406 22.5,5C 80.1667,4.33333 137.833,4.33333 195.5,5C 202.176,6.16958 208.842,7.33625 215.5,8.5 Z"/></g>
<g><path style="opacity:1" fill="#f4f2f2" d="M 258.5,50.5 C 267.699,64.391 277.033,78.2243 286.5,92C 343.499,92.5 400.499,92.6667 457.5,92.5C 469.703,96.5395 477.203,104.873 480,117.5C 480.5,206.833 480.667,296.166 480.5,385.5C 321.167,385.5 161.833,385.5 2.5,385.5C 2.33333,267.833 2.5,150.166 3,32.5C 5.48698,18.013 13.987,9.51301 28.5,7C 84.1667,6.33333 139.833,6.33333 195.5,7C 217.075,9.93171 233.242,20.765 244,39.5C 245.828,41.0814 247.828,42.4147 250,43.5C 251.244,47.9222 254.077,50.2555 258.5,50.5 Z"/></g>
<g><path style="opacity:1" fill="#8f8f8f" d="M 255.5,45.5 C 332.501,45.3333 409.501,45.5 486.5,46C 499.139,48.8098 507.473,56.3098 511.5,68.5C 511.5,70.1667 511.5,71.8333 511.5,73.5C 509.831,70.1172 508.164,66.7839 506.5,63.5C 503.159,55.9959 497.492,51.1626 489.5,49C 412.167,48.5 334.834,48.3333 257.5,48.5C 256.833,48.5 256.5,48.1667 256.5,47.5C 256.167,46.8333 255.833,46.1667 255.5,45.5 Z"/></g>
<g><path style="opacity:1" fill="#9a9999" d="M 257.5,48.5 C 334.834,48.3333 412.167,48.5 489.5,49C 497.492,51.1626 503.159,55.9959 506.5,63.5C 500.962,57.9551 494.629,53.6218 487.5,50.5C 411.17,49.5 334.836,49.1667 258.5,49.5C 257.833,49.5 257.5,49.1667 257.5,48.5 Z"/></g>
<g><path style="opacity:1" fill="#a6a5a5" d="M 258.5,50.5 C 258.5,50.1667 258.5,49.8333 258.5,49.5C 334.836,49.1667 411.17,49.5 487.5,50.5C 494.629,53.6218 500.962,57.9551 506.5,63.5C 508.164,66.7839 509.831,70.1172 511.5,73.5C 511.5,87.8333 511.5,102.167 511.5,116.5C 510.833,115.5 510.167,114.5 509.5,113.5C 509.5,112.833 509.5,112.167 509.5,111.5C 509.667,99.4954 509.5,87.4954 509,75.5C 506.664,64.5769 500.164,57.4102 489.5,54C 482.908,52.6712 476.241,52.1712 469.5,52.5C 468.527,52.0133 467.527,51.5133 466.5,51C 397.167,50.5 327.834,50.3333 258.5,50.5 Z"/></g>
<g><path style="opacity:1" fill="#bcbcbc" d="M 258.5,50.5 C 327.834,50.3333 397.167,50.5 466.5,51C 467.527,51.5133 468.527,52.0133 469.5,52.5C 479.9,63.7778 483.567,77.1111 480.5,92.5C 472.833,92.5 465.167,92.5 457.5,92.5C 400.499,92.6667 343.499,92.5 286.5,92C 277.033,78.2243 267.699,64.391 258.5,50.5 Z"/></g>
<g><path style="opacity:1" fill="#b1aeae" d="M 469.5,52.5 C 476.241,52.1712 482.908,52.6712 489.5,54C 500.164,57.4102 506.664,64.5769 509,75.5C 509.5,87.4954 509.667,99.4954 509.5,111.5C 503.882,99.2496 494.215,92.9163 480.5,92.5C 483.567,77.1111 479.9,63.7778 469.5,52.5 Z"/></g>
<g><path style="opacity:1" fill="#d6d6d6" d="M 457.5,92.5 C 465.167,92.5 472.833,92.5 480.5,92.5C 494.215,92.9163 503.882,99.2496 509.5,111.5C 509.5,112.167 509.5,112.833 509.5,113.5C 509.5,204.167 509.5,294.833 509.5,385.5C 499.833,385.5 490.167,385.5 480.5,385.5C 480.667,296.166 480.5,206.833 480,117.5C 477.203,104.873 469.703,96.5395 457.5,92.5 Z"/></g>
<g><path style="opacity:1" fill="#c5c5c5" d="M 509.5,113.5 C 510.167,114.5 510.833,115.5 511.5,116.5C 511.5,206.167 511.5,295.833 511.5,385.5C 510.833,385.5 510.167,385.5 509.5,385.5C 509.5,294.833 509.5,204.167 509.5,113.5 Z"/></g>
<g><path style="opacity:1" fill="#4f4f4f" d="M 215.5,211.5 C 216.483,215.298 216.817,219.298 216.5,223.5C 216.396,229.986 214.063,235.486 209.5,240C 203.97,242.5 199.803,241 197,235.5C 193.396,225.039 192.729,214.372 195,203.5C 200.825,189.469 207.659,188.969 215.5,202C 209.846,202.487 208.179,205.321 210.5,210.5C 212.045,211.452 213.712,211.785 215.5,211.5 Z"/></g>
<g><path style="opacity:1" fill="#515050" d="M 273.5,192.5 C 280.308,192.241 284.641,195.407 286.5,202C 280.846,202.487 279.179,205.321 281.5,210.5C 283.484,211.706 285.484,211.706 287.5,210.5C 289.266,219.569 288.099,228.235 284,236.5C 279.923,242.12 275.256,242.787 270,238.5C 263.986,226.262 262.986,213.596 267,200.5C 268.479,197.172 270.645,194.506 273.5,192.5 Z"/></g>
<g><path style="opacity:1" fill="#949393" d="M 216.5,223.5 C 216.817,219.298 216.483,215.298 215.5,211.5C 215.783,210.711 216.283,210.044 217,209.5C 217.815,214.352 217.648,219.019 216.5,223.5 Z"/></g>
<g><path style="opacity:1" fill="#4f4f4f" d="M 198.5,264.5 C 208.891,267.018 219.225,269.851 229.5,273C 233.321,273.594 237.155,274.094 241,274.5C 254.466,272.342 267.632,269.009 280.5,264.5C 284.167,264.833 286.167,266.833 286.5,270.5C 286.594,272.912 285.594,274.745 283.5,276C 266.375,284.076 248.375,287.41 229.5,286C 218.47,283.818 207.804,280.485 197.5,276C 194.616,271.826 194.949,267.993 198.5,264.5 Z"/></g>
<g><path style="opacity:0.992" fill="#d7d7d7" d="M 14.5,7.5 C 10.864,11.6451 7.36405,15.9784 4,20.5C 2.43786,22.9573 1.43786,25.624 1,28.5C 0.500001,147.833 0.333335,267.166 0.5,386.5C 160.5,386.5 320.5,386.5 480.5,386.5C 480.666,393.175 480.5,399.842 480,406.5C 476.553,420.781 467.72,429.448 453.5,432.5C 310.5,432.5 167.5,432.5 24.5,432.5C 12.0357,429.371 3.70238,421.704 -0.5,409.5C -0.5,280.5 -0.5,151.5 -0.5,22.5C 0.312714,20.7392 1.31271,19.0725 2.5,17.5C 5.30252,12.7606 9.30252,9.4273 14.5,7.5 Z"/></g>
<g><path style="opacity:0.984" fill="#bcbcbc" d="M 480.5,385.5 C 490.167,385.5 499.833,385.5 509.5,385.5C 510.167,385.5 510.833,385.5 511.5,385.5C 511.5,393.5 511.5,401.5 511.5,409.5C 507.405,421.262 499.405,428.928 487.5,432.5C 476.167,432.5 464.833,432.5 453.5,432.5C 467.72,429.448 476.553,420.781 480,406.5C 480.5,399.842 480.666,393.175 480.5,386.5C 480.5,386.167 480.5,385.833 480.5,385.5 Z"/></g>
</svg>
