<svg width="1291" height="1202" viewBox="0 0 1291 1202" fill="none" xmlns="http://www.w3.org/2000/svg">
<g filter="url(#filter0_i_1236_6609)">
<path d="M1196.97 452.797L1138.95 429.344L1138.34 597.854L1196.36 621.307L1231.54 534.273C1244.44 502.361 1228.89 465.696 1196.97 452.797Z" fill="#B2AFAF"/>
<path d="M1138.93 429.339L658.308 235.069L599.675 380.127L1138.32 597.849L1173.5 510.816C1186.4 478.904 1170.84 442.238 1138.93 429.339Z" fill="#BDBDBD"/>
<path d="M962.43 1033.02L845.775 1154.63L903.798 1178.08C935.71 1190.98 972.373 1175.43 985.272 1143.51L996.999 1114.5L962.43 1033.02Z" fill="#BDBDBD"/>
<path d="M927.239 1120.05L962.418 1033.02L35.7397 725.954L24.013 754.966C11.1138 786.878 26.6698 823.541 58.5825 836.44L845.762 1154.62C877.675 1167.52 914.339 1151.96 927.239 1120.05Z" fill="#D7D7D7"/>
<path d="M1161.79 539.832L1103.77 516.379L938.985 1091.05L997.008 1114.5L1196.36 621.308C1209.26 589.396 1193.7 552.731 1161.79 539.832Z" fill="#D7D7D7"/>
<path d="M1138.32 597.848C1151.22 565.936 1135.66 529.273 1103.75 516.374L797.193 392.462L764.177 232.774C757.208 199.068 725.394 160.934 693.481 148.035L386.927 24.1246C355.016 11.2235 318.353 26.7794 305.453 58.692L35.7434 725.955L938.969 1091.04L1138.32 597.848Z" fill="#F5F3F3"/>
</g>
<path d="M502.202 663.059C502.202 663.059 539.961 699.67 568.908 711.371C597.855 723.071 650.449 722.98 650.449 722.98" stroke="#4D4D4D" stroke-width="25.8497" stroke-linecap="round"/>
<path d="M572.628 574.106C560.338 604.511 544.128 615.959 531.847 610.995C519.566 606.031 515.864 586.534 528.154 556.129C540.444 525.724 556.654 514.275 568.935 519.239C581.216 524.203 584.918 543.7 572.628 574.106Z" fill="#4D4D4D"/>
<path fill-rule="evenodd" clip-rule="evenodd" d="M579.926 546.526C579.545 550.615 578.718 555.11 577.397 559.989C574.94 562.561 571.803 563.098 568.904 561.926C564.811 560.272 562.743 555.836 565.201 549.755C567.659 543.674 572.228 541.92 576.322 543.575C577.848 544.192 579.092 545.195 579.926 546.526Z" fill="white"/>
<path d="M706.065 628.04C693.775 658.445 677.565 669.894 665.284 664.93C653.003 659.966 649.301 640.469 661.591 610.064C673.881 579.658 690.091 568.21 702.372 573.174C714.653 578.138 718.355 597.635 706.065 628.04Z" fill="#4D4D4D"/>
<path fill-rule="evenodd" clip-rule="evenodd" d="M713.377 600.481C712.997 604.56 712.172 609.043 710.857 613.907C708.397 616.497 705.251 617.04 702.345 615.865C698.251 614.21 696.183 609.774 698.641 603.693C701.099 597.612 705.669 595.859 709.762 597.514C711.295 598.133 712.543 599.142 713.377 600.481Z" fill="white"/>
<defs>
<filter id="filter0_i_1236_6609" x="19.4751" y="19.5859" width="1216.61" height="1171.13" filterUnits="userSpaceOnUse" color-interpolation-filters="sRGB">
<feFlood flood-opacity="0" result="BackgroundImageFix"/>
<feBlend mode="normal" in="SourceGraphic" in2="BackgroundImageFix" result="shape"/>
<feColorMatrix in="SourceAlpha" type="matrix" values="0 0 0 0 0 0 0 0 0 0 0 0 0 0 0 0 0 0 127 0" result="hardAlpha"/>
<feOffset dy="8.10001"/>
<feGaussianBlur stdDeviation="4.05"/>
<feComposite in2="hardAlpha" operator="arithmetic" k2="-1" k3="1"/>
<feColorMatrix type="matrix" values="0 0 0 0 0 0 0 0 0 0 0 0 0 0 0 0 0 0 0.25 0"/>
<feBlend mode="normal" in2="shape" result="effect1_innerShadow_1236_6609"/>
</filter>
</defs>
</svg>
