<svg width="1038" height="877" viewBox="0 0 1038 877" fill="none" xmlns="http://www.w3.org/2000/svg">
<g filter="url(#filter0_i_1236_6634)">
<path d="M975.163 94.0264H912.581L975.163 250.486H1037.75V156.611C1037.75 122.19 1009.58 94.0264 975.163 94.0264Z" fill="#B2AFAF"/>
<path d="M912.561 94.0283H394.159V250.488H975.143V156.613C975.145 122.192 946.982 94.0283 912.561 94.0283Z" fill="#BDBDBD"/>
<path d="M975.15 719.863L912.567 876.323H975.15C1009.57 876.323 1037.73 848.161 1037.73 813.74V782.448L975.15 719.863Z" fill="#BDBDBD"/>
<path d="M975.137 813.741V719.866L0.916992 782.449V813.741C0.916992 848.162 29.0787 876.324 63.4998 876.324H912.552C946.973 876.324 975.137 848.162 975.137 813.741Z" fill="#D7D7D7"/>
<path d="M975.16 187.904H912.577L975.16 782.448H1037.74V250.489C1037.74 216.068 1009.58 187.904 975.16 187.904Z" fill="#D7D7D7"/>
<path d="M975.141 250.487C975.141 216.066 946.979 187.904 912.558 187.904H581.905L491.452 52.2252C472.36 23.5876 428.574 0.154297 394.153 0.154297H63.5037C29.0827 0.152272 0.920898 28.314 0.920898 62.7349V782.447H975.141V250.487Z" fill="#F5F3F3"/>
</g>
<path d="M409.82 549.319C409.82 549.319 458.548 569.113 489.77 569.113C520.992 569.113 569.719 549.319 569.719 549.319" stroke="#4D4D4D" stroke-width="25.8497" stroke-linecap="round"/>
<path d="M441.779 440.455C441.779 473.25 431.041 489.939 417.794 489.939C404.548 489.939 393.81 473.25 393.81 440.455C393.81 407.66 404.548 390.971 417.794 390.971C431.041 390.971 441.779 407.66 441.779 440.455Z" fill="#4D4D4D"/>
<path fill-rule="evenodd" clip-rule="evenodd" d="M438.21 412.15C439.39 416.085 440.308 420.563 440.912 425.581C439.597 428.886 436.89 430.559 433.764 430.559C429.349 430.559 425.769 427.222 425.769 420.662C425.769 414.103 429.349 410.766 433.764 410.766C435.41 410.766 436.939 411.229 438.21 412.15Z" fill="white"/>
<path d="M585.705 440.456C585.705 473.251 574.966 489.94 561.72 489.94C548.473 489.94 537.735 473.251 537.735 440.456C537.735 407.661 548.473 390.972 561.72 390.972C574.966 390.972 585.705 407.661 585.705 440.456Z" fill="#4D4D4D"/>
<path fill-rule="evenodd" clip-rule="evenodd" d="M582.157 412.163C583.333 416.087 584.248 420.551 584.852 425.553C583.542 428.877 580.828 430.559 577.693 430.559C573.278 430.559 569.698 427.222 569.698 420.662C569.698 414.103 573.278 410.766 577.693 410.766C579.346 410.766 580.882 411.233 582.157 412.163Z" fill="white"/>
<defs>
<filter id="filter0_i_1236_6634" x="0.916992" y="0.154297" width="1036.83" height="884.27" filterUnits="userSpaceOnUse" color-interpolation-filters="sRGB">
<feFlood flood-opacity="0" result="BackgroundImageFix"/>
<feBlend mode="normal" in="SourceGraphic" in2="BackgroundImageFix" result="shape"/>
<feColorMatrix in="SourceAlpha" type="matrix" values="0 0 0 0 0 0 0 0 0 0 0 0 0 0 0 0 0 0 127 0" result="hardAlpha"/>
<feOffset dy="8.10001"/>
<feGaussianBlur stdDeviation="4.05001"/>
<feComposite in2="hardAlpha" operator="arithmetic" k2="-1" k3="1"/>
<feColorMatrix type="matrix" values="0 0 0 0 0 0 0 0 0 0 0 0 0 0 0 0 0 0 0.25 0"/>
<feBlend mode="normal" in2="shape" result="effect1_innerShadow_1236_6634"/>
</filter>
</defs>
</svg>
