<svg width="1290" height="1202" viewBox="0 0 1290 1202" fill="none" xmlns="http://www.w3.org/2000/svg">
<path d="M1196.65 452.311L1138.63 428.858L1138.01 597.369L1196.04 620.822L1231.22 533.788C1244.12 501.875 1228.56 465.21 1196.65 452.311Z" fill="#FF4D6B"/>
<path d="M1138.62 428.852L657.996 234.582L599.363 379.64L1138.01 597.362L1173.19 510.328C1186.09 478.417 1170.53 441.751 1138.62 428.852Z" fill="#FF738D"/>
<path d="M962.118 1032.53L845.463 1154.14L903.486 1177.59C935.398 1190.49 972.061 1174.93 984.96 1143.02L996.687 1114.01L962.118 1032.53Z" fill="#FF738D"/>
<path d="M926.935 1119.57L962.114 1032.54L35.436 725.473L23.7093 754.485C10.8101 786.398 26.3661 823.061 58.2788 835.96L845.458 1154.14C877.371 1167.04 914.036 1151.48 926.935 1119.57Z" fill="#FF91A5"/>
<path d="M1161.47 539.341L1103.44 515.889L938.662 1090.56L996.684 1114.01L1196.03 620.818C1208.93 588.905 1193.38 552.241 1161.47 539.341Z" fill="#FF91A5"/>
<path d="M1138.01 597.368C1150.91 565.455 1135.36 528.792 1103.44 515.893L796.887 391.982L763.871 232.293C756.903 198.588 725.089 160.453 693.176 147.554L386.622 23.6442C354.71 10.7431 318.047 26.2989 305.148 58.2115L35.4382 725.474L938.664 1090.56L1138.01 597.368Z" fill="#FFB3C1"/>
</svg>
