<svg width="1291" height="1202" viewBox="0 0 1291 1202" fill="none" xmlns="http://www.w3.org/2000/svg">
<path d="M1197.32 452.747L1139.29 429.294L1138.68 597.804L1196.71 621.257L1231.89 534.223C1244.79 502.311 1229.23 465.646 1197.32 452.747Z" fill="#61C2F6"/>
<path d="M1139.29 429.291L658.665 235.021L600.032 380.079L1138.68 597.802L1173.86 510.768C1186.76 478.856 1171.2 442.19 1139.29 429.291ZM962.783 1032.97L846.128 1154.58L904.15 1178.03C936.063 1190.93 972.726 1175.37 985.625 1143.46L997.351 1114.45L962.783 1032.97Z" fill="#83CEF7"/>
<path d="M927.606 1120.01L962.785 1032.97L36.1069 725.91L24.3802 754.922C11.481 786.834 27.037 823.497 58.9497 836.396L846.129 1154.58C878.042 1167.48 914.707 1151.92 927.606 1120.01Z" fill="#8AD3FB"/>
<path d="M1162.14 539.78L1104.12 516.327L939.334 1091L997.356 1114.45L1196.71 621.256C1209.61 589.344 1194.05 552.679 1162.14 539.78Z" fill="#8AD3FB"/>
<path d="M1138.68 597.803C1151.58 565.891 1136.03 529.228 1104.11 516.329L797.556 392.417L764.54 232.729C757.571 199.023 725.757 160.889 693.844 147.99L387.291 24.0797C355.379 11.1786 318.716 26.7345 305.817 58.647L36.1067 725.91L939.332 1091L1138.68 597.803Z" fill="#B0E3FF"/>
</svg>
