<svg width="1291" height="1201" viewBox="0 0 1291 1201" fill="none" xmlns="http://www.w3.org/2000/svg">
<path d="M1197.12 452.13L1139.09 428.677L1138.48 597.187L1196.5 620.64L1231.68 533.606C1244.58 501.694 1229.03 465.029 1197.12 452.13Z" fill="#FBBD3C"/>
<path d="M1139.11 428.682L658.483 234.412L599.85 379.47L1138.5 597.192L1173.68 510.158C1186.58 478.247 1171.02 441.581 1139.11 428.682Z" fill="#FDC859"/>
<path d="M962.612 1032.37L845.957 1153.97L903.979 1177.42C935.892 1190.32 972.555 1174.77 985.454 1142.86L997.181 1113.84L962.612 1032.37Z" fill="#FDC859"/>
<path d="M927.402 1119.39L962.581 1032.36L35.9028 725.291L24.1761 754.303C11.2769 786.216 26.8329 822.879 58.7456 835.778L845.925 1153.96C877.838 1166.86 914.503 1151.3 927.402 1119.39Z" fill="#FACD70"/>
<path d="M1161.94 539.165L1103.92 515.712L939.135 1090.38L997.157 1113.83L1196.51 620.641C1209.41 588.729 1193.85 552.064 1161.94 539.165Z" fill="#FACD70"/>
<path d="M1138.48 597.184C1151.37 565.272 1135.82 528.609 1103.91 515.709L797.349 391.798L764.333 232.109C757.364 198.404 725.55 160.27 693.637 147.37L387.084 23.4606C355.172 10.5595 318.509 26.1154 305.61 58.0279L35.8996 725.291L939.125 1090.38L1138.48 597.184Z" fill="#FCD582"/>
</svg>
