<svg width="1291" height="1202" viewBox="0 0 1291 1202" fill="none" xmlns="http://www.w3.org/2000/svg">
<path d="M1197.06 452.321L1139.04 428.868L1138.43 597.379L1196.45 620.831L1231.63 533.798C1244.53 501.885 1228.97 465.22 1197.06 452.321Z" fill="#92CF30"/>
<path d="M1139.03 428.865L658.409 234.596L599.776 379.653L1138.42 597.376L1173.6 510.342C1186.5 478.43 1170.95 441.765 1139.03 428.865ZM962.527 1032.55L845.872 1154.15L903.894 1177.6C935.807 1190.5 972.47 1174.95 985.369 1143.03L997.096 1114.02L962.527 1032.55Z" fill="#9CDB39"/>
<path d="M927.338 1119.58L962.517 1032.54L35.8388 725.48L24.1121 754.492C11.213 786.404 26.769 823.067 58.6816 835.967L845.861 1154.15C877.774 1167.05 914.439 1151.49 927.338 1119.58Z" fill="#B8EC66"/>
<path d="M1161.88 539.353L1103.86 515.9L939.078 1090.57L997.1 1114.02L1196.45 620.83C1209.35 588.917 1193.79 552.252 1161.88 539.353Z" fill="#B8EC66"/>
<path d="M1138.42 597.373C1151.31 565.46 1135.76 528.797 1103.85 515.898L797.288 391.986L764.272 232.298C757.304 198.593 725.489 160.458 693.577 147.559L387.023 23.649C355.111 10.748 318.448 26.3038 305.549 58.2164L35.8391 725.479L939.065 1090.57L1138.42 597.373Z" fill="#CAF784"/>
</svg>
