<svg width="1291" height="1202" viewBox="0 0 1291 1202" fill="none" xmlns="http://www.w3.org/2000/svg">
<path d="M1197.3 452.965L1139.28 429.513L1138.67 598.023L1196.69 621.476L1231.87 534.442C1244.77 502.529 1229.21 465.865 1197.3 452.965Z" fill="#FF783F"/>
<path d="M1139.27 429.506L658.649 235.236L600.017 380.294L1138.66 598.016L1173.84 510.983C1186.74 479.071 1171.19 442.405 1139.27 429.506Z" fill="#FD8E5F"/>
<path d="M962.765 1033.19L846.11 1154.79L904.132 1178.24C936.044 1191.14 972.707 1175.59 985.607 1143.67L997.333 1114.66L962.765 1033.19Z" fill="#FD8E5F"/>
<path d="M927.576 1120.22L962.755 1033.19L36.0766 726.125L24.3499 755.137C11.4507 787.05 27.0068 823.713 58.9194 836.612L846.099 1154.79C878.011 1167.69 914.676 1152.14 927.576 1120.22Z" fill="#FF9B71"/>
<path d="M1162.12 540L1104.1 516.547L939.316 1091.22L997.338 1114.67L1196.69 621.476C1209.59 589.564 1194.03 552.899 1162.12 540Z" fill="#FF9B71"/>
<path d="M1138.65 598.017C1151.55 566.105 1136 529.442 1104.08 516.542L797.526 392.631L764.51 232.942C757.541 199.237 725.727 161.103 693.815 148.204L387.261 24.2936C355.349 11.3925 318.686 26.9484 305.787 58.8609L36.0769 726.124L939.302 1091.21L1138.65 598.017Z" fill="#FFAA86"/>
</svg>
