<svg width="1290" height="1202" viewBox="0 0 1290 1202" fill="none" xmlns="http://www.w3.org/2000/svg">
<path d="M1196.54 452.683L1138.51 429.23L1137.9 597.741L1195.92 621.194L1231.1 534.16C1244 502.247 1228.45 465.582 1196.54 452.683Z" fill="#B0A1EF"/>
<path d="M1138.49 429.223L657.871 234.953L599.238 380.011L1137.88 597.733L1173.06 510.699C1185.96 478.788 1170.41 442.122 1138.49 429.223ZM961.989 1032.9L845.334 1154.51L903.356 1177.96C935.269 1190.86 971.932 1175.3 984.831 1143.39L996.558 1114.38L961.989 1032.9Z" fill="#C3B6FF"/>
<path d="M926.805 1119.94L961.984 1032.91L35.3056 725.84L23.5789 754.852C10.6798 786.765 26.2358 823.428 58.1484 836.327L845.328 1154.51C877.24 1167.41 913.905 1151.85 926.805 1119.94Z" fill="#CBBFFF"/>
<path d="M1161.36 539.718L1103.33 516.266L938.553 1090.94L996.575 1114.39L1195.93 621.195C1208.82 589.282 1193.27 552.618 1161.36 539.718Z" fill="#CBBFFF"/>
<path d="M1137.88 597.734C1150.78 565.821 1135.23 529.158 1103.31 516.259L796.755 392.348L763.739 232.659C756.77 198.954 724.956 160.82 693.044 147.92L386.49 24.0104C354.578 11.1093 317.915 26.6652 305.016 58.5777L35.3059 725.841L938.532 1090.93L1137.88 597.734Z" fill="#D6CDFF"/>
</svg>
