<svg width="1291" height="1202" viewBox="0 0 1291 1202" fill="none" xmlns="http://www.w3.org/2000/svg">
<path d="M1196.94 452.93L1138.92 429.478L1138.31 597.988L1196.33 621.441L1231.51 534.407C1244.41 502.494 1228.86 465.829 1196.94 452.93Z" fill="#757575"/>
<path d="M1138.94 429.484L658.312 235.214L599.679 380.272L1138.32 597.994L1173.5 510.96C1186.41 479.048 1170.85 442.383 1138.94 429.484Z" fill="#8B8B8B"/>
<path d="M962.44 1033.17L845.785 1154.77L903.807 1178.23C935.72 1191.13 972.383 1175.57 985.282 1143.66L997.008 1114.65L962.44 1033.17Z" fill="#8B8B8B"/>
<path d="M927.23 1120.19L962.409 1033.16L35.7309 726.093L24.0042 755.105C11.105 787.018 26.6611 823.681 58.5737 836.58L845.753 1154.76C877.666 1167.66 914.331 1152.1 927.23 1120.19Z" fill="#A4A4A4"/>
<path d="M1161.77 539.966L1103.74 516.514L938.963 1091.18L996.985 1114.64L1196.34 621.443C1209.23 589.53 1193.68 552.866 1161.77 539.966Z" fill="#A4A4A4"/>
<path d="M1138.3 597.986C1151.2 566.073 1135.65 529.41 1103.73 516.511L797.177 392.6L764.161 232.911C757.192 199.206 725.378 161.071 693.465 148.172L386.912 24.2623C355 11.3612 318.337 26.9171 305.438 58.8297L35.7278 726.092L938.953 1091.18L1138.3 597.986Z" fill="#B6B6B6"/>
</svg>
