<svg width="222" height="217" viewBox="0 0 222 217" fill="none" xmlns="http://www.w3.org/2000/svg">
<path d="M110.575 0.368164C49.5163 0.368164 0 50.0793 0 111.403C0 160.45 31.6838 202.06 75.643 216.755C81.1725 217.778 83.1908 214.35 83.1908 211.405C83.1908 208.765 83.094 201.784 83.0387 192.522C52.2811 199.226 45.7839 177.633 45.7839 177.633C40.766 164.805 33.5085 161.39 33.5085 161.39C23.4587 154.506 34.255 154.644 34.255 154.644C45.3554 155.432 51.189 166.09 51.189 166.09C61.0591 183.052 77.0807 178.159 83.3843 175.311C84.3796 168.136 87.2411 163.242 90.4067 160.464C65.8559 157.658 40.0333 148.133 40.0333 105.596C40.0333 93.4728 44.3463 83.561 51.424 75.7919C50.2766 72.9856 46.489 61.6914 52.5022 46.4159C52.5022 46.4159 61.7917 43.4299 82.9143 57.7931C91.7338 55.3324 101.189 54.102 110.603 54.0606C119.989 54.1159 129.459 55.3324 138.292 57.8069C159.401 43.4437 168.676 46.4297 168.676 46.4297C174.703 61.7191 170.916 72.9995 169.782 75.8057C176.874 83.5748 181.145 93.4866 181.145 105.61C181.145 148.257 155.295 157.644 130.661 160.395C134.629 163.823 138.167 170.597 138.167 180.951C138.167 195.798 138.029 207.77 138.029 211.405C138.029 214.377 140.02 217.833 145.632 216.741C189.522 202.033 221.178 160.436 221.178 111.403C221.178 50.0793 171.662 0.368164 110.575 0.368164Z" fill="black"/>
</svg>
