<svg width="193" height="193" viewBox="0 0 193 193" fill="none" xmlns="http://www.w3.org/2000/svg">
<g clip-path="url(#clip0_1408_6577)">
<path d="M11.5827 8.66811L118.099 0.800628C131.183 -0.321648 134.544 0.434877 142.771 6.41586L176.773 30.3687C182.38 34.4882 184.248 35.6104 184.248 40.0957V171.464C184.248 179.697 181.258 184.567 170.792 185.31L47.099 192.802C39.245 193.174 35.5047 192.051 31.391 186.81L6.3525 154.25C1.86148 148.258 0 143.772 0 138.529V21.7581C0 15.0264 2.98953 9.41308 11.5827 8.66811Z" fill="white"/>
<path fill-rule="evenodd" clip-rule="evenodd" d="M118.099 0.802553L11.5827 8.67003C2.98952 9.41308 0 15.0283 0 21.7581V138.529C0 143.77 1.86147 148.256 6.3525 154.25L31.391 186.808C35.5047 192.05 39.245 193.174 47.099 192.8L170.794 185.312C181.252 184.567 184.249 179.697 184.249 171.465V40.0976C184.249 35.8434 182.569 34.6171 177.622 30.9866L142.771 6.41586C134.546 0.434877 131.183 -0.321648 118.099 0.800628V0.802553ZM49.896 37.9474C39.7955 38.6269 37.5048 38.7809 31.7683 34.1166L17.1845 22.5166C15.7022 21.0151 16.4472 19.142 20.1817 18.7686L122.578 11.2861C131.177 10.5354 135.655 13.5326 139.018 16.1506L156.579 28.8749C157.33 29.2541 159.197 31.4929 156.951 31.4929L51.205 37.8588L49.896 37.9474ZM38.1208 170.343V58.8221C38.1208 53.9518 39.6165 51.7054 44.094 51.3281L165.55 44.2171C169.669 43.8456 171.531 46.4636 171.531 51.3261V162.104C171.531 166.974 170.78 171.094 164.056 171.465L47.8305 178.203C41.1064 178.575 38.1227 176.336 38.1227 170.343H38.1208ZM152.851 64.8012C153.596 68.1699 152.851 71.5387 149.482 71.9237L143.88 73.0344V155.372C139.016 157.99 134.538 159.486 130.796 159.486C124.815 159.486 123.321 157.613 118.842 152.004L82.2091 94.3692V150.131L93.7976 152.754C93.7976 152.754 93.7975 159.492 84.4478 159.492L58.6721 160.988C57.9213 159.486 58.6721 155.746 61.2843 155.001L68.016 153.134V79.4061L58.674 78.6496C57.9232 75.2809 59.7905 70.4164 65.0265 70.0391L92.683 68.1776L130.798 126.557V74.9093L121.082 73.7928C120.332 69.6676 123.321 66.6703 127.056 66.3046L152.851 64.8012Z" fill="black"/>
</g>
<defs>
<clipPath id="clip0_1408_6577">
<rect width="192.5" height="192.5" fill="white" transform="translate(0 0.368164)"/>
</clipPath>
</defs>
</svg>
