<svg height="511pt" viewBox="-25 1 511 511.99873" width="511pt" xmlns="http://www.w3.org/2000/svg"><path d="m294.898438 384c-7.070313 0-12.800782 5.730469-12.800782 12.800781v51.199219c-.023437 21.199219-17.203125 38.378906-38.398437 38.402344h-179.199219c-21.199219-.023438-38.378906-17.203125-38.402344-38.402344v-384c.023438-21.195312 17.203125-38.375 38.402344-38.398438h179.199219c21.199219.023438 38.378906 17.203126 38.398437 38.398438v51.199219c0 7.070312 5.734375 12.800781 12.800782 12.800781 7.070312 0 12.800781-5.730469 12.800781-12.800781v-51.199219c-.035157-35.332031-28.667969-63.9648438-64-64h-179.199219c-35.328125.0429688-63.957031 28.671875-64 64v384c.042969 35.328125 28.671875 63.957031 64 64h179.199219c35.332031-.039062 63.964843-28.671875 64-64v-51.203125c0-7.066406-5.730469-12.796875-12.800781-12.796875zm0 0"/><path d="m457.550781 246.949219-76.800781-76.800781c-5.085938-4.910157-13.1875-4.769532-18.097656.316406-4.792969 4.960937-4.792969 12.824218 0 17.785156l54.945312 54.949219h-276.300781c-7.066406 0-12.796875 5.730469-12.796875 12.800781s5.730469 12.800781 12.796875 12.800781h276.300781l-54.949218 54.949219c-5.085938 4.910156-5.226563 13.015625-.3125 18.097656 4.910156 5.085938 13.011718 5.226563 18.097656.316406.105468-.105468.210937-.207031.316406-.316406l76.796875-76.800781c5-4.992187 5.003906-13.089844.007813-18.089844 0-.003906-.003907-.003906-.003907-.007812zm0 0"/></svg>