<svg width="63" height="48" viewBox="0 0 63 48" fill="none" xmlns="http://www.w3.org/2000/svg">
<circle cx="36" cy="12" r="12" fill="#FFD058"/>
<circle cx="39.9091" cy="19" r="4.90909" fill="#D9FFFD"/>
<circle cx="45.6361" cy="23.0909" r="4.90909" fill="#D9FFFD"/>
<circle cx="45.6361" cy="14.9091" r="4.90909" fill="#D9FFFD"/>
<circle cx="52.9999" cy="15.7273" r="4.90909" fill="#D9FFFD"/>
<circle cx="57.0907" cy="19.8181" r="4.90909" fill="#D9FFFD"/>
<circle cx="52.182" cy="23.0909" r="4.90909" fill="#D9FFFD"/>
<circle cx="48.0907" cy="19" r="4.90909" fill="#D9FFFD"/>
<path d="M24.1471 14.901C28.2085 10.2421 35.4815 10.3461 39.4079 15.1194L54.7081 33.7194C58.5026 38.3324 56.0722 45.252 50.1734 46.1905C44.3004 47.1249 37.4342 47.981 31.9065 47.9997C26.1202 48.0192 18.9009 47.131 12.7936 46.1665C6.9025 45.2361 4.4583 38.3371 8.22937 33.7166L15.3435 24.9999L24.1471 14.901Z" fill="#5EC639"/>
<path d="M27.9355 28.5299C27.9355 28.5299 29.8033 29.207 31.0001 29.207C32.1968 29.207 34.0646 28.5299 34.0646 28.5299" stroke="black" stroke-linecap="round"/>
<path d="M29.1615 24.8062C29.1615 25.928 28.7499 26.4988 28.2421 26.4988C27.7344 26.4988 27.3228 25.928 27.3228 24.8062C27.3228 23.6844 27.7344 23.1135 28.2421 23.1135C28.7499 23.1135 29.1615 23.6844 29.1615 24.8062Z" fill="black"/>
<path fill-rule="evenodd" clip-rule="evenodd" d="M29.0258 23.8382C29.0709 23.9725 29.106 24.1253 29.1291 24.2965C29.0789 24.4101 28.9749 24.4676 28.8548 24.4676C28.6855 24.4676 28.5483 24.3534 28.5483 24.1291C28.5483 23.9047 28.6855 23.7905 28.8548 23.7905C28.9181 23.7905 28.9769 23.8065 29.0258 23.8382Z" fill="white"/>
<path d="M34.6776 24.8062C34.6776 25.928 34.266 26.4988 33.7582 26.4988C33.2505 26.4988 32.8389 25.928 32.8389 24.8062C32.8389 23.6844 33.2505 23.1135 33.7582 23.1135C34.266 23.1135 34.6776 23.6844 34.6776 24.8062Z" fill="black"/>
<path fill-rule="evenodd" clip-rule="evenodd" d="M34.5419 23.8383C34.587 23.9725 34.6221 24.1253 34.6452 24.2965C34.595 24.4101 34.491 24.4676 34.3709 24.4676C34.2017 24.4676 34.0645 24.3534 34.0645 24.1291C34.0645 23.9047 34.2017 23.7905 34.3709 23.7905C34.4342 23.7905 34.493 23.8065 34.5419 23.8383Z" fill="white"/>
<g filter="url(#filter0_f_817_6352)">
<ellipse cx="37.1292" cy="27.8528" rx="1.83871" ry="0.677057" fill="#FF9C9C"/>
</g>
<g filter="url(#filter1_f_817_6352)">
<ellipse cx="25.4837" cy="27.8528" rx="1.83871" ry="0.677057" fill="#FF9C9C"/>
</g>
<circle cx="12.9091" cy="10" r="4.90909" fill="#D9FFFD"/>
<circle cx="18.6361" cy="14.0909" r="4.90909" fill="#D9FFFD"/>
<circle cx="18.6361" cy="5.90909" r="4.90909" fill="#D9FFFD"/>
<circle cx="25.9999" cy="6.72733" r="4.90909" fill="#D9FFFD"/>
<circle cx="30.0907" cy="10.8181" r="4.90909" fill="#D9FFFD"/>
<circle cx="25.182" cy="14.0909" r="4.90909" fill="#D9FFFD"/>
<circle cx="21.0907" cy="10" r="4.90909" fill="#D9FFFD"/>
<defs>
<filter id="filter0_f_817_6352" x="32.2905" y="24.1758" width="9.67725" height="7.35413" filterUnits="userSpaceOnUse" color-interpolation-filters="sRGB">
<feFlood flood-opacity="0" result="BackgroundImageFix"/>
<feBlend mode="normal" in="SourceGraphic" in2="BackgroundImageFix" result="shape"/>
<feGaussianBlur stdDeviation="1.5" result="effect1_foregroundBlur_817_6352"/>
</filter>
<filter id="filter1_f_817_6352" x="20.645" y="24.1758" width="9.67725" height="7.35413" filterUnits="userSpaceOnUse" color-interpolation-filters="sRGB">
<feFlood flood-opacity="0" result="BackgroundImageFix"/>
<feBlend mode="normal" in="SourceGraphic" in2="BackgroundImageFix" result="shape"/>
<feGaussianBlur stdDeviation="1.5" result="effect1_foregroundBlur_817_6352"/>
</filter>
</defs>
</svg>
