<svg width="512" height="434" viewBox="0 0 512 434" fill="none" xmlns="http://www.w3.org/2000/svg">
<path d="M481.095 47.02H450.19L481.095 124.284H512V77.926C512 60.928 498.093 47.02 481.095 47.02Z" fill="#6486C3"/>
<path d="M450.189 47.02H194.189V124.284H481.094V77.926C481.095 60.928 467.187 47.02 450.189 47.02ZM481.095 356.074L450.19 433.338H481.095C498.093 433.338 512 419.431 512 402.433V386.98L481.095 356.074Z" fill="#7D9BD1"/>
<path d="M481.095 402.433V356.075L0 386.98V402.433C0 419.431 13.907 433.338 30.905 433.338H450.189C467.187 433.338 481.095 419.431 481.095 402.433Z" fill="#91A8D0"/>
<path d="M481.095 93.3782H450.19L481.095 386.98H512V124.284C512 107.286 498.093 93.3782 481.095 93.3782Z" fill="#91A8D0"/>
<path d="M481.095 124.284C481.095 107.286 467.188 93.3791 450.19 93.3791H286.905L242.237 26.3771C232.809 12.2351 211.186 0.663086 194.188 0.663086H30.905C13.907 0.662086 0 14.5691 0 31.5671V386.98H481.095V124.284Z" fill="#B3C0D5"/>
</svg>
