<svg xmlns="http://www.w3.org/2000/svg" version="1.1" xmlns:xlink="http://www.w3.org/1999/xlink" xmlns:svgjs="http://svgjs.com/svgjs" width="512" height="512" x="0" y="0" viewBox="0 0 24 24" style="enable-background:new 0 0 512 512" xml:space="preserve" class=""><g><path d="M13.135 5.75c-.409 0-.792-.2-1.026-.535l-.897-1.287A2.75 2.75 0 0 0 8.956 2.75H4A2.75 2.75 0 0 0 1.25 5.5v13c0 .729.29 1.429.805 1.945A2.755 2.755 0 0 0 4 21.25h16c.729 0 1.429-.29 1.945-.805a2.755 2.755 0 0 0 .805-1.945v-10c0-.729-.29-1.429-.805-1.945A2.755 2.755 0 0 0 20 5.75zm0 1.5H20a1.252 1.252 0 0 1 1.25 1.25v10A1.252 1.252 0 0 1 20 19.75H4a1.252 1.252 0 0 1-1.25-1.25v-13c0-.69.56-1.25 1.25-1.25h4.956c.409 0 .792.2 1.026.535l.897 1.287a2.749 2.749 0 0 0 2.256 1.178z" fill="#ffffff" data-original="#000000" class=""></path><path d="M14.5 12.75h-5a.75.75 0 0 0 0 1.5h5a.75.75 0 0 0 0-1.5z" fill="#ffffff" data-original="#000000" class=""></path><path d="m11.97 12.03 1.469 1.47-1.469 1.47a.749.749 0 1 0 1.06 1.06l2-2a.749.749 0 0 0 0-1.06l-2-2a.749.749 0 1 0-1.06 1.06z" fill="#ffffff" data-original="#000000" class=""></path></g></svg>