<svg width="1173" height="1044" viewBox="0 0 1173 1044" fill="none" xmlns="http://www.w3.org/2000/svg">
<g filter="url(#filter0_d_1001_7539)">
<path d="M373.597 392.263C373.822 365.93 354.454 344.421 330.332 344.214C320.428 344.167 310.792 347.837 303.065 354.616C308.623 324.119 290.818 294.409 263.014 287.764C235.202 281.11 207.598 299.964 200.89 330.191C192.616 324.179 182.361 322.349 172.74 325.154C163.119 327.968 155.065 335.153 150.631 344.884C137.466 340.18 123.036 342.683 111.836 351.592C100.628 360.501 94.0312 374.749 94.0895 389.872C93.8957 412.528 108.332 432.179 128.628 436.888L128.62 437.847L338.251 439.64L338.259 438.681C358.642 434.32 373.412 414.919 373.597 392.263Z" fill="#DDE7FF"/>
</g>
<path d="M597.186 860.081C784.834 860.081 936.953 707.962 936.953 520.313C936.953 332.664 784.834 180.544 597.186 180.544C409.538 180.544 257.419 332.664 257.419 520.313C257.419 707.962 409.538 860.081 597.186 860.081Z" fill="#89C8FD"/>
<path fill-rule="evenodd" clip-rule="evenodd" d="M577.667 181.093C756.23 191.21 897.91 339.216 897.91 520.311C897.91 701.408 756.23 849.413 577.667 859.529C584.127 859.895 590.637 860.081 597.19 860.081C784.837 860.081 936.957 707.96 936.957 520.313C936.957 332.665 784.837 180.544 597.19 180.544C590.636 180.543 584.127 180.728 577.667 181.093Z" fill="#60B6FF"/>
<path fill-rule="evenodd" clip-rule="evenodd" d="M581.298 743.765C588.81 683.027 648.547 670.973 654.032 598.704C657.269 556.057 534.806 521.175 521.198 522.257C465.194 526.714 473.619 536.303 442.357 486.177C403.158 423.322 502.829 460.73 510.742 420.203C517.272 386.765 543.043 381.416 561.086 370.146C575.522 361.128 601.85 358.393 621.677 353.056C637.896 348.691 637.653 330.15 639.743 315.538C644.328 283.522 637.421 278.709 609.298 274.704C562.47 268.033 578.17 235.524 515.163 248.788C452.793 261.919 470.566 257.216 407.762 238.201C356.094 272.962 314.496 321.544 288.267 378.649C323.18 483.044 394.892 502.992 407.15 515.632C417.756 526.568 432.875 534.948 433.261 569.488C434.503 680.482 484.94 603.865 507.567 730.73C528.986 850.804 572.547 814.514 581.298 743.765ZM721.187 548.427C645.274 498.654 729.272 462.418 714.655 430.948C712.358 426.003 729.373 403.167 740.492 406.777C765.997 415.056 831.142 416.136 840.714 413.512C852.686 410.23 871.658 364.642 830.541 363.03C821.756 362.687 750.448 372.675 746.344 364.642C742.279 354.456 734.156 316.716 752.46 299.981C773.54 280.708 815.895 273.84 823.576 266.95C893.156 329.166 936.953 419.624 936.953 520.31C936.953 593.525 913.796 661.33 874.407 716.802C850.469 739.653 804.027 737.194 810.501 711.146C821.33 667.57 814.224 655.426 814.798 628.249C816.974 525.023 771.666 566.946 721.187 548.427Z" fill="#BAEB6C"/>
<path fill-rule="evenodd" clip-rule="evenodd" d="M796.081 277.765C858.924 339.424 897.908 425.313 897.908 520.308C897.908 600.026 870.454 673.331 824.486 731.286C838.794 734.853 860.435 730.139 874.409 716.799C913.798 661.327 936.955 593.521 936.955 520.307C936.955 419.621 893.16 329.163 823.578 266.947C820.014 270.144 808.985 273.336 796.081 277.765Z" fill="#96D629"/>
<g filter="url(#filter1_d_1001_7539)">
<path d="M861.673 245.272C861.847 220.71 843.752 200.675 821.253 200.516C812.016 200.485 803.032 203.922 795.835 210.255C800.977 181.803 784.329 154.117 758.387 147.958C732.437 141.79 706.717 159.414 700.502 187.616C692.776 182.02 683.209 180.328 674.239 182.957C665.27 185.595 657.767 192.308 653.645 201.39C641.36 197.021 627.905 199.375 617.471 207.701C607.029 216.026 600.896 229.324 600.971 243.43C600.822 264.561 614.314 282.87 633.251 287.233L633.245 288.128L828.771 289.509L828.778 288.615C847.783 284.519 861.532 266.403 861.673 245.272Z" fill="#DDE7FF"/>
</g>
<g filter="url(#filter2_d_1001_7539)">
<path d="M983.642 297.544C983.815 272.983 965.721 252.948 943.221 252.789C933.984 252.758 925.001 256.195 917.803 262.528C922.945 234.076 906.297 206.39 880.355 200.231C854.405 194.063 828.685 211.687 822.471 239.888C814.745 234.292 805.177 232.601 796.208 235.23C787.238 237.868 779.735 244.581 775.614 253.663C763.328 249.294 749.873 251.648 739.439 259.973C728.997 268.299 722.864 281.596 722.94 295.702C722.79 316.833 736.282 335.142 755.219 339.506L755.213 340.4L950.74 341.782L950.746 340.888C969.751 336.792 983.5 318.675 983.642 297.544Z" fill="#DDE7FF"/>
</g>
<g filter="url(#filter3_f_1001_7539)">
<ellipse cx="701.439" cy="523.397" rx="32.0376" ry="11.7971" fill="#FF9C9C"/>
</g>
<g filter="url(#filter4_f_1001_7539)">
<ellipse cx="498.541" cy="523.398" rx="32.0376" ry="11.7971" fill="#FF9C9C"/>
</g>
<path d="M565.421 536.277C565.421 536.277 579.416 544.47 600.269 544.47C621.121 544.47 635.117 536.277 635.117 536.277" stroke="black" stroke-width="17.424" stroke-linecap="round"/>
<path d="M568.238 471.397C568.238 490.943 561.066 500.889 552.219 500.889C543.373 500.889 536.201 490.943 536.201 471.397C536.201 451.851 543.373 441.904 552.219 441.904C561.066 441.904 568.238 451.851 568.238 471.397Z" fill="black"/>
<path fill-rule="evenodd" clip-rule="evenodd" d="M565.873 454.535C566.659 456.875 567.27 459.538 567.674 462.521C566.798 464.5 564.987 465.501 562.894 465.501C559.945 465.501 557.555 463.512 557.555 459.603C557.555 455.693 559.945 453.704 562.894 453.704C563.997 453.704 565.022 453.982 565.873 454.535Z" fill="white"/>
<path d="M664.35 471.396C664.35 490.942 657.178 500.889 648.331 500.889C639.484 500.889 632.312 490.942 632.312 471.396C632.312 451.85 639.484 441.904 648.331 441.904C657.178 441.904 664.35 451.85 664.35 471.396Z" fill="black"/>
<path fill-rule="evenodd" clip-rule="evenodd" d="M661.985 454.531C662.771 456.871 663.382 459.533 663.786 462.517C662.91 464.495 661.099 465.497 659.006 465.497C656.057 465.497 653.667 463.507 653.667 459.598C653.667 455.689 656.057 453.7 659.006 453.7C660.109 453.7 661.134 453.978 661.985 454.531Z" fill="white"/>
<path d="M471.529 164.723L321.74 78.2451C317.257 75.6555 318.552 68.8645 323.669 68.0982L379.538 59.7658C403.382 56.2161 427.736 60.629 448.805 72.3437L568.321 138.783L471.529 164.723Z" fill="#E9E9E9"/>
<path opacity="0.09" d="M508.513 154.818L471.537 164.727L321.757 78.1697C317.229 75.6418 318.577 68.8332 323.677 68.0316L356.02 63.2136C355.844 65.0721 356.725 67.098 358.733 68.2606L508.513 154.818Z" fill="black"/>
<path d="M739.744 135.872C743.584 150.202 729.262 172.249 688.763 183.109L481.395 238.671C341.031 276.281 277.102 263.113 240.936 218.447C210.875 181.312 188.458 152.95 177.836 139.386C175.449 136.338 176.946 131.908 180.689 130.913C191.004 128.156 209.104 123.302 219.859 120.413C225.302 118.951 231.115 120.396 235.246 124.219L290.464 175.341L614.229 88.5899C655.301 77.5886 682.58 102.11 695.457 107.915C712.545 110.161 735.445 119.788 739.744 135.872Z" fill="#F9F9F9"/>
<path d="M739.744 135.905C743.576 150.191 729.219 172.247 688.799 183.072L481.378 238.651C341.04 276.253 277.111 263.129 240.963 218.48C210.849 181.354 188.494 152.992 177.854 139.41C175.44 136.319 176.964 131.897 180.707 130.893L219.824 120.411C225.311 118.94 231.116 120.376 235.22 124.225L290.464 175.338L614.177 88.5965C642.143 81.1008 663.687 90.0851 678.705 98.3823C685.707 102.205 691.3 106.028 695.449 107.904C712.572 110.132 735.428 119.786 739.744 135.905Z" fill="#F4F4F4"/>
<path d="M739.776 135.795L739.802 135.9C743.625 150.161 729.268 172.234 688.698 183.103L481.339 238.664C394.087 262.041 336.333 265.855 296.521 254.563L739.776 135.795Z" fill="#379ADD"/>
<path d="M580.183 124.796C576.607 125.757 574.528 129.482 575.4 133.085C576.466 136.723 580.112 138.828 583.767 137.841C587.335 136.881 589.44 133.243 588.55 129.553C587.511 126.003 583.838 123.81 580.183 124.796Z" fill="#A8A8A8"/>
<path d="M542.382 148.687C546.118 148.687 549.147 145.658 549.147 141.922C549.147 138.186 546.118 135.157 542.382 135.157C538.646 135.157 535.618 138.186 535.618 141.922C535.618 145.658 538.646 148.687 542.382 148.687Z" fill="#A8A8A8"/>
<path d="M502.838 159.284C506.574 159.284 509.602 156.255 509.602 152.519C509.602 148.783 506.574 145.754 502.838 145.754C499.102 145.754 496.073 148.783 496.073 152.519C496.073 156.255 499.102 159.284 502.838 159.284Z" fill="#A8A8A8"/>
<path d="M463.285 169.883C467.021 169.883 470.049 166.854 470.049 163.118C470.049 159.382 467.021 156.354 463.285 156.354C459.549 156.354 456.52 159.382 456.52 163.118C456.52 166.854 459.549 169.883 463.285 169.883Z" fill="#A8A8A8"/>
<path d="M423.647 180.507C427.383 180.507 430.411 177.479 430.411 173.743C430.411 170.007 427.383 166.978 423.647 166.978C419.911 166.978 416.882 170.007 416.882 173.743C416.882 177.479 419.911 180.507 423.647 180.507Z" fill="#A8A8A8"/>
<path d="M384.103 191.107C387.839 191.107 390.868 188.078 390.868 184.342C390.868 180.607 387.839 177.578 384.103 177.578C380.367 177.578 377.339 180.607 377.339 184.342C377.339 188.078 380.367 191.107 384.103 191.107Z" fill="#A8A8A8"/>
<path d="M678.709 98.3979L638.289 109.232C634.801 110.166 632.546 113.944 633.506 117.52C634.51 121.264 638.307 123.237 641.795 122.303L695.453 107.928C691.305 106.043 685.703 102.221 678.709 98.3979Z" fill="#A8A8A8"/>
<path opacity="0.09" d="M740.173 142.587C738.781 156.433 723.403 173.803 688.752 183.086L481.384 238.648C340.993 276.267 277.126 263.152 240.934 218.504C210.934 181.369 188.5 152.954 177.851 139.39C175.473 136.404 176.988 131.92 180.687 130.934L196.744 126.635C208.785 141.979 228.4 166.615 253.168 197.347C289.361 241.995 353.333 255.084 493.619 217.491L700.986 161.929C719.025 157.076 731.858 150.012 740.173 142.587Z" fill="black"/>
<path d="M267.468 216.399C274.541 214.505 281.614 212.612 288.687 210.718C293.391 209.458 297.275 214.514 294.835 218.733L262.43 274.867C258.079 282.407 250.909 287.903 242.507 290.158L226.996 294.315C222.706 295.46 218.91 291.294 220.46 287.128C228.458 265.61 236.447 244.092 244.453 222.582C252.116 220.512 259.788 218.46 267.468 216.399Z" fill="#4190EF"/>
<path opacity="0.09" d="M246.224 288.977C244.99 289.417 243.74 289.866 242.48 290.201L227.057 294.332C222.733 295.495 218.883 291.311 220.495 287.145L244.392 222.546L265.302 216.944L241.291 281.569C239.891 285.233 242.683 288.898 246.224 288.977Z" fill="black"/>
<path d="M480.116 196.761L393.639 346.551C391.049 351.034 395.559 356.275 400.386 354.372L452.935 333.647C475.36 324.804 494.244 308.8 506.628 288.118L576.916 170.821" fill="#F4F4F4"/>
<path opacity="0.09" d="M430.641 336.609C429.478 338.618 429.707 340.714 430.817 342.335L400.403 354.331C395.603 356.295 391.031 351.063 393.665 346.51L480.125 196.764L517.101 186.854L430.641 336.609Z" fill="black"/>
<path d="M276.635 737.476C278.787 740.482 278.226 744.65 275.296 746.97L264.727 755.341C261.622 757.8 257.079 757.236 254.8 754.05C252.289 750.54 249.834 746.974 247.446 743.376C245.413 740.313 246.266 736.209 249.323 734.088L260.336 726.451C263.605 724.184 268.109 725.057 270.297 728.323C272.363 731.408 274.479 734.465 276.635 737.476Z" fill="#4190EF"/>
<path d="M213.531 599.394C214.261 602.963 212.101 606.529 208.537 607.537L196.097 611.057C192.222 612.153 188.228 609.811 187.442 605.928C186.55 601.522 185.722 597.096 184.972 592.666C184.364 589.071 186.778 585.651 190.404 584.884L202.962 582.226C206.89 581.395 210.69 583.985 211.361 587.878C212.025 591.73 212.751 595.577 213.531 599.394Z" fill="#4190EF"/>
<path d="M228.236 648.181C229.448 651.621 227.791 655.441 224.392 656.911L212.338 662.124C208.654 663.718 204.385 661.942 203.076 658.213C201.611 654.043 200.211 649.833 198.881 645.609C197.786 642.131 199.708 638.422 203.198 637.176L215.47 632.795C219.254 631.444 223.383 633.503 224.58 637.271C225.743 640.931 226.962 644.568 228.236 648.181Z" fill="#4190EF"/>
<path d="M205.549 549.03C205.785 552.672 203.155 555.928 199.484 556.453L186.855 558.258C182.881 558.826 179.258 555.99 179.003 552.047C178.709 547.493 178.489 542.915 178.351 538.342C178.24 534.684 181.114 531.607 184.82 531.342L197.458 530.436C201.432 530.152 204.814 533.194 204.954 537.116C205.095 541.085 205.292 545.066 205.549 549.03Z" fill="#4190EF"/>
<path d="M249.414 694.502C251.103 697.752 249.985 701.772 246.801 703.684L235.401 710.529C231.974 712.588 227.511 711.408 225.696 707.906C223.694 704.042 221.747 700.126 219.869 696.181C218.295 692.878 219.701 688.939 223.005 687.246L234.75 681.225C238.323 679.393 242.696 680.892 244.403 684.461C246.017 687.836 247.693 691.191 249.414 694.502Z" fill="#4190EF"/>
<path d="M309.434 776.347C312.03 779.036 312.058 783.281 309.438 785.983L299.979 795.741C297.248 798.558 292.706 798.614 290.006 795.807C287.039 792.724 284.114 789.575 281.249 786.384C278.765 783.616 279.048 779.391 281.831 776.876L291.856 767.818C294.791 765.167 299.351 765.443 301.975 768.356C304.419 771.069 306.91 773.733 309.434 776.347Z" fill="#4190EF"/>
<path d="M242.777 350.812C241.072 354.211 236.944 355.708 233.467 354.135L222.39 349.123C218.877 347.533 217.366 343.416 219.085 339.98C221.205 335.741 223.402 331.522 225.659 327.351C227.48 323.987 231.736 322.763 235.108 324.586L245.786 330.359C249.158 332.181 250.366 336.36 248.549 339.726C246.562 343.405 244.638 347.101 242.777 350.812Z" fill="#4190EF"/>
<path d="M223.284 397.949C222.046 401.5 218.201 403.511 214.562 402.45L202.819 399.025C199.075 397.933 196.989 394.016 198.261 390.362C199.811 385.908 201.445 381.454 203.147 377.036C204.505 373.51 208.508 371.753 212.075 373.069L223.508 377.286C227.151 378.63 228.945 382.661 227.562 386.264C226.071 390.148 224.643 394.049 223.284 397.949Z" fill="#4190EF"/>
<path d="M210.421 447.344C209.669 450.972 206.192 453.442 202.48 452.925L190.225 451.218C186.313 450.673 183.658 447.033 184.445 443.208C185.39 438.611 186.413 434.024 187.509 429.476C188.382 425.85 192.06 423.602 195.746 424.388L207.788 426.955C211.627 427.774 213.995 431.559 213.094 435.339C212.147 439.316 211.254 443.326 210.421 447.344Z" fill="#4190EF"/>
<path d="M204.495 498.029C204.239 501.697 201.161 504.592 197.432 504.601L184.872 504.632C180.891 504.641 177.726 501.375 178 497.46C178.324 492.84 178.734 488.194 179.22 483.567C179.605 479.902 182.896 477.214 186.622 477.46L199.048 478.284C203.018 478.547 205.933 482.024 205.534 485.931C205.123 489.963 204.776 494.003 204.495 498.029Z" fill="#4190EF"/>
<path d="M538.293 908.78C537.852 912.448 534.554 915.147 530.825 914.825C526.483 914.45 522.125 913.999 517.778 913.475C513.853 913.002 511.205 909.351 511.933 905.512L514.435 892.314C515.125 888.677 518.602 886.212 522.32 886.659C526.04 887.106 529.772 887.5 533.494 887.835C537.445 888.191 540.354 891.652 539.886 895.54L538.293 908.78Z" fill="#4190EF"/>
<path d="M592.14 910.489C592.186 914.149 589.317 917.232 585.606 917.43C581.173 917.667 576.736 917.826 572.327 917.903C568.353 917.973 565.215 914.693 565.426 910.781L566.141 897.524C566.339 893.85 569.432 890.965 573.164 890.893C576.944 890.82 580.743 890.686 584.543 890.494C588.537 890.292 591.926 893.356 591.975 897.296L592.14 910.489Z" fill="#4190EF"/>
<path d="M347.318 810.425C350.302 812.744 350.923 816.989 348.659 820.029L340.512 830.969C338.196 834.079 333.753 834.739 330.696 832.372C327.325 829.762 323.984 827.084 320.696 824.35C317.809 821.948 317.498 817.688 319.942 814.814L328.777 804.423C331.301 801.455 335.789 801.1 338.776 803.573C341.594 805.905 344.443 808.192 347.318 810.425Z" fill="#4190EF"/>
<path d="M433.979 883.457C432.563 886.96 428.561 888.722 425.023 887.336C421.04 885.777 417.064 884.137 413.122 882.421C409.602 880.888 408.123 876.783 409.782 873.338L415.74 860.967C417.39 857.54 421.526 856.054 425.036 857.562C428.396 859.006 431.774 860.394 435.15 861.721C438.762 863.139 440.562 867.162 439.117 870.74L433.979 883.457Z" fill="#4190EF"/>
<path d="M389.486 839.072C392.816 840.966 394.035 845.14 392.161 848.476L385.477 860.376C383.603 863.711 379.348 864.944 376.013 863.058C372.284 860.95 368.597 858.778 364.972 856.557C361.728 854.569 360.821 850.339 362.896 847.149L370.352 835.681C372.461 832.436 376.841 831.509 380.136 833.537C383.207 835.429 386.324 837.273 389.486 839.072Z" fill="#4190EF"/>
<path d="M485.232 899.723C484.294 903.333 480.618 905.582 476.95 904.728C472.745 903.749 468.554 902.698 464.405 901.581C460.629 900.564 458.544 896.629 459.766 892.947L464.031 880.101C465.212 876.541 469.053 874.547 472.706 875.53C476.248 876.482 479.821 877.382 483.404 878.226C487.229 879.127 489.6 882.917 488.621 886.685L485.232 899.723Z" fill="#4190EF"/>
<defs>
<filter id="filter0_d_1001_7539" x="94.0874" y="286.429" width="314.36" height="188.059" filterUnits="userSpaceOnUse" color-interpolation-filters="sRGB">
<feFlood flood-opacity="0" result="BackgroundImageFix"/>
<feColorMatrix in="SourceAlpha" type="matrix" values="0 0 0 0 0 0 0 0 0 0 0 0 0 0 0 0 0 0 127 0" result="hardAlpha"/>
<feOffset dx="17.424" dy="17.424"/>
<feGaussianBlur stdDeviation="8.71199"/>
<feComposite in2="hardAlpha" operator="out"/>
<feColorMatrix type="matrix" values="0 0 0 0 0 0 0 0 0 0 0 0 0 0 0 0 0 0 0.25 0"/>
<feBlend mode="normal" in2="BackgroundImageFix" result="effect1_dropShadow_1001_7539"/>
<feBlend mode="normal" in="SourceGraphic" in2="effect1_dropShadow_1001_7539" result="shape"/>
</filter>
<filter id="filter1_d_1001_7539" x="600.97" y="146.729" width="295.552" height="177.629" filterUnits="userSpaceOnUse" color-interpolation-filters="sRGB">
<feFlood flood-opacity="0" result="BackgroundImageFix"/>
<feColorMatrix in="SourceAlpha" type="matrix" values="0 0 0 0 0 0 0 0 0 0 0 0 0 0 0 0 0 0 127 0" result="hardAlpha"/>
<feOffset dx="17.424" dy="17.424"/>
<feGaussianBlur stdDeviation="8.71199"/>
<feComposite in2="hardAlpha" operator="out"/>
<feColorMatrix type="matrix" values="0 0 0 0 0 0 0 0 0 0 0 0 0 0 0 0 0 0 0.25 0"/>
<feBlend mode="normal" in2="BackgroundImageFix" result="effect1_dropShadow_1001_7539"/>
<feBlend mode="normal" in="SourceGraphic" in2="effect1_dropShadow_1001_7539" result="shape"/>
</filter>
<filter id="filter2_d_1001_7539" x="722.938" y="199.001" width="295.552" height="177.629" filterUnits="userSpaceOnUse" color-interpolation-filters="sRGB">
<feFlood flood-opacity="0" result="BackgroundImageFix"/>
<feColorMatrix in="SourceAlpha" type="matrix" values="0 0 0 0 0 0 0 0 0 0 0 0 0 0 0 0 0 0 127 0" result="hardAlpha"/>
<feOffset dx="17.424" dy="17.424"/>
<feGaussianBlur stdDeviation="8.71199"/>
<feComposite in2="hardAlpha" operator="out"/>
<feColorMatrix type="matrix" values="0 0 0 0 0 0 0 0 0 0 0 0 0 0 0 0 0 0 0.25 0"/>
<feBlend mode="normal" in2="BackgroundImageFix" result="effect1_dropShadow_1001_7539"/>
<feBlend mode="normal" in="SourceGraphic" in2="effect1_dropShadow_1001_7539" result="shape"/>
</filter>
<filter id="filter3_f_1001_7539" x="617.13" y="459.328" width="168.619" height="128.138" filterUnits="userSpaceOnUse" color-interpolation-filters="sRGB">
<feFlood flood-opacity="0" result="BackgroundImageFix"/>
<feBlend mode="normal" in="SourceGraphic" in2="BackgroundImageFix" result="shape"/>
<feGaussianBlur stdDeviation="26.136" result="effect1_foregroundBlur_1001_7539"/>
</filter>
<filter id="filter4_f_1001_7539" x="414.231" y="459.329" width="168.619" height="128.138" filterUnits="userSpaceOnUse" color-interpolation-filters="sRGB">
<feFlood flood-opacity="0" result="BackgroundImageFix"/>
<feBlend mode="normal" in="SourceGraphic" in2="BackgroundImageFix" result="shape"/>
<feGaussianBlur stdDeviation="26.136" result="effect1_foregroundBlur_1001_7539"/>
</filter>
</defs>
</svg>
