<svg width="754" height="1092" viewBox="0 0 754 1092" fill="none" xmlns="http://www.w3.org/2000/svg">
<rect x="0.124512" y="364.19" width="623.693" height="649.688" rx="51.9747" fill="#B98554"/>
<mask id="path-2-inside-1_1001_7083" fill="white">
<path d="M363.946 702.028C363.946 719.251 358.128 728.015 350.952 728.015C343.776 728.015 337.958 719.251 337.958 702.028C337.958 684.805 343.776 676.04 350.952 676.04C358.128 676.04 363.946 684.805 363.946 702.028Z"/>
</mask>
<path d="M363.946 702.028C363.946 719.251 358.128 728.015 350.952 728.015C343.776 728.015 337.958 719.251 337.958 702.028C337.958 684.805 343.776 676.04 350.952 676.04C358.128 676.04 363.946 684.805 363.946 702.028Z" fill="black"/>
<path d="M337.958 702.028C337.958 708.2 336.841 709.932 337.286 709.109C337.583 708.56 338.654 706.808 341.083 705.104C343.703 703.265 347.168 702.028 350.952 702.028V754.003C366.895 754.003 377.62 743.778 382.994 733.851C388.142 724.341 389.933 713.079 389.933 702.028H337.958ZM350.952 702.028C354.737 702.028 358.201 703.265 360.821 705.104C363.25 706.808 364.321 708.56 364.618 709.109C365.063 709.932 363.946 708.2 363.946 702.028H311.971C311.971 713.079 313.762 724.341 318.91 733.851C324.284 743.778 335.009 754.003 350.952 754.003V702.028ZM363.946 702.028C363.946 695.856 365.063 694.124 364.618 694.946C364.321 695.495 363.25 697.247 360.821 698.952C358.201 700.79 354.737 702.028 350.952 702.028V650.053C335.009 650.053 324.284 660.277 318.91 670.205C313.762 679.715 311.971 690.977 311.971 702.028H363.946ZM350.952 702.028C347.168 702.028 343.703 700.79 341.083 698.952C338.654 697.247 337.583 695.495 337.286 694.946C336.841 694.124 337.958 695.856 337.958 702.028H389.933C389.933 690.977 388.142 679.715 382.994 670.205C377.62 660.277 366.895 650.053 350.952 650.053V702.028Z" fill="black" mask="url(#path-2-inside-1_1001_7083)"/>
<mask id="path-4-inside-2_1001_7083" fill="white">
<path d="M285.984 702.028C285.984 719.251 280.167 728.015 272.99 728.015C265.814 728.015 259.997 719.251 259.997 702.028C259.997 684.805 265.814 676.04 272.99 676.04C280.167 676.04 285.984 684.805 285.984 702.028Z"/>
</mask>
<path d="M285.984 702.028C285.984 719.251 280.167 728.015 272.99 728.015C265.814 728.015 259.997 719.251 259.997 702.028C259.997 684.805 265.814 676.04 272.99 676.04C280.167 676.04 285.984 684.805 285.984 702.028Z" fill="black"/>
<path d="M259.997 702.028C259.997 708.2 258.879 709.932 259.324 709.109C259.622 708.56 260.693 706.808 263.121 705.104C265.742 703.265 269.206 702.028 272.99 702.028V754.003C288.933 754.003 299.659 743.778 305.032 733.851C310.18 724.341 311.971 713.079 311.971 702.028H259.997ZM272.99 702.028C276.775 702.028 280.239 703.265 282.859 705.104C285.288 706.808 286.359 708.56 286.657 709.109C287.102 709.932 285.984 708.2 285.984 702.028H234.009C234.009 713.079 235.801 724.341 240.949 733.851C246.322 743.778 257.047 754.003 272.99 754.003V702.028ZM285.984 702.028C285.984 695.856 287.102 694.124 286.657 694.946C286.359 695.495 285.288 697.248 282.859 698.952C280.239 700.79 276.775 702.028 272.99 702.028V650.053C257.047 650.053 246.322 660.277 240.949 670.205C235.801 679.715 234.009 690.977 234.009 702.028H285.984ZM272.99 702.028C269.206 702.028 265.742 700.79 263.121 698.952C260.693 697.248 259.622 695.495 259.324 694.946C258.879 694.124 259.997 695.856 259.997 702.028H311.971C311.971 690.977 310.18 679.715 305.032 670.205C299.659 660.277 288.933 650.053 272.99 650.053V702.028Z" fill="black" mask="url(#path-4-inside-2_1001_7083)"/>
<path d="M285.984 779.99C285.984 779.99 298.132 792.984 311.971 792.984C325.81 792.984 337.958 779.99 337.958 779.99" stroke="black" stroke-width="25.9874" stroke-linecap="round"/>
<path d="M610.824 416.165C610.824 429.58 604.355 443.535 590.193 457.486C575.985 471.483 554.759 484.685 527.482 496.051C472.986 518.758 396.798 533.109 311.971 533.109C227.144 533.109 150.957 518.758 96.4599 496.051C69.1831 484.685 47.9576 471.483 33.7498 457.486C19.5878 443.535 13.1182 429.58 13.1182 416.165C13.1182 402.751 19.5878 388.796 33.7498 374.844C47.9576 360.848 69.1831 347.645 96.4599 336.28C150.957 313.573 227.144 299.221 311.971 299.221C396.798 299.221 472.986 313.573 527.482 336.28C554.759 347.645 575.985 360.848 590.193 374.844C604.355 388.796 610.824 402.751 610.824 416.165Z" fill="#B98554" stroke="#B17F4F" stroke-width="25.9874"/>
<path d="M190.699 390.191C294.648 338.206 381.272 351.197 485.221 390.194" stroke="#B17F4F" stroke-width="25.9874" stroke-linecap="round"/>
<path d="M242.674 455.147C381.272 494.127 745.093 416.163 433.247 338.209" stroke="#B17F4F" stroke-width="25.9874" stroke-linecap="round"/>
<path d="M311.977 390.887C537.199 390.879 302.899 475.791 242.678 416.884" stroke="#B17F4F" stroke-width="25.9873" stroke-linecap="round"/>
<path d="M173.37 351.197C0.121086 403.176 86.7459 494.125 277.319 494.122" stroke="#B17F4F" stroke-width="25.9873" stroke-linecap="round"/>
<path d="M610.824 416.165C610.824 429.58 604.355 443.535 590.193 457.486C575.985 471.483 554.759 484.685 527.482 496.051C472.986 518.758 396.798 533.109 311.971 533.109C227.144 533.109 150.957 518.758 96.4599 496.051C69.1831 484.685 47.9576 471.483 33.7498 457.486C19.5878 443.535 13.1182 429.58 13.1182 416.165C13.1182 402.751 19.5878 388.796 33.7498 374.844C47.9576 360.848 69.1831 347.645 96.4599 336.28C150.957 313.573 227.144 299.221 311.971 299.221C396.798 299.221 472.986 313.573 527.482 336.28C554.759 347.645 575.985 360.848 590.193 374.844C604.355 388.796 610.824 402.751 610.824 416.165Z" fill="#B98554" stroke="#B17F4F" stroke-width="25.9874"/>
<ellipse cx="311.971" cy="961.903" rx="311.847" ry="129.938" fill="#B98554"/>
<path d="M450.568 566.885V941.105" stroke="#B17F4F" stroke-width="25.9874" stroke-linecap="round"/>
<path d="M104.071 520.112V831.962" stroke="#B17F4F" stroke-width="25.9874" stroke-linecap="round"/>
<path d="M519.87 670.844V1045.06" stroke="#B17F4F" stroke-width="25.9874" stroke-linecap="round"/>
<path d="M173.371 816.367V1024.27" stroke="#B17F4F" stroke-width="25.9874" stroke-linecap="round"/>
<path d="M571.842 546.1V754" stroke="#B17F4F" stroke-width="25.9874" stroke-linecap="round"/>
<path d="M52.0967 598.075V883.938" stroke="#B17F4F" stroke-width="25.9874" stroke-linecap="round"/>
<path d="M190.699 390.191C294.648 338.206 381.272 351.197 485.221 390.194" stroke="#B17F4F" stroke-width="25.9874" stroke-linecap="round"/>
<path d="M242.674 455.147C381.272 494.127 745.093 416.163 433.247 338.209" stroke="#B17F4F" stroke-width="25.9874" stroke-linecap="round"/>
<path d="M311.977 390.887C537.199 390.879 302.899 475.791 242.678 416.884" stroke="#B17F4F" stroke-width="25.9873" stroke-linecap="round"/>
<path d="M173.37 351.197C0.121086 403.176 86.7459 494.125 277.319 494.122" stroke="#B17F4F" stroke-width="25.9873" stroke-linecap="round"/>
<path d="M303.718 390.175C360.051 429.13 442.082 411.674 513.792 393.922C646.393 361.097 727.277 226.991 694.452 94.3889C685.226 57.1199 673.427 33.5103 664.822 19.9417C658.736 10.3448 646.533 8.63237 636.633 14.2124C606.121 31.4105 541.966 67.1617 516.5 78.2393C365.906 146.344 294.448 225.68 303.718 390.175Z" fill="#75D753"/>
<path d="M316.708 377.181C368.683 260.237 485.625 234.25 537.6 208.262" stroke="#60C53D" stroke-width="25.9874" stroke-linecap="round"/>
</svg>
