<svg width="15360" height="8640" viewBox="0 0 15360 8640" fill="none" xmlns="http://www.w3.org/2000/svg">
<g clip-path="url(#clip0_1219_7441)">
<rect width="15360" height="8640" fill="#B0E3FF"/>
<circle cx="1509.86" cy="3008.07" r="476.405" fill="white"/>
<circle cx="3252.15" cy="3008.07" r="476.405" fill="white"/>
<circle cx="2408.2" cy="2899.18" r="585.298" fill="white"/>
<rect x="1509.84" y="3062.51" width="1796.73" height="421.959" fill="white"/>
<circle cx="12310.5" cy="5176.3" r="476.405" fill="white"/>
<circle cx="14052.8" cy="5176.3" r="476.405" fill="white"/>
<circle cx="13208.8" cy="5067.41" r="585.298" fill="white"/>
<rect x="12310.5" y="5230.74" width="1796.73" height="421.959" fill="white"/>
<circle cx="152.186" cy="7689.02" r="476.405" fill="white"/>
<circle cx="1894.48" cy="7689.02" r="476.405" fill="white"/>
<circle cx="1050.53" cy="7580.13" r="585.298" fill="white"/>
<rect x="152.188" y="7743.46" width="1796.73" height="421.959" fill="white"/>
<circle cx="13688.4" cy="1164.06" r="476.405" fill="white"/>
<circle cx="15430.7" cy="1164.06" r="476.405" fill="white"/>
<circle cx="14586.8" cy="1055.17" r="585.298" fill="white"/>
<rect x="13688.4" y="1218.5" width="1796.73" height="421.959" fill="white"/>
<circle cx="10293.9" cy="2808.07" r="476.405" fill="white"/>
<circle cx="12036.2" cy="2808.07" r="476.405" fill="white"/>
<circle cx="11192.2" cy="2699.18" r="585.298" fill="white"/>
<rect x="10293.8" y="2862.51" width="1796.73" height="421.959" fill="white"/>
</g>
<defs>
<clipPath id="clip0_1219_7441">
<rect width="15360" height="8640" fill="white"/>
</clipPath>
</defs>
</svg>
