<svg width="257" height="257" viewBox="0 0 257 257" fill="none" xmlns="http://www.w3.org/2000/svg">
<g clip-path="url(#clip0_1229_6555)">
<path d="M194.597 80.3126C190.862 72.3041 181.343 68.8394 173.335 72.5738L163.816 77.0126L190.273 133.748L199.791 129.31C207.8 125.575 211.265 116.056 207.53 108.048L194.597 80.3126Z" fill="#55DAFE"/>
<path d="M134.364 176.959C132.069 176.123 120.36 171.861 118.248 171.093L112.119 187.933L128.235 193.798L136.409 184.252C138.387 181.941 137.684 178.167 134.364 176.959Z" fill="#3085D1"/>
<path d="M131.815 198.716C131.852 198.767 131.782 198.661 131.815 198.716L103.545 159.841L76.4677 172.468L97.3916 217.34C99.5846 222.005 103.508 225.61 108.417 227.397C113.496 229.246 118.852 228.856 123.401 226.735C127.95 224.613 131.692 220.761 133.54 215.683C135.588 210.055 134.888 203.793 131.815 198.716Z" fill="#B9F0FF"/>
<path d="M109.213 197.097L93.9576 164.31L76.462 172.469L97.386 217.34C99.579 222.005 103.502 225.611 108.412 227.397C113.49 229.246 118.847 228.856 123.396 226.735C126.976 225.065 130.052 222.319 132.102 218.751L133.155 215.86L127.38 213.758C119.353 210.836 112.817 204.842 109.213 197.097Z" fill="#7CE3FF"/>
<path d="M136.89 124.107L82.5132 104.315L24.6548 131.295C21.5416 132.747 19.1324 135.376 17.9576 138.604C16.7827 141.831 16.9382 145.394 18.39 148.507C19.4275 150.732 40.9903 196.973 42.0281 199.199C43.4798 202.312 46.109 204.721 49.3369 205.896C52.5647 207.071 56.1273 206.915 59.2406 205.464L117.099 178.484L136.891 124.107L136.89 124.107Z" fill="#FF8E9E"/>
<path d="M174.669 106.489L132.531 47.1889C118.401 86.0089 123.515 85.1941 82.5144 104.313L117.1 178.481C158.101 159.362 154.189 162.756 193.01 176.886L174.669 106.489Z" fill="#7CE3FF"/>
<path d="M216.801 165.79L156.322 36.093C153.258 29.5215 145.446 26.6784 138.874 29.7426C132.303 32.807 129.46 40.6187 132.524 47.1902C133.553 49.3967 191.468 173.595 193.003 176.887C196.068 183.459 203.879 186.302 210.451 183.238C217.023 180.173 219.866 172.362 216.801 165.79Z" fill="#B9F0FF"/>
<path d="M172.975 71.7899L156.445 36.3405C153.422 29.8571 145.782 26.7466 139.219 29.591C132.408 32.5423 129.415 40.5071 132.531 47.1901L149.177 82.8871C152.684 73.2512 163.339 68.2827 172.975 71.7899Z" fill="#7CE3FF"/>
<path d="M24.6549 131.294C21.5417 132.746 19.1326 135.375 17.9577 138.603C16.7829 141.831 16.9384 145.394 18.3901 148.507L33.6333 181.196C39.7416 164.414 62.5818 145.936 78.7677 138.388L94.8952 130.868L82.5132 104.315L24.6549 131.294Z" fill="#EC6B7E"/>
<path d="M149.176 82.8859C139.894 62.98 132.888 47.9554 132.531 47.1894L132.531 47.1889C118.401 86.0089 123.515 85.1941 82.5144 104.313L94.8963 130.866L94.8964 130.865C117.325 120.407 121.475 118.014 133.22 106.198C140.04 99.3375 144.913 91.3698 149.176 82.8859Z" fill="#55DAFE"/>
</g>
<defs>
<clipPath id="clip0_1229_6555">
<rect width="200.001" height="200" fill="white" transform="matrix(0.939693 0.342018 -0.342022 0.939692 68.4043 0)"/>
</clipPath>
</defs>
</svg>
