<svg width="1251" height="832" viewBox="0 0 1251 832" fill="none" xmlns="http://www.w3.org/2000/svg">
<path d="M217.125 645.035C208.972 646.674 200.552 644.027 194.822 638.022C168.986 610.952 151.446 577.317 144.095 540.756C136.997 505.456 139.75 468.863 152.058 434.931C160.421 411.877 173.025 390.424 189.098 371.694C160.194 348.365 140.219 315.925 132.844 279.245C115.249 191.734 173.969 105.855 263.739 87.8058C353.506 69.7569 440.855 126.266 458.451 213.777C465.825 250.452 459.941 288.093 442.304 320.783C464.368 331.847 484.282 346.759 500.907 364.79C525.372 391.328 542.056 424.013 549.153 459.313C556.505 495.876 553.326 533.677 539.962 568.628C536.996 576.38 530.255 582.075 522.103 583.715L217.125 645.035Z" fill="#E8EEFF"/>
<path d="M256.166 249.671C257.753 257.561 252.48 265.28 244.384 266.908C236.291 268.535 228.444 263.454 226.857 255.564C225.271 247.672 230.543 239.954 238.637 238.327C246.733 236.699 254.58 241.779 256.166 249.671Z" fill="#636052"/>
<path d="M362.602 228.27C364.189 236.16 358.917 243.879 350.825 245.506C342.731 247.133 334.884 242.052 333.297 234.162C331.71 226.271 336.983 218.553 345.078 216.925C353.171 215.298 361.015 220.379 362.602 228.27Z" fill="#636052"/>
<path d="M329.047 268.345C331.791 281.995 322.667 295.343 308.674 298.156C294.674 300.971 281.1 292.188 278.355 278.537C275.61 264.885 284.734 251.538 298.735 248.723C312.729 245.911 326.302 254.692 329.047 268.345Z" fill="#EF6B3A"/>
<path d="M331.046 413.943C344.21 411.296 352.735 398.479 350.089 385.315C347.442 372.151 334.625 363.625 321.461 366.272C308.297 368.919 299.771 381.736 302.418 394.9C305.064 408.064 317.882 416.59 331.046 413.943Z" fill="#636052"/>
<path d="M348.655 501.525C361.819 498.878 370.345 486.061 367.698 472.897C365.051 459.733 352.234 451.208 339.07 453.854C325.906 456.501 317.38 469.318 320.027 482.482C322.674 495.646 335.491 504.172 348.655 501.525Z" fill="#636052"/>
<path opacity="0.1" d="M241.045 628.733C215.21 601.663 197.669 568.028 190.317 531.467C183.22 496.167 185.973 459.574 198.281 425.642C206.644 402.588 219.248 381.136 235.32 362.406C206.417 339.077 186.441 306.637 179.066 269.957C163.01 190.103 210.506 111.619 287.146 84.7801C279.393 85.2444 271.576 86.235 263.742 87.8103C173.972 105.86 115.252 191.738 132.848 279.249C140.223 315.928 160.197 348.368 189.103 371.699C173.03 390.429 160.426 411.882 152.063 434.935C139.755 468.866 137.002 505.46 144.1 540.76C151.451 577.322 168.991 610.957 194.827 638.026C200.555 644.031 208.975 646.679 217.128 645.039L263.348 635.746C255.193 637.386 246.775 634.738 241.045 628.733Z" fill="#414042"/>
<path d="M193.779 368.607L438.301 317.745" stroke="#FB5C5C" stroke-width="18.7199" stroke-linecap="round"/>
<path d="M521.844 198.517C597.994 109.084 736.737 111.061 810.307 202.628L1100.39 563.668C1169.75 649.992 1124.4 777.805 1015.12 795.73C904.176 813.928 773.487 830.793 668.56 831.156C558.804 831.536 421.505 814.052 306.228 795.285C197.094 777.518 151.455 650.079 220.379 563.619L358.503 390.351L521.844 198.517Z" fill="#78AEFF"/>
<path d="M452.286 295.304L445.673 281.479L519.146 191.864C596.096 98.0093 740.64 101.063 813.557 198.085L876.232 281.479L866.779 294.656C856.451 309.053 836.473 312.48 821.937 302.349L819.887 300.92C809.155 293.44 794.639 302.23 796.294 315.206C800.212 345.924 760.845 361.907 742.24 337.152L727.761 317.886C719.536 306.943 702.343 310.116 698.567 323.275L697.916 325.544C690.533 351.27 656.721 357.124 641.119 335.377C633.632 324.94 617.519 327.126 613.084 339.181L611.78 342.726C600.066 374.568 554.848 374.04 543.88 341.934L535.958 318.744C532.93 309.881 522.257 306.386 514.573 311.741C493.185 326.647 463.534 318.823 452.286 295.304Z" fill="#D3E0FF"/>
<g clip-path="url(#clip0_1000_9346)">
<mask id="mask0_1000_9346" style="mask-type:luminance" maskUnits="userSpaceOnUse" x="352" y="494" width="94" height="94">
<path d="M352.062 494.204H445.662V587.803H352.062V494.204Z" fill="white"/>
</mask>
<g mask="url(#mask0_1000_9346)">
<path d="M442.846 538.181H436.494L439.661 535.013C440.765 533.91 440.765 532.121 439.661 531.018C438.558 529.915 436.77 529.915 435.666 531.018L428.504 538.181H420.514L423.681 535.013C424.784 533.91 424.784 532.121 423.681 531.018C422.578 529.915 420.789 529.915 419.686 531.018L412.523 538.181H405.691L421.822 522.05H423.477H431.952C433.512 522.05 434.777 520.785 434.777 519.225V519.225C434.777 517.665 433.512 516.4 431.952 516.4H427.472L431.964 511.908C433.067 510.805 433.067 509.016 431.964 507.913C430.86 506.81 429.072 506.81 427.969 507.913L423.477 512.405V507.925C423.477 506.365 422.212 505.1 420.652 505.1C419.092 505.1 417.827 506.365 417.827 507.925V516.4V518.055L401.696 534.186V527.353L402.866 526.183L408.859 520.19C409.962 519.087 409.962 517.299 408.859 516.195C407.756 515.092 405.967 515.092 404.864 516.195L401.696 519.363V511.373L402.866 510.203L408.859 504.21C409.962 503.107 409.962 501.318 408.859 500.215C407.756 499.112 405.967 499.112 404.864 500.215L401.696 503.383V497.031C401.696 495.471 400.431 494.206 398.871 494.206C397.311 494.206 396.046 495.471 396.046 497.031V503.383L392.879 500.215C391.775 499.112 389.987 499.112 388.883 500.215C387.78 501.318 387.78 503.107 388.883 504.21L394.876 510.203L396.046 511.373V519.363L392.879 516.195C391.775 515.092 389.987 515.092 388.883 516.195C387.78 517.299 387.78 519.087 388.883 520.19L394.876 526.183L396.046 527.353V534.186L379.915 518.055V516.4V507.925C379.915 506.365 378.651 505.1 377.09 505.1C375.53 505.1 374.265 506.365 374.265 507.925V512.405L369.774 507.913C368.67 506.81 366.882 506.81 365.779 507.913C364.675 509.016 364.675 510.805 365.779 511.908L370.27 516.4H365.791C364.23 516.4 362.966 517.665 362.966 519.225V519.225C362.966 520.785 364.23 522.05 365.791 522.05H374.265H375.92L392.051 538.181H385.219L378.056 531.018C376.953 529.915 375.164 529.915 374.061 531.018C372.958 532.121 372.958 533.91 374.061 535.013L377.229 538.181H369.238L362.076 531.018C360.973 529.915 359.184 529.915 358.081 531.018C356.977 532.121 356.977 533.91 358.081 535.013L361.248 538.181H354.896C353.336 538.181 352.071 539.445 352.071 541.006C352.071 542.566 353.336 543.83 354.896 543.83H361.248L358.081 546.998C356.977 548.101 356.977 549.89 358.081 550.993C359.184 552.096 360.973 552.096 362.076 550.993L369.238 543.83H377.229L374.061 546.998C372.958 548.101 372.958 549.89 374.061 550.993C375.164 552.096 376.953 552.096 378.056 550.993L384.049 545.001L385.219 543.83H392.051L375.92 559.961H374.265H365.791C364.23 559.961 362.966 561.226 362.966 562.786C362.966 564.346 364.23 565.611 365.791 565.611H370.27L365.779 570.103C364.675 571.206 364.675 572.995 365.779 574.098C366.882 575.201 368.67 575.201 369.774 574.098L374.265 569.606V574.086C374.265 575.646 375.53 576.911 377.09 576.911C378.651 576.911 379.915 575.646 379.915 574.086V565.611V563.956L396.046 547.825V554.658L394.876 555.828L388.883 561.82C387.78 562.924 387.78 564.712 388.883 565.815V565.816C389.987 566.919 391.775 566.919 392.879 565.815L396.046 562.648V570.638L394.876 571.808L388.883 577.801C387.78 578.904 387.78 580.693 388.883 581.796C389.987 582.899 391.775 582.899 392.879 581.796L396.046 578.628V584.98C396.046 586.54 397.311 587.805 398.871 587.805C400.431 587.805 401.696 586.54 401.696 584.98V578.628L404.864 581.796C405.967 582.899 407.756 582.899 408.859 581.796C409.962 580.693 409.962 578.904 408.859 577.801L402.866 571.808L401.696 570.638V562.648L404.864 565.815C405.967 566.919 407.756 566.919 408.859 565.816V565.815C409.962 564.712 409.962 562.924 408.859 561.82L402.866 555.828L401.696 554.658V547.825L417.827 563.956V565.611V574.086C417.827 575.646 419.092 576.911 420.652 576.911C422.212 576.911 423.477 575.646 423.477 574.086V569.606L427.969 574.098C429.072 575.201 430.86 575.201 431.964 574.098C433.067 572.995 433.067 571.206 431.964 570.103L427.472 565.611H431.952C433.512 565.611 434.777 564.346 434.777 562.786C434.777 561.226 433.512 559.961 431.952 559.961H423.477H421.822L405.691 543.83H412.523L413.694 545.001L419.686 550.993C420.789 552.096 422.578 552.096 423.681 550.993C424.784 549.89 424.784 548.101 423.681 546.998L420.514 543.83H428.504L435.666 550.993C436.77 552.096 438.558 552.096 439.661 550.993C440.765 549.89 440.765 548.101 439.661 546.998L436.494 543.83H442.846C444.406 543.83 445.671 542.566 445.671 541.006C445.671 539.445 444.406 538.181 442.846 538.181Z" fill="#A2DDFD"/>
<path d="M412.524 543.83C410.964 543.83 409.699 542.566 409.699 541.005C409.699 539.445 410.964 538.18 412.524 538.18H405.692L410.523 533.349C409.42 534.452 407.631 534.452 406.528 533.349C405.425 532.246 405.425 530.458 406.528 529.354L401.697 534.185V527.353L402.867 526.183L408.86 520.19C409.963 519.087 409.963 517.298 408.86 516.195C407.756 515.092 405.968 515.092 404.865 516.195L401.697 519.363V511.373L402.867 510.203L408.86 504.21C409.963 503.107 409.963 501.318 408.86 500.215C407.756 499.112 405.968 499.112 404.865 500.215L401.697 503.383V497.031C401.697 495.47 400.432 494.206 398.872 494.206C397.312 494.206 396.047 495.47 396.047 497.031V503.383L392.879 500.215C391.776 499.112 389.988 499.112 388.884 500.215C387.781 501.318 387.781 503.107 388.884 504.21L394.877 510.203L396.047 511.373V519.363L392.879 516.195C391.776 515.092 389.988 515.092 388.884 516.195C387.781 517.298 387.781 519.087 388.884 520.19L394.877 526.183L396.047 527.353V534.185L379.916 518.054V516.4V507.925C379.916 506.365 378.651 505.1 377.091 505.1C375.531 505.1 374.266 506.365 374.266 507.925V512.405L369.775 507.913C368.671 506.81 366.883 506.81 365.78 507.913C364.676 509.016 364.676 510.805 365.78 511.908L370.271 516.4H365.791C364.231 516.4 362.967 517.664 362.967 519.225C362.967 520.785 364.231 522.05 365.791 522.05H374.266H375.921L392.052 538.18H385.22L378.057 531.018C376.954 529.914 375.165 529.914 374.062 531.018C372.959 532.121 372.959 533.909 374.062 535.013L377.23 538.18H369.239L362.077 531.018C360.974 529.914 359.185 529.914 358.082 531.018C356.978 532.121 356.978 533.909 358.082 535.013L361.249 538.18H354.897C353.337 538.18 352.072 539.445 352.072 541.005C352.072 542.566 353.337 543.83 354.897 543.83H361.249L358.082 546.998C356.978 548.101 356.978 549.89 358.082 550.993C359.185 552.096 360.974 552.096 362.077 550.993L369.239 543.83H377.23L374.062 546.998C372.959 548.101 372.959 549.89 374.062 550.993C375.165 552.096 376.954 552.096 378.057 550.993L384.05 545L385.22 543.83H392.052L375.921 559.961H374.266H365.791C364.231 559.961 362.967 561.226 362.967 562.786C362.967 564.346 364.231 565.611 365.791 565.611H370.271L365.78 570.103C364.676 571.206 364.676 572.994 365.78 574.098C366.883 575.201 368.671 575.201 369.775 574.098L374.266 569.606V574.086C374.266 575.646 375.531 576.911 377.091 576.911C378.651 576.911 379.916 575.646 379.916 574.086V565.611V563.956L396.047 547.825V554.658L394.877 555.828L388.884 561.82C387.781 562.923 387.781 564.712 388.884 565.815C389.988 566.919 391.776 566.919 392.879 565.815L396.047 562.648V570.638L394.877 571.808L388.884 577.8C387.781 578.904 387.781 580.692 388.884 581.796C389.988 582.899 391.776 582.899 392.879 581.796L396.047 578.628V584.98C396.047 586.54 397.312 587.805 398.872 587.805C400.432 587.805 401.697 586.54 401.697 584.98V578.628L404.865 581.796C405.968 582.899 407.756 582.899 408.86 581.796C409.963 580.692 409.963 578.904 408.86 577.8L402.867 571.808L401.697 570.638V562.648L404.865 565.815C405.968 566.919 407.756 566.919 408.86 565.815C409.963 564.712 409.963 562.923 408.86 561.82L402.867 555.828L401.697 554.658V547.825L406.528 552.656C405.425 551.553 405.425 549.765 406.528 548.661C407.631 547.558 409.42 547.558 410.523 548.661L405.692 543.83H412.524Z" fill="#A2DDFD"/>
</g>
</g>
<g clip-path="url(#clip1_1000_9346)">
<mask id="mask1_1000_9346" style="mask-type:luminance" maskUnits="userSpaceOnUse" x="876" y="569" width="94" height="94">
<path d="M876.227 569.083H969.826V662.682H876.227V569.083Z" fill="white"/>
</mask>
<g mask="url(#mask1_1000_9346)">
<path d="M967.005 613.064H960.653L963.821 609.896C964.924 608.793 964.924 607.004 963.821 605.901C962.718 604.798 960.929 604.798 959.826 605.901L952.663 613.064H944.673L947.84 609.896C948.944 608.793 948.944 607.004 947.84 605.901C946.737 604.798 944.949 604.798 943.845 605.901L936.683 613.064H929.85L945.981 596.933H947.636H956.111C957.671 596.933 958.936 595.668 958.936 594.108V594.108C958.936 592.548 957.671 591.283 956.111 591.283H951.631L956.123 586.791C957.226 585.688 957.226 583.899 956.123 582.796C955.02 581.693 953.231 581.693 952.128 582.796L947.636 587.288V582.808C947.636 581.248 946.371 579.983 944.811 579.983C943.251 579.983 941.986 581.248 941.986 582.808V591.283V592.938L925.855 609.069V602.236L927.025 601.066L933.018 595.074C934.121 593.97 934.121 592.182 933.018 591.079C931.915 589.975 930.126 589.975 929.023 591.079L925.855 594.246V586.256L927.025 585.086L933.018 579.093C934.121 577.99 934.121 576.202 933.018 575.098C931.915 573.995 930.126 573.995 929.023 575.098L925.855 578.266V571.914C925.855 570.354 924.59 569.089 923.03 569.089C921.47 569.089 920.205 570.354 920.205 571.914V578.266L917.038 575.098C915.934 573.995 914.146 573.995 913.043 575.098C911.939 576.202 911.939 577.99 913.043 579.093L919.035 585.086L920.205 586.256V594.246L917.038 591.079C915.934 589.975 914.146 589.975 913.043 591.079C911.939 592.182 911.939 593.97 913.043 595.074L919.035 601.066L920.205 602.236V609.069L904.074 592.938V591.283V582.808C904.074 581.248 902.81 579.983 901.249 579.983C899.689 579.983 898.425 581.248 898.425 582.808V587.288L893.933 582.796C892.83 581.693 891.041 581.693 889.938 582.796C888.835 583.899 888.835 585.688 889.938 586.791L894.429 591.283H889.95C888.389 591.283 887.125 592.548 887.125 594.108V594.108C887.125 595.668 888.389 596.933 889.95 596.933H898.425H900.079L916.21 613.064H909.378L902.215 605.901C901.112 604.798 899.323 604.798 898.22 605.901C897.117 607.004 897.117 608.793 898.22 609.896L901.388 613.064H893.398L886.235 605.901C885.132 604.798 883.343 604.798 882.24 605.901C881.137 607.004 881.137 608.793 882.24 609.896L885.408 613.064H879.055C877.495 613.064 876.23 614.328 876.23 615.889C876.23 617.449 877.495 618.713 879.055 618.713H885.408L882.24 621.881C881.137 622.984 881.137 624.773 882.24 625.876C883.343 626.979 885.132 626.979 886.235 625.876L893.398 618.713H901.388L898.22 621.881C897.117 622.984 897.117 624.773 898.22 625.876C899.323 626.979 901.112 626.979 902.215 625.876L908.208 619.884L909.378 618.713H916.21L900.079 634.844H898.425H889.95C888.389 634.844 887.125 636.109 887.125 637.669C887.125 639.229 888.389 640.494 889.95 640.494H894.429L889.938 644.986C888.835 646.089 888.835 647.878 889.938 648.981C891.041 650.084 892.83 650.084 893.933 648.981L898.425 644.489V648.969C898.425 650.529 899.689 651.794 901.249 651.794C902.81 651.794 904.074 650.529 904.074 648.969V640.494V638.839L920.205 622.709V629.541L919.035 630.711L913.043 636.703C911.939 637.807 911.939 639.595 913.043 640.698V640.699C914.146 641.802 915.934 641.802 917.038 640.698L920.205 637.531V645.521L919.035 646.691L913.043 652.684C911.939 653.787 911.939 655.576 913.043 656.679C914.146 657.782 915.934 657.782 917.038 656.679L920.205 653.511V659.863C920.205 661.423 921.47 662.688 923.03 662.688C924.59 662.688 925.855 661.423 925.855 659.863V653.511L929.023 656.679C930.126 657.782 931.915 657.782 933.018 656.679C934.121 655.576 934.121 653.787 933.018 652.684L927.025 646.691L925.855 645.521V637.531L929.023 640.698C930.126 641.802 931.915 641.802 933.018 640.699V640.698C934.121 639.595 934.121 637.807 933.018 636.703L927.025 630.711L925.855 629.541V622.709L941.986 638.839V640.494V648.969C941.986 650.529 943.251 651.794 944.811 651.794C946.371 651.794 947.636 650.529 947.636 648.969V644.489L952.128 648.981C953.231 650.084 955.02 650.084 956.123 648.981C957.226 647.878 957.226 646.089 956.123 644.986L951.631 640.494H956.111C957.671 640.494 958.936 639.229 958.936 637.669C958.936 636.109 957.671 634.844 956.111 634.844H947.636H945.981L929.85 618.713H936.683L937.853 619.884L943.845 625.876C944.949 626.979 946.737 626.979 947.84 625.876C948.944 624.773 948.944 622.984 947.84 621.881L944.673 618.713H952.663L959.826 625.876C960.929 626.979 962.718 626.979 963.821 625.876C964.924 624.773 964.924 622.984 963.821 621.881L960.653 618.713H967.005C968.565 618.713 969.83 617.449 969.83 615.889C969.83 614.328 968.565 613.064 967.005 613.064Z" fill="#A2DDFD"/>
<path d="M936.683 618.706C935.122 618.706 933.858 617.442 933.858 615.881C933.858 614.321 935.122 613.056 936.683 613.056H929.85L934.681 608.225C933.578 609.328 931.79 609.328 930.686 608.225C929.583 607.122 929.583 605.334 930.686 604.23L925.855 609.061V602.229L927.025 601.059L933.018 595.066C934.121 593.963 934.121 592.174 933.018 591.071C931.915 589.968 930.126 589.968 929.023 591.071L925.855 594.239V586.249L927.025 585.079L933.018 579.086C934.121 577.983 934.121 576.194 933.018 575.091C931.915 573.988 930.126 573.988 929.023 575.091L925.855 578.259V571.907C925.855 570.346 924.59 569.082 923.03 569.082C921.47 569.082 920.205 570.346 920.205 571.907V578.259L917.038 575.091C915.934 573.988 914.146 573.988 913.043 575.091C911.939 576.194 911.939 577.983 913.043 579.086L919.035 585.079L920.205 586.249V594.239L917.038 591.071C915.934 589.968 914.146 589.968 913.043 591.071C911.939 592.174 911.939 593.963 913.043 595.066L919.035 601.059L920.205 602.229V609.061L904.074 592.93V591.276V582.801C904.074 581.241 902.81 579.976 901.249 579.976C899.689 579.976 898.425 581.241 898.425 582.801V587.281L893.933 582.789C892.83 581.686 891.041 581.686 889.938 582.789C888.834 583.892 888.834 585.681 889.938 586.784L894.429 591.276H889.95C888.389 591.276 887.125 592.54 887.125 594.101C887.125 595.661 888.389 596.926 889.95 596.926H898.425H900.079L916.21 613.056H909.378L902.215 605.894C901.112 604.79 899.323 604.79 898.22 605.894C897.117 606.997 897.117 608.785 898.22 609.889L901.388 613.056H893.398L886.235 605.894C885.132 604.79 883.343 604.79 882.24 605.894C881.137 606.997 881.137 608.785 882.24 609.889L885.408 613.056H879.055C877.495 613.056 876.23 614.321 876.23 615.881C876.23 617.442 877.495 618.706 879.055 618.706H885.408L882.24 621.874C881.137 622.977 881.137 624.766 882.24 625.869C883.343 626.972 885.132 626.972 886.235 625.869L893.398 618.706H901.388L898.22 621.874C897.117 622.977 897.117 624.766 898.22 625.869C899.323 626.972 901.112 626.972 902.215 625.869L908.208 619.876L909.378 618.706H916.21L900.079 634.837H898.425H889.95C888.389 634.837 887.125 636.102 887.125 637.662C887.125 639.222 888.389 640.487 889.95 640.487H894.429L889.938 644.979C888.834 646.082 888.834 647.871 889.938 648.974C891.041 650.077 892.83 650.077 893.933 648.974L898.425 644.482V648.962C898.425 650.522 899.689 651.787 901.249 651.787C902.81 651.787 904.074 650.522 904.074 648.962V640.487V638.832L920.205 622.701V629.534L919.035 630.704L913.043 636.696C911.939 637.799 911.939 639.588 913.043 640.691C914.146 641.795 915.934 641.795 917.038 640.691L920.205 637.524V645.514L919.035 646.684L913.043 652.676C911.939 653.78 911.939 655.568 913.043 656.672C914.146 657.775 915.934 657.775 917.038 656.672L920.205 653.504V659.856C920.205 661.416 921.47 662.681 923.03 662.681C924.59 662.681 925.855 661.416 925.855 659.856V653.504L929.023 656.672C930.126 657.775 931.915 657.775 933.018 656.672C934.121 655.568 934.121 653.78 933.018 652.676L927.025 646.684L925.855 645.514V637.524L929.023 640.691C930.126 641.795 931.915 641.795 933.018 640.691C934.121 639.588 934.121 637.799 933.018 636.696L927.025 630.704L925.855 629.534V622.701L930.686 627.532C929.583 626.429 929.583 624.641 930.686 623.537C931.79 622.434 933.578 622.434 934.681 623.537L929.85 618.706H936.683Z" fill="#A2DDFD"/>
</g>
</g>
<g clip-path="url(#clip2_1000_9346)">
<mask id="mask2_1000_9346" style="mask-type:luminance" maskUnits="userSpaceOnUse" x="1007" y="681" width="38" height="38">
<path d="M1007.27 681.402H1044.71V718.842H1007.27V681.402Z" fill="white"/>
</mask>
<g mask="url(#mask2_1000_9346)">
<path d="M1043.58 698.992H1041.03L1042.3 697.725C1042.74 697.284 1042.74 696.568 1042.3 696.127C1041.86 695.685 1041.14 695.685 1040.7 696.127L1037.84 698.992H1034.64L1035.91 697.725C1036.35 697.284 1036.35 696.568 1035.91 696.127C1035.47 695.685 1034.75 695.685 1034.31 696.127L1031.45 698.992H1028.71L1035.17 692.539H1035.83H1039.22C1039.84 692.539 1040.35 692.034 1040.35 691.41V691.409C1040.35 690.785 1039.84 690.28 1039.22 690.28H1037.43L1039.22 688.483C1039.66 688.042 1039.66 687.326 1039.22 686.885C1038.78 686.444 1038.07 686.444 1037.62 686.885L1035.83 688.682V686.89C1035.83 686.266 1035.32 685.76 1034.7 685.76C1034.07 685.76 1033.57 686.266 1033.57 686.89V690.28V690.941L1027.12 697.394V694.661L1027.58 694.193L1029.98 691.796C1030.42 691.355 1030.42 690.639 1029.98 690.198C1029.54 689.757 1028.82 689.757 1028.38 690.198L1027.12 691.465V688.269L1027.58 687.801L1029.98 685.404C1030.42 684.962 1030.42 684.247 1029.98 683.806C1029.54 683.364 1028.82 683.364 1028.38 683.806L1027.12 685.073V682.532C1027.12 681.908 1026.61 681.402 1025.99 681.402C1025.36 681.402 1024.86 681.908 1024.86 682.532V685.073L1023.59 683.806C1023.15 683.364 1022.43 683.364 1021.99 683.806C1021.55 684.247 1021.55 684.962 1021.99 685.404L1024.39 687.801L1024.86 688.269V691.465L1023.59 690.198C1023.15 689.757 1022.43 689.757 1021.99 690.198C1021.55 690.639 1021.55 691.355 1021.99 691.796L1024.39 694.193L1024.86 694.661V697.394L1018.4 690.941V690.28V686.89C1018.4 686.266 1017.9 685.76 1017.27 685.76C1016.65 685.76 1016.14 686.266 1016.14 686.89V688.682L1014.35 686.885C1013.91 686.444 1013.19 686.444 1012.75 686.885C1012.31 687.326 1012.31 688.042 1012.75 688.483L1014.55 690.28H1012.75C1012.13 690.28 1011.62 690.785 1011.62 691.409V691.41C1011.62 692.034 1012.13 692.539 1012.75 692.539H1016.14H1016.81L1023.26 698.992H1020.52L1017.66 696.127C1017.22 695.685 1016.5 695.685 1016.06 696.127C1015.62 696.568 1015.62 697.284 1016.06 697.725L1017.33 698.992H1014.13L1011.27 696.127C1010.83 695.685 1010.11 695.685 1009.67 696.127C1009.23 696.568 1009.23 697.284 1009.67 697.725L1010.94 698.992H1008.4C1007.77 698.992 1007.27 699.498 1007.27 700.122C1007.27 700.746 1007.77 701.252 1008.4 701.252H1010.94L1009.67 702.519C1009.23 702.96 1009.23 703.676 1009.67 704.117C1010.11 704.558 1010.83 704.558 1011.27 704.117L1014.13 701.252H1017.33L1016.06 702.519C1015.62 702.96 1015.62 703.676 1016.06 704.117C1016.5 704.558 1017.22 704.558 1017.66 704.117L1020.06 701.72L1020.52 701.252H1023.26L1016.81 707.704H1016.14H1012.75C1012.13 707.704 1011.62 708.21 1011.62 708.834C1011.62 709.458 1012.13 709.964 1012.75 709.964H1014.55L1012.75 711.761C1012.31 712.202 1012.31 712.917 1012.75 713.359C1013.19 713.8 1013.91 713.8 1014.35 713.359L1016.14 711.562V713.354C1016.14 713.978 1016.65 714.484 1017.27 714.484C1017.9 714.484 1018.4 713.978 1018.4 713.354V709.964V709.302L1024.86 702.85V705.583L1024.39 706.051L1021.99 708.448C1021.55 708.889 1021.55 709.605 1021.99 710.046V710.046C1022.43 710.487 1023.15 710.487 1023.59 710.046L1024.86 708.779V711.975L1024.39 712.443L1021.99 714.84C1021.55 715.281 1021.55 715.997 1021.99 716.438C1022.43 716.879 1023.15 716.879 1023.59 716.438L1024.86 715.171V717.712C1024.86 718.336 1025.36 718.842 1025.99 718.842C1026.61 718.842 1027.12 718.336 1027.12 717.712V715.171L1028.38 716.438C1028.82 716.879 1029.54 716.879 1029.98 716.438C1030.42 715.997 1030.42 715.281 1029.98 714.84L1027.58 712.443L1027.12 711.975V708.779L1028.38 710.046C1028.82 710.487 1029.54 710.487 1029.98 710.046V710.046C1030.42 709.605 1030.42 708.889 1029.98 708.448L1027.58 706.051L1027.12 705.583V702.85L1033.57 709.302V709.964V713.354C1033.57 713.978 1034.07 714.484 1034.7 714.484C1035.32 714.484 1035.83 713.978 1035.83 713.354V711.562L1037.62 713.359C1038.07 713.8 1038.78 713.8 1039.22 713.359C1039.66 712.917 1039.66 712.202 1039.22 711.761L1037.43 709.964H1039.22C1039.84 709.964 1040.35 709.458 1040.35 708.834C1040.35 708.21 1039.84 707.704 1039.22 707.704H1035.83H1035.17L1028.71 701.252H1031.45L1031.91 701.72L1034.31 704.117C1034.75 704.558 1035.47 704.558 1035.91 704.117C1036.35 703.676 1036.35 702.96 1035.91 702.519L1034.64 701.252H1037.84L1040.7 704.117C1041.14 704.558 1041.86 704.558 1042.3 704.117C1042.74 703.676 1042.74 702.96 1042.3 702.519L1041.03 701.252H1043.58C1044.2 701.252 1044.71 700.746 1044.71 700.122C1044.71 699.498 1044.2 698.992 1043.58 698.992Z" fill="#D2F0FF"/>
<path d="M1031.45 701.245C1030.82 701.245 1030.32 700.739 1030.32 700.115C1030.32 699.491 1030.82 698.985 1031.45 698.985H1028.72L1030.65 697.053C1030.21 697.494 1029.49 697.494 1029.05 697.053C1028.61 696.611 1028.61 695.896 1029.05 695.455L1027.12 697.387V694.654L1027.59 694.186L1029.98 691.789C1030.42 691.348 1030.42 690.632 1029.98 690.191C1029.54 689.75 1028.83 689.75 1028.38 690.191L1027.12 691.458V688.262L1027.59 687.794L1029.98 685.397C1030.42 684.956 1030.42 684.24 1029.98 683.799C1029.54 683.358 1028.83 683.358 1028.38 683.799L1027.12 685.066V682.525C1027.12 681.901 1026.61 681.395 1025.99 681.395C1025.36 681.395 1024.86 681.901 1024.86 682.525V685.066L1023.59 683.799C1023.15 683.358 1022.43 683.358 1021.99 683.799C1021.55 684.24 1021.55 684.956 1021.99 685.397L1024.39 687.794L1024.86 688.262V691.458L1023.59 690.191C1023.15 689.75 1022.43 689.75 1021.99 690.191C1021.55 690.632 1021.55 691.348 1021.99 691.789L1024.39 694.186L1024.86 694.654V697.387L1018.4 690.935V690.273V686.883C1018.4 686.259 1017.9 685.753 1017.27 685.753C1016.65 685.753 1016.14 686.259 1016.14 686.883V688.675L1014.35 686.878C1013.91 686.437 1013.19 686.437 1012.75 686.878C1012.31 687.32 1012.31 688.035 1012.75 688.476L1014.55 690.273H1012.75C1012.13 690.273 1011.62 690.779 1011.62 691.403C1011.62 692.027 1012.13 692.533 1012.75 692.533H1016.14H1016.81L1023.26 698.985H1020.53L1017.66 696.12C1017.22 695.679 1016.5 695.679 1016.06 696.12C1015.62 696.561 1015.62 697.277 1016.06 697.718L1017.33 698.985H1014.13L1011.27 696.12C1010.83 695.679 1010.11 695.679 1009.67 696.12C1009.23 696.561 1009.23 697.277 1009.67 697.718L1010.94 698.985H1008.4C1007.77 698.985 1007.27 699.491 1007.27 700.115C1007.27 700.739 1007.77 701.245 1008.4 701.245H1010.94L1009.67 702.512C1009.23 702.953 1009.23 703.669 1009.67 704.11C1010.11 704.552 1010.83 704.552 1011.27 704.11L1014.13 701.245H1017.33L1016.06 702.512C1015.62 702.953 1015.62 703.669 1016.06 704.11C1016.5 704.552 1017.22 704.551 1017.66 704.11L1020.06 701.713L1020.53 701.245H1023.26L1016.81 707.698H1016.14H1012.75C1012.13 707.698 1011.62 708.203 1011.62 708.827C1011.62 709.452 1012.13 709.957 1012.75 709.957H1014.55L1012.75 711.754C1012.31 712.195 1012.31 712.911 1012.75 713.352C1013.19 713.793 1013.91 713.793 1014.35 713.352L1016.14 711.555V713.347C1016.14 713.971 1016.65 714.477 1017.27 714.477C1017.9 714.477 1018.4 713.971 1018.4 713.347V709.957V709.295L1024.86 702.843V705.576L1024.39 706.044L1021.99 708.441C1021.55 708.882 1021.55 709.598 1021.99 710.039C1022.43 710.48 1023.15 710.48 1023.59 710.039L1024.86 708.772V711.968L1024.39 712.436L1021.99 714.833C1021.55 715.275 1021.55 715.99 1021.99 716.431C1022.43 716.873 1023.15 716.873 1023.59 716.431L1024.86 715.164V717.705C1024.86 718.329 1025.36 718.835 1025.99 718.835C1026.61 718.835 1027.12 718.329 1027.12 717.705V715.164L1028.38 716.431C1028.83 716.873 1029.54 716.873 1029.98 716.431C1030.42 715.99 1030.42 715.275 1029.98 714.833L1027.59 712.436L1027.12 711.968V708.772L1028.38 710.039C1028.83 710.48 1029.54 710.48 1029.98 710.039C1030.42 709.598 1030.42 708.882 1029.98 708.441L1027.59 706.044L1027.12 705.576V702.843L1029.05 704.776C1028.61 704.334 1028.61 703.619 1029.05 703.178C1029.49 702.736 1030.21 702.736 1030.65 703.178L1028.72 701.245H1031.45Z" fill="#D2F0FF"/>
</g>
</g>
<g clip-path="url(#clip3_1000_9346)">
<mask id="mask3_1000_9346" style="mask-type:luminance" maskUnits="userSpaceOnUse" x="426" y="643" width="39" height="39">
<path d="M426.945 643.964H464.385V681.403H426.945V643.964Z" fill="white"/>
</mask>
<g mask="url(#mask3_1000_9346)">
<path d="M463.254 661.56H460.713L461.98 660.293C462.421 659.852 462.421 659.136 461.98 658.695C461.539 658.253 460.823 658.253 460.382 658.695L457.517 661.56H454.321L455.588 660.293C456.029 659.852 456.029 659.136 455.588 658.695C455.147 658.253 454.431 658.253 453.99 658.695L451.125 661.56H448.392L454.844 655.107H455.506H458.896C459.52 655.107 460.026 654.602 460.026 653.978V653.977C460.026 653.353 459.52 652.848 458.896 652.848H457.104L458.901 651.051C459.342 650.61 459.342 649.894 458.901 649.453C458.459 649.012 457.744 649.012 457.303 649.453L455.506 651.25V649.458C455.506 648.834 455 648.328 454.376 648.328C453.752 648.328 453.246 648.834 453.246 649.458V652.848V653.509L446.794 659.962V657.229L447.262 656.761L449.659 654.364C450.1 653.923 450.1 653.207 449.659 652.766C449.218 652.325 448.502 652.325 448.061 652.766L446.794 654.033V650.837L447.262 650.369L449.659 647.972C450.1 647.53 450.1 646.815 449.659 646.374C449.218 645.932 448.502 645.932 448.061 646.374L446.794 647.641V645.1C446.794 644.476 446.288 643.97 445.664 643.97C445.04 643.97 444.534 644.476 444.534 645.1V647.641L443.267 646.374C442.825 645.932 442.11 645.932 441.669 646.374C441.227 646.815 441.227 647.53 441.669 647.972L444.066 650.369L444.534 650.837V654.033L443.267 652.766C442.825 652.325 442.11 652.325 441.669 652.766C441.227 653.207 441.227 653.923 441.669 654.364L444.066 656.761L444.534 657.229V659.962L438.081 653.509V652.848V649.458C438.081 648.834 437.576 648.328 436.951 648.328C436.327 648.328 435.821 648.834 435.821 649.458V651.25L434.025 649.453C433.584 649.012 432.868 649.012 432.427 649.453C431.986 649.894 431.986 650.61 432.427 651.051L434.223 652.848H432.432C431.807 652.848 431.302 653.353 431.302 653.977V653.978C431.302 654.602 431.807 655.107 432.432 655.107H435.821H436.483L442.936 661.56H440.203L437.338 658.695C436.896 658.253 436.181 658.253 435.74 658.695C435.298 659.136 435.298 659.852 435.74 660.293L437.007 661.56H433.811L430.946 658.695C430.504 658.253 429.789 658.253 429.348 658.695C428.906 659.136 428.906 659.852 429.348 660.293L430.615 661.56H428.074C427.45 661.56 426.944 662.066 426.944 662.69C426.944 663.314 427.45 663.82 428.074 663.82H430.615L429.348 665.087C428.906 665.528 428.906 666.244 429.348 666.685C429.789 667.126 430.504 667.126 430.946 666.685L433.811 663.82H437.007L435.74 665.087C435.298 665.528 435.298 666.244 435.74 666.685C436.181 667.126 436.896 667.126 437.338 666.685L439.735 664.288L440.203 663.82H442.936L436.483 670.272H435.821H432.432C431.807 670.272 431.302 670.778 431.302 671.402C431.302 672.026 431.807 672.532 432.432 672.532H434.223L432.427 674.329C431.986 674.77 431.986 675.485 432.427 675.927C432.868 676.368 433.584 676.368 434.025 675.927L435.821 674.13V675.922C435.821 676.546 436.327 677.052 436.951 677.052C437.576 677.052 438.081 676.546 438.081 675.922V672.532V671.87L444.534 665.418V668.151L444.066 668.619L441.669 671.016C441.227 671.457 441.227 672.173 441.669 672.614V672.614C442.11 673.055 442.825 673.055 443.267 672.614L444.534 671.347V674.543L444.066 675.011L441.669 677.408C441.227 677.849 441.227 678.565 441.669 679.006C442.11 679.447 442.825 679.447 443.267 679.006L444.534 677.739V680.28C444.534 680.904 445.04 681.41 445.664 681.41C446.288 681.41 446.794 680.904 446.794 680.28V677.739L448.061 679.006C448.502 679.447 449.218 679.447 449.659 679.006C450.1 678.565 450.1 677.849 449.659 677.408L447.262 675.011L446.794 674.543V671.347L448.061 672.614C448.502 673.055 449.218 673.055 449.659 672.614V672.614C450.1 672.173 450.1 671.457 449.659 671.016L447.262 668.619L446.794 668.151V665.418L453.246 671.87V672.532V675.922C453.246 676.546 453.752 677.052 454.376 677.052C455 677.052 455.506 676.546 455.506 675.922V674.13L457.303 675.927C457.744 676.368 458.459 676.368 458.901 675.927C459.342 675.485 459.342 674.77 458.901 674.329L457.104 672.532H458.896C459.52 672.532 460.026 672.026 460.026 671.402C460.026 670.778 459.52 670.272 458.896 670.272H455.506H454.844L448.392 663.82H451.125L451.593 664.288L453.99 666.685C454.431 667.126 455.147 667.126 455.588 666.685C456.029 666.244 456.029 665.528 455.588 665.087L454.321 663.82H457.517L460.382 666.685C460.823 667.126 461.539 667.126 461.98 666.685C462.421 666.244 462.421 665.528 461.98 665.087L460.713 663.82H463.254C463.878 663.82 464.384 663.314 464.384 662.69C464.384 662.066 463.878 661.56 463.254 661.56Z" fill="#A2DDFD"/>
<path d="M451.125 663.81C450.501 663.81 449.995 663.304 449.995 662.68C449.995 662.056 450.501 661.55 451.125 661.55H448.392L450.324 659.617C449.883 660.058 449.168 660.058 448.726 659.617C448.285 659.176 448.285 658.461 448.726 658.019L446.794 659.952V657.219L447.262 656.751L449.659 654.354C450.1 653.912 450.1 653.197 449.659 652.756C449.218 652.314 448.502 652.314 448.061 652.756L446.794 654.023V650.827L447.262 650.359L449.659 647.962C450.1 647.52 450.1 646.805 449.659 646.364C449.218 645.922 448.502 645.922 448.061 646.364L446.794 647.631V645.09C446.794 644.466 446.288 643.96 445.664 643.96C445.04 643.96 444.534 644.466 444.534 645.09V647.631L443.267 646.364C442.825 645.922 442.11 645.922 441.669 646.364C441.227 646.805 441.227 647.52 441.669 647.962L444.066 650.359L444.534 650.827V654.023L443.267 652.756C442.825 652.314 442.11 652.314 441.669 652.756C441.227 653.197 441.227 653.912 441.669 654.354L444.066 656.751L444.534 657.219V659.952L438.081 653.499V652.837V649.447C438.081 648.823 437.576 648.317 436.951 648.317C436.327 648.317 435.821 648.823 435.821 649.447V651.239L434.025 649.443C433.584 649.001 432.868 649.001 432.427 649.443C431.985 649.884 431.985 650.599 432.427 651.041L434.223 652.837H432.431C431.807 652.837 431.302 653.343 431.302 653.967C431.302 654.591 431.807 655.097 432.431 655.097H435.821H436.483L442.936 661.55H440.203L437.338 658.685C436.897 658.243 436.181 658.243 435.74 658.685C435.298 659.126 435.298 659.841 435.74 660.283L437.007 661.55H433.811L430.946 658.685C430.504 658.243 429.789 658.243 429.348 658.685C428.906 659.126 428.906 659.841 429.348 660.283L430.615 661.55H428.074C427.45 661.55 426.944 662.056 426.944 662.68C426.944 663.304 427.45 663.81 428.074 663.81H430.615L429.348 665.077C428.906 665.518 428.906 666.233 429.348 666.675C429.789 667.116 430.504 667.116 430.946 666.675L433.811 663.81H437.007L435.74 665.077C435.298 665.518 435.298 666.233 435.74 666.675C436.181 667.116 436.897 667.116 437.338 666.675L439.735 664.278L440.203 663.81H442.936L436.483 670.262H435.821H432.431C431.807 670.262 431.302 670.768 431.302 671.392C431.302 672.016 431.807 672.522 432.431 672.522H434.223L432.427 674.319C431.985 674.76 431.985 675.475 432.427 675.917C432.868 676.358 433.584 676.358 434.025 675.917L435.821 674.12V675.912C435.821 676.536 436.327 677.042 436.951 677.042C437.576 677.042 438.081 676.536 438.081 675.912V672.522V671.86L444.534 665.408V668.141L444.066 668.609L441.669 671.006C441.227 671.447 441.227 672.162 441.669 672.604C442.11 673.045 442.825 673.045 443.267 672.604L444.534 671.337V674.533L444.066 675.001L441.669 677.398C441.227 677.839 441.227 678.554 441.669 678.996C442.11 679.437 442.825 679.437 443.267 678.996L444.534 677.729V680.27C444.534 680.894 445.04 681.399 445.664 681.399C446.288 681.399 446.794 680.894 446.794 680.27V677.729L448.061 678.996C448.502 679.437 449.218 679.437 449.659 678.996C450.1 678.554 450.1 677.839 449.659 677.398L447.262 675.001L446.794 674.533V671.337L448.061 672.604C448.502 673.045 449.218 673.045 449.659 672.604C450.1 672.162 450.1 671.447 449.659 671.006L447.262 668.609L446.794 668.141V665.408L448.726 667.34C448.285 666.899 448.285 666.183 448.726 665.742C449.168 665.301 449.883 665.301 450.324 665.742L448.392 663.81H451.125Z" fill="#A2DDFD"/>
</g>
</g>
<g clip-path="url(#clip4_1000_9346)">
<mask id="mask4_1000_9346" style="mask-type:luminance" maskUnits="userSpaceOnUse" x="239" y="662" width="39" height="39">
<path d="M239.749 662.682H277.189V700.122H239.749V662.682Z" fill="white"/>
</mask>
<g mask="url(#mask4_1000_9346)">
<path d="M276.058 680.277H273.518L274.785 679.01C275.226 678.569 275.226 677.853 274.785 677.412C274.343 676.97 273.628 676.97 273.187 677.412L270.321 680.277H267.125L268.392 679.01C268.834 678.569 268.834 677.853 268.392 677.412C267.951 676.97 267.236 676.97 266.794 677.412L263.929 680.277H261.196L267.649 673.825H268.311H271.701C272.325 673.825 272.831 673.319 272.831 672.695V672.695C272.831 672.07 272.325 671.565 271.701 671.565H269.909L271.705 669.768C272.147 669.327 272.147 668.611 271.705 668.17C271.264 667.729 270.549 667.729 270.107 668.17L268.311 669.967V668.175C268.311 667.551 267.805 667.045 267.181 667.045C266.557 667.045 266.051 667.551 266.051 668.175V671.565V672.227L259.598 678.679V675.946L260.066 675.478L262.464 673.081C262.905 672.64 262.905 671.924 262.464 671.483C262.022 671.042 261.307 671.042 260.866 671.483L259.598 672.75V669.554L260.066 669.086L262.464 666.689C262.905 666.248 262.905 665.532 262.464 665.091C262.022 664.649 261.307 664.649 260.866 665.091L259.598 666.358V663.817C259.598 663.193 259.093 662.687 258.468 662.687C257.844 662.687 257.338 663.193 257.338 663.817V666.358L256.071 665.091C255.63 664.649 254.915 664.649 254.473 665.091C254.032 665.532 254.032 666.248 254.473 666.689L256.87 669.086L257.338 669.554V672.75L256.071 671.483C255.63 671.042 254.915 671.042 254.473 671.483C254.032 671.924 254.032 672.64 254.473 673.081L256.87 675.478L257.338 675.946V678.679L250.886 672.227V671.565V668.175C250.886 667.551 250.38 667.045 249.756 667.045C249.132 667.045 248.626 667.551 248.626 668.175V669.967L246.83 668.17C246.388 667.729 245.673 667.729 245.231 668.17C244.79 668.611 244.79 669.327 245.231 669.768L247.028 671.565H245.236C244.612 671.565 244.106 672.07 244.106 672.695V672.695C244.106 673.319 244.612 673.825 245.236 673.825H248.626H249.288L255.74 680.277H253.008L250.142 677.412C249.701 676.97 248.986 676.97 248.544 677.412C248.103 677.853 248.103 678.569 248.544 679.01L249.811 680.277H246.615L243.75 677.412C243.309 676.97 242.594 676.97 242.152 677.412C241.711 677.853 241.711 678.569 242.152 679.01L243.419 680.277H240.878C240.254 680.277 239.749 680.783 239.749 681.407C239.749 682.031 240.254 682.537 240.878 682.537H243.419L242.152 683.804C241.711 684.245 241.711 684.961 242.152 685.402C242.594 685.843 243.309 685.843 243.75 685.402L246.615 682.537H249.811L248.544 683.804C248.103 684.245 248.103 684.961 248.544 685.402C248.986 685.843 249.701 685.843 250.142 685.402L252.539 683.005L253.008 682.537H255.74L249.288 688.989H248.626H245.236C244.612 688.989 244.106 689.495 244.106 690.119C244.106 690.743 244.612 691.249 245.236 691.249H247.028L245.231 693.046C244.79 693.487 244.79 694.202 245.231 694.644C245.673 695.085 246.388 695.085 246.83 694.644L248.626 692.847V694.639C248.626 695.263 249.132 695.769 249.756 695.769C250.38 695.769 250.886 695.263 250.886 694.639V691.249V690.587L257.338 684.135V686.868L256.87 687.336L254.473 689.733C254.032 690.174 254.032 690.89 254.473 691.331V691.331C254.915 691.772 255.63 691.772 256.071 691.331L257.338 690.064V693.26L256.87 693.728L254.473 696.125C254.032 696.566 254.032 697.282 254.473 697.723C254.915 698.164 255.63 698.164 256.071 697.723L257.338 696.456V698.997C257.338 699.621 257.844 700.127 258.468 700.127C259.093 700.127 259.598 699.621 259.598 698.997V696.456L260.866 697.723C261.307 698.164 262.022 698.164 262.464 697.723C262.905 697.282 262.905 696.566 262.464 696.125L260.066 693.728L259.598 693.26V690.064L260.866 691.331C261.307 691.772 262.022 691.772 262.464 691.331V691.331C262.905 690.89 262.905 690.174 262.464 689.733L260.066 687.336L259.598 686.868V684.135L266.051 690.587V691.249V694.639C266.051 695.263 266.557 695.769 267.181 695.769C267.805 695.769 268.311 695.263 268.311 694.639V692.847L270.107 694.644C270.549 695.085 271.264 695.085 271.705 694.644C272.147 694.202 272.147 693.487 271.705 693.046L269.909 691.249H271.701C272.325 691.249 272.831 690.743 272.831 690.119C272.831 689.495 272.325 688.989 271.701 688.989H268.311H267.649L261.196 682.537H263.929L264.397 683.005L266.794 685.402C267.236 685.843 267.951 685.843 268.392 685.402C268.834 684.961 268.834 684.245 268.392 683.804L267.125 682.537H270.321L273.187 685.402C273.628 685.843 274.343 685.843 274.785 685.402C275.226 684.961 275.226 684.245 274.785 683.804L273.518 682.537H276.058C276.682 682.537 277.188 682.031 277.188 681.407C277.188 680.783 276.682 680.277 276.058 680.277Z" fill="#D2F0FF"/>
<path d="M263.929 682.53C263.305 682.53 262.799 682.024 262.799 681.4C262.799 680.776 263.305 680.27 263.929 680.27H261.196L263.128 678.337C262.687 678.778 261.972 678.778 261.53 678.337C261.089 677.896 261.089 677.181 261.53 676.739L259.598 678.672V675.939L260.066 675.471L262.463 673.074C262.904 672.632 262.904 671.917 262.463 671.476C262.022 671.034 261.306 671.034 260.865 671.476L259.598 672.743V669.547L260.066 669.079L262.463 666.682C262.904 666.24 262.904 665.525 262.463 665.084C262.022 664.642 261.306 664.642 260.865 665.084L259.598 666.351V663.81C259.598 663.186 259.092 662.68 258.468 662.68C257.844 662.68 257.338 663.186 257.338 663.81V666.351L256.071 665.084C255.63 664.642 254.914 664.642 254.473 665.084C254.032 665.525 254.032 666.24 254.473 666.682L256.87 669.079L257.338 669.547V672.743L256.071 671.476C255.63 671.034 254.914 671.034 254.473 671.476C254.032 671.917 254.032 672.632 254.473 673.074L256.87 675.471L257.338 675.939V678.672L250.886 672.219V671.557V668.167C250.886 667.543 250.38 667.037 249.756 667.037C249.132 667.037 248.626 667.543 248.626 668.167V669.959L246.829 668.163C246.388 667.721 245.672 667.721 245.231 668.163C244.79 668.604 244.79 669.319 245.231 669.761L247.028 671.557H245.236C244.612 671.557 244.106 672.063 244.106 672.687C244.106 673.311 244.612 673.817 245.236 673.817H248.626H249.288L255.74 680.27H253.007L250.142 677.405C249.701 676.963 248.985 676.963 248.544 677.405C248.103 677.846 248.103 678.561 248.544 679.003L249.811 680.27H246.615L243.75 677.405C243.309 676.963 242.593 676.963 242.152 677.405C241.71 677.846 241.71 678.561 242.152 679.003L243.419 680.27H240.878C240.254 680.27 239.748 680.776 239.748 681.4C239.748 682.024 240.254 682.53 240.878 682.53H243.419L242.152 683.797C241.71 684.238 241.71 684.953 242.152 685.395C242.593 685.836 243.309 685.836 243.75 685.395L246.615 682.53H249.811L248.544 683.797C248.103 684.238 248.103 684.953 248.544 685.395C248.985 685.836 249.701 685.836 250.142 685.395L252.539 682.998L253.007 682.53H255.74L249.288 688.982H248.626H245.236C244.612 688.982 244.106 689.488 244.106 690.112C244.106 690.736 244.612 691.242 245.236 691.242H247.028L245.231 693.039C244.79 693.48 244.79 694.195 245.231 694.637C245.672 695.078 246.388 695.078 246.829 694.637L248.626 692.84V694.632C248.626 695.256 249.132 695.762 249.756 695.762C250.38 695.762 250.886 695.256 250.886 694.632V691.242V690.58L257.338 684.128V686.861L256.87 687.329L254.473 689.726C254.032 690.167 254.032 690.882 254.473 691.324C254.914 691.765 255.63 691.765 256.071 691.324L257.338 690.057V693.253L256.87 693.721L254.473 696.118C254.032 696.559 254.032 697.274 254.473 697.716C254.914 698.157 255.63 698.157 256.071 697.716L257.338 696.449V698.99C257.338 699.614 257.844 700.119 258.468 700.119C259.092 700.119 259.598 699.614 259.598 698.99V696.449L260.865 697.716C261.306 698.157 262.022 698.157 262.463 697.716C262.904 697.274 262.904 696.559 262.463 696.118L260.066 693.721L259.598 693.253V690.057L260.865 691.324C261.306 691.765 262.022 691.765 262.463 691.324C262.904 690.882 262.904 690.167 262.463 689.726L260.066 687.329L259.598 686.861V684.128L261.53 686.06C261.089 685.619 261.089 684.903 261.53 684.462C261.972 684.021 262.687 684.021 263.128 684.462L261.196 682.53H263.929Z" fill="#D2F0FF"/>
</g>
</g>
<path d="M871.868 697.879C874.764 697.879 877.111 695.818 877.111 693.275C877.111 690.733 874.764 688.672 871.868 688.672C868.973 688.672 866.625 690.733 866.625 693.275C866.625 695.818 868.973 697.879 871.868 697.879Z" fill="#E8F7FF"/>
<path d="M511.588 634.691L511.701 634.592C512.725 633.693 512.725 632.237 511.701 631.337C510.677 630.438 509.018 630.438 507.994 631.337L507.881 631.436L507.769 631.337C506.745 630.438 505.086 630.438 504.062 631.337C503.038 632.237 503.038 633.693 504.062 634.592L504.175 634.691L504.062 634.79C503.038 635.689 503.038 637.146 504.062 638.045C504.574 638.494 505.245 638.719 505.915 638.719C506.586 638.719 507.257 638.494 507.769 638.045L507.881 637.946L507.994 638.045C508.506 638.494 509.177 638.719 509.847 638.719C510.518 638.719 511.189 638.494 511.701 638.045C512.725 637.146 512.725 635.689 511.701 634.79L511.588 634.691Z" fill="#D2F0FF"/>
<path d="M947.686 766.254L947.798 766.155C948.822 765.256 948.822 763.8 947.798 762.9C946.774 762.001 945.116 762.001 944.092 762.9L943.979 762.999L943.866 762.9C942.842 762.001 941.184 762.001 940.16 762.9C939.136 763.8 939.136 765.256 940.16 766.155L940.272 766.254L940.16 766.353C939.136 767.252 939.136 768.709 940.16 769.608C940.672 770.057 941.342 770.282 942.013 770.282C942.684 770.282 943.355 770.057 943.866 769.608L943.979 769.509L944.092 769.608C944.603 770.057 945.274 770.282 945.945 770.282C946.616 770.282 947.286 770.057 947.798 769.608C948.822 768.709 948.822 767.252 947.798 766.353L947.686 766.254Z" fill="#D2F0FF"/>
<path d="M746.58 766.83H743.958V764.528C743.958 763.257 742.786 762.226 741.337 762.226C739.888 762.226 738.715 763.257 738.715 764.528V766.83H736.094C734.645 766.83 733.473 767.86 733.473 769.132C733.473 770.403 734.645 771.433 736.094 771.433H738.715V773.735C738.715 775.007 739.888 776.037 741.337 776.037C742.786 776.037 743.958 775.007 743.958 773.735V771.433H746.58C748.028 771.433 749.201 770.403 749.201 769.132C749.201 767.86 748.029 766.83 746.58 766.83Z" fill="#D2F0FF"/>
<path d="M353.462 729.388H350.84V727.086C350.84 725.815 349.668 724.784 348.219 724.784C346.77 724.784 345.598 725.815 345.598 727.086V729.388H342.976C341.527 729.388 340.355 730.418 340.355 731.69C340.355 732.961 341.527 733.991 342.976 733.991H345.598V736.293C345.598 737.564 346.77 738.595 348.219 738.595C349.668 738.595 350.84 737.564 350.84 736.293V733.991H353.462C354.911 733.991 356.083 732.961 356.083 731.69C356.083 730.418 354.911 729.388 353.462 729.388Z" fill="#D2F0FF"/>
<path d="M479.689 560.334L479.802 560.235C480.826 559.335 480.826 557.879 479.802 556.98C478.778 556.08 477.119 556.08 476.095 556.98L475.982 557.079L475.87 556.98C474.846 556.08 473.187 556.08 472.163 556.98C471.139 557.879 471.139 559.335 472.163 560.235L472.276 560.334L472.163 560.432C471.139 561.332 471.139 562.788 472.163 563.687C472.675 564.137 473.346 564.362 474.016 564.362C474.687 564.362 475.358 564.137 475.87 563.687L475.982 563.589L476.095 563.687C476.607 564.137 477.278 564.362 477.948 564.362C478.619 564.362 479.29 564.137 479.802 563.687C480.826 562.788 480.826 561.332 479.802 560.432L479.689 560.334Z" fill="#D2F0FF"/>
<path d="M709.764 678.199L709.876 678.298C710.901 679.197 710.901 680.654 709.876 681.553C708.852 682.452 707.194 682.452 706.17 681.553L706.057 681.454L705.945 681.553C704.92 682.452 703.262 682.452 702.238 681.553C701.214 680.654 701.214 679.197 702.238 678.298L702.35 678.199L702.238 678.1C701.214 677.201 701.214 675.745 702.238 674.845C702.75 674.396 703.421 674.171 704.091 674.171C704.762 674.171 705.433 674.396 705.945 674.845L706.057 674.944L706.17 674.845C706.682 674.396 707.352 674.171 708.023 674.171C708.694 674.171 709.365 674.396 709.876 674.845C710.901 675.745 710.901 677.201 709.876 678.1L709.764 678.199Z" fill="#D2F0FF"/>
<path d="M1007.04 605.689L1007.15 605.59C1008.18 604.691 1008.18 603.234 1007.15 602.335C1006.13 601.436 1004.47 601.436 1003.45 602.335L1003.33 602.434L1003.22 602.335C1002.2 601.436 1000.54 601.436 999.516 602.335C998.492 603.234 998.492 604.691 999.516 605.59L999.628 605.689L999.516 605.788C998.492 606.687 998.492 608.144 999.516 609.043C1000.03 609.492 1000.7 609.717 1001.37 609.717C1002.04 609.717 1002.71 609.492 1003.22 609.043L1003.33 608.944L1003.45 609.043C1003.96 609.492 1004.63 609.717 1005.3 609.717C1005.97 609.717 1006.64 609.492 1007.15 609.043C1008.18 608.144 1008.18 606.687 1007.15 605.788L1007.04 605.689Z" fill="#D2F0FF"/>
<path d="M295.765 581.933L299.154 578.957C300.178 578.057 300.178 576.601 299.154 575.702C298.13 574.802 296.471 574.802 295.447 575.702L292.058 578.678L288.669 575.702C287.645 574.802 285.986 574.802 284.962 575.702C283.938 576.601 283.938 578.057 284.962 578.957L288.351 581.933L284.962 584.909C283.938 585.808 283.938 587.265 284.962 588.164C285.474 588.614 286.145 588.838 286.815 588.838C287.486 588.838 288.157 588.614 288.669 588.164L292.058 585.188L295.447 588.164C295.959 588.614 296.63 588.838 297.301 588.838C297.971 588.838 298.642 588.614 299.154 588.164C300.178 587.265 300.178 585.808 299.154 584.909L295.765 581.933Z" fill="#D2F0FF"/>
<path d="M912.756 533.752H910.134V531.45C910.134 530.179 908.962 529.149 907.513 529.149C906.064 529.149 904.892 530.179 904.892 531.45V533.752H902.27C900.821 533.752 899.649 534.783 899.649 536.054C899.649 537.325 900.821 538.356 902.27 538.356H904.892V540.658C904.892 541.929 906.064 542.96 907.513 542.96C908.962 542.96 910.134 541.929 910.134 540.658V538.356H912.756C914.205 538.356 915.377 537.325 915.377 536.054C915.377 534.783 914.205 533.752 912.756 533.752Z" fill="#D2F0FF"/>
<path d="M364.319 640.392C367.214 640.392 369.562 638.331 369.562 635.789C369.562 633.246 367.214 631.185 364.319 631.185C361.423 631.185 359.076 633.246 359.076 635.789C359.076 638.331 361.423 640.392 364.319 640.392Z" fill="#E8F7FF"/>
<path d="M805.814 567.359C808.709 567.359 811.056 565.298 811.056 562.755C811.056 560.213 808.709 558.152 805.814 558.152C802.918 558.152 800.571 560.213 800.571 562.755C800.571 565.298 802.918 567.359 805.814 567.359Z" fill="#E8F7FF"/>
<path d="M648.521 625.365H645.9V627.667C645.9 628.938 644.727 629.969 643.278 629.969C641.829 629.969 640.657 628.938 640.657 627.667V625.365H638.035C636.587 625.365 635.414 624.335 635.414 623.063C635.414 621.792 636.587 620.762 638.035 620.762H640.657V618.46C640.657 617.189 641.829 616.158 643.278 616.158C644.727 616.158 645.9 617.189 645.9 618.46V620.762H648.521C649.97 620.762 651.142 621.792 651.142 623.063C651.142 624.335 649.97 625.365 648.521 625.365Z" fill="#D2F0FF"/>
<path d="M640.657 722.277C643.552 722.277 645.9 724.338 645.9 726.88C645.9 729.423 643.552 731.484 640.657 731.484C637.761 731.484 635.414 729.423 635.414 726.88C635.414 724.338 637.761 722.277 640.657 722.277Z" fill="#E8F7FF"/>
<mask id="mask5_1000_9346" style="mask-type:luminance" maskUnits="userSpaceOnUse" x="958" y="500" width="38" height="38">
<path d="M958.112 500.146H995.552V537.586H958.112V500.146Z" fill="white"/>
</mask>
<g mask="url(#mask5_1000_9346)">
<path d="M994.424 517.737H991.883L993.15 516.47C993.591 516.029 993.591 515.313 993.15 514.872C992.709 514.431 991.993 514.431 991.552 514.872L988.687 517.737H985.491L986.758 516.47C987.199 516.029 987.199 515.313 986.758 514.872C986.316 514.431 985.601 514.431 985.16 514.872L982.295 517.737H979.562L986.014 511.285H986.676H990.066C990.69 511.285 991.196 510.779 991.196 510.155V510.155C991.196 509.531 990.69 509.025 990.066 509.025H988.274L990.071 507.228C990.512 506.787 990.512 506.071 990.071 505.63C989.629 505.189 988.914 505.189 988.473 505.63L986.676 507.427V505.635C986.676 505.011 986.17 504.505 985.546 504.505C984.922 504.505 984.416 505.011 984.416 505.635V509.025V509.687L977.964 516.139V513.406L978.432 512.938L980.829 510.541C981.27 510.1 981.27 509.384 980.829 508.943C980.388 508.502 979.672 508.502 979.231 508.943L977.964 510.21V507.014L978.432 506.546L980.829 504.149C981.27 503.708 981.27 502.992 980.829 502.551C980.388 502.11 979.672 502.11 979.231 502.551L977.964 503.818V501.277C977.964 500.653 977.458 500.147 976.834 500.147C976.21 500.147 975.704 500.653 975.704 501.277V503.818L974.437 502.551C973.995 502.11 973.28 502.11 972.839 502.551C972.397 502.992 972.397 503.708 972.839 504.149L975.236 506.546L975.704 507.014V510.21L974.437 508.943C973.995 508.502 973.28 508.502 972.839 508.943C972.397 509.384 972.397 510.1 972.839 510.541L975.236 512.938L975.704 513.406V516.139L969.251 509.687V509.025V505.635C969.251 505.011 968.745 504.505 968.121 504.505C967.497 504.505 966.991 505.011 966.991 505.635V507.427L965.195 505.63C964.753 505.189 964.038 505.189 963.597 505.63C963.155 506.071 963.155 506.787 963.597 507.228L965.393 509.025H963.601C962.977 509.025 962.471 509.531 962.471 510.155V510.155C962.471 510.779 962.977 511.285 963.601 511.285H966.991H967.653L974.106 517.737H971.373L968.508 514.872C968.066 514.431 967.351 514.431 966.91 514.872C966.468 515.313 966.468 516.029 966.91 516.47L968.177 517.737H964.981L962.116 514.872C961.674 514.431 960.959 514.431 960.518 514.872C960.076 515.313 960.076 516.029 960.518 516.47L961.785 517.737H959.244C958.62 517.737 958.114 518.243 958.114 518.867C958.114 519.491 958.62 519.997 959.244 519.997H961.785L960.518 521.264C960.076 521.705 960.076 522.421 960.518 522.862C960.959 523.303 961.674 523.303 962.116 522.862L964.981 519.997H968.177L966.91 521.264C966.468 521.705 966.468 522.421 966.91 522.862C967.351 523.303 968.066 523.303 968.508 522.862L970.905 520.465L971.373 519.997H974.106L967.653 526.449H966.991H963.601C962.977 526.449 962.471 526.955 962.471 527.579C962.471 528.203 962.977 528.709 963.601 528.709H965.393L963.597 530.506C963.155 530.947 963.155 531.663 963.597 532.104C964.038 532.545 964.753 532.545 965.195 532.104L966.991 530.307V532.099C966.991 532.723 967.497 533.229 968.121 533.229C968.745 533.229 969.251 532.723 969.251 532.099V528.709V528.047L975.704 521.595V524.328L975.236 524.796L972.839 527.193C972.397 527.634 972.397 528.35 972.839 528.791V528.791C973.28 529.232 973.995 529.232 974.437 528.791L975.704 527.524V530.72L975.236 531.188L972.839 533.585C972.397 534.027 972.397 534.742 972.839 535.183C973.28 535.624 973.995 535.624 974.437 535.183L975.704 533.916V536.457C975.704 537.081 976.21 537.587 976.834 537.587C977.458 537.587 977.964 537.081 977.964 536.457V533.916L979.231 535.183C979.672 535.624 980.388 535.624 980.829 535.183C981.27 534.742 981.27 534.027 980.829 533.585L978.432 531.188L977.964 530.72V527.524L979.231 528.791C979.672 529.232 980.388 529.232 980.829 528.791V528.791C981.27 528.35 981.27 527.634 980.829 527.193L978.432 524.796L977.964 524.328V521.595L984.416 528.047V528.709V532.099C984.416 532.723 984.922 533.229 985.546 533.229C986.17 533.229 986.676 532.723 986.676 532.099V530.307L988.473 532.104C988.914 532.545 989.629 532.545 990.071 532.104C990.512 531.663 990.512 530.947 990.071 530.506L988.274 528.709H990.066C990.69 528.709 991.196 528.203 991.196 527.579C991.196 526.955 990.69 526.449 990.066 526.449H986.676H986.014L979.562 519.997H982.295L982.763 520.465L985.16 522.862C985.601 523.303 986.316 523.303 986.758 522.862C987.199 522.421 987.199 521.705 986.758 521.264L985.491 519.997H988.687L991.552 522.862C991.993 523.303 992.709 523.303 993.15 522.862C993.591 522.421 993.591 521.705 993.15 521.264L991.883 519.997H994.424C995.048 519.997 995.554 519.491 995.554 518.867C995.554 518.243 995.048 517.737 994.424 517.737Z" fill="#A2DDFD"/>
<path d="M982.298 519.993C981.674 519.993 981.168 519.487 981.168 518.863C981.168 518.239 981.674 517.733 982.298 517.733H979.565L981.498 515.801C981.056 516.242 980.341 516.242 979.9 515.801C979.458 515.36 979.458 514.644 979.9 514.203L977.967 516.135V513.402L978.435 512.934L980.832 510.537C981.273 510.096 981.273 509.381 980.832 508.939C980.391 508.498 979.675 508.498 979.234 508.939L977.967 510.206V507.01L978.435 506.542L980.832 504.145C981.273 503.704 981.273 502.988 980.832 502.547C980.391 502.106 979.675 502.106 979.234 502.547L977.967 503.814V501.273C977.967 500.649 977.461 500.143 976.837 500.143C976.213 500.143 975.707 500.649 975.707 501.273V503.814L974.44 502.547C973.999 502.106 973.283 502.106 972.842 502.547C972.401 502.988 972.401 503.704 972.842 504.145L975.239 506.542L975.707 507.01V510.206L974.44 508.939C973.999 508.498 973.283 508.498 972.842 508.939C972.401 509.381 972.401 510.096 972.842 510.537L975.239 512.934L975.707 513.402V516.135L969.255 509.683V509.021V505.631C969.255 505.007 968.749 504.501 968.125 504.501C967.501 504.501 966.995 505.007 966.995 505.631V507.423L965.198 505.626C964.757 505.185 964.041 505.185 963.6 505.626C963.159 506.068 963.159 506.783 963.6 507.224L965.397 509.021H963.605C962.981 509.021 962.475 509.527 962.475 510.151C962.475 510.775 962.981 511.281 963.605 511.281H966.995H967.657L974.109 517.733H971.376L968.511 514.868C968.07 514.427 967.354 514.427 966.913 514.868C966.472 515.309 966.472 516.025 966.913 516.466L968.18 517.733H964.984L962.119 514.868C961.678 514.427 960.962 514.427 960.521 514.868C960.08 515.309 960.08 516.025 960.521 516.466L961.788 517.733H959.247C958.623 517.733 958.117 518.239 958.117 518.863C958.117 519.487 958.623 519.993 959.247 519.993H961.788L960.521 521.26C960.08 521.702 960.08 522.417 960.521 522.858C960.962 523.3 961.678 523.3 962.119 522.858L964.984 519.993H968.18L966.913 521.26C966.472 521.702 966.472 522.417 966.913 522.858C967.354 523.3 968.07 523.3 968.511 522.858L970.908 520.461L971.376 519.993H974.109L967.657 526.446H966.995H963.605C962.981 526.446 962.475 526.951 962.475 527.576C962.475 528.2 962.981 528.706 963.605 528.706H965.397L963.6 530.502C963.159 530.943 963.159 531.659 963.6 532.1C964.041 532.541 964.757 532.541 965.198 532.1L966.995 530.304V532.095C966.995 532.72 967.501 533.225 968.125 533.225C968.749 533.225 969.255 532.72 969.255 532.095V528.706V528.044L975.707 521.591V524.324L975.239 524.792L972.842 527.189C972.401 527.631 972.401 528.346 972.842 528.787C973.283 529.229 973.999 529.229 974.44 528.787L975.707 527.52V530.716L975.239 531.184L972.842 533.581C972.401 534.023 972.401 534.738 972.842 535.179C973.283 535.621 973.999 535.621 974.44 535.179L975.707 533.912V536.453C975.707 537.077 976.213 537.583 976.837 537.583C977.461 537.583 977.967 537.077 977.967 536.453V533.912L979.234 535.179C979.675 535.621 980.391 535.621 980.832 535.179C981.273 534.738 981.273 534.023 980.832 533.581L978.435 531.184L977.967 530.716V527.52L979.234 528.787C979.675 529.229 980.391 529.229 980.832 528.787C981.273 528.346 981.273 527.631 980.832 527.189L978.435 524.792L977.967 524.324V521.591L979.9 523.524C979.458 523.082 979.458 522.367 979.9 521.926C980.341 521.484 981.056 521.484 981.497 521.926L979.565 519.993H982.298Z" fill="#A2DDFD"/>
</g>
<g clip-path="url(#clip5_1000_9346)">
<mask id="mask6_1000_9346" style="mask-type:luminance" maskUnits="userSpaceOnUse" x="508" y="706" width="90" height="90">
<path d="M524.782 706.067L597.945 722.011L582 795.174L508.838 779.23L524.782 706.067Z" fill="white"/>
</mask>
<g mask="url(#mask6_1000_9346)">
<path d="M588.246 755.903L583.28 754.821L586.296 752.885C587.346 752.21 587.651 750.812 586.977 749.762C586.302 748.712 584.904 748.407 583.854 749.081L577.035 753.46L570.789 752.099L573.805 750.163C574.855 749.488 575.16 748.09 574.485 747.04C573.811 745.989 572.413 745.685 571.363 746.359L564.544 750.738L559.203 749.574L574.56 739.713L575.853 739.995L582.478 741.439C583.697 741.704 584.901 740.931 585.167 739.712L585.167 739.712C585.433 738.492 584.66 737.288 583.44 737.022L579.939 736.259L584.215 733.513C585.265 732.839 585.57 731.441 584.895 730.391C584.221 729.34 582.823 729.036 581.773 729.71L577.496 732.456L578.26 728.954C578.525 727.735 577.752 726.531 576.533 726.265C575.313 725.999 574.109 726.772 573.843 727.992L572.4 734.616L572.118 735.91L556.761 745.771L557.925 740.43L559.039 739.715L564.744 736.052C565.794 735.377 566.099 733.979 565.424 732.929C564.75 731.879 563.352 731.574 562.302 732.248L559.286 734.185L560.647 727.939L561.761 727.224L567.466 723.561C568.516 722.886 568.821 721.488 568.147 720.438C567.472 719.388 566.074 719.083 565.024 719.757L562.008 721.694L563.09 716.729C563.356 715.509 562.583 714.305 561.363 714.039C560.144 713.774 558.94 714.547 558.674 715.766L557.592 720.731L555.656 717.716C554.981 716.665 553.583 716.361 552.533 717.035C551.482 717.71 551.178 719.108 551.852 720.158L555.515 725.863L556.231 726.977L554.87 733.222L552.933 730.207C552.259 729.156 550.861 728.852 549.811 729.526C548.76 730.201 548.456 731.599 549.13 732.649L552.793 738.354L553.509 739.468L552.345 744.808L542.484 729.452L542.766 728.158L544.209 721.534C544.475 720.314 543.702 719.11 542.482 718.845C541.263 718.579 540.059 719.352 539.793 720.572L539.03 724.073L536.284 719.797C535.61 718.747 534.212 718.442 533.161 719.116C532.111 719.791 531.807 721.189 532.481 722.239L535.227 726.515L531.725 725.752C530.506 725.486 529.302 726.26 529.036 727.479L529.036 727.479C528.77 728.699 529.543 729.903 530.763 730.168L537.387 731.612L538.681 731.894L548.542 747.251L543.201 746.087L538.822 739.268C538.148 738.218 536.75 737.913 535.7 738.587C534.649 739.262 534.345 740.66 535.019 741.71L536.956 744.726L530.71 743.365L526.331 736.546C525.657 735.495 524.259 735.191 523.209 735.865C522.158 736.54 521.854 737.938 522.528 738.988L524.465 742.004L519.499 740.921C518.28 740.656 517.076 741.429 516.81 742.648C516.544 743.868 517.317 745.072 518.537 745.338L523.502 746.42L520.486 748.356C519.436 749.031 519.131 750.429 519.806 751.479C520.48 752.529 521.878 752.834 522.929 752.159L529.748 747.781L535.993 749.142L532.978 751.078C531.927 751.753 531.623 753.151 532.297 754.201C532.971 755.251 534.37 755.556 535.42 754.882L541.125 751.218L542.239 750.503L547.579 751.667L532.223 761.528L530.929 761.246L524.305 759.802C523.085 759.536 521.881 760.31 521.615 761.529C521.35 762.749 522.123 763.953 523.342 764.219L526.844 764.982L522.568 767.727C521.518 768.402 521.213 769.8 521.887 770.85C522.562 771.9 523.96 772.205 525.01 771.531L529.286 768.785L528.523 772.286C528.257 773.506 529.03 774.71 530.25 774.976C531.469 775.241 532.673 774.468 532.939 773.249L534.383 766.625L534.665 765.331L550.021 755.47L548.858 760.81L547.744 761.526L542.039 765.189C540.988 765.864 540.684 767.262 541.358 768.312L541.358 768.312C542.033 769.362 543.431 769.667 544.481 768.992L547.496 767.056L546.135 773.302L545.021 774.017L539.316 777.68C538.266 778.355 537.961 779.753 538.636 780.803C539.31 781.853 540.708 782.158 541.759 781.483L544.774 779.547L543.692 784.512C543.426 785.732 544.2 786.936 545.419 787.202C546.639 787.467 547.843 786.694 548.108 785.475L549.19 780.509L551.127 783.525C551.801 784.575 553.2 784.88 554.25 784.206C555.3 783.531 555.605 782.133 554.93 781.083L551.267 775.378L550.552 774.264L551.913 768.018L553.849 771.034C554.524 772.084 555.922 772.389 556.972 771.715L556.972 771.714C558.022 771.04 558.327 769.642 557.652 768.592L553.989 762.887L553.274 761.773L554.438 756.432L564.299 771.789L564.017 773.083L562.573 779.707C562.307 780.926 563.081 782.13 564.3 782.396C565.52 782.662 566.724 781.889 566.989 780.669L567.752 777.168L570.498 781.444C571.173 782.494 572.571 782.799 573.621 782.124C574.671 781.45 574.976 780.052 574.302 779.002L571.556 774.726L575.057 775.489C576.277 775.754 577.481 774.981 577.747 773.762C578.013 772.542 577.239 771.338 576.02 771.072L569.395 769.629L568.102 769.347L558.241 753.99L563.581 755.154L564.297 756.268L567.96 761.973C568.634 763.023 570.033 763.328 571.083 762.653C572.133 761.979 572.438 760.581 571.763 759.531L569.827 756.515L576.072 757.876L580.451 764.695C581.125 765.745 582.524 766.05 583.574 765.376C584.624 764.701 584.929 763.303 584.254 762.253L582.318 759.237L587.283 760.319C588.503 760.585 589.707 759.812 589.973 758.592C590.238 757.373 589.465 756.169 588.246 755.903Z" fill="#D2F0FF"/>
<path d="M563.585 755.151C562.365 754.885 561.592 753.681 561.858 752.461C562.124 751.242 563.328 750.469 564.547 750.735L559.207 749.571L563.806 746.618C562.756 747.292 561.358 746.987 560.683 745.937C560.009 744.887 560.313 743.489 561.364 742.814L556.764 745.767L557.928 740.427L559.042 739.712L564.747 736.048C565.798 735.374 566.102 733.976 565.428 732.926C564.753 731.875 563.355 731.571 562.305 732.245L559.289 734.182L560.65 727.936L561.764 727.221L567.469 723.557C568.52 722.883 568.824 721.485 568.15 720.435C567.475 719.384 566.077 719.08 565.027 719.754L562.012 721.691L563.094 716.725C563.359 715.506 562.586 714.302 561.367 714.036C560.147 713.77 558.943 714.543 558.677 715.763L557.595 720.728L555.659 717.713C554.985 716.662 553.586 716.358 552.536 717.032C551.486 717.706 551.181 719.105 551.856 720.155L555.519 725.86L556.234 726.974L554.873 733.219L552.937 730.203C552.262 729.153 550.864 728.849 549.814 729.523C548.764 730.197 548.459 731.595 549.133 732.646L552.797 738.351L553.512 739.465L552.348 744.805L542.487 729.448L542.769 728.155L544.213 721.531C544.479 720.311 543.705 719.107 542.486 718.841C541.266 718.576 540.062 719.349 539.797 720.568L539.033 724.07L536.288 719.794C535.613 718.744 534.215 718.439 533.165 719.113C532.114 719.788 531.81 721.186 532.484 722.236L535.23 726.512L531.728 725.749C530.509 725.483 529.305 726.256 529.039 727.476C528.773 728.695 529.547 729.9 530.766 730.165L537.391 731.609L538.684 731.891L548.545 747.247L543.204 746.084L538.826 739.265C538.151 738.214 536.753 737.91 535.703 738.584C534.653 739.258 534.348 740.656 535.023 741.707L536.959 744.722L530.713 743.361L526.335 736.542C525.66 735.492 524.262 735.188 523.212 735.862C522.162 736.536 521.857 737.934 522.531 738.985L524.468 742L519.503 740.918C518.283 740.653 517.079 741.426 516.813 742.645C516.548 743.865 517.321 745.069 518.54 745.334L523.506 746.417L520.49 748.353C519.44 749.027 519.135 750.425 519.809 751.476C520.484 752.526 521.882 752.831 522.932 752.156L529.751 747.778L535.996 749.139L532.981 751.075C531.931 751.749 531.626 753.148 532.3 754.198C532.975 755.248 534.373 755.553 535.423 754.878L541.128 751.215L542.242 750.5L547.582 751.664L532.226 761.525L530.932 761.243L524.308 759.799C523.088 759.533 521.885 760.306 521.619 761.526C521.353 762.745 522.126 763.949 523.346 764.215L526.847 764.978L522.571 767.724C521.521 768.399 521.216 769.797 521.891 770.847C522.565 771.897 523.963 772.202 525.013 771.527L529.29 768.782L528.526 772.283C528.261 773.503 529.034 774.707 530.253 774.972C531.473 775.238 532.677 774.465 532.943 773.246L534.386 766.621L534.668 765.328L550.025 755.467L548.861 760.807L547.747 761.523L542.042 765.186C540.992 765.86 540.687 767.258 541.361 768.309C542.036 769.359 543.434 769.664 544.484 768.989L547.5 767.053L546.139 773.298L545.025 774.014L539.32 777.677C538.27 778.351 537.965 779.749 538.639 780.8C539.314 781.85 540.712 782.155 541.762 781.48L544.778 779.544L543.696 784.509C543.43 785.729 544.203 786.933 545.423 787.198C546.642 787.464 547.846 786.691 548.112 785.471L549.194 780.506L551.13 783.522C551.805 784.572 553.203 784.877 554.253 784.202C555.303 783.528 555.608 782.13 554.934 781.08L551.27 775.375L550.555 774.261L551.916 768.015L553.853 771.031C554.527 772.081 555.925 772.386 556.975 771.711C558.026 771.037 558.33 769.639 557.656 768.589L553.992 762.884L553.277 761.77L554.441 756.429L557.394 761.028C556.72 759.978 557.025 758.58 558.075 757.906C559.125 757.231 560.523 757.536 561.197 758.586L558.244 753.987L563.585 755.151Z" fill="#D2F0FF"/>
</g>
</g>
<path d="M439.196 752.713C442.091 752.713 444.439 750.652 444.439 748.11C444.439 745.567 442.091 743.506 439.196 743.506C436.3 743.506 433.953 745.567 433.953 748.11C433.953 750.652 436.3 752.713 439.196 752.713Z" fill="#E8F7FF"/>
<mask id="mask7_1000_9346" style="mask-type:luminance" maskUnits="userSpaceOnUse" x="760" y="622" width="45" height="44">
<path d="M760.664 629.182L797.409 622.002L804.588 658.747L767.843 665.927L760.664 629.182Z" fill="white"/>
</mask>
<g mask="url(#mask7_1000_9346)">
<path d="M799.672 639.483L797.178 639.97L798.179 638.483C798.527 637.966 798.39 637.264 797.872 636.915C797.354 636.567 796.652 636.704 796.304 637.222L794.041 640.583L790.905 641.196L791.905 639.709C792.254 639.192 792.116 638.489 791.599 638.141C791.081 637.792 790.379 637.93 790.03 638.447L787.768 641.809L785.086 642.333L790.181 634.763L790.831 634.636L794.158 633.986C794.77 633.866 795.17 633.273 795.05 632.66L795.05 632.66C794.93 632.048 794.337 631.648 793.724 631.768L791.966 632.111L793.384 630.004C793.733 629.486 793.596 628.784 793.078 628.435C792.56 628.087 791.858 628.224 791.51 628.742L790.091 630.849L789.747 629.091C789.627 628.478 789.034 628.079 788.421 628.199C787.809 628.318 787.409 628.912 787.529 629.524L788.179 632.851L788.306 633.501L783.211 641.071L782.687 638.389L783.056 637.84L784.949 635.027C785.298 634.51 785.16 633.807 784.643 633.459C784.125 633.11 783.423 633.248 783.074 633.765L782.074 635.252L781.461 632.115L781.831 631.566L783.723 628.754C784.072 628.236 783.935 627.534 783.417 627.185C782.899 626.837 782.197 626.974 781.849 627.492L780.848 628.978L780.361 626.485C780.241 625.872 779.648 625.473 779.035 625.592C778.423 625.712 778.023 626.306 778.143 626.918L778.63 629.412L777.144 628.411C776.626 628.063 775.924 628.2 775.575 628.718C775.227 629.235 775.364 629.938 775.882 630.286L778.694 632.179L779.243 632.549L779.856 635.685L778.369 634.685C777.852 634.336 777.149 634.473 776.801 634.991C776.452 635.509 776.59 636.211 777.107 636.559L779.92 638.452L780.469 638.822L780.993 641.504L773.423 636.409L773.296 635.759L772.646 632.432C772.526 631.82 771.933 631.42 771.32 631.54C770.708 631.66 770.308 632.253 770.428 632.866L770.771 634.624L768.664 633.206C768.146 632.857 767.444 632.994 767.095 633.512C766.747 634.03 766.884 634.732 767.402 635.08L769.509 636.499L767.751 636.843C767.138 636.962 766.739 637.556 766.859 638.168L766.859 638.168C766.978 638.781 767.572 639.18 768.184 639.061L771.511 638.411L772.161 638.284L779.731 643.379L777.049 643.903L773.687 641.641C773.17 641.292 772.467 641.429 772.119 641.947C771.77 642.465 771.908 643.167 772.425 643.515L773.912 644.516L770.775 645.129L767.414 642.866C766.896 642.518 766.194 642.655 765.845 643.173C765.497 643.691 765.634 644.393 766.152 644.741L767.638 645.742L765.145 646.229C764.532 646.349 764.133 646.942 764.252 647.555C764.372 648.167 764.966 648.567 765.578 648.447L768.072 647.96L767.071 649.446C766.723 649.964 766.86 650.666 767.378 651.015C767.895 651.363 768.598 651.226 768.946 650.708L771.209 647.347L774.345 646.734L773.345 648.221C772.996 648.738 773.133 649.44 773.651 649.789C774.169 650.137 774.871 650 775.22 649.482L777.112 646.67L777.482 646.121L780.164 645.597L775.069 653.167L774.419 653.294L771.092 653.944C770.48 654.064 770.08 654.657 770.2 655.27C770.32 655.882 770.913 656.282 771.526 656.162L773.284 655.818L771.866 657.926C771.517 658.444 771.654 659.146 772.172 659.495C772.69 659.843 773.392 659.706 773.74 659.188L775.159 657.08L775.503 658.839C775.622 659.451 776.216 659.851 776.828 659.731C777.441 659.611 777.84 659.018 777.721 658.406L777.071 655.079L776.944 654.429L782.039 646.859L782.563 649.541L782.194 650.09L780.301 652.902C779.952 653.42 780.089 654.122 780.607 654.471L780.607 654.471C781.125 654.819 781.827 654.682 782.175 654.164L783.176 652.678L783.789 655.815L783.419 656.364L781.526 659.176C781.178 659.694 781.315 660.396 781.833 660.744C782.351 661.093 783.053 660.956 783.401 660.438L784.402 658.951L784.889 661.445C785.009 662.057 785.602 662.457 786.215 662.337C786.827 662.218 787.227 661.624 787.107 661.012L786.62 658.518L788.106 659.518C788.624 659.867 789.326 659.73 789.675 659.212C790.023 658.694 789.886 657.992 789.368 657.644L786.556 655.751L786.007 655.381L785.394 652.244L786.881 653.245C787.398 653.593 788.1 653.456 788.449 652.939L788.449 652.939C788.797 652.421 788.66 651.719 788.142 651.37L785.33 649.477L784.781 649.108L784.257 646.426L791.827 651.521L791.954 652.17L792.604 655.497C792.724 656.11 793.317 656.509 793.93 656.39C794.542 656.27 794.942 655.677 794.822 655.064L794.478 653.305L796.586 654.724C797.104 655.073 797.806 654.935 798.155 654.418C798.503 653.9 798.366 653.198 797.848 652.849L795.74 651.431L797.499 651.087C798.111 650.967 798.511 650.374 798.391 649.761C798.272 649.149 797.678 648.749 797.066 648.869L793.739 649.519L793.089 649.646L785.519 644.551L788.201 644.027L788.75 644.396L791.563 646.289C792.08 646.638 792.782 646.5 793.131 645.983C793.479 645.465 793.342 644.763 792.824 644.414L791.338 643.414L794.475 642.801L797.836 645.063C798.354 645.412 799.056 645.275 799.404 644.757C799.753 644.239 799.616 643.537 799.098 643.189L797.611 642.188L800.105 641.701C800.718 641.581 801.117 640.988 800.997 640.375C800.878 639.763 800.284 639.363 799.672 639.483Z" fill="#D2F0FF"/>
<path d="M788.201 644.022C787.589 644.142 786.995 643.742 786.875 643.13C786.756 642.517 787.155 641.924 787.768 641.804L785.086 642.328L786.612 640.061C786.263 640.579 785.561 640.716 785.043 640.367C784.526 640.019 784.388 639.317 784.737 638.799L783.211 641.066L782.687 638.384L783.056 637.835L784.949 635.023C785.298 634.505 785.16 633.803 784.643 633.454C784.125 633.106 783.423 633.243 783.074 633.761L782.074 635.247L781.461 632.111L781.831 631.561L783.723 628.749C784.072 628.232 783.935 627.529 783.417 627.181C782.899 626.832 782.197 626.97 781.849 627.487L780.848 628.974L780.361 626.48C780.241 625.868 779.648 625.468 779.035 625.588C778.423 625.708 778.023 626.301 778.143 626.914L778.63 629.407L777.143 628.407C776.626 628.058 775.924 628.195 775.575 628.713C775.227 629.231 775.364 629.933 775.882 630.281L778.694 632.174L779.243 632.544L779.856 635.681L778.369 634.68C777.852 634.332 777.149 634.469 776.801 634.987C776.452 635.504 776.59 636.206 777.107 636.555L779.92 638.448L780.469 638.817L780.993 641.5L773.423 636.404L773.296 635.755L772.646 632.428C772.526 631.815 771.933 631.416 771.32 631.535C770.708 631.655 770.308 632.249 770.428 632.861L770.771 634.62L768.664 633.201C768.146 632.852 767.444 632.99 767.095 633.507C766.747 634.025 766.884 634.727 767.402 635.076L769.509 636.495L767.751 636.838C767.138 636.958 766.739 637.551 766.859 638.164C766.978 638.776 767.572 639.176 768.184 639.056L771.511 638.406L772.161 638.279L779.731 643.374L777.049 643.899L773.687 641.636C773.17 641.288 772.467 641.425 772.119 641.942C771.77 642.46 771.908 643.162 772.425 643.511L773.912 644.511L770.775 645.124L767.414 642.862C766.896 642.513 766.194 642.651 765.845 643.168C765.497 643.686 765.634 644.388 766.152 644.737L767.638 645.737L765.145 646.224C764.532 646.344 764.133 646.938 764.252 647.55C764.372 648.163 764.966 648.562 765.578 648.442L768.072 647.955L767.071 649.442C766.723 649.959 766.86 650.662 767.378 651.01C767.895 651.359 768.598 651.221 768.946 650.704L771.209 647.342L774.345 646.729L773.345 648.216C772.996 648.734 773.133 649.436 773.651 649.784C774.169 650.133 774.871 649.996 775.22 649.478L777.112 646.666L777.482 646.117L780.164 645.592L775.069 653.162L774.419 653.289L771.092 653.939C770.48 654.059 770.08 654.653 770.2 655.265C770.32 655.878 770.913 656.277 771.526 656.157L773.284 655.814L771.866 657.922C771.517 658.439 771.654 659.142 772.172 659.49C772.69 659.838 773.392 659.701 773.74 659.184L775.159 657.076L775.503 658.834C775.622 659.447 776.216 659.846 776.828 659.727C777.441 659.607 777.84 659.013 777.721 658.401L777.071 655.074L776.944 654.424L782.039 646.854L782.563 649.537L782.194 650.086L780.301 652.898C779.952 653.416 780.089 654.118 780.607 654.466C781.125 654.815 781.827 654.678 782.175 654.16L783.176 652.673L783.789 655.81L783.419 656.359L781.526 659.171C781.178 659.689 781.315 660.391 781.833 660.74C782.351 661.088 783.053 660.951 783.401 660.433L784.402 658.947L784.889 661.44C785.009 662.053 785.602 662.452 786.215 662.333C786.827 662.213 787.227 661.62 787.107 661.007L786.62 658.513L788.106 659.514C788.624 659.862 789.326 659.725 789.675 659.207C790.023 658.69 789.886 657.988 789.368 657.639L786.556 655.746L786.007 655.377L785.394 652.24L786.881 653.24C787.398 653.589 788.1 653.452 788.449 652.934C788.797 652.416 788.66 651.714 788.142 651.366L785.33 649.473L784.781 649.103L784.257 646.421L786.524 647.947C786.007 647.599 785.869 646.896 786.218 646.379C786.566 645.861 787.268 645.724 787.786 646.072L785.519 644.546L788.201 644.022Z" fill="#D2F0FF"/>
</g>
<mask id="mask8_1000_9346" style="mask-type:luminance" maskUnits="userSpaceOnUse" x="801" y="737" width="38" height="39">
<path d="M801.348 737.565H838.788V775.005H801.348V737.565Z" fill="white"/>
</mask>
<g mask="url(#mask8_1000_9346)">
<path d="M837.656 755.155H835.115L836.382 753.888C836.823 753.447 836.823 752.731 836.382 752.29C835.941 751.849 835.225 751.849 834.784 752.29L831.919 755.155H828.723L829.99 753.888C830.431 753.447 830.431 752.731 829.99 752.29C829.548 751.849 828.833 751.849 828.392 752.29L825.527 755.155H822.794L829.246 748.703H829.908H833.298C833.922 748.703 834.428 748.197 834.428 747.573V747.573C834.428 746.949 833.922 746.443 833.298 746.443H831.506L833.303 744.646C833.744 744.205 833.744 743.489 833.303 743.048C832.861 742.607 832.146 742.607 831.705 743.048L829.908 744.845V743.053C829.908 742.429 829.402 741.923 828.778 741.923C828.154 741.923 827.648 742.429 827.648 743.053V746.443V747.105L821.196 753.557V750.824L821.664 750.356L824.061 747.959C824.502 747.518 824.502 746.802 824.061 746.361C823.619 745.92 822.904 745.92 822.463 746.361L821.196 747.628V744.432L821.664 743.964L824.061 741.567C824.502 741.126 824.502 740.41 824.061 739.969C823.619 739.528 822.904 739.528 822.463 739.969L821.196 741.236V738.695C821.196 738.071 820.69 737.565 820.066 737.565C819.442 737.565 818.936 738.071 818.936 738.695V741.236L817.669 739.969C817.227 739.528 816.512 739.528 816.071 739.969C815.629 740.41 815.629 741.126 816.071 741.567L818.468 743.964L818.936 744.432V747.628L817.669 746.361C817.227 745.92 816.512 745.92 816.071 746.361C815.629 746.802 815.629 747.518 816.071 747.959L818.468 750.356L818.936 750.824V753.557L812.483 747.105V746.443V743.053C812.483 742.429 811.977 741.923 811.353 741.923C810.729 741.923 810.223 742.429 810.223 743.053V744.845L808.427 743.048C807.985 742.607 807.27 742.607 806.829 743.048C806.387 743.489 806.387 744.205 806.829 744.646L808.625 746.443H806.833C806.209 746.443 805.703 746.949 805.703 747.573V747.573C805.703 748.197 806.209 748.703 806.833 748.703H810.223H810.885L817.338 755.155H814.605L811.74 752.29C811.298 751.849 810.583 751.849 810.142 752.29C809.7 752.731 809.7 753.447 810.142 753.888L811.409 755.155H808.213L805.348 752.29C804.906 751.849 804.191 751.849 803.749 752.29C803.308 752.731 803.308 753.447 803.749 753.888L805.017 755.155H802.476C801.852 755.155 801.346 755.661 801.346 756.285C801.346 756.909 801.852 757.415 802.476 757.415H805.017L803.749 758.682C803.308 759.123 803.308 759.839 803.749 760.28C804.191 760.721 804.906 760.721 805.348 760.28L808.213 757.415H811.409L810.142 758.682C809.7 759.123 809.7 759.839 810.142 760.28C810.583 760.721 811.298 760.721 811.74 760.28L814.137 757.883L814.605 757.415H817.338L810.885 763.867H810.223H806.833C806.209 763.867 805.703 764.373 805.703 764.997C805.703 765.621 806.209 766.127 806.833 766.127H808.625L806.829 767.924C806.387 768.365 806.387 769.081 806.829 769.522C807.27 769.963 807.985 769.963 808.427 769.522L810.223 767.725V769.517C810.223 770.141 810.729 770.647 811.353 770.647C811.977 770.647 812.483 770.141 812.483 769.517V766.127V765.465L818.936 759.013V761.746L818.468 762.214L816.071 764.611C815.629 765.052 815.629 765.768 816.071 766.209V766.209C816.512 766.65 817.227 766.65 817.669 766.209L818.936 764.942V768.138L818.468 768.606L816.071 771.003C815.629 771.444 815.629 772.16 816.071 772.601C816.512 773.042 817.227 773.042 817.669 772.601L818.936 771.334V773.875C818.936 774.499 819.442 775.005 820.066 775.005C820.69 775.005 821.196 774.499 821.196 773.875V771.334L822.463 772.601C822.904 773.042 823.619 773.042 824.061 772.601C824.502 772.16 824.502 771.444 824.061 771.003L821.664 768.606L821.196 768.138V764.942L822.463 766.209C822.904 766.65 823.619 766.65 824.061 766.209V766.209C824.502 765.768 824.502 765.052 824.061 764.611L821.664 762.214L821.196 761.746V759.013L827.648 765.465V766.127V769.517C827.648 770.141 828.154 770.647 828.778 770.647C829.402 770.647 829.908 770.141 829.908 769.517V767.725L831.705 769.522C832.146 769.963 832.861 769.963 833.303 769.522C833.744 769.081 833.744 768.365 833.303 767.924L831.506 766.127H833.298C833.922 766.127 834.428 765.621 834.428 764.997C834.428 764.373 833.922 763.867 833.298 763.867H829.908H829.246L822.794 757.415H825.527L825.995 757.883L828.392 760.28C828.833 760.721 829.548 760.721 829.99 760.28C830.431 759.839 830.431 759.123 829.99 758.682L828.723 757.415H831.919L834.784 760.28C835.225 760.721 835.941 760.721 836.382 760.28C836.823 759.839 836.823 759.123 836.382 758.682L835.115 757.415H837.656C838.28 757.415 838.786 756.909 838.786 756.285C838.786 755.661 838.28 755.155 837.656 755.155Z" fill="#A2DDFD"/>
<path d="M825.525 757.408C824.901 757.408 824.395 756.902 824.395 756.278C824.395 755.654 824.901 755.148 825.525 755.148H822.792L824.724 753.216C824.283 753.657 823.567 753.657 823.126 753.216C822.685 752.775 822.685 752.059 823.126 751.618L821.194 753.55V750.817L821.662 750.349L824.059 747.952C824.5 747.511 824.5 746.796 824.059 746.354C823.617 745.913 822.902 745.913 822.461 746.354L821.194 747.621V744.425L821.662 743.957L824.059 741.56C824.5 741.119 824.5 740.403 824.059 739.962C823.617 739.521 822.902 739.521 822.461 739.962L821.194 741.229V738.688C821.194 738.064 820.688 737.558 820.064 737.558C819.44 737.558 818.934 738.064 818.934 738.688V741.229L817.667 739.962C817.225 739.521 816.51 739.521 816.069 739.962C815.627 740.403 815.627 741.119 816.069 741.56L818.466 743.957L818.934 744.425V747.621L817.667 746.354C817.225 745.913 816.51 745.913 816.069 746.354C815.627 746.796 815.627 747.511 816.069 747.952L818.466 750.349L818.934 750.817V753.55L812.481 747.098V746.436V743.046C812.481 742.422 811.975 741.916 811.351 741.916C810.727 741.916 810.221 742.422 810.221 743.046V744.838L808.425 743.041C807.983 742.6 807.268 742.6 806.827 743.041C806.385 743.483 806.385 744.198 806.827 744.639L808.623 746.436H806.831C806.207 746.436 805.701 746.942 805.701 747.566C805.701 748.19 806.207 748.696 806.831 748.696H810.221H810.883L817.336 755.148H814.603L811.738 752.283C811.296 751.842 810.581 751.842 810.14 752.283C809.698 752.724 809.698 753.44 810.14 753.881L811.407 755.148H808.211L805.346 752.283C804.904 751.842 804.189 751.842 803.748 752.283C803.306 752.724 803.306 753.44 803.748 753.881L805.015 755.148H802.474C801.85 755.148 801.344 755.654 801.344 756.278C801.344 756.902 801.85 757.408 802.474 757.408H805.015L803.748 758.675C803.306 759.117 803.306 759.832 803.748 760.273C804.189 760.715 804.904 760.715 805.346 760.273L808.211 757.408H811.407L810.14 758.675C809.698 759.117 809.698 759.832 810.14 760.273C810.581 760.715 811.296 760.715 811.738 760.273L814.135 757.876L814.603 757.408H817.336L810.883 763.861H810.221H806.831C806.207 763.861 805.701 764.366 805.701 764.991C805.701 765.615 806.207 766.121 806.831 766.121H808.623L806.827 767.917C806.385 768.359 806.385 769.074 806.827 769.515C807.268 769.956 807.983 769.956 808.425 769.515L810.221 767.719V769.51C810.221 770.135 810.727 770.64 811.351 770.64C811.975 770.64 812.481 770.135 812.481 769.51V766.121V765.459L818.934 759.006V761.739L818.466 762.207L816.069 764.604C815.627 765.046 815.627 765.761 816.069 766.202C816.51 766.644 817.225 766.644 817.667 766.202L818.934 764.935V768.131L818.466 768.599L816.069 770.996C815.627 771.438 815.627 772.153 816.069 772.594C816.51 773.036 817.225 773.036 817.667 772.594L818.934 771.327V773.868C818.934 774.492 819.44 774.998 820.064 774.998C820.688 774.998 821.194 774.492 821.194 773.868V771.327L822.461 772.594C822.902 773.036 823.617 773.036 824.059 772.594C824.5 772.153 824.5 771.438 824.059 770.996L821.662 768.599L821.194 768.131V764.935L822.461 766.202C822.902 766.644 823.617 766.644 824.059 766.202C824.5 765.761 824.5 765.046 824.059 764.604L821.662 762.207L821.194 761.739V759.006L823.126 760.939C822.685 760.497 822.685 759.782 823.126 759.341C823.567 758.899 824.283 758.899 824.724 759.341L822.792 757.408H825.525Z" fill="#A2DDFD"/>
</g>
<path d="M626.835 483.284C626.835 483.284 641.872 492.087 664.275 492.087C686.679 492.087 701.715 483.284 701.715 483.284" stroke="black" stroke-width="18.7199" stroke-linecap="round"/>
<path d="M629.853 413.571C629.853 434.57 622.148 445.257 612.643 445.257C603.138 445.257 595.433 434.57 595.433 413.571C595.433 392.571 603.138 381.885 612.643 381.885C622.148 381.885 629.853 392.571 629.853 413.571Z" fill="black"/>
<path fill-rule="evenodd" clip-rule="evenodd" d="M627.317 395.455C628.161 397.967 628.817 400.825 629.25 404.026C628.31 406.156 626.362 407.234 624.112 407.234C620.944 407.234 618.375 405.097 618.375 400.897C618.375 396.697 620.944 394.559 624.112 394.559C625.299 394.559 626.402 394.859 627.317 395.455Z" fill="white"/>
<path d="M733.116 413.571C733.116 434.57 725.411 445.257 715.906 445.257C706.401 445.257 698.696 434.57 698.696 413.571C698.696 392.571 706.401 381.885 715.906 381.885C725.411 381.885 733.116 392.571 733.116 413.571Z" fill="black"/>
<path fill-rule="evenodd" clip-rule="evenodd" d="M730.567 395.45C731.413 397.966 732.07 400.829 732.504 404.037C731.562 406.159 729.617 407.234 727.371 407.234C724.202 407.234 721.634 405.097 721.634 400.897C721.634 396.697 724.202 394.56 727.371 394.56C728.554 394.56 729.654 394.858 730.567 395.45Z" fill="white"/>
<g filter="url(#filter0_f_1000_9346)">
<ellipse cx="772.965" cy="469.44" rx="34.4206" ry="12.6744" fill="#FF9C9C"/>
</g>
<g filter="url(#filter1_f_1000_9346)">
<ellipse cx="554.972" cy="469.44" rx="34.4206" ry="12.6744" fill="#FF9C9C"/>
</g>
<defs>
<filter id="filter0_f_1000_9346" x="682.385" y="400.605" width="181.161" height="137.668" filterUnits="userSpaceOnUse" color-interpolation-filters="sRGB">
<feFlood flood-opacity="0" result="BackgroundImageFix"/>
<feBlend mode="normal" in="SourceGraphic" in2="BackgroundImageFix" result="shape"/>
<feGaussianBlur stdDeviation="28.0799" result="effect1_foregroundBlur_1000_9346"/>
</filter>
<filter id="filter1_f_1000_9346" x="464.392" y="400.605" width="181.161" height="137.668" filterUnits="userSpaceOnUse" color-interpolation-filters="sRGB">
<feFlood flood-opacity="0" result="BackgroundImageFix"/>
<feBlend mode="normal" in="SourceGraphic" in2="BackgroundImageFix" result="shape"/>
<feGaussianBlur stdDeviation="28.0799" result="effect1_foregroundBlur_1000_9346"/>
</filter>
<clipPath id="clip0_1000_9346">
<rect width="93.5998" height="93.5994" fill="white" transform="translate(352.066 494.204)"/>
</clipPath>
<clipPath id="clip1_1000_9346">
<rect width="93.5998" height="93.5994" fill="white" transform="translate(876.224 569.086)"/>
</clipPath>
<clipPath id="clip2_1000_9346">
<rect width="37.4399" height="37.4397" fill="white" transform="translate(1007.27 681.405)"/>
</clipPath>
<clipPath id="clip3_1000_9346">
<rect width="37.4399" height="37.4397" fill="white" transform="translate(426.947 643.963)"/>
</clipPath>
<clipPath id="clip4_1000_9346">
<rect width="37.4399" height="37.4397" fill="white" transform="translate(239.748 662.686)"/>
</clipPath>
<clipPath id="clip5_1000_9346">
<rect width="74.8798" height="74.8795" fill="white" transform="matrix(0.977068 0.212929 -0.212931 0.977067 524.778 706.064)"/>
</clipPath>
</defs>
</svg>
