<svg width="688" height="528" viewBox="0 0 688 528" fill="none" xmlns="http://www.w3.org/2000/svg">
<ellipse cx="393.143" cy="132" rx="131.048" ry="132" fill="#FFD058"/>
<ellipse cx="435.833" cy="209" rx="53.6104" ry="54" fill="#D9FFFD"/>
<ellipse cx="498.38" cy="254.002" rx="53.6104" ry="54" fill="#D9FFFD"/>
<ellipse cx="498.38" cy="163.998" rx="53.6104" ry="54" fill="#D9FFFD"/>
<ellipse cx="578.794" cy="173" rx="53.6104" ry="54" fill="#D9FFFD"/>
<ellipse cx="623.47" cy="218" rx="53.6104" ry="54" fill="#D9FFFD"/>
<ellipse cx="569.86" cy="254.002" rx="53.6104" ry="54" fill="#D9FFFD"/>
<ellipse cx="525.184" cy="209" rx="53.6104" ry="54" fill="#D9FFFD"/>
<path d="M286.171 137.949C318.679 100.386 377.203 101.223 408.625 139.699L622.326 401.379C652.461 438.279 633.082 493.436 586.157 501.672C515.478 514.077 421.309 527.748 348.439 527.996C272.683 528.254 174.433 514.16 101.583 501.474C54.717 493.313 35.2299 438.317 65.1781 401.356L167.561 274.998L286.171 137.949Z" fill="#5EC639"/>
<path d="M305.074 313.829C305.074 313.829 325.471 321.277 338.54 321.277C351.61 321.277 372.007 313.829 372.007 313.829" stroke="black" stroke-width="8" stroke-linecap="round"/>
<path d="M318.46 272.868C318.46 285.207 313.965 291.487 308.42 291.487C302.875 291.487 298.38 285.207 298.38 272.868C298.38 260.528 302.875 254.249 308.42 254.249C313.965 254.249 318.46 260.528 318.46 272.868Z" fill="black"/>
<path fill-rule="evenodd" clip-rule="evenodd" d="M316.979 262.22C317.472 263.697 317.855 265.378 318.108 267.262C317.559 268.511 316.424 269.143 315.113 269.143C313.264 269.143 311.766 267.887 311.766 265.419C311.766 262.951 313.264 261.695 315.113 261.695C315.804 261.695 316.446 261.871 316.979 262.22Z" fill="white"/>
<path d="M378.697 272.867C378.697 285.207 374.202 291.486 368.657 291.486C363.112 291.486 358.617 285.207 358.617 272.867C358.617 260.527 363.112 254.248 368.657 254.248C374.202 254.248 378.697 260.527 378.697 272.867Z" fill="black"/>
<path fill-rule="evenodd" clip-rule="evenodd" d="M377.221 262.22C377.714 263.697 378.097 265.378 378.35 267.262C377.801 268.511 376.666 269.143 375.354 269.143C373.506 269.143 372.008 267.887 372.008 265.419C372.008 262.951 373.506 261.695 375.354 261.695C376.046 261.695 376.688 261.871 377.221 262.22Z" fill="white"/>
<g filter="url(#filter0_f_939_6094)">
<ellipse cx="405.47" cy="306.381" rx="20.0799" ry="7.44763" fill="#FF9C9C"/>
</g>
<g filter="url(#filter1_f_939_6094)">
<ellipse cx="278.3" cy="306.381" rx="20.0799" ry="7.44763" fill="#FF9C9C"/>
</g>
<ellipse cx="140.978" cy="110.001" rx="53.6104" ry="54" fill="#D9FFFD"/>
<ellipse cx="203.523" cy="155.001" rx="53.6104" ry="54" fill="#D9FFFD"/>
<ellipse cx="203.523" cy="64.998" rx="53.6104" ry="54" fill="#D9FFFD"/>
<ellipse cx="283.939" cy="74.0005" rx="53.6104" ry="54" fill="#D9FFFD"/>
<ellipse cx="328.614" cy="119" rx="53.6104" ry="54" fill="#D9FFFD"/>
<ellipse cx="275.003" cy="155.001" rx="53.6104" ry="54" fill="#D9FFFD"/>
<ellipse cx="230.328" cy="110.001" rx="53.6104" ry="54" fill="#D9FFFD"/>
<defs>
<filter id="filter0_f_939_6094" x="361.391" y="274.934" width="88.1597" height="62.895" filterUnits="userSpaceOnUse" color-interpolation-filters="sRGB">
<feFlood flood-opacity="0" result="BackgroundImageFix"/>
<feBlend mode="normal" in="SourceGraphic" in2="BackgroundImageFix" result="shape"/>
<feGaussianBlur stdDeviation="12" result="effect1_foregroundBlur_939_6094"/>
</filter>
<filter id="filter1_f_939_6094" x="234.22" y="274.934" width="88.1597" height="62.895" filterUnits="userSpaceOnUse" color-interpolation-filters="sRGB">
<feFlood flood-opacity="0" result="BackgroundImageFix"/>
<feBlend mode="normal" in="SourceGraphic" in2="BackgroundImageFix" result="shape"/>
<feGaussianBlur stdDeviation="12" result="effect1_foregroundBlur_939_6094"/>
</filter>
</defs>
</svg>
