<svg width="1099" height="942" viewBox="0 0 1099 942" fill="none" xmlns="http://www.w3.org/2000/svg">
<path d="M340.384 366.858C340.384 366.858 473.358 249.946 634.88 274.04C796.401 298.134 897.59 471.731 897.59 471.731L820.57 528.755C820.57 528.755 750.72 365.19 626.214 346.618C501.708 328.045 383.945 436.553 383.945 436.553L340.384 366.858Z" fill="#6FC2FF"/>
<path d="M283.599 325.546C283.599 325.546 449.127 97.4976 693.063 133.887C937 170.276 962.828 518.374 962.828 518.374L875.708 535.798C875.708 535.798 775.87 251.011 651.365 232.439C526.859 213.868 327.159 403.954 327.159 403.954L283.599 325.546Z" fill="#FF6F6F"/>
<path d="M331.673 358.154C331.673 358.154 471.065 177.015 652.204 204.037C833.342 231.06 880.53 415.891 880.53 415.891L829.241 483.147C829.241 483.147 761.559 295.008 637.053 276.435C512.548 257.863 378.365 415.891 378.365 415.891L331.673 358.154Z" fill="#FFDD65"/>
<ellipse cx="696" cy="436.559" rx="85.5362" ry="85.5358" fill="#D9FFFD"/>
<ellipse cx="795.794" cy="507.844" rx="85.5362" ry="85.5358" fill="#D9FFFD"/>
<ellipse cx="795.792" cy="365.279" rx="85.5362" ry="85.5358" fill="#D9FFFD"/>
<ellipse cx="924.096" cy="379.537" rx="85.5362" ry="85.5358" fill="#D9FFFD"/>
<ellipse cx="995.378" cy="450.819" rx="85.5362" ry="85.5358" fill="#D9FFFD"/>
<ellipse cx="909.839" cy="507.844" rx="85.5362" ry="85.5358" fill="#D9FFFD"/>
<ellipse cx="838.56" cy="436.559" rx="85.5362" ry="85.5358" fill="#D9FFFD"/>
<path d="M677.592 365.138C606.827 283.962 480.102 285.775 411.688 368.943L145.098 693.03C78.9816 773.405 121.328 893.974 224.111 910.326C326.442 926.607 446.079 941.524 542.394 941.849C643.214 942.19 769.003 926.713 875.417 909.908C978.063 893.697 1020.65 773.489 954.944 692.98L830.986 541.101L677.592 365.138Z" fill="#5EC639"/>
<ellipse cx="225.549" cy="279.746" rx="85.5362" ry="85.5358" fill="#D9FFFD"/>
<ellipse cx="325.341" cy="351.025" rx="85.5362" ry="85.5358" fill="#D9FFFD"/>
<ellipse cx="325.341" cy="208.466" rx="85.5362" ry="85.5358" fill="#D9FFFD"/>
<ellipse cx="453.645" cy="222.722" rx="85.5362" ry="85.5358" fill="#D9FFFD"/>
<ellipse cx="524.927" cy="294.004" rx="85.5362" ry="85.5358" fill="#D9FFFD"/>
<ellipse cx="439.389" cy="351.025" rx="85.5362" ry="85.5358" fill="#D9FFFD"/>
<ellipse cx="368.109" cy="279.746" rx="85.5362" ry="85.5358" fill="#D9FFFD"/>
<g filter="url(#filter0_f_1001_7278)">
<ellipse cx="32.0377" cy="11.797" rx="32.0377" ry="11.797" transform="matrix(-1 0 0 1 477.252 593.37)" fill="#FF9C9C"/>
</g>
<g filter="url(#filter1_f_1001_7278)">
<ellipse cx="32.0377" cy="11.797" rx="32.0377" ry="11.797" transform="matrix(-1 0 0 1 680.155 593.371)" fill="#FF9C9C"/>
</g>
<path d="M581.234 618.052C581.234 618.052 567.239 626.245 546.386 626.245C525.534 626.245 511.538 618.052 511.538 618.052" stroke="black" stroke-width="17.424" stroke-linecap="round"/>
<path d="M578.422 553.169C578.422 572.715 585.594 582.662 594.441 582.662C603.288 582.662 610.46 572.715 610.46 553.169C610.46 533.623 603.288 523.677 594.441 523.677C585.594 523.677 578.422 533.623 578.422 553.169Z" fill="black"/>
<path fill-rule="evenodd" clip-rule="evenodd" d="M580.783 536.309C579.997 538.648 579.386 541.31 578.983 544.292C579.858 546.272 581.67 547.274 583.763 547.274C586.712 547.274 589.103 545.284 589.103 541.375C589.103 537.466 586.712 535.477 583.763 535.477C582.659 535.477 581.634 535.755 580.783 536.309Z" fill="white"/>
<path d="M482.309 553.169C482.309 572.715 489.481 582.662 498.328 582.662C507.175 582.662 514.347 572.715 514.347 553.169C514.347 533.623 507.175 523.677 498.328 523.677C489.481 523.677 482.309 533.623 482.309 553.169Z" fill="black"/>
<path fill-rule="evenodd" clip-rule="evenodd" d="M484.669 536.309C483.883 538.65 483.271 541.313 482.868 544.298C483.744 546.275 485.555 547.276 487.647 547.276C490.596 547.276 492.986 545.287 492.986 541.377C492.986 537.468 490.596 535.479 487.647 535.479C486.544 535.479 485.52 535.757 484.669 536.309Z" fill="white"/>
<defs>
<filter id="filter0_f_1001_7278" x="360.905" y="541.098" width="168.619" height="128.138" filterUnits="userSpaceOnUse" color-interpolation-filters="sRGB">
<feFlood flood-opacity="0" result="BackgroundImageFix"/>
<feBlend mode="normal" in="SourceGraphic" in2="BackgroundImageFix" result="shape"/>
<feGaussianBlur stdDeviation="26.136" result="effect1_foregroundBlur_1001_7278"/>
</filter>
<filter id="filter1_f_1001_7278" x="563.807" y="541.099" width="168.619" height="128.138" filterUnits="userSpaceOnUse" color-interpolation-filters="sRGB">
<feFlood flood-opacity="0" result="BackgroundImageFix"/>
<feBlend mode="normal" in="SourceGraphic" in2="BackgroundImageFix" result="shape"/>
<feGaussianBlur stdDeviation="26.136" result="effect1_foregroundBlur_1001_7278"/>
</filter>
</defs>
</svg>
