<svg width="605" height="565" viewBox="0 0 605 565" fill="none" xmlns="http://www.w3.org/2000/svg">
<path d="M564.479 233.234C564.479 362.046 447.142 341.522 302.399 341.522C157.657 341.522 40.3198 362.046 40.3198 233.234C40.3198 104.423 157.657 0 302.399 0C447.142 0 564.479 104.423 564.479 233.234Z" fill="#836141"/>
<path d="M221.757 131.041C221.757 137.721 217.244 141.121 211.677 141.121C206.11 141.121 201.597 137.721 201.597 131.041C201.597 124.361 206.11 120.961 211.677 120.961C217.244 120.961 221.757 124.361 221.757 131.041Z" fill="#463322"/>
<path d="M161.277 151.201C161.277 157.882 156.764 161.281 151.197 161.281C145.63 161.281 141.117 157.882 141.117 151.201C141.117 144.521 145.63 141.121 151.197 141.121C156.764 141.121 161.277 144.521 161.277 151.201Z" fill="#463322"/>
<path d="M201.597 171.361C201.597 178.041 197.084 181.441 191.517 181.441C185.95 181.441 181.437 178.041 181.437 171.361C181.437 164.68 185.95 161.281 191.517 161.281C197.084 161.281 201.597 164.68 201.597 171.361Z" fill="#463322"/>
<path d="M383.039 131.04C383.039 124.359 387.552 120.96 393.119 120.96C398.686 120.96 403.199 124.359 403.199 131.04C403.199 137.72 398.686 141.12 393.119 141.12C387.552 141.12 383.039 137.72 383.039 131.04Z" fill="#463322"/>
<path d="M443.519 151.2C443.519 157.88 448.032 161.28 453.599 161.28C459.166 161.28 463.679 157.88 463.679 151.2C463.679 144.519 459.166 141.12 453.599 141.12C448.032 141.12 443.519 144.519 443.519 151.2Z" fill="#463322"/>
<path d="M403.198 171.361C403.198 178.042 407.711 181.441 413.278 181.441C418.845 181.441 423.358 178.042 423.358 171.361C423.358 164.681 418.845 161.281 413.278 161.281C407.711 161.281 403.198 164.681 403.198 171.361Z" fill="#463322"/>
<mask id="path-8-inside-1_939_6131" fill="white">
<path d="M342.719 120.96C342.719 134.321 338.206 141.12 332.639 141.12C327.072 141.12 322.559 134.321 322.559 120.96C322.559 107.599 327.072 100.8 332.639 100.8C338.206 100.8 342.719 107.599 342.719 120.96Z"/>
</mask>
<path d="M342.719 120.96C342.719 134.321 338.206 141.12 332.639 141.12C327.072 141.12 322.559 134.321 322.559 120.96C322.559 107.599 327.072 100.8 332.639 100.8C338.206 100.8 342.719 107.599 342.719 120.96Z" fill="black"/>
<path d="M322.559 120.96C322.559 125.748 321.692 127.092 322.038 126.454C322.268 126.028 323.099 124.669 324.983 123.346C327.016 121.92 329.703 120.96 332.639 120.96V161.28C345.007 161.28 353.327 153.349 357.496 145.647C361.49 138.27 362.879 129.533 362.879 120.96H322.559ZM332.639 120.96C335.575 120.96 338.262 121.92 340.295 123.346C342.179 124.669 343.01 126.028 343.241 126.454C343.586 127.092 342.719 125.748 342.719 120.96H302.399C302.399 129.533 303.789 138.27 307.782 145.647C311.951 153.349 320.271 161.28 332.639 161.28V120.96ZM342.719 120.96C342.719 116.172 343.586 114.829 343.241 115.467C343.01 115.893 342.179 117.252 340.295 118.574C338.262 120 335.575 120.96 332.639 120.96V80.6403C320.271 80.6403 311.951 88.5717 307.782 96.2732C303.789 103.651 302.399 112.387 302.399 120.96H342.719ZM332.639 120.96C329.703 120.96 327.016 120 324.983 118.574C323.099 117.252 322.268 115.893 322.038 115.467C321.692 114.829 322.559 116.172 322.559 120.96H362.879C362.879 112.387 361.49 103.651 357.496 96.2732C353.327 88.5717 345.007 80.6403 332.639 80.6403V120.96Z" fill="black" mask="url(#path-8-inside-1_939_6131)"/>
<mask id="path-10-inside-2_939_6131" fill="white">
<path d="M282.24 120.96C282.24 134.321 277.727 141.12 272.16 141.12C266.593 141.12 262.08 134.321 262.08 120.96C262.08 107.599 266.593 100.8 272.16 100.8C277.727 100.8 282.24 107.599 282.24 120.96Z"/>
</mask>
<path d="M282.24 120.96C282.24 134.321 277.727 141.12 272.16 141.12C266.593 141.12 262.08 134.321 262.08 120.96C262.08 107.599 266.593 100.8 272.16 100.8C277.727 100.8 282.24 107.599 282.24 120.96Z" fill="black"/>
<path d="M262.08 120.96C262.08 125.748 261.213 127.092 261.558 126.454C261.789 126.028 262.619 124.669 264.504 123.346C266.536 121.92 269.224 120.96 272.16 120.96V161.28C284.527 161.28 292.848 153.349 297.016 145.647C301.01 138.27 302.4 129.533 302.4 120.96H262.08ZM272.16 120.96C275.095 120.96 277.783 121.92 279.815 123.346C281.7 124.669 282.531 126.028 282.761 126.454C283.106 127.092 282.24 125.748 282.24 120.96H241.92C241.92 129.533 243.309 138.27 247.303 145.647C251.471 153.349 259.792 161.28 272.16 161.28V120.96ZM282.24 120.96C282.24 116.172 283.106 114.829 282.761 115.467C282.531 115.893 281.7 117.252 279.815 118.574C277.783 120 275.095 120.96 272.16 120.96V80.6403C259.792 80.6403 251.471 88.5717 247.303 96.2732C243.309 103.651 241.92 112.387 241.92 120.96H282.24ZM272.16 120.96C269.224 120.96 266.536 120 264.504 118.574C262.619 117.252 261.789 115.893 261.558 115.467C261.213 114.829 262.08 116.172 262.08 120.96H302.4C302.4 112.387 301.01 103.651 297.016 96.2732C292.848 88.5717 284.527 80.6403 272.16 80.6403V120.96Z" fill="black" mask="url(#path-10-inside-2_939_6131)"/>
<path d="M282.24 161.28C282.24 161.28 295.242 171.36 302.399 171.36C309.557 171.36 322.559 161.28 322.559 161.28" stroke="black" stroke-width="20.16" stroke-linecap="round"/>
<path d="M40.3198 262.081H564.479L487.83 549.515C485.476 558.34 477.484 564.481 468.35 564.481H136.448C127.315 564.481 119.322 558.34 116.969 549.515L40.3198 262.081Z" fill="#F03030"/>
<g filter="url(#filter0_d_939_6131)">
<path d="M0 241.92C0 230.786 9.02594 221.76 20.16 221.76H584.639C595.773 221.76 604.799 230.786 604.799 241.92V282.24C604.799 293.374 595.773 302.4 584.639 302.4H20.16C9.02592 302.4 0 293.374 0 282.24V241.92Z" fill="#F03030"/>
</g>
<path d="M255.178 383.906C255.178 391.9 253.663 398.701 250.632 404.309C247.625 409.917 243.521 414.201 238.319 417.16C233.14 420.095 227.318 421.563 220.85 421.563C214.336 421.563 208.489 420.083 203.311 417.124C198.132 414.165 194.04 409.882 191.033 404.274C188.026 398.666 186.523 391.876 186.523 383.906C186.523 375.912 188.026 369.111 191.033 363.503C194.04 357.895 198.132 353.623 203.311 350.688C208.489 347.729 214.336 346.249 220.85 346.249C227.318 346.249 233.14 347.729 238.319 350.688C243.521 353.623 247.625 357.895 250.632 363.503C253.663 369.111 255.178 375.912 255.178 383.906ZM239.464 383.906C239.464 378.728 238.689 374.361 237.137 370.805C235.61 367.249 233.45 364.553 230.658 362.715C227.866 360.878 224.597 359.959 220.85 359.959C217.104 359.959 213.835 360.878 211.043 362.715C208.25 364.553 206.079 367.249 204.528 370.805C203 374.361 202.237 378.728 202.237 383.906C202.237 389.084 203 393.451 204.528 397.007C206.079 400.563 208.25 403.259 211.043 405.097C213.835 406.934 217.104 407.853 220.85 407.853C224.597 407.853 227.866 406.934 230.658 405.097C233.45 403.259 235.61 400.563 237.137 397.007C238.689 393.451 239.464 389.084 239.464 383.906ZM266.373 420.561V365.579H281.157V375.172H281.73C282.732 371.759 284.414 369.182 286.777 367.44C289.139 365.674 291.86 364.791 294.938 364.791C295.702 364.791 296.525 364.839 297.408 364.934C298.291 365.03 299.066 365.161 299.735 365.328V378.859C299.019 378.644 298.028 378.453 296.764 378.286C295.499 378.119 294.341 378.036 293.291 378.036C291.048 378.036 289.044 378.525 287.278 379.503C285.536 380.458 284.152 381.794 283.126 383.512C282.123 385.23 281.622 387.211 281.622 389.454V420.561H266.373ZM330.116 421.634C324.46 421.634 319.592 420.489 315.512 418.198C311.455 415.883 308.329 412.614 306.133 408.39C303.938 404.142 302.84 399.119 302.84 393.32C302.84 387.665 303.938 382.701 306.133 378.429C308.329 374.158 311.419 370.829 315.404 368.442C319.413 366.056 324.114 364.863 329.508 364.863C333.135 364.863 336.512 365.448 339.638 366.617C342.788 367.762 345.532 369.492 347.871 371.807C350.233 374.122 352.071 377.033 353.383 380.541C354.696 384.025 355.352 388.106 355.352 392.783V396.971H308.925V387.521H340.998C340.998 385.326 340.521 383.381 339.566 381.687C338.612 379.992 337.287 378.668 335.593 377.713C333.922 376.735 331.977 376.246 329.758 376.246C327.443 376.246 325.391 376.783 323.601 377.857C321.835 378.907 320.451 380.326 319.449 382.116C318.447 383.882 317.934 385.851 317.91 388.022V397.007C317.91 399.728 318.411 402.078 319.413 404.059C320.439 406.04 321.883 407.567 323.744 408.641C325.606 409.715 327.813 410.251 330.367 410.251C332.061 410.251 333.612 410.013 335.02 409.536C336.428 409.058 337.633 408.342 338.635 407.388C339.638 406.433 340.401 405.264 340.926 403.88L355.03 404.811C354.314 408.199 352.846 411.158 350.627 413.688C348.431 416.194 345.592 418.15 342.108 419.558C338.647 420.942 334.65 421.634 330.116 421.634ZM400.561 397.15V365.579H415.81V420.561H401.17V410.574H400.597C399.356 413.795 397.292 416.384 394.405 418.341C391.541 420.298 388.045 421.276 383.917 421.276C380.242 421.276 377.008 420.441 374.216 418.771C371.424 417.1 369.24 414.726 367.665 411.647C366.114 408.569 365.327 404.882 365.303 400.587V365.579H380.552V397.866C380.576 401.112 381.447 403.677 383.165 405.562C384.883 407.447 387.186 408.39 390.073 408.39C391.911 408.39 393.629 407.972 395.228 407.137C396.827 406.278 398.115 405.013 399.094 403.343C400.096 401.672 400.585 399.608 400.561 397.15Z" fill="white"/>
<defs>
<filter id="filter0_d_939_6131" x="0" y="221.76" width="604.799" height="90.7201" filterUnits="userSpaceOnUse" color-interpolation-filters="sRGB">
<feFlood flood-opacity="0" result="BackgroundImageFix"/>
<feColorMatrix in="SourceAlpha" type="matrix" values="0 0 0 0 0 0 0 0 0 0 0 0 0 0 0 0 0 0 127 0" result="hardAlpha"/>
<feOffset dy="10.08"/>
<feComposite in2="hardAlpha" operator="out"/>
<feColorMatrix type="matrix" values="0 0 0 0 0 0 0 0 0 0 0 0 0 0 0 0 0 0 0.25 0"/>
<feBlend mode="normal" in2="BackgroundImageFix" result="effect1_dropShadow_939_6131"/>
<feBlend mode="normal" in="SourceGraphic" in2="effect1_dropShadow_939_6131" result="shape"/>
</filter>
</defs>
</svg>
