<svg width="30" height="28" viewBox="0 0 30 28" fill="none" xmlns="http://www.w3.org/2000/svg">
<path d="M28 11.5692C28 17.9586 22.1797 16.9405 15 16.9405C7.8203 16.9405 2 17.9586 2 11.5692C2 5.17969 7.8203 0 15 0C22.1797 0 28 5.17969 28 11.5692Z" fill="#836141"/>
<path d="M11 6.5C11 6.83137 10.7761 7 10.5 7C10.2239 7 10 6.83137 10 6.5C10 6.16863 10.2239 6 10.5 6C10.7761 6 11 6.16863 11 6.5Z" fill="#463322"/>
<path d="M8 7.5C8 7.83137 7.77614 8 7.5 8C7.22386 8 7 7.83137 7 7.5C7 7.16863 7.22386 7 7.5 7C7.77614 7 8 7.16863 8 7.5Z" fill="#463322"/>
<path d="M10 8.5C10 8.83137 9.77614 9 9.5 9C9.22386 9 9 8.83137 9 8.5C9 8.16863 9.22386 8 9.5 8C9.77614 8 10 8.16863 10 8.5Z" fill="#463322"/>
<path d="M19 6.5C19 6.16863 19.2239 6 19.5 6C19.7761 6 20 6.16863 20 6.5C20 6.83137 19.7761 7 19.5 7C19.2239 7 19 6.83137 19 6.5Z" fill="#463322"/>
<path d="M22 7.5C22 7.83137 22.2239 8 22.5 8C22.7761 8 23 7.83137 23 7.5C23 7.16863 22.7761 7 22.5 7C22.2239 7 22 7.16863 22 7.5Z" fill="#463322"/>
<path d="M20 8.5C20 8.83137 20.2239 9 20.5 9C20.7761 9 21 8.83137 21 8.5C21 8.16863 20.7761 8 20.5 8C20.2239 8 20 8.16863 20 8.5Z" fill="#463322"/>
<mask id="path-8-inside-1_561_5678" fill="white">
<path d="M17 6C17 6.66274 16.7761 7 16.5 7C16.2239 7 16 6.66274 16 6C16 5.33726 16.2239 5 16.5 5C16.7761 5 17 5.33726 17 6Z"/>
</mask>
<path d="M17 6C17 6.66274 16.7761 7 16.5 7C16.2239 7 16 6.66274 16 6C16 5.33726 16.2239 5 16.5 5C16.7761 5 17 5.33726 17 6Z" fill="black"/>
<path d="M16 6C16 6.2375 15.957 6.30413 15.9741 6.27249C15.9856 6.25136 16.0268 6.18394 16.1202 6.11836C16.2211 6.04761 16.3544 6 16.5 6V8C17.1135 8 17.5262 7.60658 17.733 7.22456C17.9311 6.85861 18 6.42524 18 6H16ZM16.5 6C16.6456 6 16.7789 6.04761 16.8798 6.11836C16.9732 6.18394 17.0144 6.25136 17.0259 6.27249C17.043 6.30413 17 6.2375 17 6H15C15 6.42524 15.0689 6.85861 15.267 7.22456C15.4738 7.60658 15.8865 8 16.5 8V6ZM17 6C17 5.7625 17.043 5.69587 17.0259 5.72751C17.0144 5.74865 16.9732 5.81606 16.8798 5.88164C16.7789 5.95239 16.6456 6 16.5 6V4C15.8865 4 15.4738 4.39342 15.267 4.77544C15.0689 5.14139 15 5.57476 15 6H17ZM16.5 6C16.3544 6 16.2211 5.95239 16.1202 5.88164C16.0268 5.81606 15.9856 5.74865 15.9741 5.72751C15.957 5.69587 16 5.7625 16 6H18C18 5.57476 17.9311 5.14139 17.733 4.77544C17.5262 4.39342 17.1135 4 16.5 4V6Z" fill="black" mask="url(#path-8-inside-1_561_5678)"/>
<mask id="path-10-inside-2_561_5678" fill="white">
<path d="M14 6C14 6.66274 13.7761 7 13.5 7C13.2239 7 13 6.66274 13 6C13 5.33726 13.2239 5 13.5 5C13.7761 5 14 5.33726 14 6Z"/>
</mask>
<path d="M14 6C14 6.66274 13.7761 7 13.5 7C13.2239 7 13 6.66274 13 6C13 5.33726 13.2239 5 13.5 5C13.7761 5 14 5.33726 14 6Z" fill="black"/>
<path d="M13 6C13 6.2375 12.957 6.30413 12.9741 6.27249C12.9856 6.25136 13.0268 6.18394 13.1202 6.11836C13.2211 6.04761 13.3544 6 13.5 6V8C14.1135 8 14.5262 7.60658 14.733 7.22456C14.9311 6.85861 15 6.42524 15 6H13ZM13.5 6C13.6456 6 13.7789 6.04761 13.8798 6.11836C13.9732 6.18394 14.0144 6.25136 14.0259 6.27249C14.043 6.30413 14 6.2375 14 6H12C12 6.42524 12.0689 6.85861 12.267 7.22456C12.4738 7.60658 12.8865 8 13.5 8V6ZM14 6C14 5.7625 14.043 5.69587 14.0259 5.72751C14.0144 5.74865 13.9732 5.81606 13.8798 5.88164C13.7789 5.95239 13.6456 6 13.5 6V4C12.8865 4 12.4738 4.39342 12.267 4.77544C12.0689 5.14139 12 5.57476 12 6H14ZM13.5 6C13.3544 6 13.2211 5.95239 13.1202 5.88164C13.0268 5.81606 12.9856 5.74865 12.9741 5.72751C12.957 5.69587 13 5.7625 13 6H15C15 5.57476 14.9311 5.14139 14.733 4.77544C14.5262 4.39342 14.1135 4 13.5 4V6Z" fill="black" mask="url(#path-10-inside-2_561_5678)"/>
<path d="M14 8C14 8 14.645 8.5 15 8.5C15.355 8.5 16 8 16 8" stroke="black" stroke-linecap="round"/>
<path d="M2 13H28L24.198 27.2577C24.0812 27.6954 23.6848 28 23.2317 28H6.76828C6.31523 28 5.91878 27.6954 5.80204 27.2577L2 13Z" fill="#F03030"/>
<g filter="url(#filter0_d_561_5678)">
<path d="M0 12C0 11.4477 0.447715 11 1 11H29C29.5523 11 30 11.4477 30 12V14C30 14.5523 29.5523 15 29 15H1C0.447716 15 0 14.5523 0 14V12Z" fill="#F03030"/>
</g>
<path d="M12.6577 19.1818C12.6577 19.5784 12.5825 19.9157 12.4322 20.1939C12.283 20.4721 12.0794 20.6845 11.8214 20.8313C11.5645 20.9769 11.2757 21.0497 10.9549 21.0497C10.6317 21.0497 10.3417 20.9763 10.0849 20.8295C9.82801 20.6828 9.625 20.4703 9.47585 20.1921C9.3267 19.9139 9.25213 19.5772 9.25213 19.1818C9.25213 18.7853 9.3267 18.4479 9.47585 18.1697C9.625 17.8916 9.82801 17.6797 10.0849 17.5341C10.3417 17.3873 10.6317 17.3139 10.9549 17.3139C11.2757 17.3139 11.5645 17.3873 11.8214 17.5341C12.0794 17.6797 12.283 17.8916 12.4322 18.1697C12.5825 18.4479 12.6577 18.7853 12.6577 19.1818ZM11.8782 19.1818C11.8782 18.925 11.8397 18.7083 11.7628 18.532C11.687 18.3556 11.5799 18.2218 11.4414 18.1307C11.3029 18.0395 11.1407 17.994 10.9549 17.994C10.7691 17.994 10.6069 18.0395 10.4684 18.1307C10.3299 18.2218 10.2222 18.3556 10.1452 18.532C10.0695 18.7083 10.0316 18.925 10.0316 19.1818C10.0316 19.4387 10.0695 19.6553 10.1452 19.8317C10.2222 20.008 10.3299 20.1418 10.4684 20.233C10.6069 20.3241 10.7691 20.3697 10.9549 20.3697C11.1407 20.3697 11.3029 20.3241 11.4414 20.233C11.5799 20.1418 11.687 20.008 11.7628 19.8317C11.8397 19.6553 11.8782 19.4387 11.8782 19.1818ZM13.213 21V18.2727H13.9463V18.7486H13.9747C14.0244 18.5793 14.1079 18.4515 14.2251 18.3651C14.3422 18.2775 14.4772 18.2337 14.6299 18.2337C14.6678 18.2337 14.7086 18.236 14.7524 18.2408C14.7962 18.2455 14.8347 18.252 14.8678 18.2603V18.9315C14.8323 18.9208 14.7832 18.9113 14.7204 18.9031C14.6577 18.8948 14.6003 18.8906 14.5482 18.8906C14.4369 18.8906 14.3375 18.9149 14.2499 18.9634C14.1635 19.0108 14.0948 19.0771 14.0439 19.1623C13.9942 19.2475 13.9694 19.3458 13.9694 19.457V21H13.213ZM16.3748 21.0533C16.0943 21.0533 15.8528 20.9964 15.6504 20.8828C15.4492 20.768 15.2941 20.6058 15.1852 20.3963C15.0763 20.1856 15.0218 19.9364 15.0218 19.6488C15.0218 19.3683 15.0763 19.122 15.1852 18.9102C15.2941 18.6983 15.4474 18.5331 15.6451 18.4148C15.8439 18.2964 16.0771 18.2372 16.3446 18.2372C16.5246 18.2372 16.6921 18.2662 16.8471 18.3242C17.0034 18.381 17.1395 18.4669 17.2555 18.5817C17.3727 18.6965 17.4638 18.8409 17.5289 19.0149C17.594 19.1877 17.6266 19.3902 17.6266 19.6222V19.8299H15.3237V19.3612H16.9146C16.9146 19.2522 16.8909 19.1558 16.8436 19.0717C16.7962 18.9877 16.7305 18.922 16.6465 18.8746C16.5636 18.8261 16.4672 18.8018 16.3571 18.8018C16.2422 18.8018 16.1404 18.8285 16.0517 18.8817C15.9641 18.9338 15.8954 19.0043 15.8457 19.093C15.796 19.1806 15.7705 19.2783 15.7694 19.386V19.8317C15.7694 19.9666 15.7942 20.0832 15.8439 20.1815C15.8948 20.2797 15.9664 20.3555 16.0588 20.4087C16.1511 20.462 16.2606 20.4886 16.3873 20.4886C16.4713 20.4886 16.5482 20.4768 16.6181 20.4531C16.6879 20.4295 16.7477 20.3939 16.7974 20.3466C16.8471 20.2992 16.885 20.2412 16.911 20.1726L17.6106 20.2188C17.5751 20.3868 17.5023 20.5336 17.3922 20.6591C17.2833 20.7834 17.1425 20.8804 16.9696 20.9503C16.798 21.0189 16.5997 21.0533 16.3748 21.0533ZM19.8691 19.8388V18.2727H20.6255V21H19.8993V20.5046H19.8709C19.8094 20.6644 19.707 20.7929 19.5637 20.8899C19.4217 20.987 19.2483 21.0355 19.0435 21.0355C18.8612 21.0355 18.7008 20.9941 18.5623 20.9112C18.4238 20.8284 18.3155 20.7106 18.2374 20.5579C18.1605 20.4052 18.1214 20.2223 18.1202 20.0092V18.2727H18.8766V19.8743C18.8778 20.0353 18.921 20.1625 19.0062 20.256C19.0914 20.3496 19.2057 20.3963 19.3489 20.3963C19.44 20.3963 19.5253 20.3756 19.6046 20.3342C19.6839 20.2915 19.7478 20.2288 19.7963 20.146C19.8461 20.0631 19.8703 19.9607 19.8691 19.8388Z" fill="white"/>
<defs>
<filter id="filter0_d_561_5678" x="0" y="11" width="30" height="4.5" filterUnits="userSpaceOnUse" color-interpolation-filters="sRGB">
<feFlood flood-opacity="0" result="BackgroundImageFix"/>
<feColorMatrix in="SourceAlpha" type="matrix" values="0 0 0 0 0 0 0 0 0 0 0 0 0 0 0 0 0 0 127 0" result="hardAlpha"/>
<feOffset dy="0.5"/>
<feComposite in2="hardAlpha" operator="out"/>
<feColorMatrix type="matrix" values="0 0 0 0 0 0 0 0 0 0 0 0 0 0 0 0 0 0 0.25 0"/>
<feBlend mode="normal" in2="BackgroundImageFix" result="effect1_dropShadow_561_5678"/>
<feBlend mode="normal" in="SourceGraphic" in2="effect1_dropShadow_561_5678" result="shape"/>
</filter>
</defs>
</svg>
