<svg width="550" height="501" viewBox="0 0 550 501" fill="none" xmlns="http://www.w3.org/2000/svg">
<rect x="262.081" y="163.081" width="24.96" height="124.8" fill="#75D753"/>
<path d="M273.781 173.327C300.746 199.162 344.147 201.654 384.286 198.289C458.507 192.065 513.631 126.851 507.407 52.6298C505.572 30.7485 500.916 16.7136 497.381 8.85162C495.144 3.87409 489.51 2.13808 484.392 4.03347C467.013 10.4701 427.998 24.7209 412.999 28.5716C326.044 52.2345 282.993 83.9696 273.781 173.327Z" fill="#75D753"/>
<path d="M282.337 174.168C255.372 200.003 211.971 202.495 171.832 199.129C97.6109 192.906 42.4876 127.692 48.7111 53.4706C50.5458 31.5893 55.2024 17.5544 58.7368 9.69244C60.9745 4.71492 66.6086 2.9789 71.7263 4.87429C89.1056 11.3109 128.12 25.5617 143.119 29.4124C230.074 53.0753 273.125 84.8105 282.337 174.168Z" fill="#75D753"/>
<path d="M549.12 420.303C549.12 514.116 430.682 499.168 277.45 499.168C124.219 499.168 0.000732422 514.116 0.000732422 420.303C11.5611 318.514 124.219 250.441 277.45 250.441C430.682 250.441 537.559 324.186 549.12 420.303Z" fill="#9F7147"/>
<path d="M224.641 369.001C224.641 373.137 221.847 375.241 218.401 375.241C214.954 375.241 212.161 373.137 212.161 369.001C212.161 364.866 214.954 362.761 218.401 362.761C221.847 362.761 224.641 364.866 224.641 369.001Z" fill="#463822"/>
<path d="M187.201 381.482C187.201 385.617 184.407 387.722 180.961 387.722C177.515 387.722 174.721 385.617 174.721 381.482C174.721 377.346 177.515 375.242 180.961 375.242C184.407 375.242 187.201 377.346 187.201 381.482Z" fill="#463822"/>
<path d="M212.162 393.962C212.162 398.098 209.368 400.202 205.922 400.202C202.476 400.202 199.682 398.098 199.682 393.962C199.682 389.827 202.476 387.722 205.922 387.722C209.368 387.722 212.162 389.827 212.162 393.962Z" fill="#463822"/>
<path d="M324.481 369.001C324.481 373.137 327.275 375.241 330.721 375.241C334.168 375.241 336.961 373.137 336.961 369.001C336.961 364.866 334.168 362.761 330.721 362.761C327.275 362.761 324.481 364.866 324.481 369.001Z" fill="#463822"/>
<path d="M361.92 381.481C361.92 385.616 364.714 387.721 368.16 387.721C371.607 387.721 374.4 385.616 374.4 381.481C374.4 377.345 371.607 375.241 368.16 375.241C364.714 375.241 361.92 377.345 361.92 381.481Z" fill="#463822"/>
<path d="M336.96 393.962C336.96 398.098 339.754 400.202 343.2 400.202C346.646 400.202 349.44 398.098 349.44 393.962C349.44 389.827 346.646 387.722 343.2 387.722C339.754 387.722 336.96 389.827 336.96 393.962Z" fill="#463822"/>
<mask id="path-11-inside-1_939_6075" fill="white">
<path d="M299.521 350.281C299.521 358.552 296.727 362.761 293.281 362.761C289.834 362.761 287.041 358.552 287.041 350.281C287.041 342.01 289.834 337.801 293.281 337.801C296.727 337.801 299.521 342.01 299.521 350.281Z"/>
</mask>
<path d="M299.521 350.281C299.521 358.552 296.727 362.761 293.281 362.761C289.834 362.761 287.041 358.552 287.041 350.281C287.041 342.01 289.834 337.801 293.281 337.801C296.727 337.801 299.521 342.01 299.521 350.281Z" fill="black"/>
<path d="M287.041 350.281C287.041 353.245 286.504 354.076 286.718 353.682C286.86 353.418 287.375 352.576 288.541 351.758C289.8 350.875 291.463 350.281 293.281 350.281V375.241C300.937 375.241 306.087 370.331 308.668 365.563C311.14 360.996 312.001 355.588 312.001 350.281H287.041ZM293.281 350.281C295.098 350.281 296.762 350.875 298.02 351.758C299.186 352.576 299.701 353.418 299.843 353.682C300.057 354.076 299.521 353.245 299.521 350.281H274.561C274.561 355.588 275.421 360.996 277.893 365.563C280.474 370.331 285.624 375.241 293.281 375.241V350.281ZM299.521 350.281C299.521 347.317 300.057 346.485 299.843 346.88C299.701 347.144 299.186 347.985 298.02 348.804C296.762 349.687 295.098 350.281 293.281 350.281V325.321C285.624 325.321 280.474 330.231 277.893 334.998C275.421 339.565 274.561 344.974 274.561 350.281H299.521ZM293.281 350.281C291.463 350.281 289.8 349.687 288.541 348.804C287.375 347.985 286.86 347.144 286.718 346.88C286.504 346.485 287.041 347.317 287.041 350.281H312.001C312.001 344.974 311.14 339.565 308.668 334.998C306.087 330.231 300.937 325.321 293.281 325.321V350.281Z" fill="black" mask="url(#path-11-inside-1_939_6075)"/>
<mask id="path-13-inside-2_939_6075" fill="white">
<path d="M262.081 350.281C262.081 358.552 259.287 362.761 255.841 362.761C252.394 362.761 249.601 358.552 249.601 350.281C249.601 342.01 252.394 337.801 255.841 337.801C259.287 337.801 262.081 342.01 262.081 350.281Z"/>
</mask>
<path d="M262.081 350.281C262.081 358.552 259.287 362.761 255.841 362.761C252.394 362.761 249.601 358.552 249.601 350.281C249.601 342.01 252.394 337.801 255.841 337.801C259.287 337.801 262.081 342.01 262.081 350.281Z" fill="black"/>
<path d="M249.601 350.281C249.601 353.245 249.064 354.076 249.278 353.682C249.42 353.418 249.935 352.576 251.101 351.758C252.36 350.875 254.023 350.281 255.841 350.281V375.241C263.497 375.241 268.647 370.331 271.228 365.563C273.7 360.996 274.561 355.588 274.561 350.281H249.601ZM255.841 350.281C257.658 350.281 259.322 350.875 260.58 351.758C261.746 352.576 262.261 353.418 262.403 353.682C262.617 354.076 262.081 353.245 262.081 350.281H237.121C237.121 355.588 237.981 360.996 240.453 365.563C243.034 370.331 248.184 375.241 255.841 375.241V350.281ZM262.081 350.281C262.081 347.317 262.617 346.485 262.403 346.88C262.261 347.144 261.746 347.985 260.58 348.804C259.322 349.687 257.658 350.281 255.841 350.281V325.321C248.184 325.321 243.034 330.231 240.453 334.998C237.981 339.565 237.121 344.974 237.121 350.281H262.081ZM255.841 350.281C254.023 350.281 252.36 349.687 251.101 348.804C249.935 347.985 249.42 347.144 249.278 346.88C249.064 346.485 249.601 347.317 249.601 350.281H274.561C274.561 344.974 273.7 339.565 271.228 334.998C268.647 330.231 263.497 325.321 255.841 325.321V350.281Z" fill="black" mask="url(#path-13-inside-2_939_6075)"/>
<path d="M255.84 387.721C255.84 387.721 267.914 393.961 274.56 393.961C281.206 393.961 293.28 387.721 293.28 387.721" stroke="black" stroke-width="12.48" stroke-linecap="round"/>
</svg>
