<svg width="539" height="613" viewBox="0 0 539 613" fill="none" xmlns="http://www.w3.org/2000/svg">
<rect x="179.52" y="285.12" width="190.079" height="327.36" rx="21.12" fill="#996A3D"/>
<path d="M195.36 475.2V454.08L121.44 422.4L115.655 417.772C112.58 415.313 108.518 419.25 110.88 422.4C108.276 421.359 106.457 425.026 108.862 426.469L110.88 427.68C108.734 427.68 108.476 430.799 110.593 431.152L121.44 432.96L195.36 475.2Z" fill="#996A3D"/>
<path d="M359.039 475.2V454.08L432.959 422.4L438.744 417.772C441.819 415.313 445.881 419.25 443.519 422.4C446.123 421.359 447.942 425.026 445.537 426.469L443.519 427.68C445.665 427.68 445.923 430.799 443.806 431.152L432.959 432.96L359.039 475.2Z" fill="#996A3D"/>
<ellipse cx="168.96" cy="285.121" rx="73.9198" ry="63.3601" fill="#6DC94C"/>
<ellipse cx="351.944" cy="264" rx="98.8649" ry="84.4801" fill="#6DC94C"/>
<ellipse cx="253.08" cy="264" rx="98.8649" ry="84.4801" fill="#6DC94C"/>
<ellipse cx="318.989" cy="235.84" rx="98.8649" ry="84.4801" fill="#6DC94C"/>
<ellipse cx="95.0398" cy="52.3114" rx="95.0398" ry="52.3114" transform="matrix(0.975266 -0.221034 0.221033 0.975266 10.5601 221.534)" fill="#6DC94C"/>
<ellipse cx="153.12" cy="126.72" rx="100.32" ry="84.4801" fill="#6DC94C"/>
<ellipse cx="200.64" cy="84.4801" rx="73.9198" ry="84.4801" fill="#6DC94C"/>
<ellipse cx="84.4798" cy="47.5201" rx="84.4798" ry="47.5201" transform="matrix(0.975027 0.222087 -0.222085 0.975027 359.026 190.08)" fill="#6DC94C"/>
<ellipse cx="299.505" cy="84.4801" rx="98.8649" ry="84.4801" fill="#6DC94C"/>
<ellipse cx="464.639" cy="195.36" rx="73.9198" ry="58.0801" fill="#6DC94C"/>
<ellipse cx="369.599" cy="79.2002" rx="84.4798" ry="58.0801" fill="#6DC94C"/>
<ellipse cx="406.559" cy="132" rx="100.32" ry="68.6401" fill="#6DC94C"/>
<ellipse cx="100.32" cy="190.08" rx="100.32" ry="73.9201" fill="#6DC94C"/>
<ellipse cx="183.345" cy="158.4" rx="98.8649" ry="84.4801" fill="#6DC94C"/>
<mask id="path-18-inside-1_939_6149" fill="white">
<path d="M295.679 390.721C295.679 397.719 293.315 401.281 290.399 401.281C287.483 401.281 285.119 397.719 285.119 390.721C285.119 383.722 287.483 380.161 290.399 380.161C293.315 380.161 295.679 383.722 295.679 390.721Z"/>
</mask>
<path d="M295.679 390.721C295.679 397.719 293.315 401.281 290.399 401.281C287.483 401.281 285.119 397.719 285.119 390.721C285.119 383.722 287.483 380.161 290.399 380.161C293.315 380.161 295.679 383.722 295.679 390.721Z" fill="black"/>
<path d="M285.119 390.721C285.119 393.229 284.665 393.932 284.846 393.598C284.967 393.375 285.402 392.663 286.389 391.971C287.454 391.223 288.861 390.721 290.399 390.721V411.841C296.878 411.841 301.236 407.686 303.419 403.652C305.511 399.788 306.239 395.211 306.239 390.721H285.119ZM290.399 390.721C291.937 390.721 293.345 391.223 294.409 391.971C295.396 392.663 295.832 393.375 295.952 393.598C296.133 393.932 295.679 393.229 295.679 390.721H274.559C274.559 395.211 275.287 399.788 277.379 403.652C279.563 407.686 283.921 411.841 290.399 411.841V390.721ZM295.679 390.721C295.679 388.213 296.133 387.509 295.952 387.843C295.832 388.066 295.396 388.778 294.409 389.471C293.345 390.218 291.937 390.721 290.399 390.721V369.601C283.921 369.601 279.563 373.755 277.379 377.789C275.287 381.654 274.559 386.23 274.559 390.721H295.679ZM290.399 390.721C288.861 390.721 287.454 390.218 286.389 389.471C285.402 388.778 284.967 388.066 284.846 387.843C284.665 387.509 285.119 388.213 285.119 390.721H306.239C306.239 386.23 305.511 381.654 303.419 377.789C301.236 373.755 296.878 369.601 290.399 369.601V390.721Z" fill="black" mask="url(#path-18-inside-1_939_6149)"/>
<mask id="path-20-inside-2_939_6149" fill="white">
<path d="M263.999 390.721C263.999 397.719 261.635 401.281 258.719 401.281C255.803 401.281 253.439 397.719 253.439 390.721C253.439 383.722 255.803 380.161 258.719 380.161C261.635 380.161 263.999 383.722 263.999 390.721Z"/>
</mask>
<path d="M263.999 390.721C263.999 397.719 261.635 401.281 258.719 401.281C255.803 401.281 253.439 397.719 253.439 390.721C253.439 383.722 255.803 380.161 258.719 380.161C261.635 380.161 263.999 383.722 263.999 390.721Z" fill="black"/>
<path d="M253.439 390.721C253.439 393.229 252.985 393.932 253.166 393.598C253.287 393.375 253.722 392.663 254.709 391.971C255.774 391.223 257.182 390.721 258.719 390.721V411.841C265.198 411.841 269.556 407.686 271.74 403.652C273.832 399.788 274.559 395.211 274.559 390.721H253.439ZM258.719 390.721C260.257 390.721 261.665 391.223 262.73 391.971C263.717 392.663 264.152 393.375 264.273 393.598C264.454 393.932 263.999 393.229 263.999 390.721H242.879C242.879 395.211 243.607 399.788 245.699 403.652C247.883 407.686 252.241 411.841 258.719 411.841V390.721ZM263.999 390.721C263.999 388.213 264.454 387.509 264.273 387.843C264.152 388.066 263.717 388.778 262.73 389.471C261.665 390.218 260.257 390.721 258.719 390.721V369.601C252.241 369.601 247.883 373.755 245.699 377.789C243.607 381.654 242.879 386.23 242.879 390.721H263.999ZM258.719 390.721C257.182 390.721 255.774 390.218 254.709 389.471C253.722 388.778 253.287 388.066 253.166 387.843C252.985 387.509 253.439 388.213 253.439 390.721H274.559C274.559 386.23 273.832 381.654 271.74 377.789C269.556 373.755 265.198 369.601 258.719 369.601V390.721Z" fill="black" mask="url(#path-20-inside-2_939_6149)"/>
<path d="M258.719 422.4C258.719 422.4 268.936 427.68 274.559 427.68C280.183 427.68 290.399 422.4 290.399 422.4" stroke="black" stroke-width="10.56" stroke-linecap="round"/>
<path d="M200.64 348.48V607.254" stroke="#80542B" stroke-opacity="0.4" stroke-width="10.56" stroke-linecap="round"/>
<path d="M316.799 348.48V607.254" stroke="#80542B" stroke-opacity="0.4" stroke-width="10.56" stroke-linecap="round"/>
<path d="M242.88 411.841V601.921" stroke="#80542B" stroke-opacity="0.4" stroke-width="10.56" stroke-linecap="round"/>
<path d="M337.918 411.84V601.921" stroke="#80542B" stroke-opacity="0.4" stroke-width="10.56" stroke-linecap="round"/>
<path d="M285.118 485.761V601.921" stroke="#80542B" stroke-opacity="0.4" stroke-width="10.56" stroke-linecap="round"/>
<path d="M221.758 359.041V464.641" stroke="#80542B" stroke-opacity="0.4" stroke-width="10.56" stroke-linecap="round"/>
</svg>
