<svg width="1024" height="888" viewBox="0 0 1024 888" fill="none" xmlns="http://www.w3.org/2000/svg">
<g filter="url(#filter0_d_1001_7329)">
<path d="M420.138 461.681C419.286 459.69 418.037 457.892 416.468 456.398L395.752 436.675C394.611 435.588 393.305 434.696 391.939 433.911C387.873 431.575 384.219 428.577 381.128 425.037L340.707 378.71C337.01 374.472 332.504 371.016 327.458 368.538L266.626 338.689C255.877 333.416 243.395 332.942 232.274 337.384C226.77 339.583 220.864 340.605 214.94 340.375L211.604 340.247C199.897 339.796 188.526 344.217 180.198 352.459L153.381 379.001C148.814 383.522 145.336 389.021 143.21 395.083L127.089 441.072C124.733 447.797 124.112 455.008 125.282 462.036L135.765 524.903L301.058 568.87L409.186 509.165C423.548 501.234 429.568 483.714 423.113 468.632L420.138 461.681Z" fill="#9F9E9E"/>
<path d="M144.275 451.542C143.105 444.515 143.726 437.303 146.082 430.578L162.203 384.59C164.33 378.527 167.805 373.03 172.372 368.509L199.192 341.965C199.356 341.802 199.529 341.65 199.695 341.493C192.398 343.32 185.641 347.063 180.193 352.456L153.375 378.998C148.809 383.519 145.331 389.018 143.204 395.08L127.083 441.069C124.727 447.794 124.106 455.005 125.276 462.033L135.76 524.9L301.054 568.87L320.053 558.379L154.758 514.41L144.275 451.542Z" fill="#919191"/>
<path d="M301.051 568.856L334.861 550.187C334.861 550.187 310.777 491.696 326.705 443.226C327.434 440.999 325.097 438.997 323.001 440.047C313.526 444.791 295.321 456.266 290.547 476.136C289.934 478.686 286.414 478.916 285.489 476.463C281.538 465.988 276.78 446.584 282.623 422.483C283.192 420.148 280.598 418.322 278.596 419.65C269.014 426 251.101 441.719 254.455 468.942C254.744 471.283 252 472.798 250.171 471.308C228.92 453.967 206.072 460.755 195.596 465.48C193.406 466.467 193.57 469.635 195.847 470.399C209.845 475.1 220.43 482.093 228.134 488.865L301.051 568.856Z" fill="#A0D539"/>
<path d="M264.383 499.406L234.545 490.364C231.027 489.298 227.41 488.604 223.747 488.286L196.684 485.949C186.794 485.096 176.863 487.039 168.025 491.559L123.757 514.201C111.205 520.621 101.733 531.783 97.4409 545.211L93.6255 557.141C91.4203 564.042 90.6547 571.321 91.373 578.529L94.0053 604.866C95.2029 616.829 100.436 628.031 108.843 636.624L124.723 652.852C129.745 657.984 137.574 659.134 143.86 655.663L301.058 568.862L301.896 552.845C302.333 544.528 300.803 536.23 297.428 528.619C291.187 514.536 279.123 503.873 264.383 499.406Z" fill="#C4C4C4"/>
<path d="M113.004 594.375L110.372 568.038C109.65 560.829 110.419 553.552 112.624 546.65L116.437 534.721C119.865 524.002 126.597 514.738 135.554 508.169L123.757 514.201C111.205 520.621 101.733 531.783 97.4409 545.211L93.6255 557.141C91.4203 564.042 90.6547 571.321 91.373 578.529L94.0053 604.866C95.2029 616.829 100.436 628.031 108.843 636.624L118.043 646.025C127.012 655.191 140.995 657.245 152.221 651.046V651.046L127.842 626.133C119.434 617.54 114.199 606.34 113.004 594.375Z" fill="#AAAAAA"/>
<path d="M186.295 569.632C188.814 568.241 191.94 566.284 192.223 564.986C192.505 563.688 191.681 562.406 190.381 562.124L184.068 565.703L177.806 569.071C177.354 570.32 177.998 571.698 179.247 572.15C180.496 572.603 183.777 571.022 186.295 569.632Z" fill="#595959"/>
<path d="M245.552 448.681C248.07 447.291 251.197 445.333 251.479 444.035C251.762 442.737 250.937 441.455 249.638 441.174L243.325 444.753L237.063 448.12C236.611 449.369 237.255 450.747 238.504 451.2C239.753 451.653 243.034 450.072 245.552 448.681Z" fill="#595959"/>
<path d="M156.634 564.67C158.759 568.418 157.366 573.226 153.52 575.406C149.675 577.586 144.835 576.312 142.709 572.564C140.584 568.815 141.977 564.008 145.822 561.828C149.669 559.647 154.508 560.921 156.634 564.67Z" fill="#595959"/>
<path d="M207.201 536.007C209.326 539.756 207.934 544.563 204.09 546.742C200.244 548.922 195.404 547.649 193.279 543.9C191.153 540.151 192.546 535.344 196.392 533.164C200.237 530.984 205.076 532.258 207.201 536.007Z" fill="#595959"/>
<path d="M216.81 445.34C218.935 449.089 217.543 453.896 213.696 456.076C209.852 458.256 205.011 456.982 202.886 453.234C200.761 449.485 202.153 444.678 205.999 442.498C209.845 440.317 214.685 441.591 216.81 445.34Z" fill="#595959"/>
<path d="M267.381 416.676C269.506 420.425 268.114 425.232 264.269 427.411C260.424 429.591 255.583 428.318 253.458 424.569C251.333 420.82 252.726 416.013 256.571 413.833C260.416 411.653 265.255 412.927 267.381 416.676Z" fill="#595959"/>
<path fill-rule="evenodd" clip-rule="evenodd" d="M666.932 238.759C671.013 239.707 675.266 240.208 679.635 240.208C710.509 240.208 735.537 215.18 735.537 184.306C735.537 167.078 727.743 151.669 715.489 141.415C718.118 134.932 719.566 127.845 719.566 120.419C719.566 89.5449 694.538 64.5167 663.664 64.5167C660.786 64.5167 657.958 64.7342 655.197 65.1537C651.599 37.7527 628.157 16.6001 599.774 16.6001C592.348 16.6001 585.26 18.0482 578.777 20.6773C568.522 8.4226 553.114 0.628418 535.885 0.628418C520.242 0.628418 506.101 7.05304 495.954 17.4075C485.808 7.05359 471.667 0.629341 456.025 0.629341C433.16 0.629341 413.5 14.3575 404.84 34.0213C400.76 33.0733 396.508 32.5721 392.139 32.5721C363.311 32.5721 339.579 54.3938 336.561 82.4203C308.842 89.3994 288.322 114.492 288.322 144.378C288.322 168.896 302.132 190.188 322.398 200.899C321.008 205.777 320.264 210.928 320.264 216.252C320.264 247.126 345.292 272.154 376.165 272.154C388.249 272.154 399.438 268.32 408.581 261.802C417.119 275.468 431.398 285.179 448.042 287.559V352.014H575.818V282.745C583.147 279.263 589.598 274.233 594.749 268.077C601.232 270.706 608.32 272.154 615.745 272.154C638.612 272.154 658.272 258.424 666.932 238.759Z" fill="#CBCBCB"/>
<path d="M397.589 335.313C423.952 302.311 473.682 301.002 501.744 332.572V332.572C507.164 338.67 516.717 338.642 522.138 332.544V332.544C550.297 300.865 600.196 301.585 627.235 334.225L889.519 650.837C950.503 724.454 911.772 835.32 817.361 850.319C723.735 865.193 614.443 878.79 526.406 879.087C433.236 879.402 316.803 864.981 218.759 849.431C125.254 834.602 85.9391 725.451 145.028 651.481L397.589 335.313Z" fill="#6A6A6A"/>
<g filter="url(#filter1_f_1001_7329)">
<ellipse cx="599.513" cy="586.437" rx="29.3678" ry="10.814" fill="#FF9C9C"/>
</g>
<g filter="url(#filter2_f_1001_7329)">
<ellipse cx="413.52" cy="586.437" rx="29.3678" ry="10.814" fill="#FF9C9C"/>
</g>
<path d="M543.87 599.105C543.87 599.105 531.041 591.594 511.926 591.594C492.811 591.594 479.982 599.105 479.982 599.105" stroke="black" stroke-width="15.972" stroke-linecap="round"/>
<path d="M477.408 538.77C477.408 556.687 470.834 565.804 462.724 565.804C454.614 565.804 448.04 556.687 448.04 538.77C448.04 520.852 454.614 511.735 462.724 511.735C470.834 511.735 477.408 520.852 477.408 538.77Z" fill="black"/>
<path fill-rule="evenodd" clip-rule="evenodd" d="M475.24 523.311C475.961 525.457 476.521 527.897 476.891 530.632C476.088 532.446 474.428 533.364 472.51 533.364C469.807 533.364 467.615 531.54 467.615 527.957C467.615 524.373 469.807 522.55 472.51 522.55C473.521 522.55 474.46 522.805 475.24 523.311Z" fill="white"/>
<path d="M573.238 538.769C573.238 556.686 566.664 565.804 558.554 565.804C550.444 565.804 543.87 556.686 543.87 538.769C543.87 520.852 550.444 511.734 558.554 511.734C566.664 511.734 573.238 520.852 573.238 538.769Z" fill="black"/>
<path fill-rule="evenodd" clip-rule="evenodd" d="M571.07 523.31C571.792 525.457 572.353 527.9 572.722 530.637C571.919 532.448 570.26 533.364 568.343 533.364C565.64 533.364 563.449 531.541 563.449 527.957C563.449 524.374 565.64 522.55 568.343 522.55C569.353 522.55 570.291 522.805 571.07 523.31Z" fill="white"/>
<path d="M331.152 428.725L328.251 423.89L382.545 344.537C409.277 305.467 463.586 297.37 500.553 326.943L502.016 328.113C507.659 332.628 515.795 332.177 520.905 327.067C550.392 297.58 598.834 299.777 625.531 331.813L695.606 415.904L687.59 426.592C678.646 438.517 661.944 441.378 649.541 433.11L647.041 431.443C637.966 425.393 625.993 432.86 627.435 443.671C630.847 469.264 598.299 482.996 582.348 462.694L568.713 445.342C561.626 436.321 547.316 439.033 544.019 450.021L543.659 451.222C537.132 472.979 508.625 478.049 494.996 459.877C488.467 451.172 474.91 453.057 471.003 463.213L469.962 465.921C459.674 492.668 421.673 492.209 412.034 465.221L405.728 447.566C402.882 439.596 393.304 436.423 386.262 441.117C367.723 453.477 342.616 447.831 331.152 428.725Z" fill="#FF4D4D"/>
</g>
<defs>
<filter id="filter0_d_1001_7329" x="87.1116" y="0.628418" width="835.787" height="886.464" filterUnits="userSpaceOnUse" color-interpolation-filters="sRGB">
<feFlood flood-opacity="0" result="BackgroundImageFix"/>
<feColorMatrix in="SourceAlpha" type="matrix" values="0 0 0 0 0 0 0 0 0 0 0 0 0 0 0 0 0 0 127 0" result="hardAlpha"/>
<feOffset dy="4"/>
<feGaussianBlur stdDeviation="2"/>
<feComposite in2="hardAlpha" operator="out"/>
<feColorMatrix type="matrix" values="0 0 0 0 0 0 0 0 0 0 0 0 0 0 0 0 0 0 0.25 0"/>
<feBlend mode="normal" in2="BackgroundImageFix" result="effect1_dropShadow_1001_7329"/>
<feBlend mode="normal" in="SourceGraphic" in2="effect1_dropShadow_1001_7329" result="shape"/>
</filter>
<filter id="filter1_f_1001_7329" x="522.23" y="527.707" width="154.568" height="117.46" filterUnits="userSpaceOnUse" color-interpolation-filters="sRGB">
<feFlood flood-opacity="0" result="BackgroundImageFix"/>
<feBlend mode="normal" in="SourceGraphic" in2="BackgroundImageFix" result="shape"/>
<feGaussianBlur stdDeviation="23.958" result="effect1_foregroundBlur_1001_7329"/>
</filter>
<filter id="filter2_f_1001_7329" x="336.236" y="527.707" width="154.568" height="117.46" filterUnits="userSpaceOnUse" color-interpolation-filters="sRGB">
<feFlood flood-opacity="0" result="BackgroundImageFix"/>
<feBlend mode="normal" in="SourceGraphic" in2="BackgroundImageFix" result="shape"/>
<feGaussianBlur stdDeviation="23.958" result="effect1_foregroundBlur_1001_7329"/>
</filter>
</defs>
</svg>
