<svg width="918" height="1485" viewBox="0 0 918 1485" fill="none" xmlns="http://www.w3.org/2000/svg">
<path d="M0.5 0.5H917.5V1431C917.5 1460.55 893.547 1484.5 864 1484.5H54C24.4528 1484.5 0.5 1460.55 0.5 1431V0.5Z" fill="white"/>
<path d="M27 94.5H885.6V1282.5H27V94.5Z" fill="white"/>
<path d="M132.386 143.137H141.588C150.53 143.137 155.714 148.386 155.714 156.129C155.714 163.873 150.53 169.089 141.588 169.089H132.386V143.137ZM141.685 166.011C148.262 166.011 152.28 162.447 152.28 156.129C152.28 149.811 148.262 146.182 141.685 146.182H135.788V166.011H141.685ZM168.234 169.543C162.985 169.543 159.064 165.363 159.064 159.823C159.064 154.282 162.985 150.103 168.234 150.103C171.603 150.103 173.871 151.723 174.811 153.31V150.556H178.148V169.089H174.811V166.335C173.871 167.923 171.603 169.543 168.234 169.543ZM168.525 166.594C172.284 166.594 174.876 163.678 174.876 159.823C174.876 155.967 172.284 153.051 168.525 153.051C164.799 153.051 162.337 155.967 162.337 159.823C162.337 163.678 164.799 166.594 168.525 166.594ZM193.107 150.556V153.505H188.992V169.089H185.655V153.505H181.54V150.556H185.655V144.919H188.992V150.556H193.107ZM204.146 169.543C198.897 169.543 194.976 165.363 194.976 159.823C194.976 154.282 198.897 150.103 204.146 150.103C207.515 150.103 209.783 151.723 210.723 153.31V150.556H214.06V169.089H210.723V166.335C209.783 167.923 207.515 169.543 204.146 169.543ZM204.437 166.594C208.196 166.594 210.788 163.678 210.788 159.823C210.788 155.967 208.196 153.051 204.437 153.051C200.711 153.051 198.249 155.967 198.249 159.823C198.249 163.678 200.711 166.594 204.437 166.594Z" fill="black"/>
<circle cx="248.4" cy="159.3" r="16.2" fill="#FF00B8"/>
<path d="M88.1416 171.058L73.7145 156.6L88.1416 142.141L83.7001 137.7L64.8 156.6L83.7001 175.5L88.1416 171.058Z" fill="black"/>
<path d="M96.0444 258.556V261.505H91.9296V277.089H88.5924V261.505H84.4776V258.556H88.5924V252.919H91.9296V258.556H96.0444ZM124.393 258.556H127.698L121.153 277.089H117.784L112.891 262.898L108.031 277.089H104.662L98.1169 258.556H101.584L106.444 272.942L111.271 258.556H114.641L119.501 273.039L124.393 258.556ZM132.843 250.003C134.139 250.003 135.079 250.942 135.079 252.206C135.079 253.47 134.139 254.409 132.843 254.409C131.58 254.409 130.64 253.47 130.64 252.206C130.64 250.942 131.58 250.003 132.843 250.003ZM134.528 277.122H131.191V258.556H134.528V277.122ZM149.485 258.556V261.505H145.371V277.089H142.033V261.505H137.919V258.556H142.033V252.919H145.371V258.556H149.485ZM162.901 258.556V261.505H158.786V277.089H155.449V261.505H151.334V258.556H155.449V252.919H158.786V258.556H162.901ZM174.069 277.543C168.658 277.543 164.77 273.396 164.77 267.823C164.77 262.25 168.658 258.103 174.069 258.103C179.48 258.103 183.336 262.25 183.336 267.823C183.336 268.244 183.336 268.73 183.271 269.184H168.108C168.464 272.359 170.764 274.724 174.069 274.724C176.596 274.724 178.573 273.558 179.253 272.035H182.655C181.651 275.242 178.314 277.543 174.069 277.543ZM180.063 266.462C179.674 263.222 177.406 260.922 174.069 260.922C170.732 260.922 168.464 263.254 168.108 266.462H180.063ZM187.574 258.556H190.912V261.408C191.722 260.014 193.957 258.103 197.586 258.103C198.72 258.103 199.465 258.2 200.113 258.427V261.602C199.4 261.278 198.493 261.084 197.359 261.084C193.568 261.084 190.912 264.129 190.912 267.499V277.089H187.574V258.556ZM213.956 263.19V266.106H202.616V263.19H213.956ZM226.59 277.543C221.341 277.543 217.42 273.363 217.42 267.823C217.42 262.282 221.341 258.103 226.59 258.103C229.959 258.103 232.227 259.723 233.167 261.31V258.556H236.504V277.089H233.167V274.335C232.227 275.923 229.959 277.543 226.59 277.543ZM226.881 274.594C230.64 274.594 233.232 271.678 233.232 267.823C233.232 263.967 230.64 261.051 226.881 261.051C223.155 261.051 220.693 263.967 220.693 267.823C220.693 271.678 223.155 274.594 226.881 274.594ZM245.08 277.089H241.743V250.327H245.08V277.089ZM259.39 285.416C254.076 285.416 251.257 282.338 250.609 278.839H254.011C254.4 280.815 256.052 282.532 259.39 282.532C262.759 282.532 265.092 280.264 265.092 276.636V274.076C264.152 275.664 261.884 277.284 258.515 277.284C253.266 277.284 249.346 273.169 249.346 267.726C249.346 262.25 253.266 258.103 258.515 258.103C261.884 258.103 264.152 259.723 265.092 261.31V258.556H268.429V276.668C268.429 281.787 264.703 285.416 259.39 285.416ZM258.806 274.4C262.565 274.4 265.157 271.516 265.157 267.726C265.157 263.935 262.565 261.051 258.806 261.051C255.08 261.051 252.618 263.935 252.618 267.726C252.618 271.516 255.08 274.4 258.806 274.4ZM282.19 258.103C287.665 258.103 291.65 262.25 291.65 267.823C291.65 273.396 287.665 277.543 282.19 277.543C276.682 277.543 272.696 273.396 272.696 267.823C272.696 262.25 276.682 258.103 282.19 258.103ZM282.19 261.051C278.496 261.051 275.969 263.967 275.969 267.823C275.969 271.678 278.496 274.594 282.19 274.594C285.851 274.594 288.378 271.678 288.378 267.823C288.378 263.967 285.851 261.051 282.19 261.051ZM295.912 258.556H299.249V261.408C300.059 260.014 302.295 258.103 305.923 258.103C307.057 258.103 307.803 258.2 308.451 258.427V261.602C307.738 261.278 306.831 261.084 305.697 261.084C301.906 261.084 299.249 264.129 299.249 267.499V277.089H295.912V258.556ZM313.416 250.003C314.712 250.003 315.652 250.942 315.652 252.206C315.652 253.47 314.712 254.409 313.416 254.409C312.153 254.409 311.213 253.47 311.213 252.206C311.213 250.942 312.153 250.003 313.416 250.003ZM315.101 277.122H311.764V258.556H315.101V277.122ZM330.058 258.556V261.505H325.944V277.089H322.606V261.505H318.492V258.556H322.606V252.919H325.944V258.556H330.058ZM333.501 250.327H336.838V261.375C337.616 260.014 339.722 258.103 343.124 258.103C347.498 258.103 350.576 261.246 350.576 266.235V277.089H347.238V266.818C347.238 263.06 345.424 261.019 342.411 261.019C339.171 261.019 336.838 264.064 336.838 267.499V277.089H333.501V250.327ZM355.396 258.556H358.733V261.181C359.576 259.82 361.228 258.103 364.339 258.103C367.093 258.103 369.199 259.626 370.106 261.991C371.207 259.658 373.54 258.103 376.683 258.103C380.636 258.103 383.487 261.116 383.487 265.814V277.089H380.15V266.365C380.15 263.028 378.53 261.019 375.905 261.019C373.119 261.019 371.11 263.74 371.11 267.11V277.089H367.773V266.494C367.773 263.028 366.121 261.019 363.529 261.019C360.775 261.019 358.733 263.74 358.733 267.078V277.089H355.396V258.556Z" fill="black"/>
<rect x="83.7" y="302.4" width="135" height="32.4" rx="13.5" fill="#FF0505"/>
<path d="M116.73 310.775H122.098C126.029 310.775 128.335 312.873 128.335 316.029C128.335 319.186 126.029 321.284 122.098 321.284H118.715V325.914H116.73V310.775ZM121.947 319.488C124.687 319.488 126.351 318.279 126.351 316.029C126.351 313.78 124.687 312.571 121.947 312.571H118.715V319.488H121.947ZM130.442 315.103H132.388V316.767C132.861 315.954 134.165 314.839 136.282 314.839C136.943 314.839 137.378 314.895 137.756 315.028V316.88C137.34 316.691 136.811 316.578 136.15 316.578C133.938 316.578 132.388 318.354 132.388 320.32V325.914H130.442V315.103ZM140.653 310.114C141.409 310.114 141.957 310.662 141.957 311.399C141.957 312.136 141.409 312.684 140.653 312.684C139.916 312.684 139.367 312.136 139.367 311.399C139.367 310.662 139.916 310.114 140.653 310.114ZM141.635 325.933H139.689V315.103H141.635V325.933ZM152.799 315.103H154.802L150.228 325.914H148.168L143.613 315.103H145.73L149.264 323.703L152.799 315.103ZM160.842 326.179C157.78 326.179 155.493 323.741 155.493 320.509C155.493 317.277 157.78 314.839 160.842 314.839C162.807 314.839 164.13 315.784 164.679 316.71V315.103H166.625V325.914H164.679V324.308C164.13 325.234 162.807 326.179 160.842 326.179ZM161.012 324.459C163.204 324.459 164.716 322.758 164.716 320.509C164.716 318.26 163.204 316.559 161.012 316.559C158.838 316.559 157.402 318.26 157.402 320.509C157.402 322.758 158.838 324.459 161.012 324.459ZM175.351 315.103V316.823H172.951V325.914H171.004V316.823H168.604V315.103H171.004V311.815H172.951V315.103H175.351ZM181.866 326.179C178.71 326.179 176.442 323.76 176.442 320.509C176.442 317.258 178.71 314.839 181.866 314.839C185.022 314.839 187.272 317.258 187.272 320.509C187.272 320.754 187.272 321.038 187.234 321.303H178.389C178.596 323.155 179.938 324.534 181.866 324.534C183.34 324.534 184.493 323.854 184.89 322.966H186.875C186.289 324.837 184.342 326.179 181.866 326.179ZM185.363 319.715C185.136 317.825 183.813 316.483 181.866 316.483C179.919 316.483 178.596 317.844 178.389 319.715H185.363Z" fill="white"/>
<circle cx="259.2" cy="318.6" r="13.5" fill="#64B4FF"/>
<path d="M288.058 309.291H294.192C298.685 309.291 301.32 311.689 301.32 315.296C301.32 318.903 298.685 321.301 294.192 321.301H290.326V326.593H288.058V309.291ZM294.019 319.249C297.151 319.249 299.052 317.866 299.052 315.296C299.052 312.725 297.151 311.343 294.019 311.343H290.326V319.249H294.019ZM312.951 314.237H315.262L307.551 331.841H305.304L307.745 326.333L302.453 314.237H304.894L308.868 323.957L312.951 314.237ZM324.235 314.237V316.203H321.492V326.593H319.267V316.203H316.524V314.237H319.267V310.479H321.492V314.237H324.235ZM326.53 308.751H328.755V316.117C329.273 315.209 330.677 313.935 332.945 313.935C335.861 313.935 337.913 316.03 337.913 319.357V326.593H335.688V319.745C335.688 317.24 334.479 315.879 332.47 315.879C330.31 315.879 328.755 317.909 328.755 320.199V326.593H326.53V308.751ZM346.808 313.935C350.458 313.935 353.115 316.7 353.115 320.415C353.115 324.13 350.458 326.895 346.808 326.895C343.136 326.895 340.479 324.13 340.479 320.415C340.479 316.7 343.136 313.935 346.808 313.935ZM346.808 315.901C344.345 315.901 342.66 317.845 342.66 320.415C342.66 322.985 344.345 324.929 346.808 324.929C349.248 324.929 350.933 322.985 350.933 320.415C350.933 317.845 349.248 315.901 346.808 315.901ZM355.956 314.237H358.181V316.117C358.699 315.209 360.103 313.935 362.371 313.935C365.287 313.935 367.339 316.03 367.339 319.357V326.593H365.114V319.745C365.114 317.24 363.905 315.879 361.896 315.879C359.736 315.879 358.181 317.909 358.181 320.199V326.593H355.956V314.237Z" fill="black"/>
<path d="M549.72 384.891H551.988V394.741C551.988 398.218 553.997 400.53 557.28 400.53C560.563 400.53 562.55 398.218 562.55 394.741V384.891H564.818V394.741C564.818 399.493 561.859 402.603 557.28 402.603C552.679 402.603 549.72 399.493 549.72 394.741V384.891ZM574.79 402.495C572.543 402.495 571.031 401.415 570.405 400.357V407.442H568.18V389.838H570.405V391.674C571.031 390.615 572.543 389.535 574.79 389.535C578.289 389.535 580.902 392.322 580.902 396.015C580.902 399.709 578.289 402.495 574.79 402.495ZM574.595 400.53C577.079 400.53 578.721 398.586 578.721 396.015C578.721 393.445 577.079 391.501 574.595 391.501C572.09 391.501 570.362 393.445 570.362 396.015C570.362 398.586 572.09 400.53 574.595 400.53ZM589.212 402.495C585.713 402.495 583.099 399.709 583.099 396.015C583.099 392.322 585.713 389.535 589.212 389.535C591.458 389.535 592.97 390.615 593.597 391.674V384.351H595.822V402.193H593.597V400.357C592.97 401.415 591.458 402.495 589.212 402.495ZM589.406 400.53C591.912 400.53 593.64 398.586 593.64 396.015C593.64 393.445 591.912 391.501 589.406 391.501C586.922 391.501 585.281 393.445 585.281 396.015C585.281 398.586 586.922 400.53 589.406 400.53ZM604.779 402.495C601.28 402.495 598.666 399.709 598.666 396.015C598.666 392.322 601.28 389.535 604.779 389.535C607.025 389.535 608.537 390.615 609.164 391.674V389.838H611.389V402.193H609.164V400.357C608.537 401.415 607.025 402.495 604.779 402.495ZM604.973 400.53C607.479 400.53 609.207 398.586 609.207 396.015C609.207 393.445 607.479 391.501 604.973 391.501C602.489 391.501 600.848 393.445 600.848 396.015C600.848 398.586 602.489 400.53 604.973 400.53ZM621.361 389.838V391.803H618.618V402.193H616.393V391.803H613.65V389.838H616.393V386.079H618.618V389.838H621.361ZM628.807 402.495C625.2 402.495 622.608 399.73 622.608 396.015C622.608 392.3 625.2 389.535 628.807 389.535C632.414 389.535 634.985 392.3 634.985 396.015C634.985 396.296 634.985 396.62 634.941 396.922H624.833C625.07 399.039 626.604 400.616 628.807 400.616C630.492 400.616 631.809 399.838 632.263 398.823H634.531C633.861 400.962 631.637 402.495 628.807 402.495ZM632.803 395.108C632.544 392.948 631.032 391.414 628.807 391.414C626.582 391.414 625.07 392.97 624.833 395.108H632.803ZM643.275 402.495C639.776 402.495 637.162 399.709 637.162 396.015C637.162 392.322 639.776 389.535 643.275 389.535C645.522 389.535 647.034 390.615 647.66 391.674V384.351H649.885V402.193H647.66V400.357C647.034 401.415 645.522 402.495 643.275 402.495ZM643.47 400.53C645.975 400.53 647.703 398.586 647.703 396.015C647.703 393.445 645.975 391.501 643.47 391.501C640.986 391.501 639.344 393.445 639.344 396.015C639.344 398.586 640.986 400.53 643.47 400.53ZM665.112 389.535C668.763 389.535 671.419 392.3 671.419 396.015C671.419 399.73 668.763 402.495 665.112 402.495C661.44 402.495 658.783 399.73 658.783 396.015C658.783 392.3 661.44 389.535 665.112 389.535ZM665.112 391.501C662.65 391.501 660.965 393.445 660.965 396.015C660.965 398.586 662.65 400.53 665.112 400.53C667.553 400.53 669.238 398.586 669.238 396.015C669.238 393.445 667.553 391.501 665.112 391.501ZM674.26 389.838H676.485V391.717C677.004 390.81 678.408 389.535 680.676 389.535C683.592 389.535 685.644 391.63 685.644 394.957V402.193H683.419V395.346C683.419 392.84 682.209 391.479 680.2 391.479C678.04 391.479 676.485 393.51 676.485 395.799V402.193H674.26V389.838ZM694.956 384.891H701.09C707.052 384.891 710.508 388.39 710.508 393.553C710.508 398.715 707.052 402.193 701.09 402.193H694.956V384.891ZM701.155 400.141C705.54 400.141 708.218 397.765 708.218 393.553C708.218 389.341 705.54 386.922 701.155 386.922H697.224V400.141H701.155ZM718.94 402.495C715.333 402.495 712.741 399.73 712.741 396.015C712.741 392.3 715.333 389.535 718.94 389.535C722.548 389.535 725.118 392.3 725.118 396.015C725.118 396.296 725.118 396.62 725.075 396.922H714.966C715.204 399.039 716.737 400.616 718.94 400.616C720.625 400.616 721.943 399.838 722.396 398.823H724.664C723.995 400.962 721.77 402.495 718.94 402.495ZM722.936 395.108C722.677 392.948 721.165 391.414 718.94 391.414C716.716 391.414 715.204 392.97 714.966 395.108H722.936ZM739.457 398.002C738.787 400.681 736.519 402.495 733.646 402.495C729.974 402.495 727.296 399.73 727.296 396.015C727.296 392.3 729.953 389.535 733.603 389.535C736.519 389.535 738.809 391.414 739.414 393.985H737.146C736.649 392.516 735.353 391.501 733.603 391.501C731.141 391.501 729.478 393.445 729.478 396.015C729.478 398.586 731.141 400.53 733.603 400.53C735.353 400.53 736.692 399.493 737.189 398.002H739.457ZM747.545 402.193V400.724L753.679 394.568C755.883 392.343 756.747 390.939 756.747 389.708C756.747 387.678 755.364 386.49 753.204 386.49C750.871 386.49 749.619 388.261 749.619 390.183H747.351C747.351 387.051 749.619 384.481 753.226 384.481C756.703 384.481 758.993 386.576 758.993 389.686C758.993 391.544 757.935 393.121 755.343 395.778L750.807 400.227H759.576V402.193H747.545ZM769.258 395.821C768.848 396.015 768.157 396.231 767.401 396.231C764.031 396.231 761.31 393.92 761.31 390.399C761.31 386.792 764.096 384.481 767.574 384.481C771.073 384.481 773.859 386.792 773.859 390.399C773.859 392.17 773.233 393.574 772.174 395.151L767.487 402.171H764.895L769.258 395.821ZM767.574 386.446C765.09 386.446 763.534 388.174 763.534 390.378C763.534 392.602 765.09 394.33 767.574 394.33C770.079 394.33 771.634 392.581 771.634 390.378C771.634 388.174 770.079 386.446 767.574 386.446ZM776.682 399.493L775.602 404.374H773.831L774.522 399.493H776.682ZM784.986 402.193V400.724L791.121 394.568C793.324 392.343 794.188 390.939 794.188 389.708C794.188 387.678 792.806 386.49 790.646 386.49C788.313 386.49 787.06 388.261 787.06 390.183H784.792C784.792 387.051 787.06 384.481 790.667 384.481C794.145 384.481 796.434 386.576 796.434 389.686C796.434 391.544 795.376 393.121 792.784 395.778L788.248 400.227H797.018V402.193H784.986ZM805.598 402.582C801.948 402.582 799.205 399.579 799.205 393.531C799.205 387.483 801.948 384.481 805.598 384.481C809.227 384.481 811.97 387.483 811.97 393.531C811.97 399.579 809.227 402.582 805.598 402.582ZM805.598 400.573C807.931 400.573 809.789 398.24 809.789 393.531C809.789 388.844 807.931 386.49 805.598 386.49C803.244 386.49 801.386 388.844 801.386 393.531C801.386 398.24 803.244 400.573 805.598 400.573ZM814.138 402.193V400.724L820.272 394.568C822.476 392.343 823.34 390.939 823.34 389.708C823.34 387.678 821.957 386.49 819.797 386.49C817.464 386.49 816.212 388.261 816.212 390.183H813.944C813.944 387.051 816.212 384.481 819.819 384.481C823.296 384.481 825.586 386.576 825.586 389.686C825.586 391.544 824.528 393.121 821.936 395.778L817.4 400.227H826.169V402.193H814.138ZM831.812 402.193V386.878H828.227V384.891H834.08V402.193H831.812Z" fill="black"/>
<path d="M91.9296 349.381C95.7312 349.381 98.5392 351.541 98.7552 354.565H96.4224C96.1848 352.729 94.5216 351.325 91.8216 351.325C89.1 351.325 87.5664 352.448 87.5664 354.003C87.5664 355.796 89.1648 356.573 92.8584 357.351C97.1136 358.258 98.82 359.9 98.82 362.47C98.82 365.581 95.7744 367.481 91.9296 367.481C87.8904 367.481 84.9744 365.278 84.7368 361.93H87.0696C87.3072 364.025 89.1864 365.516 92.0808 365.516C94.6728 365.516 96.5088 364.328 96.5088 362.6C96.5088 360.677 94.932 359.9 91.1736 359.101C87.264 358.28 85.2768 356.876 85.2768 354.003C85.2768 351.13 88.1064 349.381 91.9296 349.381ZM107.267 354.435C110.917 354.435 113.574 357.2 113.574 360.915C113.574 364.63 110.917 367.395 107.267 367.395C103.595 367.395 100.938 364.63 100.938 360.915C100.938 357.2 103.595 354.435 107.267 354.435ZM107.267 356.401C104.805 356.401 103.12 358.345 103.12 360.915C103.12 363.485 104.805 365.429 107.267 365.429C109.708 365.429 111.393 363.485 111.393 360.915C111.393 358.345 109.708 356.401 107.267 356.401ZM127.518 367.093H125.293V365.213C124.774 366.121 123.37 367.395 121.102 367.395C118.186 367.395 116.134 365.3 116.134 361.973V354.737H118.359V361.585C118.359 364.09 119.569 365.451 121.578 365.451C123.738 365.451 125.293 363.421 125.293 361.131V354.737H127.518V367.093ZM131.012 354.737H133.237V356.638C133.777 355.709 135.267 354.435 137.686 354.435C138.442 354.435 138.939 354.5 139.371 354.651V356.768C138.896 356.552 138.291 356.422 137.535 356.422C135.008 356.422 133.237 358.453 133.237 360.699V367.093H131.012V354.737ZM152.439 362.902C151.769 365.581 149.501 367.395 146.629 367.395C142.957 367.395 140.278 364.63 140.278 360.915C140.278 357.2 142.935 354.435 146.585 354.435C149.501 354.435 151.791 356.314 152.396 358.885H150.128C149.631 357.416 148.335 356.401 146.585 356.401C144.123 356.401 142.46 358.345 142.46 360.915C142.46 363.485 144.123 365.429 146.585 365.429C148.335 365.429 149.674 364.393 150.171 362.902H152.439ZM160.716 367.395C157.108 367.395 154.516 364.63 154.516 360.915C154.516 357.2 157.108 354.435 160.716 354.435C164.323 354.435 166.893 357.2 166.893 360.915C166.893 361.196 166.893 361.52 166.85 361.822H156.741C156.979 363.939 158.512 365.516 160.716 365.516C162.4 365.516 163.718 364.738 164.172 363.723H166.44C165.77 365.861 163.545 367.395 160.716 367.395ZM164.712 360.008C164.452 357.848 162.94 356.314 160.716 356.314C158.491 356.314 156.979 357.869 156.741 360.008H164.712ZM187.286 362.902C186.616 365.581 184.348 367.395 181.475 367.395C177.803 367.395 175.125 364.63 175.125 360.915C175.125 357.2 177.782 354.435 181.432 354.435C184.348 354.435 186.638 356.314 187.243 358.885H184.975C184.478 357.416 183.182 356.401 181.432 356.401C178.97 356.401 177.307 358.345 177.307 360.915C177.307 363.485 178.97 365.429 181.432 365.429C183.182 365.429 184.521 364.393 185.018 362.902H187.286ZM195.692 354.435C199.342 354.435 201.999 357.2 201.999 360.915C201.999 364.63 199.342 367.395 195.692 367.395C192.02 367.395 189.363 364.63 189.363 360.915C189.363 357.2 192.02 354.435 195.692 354.435ZM195.692 356.401C193.23 356.401 191.545 358.345 191.545 360.915C191.545 363.485 193.23 365.429 195.692 365.429C198.133 365.429 199.818 363.485 199.818 360.915C199.818 358.345 198.133 356.401 195.692 356.401ZM210.305 367.395C206.806 367.395 204.192 364.609 204.192 360.915C204.192 357.221 206.806 354.435 210.305 354.435C212.551 354.435 214.063 355.515 214.69 356.573V349.251H216.915V367.093H214.69V365.257C214.063 366.315 212.551 367.395 210.305 367.395ZM210.499 365.429C213.005 365.429 214.733 363.485 214.733 360.915C214.733 358.345 213.005 356.401 210.499 356.401C208.015 356.401 206.374 358.345 206.374 360.915C206.374 363.485 208.015 365.429 210.499 365.429ZM225.959 367.395C222.351 367.395 219.759 364.63 219.759 360.915C219.759 357.2 222.351 354.435 225.959 354.435C229.566 354.435 232.136 357.2 232.136 360.915C232.136 361.196 232.136 361.52 232.093 361.822H221.984C222.222 363.939 223.755 365.516 225.959 365.516C227.643 365.516 228.961 364.738 229.415 363.723H231.683C231.013 365.861 228.788 367.395 225.959 367.395ZM229.955 360.008C229.695 357.848 228.183 356.314 225.959 356.314C223.734 356.314 222.222 357.869 221.984 360.008H229.955ZM247.237 354.737V356.703H244.494V367.093H242.269V356.703H239.828V354.737H242.269V352.642C242.269 350.59 243.457 349.165 245.574 349.165C246.114 349.165 246.632 349.208 247.021 349.294V351.173C246.718 351.109 246.286 351.109 245.962 351.109C245.055 351.109 244.494 351.692 244.494 352.707V354.737H247.237ZM254.67 354.435C258.321 354.435 260.977 357.2 260.977 360.915C260.977 364.63 258.321 367.395 254.67 367.395C250.998 367.395 248.341 364.63 248.341 360.915C248.341 357.2 250.998 354.435 254.67 354.435ZM254.67 356.401C252.208 356.401 250.523 358.345 250.523 360.915C250.523 363.485 252.208 365.429 254.67 365.429C257.111 365.429 258.796 363.485 258.796 360.915C258.796 358.345 257.111 356.401 254.67 356.401ZM263.818 354.737H266.043V356.638C266.583 355.709 268.073 354.435 270.493 354.435C271.249 354.435 271.745 354.5 272.177 354.651V356.768C271.702 356.552 271.097 356.422 270.341 356.422C267.814 356.422 266.043 358.453 266.043 360.699V367.093H263.818V354.737ZM294.199 351.821H288V367.093H285.732V351.821H279.511V349.791H294.199V351.821ZM311.283 354.737H313.486L309.123 367.093H306.876L303.615 357.632L300.375 367.093H298.128L293.765 354.737H296.076L299.316 364.328L302.535 354.737H304.781L308.021 364.393L311.283 354.737ZM316.916 349.035C317.78 349.035 318.406 349.661 318.406 350.504C318.406 351.346 317.78 351.973 316.916 351.973C316.074 351.973 315.447 351.346 315.447 350.504C315.447 349.661 316.074 349.035 316.916 349.035ZM318.039 367.114H315.814V354.737H318.039V367.114ZM328.011 354.737V356.703H325.268V367.093H323.043V356.703H320.3V354.737H323.043V350.979H325.268V354.737H328.011ZM336.955 354.737V356.703H334.211V367.093H331.987V356.703H329.243V354.737H331.987V350.979H334.211V354.737H336.955ZM344.4 367.395C340.793 367.395 338.201 364.63 338.201 360.915C338.201 357.2 340.793 354.435 344.4 354.435C348.007 354.435 350.578 357.2 350.578 360.915C350.578 361.196 350.578 361.52 350.534 361.822H340.426C340.663 363.939 342.197 365.516 344.4 365.516C346.085 365.516 347.402 364.738 347.856 363.723H350.124C349.454 365.861 347.23 367.395 344.4 367.395ZM348.396 360.008C348.137 357.848 346.625 356.314 344.4 356.314C342.175 356.314 340.663 357.869 340.426 360.008H348.396ZM353.403 354.737H355.628V356.638C356.168 355.709 357.659 354.435 360.078 354.435C360.834 354.435 361.331 354.5 361.763 354.651V356.768C361.287 356.552 360.683 356.422 359.927 356.422C357.399 356.422 355.628 358.453 355.628 360.699V367.093H353.403V354.737ZM365.311 353.917H363.647L363.431 349.1H365.527L365.311 353.917ZM372.924 354.435C375.948 354.435 378.216 355.925 378.324 358.021H376.142C376.056 356.984 374.652 356.249 372.859 356.249C371.066 356.249 369.77 356.962 369.77 357.891C369.77 358.906 370.548 359.533 373.572 359.943C377.287 360.44 378.604 361.649 378.604 363.572C378.604 365.969 376.077 367.395 373.01 367.395C369.705 367.395 367.588 365.797 367.437 363.637H369.619C369.748 364.609 370.872 365.581 373.075 365.581C374.976 365.581 376.423 364.803 376.423 363.701C376.423 362.686 375.472 362.103 372.513 361.714C369.144 361.261 367.588 360.181 367.588 358.021C367.588 355.839 369.9 354.435 372.924 354.435ZM99.6192 389.093H96.9408L93.0096 382.937C92.6856 382.958 92.3616 382.98 92.0376 382.98H87.8256V389.093H85.5576V371.791H92.0376C96.4008 371.791 98.9712 373.973 98.9712 377.385C98.9712 379.826 97.6536 381.641 95.2776 382.483L99.6192 389.093ZM91.8648 380.949C94.8672 380.949 96.7032 379.718 96.7032 377.385C96.7032 375.053 94.8672 373.821 91.8648 373.821H87.8256V380.949H91.8648ZM107.137 389.395C103.53 389.395 100.938 386.63 100.938 382.915C100.938 379.2 103.53 376.435 107.137 376.435C110.745 376.435 113.315 379.2 113.315 382.915C113.315 383.196 113.315 383.52 113.272 383.822H103.163C103.401 385.939 104.934 387.516 107.137 387.516C108.822 387.516 110.14 386.738 110.593 385.723H112.861C112.192 387.861 109.967 389.395 107.137 389.395ZM111.133 382.008C110.874 379.848 109.362 378.314 107.137 378.314C104.913 378.314 103.401 379.869 103.163 382.008H111.133ZM127.654 384.902C126.984 387.581 124.716 389.395 121.843 389.395C118.171 389.395 115.493 386.63 115.493 382.915C115.493 379.2 118.15 376.435 121.8 376.435C124.716 376.435 127.006 378.314 127.611 380.885H125.343C124.846 379.416 123.55 378.401 121.8 378.401C119.338 378.401 117.675 380.345 117.675 382.915C117.675 385.485 119.338 387.429 121.8 387.429C123.55 387.429 124.889 386.393 125.386 384.902H127.654ZM136.06 376.435C139.71 376.435 142.367 379.2 142.367 382.915C142.367 386.63 139.71 389.395 136.06 389.395C132.388 389.395 129.731 386.63 129.731 382.915C129.731 379.2 132.388 376.435 136.06 376.435ZM136.06 378.401C133.598 378.401 131.913 380.345 131.913 382.915C131.913 385.485 133.598 387.429 136.06 387.429C138.501 387.429 140.186 385.485 140.186 382.915C140.186 380.345 138.501 378.401 136.06 378.401ZM145.208 376.737H147.433V378.487C147.995 377.58 149.096 376.435 151.17 376.435C153.006 376.435 154.41 377.45 155.015 379.027C155.749 377.472 157.304 376.435 159.399 376.435C162.035 376.435 163.935 378.444 163.935 381.576V389.093H161.711V381.943C161.711 379.718 160.631 378.379 158.881 378.379C157.023 378.379 155.684 380.193 155.684 382.44V389.093H153.459V382.029C153.459 379.718 152.358 378.379 150.63 378.379C148.794 378.379 147.433 380.193 147.433 382.418V389.093H145.208V376.737ZM167.103 376.737H169.328V378.487C169.89 377.58 170.991 376.435 173.065 376.435C174.901 376.435 176.305 377.45 176.91 379.027C177.644 377.472 179.199 376.435 181.295 376.435C183.93 376.435 185.831 378.444 185.831 381.576V389.093H183.606V381.943C183.606 379.718 182.526 378.379 180.776 378.379C178.919 378.379 177.579 380.193 177.579 382.44V389.093H175.355V382.029C175.355 379.718 174.253 378.379 172.525 378.379C170.689 378.379 169.328 380.193 169.328 382.418V389.093H167.103V376.737ZM194.55 389.395C190.943 389.395 188.351 386.63 188.351 382.915C188.351 379.2 190.943 376.435 194.55 376.435C198.157 376.435 200.728 379.2 200.728 382.915C200.728 383.196 200.728 383.52 200.684 383.822H190.576C190.813 385.939 192.347 387.516 194.55 387.516C196.235 387.516 197.552 386.738 198.006 385.723H200.274C199.604 387.861 197.38 389.395 194.55 389.395ZM198.546 382.008C198.287 379.848 196.775 378.314 194.55 378.314C192.325 378.314 190.813 379.869 190.576 382.008H198.546ZM203.553 376.737H205.778V378.617C206.297 377.709 207.701 376.435 209.969 376.435C212.885 376.435 214.937 378.53 214.937 381.857V389.093H212.712V382.245C212.712 379.74 211.502 378.379 209.493 378.379C207.333 378.379 205.778 380.409 205.778 382.699V389.093H203.553V376.737ZM223.552 389.395C220.053 389.395 217.439 386.609 217.439 382.915C217.439 379.221 220.053 376.435 223.552 376.435C225.798 376.435 227.31 377.515 227.937 378.573V371.251H230.161V389.093H227.937V387.257C227.31 388.315 225.798 389.395 223.552 389.395ZM223.746 387.429C226.252 387.429 227.98 385.485 227.98 382.915C227.98 380.345 226.252 378.401 223.746 378.401C221.262 378.401 219.621 380.345 219.621 382.915C219.621 385.485 221.262 387.429 223.746 387.429ZM239.119 389.395C235.62 389.395 233.006 386.609 233.006 382.915C233.006 379.221 235.62 376.435 239.119 376.435C241.365 376.435 242.877 377.515 243.504 378.573V376.737H245.729V389.093H243.504V387.257C242.877 388.315 241.365 389.395 239.119 389.395ZM239.313 387.429C241.819 387.429 243.547 385.485 243.547 382.915C243.547 380.345 241.819 378.401 239.313 378.401C236.829 378.401 235.188 380.345 235.188 382.915C235.188 385.485 236.829 387.429 239.313 387.429ZM255.701 376.737V378.703H252.958V389.093H250.733V378.703H247.99V376.737H250.733V372.979H252.958V376.737H255.701ZM259.098 371.035C259.962 371.035 260.588 371.661 260.588 372.504C260.588 373.346 259.962 373.973 259.098 373.973C258.256 373.973 257.629 373.346 257.629 372.504C257.629 371.661 258.256 371.035 259.098 371.035ZM260.221 389.114H257.996V376.737H260.221V389.114ZM269.394 376.435C273.044 376.435 275.701 379.2 275.701 382.915C275.701 386.63 273.044 389.395 269.394 389.395C265.722 389.395 263.065 386.63 263.065 382.915C263.065 379.2 265.722 376.435 269.394 376.435ZM269.394 378.401C266.931 378.401 265.246 380.345 265.246 382.915C265.246 385.485 266.931 387.429 269.394 387.429C271.834 387.429 273.519 385.485 273.519 382.915C273.519 380.345 271.834 378.401 269.394 378.401ZM278.542 376.737H280.767V378.617C281.285 377.709 282.689 376.435 284.957 376.435C287.873 376.435 289.925 378.53 289.925 381.857V389.093H287.7V382.245C287.7 379.74 286.491 378.379 284.482 378.379C282.322 378.379 280.767 380.409 280.767 382.699V389.093H278.542V376.737ZM311.981 389.093L310.253 384.816H301.937L300.209 389.093H297.833L304.961 371.791H307.359L314.465 389.093H311.981ZM302.736 382.807H309.454L306.106 374.448L302.736 382.807ZM318.883 389.093H316.658V371.251H318.883V389.093ZM328.423 394.644C324.88 394.644 323.001 392.592 322.569 390.259H324.837C325.096 391.577 326.198 392.721 328.423 392.721C330.669 392.721 332.224 391.209 332.224 388.79V387.084C331.598 388.142 330.086 389.222 327.839 389.222C324.34 389.222 321.727 386.479 321.727 382.85C321.727 379.2 324.34 376.435 327.839 376.435C330.086 376.435 331.598 377.515 332.224 378.573V376.737H334.449V388.812C334.449 392.225 331.965 394.644 328.423 394.644ZM328.034 387.3C330.539 387.3 332.267 385.377 332.267 382.85C332.267 380.323 330.539 378.401 328.034 378.401C325.55 378.401 323.908 380.323 323.908 382.85C323.908 385.377 325.55 387.3 328.034 387.3ZM343.623 376.435C347.273 376.435 349.93 379.2 349.93 382.915C349.93 386.63 347.273 389.395 343.623 389.395C339.951 389.395 337.294 386.63 337.294 382.915C337.294 379.2 339.951 376.435 343.623 376.435ZM343.623 378.401C341.16 378.401 339.475 380.345 339.475 382.915C339.475 385.485 341.16 387.429 343.623 387.429C346.063 387.429 347.748 385.485 347.748 382.915C347.748 380.345 346.063 378.401 343.623 378.401ZM352.771 376.737H354.995V378.638C355.535 377.709 357.026 376.435 359.445 376.435C360.201 376.435 360.698 376.5 361.13 376.651V378.768C360.655 378.552 360.05 378.422 359.294 378.422C356.767 378.422 354.995 380.453 354.995 382.699V389.093H352.771V376.737ZM364.44 371.035C365.304 371.035 365.931 371.661 365.931 372.504C365.931 373.346 365.304 373.973 364.44 373.973C363.598 373.973 362.971 373.346 362.971 372.504C362.971 371.661 363.598 371.035 364.44 371.035ZM365.563 389.114H363.339V376.737H365.563V389.114ZM375.535 376.737V378.703H372.792V389.093H370.567V378.703H367.824V376.737H370.567V372.979H372.792V376.737H375.535ZM377.83 371.251H380.055V378.617C380.573 377.709 381.977 376.435 384.245 376.435C387.161 376.435 389.213 378.53 389.213 381.857V389.093H386.988V382.245C386.988 379.74 385.779 378.379 383.77 378.379C381.61 378.379 380.055 380.409 380.055 382.699V389.093H377.83V371.251ZM392.427 376.737H394.652V378.487C395.213 377.58 396.315 376.435 398.389 376.435C400.225 376.435 401.629 377.45 402.233 379.027C402.968 377.472 404.523 376.435 406.618 376.435C409.253 376.435 411.154 378.444 411.154 381.576V389.093H408.929V381.943C408.929 379.718 407.849 378.379 406.1 378.379C404.242 378.379 402.903 380.193 402.903 382.44V389.093H400.678V382.029C400.678 379.718 399.577 378.379 397.849 378.379C396.013 378.379 394.652 380.193 394.652 382.418V389.093H392.427V376.737Z" fill="#858181"/>
<rect x="657.45" y="249.75" width="167.4" height="43.2" rx="12.15" fill="#FFFFF6"/>
<path d="M679.558 263.391H681.545L688.219 275.142L694.894 263.391H696.881V280.693H694.613V267.927L689.04 277.777H687.398L681.826 267.927V280.693H679.558V263.391ZM706.14 268.035C709.79 268.035 712.447 270.8 712.447 274.515C712.447 278.23 709.79 280.995 706.14 280.995C702.468 280.995 699.811 278.23 699.811 274.515C699.811 270.8 702.468 268.035 706.14 268.035ZM706.14 270.001C703.677 270.001 701.993 271.945 701.993 274.515C701.993 277.086 703.677 279.03 706.14 279.03C708.581 279.03 710.265 277.086 710.265 274.515C710.265 271.945 708.581 270.001 706.14 270.001ZM723.943 268.338H726.232L721.005 280.693H718.651L713.445 268.338H715.864L719.903 278.166L723.943 268.338ZM733.221 280.995C729.614 280.995 727.022 278.23 727.022 274.515C727.022 270.8 729.614 268.035 733.221 268.035C736.828 268.035 739.399 270.8 739.399 274.515C739.399 274.796 739.399 275.12 739.355 275.422H729.247C729.484 277.539 731.018 279.116 733.221 279.116C734.906 279.116 736.223 278.338 736.677 277.323H738.945C738.275 279.462 736.051 280.995 733.221 280.995ZM737.217 273.608C736.958 271.448 735.446 269.914 733.221 269.914C730.996 269.914 729.484 271.47 729.247 273.608H737.217ZM754.758 268.338V270.303H752.015V280.693H749.79V270.303H747.047V268.338H749.79V264.579H752.015V268.338H754.758ZM762.333 268.035C765.984 268.035 768.641 270.8 768.641 274.515C768.641 278.23 765.984 280.995 762.333 280.995C758.661 280.995 756.005 278.23 756.005 274.515C756.005 270.8 758.661 268.035 762.333 268.035ZM762.333 270.001C759.871 270.001 758.186 271.945 758.186 274.515C758.186 277.086 759.871 279.03 762.333 279.03C764.774 279.03 766.459 277.086 766.459 274.515C766.459 271.945 764.774 270.001 762.333 270.001Z" fill="black"/>
<path d="M790.069 261.9C788.062 261.9 786.756 264.012 787.654 265.807L794.085 278.67C795.08 280.66 797.92 280.66 798.915 278.67L805.346 265.807C806.244 264.012 804.938 261.9 802.931 261.9H790.069Z" fill="black"/>
<rect x="657.45" y="249.75" width="167.4" height="43.2" rx="12.15" stroke="black" stroke-width="2.7"/>
<rect x="58.05" y="222.75" width="793.8" height="218.7" rx="25.65" stroke="#AEAEAE" stroke-width="2.7"/>
<path d="M86.3244 533.956H89.6616V536.581C90.504 535.22 92.1564 533.503 95.2668 533.503C98.0208 533.503 100.127 535.026 101.034 537.391C102.136 535.058 104.468 533.503 107.611 533.503C111.564 533.503 114.415 536.516 114.415 541.214V552.489H111.078V541.765C111.078 538.428 109.458 536.419 106.834 536.419C104.047 536.419 102.038 539.14 102.038 542.51V552.489H98.7012V541.894C98.7012 538.428 97.0488 536.419 94.4568 536.419C91.7028 536.419 89.6616 539.14 89.6616 542.478V552.489H86.3244V533.956ZM127.689 533.503C133.164 533.503 137.149 537.65 137.149 543.223C137.149 548.796 133.164 552.943 127.689 552.943C122.181 552.943 118.195 548.796 118.195 543.223C118.195 537.65 122.181 533.503 127.689 533.503ZM127.689 536.451C123.995 536.451 121.468 539.367 121.468 543.223C121.468 547.078 123.995 549.994 127.689 549.994C131.35 549.994 133.877 547.078 133.877 543.223C133.877 539.367 131.35 536.451 127.689 536.451ZM154.393 533.956H157.827L149.986 552.489H146.455L138.646 533.956H142.275L148.334 548.698L154.393 533.956ZM162.87 525.403C164.166 525.403 165.106 526.342 165.106 527.606C165.106 528.87 164.166 529.809 162.87 529.809C161.607 529.809 160.667 528.87 160.667 527.606C160.667 526.342 161.607 525.403 162.87 525.403ZM164.555 552.522H161.218V533.956H164.555V552.522ZM178.119 552.943C172.708 552.943 168.82 548.796 168.82 543.223C168.82 537.65 172.708 533.503 178.119 533.503C183.53 533.503 187.386 537.65 187.386 543.223C187.386 543.644 187.386 544.13 187.321 544.584H172.158C172.514 547.759 174.814 550.124 178.119 550.124C180.646 550.124 182.623 548.958 183.303 547.435H186.705C185.701 550.642 182.364 552.943 178.119 552.943ZM184.113 541.862C183.724 538.622 181.456 536.322 178.119 536.322C174.782 536.322 172.514 538.654 172.158 541.862H184.113ZM202.154 538.59V541.506H190.814V538.59H202.154ZM209.928 552.489H206.59V525.727H209.928V552.489ZM216.817 525.403C218.113 525.403 219.053 526.342 219.053 527.606C219.053 528.87 218.113 529.809 216.817 529.809C215.554 529.809 214.614 528.87 214.614 527.606C214.614 526.342 215.554 525.403 216.817 525.403ZM218.502 552.522H215.165V533.956H218.502V552.522ZM231.03 533.503C235.566 533.503 238.968 535.738 239.13 538.881H235.857C235.728 537.326 233.622 536.224 230.932 536.224C228.243 536.224 226.299 537.294 226.299 538.687C226.299 540.21 227.466 541.149 232.002 541.765C237.574 542.51 239.551 544.324 239.551 547.208C239.551 550.804 235.76 552.943 231.159 552.943C226.202 552.943 223.027 550.545 222.8 547.305H226.072C226.267 548.763 227.952 550.221 231.256 550.221C234.108 550.221 236.278 549.055 236.278 547.402C236.278 545.88 234.853 545.005 230.414 544.422C225.36 543.741 223.027 542.121 223.027 538.881C223.027 535.609 226.494 533.503 231.03 533.503ZM253.298 533.956V536.905H249.183V552.489H245.846V536.905H241.731V533.956H245.846V528.319H249.183V533.956H253.298ZM267.271 538.59V541.506H255.931V538.59H267.271ZM288.976 546.204C287.972 550.221 284.57 552.943 280.26 552.943C274.752 552.943 270.735 548.796 270.735 543.223C270.735 537.65 274.72 533.503 280.196 533.503C284.57 533.503 288.004 536.322 288.911 540.177H285.509C284.764 537.974 282.82 536.451 280.196 536.451C276.502 536.451 274.007 539.367 274.007 543.223C274.007 547.078 276.502 549.994 280.196 549.994C282.82 549.994 284.829 548.439 285.574 546.204H288.976ZM293.064 533.956H296.401V536.808C297.211 535.414 299.447 533.503 303.076 533.503C304.21 533.503 304.955 533.6 305.603 533.827V537.002C304.89 536.678 303.983 536.484 302.849 536.484C299.058 536.484 296.401 539.529 296.401 542.899V552.489H293.064V533.956ZM316.132 552.943C310.884 552.943 306.963 548.763 306.963 543.223C306.963 537.682 310.884 533.503 316.132 533.503C319.502 533.503 321.77 535.123 322.71 536.71V533.956H326.047V552.489H322.71V549.735C321.77 551.323 319.502 552.943 316.132 552.943ZM316.424 549.994C320.182 549.994 322.774 547.078 322.774 543.223C322.774 539.367 320.182 536.451 316.424 536.451C312.698 536.451 310.236 539.367 310.236 543.223C310.236 547.078 312.698 549.994 316.424 549.994ZM355.813 533.956H359.118L352.573 552.489H349.203L344.311 538.298L339.451 552.489H336.081L329.536 533.956H333.003L337.863 548.342L342.691 533.956H346.06L350.92 548.439L355.813 533.956ZM365.947 552.489H362.61V525.727H365.947V552.489ZM372.837 525.403C374.133 525.403 375.073 526.342 375.073 527.606C375.073 528.87 374.133 529.809 372.837 529.809C371.574 529.809 370.634 528.87 370.634 527.606C370.634 526.342 371.574 525.403 372.837 525.403ZM374.522 552.522H371.185V533.956H374.522V552.522ZM379.76 533.956H383.097V536.775C383.874 535.414 385.98 533.503 389.382 533.503C393.756 533.503 396.834 536.646 396.834 541.635V552.489H393.497V542.218C393.497 538.46 391.683 536.419 388.67 536.419C385.43 536.419 383.097 539.464 383.097 542.899V552.489H379.76V533.956ZM410.632 560.816C405.318 560.816 402.499 557.738 401.851 554.239H405.253C405.642 556.215 407.295 557.932 410.632 557.932C414.001 557.932 416.334 555.664 416.334 552.036V549.476C415.395 551.064 413.127 552.684 409.757 552.684C404.508 552.684 400.588 548.569 400.588 543.126C400.588 537.65 404.508 533.503 409.757 533.503C413.127 533.503 415.395 535.123 416.334 536.71V533.956H419.671V552.068C419.671 557.187 415.945 560.816 410.632 560.816ZM410.049 549.8C413.807 549.8 416.399 546.916 416.399 543.126C416.399 539.335 413.807 536.451 410.049 536.451C406.323 536.451 403.86 539.335 403.86 543.126C403.86 546.916 406.323 549.8 410.049 549.8Z" fill="black"/>
<circle cx="259.2" cy="594" r="13.5" fill="#64B4FF"/>
<path d="M288.058 584.691H294.192C298.685 584.691 301.32 587.089 301.32 590.696C301.32 594.303 298.685 596.701 294.192 596.701H290.326V601.993H288.058V584.691ZM294.019 594.649C297.151 594.649 299.052 593.266 299.052 590.696C299.052 588.126 297.151 586.743 294.019 586.743H290.326V594.649H294.019ZM312.951 589.638H315.262L307.551 607.242H305.304L307.745 601.734L302.453 589.638H304.894L308.868 599.358L312.951 589.638ZM324.235 589.638V591.603H321.492V601.993H319.267V591.603H316.524V589.638H319.267V585.879H321.492V589.638H324.235ZM326.53 584.151H328.755V591.517C329.273 590.61 330.677 589.335 332.945 589.335C335.861 589.335 337.913 591.43 337.913 594.757V601.993H335.688V595.146C335.688 592.64 334.479 591.279 332.47 591.279C330.31 591.279 328.755 593.31 328.755 595.599V601.993H326.53V584.151ZM346.808 589.335C350.458 589.335 353.115 592.1 353.115 595.815C353.115 599.53 350.458 602.295 346.808 602.295C343.136 602.295 340.479 599.53 340.479 595.815C340.479 592.1 343.136 589.335 346.808 589.335ZM346.808 591.301C344.345 591.301 342.66 593.245 342.66 595.815C342.66 598.386 344.345 600.33 346.808 600.33C349.248 600.33 350.933 598.386 350.933 595.815C350.933 593.245 349.248 591.301 346.808 591.301ZM355.956 589.638H358.181V591.517C358.699 590.61 360.103 589.335 362.371 589.335C365.287 589.335 367.339 591.43 367.339 594.757V601.993H365.114V595.146C365.114 592.64 363.905 591.279 361.896 591.279C359.736 591.279 358.181 593.31 358.181 595.599V601.993H355.956V589.638Z" fill="black"/>
<path d="M549.72 660.291H551.988V670.141C551.988 673.618 553.997 675.93 557.28 675.93C560.563 675.93 562.55 673.618 562.55 670.141V660.291H564.818V670.141C564.818 674.893 561.859 678.003 557.28 678.003C552.679 678.003 549.72 674.893 549.72 670.141V660.291ZM574.79 677.895C572.543 677.895 571.031 676.815 570.405 675.757V682.842H568.18V665.238H570.405V667.074C571.031 666.015 572.543 664.935 574.79 664.935C578.289 664.935 580.902 667.722 580.902 671.415C580.902 675.109 578.289 677.895 574.79 677.895ZM574.595 675.93C577.079 675.93 578.721 673.986 578.721 671.415C578.721 668.845 577.079 666.901 574.595 666.901C572.09 666.901 570.362 668.845 570.362 671.415C570.362 673.986 572.09 675.93 574.595 675.93ZM589.212 677.895C585.713 677.895 583.099 675.109 583.099 671.415C583.099 667.722 585.713 664.935 589.212 664.935C591.458 664.935 592.97 666.015 593.597 667.074V659.751H595.822V677.593H593.597V675.757C592.97 676.815 591.458 677.895 589.212 677.895ZM589.406 675.93C591.912 675.93 593.64 673.986 593.64 671.415C593.64 668.845 591.912 666.901 589.406 666.901C586.922 666.901 585.281 668.845 585.281 671.415C585.281 673.986 586.922 675.93 589.406 675.93ZM604.779 677.895C601.28 677.895 598.666 675.109 598.666 671.415C598.666 667.722 601.28 664.935 604.779 664.935C607.025 664.935 608.537 666.015 609.164 667.074V665.238H611.389V677.593H609.164V675.757C608.537 676.815 607.025 677.895 604.779 677.895ZM604.973 675.93C607.479 675.93 609.207 673.986 609.207 671.415C609.207 668.845 607.479 666.901 604.973 666.901C602.489 666.901 600.848 668.845 600.848 671.415C600.848 673.986 602.489 675.93 604.973 675.93ZM621.361 665.238V667.203H618.618V677.593H616.393V667.203H613.65V665.238H616.393V661.479H618.618V665.238H621.361ZM628.807 677.895C625.2 677.895 622.608 675.13 622.608 671.415C622.608 667.7 625.2 664.935 628.807 664.935C632.414 664.935 634.985 667.7 634.985 671.415C634.985 671.696 634.985 672.02 634.941 672.322H624.833C625.07 674.439 626.604 676.016 628.807 676.016C630.492 676.016 631.809 675.238 632.263 674.223H634.531C633.861 676.362 631.637 677.895 628.807 677.895ZM632.803 670.508C632.544 668.348 631.032 666.814 628.807 666.814C626.582 666.814 625.07 668.37 624.833 670.508H632.803ZM643.275 677.895C639.776 677.895 637.162 675.109 637.162 671.415C637.162 667.722 639.776 664.935 643.275 664.935C645.522 664.935 647.034 666.015 647.66 667.074V659.751H649.885V677.593H647.66V675.757C647.034 676.815 645.522 677.895 643.275 677.895ZM643.47 675.93C645.975 675.93 647.703 673.986 647.703 671.415C647.703 668.845 645.975 666.901 643.47 666.901C640.986 666.901 639.344 668.845 639.344 671.415C639.344 673.986 640.986 675.93 643.47 675.93ZM665.112 664.935C668.763 664.935 671.419 667.7 671.419 671.415C671.419 675.13 668.763 677.895 665.112 677.895C661.44 677.895 658.783 675.13 658.783 671.415C658.783 667.7 661.44 664.935 665.112 664.935ZM665.112 666.901C662.65 666.901 660.965 668.845 660.965 671.415C660.965 673.986 662.65 675.93 665.112 675.93C667.553 675.93 669.238 673.986 669.238 671.415C669.238 668.845 667.553 666.901 665.112 666.901ZM674.26 665.238H676.485V667.117C677.004 666.21 678.408 664.935 680.676 664.935C683.592 664.935 685.644 667.03 685.644 670.357V677.593H683.419V670.746C683.419 668.24 682.209 666.879 680.2 666.879C678.04 666.879 676.485 668.91 676.485 671.199V677.593H674.26V665.238ZM694.956 660.291H701.09C707.052 660.291 710.508 663.79 710.508 668.953C710.508 674.115 707.052 677.593 701.09 677.593H694.956V660.291ZM701.155 675.541C705.54 675.541 708.218 673.165 708.218 668.953C708.218 664.741 705.54 662.322 701.155 662.322H697.224V675.541H701.155ZM718.94 677.895C715.333 677.895 712.741 675.13 712.741 671.415C712.741 667.7 715.333 664.935 718.94 664.935C722.548 664.935 725.118 667.7 725.118 671.415C725.118 671.696 725.118 672.02 725.075 672.322H714.966C715.204 674.439 716.737 676.016 718.94 676.016C720.625 676.016 721.943 675.238 722.396 674.223H724.664C723.995 676.362 721.77 677.895 718.94 677.895ZM722.936 670.508C722.677 668.348 721.165 666.814 718.94 666.814C716.716 666.814 715.204 668.37 714.966 670.508H722.936ZM739.457 673.402C738.787 676.081 736.519 677.895 733.646 677.895C729.974 677.895 727.296 675.13 727.296 671.415C727.296 667.7 729.953 664.935 733.603 664.935C736.519 664.935 738.809 666.814 739.414 669.385H737.146C736.649 667.916 735.353 666.901 733.603 666.901C731.141 666.901 729.478 668.845 729.478 671.415C729.478 673.986 731.141 675.93 733.603 675.93C735.353 675.93 736.692 674.893 737.189 673.402H739.457ZM747.545 677.593V676.124L753.679 669.968C755.883 667.743 756.747 666.339 756.747 665.108C756.747 663.078 755.364 661.89 753.204 661.89C750.871 661.89 749.619 663.661 749.619 665.583H747.351C747.351 662.451 749.619 659.881 753.226 659.881C756.703 659.881 758.993 661.976 758.993 665.086C758.993 666.944 757.935 668.521 755.343 671.178L750.807 675.627H759.576V677.593H747.545ZM769.258 671.221C768.848 671.415 768.157 671.631 767.401 671.631C764.031 671.631 761.31 669.32 761.31 665.799C761.31 662.192 764.096 659.881 767.574 659.881C771.073 659.881 773.859 662.192 773.859 665.799C773.859 667.57 773.233 668.974 772.174 670.551L767.487 677.571H764.895L769.258 671.221ZM767.574 661.846C765.09 661.846 763.534 663.574 763.534 665.778C763.534 668.002 765.09 669.73 767.574 669.73C770.079 669.73 771.634 667.981 771.634 665.778C771.634 663.574 770.079 661.846 767.574 661.846ZM776.682 674.893L775.602 679.774H773.831L774.522 674.893H776.682ZM784.986 677.593V676.124L791.121 669.968C793.324 667.743 794.188 666.339 794.188 665.108C794.188 663.078 792.806 661.89 790.646 661.89C788.313 661.89 787.06 663.661 787.06 665.583H784.792C784.792 662.451 787.06 659.881 790.667 659.881C794.145 659.881 796.434 661.976 796.434 665.086C796.434 666.944 795.376 668.521 792.784 671.178L788.248 675.627H797.018V677.593H784.986ZM805.598 677.982C801.948 677.982 799.205 674.979 799.205 668.931C799.205 662.883 801.948 659.881 805.598 659.881C809.227 659.881 811.97 662.883 811.97 668.931C811.97 674.979 809.227 677.982 805.598 677.982ZM805.598 675.973C807.931 675.973 809.789 673.64 809.789 668.931C809.789 664.244 807.931 661.89 805.598 661.89C803.244 661.89 801.386 664.244 801.386 668.931C801.386 673.64 803.244 675.973 805.598 675.973ZM814.138 677.593V676.124L820.272 669.968C822.476 667.743 823.34 666.339 823.34 665.108C823.34 663.078 821.957 661.89 819.797 661.89C817.464 661.89 816.212 663.661 816.212 665.583H813.944C813.944 662.451 816.212 659.881 819.819 659.881C823.296 659.881 825.586 661.976 825.586 665.086C825.586 666.944 824.528 668.521 821.936 671.178L817.4 675.627H826.169V677.593H814.138ZM831.812 677.593V662.278H828.227V660.291H834.08V677.593H831.812Z" fill="black"/>
<rect x="657.45" y="579.15" width="167.4" height="226.8" rx="12.15" fill="#FFFFF6"/>
<path d="M804.6 596.7C797.148 596.7 791.1 602.748 791.1 610.2C791.1 617.652 797.148 623.7 804.6 623.7C812.052 623.7 818.1 617.652 818.1 610.2C818.1 602.748 812.052 596.7 804.6 596.7ZM804.6 621C798.633 621 793.8 616.167 793.8 610.2C793.8 604.233 798.633 599.4 804.6 599.4C810.567 599.4 815.4 604.233 815.4 610.2C815.4 616.167 810.567 621 804.6 621Z" fill="black"/>
<path d="M670.002 602.891H682.098V604.922H672.27V610.818L681.148 610.797V612.827H672.27V620.193H670.002V602.891ZM684.515 602.891H696.805V604.9H686.783V610.343H696.049V612.352H686.783V618.184H696.999V620.193H684.515V602.891Z" fill="black"/>
<circle cx="719.55" cy="611.55" r="9.45" fill="#4134D9"/>
<path d="M680.372 685.591H675.723V697.045H674.022V685.591H669.356V684.068H680.372V685.591ZM683.882 697.271C681.177 697.271 679.233 695.198 679.233 692.411C679.233 689.625 681.177 687.551 683.882 687.551C686.588 687.551 688.515 689.625 688.515 692.411C688.515 692.622 688.515 692.865 688.483 693.092H680.901C681.08 694.679 682.23 695.862 683.882 695.862C685.146 695.862 686.134 695.279 686.474 694.517H688.175C687.673 696.121 686.004 697.271 683.882 697.271ZM686.879 691.731C686.685 690.111 685.551 688.961 683.882 688.961C682.214 688.961 681.08 690.127 680.901 691.731H686.879ZM694.733 697.271C692.109 697.271 690.149 695.182 690.149 692.411C690.149 689.641 692.109 687.551 694.733 687.551C696.418 687.551 697.552 688.361 698.022 689.155V687.778H699.691V697.045H698.022V695.668C697.552 696.461 696.418 697.271 694.733 697.271ZM694.879 695.797C696.758 695.797 698.054 694.339 698.054 692.411C698.054 690.484 696.758 689.026 694.879 689.026C693.016 689.026 691.785 690.484 691.785 692.411C691.785 694.339 693.016 695.797 694.879 695.797ZM702.31 687.778H703.979V689.09C704.4 688.41 705.226 687.551 706.781 687.551C708.158 687.551 709.211 688.313 709.665 689.495C710.216 688.329 711.382 687.551 712.954 687.551C714.93 687.551 716.356 689.058 716.356 691.407V697.045H714.687V691.682C714.687 690.014 713.877 689.009 712.565 689.009C711.172 689.009 710.167 690.37 710.167 692.055V697.045H708.499V691.747C708.499 690.014 707.672 689.009 706.376 689.009C704.999 689.009 703.979 690.37 703.979 692.039V697.045H702.31V687.778ZM723.353 684.068H727.954C731.324 684.068 733.3 685.867 733.3 688.572C733.3 691.277 731.324 693.076 727.954 693.076H725.054V697.045H723.353V684.068ZM727.824 691.537C730.173 691.537 731.599 690.5 731.599 688.572C731.599 686.644 730.173 685.607 727.824 685.607H725.054V691.537H727.824ZM735.106 687.778H736.774V689.204C737.179 688.507 738.297 687.551 740.112 687.551C740.679 687.551 741.051 687.6 741.375 687.713V689.301C741.019 689.139 740.565 689.042 739.998 689.042C738.103 689.042 736.774 690.565 736.774 692.249V697.045H735.106V687.778ZM743.018 697.255C742.37 697.255 741.868 696.753 741.868 696.105C741.868 695.457 742.37 694.955 743.018 694.955C743.666 694.955 744.152 695.457 744.152 696.105C744.152 696.753 743.666 697.255 743.018 697.255ZM747.179 697.255C746.531 697.255 746.029 696.753 746.029 696.105C746.029 695.457 746.531 694.955 747.179 694.955C747.827 694.955 748.313 695.457 748.313 696.105C748.313 696.753 747.827 697.255 747.179 697.255ZM751.34 697.255C750.692 697.255 750.19 696.753 750.19 696.105C750.19 695.457 750.692 694.955 751.34 694.955C751.988 694.955 752.474 695.457 752.474 696.105C752.474 696.753 751.988 697.255 751.34 697.255Z" fill="black"/>
<path d="M804.6 677.7C797.148 677.7 791.1 683.748 791.1 691.2C791.1 698.652 797.148 704.7 804.6 704.7C812.052 704.7 818.1 698.652 818.1 691.2C818.1 683.748 812.052 677.7 804.6 677.7ZM804.6 702C798.633 702 793.8 697.167 793.8 691.2C793.8 685.233 798.633 680.4 804.6 680.4C810.567 680.4 815.4 685.233 815.4 691.2C815.4 697.167 810.567 702 804.6 702Z" fill="black"/>
<path d="M804.6 637.2C797.148 637.2 791.1 643.248 791.1 650.7C791.1 658.152 797.148 664.2 804.6 664.2C812.052 664.2 818.1 658.152 818.1 650.7C818.1 643.248 812.052 637.2 804.6 637.2ZM804.6 661.5C798.633 661.5 793.8 656.667 793.8 650.7C793.8 644.733 798.633 639.9 804.6 639.9C810.567 639.9 815.4 644.733 815.4 650.7C815.4 656.667 810.567 661.5 804.6 661.5Z" fill="black"/>
<path d="M668.863 643.391H675.926C679.749 643.391 681.909 645.227 681.909 648.186C681.909 649.806 680.786 651.383 679.231 651.75C681.197 652.139 682.73 653.673 682.73 655.811C682.73 658.792 680.462 660.693 676.574 660.693H668.863V643.391ZM675.861 651.016C678.259 651.016 679.62 650.022 679.62 648.186C679.62 646.35 678.259 645.357 675.861 645.357H671.131V651.016H675.861ZM676.509 658.727C678.929 658.727 680.441 657.712 680.441 655.811C680.441 653.91 678.929 652.895 676.509 652.895H671.131V658.727H676.509ZM685.654 643.391H697.944V645.4H687.922V650.843H697.188V652.852H687.922V658.684H698.138V660.693H685.654V643.391Z" fill="black"/>
<circle cx="719.55" cy="652.05" r="9.45" fill="#FF4C00"/>
<circle cx="770.85" cy="689.85" r="9.45" fill="#00FF19"/>
<path d="M683.049 740.447V722H685.187V740.447H683.049ZM669.03 739.345V722.67H679.485V739.345H669.03ZM671.169 737.336H677.346V724.679H671.169V737.336ZM705.835 722.108V729.971H690.067V722.108H692.184V724.333H703.74V722.108H705.835ZM692.184 728.264H703.74V725.975H692.184V728.264ZM688.749 731.785H707.174V733.599H699.031V736.472H696.871V733.599H688.749V731.785ZM692.205 735.263V738.416H706.224V740.231H690.024V735.263H692.205ZM726.958 730.511V732.347H710.823V726.536H724.582V724.376H710.823V722.54H726.677V728.351H712.939V730.511H726.958ZM727.951 734.507V736.429H723.394V740.879H721.277V736.429H716.179V740.879H714.063V736.429H709.527V734.507H727.951Z" fill="black"/>
<path d="M804.6 724.95C800.874 724.95 797.85 727.974 797.85 731.7C797.85 735.426 800.874 738.45 804.6 738.45C808.326 738.45 811.35 735.426 811.35 731.7C811.35 727.974 808.326 724.95 804.6 724.95ZM804.6 718.2C797.148 718.2 791.1 724.248 791.1 731.7C791.1 739.152 797.148 745.2 804.6 745.2C812.052 745.2 818.1 739.152 818.1 731.7C818.1 724.248 812.052 718.2 804.6 718.2ZM804.6 742.5C798.633 742.5 793.8 737.667 793.8 731.7C793.8 725.733 798.633 720.9 804.6 720.9C810.567 720.9 815.4 725.733 815.4 731.7C815.4 737.667 810.567 742.5 804.6 742.5Z" fill="black"/>
<rect x="664.2" y="761.4" width="153.9" height="37.8" rx="10.8" fill="#4BCA80"/>
<circle cx="712.8" cy="780.3" r="10.8" fill="white"/>
<path d="M710.398 784.038L706.712 780.351L705.456 781.598L710.398 786.54L721.008 775.931L719.761 774.684L710.398 784.038Z" fill="#4BCA80"/>
<path d="M749.708 772.515V773.914H738.916V772.515H743.282V770.871H745.21V772.515H749.708ZM755.737 775.634V777.373H753.507V782.4H751.636V771.325H753.507V775.634H755.737ZM750.294 781.436C749.273 781.871 747.213 782.06 744.926 782.06H738.859V780.623H743.339V779.47C741.014 779.281 739.634 778.412 739.634 777.07C739.634 775.577 741.392 774.632 744.284 774.632C747.175 774.632 748.933 775.577 748.933 777.07C748.933 778.412 747.534 779.3 745.191 779.47V780.623C747.327 780.604 749.292 780.415 750.294 779.981V781.436ZM741.392 777.07C741.392 777.713 742.356 778.185 744.284 778.185C746.193 778.185 747.156 777.713 747.156 777.07C747.156 776.446 746.193 775.993 744.284 775.993C742.356 775.993 741.392 776.446 741.392 777.07ZM739.899 784.725V783.269H753.507V787.465H751.636V784.725H739.899ZM770.232 783.307V771.325H772.103V783.307H770.232ZM762.313 780.869C759.156 780.869 757.191 778.885 757.191 776.182C757.191 773.479 759.156 771.495 762.313 771.495C765.469 771.495 767.416 773.479 767.416 776.182C767.416 778.885 765.469 780.869 762.313 780.869ZM762.313 779.281C764.222 779.281 765.545 778.091 765.545 776.182C765.545 774.273 764.222 773.063 762.313 773.063C760.385 773.063 759.062 774.273 759.062 776.182C759.062 778.091 760.385 779.281 762.313 779.281ZM758.608 787.257V781.984H760.517V785.556H772.538V787.257H758.608Z" fill="white"/>
<rect x="657.45" y="579.15" width="167.4" height="226.8" rx="12.15" stroke="black" stroke-width="2.7"/>
<rect x="83.7" y="577.8" width="135" height="32.4" rx="13.5" fill="#0596FF"/>
<path d="M121.954 586.175H127.321C131.253 586.175 133.558 588.273 133.558 591.43C133.558 594.586 131.253 596.684 127.321 596.684H123.938V601.314H121.954V586.175ZM127.17 594.888C129.911 594.888 131.574 593.679 131.574 591.43C131.574 589.181 129.911 587.971 127.17 587.971H123.938V594.888H127.17ZM145.38 601.314H143.433V599.67C142.979 600.464 141.751 601.579 139.766 601.579C137.215 601.579 135.419 599.746 135.419 596.835V590.504H137.366V596.495C137.366 598.687 138.425 599.878 140.182 599.878C142.072 599.878 143.433 598.101 143.433 596.098V590.504H145.38V601.314ZM154.221 601.579C152.255 601.579 150.932 600.634 150.384 599.708V601.314H148.437V585.703H150.384V592.11C150.932 591.184 152.255 590.239 154.221 590.239C157.283 590.239 159.569 592.677 159.569 595.909C159.569 599.141 157.283 601.579 154.221 601.579ZM154.051 599.859C156.224 599.859 157.661 598.158 157.661 595.909C157.661 593.66 156.224 591.959 154.051 591.959C151.858 591.959 150.346 593.66 150.346 595.909C150.346 598.158 151.858 599.859 154.051 599.859ZM164.005 601.314H162.059V585.703H164.005V601.314ZM168.024 585.514C168.78 585.514 169.329 586.062 169.329 586.799C169.329 587.536 168.78 588.084 168.024 588.084C167.287 588.084 166.739 587.536 166.739 586.799C166.739 586.062 167.287 585.514 168.024 585.514ZM169.007 601.333H167.061V590.504H169.007V601.333ZM182.136 597.648C181.55 599.991 179.566 601.579 177.052 601.579C173.839 601.579 171.495 599.16 171.495 595.909C171.495 592.658 173.82 590.239 177.014 590.239C179.566 590.239 181.569 591.883 182.098 594.132H180.114C179.679 592.847 178.545 591.959 177.014 591.959C174.86 591.959 173.404 593.66 173.404 595.909C173.404 598.158 174.86 599.859 177.014 599.859C178.545 599.859 179.717 598.952 180.152 597.648H182.136Z" fill="white"/>
<rect x="657.45" y="525.15" width="167.4" height="43.2" rx="12.15" fill="#FFFFF6"/>
<path d="M679.558 538.791H681.545L688.219 550.542L694.894 538.791H696.881V556.093H694.613V543.327L689.04 553.177H687.398L681.826 543.327V556.093H679.558V538.791ZM706.14 543.435C709.79 543.435 712.447 546.2 712.447 549.915C712.447 553.63 709.79 556.395 706.14 556.395C702.468 556.395 699.811 553.63 699.811 549.915C699.811 546.2 702.468 543.435 706.14 543.435ZM706.14 545.401C703.677 545.401 701.993 547.345 701.993 549.915C701.993 552.486 703.677 554.43 706.14 554.43C708.581 554.43 710.265 552.486 710.265 549.915C710.265 547.345 708.581 545.401 706.14 545.401ZM723.943 543.738H726.232L721.005 556.093H718.651L713.445 543.738H715.864L719.903 553.566L723.943 543.738ZM733.221 556.395C729.614 556.395 727.022 553.63 727.022 549.915C727.022 546.2 729.614 543.435 733.221 543.435C736.828 543.435 739.399 546.2 739.399 549.915C739.399 550.196 739.399 550.52 739.355 550.822H729.247C729.484 552.939 731.018 554.516 733.221 554.516C734.906 554.516 736.223 553.738 736.677 552.723H738.945C738.275 554.862 736.051 556.395 733.221 556.395ZM737.217 549.008C736.958 546.848 735.446 545.314 733.221 545.314C730.996 545.314 729.484 546.87 729.247 549.008H737.217ZM754.758 543.738V545.703H752.015V556.093H749.79V545.703H747.047V543.738H749.79V539.979H752.015V543.738H754.758ZM762.333 543.435C765.984 543.435 768.641 546.2 768.641 549.915C768.641 553.63 765.984 556.395 762.333 556.395C758.661 556.395 756.005 553.63 756.005 549.915C756.005 546.2 758.661 543.435 762.333 543.435ZM762.333 545.401C759.871 545.401 758.186 547.345 758.186 549.915C758.186 552.486 759.871 554.43 762.333 554.43C764.774 554.43 766.459 552.486 766.459 549.915C766.459 547.345 764.774 545.401 762.333 545.401Z" fill="black"/>
<path d="M790.069 537.3C788.062 537.3 786.756 539.412 787.654 541.208L794.085 554.07C795.08 556.06 797.92 556.06 798.915 554.07L805.346 541.208C806.244 539.412 804.938 537.3 802.931 537.3H790.069Z" fill="black"/>
<rect x="657.45" y="525.15" width="167.4" height="43.2" rx="12.15" stroke="black" stroke-width="2.7"/>
<rect x="58.05" y="498.15" width="793.8" height="218.7" rx="25.65" stroke="#AEAEAE" stroke-width="2.7"/>
<path d="M314.744 1387.16V1390.1H310.63V1405.69H307.292V1390.1H303.178V1387.16H307.292V1381.52H310.63V1387.16H314.744ZM326.107 1386.7C331.582 1386.7 335.568 1390.85 335.568 1396.42C335.568 1402 331.582 1406.14 326.107 1406.14C320.599 1406.14 316.614 1402 316.614 1396.42C316.614 1390.85 320.599 1386.7 326.107 1386.7ZM326.107 1389.65C322.413 1389.65 319.886 1392.57 319.886 1396.42C319.886 1400.28 322.413 1403.19 326.107 1403.19C329.768 1403.19 332.295 1400.28 332.295 1396.42C332.295 1392.57 329.768 1389.65 326.107 1389.65ZM348.948 1387.16V1390.1H344.833V1405.69H341.496V1390.1H337.381V1387.16H341.496V1381.52H344.833V1387.16H348.948ZM359.986 1406.14C354.738 1406.14 350.817 1401.96 350.817 1396.42C350.817 1390.88 354.738 1386.7 359.986 1386.7C363.356 1386.7 365.624 1388.32 366.564 1389.91V1387.16H369.901V1405.69H366.564V1402.94C365.624 1404.52 363.356 1406.14 359.986 1406.14ZM360.278 1403.19C364.036 1403.19 366.628 1400.28 366.628 1396.42C366.628 1392.57 364.036 1389.65 360.278 1389.65C356.552 1389.65 354.09 1392.57 354.09 1396.42C354.09 1400.28 356.552 1403.19 360.278 1403.19ZM378.477 1405.69H375.14V1378.93H378.477V1405.69ZM400.766 1406.27C395.193 1406.27 391.759 1402.9 391.564 1398.37H394.934C395.031 1401.15 397.105 1403.32 400.766 1403.32C404.395 1403.32 406.565 1401.25 406.565 1398.66C406.565 1395.74 404.233 1394.03 400.312 1394.03H397.461V1391.21H400.312C403.617 1391.21 405.853 1389.33 405.853 1386.64C405.853 1384.11 403.844 1382.04 400.409 1382.04C396.91 1382.04 394.999 1384.5 394.999 1387.25H391.597C391.597 1382.69 395.096 1379.12 400.409 1379.12C405.755 1379.12 409.222 1382.46 409.222 1386.54C409.222 1389.72 406.987 1391.92 404.589 1392.5C407.213 1392.99 409.903 1395.03 409.903 1398.63C409.903 1402.97 406.209 1406.27 400.766 1406.27ZM422.156 1406.27C416.713 1406.27 412.955 1403.23 412.955 1398.89C412.955 1394.96 416.065 1392.79 418.398 1392.24C416.389 1391.63 413.862 1389.52 413.862 1386.22C413.862 1382.33 417.199 1379.12 422.156 1379.12C427.081 1379.12 430.418 1382.36 430.418 1386.22C430.418 1389.52 427.891 1391.63 425.882 1392.24C428.248 1392.79 431.326 1394.96 431.326 1398.89C431.326 1403.23 427.567 1406.27 422.156 1406.27ZM422.156 1390.72C425.105 1390.72 427.178 1388.78 427.178 1386.31C427.178 1383.92 425.202 1381.97 422.156 1381.97C419.111 1381.97 417.134 1383.85 417.134 1386.25C417.134 1388.74 419.208 1390.72 422.156 1390.72ZM422.156 1403.42C425.72 1403.42 428.021 1401.38 428.021 1398.69C428.021 1395.97 425.526 1393.86 422.156 1393.86C418.754 1393.86 416.26 1395.97 416.26 1398.69C416.26 1401.38 418.56 1403.42 422.156 1403.42ZM444.496 1387.16H447.833V1390.01C448.643 1388.61 450.879 1386.7 454.508 1386.7C455.642 1386.7 456.387 1386.8 457.035 1387.03V1390.2C456.322 1389.88 455.415 1389.68 454.281 1389.68C450.49 1389.68 447.833 1392.73 447.833 1396.1V1405.69H444.496V1387.16ZM467.694 1406.14C462.283 1406.14 458.395 1402 458.395 1396.42C458.395 1390.85 462.283 1386.7 467.694 1386.7C473.105 1386.7 476.96 1390.85 476.96 1396.42C476.96 1396.84 476.96 1397.33 476.896 1397.78H461.732C462.089 1400.96 464.389 1403.32 467.694 1403.32C470.221 1403.32 472.198 1402.16 472.878 1400.63H476.28C475.276 1403.84 471.938 1406.14 467.694 1406.14ZM473.688 1395.06C473.299 1391.82 471.031 1389.52 467.694 1389.52C464.357 1389.52 462.089 1391.85 461.732 1395.06H473.688ZM491.114 1406.14C487.744 1406.14 485.476 1404.52 484.536 1402.94V1413.56H481.199V1387.16H484.536V1389.91C485.476 1388.32 487.744 1386.7 491.114 1386.7C496.362 1386.7 500.283 1390.88 500.283 1396.42C500.283 1401.96 496.362 1406.14 491.114 1406.14ZM490.822 1403.19C494.548 1403.19 497.01 1400.28 497.01 1396.42C497.01 1392.57 494.548 1389.65 490.822 1389.65C487.064 1389.65 484.472 1392.57 484.472 1396.42C484.472 1400.28 487.064 1403.19 490.822 1403.19ZM513.071 1386.7C518.547 1386.7 522.532 1390.85 522.532 1396.42C522.532 1402 518.547 1406.14 513.071 1406.14C507.563 1406.14 503.578 1402 503.578 1396.42C503.578 1390.85 507.563 1386.7 513.071 1386.7ZM513.071 1389.65C509.378 1389.65 506.85 1392.57 506.85 1396.42C506.85 1400.28 509.378 1403.19 513.071 1403.19C516.732 1403.19 519.26 1400.28 519.26 1396.42C519.26 1392.57 516.732 1389.65 513.071 1389.65ZM534.083 1386.7C538.619 1386.7 542.021 1388.94 542.183 1392.08H538.911C538.781 1390.53 536.675 1389.42 533.986 1389.42C531.297 1389.42 529.353 1390.49 529.353 1391.89C529.353 1393.41 530.519 1394.35 535.055 1394.96C540.628 1395.71 542.605 1397.52 542.605 1400.41C542.605 1404 538.814 1406.14 534.213 1406.14C529.256 1406.14 526.081 1403.75 525.854 1400.51H529.126C529.321 1401.96 531.005 1403.42 534.31 1403.42C537.161 1403.42 539.332 1402.25 539.332 1400.6C539.332 1399.08 537.907 1398.2 533.468 1397.62C528.413 1396.94 526.081 1395.32 526.081 1392.08C526.081 1388.81 529.547 1386.7 534.083 1386.7ZM548.474 1378.6C549.77 1378.6 550.71 1379.54 550.71 1380.81C550.71 1382.07 549.77 1383.01 548.474 1383.01C547.211 1383.01 546.271 1382.07 546.271 1380.81C546.271 1379.54 547.211 1378.6 548.474 1378.6ZM550.159 1405.72H546.822V1387.16H550.159V1405.72ZM565.117 1387.16V1390.1H561.002V1405.69H557.665V1390.1H553.55V1387.16H557.665V1381.52H561.002V1387.16H565.117ZM576.479 1386.7C581.955 1386.7 585.94 1390.85 585.94 1396.42C585.94 1402 581.955 1406.14 576.479 1406.14C570.971 1406.14 566.986 1402 566.986 1396.42C566.986 1390.85 570.971 1386.7 576.479 1386.7ZM576.479 1389.65C572.785 1389.65 570.258 1392.57 570.258 1396.42C570.258 1400.28 572.785 1403.19 576.479 1403.19C580.14 1403.19 582.667 1400.28 582.667 1396.42C582.667 1392.57 580.14 1389.65 576.479 1389.65ZM590.201 1387.16H593.538V1390.01C594.348 1388.61 596.584 1386.7 600.213 1386.7C601.347 1386.7 602.092 1386.8 602.74 1387.03V1390.2C602.027 1389.88 601.12 1389.68 599.986 1389.68C596.195 1389.68 593.538 1392.73 593.538 1396.1V1405.69H590.201V1387.16ZM620.204 1387.16H623.671L612.104 1413.56H608.735L612.396 1405.3L604.458 1387.16H608.119L614.081 1401.74L620.204 1387.16Z" fill="black"/>
<path d="M347.339 1446.64C343.969 1446.64 341.701 1445.02 340.762 1443.44V1454.06H337.424V1427.66H340.762V1430.41C341.701 1428.82 343.969 1427.2 347.339 1427.2C352.588 1427.2 356.508 1431.38 356.508 1436.92C356.508 1442.46 352.588 1446.64 347.339 1446.64ZM347.047 1443.69C350.773 1443.69 353.236 1440.78 353.236 1436.92C353.236 1433.07 350.773 1430.15 347.047 1430.15C343.289 1430.15 340.697 1433.07 340.697 1436.92C340.697 1440.78 343.289 1443.69 347.047 1443.69ZM369.296 1427.2C374.772 1427.2 378.757 1431.35 378.757 1436.92C378.757 1442.5 374.772 1446.64 369.296 1446.64C363.788 1446.64 359.803 1442.5 359.803 1436.92C359.803 1431.35 363.788 1427.2 369.296 1427.2ZM369.296 1430.15C365.603 1430.15 363.076 1433.07 363.076 1436.92C363.076 1440.78 365.603 1443.69 369.296 1443.69C372.958 1443.69 375.485 1440.78 375.485 1436.92C375.485 1433.07 372.958 1430.15 369.296 1430.15ZM406.691 1427.66H409.996L403.451 1446.19H400.081L395.189 1432L390.329 1446.19H386.959L380.415 1427.66H383.881L388.741 1442.04L393.569 1427.66H396.939L401.799 1442.14L406.691 1427.66ZM420.645 1446.64C415.234 1446.64 411.346 1442.5 411.346 1436.92C411.346 1431.35 415.234 1427.2 420.645 1427.2C426.055 1427.2 429.911 1431.35 429.911 1436.92C429.911 1437.34 429.911 1437.83 429.846 1438.28H414.683C415.039 1441.46 417.34 1443.82 420.645 1443.82C423.172 1443.82 425.148 1442.66 425.829 1441.13H429.231C428.226 1444.34 424.889 1446.64 420.645 1446.64ZM426.639 1435.56C426.25 1432.32 423.982 1430.02 420.645 1430.02C417.307 1430.02 415.039 1432.35 414.683 1435.56H426.639ZM434.15 1427.66H437.487V1430.51C438.297 1429.11 440.533 1427.2 444.161 1427.2C445.295 1427.2 446.041 1427.3 446.689 1427.53V1430.7C445.976 1430.38 445.069 1430.18 443.935 1430.18C440.144 1430.18 437.487 1433.23 437.487 1436.6V1446.19H434.15V1427.66ZM457.348 1446.64C451.937 1446.64 448.049 1442.5 448.049 1436.92C448.049 1431.35 451.937 1427.2 457.348 1427.2C462.759 1427.2 466.614 1431.35 466.614 1436.92C466.614 1437.34 466.614 1437.83 466.549 1438.28H451.386C451.743 1441.46 454.043 1443.82 457.348 1443.82C459.875 1443.82 461.851 1442.66 462.532 1441.13H465.934C464.929 1444.34 461.592 1446.64 457.348 1446.64ZM463.342 1435.56C462.953 1432.32 460.685 1430.02 457.348 1430.02C454.011 1430.02 451.743 1432.35 451.386 1435.56H463.342ZM479.05 1446.64C473.801 1446.64 469.881 1442.46 469.881 1436.92C469.881 1431.38 473.801 1427.2 479.05 1427.2C482.42 1427.2 484.688 1428.82 485.627 1430.41V1419.43H488.965V1446.19H485.627V1443.44C484.688 1445.02 482.42 1446.64 479.05 1446.64ZM479.342 1443.69C483.1 1443.69 485.692 1440.78 485.692 1436.92C485.692 1433.07 483.1 1430.15 479.342 1430.15C475.616 1430.15 473.153 1433.07 473.153 1436.92C473.153 1440.78 475.616 1443.69 479.342 1443.69ZM513.199 1446.64C509.829 1446.64 507.561 1445.02 506.622 1443.44V1446.19H503.285V1419.43H506.622V1430.41C507.561 1428.82 509.829 1427.2 513.199 1427.2C518.448 1427.2 522.368 1431.38 522.368 1436.92C522.368 1442.46 518.448 1446.64 513.199 1446.64ZM512.907 1443.69C516.633 1443.69 519.096 1440.78 519.096 1436.92C519.096 1433.07 516.633 1430.15 512.907 1430.15C509.149 1430.15 506.557 1433.07 506.557 1436.92C506.557 1440.78 509.149 1443.69 512.907 1443.69ZM539.458 1427.66H542.924L531.358 1454.06H527.988L531.649 1445.8L523.711 1427.66H527.372L533.334 1442.24L539.458 1427.66ZM573.186 1421.73V1424.29H554.394V1421.73H562.17V1418.71H565.41V1421.73H573.186ZM583.424 1425.87H579.536V1430.02H583.424V1432.78H579.536V1438.61H576.329V1419.2H579.536V1423.12H583.424V1425.87ZM563.79 1436.5C560.679 1436.5 558.087 1435.63 556.662 1433.97C555.949 1433.16 555.593 1432.22 555.593 1431.12C555.593 1428.92 557.115 1427.3 559.61 1426.43C560.906 1426 562.299 1425.78 563.79 1425.78C566.9 1425.78 569.46 1426.68 570.885 1428.27C571.598 1429.08 571.955 1430.05 571.955 1431.12C571.955 1433.33 570.432 1434.98 567.969 1435.85C566.673 1436.27 565.28 1436.5 563.79 1436.5ZM563.79 1428.21C560.679 1428.21 558.703 1429.41 558.703 1431.12C558.703 1432.84 560.679 1434.07 563.79 1434.07C566.9 1434.07 568.877 1432.84 568.877 1431.12C568.877 1429.44 566.803 1428.21 563.79 1428.21ZM570.594 1437.7C570.367 1438.64 570.011 1439.48 569.525 1440.26L580.638 1444.12L579.536 1446.9L567.71 1442.46C566.317 1443.76 564.535 1444.76 562.494 1445.48C560.42 1446.16 558.282 1446.48 556.046 1446.51V1443.63C559.578 1443.6 562.883 1442.56 565.215 1440.62C566.349 1439.64 567.095 1438.48 567.451 1437.12L570.594 1437.7Z" fill="black"/>
<path d="M0 1360.8H918V1355.4H0V1360.8Z" fill="black" mask="url(#path-43-inside-1_1377_6608)"/>
<path d="M60.9445 50.6564V53.6048H56.8297V69.1892H53.4925V53.6048H49.3777V50.6564H53.4925V45.0188H56.8297V50.6564H60.9445ZM78.6331 50.6564H82.0999L70.5331 77.0624H67.1635L70.8247 68.8004L62.8867 50.6564H66.5479L72.5095 65.2364L78.6331 50.6564ZM98.55 69.1892L92.232 60.7004L88.5708 64.556V69.1892H85.2336V42.4268H88.5708V60.5708L97.8048 50.6564H101.725L94.338 58.4648L102.503 69.1892H98.55ZM107.014 42.1028C108.31 42.1028 109.25 43.0424 109.25 44.306C109.25 45.5696 108.31 46.5092 107.014 46.5092C105.75 46.5092 104.811 45.5696 104.811 44.306C104.811 43.0424 105.75 42.1028 107.014 42.1028ZM108.699 69.2216H105.362V50.6564H108.699V69.2216ZM113.936 50.6564H117.273V53.2808C118.116 51.92 119.768 50.2028 122.879 50.2028C125.633 50.2028 127.739 51.7256 128.646 54.0908C129.747 51.758 132.08 50.2028 135.223 50.2028C139.176 50.2028 142.027 53.216 142.027 57.914V69.1892H138.69V58.4648C138.69 55.1276 137.07 53.1188 134.445 53.1188C131.659 53.1188 129.65 55.8404 129.65 59.21V69.1892H126.313V58.5944C126.313 55.1276 124.661 53.1188 122.069 53.1188C119.315 53.1188 117.273 55.8404 117.273 59.1776V69.1892H113.936V50.6564ZM154.976 69.6428C149.728 69.6428 145.807 65.4632 145.807 59.9228C145.807 54.3824 149.728 50.2028 154.976 50.2028C158.346 50.2028 160.614 51.8228 161.554 53.4104V42.4268H164.891V69.1892H161.554V66.4352C160.614 68.0228 158.346 69.6428 154.976 69.6428ZM155.268 66.6944C159.026 66.6944 161.618 63.7784 161.618 59.9228C161.618 56.0672 159.026 53.1512 155.268 53.1512C151.542 53.1512 149.08 56.0672 149.08 59.9228C149.08 63.7784 151.542 66.6944 155.268 66.6944ZM170.13 50.6564H173.467V53.5076C174.277 52.1144 176.513 50.2028 180.142 50.2028C181.276 50.2028 182.021 50.3 182.669 50.5268V53.702C181.956 53.378 181.049 53.1836 179.915 53.1836C176.124 53.1836 173.467 56.2292 173.467 59.5988V69.1892H170.13V50.6564ZM193.328 69.6428C187.917 69.6428 184.029 65.4956 184.029 59.9228C184.029 54.35 187.917 50.2028 193.328 50.2028C198.739 50.2028 202.594 54.35 202.594 59.9228C202.594 60.344 202.594 60.83 202.529 61.2836H187.366C187.723 64.4588 190.023 66.824 193.328 66.824C195.855 66.824 197.831 65.6576 198.512 64.1348H201.914C200.909 67.3424 197.572 69.6428 193.328 69.6428ZM199.322 58.562C198.933 55.322 196.665 53.0216 193.328 53.0216C189.991 53.0216 187.723 55.3544 187.366 58.562H199.322ZM215.03 69.6428C209.781 69.6428 205.861 65.4632 205.861 59.9228C205.861 54.3824 209.781 50.2028 215.03 50.2028C218.4 50.2028 220.668 51.8228 221.607 53.4104V50.6564H224.945V69.1892H221.607V66.4352C220.668 68.0228 218.4 69.6428 215.03 69.6428ZM215.322 66.6944C219.08 66.6944 221.672 63.7784 221.672 59.9228C221.672 56.0672 219.08 53.1512 215.322 53.1512C211.596 53.1512 209.133 56.0672 209.133 59.9228C209.133 63.7784 211.596 66.6944 215.322 66.6944ZM230.184 50.6564H233.521V53.2808C234.363 51.92 236.016 50.2028 239.126 50.2028C241.88 50.2028 243.986 51.7256 244.893 54.0908C245.995 51.758 248.328 50.2028 251.471 50.2028C255.423 50.2028 258.275 53.216 258.275 57.914V69.1892H254.937V58.4648C254.937 55.1276 253.317 53.1188 250.693 53.1188C247.907 53.1188 245.898 55.8404 245.898 59.21V69.1892H242.561V58.5944C242.561 55.1276 240.908 53.1188 238.316 53.1188C235.562 53.1188 233.521 55.8404 233.521 59.1776V69.1892H230.184V50.6564Z" fill="black"/>
<path d="M864.951 58.5507C865.032 57.96 865.073 57.3497 865.073 56.7C865.073 56.07 865.032 55.44 864.931 54.8494L869.04 51.7388C869.404 51.4632 869.505 50.9316 869.283 50.5379L865.397 44.0016C865.154 43.5685 864.648 43.4307 864.202 43.5685L859.365 45.4585C858.353 44.7104 857.28 44.0804 856.086 43.6079L855.358 38.6072C855.277 38.1347 854.872 37.8 854.386 37.8H846.614C846.128 37.8 845.744 38.1347 845.663 38.6072L844.934 43.6079C843.74 44.0804 842.647 44.73 841.655 45.4585L836.818 43.5685C836.373 43.411 835.867 43.5685 835.624 44.0016L831.758 50.5379C831.515 50.9513 831.596 51.4632 832.001 51.7388L836.11 54.8494C836.008 55.44 835.927 56.0897 835.927 56.7C835.927 57.3104 835.968 57.96 836.069 58.5507L831.96 61.6613C831.596 61.9369 831.495 62.4685 831.717 62.8622L835.604 69.3985C835.846 69.8316 836.352 69.9694 836.798 69.8316L841.635 67.9416C842.647 68.6897 843.72 69.3197 844.914 69.7922L845.643 74.7929C845.744 75.2654 846.128 75.6 846.614 75.6H854.386C854.872 75.6 855.277 75.2654 855.337 74.7929L856.066 69.7922C857.26 69.3197 858.353 68.6897 859.345 67.9416L864.182 69.8316C864.628 69.9891 865.134 69.8316 865.376 69.3985L869.262 62.8622C869.505 62.4291 869.404 61.9369 869.02 61.6613L864.951 58.5507ZM850.5 63.7875C846.493 63.7875 843.214 60.5982 843.214 56.7C843.214 52.8019 846.493 49.6125 850.5 49.6125C854.508 49.6125 857.786 52.8019 857.786 56.7C857.786 60.5982 854.508 63.7875 850.5 63.7875Z" fill="#898989"/>
<path d="M790.945 43.3519C787.517 39.9263 782.813 37.8 777.588 37.8C767.14 37.8 758.7 46.2578 758.7 56.7C758.7 67.1423 767.14 75.6 777.588 75.6C786.406 75.6 793.758 69.5757 795.862 61.425H790.945C789.006 66.9297 783.758 70.875 777.588 70.875C769.764 70.875 763.405 64.5199 763.405 56.7C763.405 48.8802 769.764 42.525 777.588 42.525C781.513 42.525 785.011 44.1552 787.564 46.7303L779.952 54.3375H796.5V37.8L790.945 43.3519Z" fill="#898989"/>
<path d="M896.4 89.1001H21.6001V94.5001H896.4V89.1001Z" fill="black" mask="url(#path-47-inside-2_1377_6608)"/>
<path d="M0.5 0.5H917.5V1431C917.5 1460.55 893.547 1484.5 864 1484.5H54C24.4528 1484.5 0.5 1460.55 0.5 1431V0.5Z" stroke="black"/>
</svg>
