<svg width="843" height="843" viewBox="0 0 843 843" fill="none" xmlns="http://www.w3.org/2000/svg">
<path d="M741.823 400.979H681.675V240.588C681.675 196.48 645.586 160.392 601.478 160.392H441.084V100.245C441.084 44.1077 396.975 0 340.838 0C284.7 0 240.591 44.1077 240.591 100.245V160.392H80.1971C36.0887 160.392 0 196.48 0 240.588V392.96H60.1478C120.296 392.96 168.414 441.077 168.414 501.224C168.414 561.371 120.296 609.489 60.1478 609.489H0V761.861C0 805.968 36.0887 842.057 80.1971 842.057H232.571V781.91C232.571 721.763 280.69 673.645 340.838 673.645C400.985 673.645 449.104 721.763 449.104 781.91V842.057H601.478C645.586 842.057 681.675 805.968 681.675 761.861V601.469H741.823C797.961 601.469 842.069 557.361 842.069 501.224C842.069 445.087 797.961 400.979 741.823 400.979Z" fill="black"/>
</svg>
