<svg width="35" height="35" viewBox="0 0 35 35" fill="none" xmlns="http://www.w3.org/2000/svg">
<g clip-path="url(#clip0_155_3615)">
<path d="M16.0417 10.2084H18.9583V13.1251H16.0417V10.2084ZM16.0417 16.0417H18.9583V24.7917H16.0417V16.0417ZM17.5 2.91675C9.45 2.91675 2.91666 9.45008 2.91666 17.5001C2.91666 25.5501 9.45 32.0834 17.5 32.0834C25.55 32.0834 32.0833 25.5501 32.0833 17.5001C32.0833 9.45008 25.55 2.91675 17.5 2.91675ZM17.5 29.1667C11.0687 29.1667 5.83333 23.9313 5.83333 17.5001C5.83333 11.0688 11.0687 5.83341 17.5 5.83341C23.9312 5.83341 29.1667 11.0688 29.1667 17.5001C29.1667 23.9313 23.9312 29.1667 17.5 29.1667Z" fill="#CDCDCD"/>
</g>
<defs>
<clipPath id="clip0_155_3615">
<rect width="35" height="35" fill="white"/>
</clipPath>
</defs>
</svg>
