<svg width="512" height="433" viewBox="0 0 512 433" fill="none" xmlns="http://www.w3.org/2000/svg">
<path d="M481.095 46.3569H450.19L481.095 123.621H512V77.2629C512 60.2649 498.093 46.3569 481.095 46.3569Z" fill="#FF4D6B"/>
<path d="M450.189 46.3569H194.189V123.621H481.094V77.2629C481.095 60.2649 467.187 46.3569 450.189 46.3569Z" fill="#FF738D"/>
<path d="M481.095 355.411L450.19 432.675H481.095C498.093 432.675 512 418.768 512 401.77V386.317L481.095 355.411Z" fill="#FF738D"/>
<path d="M481.095 401.77V355.412L0 386.317V401.77C0 418.768 13.907 432.675 30.905 432.675H450.189C467.187 432.675 481.095 418.768 481.095 401.77Z" fill="#FF91A5"/>
<path d="M481.095 92.7148H450.19L481.095 386.317H512V123.621C512 106.623 498.093 92.7148 481.095 92.7148Z" fill="#FF91A5"/>
<path d="M481.095 123.621C481.095 106.623 467.188 92.716 450.19 92.716H286.905L242.237 25.714C232.809 11.572 211.186 5.39263e-08 194.188 5.39263e-08H30.905C13.907 -0.000999946 0 13.906 0 30.904V386.317H481.095V123.621Z" fill="#FFB3C1"/>
</svg>
