<svg width="512" height="433" viewBox="0 0 512 433" fill="none" xmlns="http://www.w3.org/2000/svg">
<g filter="url(#filter0_i_711_5957)">
<path d="M481.095 46.3569H450.19L481.095 123.621H512V77.2629C512 60.2649 498.093 46.3569 481.095 46.3569Z" fill="#B2AFAF"/>
<path d="M450.189 46.3569H194.189V123.621H481.094V77.2629C481.095 60.2649 467.187 46.3569 450.189 46.3569Z" fill="#BDBDBD"/>
<path d="M481.095 355.411L450.19 432.675H481.095C498.093 432.675 512 418.768 512 401.77V386.317L481.095 355.411Z" fill="#BDBDBD"/>
<path d="M481.095 401.77V355.412L0 386.317V401.77C0 418.768 13.907 432.675 30.905 432.675H450.189C467.187 432.675 481.095 418.768 481.095 401.77Z" fill="#D7D7D7"/>
<path d="M481.095 92.715H450.19L481.095 386.317H512V123.621C512 106.623 498.093 92.715 481.095 92.715Z" fill="#D7D7D7"/>
<path d="M481.095 123.621C481.095 106.623 467.188 92.716 450.19 92.716H286.905L242.237 25.714C232.809 11.572 211.186 5.39263e-08 194.188 5.39263e-08H30.905C13.907 -0.000999946 0 13.906 0 30.904V386.317H481.095V123.621Z" fill="#F5F3F3"/>
</g>
<path d="M201.903 271.197C201.903 271.197 225.966 280.972 241.384 280.972C256.803 280.972 280.866 271.197 280.866 271.197" stroke="#4D4D4D" stroke-width="12.7653" stroke-linecap="round"/>
<path d="M217.689 217.437C217.689 233.632 212.386 241.873 205.844 241.873C199.303 241.873 194 233.632 194 217.437C194 201.241 199.303 193 205.844 193C212.386 193 217.689 201.241 217.689 217.437Z" fill="#4D4D4D"/>
<path fill-rule="evenodd" clip-rule="evenodd" d="M215.944 203.466C216.525 205.404 216.977 207.609 217.275 210.08C216.628 211.72 215.288 212.551 213.74 212.551C211.56 212.551 209.792 210.902 209.792 207.663C209.792 204.424 211.56 202.776 213.74 202.776C214.556 202.776 215.314 203.007 215.944 203.466Z" fill="white"/>
<path d="M288.753 217.437C288.753 233.632 283.45 241.873 276.909 241.873C270.367 241.873 265.064 233.632 265.064 217.437C265.064 201.242 270.367 193 276.909 193C283.45 193 288.753 201.242 288.753 217.437Z" fill="#4D4D4D"/>
<path fill-rule="evenodd" clip-rule="evenodd" d="M287.008 203.462C287.59 205.403 288.043 207.612 288.341 210.087C287.693 211.722 286.355 212.551 284.809 212.551C282.629 212.551 280.861 210.902 280.861 207.663C280.861 204.424 282.629 202.776 284.809 202.776C285.623 202.776 286.38 203.006 287.008 203.462Z" fill="white"/>
<defs>
<filter id="filter0_i_711_5957" x="0" y="0" width="512" height="436.675" filterUnits="userSpaceOnUse" color-interpolation-filters="sRGB">
<feFlood flood-opacity="0" result="BackgroundImageFix"/>
<feBlend mode="normal" in="SourceGraphic" in2="BackgroundImageFix" result="shape"/>
<feColorMatrix in="SourceAlpha" type="matrix" values="0 0 0 0 0 0 0 0 0 0 0 0 0 0 0 0 0 0 127 0" result="hardAlpha"/>
<feOffset dy="4"/>
<feGaussianBlur stdDeviation="2"/>
<feComposite in2="hardAlpha" operator="arithmetic" k2="-1" k3="1"/>
<feColorMatrix type="matrix" values="0 0 0 0 0 0 0 0 0 0 0 0 0 0 0 0 0 0 0.25 0"/>
<feBlend mode="normal" in2="shape" result="effect1_innerShadow_711_5957"/>
</filter>
</defs>
</svg>
