<svg xmlns="http://www.w3.org/2000/svg" version="1.1" xmlns:xlink="http://www.w3.org/1999/xlink" xmlns:svgjs="http://svgjs.com/svgjs" width="512" height="512" x="0" y="0" viewBox="0 0 32 32" style="enable-background:new 0 0 512 512" xml:space="preserve" class=""><g><path d="M16 1a15 15 0 1 0 15 15A15.005 15.005 0 0 0 16 1zm6.29 13.63a1.67 1.67 0 0 1-1.53 1.03h-1.43v8.21A1.12 1.12 0 0 1 18.21 25h-4.42a1.12 1.12 0 0 1-1.12-1.13v-8.21h-1.43a1.67 1.67 0 0 1-1.53-1.03 1.869 1.869 0 0 1 .33-2.02l4.77-5.1a1.643 1.643 0 0 1 2.38 0l4.77 5.1a1.869 1.869 0 0 1 .33 2.02z" fill="#24a74a" data-original="#000000"></path></g></svg>