<svg width="996" height="975" viewBox="0 0 996 975" fill="none" xmlns="http://www.w3.org/2000/svg">
<path d="M497.586 0C222.822 0 0 223.7 0 499.654C0 720.368 142.576 907.614 340.391 973.741C365.273 978.344 374.355 962.917 374.355 949.666C374.355 937.785 373.92 906.37 373.671 864.69C235.263 894.861 206.026 797.692 206.026 797.692C183.445 739.963 150.787 724.598 150.787 724.598C105.564 693.619 154.146 694.241 154.146 694.241C204.098 697.786 230.349 745.749 230.349 745.749C274.764 822.078 346.86 800.056 375.226 787.242C379.705 754.956 392.582 732.934 406.827 720.43C296.349 707.802 180.148 664.941 180.148 473.527C180.148 418.97 199.557 374.367 231.406 339.407C226.243 326.778 209.199 275.954 236.258 207.215C236.258 207.215 278.061 193.778 373.111 258.412C412.799 247.339 455.348 241.802 497.71 241.616C539.948 241.864 582.559 247.339 622.308 258.474C717.297 193.84 759.037 207.277 759.037 207.277C786.159 276.079 769.115 326.841 764.014 339.469C795.925 374.43 815.147 419.033 815.147 473.589C815.147 665.501 698.822 707.74 587.971 720.119C605.824 735.547 621.749 766.029 621.749 812.622C621.749 879.434 621.127 933.306 621.127 949.666C621.127 963.041 630.084 978.593 655.34 973.679C852.844 907.489 995.295 720.306 995.295 499.654C995.295 223.7 772.474 0 497.586 0Z" fill="white"/>
</svg>
