<svg width="876" height="996" viewBox="0 0 876 996" fill="none" xmlns="http://www.w3.org/2000/svg">
<rect x="292.38" y="463.601" width="308.88" height="531.961" rx="34.32" fill="#CB8F55"/>
<path d="M318.12 772.481V738.161L198 686.681L188.599 679.161C183.603 675.164 177.001 681.563 180.84 686.681C176.609 684.989 173.653 690.949 177.56 693.293L180.84 695.261C177.353 695.261 176.934 700.33 180.373 700.903L198 703.841L318.12 772.481Z" fill="#CB8F55"/>
<path d="M584.099 772.481V738.161L704.219 686.681L713.62 679.161C718.616 675.164 725.218 681.563 721.379 686.681C725.61 684.989 728.566 690.949 724.659 693.293L721.379 695.261C724.866 695.261 725.286 700.33 721.846 700.903L704.219 703.841L584.099 772.481Z" fill="#CB8F55"/>
<ellipse cx="275.22" cy="463.601" rx="120.12" ry="102.96" fill="#FFCDD4"/>
<ellipse cx="572.571" cy="429.281" rx="160.656" ry="137.28" fill="#FFCDD4"/>
<ellipse cx="411.915" cy="429.281" rx="160.656" ry="137.28" fill="#FFCDD4"/>
<ellipse cx="519.019" cy="383.52" rx="160.656" ry="137.28" fill="#FFCDD4"/>
<ellipse cx="154.44" cy="85.0061" rx="154.44" ry="85.0061" transform="matrix(0.975266 -0.221034 0.221033 0.975266 17.8199 360.274)" fill="#FFCDD4"/>
<ellipse cx="249.48" cy="206.2" rx="163.02" ry="137.28" fill="#FFCDD4"/>
<ellipse cx="326.7" cy="137.56" rx="120.12" ry="137.28" fill="#FFCDD4"/>
<ellipse cx="137.28" cy="77.2202" rx="137.28" ry="77.2202" transform="matrix(0.975027 0.222086 -0.222085 0.975027 584.078 309.161)" fill="#FFCDD4"/>
<ellipse cx="487.355" cy="137.56" rx="160.656" ry="137.28" fill="#FFCDD4"/>
<ellipse cx="755.699" cy="317.741" rx="120.12" ry="94.3802" fill="#FFCDD4"/>
<ellipse cx="601.259" cy="128.98" rx="137.28" ry="94.3802" fill="#FFCDD4"/>
<ellipse cx="661.319" cy="214.78" rx="163.02" ry="111.54" fill="#FFCDD4"/>
<ellipse cx="163.68" cy="309.161" rx="163.02" ry="120.12" fill="#FFCDD4"/>
<ellipse cx="298.596" cy="257.681" rx="160.656" ry="137.28" fill="#FFCDD4"/>
<mask id="path-18-inside-1_1001_7113" fill="white">
<path d="M481.139 635.201C481.139 646.574 477.298 652.361 472.559 652.361C467.821 652.361 463.979 646.574 463.979 635.201C463.979 623.829 467.821 618.041 472.559 618.041C477.298 618.041 481.139 623.829 481.139 635.201Z"/>
</mask>
<path d="M481.139 635.201C481.139 646.574 477.298 652.361 472.559 652.361C467.821 652.361 463.979 646.574 463.979 635.201C463.979 623.829 467.821 618.041 472.559 618.041C477.298 618.041 481.139 623.829 481.139 635.201Z" fill="black"/>
<path d="M463.979 635.201C463.979 639.277 463.242 640.42 463.535 639.877C463.732 639.515 464.439 638.358 466.043 637.232C467.773 636.018 470.06 635.201 472.559 635.201V669.521C483.087 669.521 490.169 662.77 493.717 656.215C497.117 649.935 498.299 642.498 498.299 635.201H463.979ZM472.559 635.201C475.058 635.201 477.346 636.018 479.076 637.232C480.68 638.358 481.387 639.515 481.584 639.877C481.877 640.42 481.14 639.277 481.14 635.201H446.819C446.819 642.498 448.002 649.935 451.402 656.215C454.95 662.77 462.032 669.521 472.559 669.521V635.201ZM481.14 635.201C481.14 631.126 481.877 629.982 481.584 630.525C481.387 630.888 480.68 632.045 479.076 633.17C477.346 634.384 475.058 635.201 472.559 635.201V600.881C462.032 600.881 454.95 607.632 451.402 614.188C448.002 620.468 446.819 627.904 446.819 635.201H481.14ZM472.559 635.201C470.06 635.201 467.773 634.384 466.043 633.17C464.439 632.045 463.732 630.888 463.535 630.525C463.242 629.982 463.979 631.126 463.979 635.201H498.299C498.299 627.904 497.117 620.468 493.717 614.188C490.169 607.632 483.087 600.881 472.559 600.881V635.201Z" fill="black" mask="url(#path-18-inside-1_1001_7113)"/>
<mask id="path-20-inside-2_1001_7113" fill="white">
<path d="M429.659 635.201C429.659 646.574 425.818 652.361 421.08 652.361C416.341 652.361 412.5 646.574 412.5 635.201C412.5 623.829 416.341 618.041 421.08 618.041C425.818 618.041 429.659 623.829 429.659 635.201Z"/>
</mask>
<path d="M429.659 635.201C429.659 646.574 425.818 652.361 421.08 652.361C416.341 652.361 412.5 646.574 412.5 635.201C412.5 623.829 416.341 618.041 421.08 618.041C425.818 618.041 429.659 623.829 429.659 635.201Z" fill="black"/>
<path d="M412.499 635.201C412.499 639.277 411.762 640.42 412.055 639.877C412.252 639.515 412.959 638.358 414.563 637.232C416.293 636.018 418.58 635.201 421.08 635.201V669.521C431.607 669.521 438.689 662.77 442.237 656.215C445.637 649.935 446.82 642.498 446.82 635.201H412.499ZM421.08 635.201C423.579 635.201 425.866 636.018 427.596 637.232C429.2 638.358 429.907 639.515 430.104 639.877C430.397 640.42 429.66 639.277 429.66 635.201H395.34C395.34 642.498 396.522 649.935 399.922 656.215C403.47 662.77 410.552 669.521 421.08 669.521V635.201ZM429.66 635.201C429.66 631.126 430.397 629.982 430.104 630.525C429.907 630.888 429.2 632.045 427.596 633.17C425.866 634.384 423.579 635.201 421.08 635.201V600.881C410.552 600.881 403.47 607.632 399.922 614.188C396.522 620.468 395.34 627.904 395.34 635.201H429.66ZM421.08 635.201C418.58 635.201 416.293 634.384 414.563 633.17C412.959 632.045 412.252 630.888 412.055 630.525C411.762 629.982 412.499 631.126 412.499 635.201H446.82C446.82 627.904 445.637 620.468 442.237 614.188C438.689 607.632 431.607 600.881 421.08 600.881V635.201Z" fill="black" mask="url(#path-20-inside-2_1001_7113)"/>
<path d="M421.08 686.681C421.08 686.681 437.681 695.261 446.82 695.261C455.958 695.261 472.56 686.681 472.56 686.681" stroke="black" stroke-width="17.16" stroke-linecap="round"/>
<path d="M326.7 566.561V987.07" stroke="#BF844A" stroke-width="17.16" stroke-linecap="round"/>
<path d="M515.459 566.561V987.07" stroke="#BF844A" stroke-width="17.16" stroke-linecap="round"/>
<path d="M395.34 669.521V978.402" stroke="#BF844A" stroke-width="17.16" stroke-linecap="round"/>
<path d="M549.782 669.522V978.403" stroke="#BF844A" stroke-width="17.16" stroke-linecap="round"/>
<path d="M361.02 583.721V755.322" stroke="#BF844A" stroke-width="17.16" stroke-linecap="round"/>
<path d="M463.982 789.644V978.405" stroke="#BF844A" stroke-width="17.16" stroke-linecap="round"/>
<path d="M464.051 181.443C463.323 178.937 461.048 177.785 458.954 177.14C460.377 175.474 461.681 173.283 460.953 170.776C460.264 168.402 458.112 166.313 454.896 164.893C451.739 163.499 447.79 162.853 443.476 163.023C439.336 163.187 435.518 164.319 432.482 165.577C432.966 162.497 433.182 158.547 432.277 154.335C431.369 150.114 429.761 146.45 427.627 143.738C425.452 140.976 422.893 139.412 420.422 139.334C417.812 139.252 416.014 141.06 414.755 142.852C413.61 140.984 411.929 139.067 409.319 138.985C406.848 138.907 404.196 140.307 401.853 142.927C399.551 145.499 397.717 149.055 396.546 153.211C395.431 157.169 395.299 161.077 395.557 164.379C392.619 162.948 388.909 161.598 384.823 161.178C380.529 160.737 376.546 161.133 373.307 162.326C370.008 163.541 367.73 165.491 366.892 167.817C366.008 170.273 367.172 172.542 368.487 174.294C366.357 174.806 364.014 175.812 363.13 178.268C362.292 180.595 362.804 183.549 364.571 186.588C366.307 189.571 369.122 192.416 372.711 194.813C376.126 197.093 379.794 198.424 383.011 199.2C380.711 201.578 378.327 204.667 376.667 208.424C374.919 212.371 374.066 216.281 374.2 219.73C374.335 223.243 375.486 226.012 377.439 227.527C379.503 229.127 382.02 228.722 384.092 228.012C383.92 230.196 384.153 232.735 386.216 234.337C388.17 235.851 391.138 236.277 394.574 235.535C397.947 234.807 401.522 233.009 404.911 230.335C408.219 227.727 410.558 224.459 412.171 221.707C413.726 224.676 415.958 227.984 419.079 230.781C422.293 233.663 425.748 235.682 429.069 236.621C430.296 236.968 431.472 237.157 432.569 237.192C434.496 237.253 436.183 236.834 437.485 235.949C439.644 234.482 440.037 231.962 440.003 229.772C442.027 230.61 444.515 231.173 446.675 229.705C448.719 228.315 450.041 225.624 450.397 222.127C450.747 218.694 450.141 214.738 448.646 210.689C447.211 206.802 444.955 203.52 442.821 201.022C445.898 200.531 449.722 199.515 453.448 197.353C457.182 195.186 460.17 192.524 462.089 189.655C464.044 186.734 464.741 183.817 464.051 181.443Z" fill="#FFEAEE"/>
<path d="M419.824 195.673C420.127 195.782 420.435 195.839 420.74 195.848C421.994 195.888 423.186 195.125 423.633 193.881C424.191 192.334 423.388 190.628 421.841 190.071L418.13 188.735L420.548 185.618C421.555 184.319 421.319 182.449 420.021 181.441C418.721 180.433 416.851 180.67 415.844 181.968L413.426 185.086L411.209 181.822C410.285 180.463 408.433 180.109 407.074 181.034C405.714 181.958 405.361 183.809 406.285 185.169L408.502 188.432L404.714 189.532C403.135 189.991 402.227 191.643 402.685 193.222C403.055 194.492 404.196 195.328 405.45 195.367C405.755 195.377 406.066 195.339 406.375 195.25L410.163 194.15L410.039 198.091C409.987 199.735 411.277 201.109 412.921 201.161C414.563 201.212 415.938 199.922 415.99 198.279L416.114 194.337L419.824 195.673Z" fill="#FF81AD"/>
<path d="M421.837 190.057L418.154 188.733L420.57 185.602C421.576 184.297 421.35 182.425 420.064 181.42C418.776 180.415 416.917 180.659 415.911 181.964L413.496 185.096L413.495 185.095L412.926 201.199C414.559 201.244 415.929 199.947 415.987 198.3L416.127 194.352L419.809 195.676C420.109 195.783 420.415 195.839 420.718 195.848C421.964 195.882 423.151 195.114 423.602 193.866C424.162 192.314 423.371 190.608 421.837 190.057Z" fill="#FF81AD"/>
<path d="M423.409 199.76C422.495 198.399 420.652 198.053 419.294 198.984C417.935 199.916 417.575 201.774 418.49 203.135L421.923 208.239C422.475 209.059 423.364 209.51 424.28 209.536C424.884 209.553 425.5 209.384 426.04 209.014C427.398 208.082 427.758 206.224 426.843 204.864L423.409 199.76Z" fill="#FF81AD"/>
<path d="M431.458 181.775L425.541 183.53C423.964 183.997 423.051 185.661 423.503 187.247C423.865 188.523 424.999 189.359 426.25 189.394C426.554 189.402 426.865 189.363 427.173 189.272L433.09 187.518C434.666 187.051 435.579 185.387 435.129 183.801C434.678 182.215 433.034 181.308 431.458 181.775Z" fill="#FF81AD"/>
<path d="M413.607 179.544C415.251 179.596 416.625 178.306 416.676 176.662L416.87 170.495C416.922 168.851 415.632 167.477 413.988 167.426C412.345 167.374 410.971 168.664 410.919 170.308L410.725 176.475C410.673 178.118 411.964 179.492 413.607 179.544Z" fill="#FF81AD"/>
<path d="M416.675 176.661L416.869 170.493C416.921 168.85 415.631 167.476 413.987 167.424L413.606 179.543C415.249 179.594 416.623 178.304 416.675 176.661Z" fill="#FF81AD"/>
<path d="M400.361 188.549C401.615 188.588 402.807 187.825 403.255 186.58C403.813 185.033 403.009 183.328 401.463 182.771L395.658 180.68C394.109 180.124 392.405 180.926 391.848 182.473C391.291 184.02 392.094 185.726 393.64 186.282L399.445 188.372C399.748 188.482 400.057 188.539 400.361 188.549Z" fill="#FF81AD"/>
<path d="M406.742 198.593C405.442 197.585 403.573 197.822 402.564 199.121L398.783 203.996C397.775 205.295 398.011 207.166 399.311 208.173C399.826 208.573 400.432 208.778 401.039 208.797C401.959 208.826 402.88 208.429 403.487 207.646L407.269 202.771C408.277 201.471 408.04 199.602 406.742 198.593Z" fill="#FF81AD"/>
<path d="M292.81 124.779C301.449 133.009 308.012 148.89 303.266 166.607C285.341 170.505 269.787 163.199 261.979 154.184C252.724 143.496 261.444 131.601 271.862 133.675C270.284 123.17 282.575 115.022 292.81 124.779Z" fill="#FFA4B8"/>
<path d="M275.495 163.922C270.434 161.687 265.599 158.365 261.978 154.183C252.669 143.428 261.601 131.512 271.861 133.675C270.774 126.445 276.256 120.334 283.121 120.403C289.12 135.802 287.571 152.516 275.495 163.922Z" fill="#FFBFCB"/>
<path d="M211.685 214.708C210.564 213.347 208.844 213.24 207.373 213.399C207.811 211.986 208.035 210.278 206.914 208.917C205.852 207.628 203.959 206.906 201.585 206.884C199.254 206.862 196.631 207.516 194 208.774C191.475 209.981 189.409 211.703 187.861 213.294C187.339 211.254 186.418 208.746 184.731 206.374C183.041 203.998 181.065 202.153 179.016 201.041C176.929 199.908 174.924 199.621 173.37 200.233C171.729 200.879 171.096 202.481 170.793 203.929C169.584 203.076 168.029 202.335 166.388 202.981C164.834 203.592 163.563 205.17 162.808 207.421C162.067 209.631 161.878 212.328 162.262 215.219C162.627 217.972 163.589 220.432 164.631 222.412C162.425 222.308 159.763 222.462 157.116 223.293C154.333 224.165 151.969 225.475 150.277 227.08C148.555 228.715 147.662 230.533 147.764 232.2C147.871 233.96 149.199 235.057 150.483 235.793C149.298 236.679 148.113 237.93 148.22 239.689C148.322 241.356 149.428 243.053 151.336 244.466C153.21 245.854 155.716 246.867 158.583 247.396C161.31 247.898 163.942 247.745 166.145 247.367C165.353 249.456 164.699 252.01 164.672 254.784C164.642 257.7 165.157 260.354 166.161 262.458C167.183 264.601 168.636 266.012 170.253 266.431C171.961 266.873 173.414 265.949 174.51 264.955C174.987 266.356 175.81 267.869 177.517 268.312C179.134 268.73 181.089 268.201 183.023 266.824C184.921 265.471 186.659 263.4 188.048 260.837C189.404 258.335 189.982 255.683 190.249 253.545C192.006 254.971 194.274 256.428 196.957 257.33C199.721 258.259 202.404 258.59 204.715 258.285C205.569 258.173 206.349 257.976 207.039 257.705C208.251 257.228 209.186 256.518 209.758 255.621C210.705 254.134 210.276 252.466 209.67 251.116C211.15 251.095 212.844 250.78 213.792 249.293C214.689 247.885 214.791 245.862 214.078 243.597C213.378 241.373 211.946 239.081 209.936 236.967C208.008 234.939 205.732 233.505 203.741 232.525C205.519 231.399 207.621 229.747 209.355 227.411C211.093 225.069 212.236 222.619 212.661 220.327C213.093 217.992 212.747 215.997 211.685 214.708Z" fill="#FFEAEE"/>
<path d="M188.043 235.346C188.259 235.333 188.466 235.286 188.657 235.21C189.446 234.9 189.982 234.108 189.927 233.217C189.86 232.108 188.906 231.264 187.798 231.331L185.138 231.494L185.806 228.914C186.084 227.839 185.439 226.742 184.364 226.463C183.288 226.185 182.191 226.831 181.913 227.906L181.246 230.486L178.998 229.053C178.062 228.456 176.819 228.731 176.222 229.668C175.625 230.604 175.9 231.847 176.837 232.444L179.084 233.877L177.027 235.571C176.17 236.278 176.048 237.545 176.754 238.402C177.323 239.092 178.254 239.305 179.043 238.995C179.234 238.919 179.417 238.813 179.585 238.675L181.641 236.981L182.617 239.46C183.024 240.493 184.191 241.001 185.225 240.594C186.258 240.188 186.766 239.02 186.359 237.987L185.384 235.508L188.043 235.346Z" fill="#FF81AD"/>
<path d="M187.715 231.387L185.12 231.454L185.706 228.889C185.95 227.819 185.29 226.695 184.232 226.377C183.174 226.059 182.119 226.668 181.875 227.736L181.29 230.302L181.289 230.301L185.441 240.592C186.44 240.22 186.906 239.067 186.482 238.015L185.464 235.492L188.059 235.425C188.27 235.419 188.471 235.379 188.656 235.311C189.419 235.027 189.922 234.252 189.846 233.355C189.751 232.24 188.797 231.359 187.715 231.387Z" fill="#FF81AD"/>
<path d="M191.281 236.874C190.342 236.236 189.123 236.47 188.559 237.397C187.995 238.324 188.3 239.593 189.239 240.232L192.765 242.628C193.331 243.013 193.999 243.081 194.564 242.871C194.936 242.733 195.263 242.473 195.487 242.105C196.051 241.179 195.746 239.909 194.807 239.271L191.281 236.874Z" fill="#FF81AD"/>
<path d="M191.464 223.58L188.337 226.18C187.503 226.873 187.415 228.168 188.141 229.073C188.724 229.801 189.656 230.055 190.432 229.765C190.62 229.695 190.799 229.593 190.962 229.457L194.089 226.857C194.923 226.164 195.011 224.869 194.286 223.964C193.56 223.059 192.297 222.887 191.464 223.58Z" fill="#FF81AD"/>
<path d="M179.873 227.003C180.907 226.596 181.415 225.428 181.008 224.395L179.481 220.517C179.074 219.483 177.907 218.975 176.873 219.382C175.84 219.789 175.332 220.956 175.739 221.99L177.265 225.868C177.672 226.901 178.84 227.409 179.873 227.003Z" fill="#FF81AD"/>
<path d="M181.008 224.395L179.481 220.516C179.074 219.483 177.907 218.975 176.874 219.382L179.873 227.002C180.907 226.596 181.415 225.428 181.008 224.395Z" fill="#FF81AD"/>
<path d="M174.063 236.124C174.851 235.814 175.387 235.022 175.333 234.13C175.265 233.022 174.311 232.178 173.203 232.246L169.043 232.499C167.934 232.567 167.091 233.52 167.158 234.629C167.226 235.737 168.179 236.581 169.287 236.513L173.447 236.26C173.665 236.247 173.871 236.2 174.063 236.124Z" fill="#FF81AD"/>
<path d="M180.708 240.652C179.632 240.373 178.536 241.019 178.257 242.094L177.212 246.129C176.934 247.204 177.58 248.302 178.655 248.58C179.082 248.691 179.513 248.656 179.895 248.505C180.473 248.278 180.938 247.786 181.106 247.138L182.15 243.103C182.429 242.027 181.783 240.93 180.708 240.652Z" fill="#FF81AD"/>
<path d="M615.499 180.388C616.62 179.027 618.339 178.92 619.811 179.079C619.373 177.666 619.148 175.958 620.27 174.597C621.332 173.308 623.224 172.586 625.599 172.564C627.93 172.543 630.553 173.196 633.184 174.454C635.709 175.661 637.775 177.383 639.323 178.974C639.845 176.934 640.766 174.426 642.453 172.054C644.143 169.678 646.119 167.834 648.168 166.721C650.255 165.588 652.26 165.301 653.814 165.913C655.455 166.559 656.088 168.161 656.391 169.609C657.6 168.756 659.155 168.015 660.796 168.661C662.35 169.273 663.621 170.85 664.376 173.101C665.117 175.311 665.305 178.008 664.922 180.899C664.557 183.652 663.595 186.112 662.553 188.092C664.758 187.989 667.421 188.142 670.068 188.973C672.85 189.846 675.215 191.155 676.907 192.76C678.629 194.395 679.521 196.213 679.42 197.88C679.313 199.64 677.985 200.737 676.701 201.473C677.886 202.359 679.071 203.61 678.964 205.369C678.862 207.036 677.756 208.733 675.848 210.146C673.974 211.534 671.468 212.547 668.6 213.076C665.873 213.579 663.242 213.425 661.039 213.048C661.83 215.137 662.484 217.69 662.512 220.464C662.542 223.38 662.027 226.034 661.023 228.138C660.001 230.281 658.548 231.692 656.931 232.111C655.223 232.553 653.77 231.629 652.673 230.635C652.197 232.036 651.374 233.549 649.666 233.992C648.05 234.41 646.095 233.881 644.161 232.504C642.263 231.151 640.525 229.08 639.136 226.517C637.78 224.015 637.202 221.363 636.935 219.225C635.178 220.651 632.91 222.108 630.227 223.01C627.463 223.939 624.78 224.27 622.468 223.965C621.615 223.853 620.835 223.657 620.145 223.385C618.933 222.908 617.998 222.198 617.426 221.301C616.478 219.814 616.908 218.146 617.513 216.796C616.034 216.775 614.34 216.46 613.392 214.973C612.495 213.565 612.393 211.542 613.106 209.277C613.806 207.053 615.238 204.761 617.247 202.648C619.175 200.619 621.452 199.186 623.442 198.205C621.665 197.079 619.563 195.427 617.829 193.091C616.091 190.749 614.948 188.3 614.523 186.007C614.09 183.672 614.437 181.677 615.499 180.388Z" fill="#FFEAEE"/>
<path d="M639.142 201.027C638.925 201.014 638.719 200.967 638.527 200.892C637.738 200.581 637.203 199.79 637.257 198.898C637.324 197.79 638.278 196.945 639.386 197.013L642.046 197.175L641.378 194.596C641.1 193.521 641.746 192.423 642.82 192.145C643.896 191.866 644.993 192.513 645.271 193.587L645.939 196.167L648.186 194.735C649.122 194.138 650.366 194.413 650.962 195.35C651.559 196.286 651.284 197.529 650.348 198.126L648.1 199.558L650.157 201.253C651.014 201.959 651.136 203.226 650.43 204.084C649.862 204.773 648.931 204.987 648.142 204.676C647.95 204.601 647.767 204.495 647.6 204.357L645.543 202.662L644.567 205.141C644.161 206.175 642.993 206.683 641.96 206.276C640.927 205.869 640.418 204.702 640.825 203.668L641.801 201.189L639.142 201.027Z" fill="#FF81AD"/>
<path d="M639.473 197.068L642.068 197.135L641.482 194.57C641.238 193.501 641.898 192.376 642.956 192.058C644.014 191.74 645.069 192.349 645.313 193.418L645.898 195.983L645.899 195.983L641.747 206.273C640.748 205.902 640.282 204.748 640.706 203.696L641.724 201.173L639.129 201.106C638.918 201.101 638.717 201.061 638.532 200.992C637.769 200.709 637.266 199.933 637.342 199.037C637.437 197.921 638.391 197.04 639.473 197.068Z" fill="#FF81AD"/>
<path d="M635.907 202.557C636.847 201.918 638.065 202.152 638.629 203.079C639.193 204.006 638.889 205.275 637.949 205.914L634.424 208.31C633.857 208.695 633.189 208.763 632.625 208.553C632.252 208.415 631.926 208.156 631.701 207.788C631.138 206.861 631.442 205.591 632.382 204.953L635.907 202.557Z" fill="#FF81AD"/>
<path d="M635.722 189.262L638.849 191.862C639.683 192.555 639.77 193.85 639.045 194.755C638.462 195.483 637.53 195.737 636.754 195.447C636.566 195.377 636.386 195.275 636.224 195.139L633.096 192.539C632.263 191.846 632.175 190.551 632.9 189.646C633.625 188.741 634.889 188.569 635.722 189.262Z" fill="#FF81AD"/>
<path d="M647.311 192.684C646.278 192.277 645.77 191.11 646.177 190.076L647.703 186.198C648.11 185.164 649.277 184.656 650.311 185.063C651.344 185.47 651.852 186.637 651.446 187.671L649.919 191.549C649.512 192.583 648.345 193.091 647.311 192.684Z" fill="#FF81AD"/>
<path d="M646.176 190.076L647.703 186.198C648.11 185.164 649.277 184.656 650.311 185.063L647.311 192.684C646.278 192.277 645.77 191.11 646.176 190.076Z" fill="#FF81AD"/>
<path d="M653.12 201.807C652.332 201.496 651.796 200.704 651.85 199.812C651.918 198.704 652.872 197.86 653.98 197.928L658.14 198.181C659.249 198.249 660.092 199.202 660.025 200.311C659.957 201.419 659.004 202.263 657.896 202.195L653.736 201.942C653.518 201.929 653.312 201.882 653.12 201.807Z" fill="#FF81AD"/>
<path d="M646.477 206.334C647.552 206.056 648.649 206.702 648.928 207.777L649.972 211.812C650.25 212.887 649.604 213.985 648.529 214.263C648.102 214.373 647.672 214.338 647.29 214.188C646.712 213.96 646.246 213.468 646.079 212.82L645.034 208.785C644.756 207.71 645.402 206.613 646.477 206.334Z" fill="#FF81AD"/>
<path d="M524.891 464.935C525.071 463.182 523.938 461.883 522.79 460.949C524.103 460.267 525.476 459.226 525.655 457.471C525.825 455.81 525.008 453.957 523.354 452.252C521.731 450.579 519.422 449.174 516.678 448.187C514.044 447.24 511.367 446.981 509.147 446.999C510.231 445.194 511.367 442.775 511.868 439.908C512.37 437.035 512.292 434.333 511.642 432.095C510.981 429.814 509.775 428.186 508.248 427.511C506.635 426.798 505.05 427.474 503.808 428.277C503.565 426.818 502.998 425.191 501.385 424.478C499.857 423.803 497.842 424.007 495.711 425.054C493.618 426.081 491.568 427.842 489.781 430.147C488.08 432.343 487.007 434.757 486.331 436.889C484.854 435.248 482.874 433.462 480.421 432.164C477.845 430.799 475.251 430.038 472.92 429.964C470.547 429.888 468.627 430.532 467.512 431.776C466.336 433.089 466.489 434.805 466.869 436.235C465.405 436.016 463.683 436.052 462.507 437.366C461.393 438.61 460.965 440.589 461.301 442.94C461.631 445.248 462.673 447.742 464.313 450.153C465.872 452.446 467.831 454.21 469.649 455.511C467.607 456.417 465.331 457.747 463.339 459.678C461.244 461.706 459.719 463.938 458.928 466.132C458.123 468.365 458.141 470.391 458.98 471.835C459.867 473.36 461.546 473.744 463.023 473.825C462.361 475.149 461.864 476.797 462.75 478.323C463.589 479.766 465.339 480.786 467.679 481.192C469.976 481.591 472.67 481.371 475.469 480.557C478.201 479.762 480.494 478.309 482.202 476.995C482.423 479.248 482.981 481.885 484.227 484.427C485.509 487.046 487.16 489.186 489.002 490.616C489.682 491.144 490.37 491.561 491.048 491.86C492.239 492.387 493.402 492.552 494.441 492.328C496.165 491.957 497.049 490.479 497.584 489.099C498.638 490.137 500.053 491.12 501.778 490.749C503.41 490.396 504.92 489.047 506.029 486.947C507.119 484.886 507.742 482.256 507.832 479.341C507.919 476.544 507.338 473.918 506.636 471.813C508.687 472.285 511.339 472.618 514.22 472.209C517.106 471.799 519.652 470.889 521.581 469.58C523.546 468.246 524.721 466.597 524.891 464.935Z" fill="#FFEAEE"/>
<path d="M493.598 462.637C493.759 462.781 493.938 462.895 494.126 462.978C494.902 463.321 495.841 463.145 496.437 462.48C497.178 461.653 497.108 460.381 496.28 459.64L494.295 457.863L496.599 456.525C497.559 455.966 497.886 454.736 497.328 453.776C496.77 452.815 495.539 452.489 494.579 453.047L492.275 454.386L491.714 451.781C491.48 450.695 490.411 450.004 489.325 450.239C488.239 450.472 487.549 451.542 487.783 452.628L488.344 455.233L485.693 454.961C484.588 454.849 483.601 455.652 483.488 456.757C483.397 457.646 483.9 458.459 484.675 458.802C484.863 458.885 485.068 458.94 485.284 458.962L487.934 459.234L486.858 461.67C486.409 462.686 486.868 463.874 487.884 464.322C488.899 464.771 490.087 464.312 490.536 463.296L491.613 460.859L493.598 462.637Z" fill="#FF81AD"/>
<path d="M496.224 459.554L494.324 457.845L496.615 456.42C497.57 455.825 497.921 454.58 497.399 453.638C496.876 452.695 495.679 452.414 494.725 453.007L492.434 454.433L492.434 454.433L487.879 464.552C488.863 464.965 490.038 464.461 490.503 463.427L491.62 460.946L493.519 462.655C493.674 462.794 493.846 462.901 494.028 462.978C494.779 463.293 495.704 463.083 496.305 462.395C497.052 461.538 497.015 460.266 496.224 459.554Z" fill="#FF81AD"/>
<path d="M494.829 466.023C494.627 464.933 493.588 464.274 492.509 464.55C491.43 464.827 490.721 465.934 490.923 467.023L491.685 471.112C491.808 471.769 492.234 472.269 492.789 472.503C493.155 472.657 493.577 472.694 494.006 472.585C495.084 472.308 495.794 471.201 495.591 470.112L494.829 466.023Z" fill="#FF81AD"/>
<path d="M504.418 456.769L500.302 456.489C499.205 456.414 498.201 457.273 498.06 458.408C497.946 459.322 498.425 460.135 499.188 460.457C499.373 460.536 499.575 460.585 499.79 460.599L503.906 460.88C505.003 460.955 506.007 460.095 506.148 458.96C506.289 457.825 505.515 456.844 504.418 456.769Z" fill="#FF81AD"/>
<path d="M493.784 450.958C494.8 451.407 495.988 450.947 496.437 449.931L498.121 446.119C498.57 445.103 498.111 443.916 497.095 443.467C496.079 443.018 494.892 443.477 494.443 444.493L492.758 448.305C492.309 449.321 492.768 450.509 493.784 450.958Z" fill="#FF81AD"/>
<path d="M496.436 449.931L498.121 446.119C498.57 445.103 498.111 443.916 497.095 443.467L493.784 450.958C494.8 451.407 495.987 450.947 496.436 449.931Z" fill="#FF81AD"/>
<path d="M483.21 453.237C483.985 453.579 484.925 453.404 485.521 452.738C486.262 451.911 486.192 450.639 485.365 449.899L482.26 447.118C481.431 446.377 480.161 446.448 479.42 447.275C478.679 448.103 478.75 449.374 479.577 450.114L482.682 452.894C482.843 453.04 483.022 453.154 483.21 453.237Z" fill="#FF81AD"/>
<path d="M484.66 461.145C484.102 460.185 482.871 459.859 481.91 460.416L478.307 462.51C477.347 463.069 477.02 464.3 477.578 465.26C477.8 465.641 478.128 465.923 478.503 466.088C479.071 466.34 479.748 466.325 480.327 465.988L483.931 463.894C484.891 463.336 485.217 462.106 484.66 461.145Z" fill="#FF81AD"/>
<path d="M309.972 467.98C318.61 476.21 325.174 492.091 320.427 509.808C302.503 513.706 286.948 506.401 279.14 497.385C269.885 486.697 278.606 474.802 289.023 476.877C287.445 466.371 299.736 458.223 309.972 467.98Z" fill="#FFA4B8"/>
<path d="M292.656 507.123C287.595 504.888 282.76 501.567 279.139 497.384C269.83 486.629 278.763 474.713 289.022 476.876C287.935 469.646 293.417 463.535 300.282 463.604C306.281 479.003 304.732 495.717 292.656 507.123Z" fill="#FFBFCB"/>
<path d="M750.589 369.218C741.951 360.988 735.387 345.107 740.134 327.39C758.058 323.492 773.612 330.798 781.421 339.813C790.675 350.501 781.955 362.396 771.538 360.322C773.116 370.827 760.825 378.975 750.589 369.218Z" fill="#FFA4B8"/>
<path d="M767.906 330.075C772.967 332.31 777.803 335.632 781.423 339.814C790.733 350.569 781.8 362.485 771.54 360.322C772.628 367.552 767.145 373.663 760.28 373.594C754.282 358.195 755.83 341.481 767.906 330.075Z" fill="#FFBFCB"/>
<path d="M637.639 83.3211C649.453 80.1084 660.424 93.0849 650.635 106.105C642.373 117.095 625.078 126.733 604.167 123.678C597.302 103.691 603.576 84.9117 612.85 74.7581C623.839 62.7373 638.62 71.1179 637.639 83.3211Z" fill="#FFA4B8"/>
<path d="M610.567 124.231C608.347 124.17 605.945 123.943 604.167 123.678C597.302 103.691 603.576 84.9117 612.85 74.7581C616.152 71.1613 620.388 68.7471 625.185 68.93C632.134 90.3651 628.101 111.06 610.567 124.231Z" fill="#FFBFCB"/>
<path d="M532.238 315.774C520.425 318.987 509.454 306.01 519.243 292.99C527.504 282 544.799 272.362 565.71 275.418C572.575 295.404 566.301 314.184 557.028 324.337C546.038 336.358 531.257 327.977 532.238 315.774Z" fill="#FFA4B8"/>
<path d="M559.31 274.865C561.53 274.925 563.933 275.152 565.71 275.418C572.575 295.404 566.301 314.184 557.028 324.337C553.726 327.934 549.489 330.348 544.692 330.165C537.743 308.73 541.776 288.035 559.31 274.865Z" fill="#FFBFCB"/>
<path d="M166.618 383.632C167.259 407.032 154.402 424.799 141.237 432.451C125.639 441.523 112.795 427.76 117.868 415.193C104.326 414.671 97.027 397.319 111.688 386.807C124.062 377.929 145.538 373.472 166.618 383.632Z" fill="#FFA4B8"/>
<path d="M126.162 434.487C118.692 431.73 114.629 423.224 117.869 415.192C104.327 414.67 97.0275 397.318 111.689 386.806C119.886 380.919 130.773 377.853 141.024 377.809C151.102 398.217 146.123 422.152 126.162 434.487Z" fill="#FFBFCB"/>
<path d="M704.221 404.189C704.314 397.876 696.78 398.555 696.324 398.385C696.641 397.912 703.121 394.141 699.299 389.046C688.614 374.796 667.747 391.891 667.747 391.891C667.747 391.891 677.556 366.762 660.703 361.005C654.726 358.963 653.043 366.336 652.74 366.719C652.39 366.273 650.807 358.946 644.78 361.005C627.924 366.762 637.736 391.891 637.736 391.891C637.736 391.891 616.869 374.796 606.184 389.046C602.395 394.101 608.889 397.979 609.159 398.385C608.626 398.582 601.169 397.822 601.262 404.189C601.532 421.998 628.464 420.432 628.464 420.432C628.464 420.432 605.754 434.996 616.006 449.563C619.641 454.727 625.338 449.75 625.805 449.616C625.828 450.186 622.803 457.043 628.887 458.922C645.906 464.17 652.74 438.071 652.74 438.071C652.74 438.071 659.577 464.17 676.596 458.922C682.63 457.06 679.658 450.106 679.678 449.616C680.224 449.773 685.812 454.771 689.477 449.563C699.729 434.996 677.019 420.432 677.019 420.432C677.019 420.432 703.954 421.998 704.221 404.189Z" fill="#FFB7C4"/>
<path d="M624.023 450.722C621.94 451.885 618.492 453.094 616.006 449.563C609.567 440.414 616.132 431.265 621.903 425.728C626.511 421.308 634.341 427.797 629.612 433.089C625.43 437.769 621.792 444.111 624.023 450.722Z" fill="#FFB7C4"/>
<path d="M616.179 394.044C612.391 399.099 618.885 402.977 619.154 403.383C618.621 403.58 611.165 402.82 611.258 409.188C611.325 413.576 613.011 416.788 615.513 419.133C608.569 417.371 601.402 413.336 601.262 404.19C601.169 397.823 608.626 398.582 609.159 398.386C608.889 397.979 602.395 394.101 606.184 389.046C614.327 378.184 628.384 385.531 634.611 389.643C628.351 387.57 621.16 387.404 616.179 394.044Z" fill="#FFB7C4"/>
<path d="M652.553 366.286C644.736 370.386 644.26 379.745 645.298 387.042C646.07 392.462 638.13 393.697 636.704 388.731C634.714 381.797 631.624 365.501 644.78 361.005C650.081 359.193 651.944 364.644 652.553 366.286Z" fill="#FFB7C4"/>
<path d="M668.184 436.471C667.362 436.471 666.552 436.092 666.03 435.378L658.83 425.529C657.961 424.341 658.22 422.673 659.408 421.805C660.597 420.935 662.265 421.195 663.133 422.383L670.333 432.232C671.631 434.009 670.331 436.471 668.184 436.471Z" fill="#FF8CA5"/>
<path d="M637.313 436.471C635.164 436.471 633.866 434.008 635.163 432.232L642.364 422.383C643.232 421.195 644.9 420.935 646.089 421.804C647.277 422.673 647.536 424.341 646.667 425.529L639.467 435.378C638.945 436.092 638.134 436.471 637.313 436.471Z" fill="#FF8CA5"/>
<path d="M666.035 410.978C664.563 410.978 663.368 409.785 663.368 408.313C663.368 407.099 664.177 406.076 665.286 405.753L676.784 401.953C678.182 401.491 679.69 402.25 680.151 403.648C680.613 405.046 679.854 406.553 678.457 407.015C665.896 411.166 666.648 410.978 666.035 410.978Z" fill="#FF8CA5"/>
<path d="M639.457 410.979C638.847 410.979 639.609 411.17 627.033 407.015C625.635 406.554 624.876 405.046 625.338 403.648C625.8 402.25 627.306 401.491 628.705 401.953L640.293 405.782C641.691 406.243 642.45 407.751 641.988 409.149C641.618 410.269 640.576 410.979 639.457 410.979Z" fill="#FF8CA5"/>
<path d="M652.746 401.339C651.274 401.339 650.08 400.145 650.08 398.673V386.475C650.08 385.003 651.274 383.81 652.746 383.81C654.218 383.81 655.411 385.003 655.411 386.475V398.673C655.411 400.145 654.218 401.339 652.746 401.339Z" fill="#FF8CA5"/>
<path d="M378.183 335.551C378.277 329.237 370.743 329.917 370.287 329.747C370.603 329.274 377.084 325.502 373.262 320.408C362.577 306.157 341.709 323.253 341.709 323.253C341.709 323.253 351.518 298.124 334.666 292.367C328.688 290.324 327.006 297.698 326.703 298.081C326.353 297.634 324.77 290.308 318.743 292.367C301.887 298.124 311.699 323.253 311.699 323.253C311.699 323.253 290.832 306.157 280.146 320.408C276.358 325.462 282.852 329.341 283.122 329.747C282.589 329.944 275.132 329.184 275.225 335.551C275.495 353.36 302.427 351.794 302.427 351.794C302.427 351.794 279.717 366.358 289.969 380.925C293.604 386.089 299.301 381.111 299.768 380.978C299.791 381.548 296.766 388.405 302.85 390.284C319.869 395.532 326.703 369.433 326.703 369.433C326.703 369.433 333.54 395.532 350.559 390.284C356.593 388.421 353.621 381.468 353.641 380.978C354.187 381.135 359.775 386.132 363.44 380.925C373.692 366.358 350.982 351.794 350.982 351.794C350.982 351.794 377.917 353.36 378.183 335.551Z" fill="#FFB7C4"/>
<path d="M297.986 382.084C295.903 383.247 292.455 384.456 289.969 380.924C283.53 371.776 290.095 362.627 295.866 357.09C300.473 352.67 308.304 359.159 303.575 364.451C299.393 369.13 295.754 375.473 297.986 382.084Z" fill="#FFB7C4"/>
<path d="M290.142 325.406C286.354 330.46 292.848 334.339 293.117 334.745C292.584 334.942 285.128 334.182 285.221 340.549C285.287 344.937 286.973 348.149 289.476 350.495C282.532 348.732 275.365 344.697 275.225 335.551C275.132 329.184 282.589 329.944 283.122 329.747C282.852 329.341 276.358 325.463 280.146 320.408C288.29 309.546 302.347 316.893 308.574 321.004C302.314 318.932 295.123 318.765 290.142 325.406Z" fill="#FFB7C4"/>
<path d="M326.516 297.648C318.698 301.748 318.223 311.107 319.261 318.403C320.033 323.824 312.093 325.059 310.667 320.093C308.677 313.158 305.587 296.862 318.743 292.367C324.044 290.555 325.907 296.006 326.516 297.648Z" fill="#FFB7C4"/>
<path d="M342.144 367.83C341.322 367.83 340.512 367.452 339.99 366.738L332.79 356.888C331.921 355.7 332.18 354.032 333.368 353.164C334.557 352.294 336.225 352.554 337.093 353.743L344.293 363.592C345.592 365.368 344.291 367.83 342.144 367.83Z" fill="#FF8CA5"/>
<path d="M311.271 367.83C309.123 367.83 307.824 365.367 309.122 363.591L316.322 353.742C317.19 352.554 318.858 352.294 320.047 353.163C321.235 354.032 321.495 355.7 320.626 356.888L313.425 366.737C312.904 367.451 312.093 367.83 311.271 367.83Z" fill="#FF8CA5"/>
<path d="M339.993 342.334C338.521 342.334 337.326 341.141 337.326 339.669C337.326 338.456 338.135 337.432 339.244 337.109L350.742 333.31C352.14 332.848 353.648 333.607 354.109 335.004C354.571 336.402 353.812 337.91 352.415 338.372C339.854 342.522 340.606 342.334 339.993 342.334Z" fill="#FF8CA5"/>
<path d="M313.415 342.335C312.805 342.335 313.567 342.527 300.991 338.372C299.593 337.91 298.834 336.403 299.296 335.005C299.758 333.607 301.264 332.848 302.663 333.31L314.251 337.138C315.649 337.6 316.408 339.107 315.946 340.505C315.576 341.625 314.534 342.335 313.415 342.335Z" fill="#FF8CA5"/>
<path d="M326.704 332.697C325.232 332.697 324.039 331.504 324.039 330.032V317.834C324.039 316.362 325.232 315.168 326.704 315.168C328.176 315.168 329.37 316.362 329.37 317.834V330.032C329.37 331.504 328.176 332.697 326.704 332.697Z" fill="#FF8CA5"/>
</svg>
