<svg width="1001" height="935" viewBox="0 0 1001 935" fill="none" xmlns="http://www.w3.org/2000/svg">
<path d="M934.065 385.936C934.065 599.083 739.901 565.121 500.388 565.121C260.875 565.121 66.7108 599.083 66.7108 385.936C66.7108 172.789 260.875 -0.000244141 500.388 -0.000244141C739.901 -0.000244141 934.065 172.789 934.065 385.936Z" fill="#836141"/>
<path d="M367.027 216.825C367.027 227.879 359.559 233.504 350.347 233.504C341.135 233.504 333.667 227.879 333.667 216.825C333.667 205.77 341.135 200.145 350.347 200.145C359.559 200.145 367.027 205.77 367.027 216.825Z" fill="#463322"/>
<path d="M431.095 266.227C430.237 278.38 423.679 283.968 414.538 285.114C405.398 286.261 395.548 280.083 395.912 270.641C396.563 253.749 433.112 225.339 433.112 225.339C433.112 225.339 431.953 254.074 431.095 266.227Z" fill="#84E1FF"/>
<path d="M266.921 250.189C266.921 261.244 259.453 266.869 250.241 266.869C241.029 266.869 233.561 261.244 233.561 250.189C233.561 239.135 241.029 233.51 250.241 233.51C259.453 233.51 266.921 239.135 266.921 250.189Z" fill="#463322"/>
<path d="M333.63 283.548C333.63 294.602 326.162 300.227 316.95 300.227C307.738 300.227 300.27 294.602 300.27 283.548C300.27 272.493 307.738 266.868 316.95 266.868C326.162 266.868 333.63 272.493 333.63 283.548Z" fill="#463322"/>
<path d="M633.81 216.821C633.81 205.767 641.277 200.142 650.489 200.142C659.702 200.142 667.169 205.767 667.169 216.821C667.169 227.875 659.702 233.501 650.489 233.501C641.277 233.501 633.81 227.875 633.81 216.821Z" fill="#463322"/>
<path d="M733.925 250.176C733.925 261.23 741.392 266.855 750.604 266.855C759.816 266.855 767.284 261.23 767.284 250.176C767.284 239.121 759.816 233.496 750.604 233.496C741.392 233.496 733.925 239.121 733.925 250.176Z" fill="#463322"/>
<path d="M667.208 283.54C667.208 294.594 674.675 300.22 683.887 300.22C693.099 300.22 700.567 294.594 700.567 283.54C700.567 272.486 693.099 266.861 683.887 266.861C674.675 266.861 667.208 272.486 667.208 283.54Z" fill="#463322"/>
<path d="M550.444 200.148C550.444 200.203 550.444 200.258 550.444 200.313C550.443 200.258 550.443 200.203 550.443 200.148C550.443 200.092 550.443 200.037 550.444 199.982C550.444 200.037 550.444 200.092 550.444 200.148Z" fill="black" stroke="black" stroke-width="33.3595"/>
<path d="M450.378 200.148C450.378 200.203 450.378 200.258 450.378 200.313C450.378 200.258 450.378 200.203 450.378 200.148C450.378 200.092 450.378 200.037 450.378 199.982C450.378 200.037 450.378 200.092 450.378 200.148Z" fill="black" stroke="black" stroke-width="33.3595"/>
<path d="M467.052 283.561C467.052 283.561 488.568 266.881 500.412 266.881C512.255 266.881 533.772 283.561 533.772 283.561" stroke="black" stroke-width="33.3595" stroke-linecap="round"/>
<path d="M66.7091 433.675H934.064L807.228 909.298C803.334 923.901 790.109 934.061 774.995 934.061H225.777C210.664 934.061 197.439 923.901 193.544 909.298L66.7091 433.675Z" fill="#F03030"/>
<g filter="url(#filter0_d_1328_6555)">
<path d="M0 400.309C0 381.885 14.9355 366.949 33.3595 366.949H967.434C985.858 366.949 1000.79 381.885 1000.79 400.309V467.026C1000.79 485.45 985.858 500.386 967.434 500.386H33.3595C14.9355 500.386 0 485.45 0 467.026V400.309Z" fill="#F03030"/>
</g>
<path d="M422.297 635.092C422.297 648.321 419.79 659.575 414.775 668.854C409.799 678.134 403.007 685.222 394.399 690.119C385.83 694.976 376.195 697.404 365.494 697.404C354.713 697.404 345.039 694.956 336.47 690.059C327.901 685.163 321.129 678.075 316.153 668.795C311.178 659.515 308.69 648.281 308.69 635.092C308.69 621.864 311.178 610.609 316.153 601.33C321.129 592.05 327.901 584.982 336.47 580.125C345.039 575.228 354.713 572.78 365.494 572.78C376.195 572.78 385.83 575.228 394.399 580.125C403.007 584.982 409.799 592.05 414.775 601.33C419.79 610.609 422.297 621.864 422.297 635.092ZM396.294 635.092C396.294 626.523 395.011 619.297 392.444 613.413C389.917 607.529 386.343 603.067 381.723 600.027C377.103 596.986 371.693 595.466 365.494 595.466C359.294 595.466 353.884 596.986 349.264 600.027C344.644 603.067 341.051 607.529 338.484 613.413C335.957 619.297 334.693 626.523 334.693 635.092C334.693 643.661 335.957 650.887 338.484 656.771C341.051 662.655 344.644 667.117 349.264 670.157C353.884 673.198 359.294 674.718 365.494 674.718C371.693 674.718 377.103 673.198 381.723 670.157C386.343 667.117 389.917 662.655 392.444 656.771C395.011 650.887 396.294 643.661 396.294 635.092ZM440.822 695.746V604.765H465.285V620.639H466.232C467.891 614.993 470.675 610.728 474.584 607.845C478.493 604.923 482.995 603.462 488.089 603.462C489.353 603.462 490.715 603.541 492.176 603.699C493.637 603.857 494.92 604.074 496.026 604.351V626.74C494.842 626.385 493.203 626.069 491.11 625.793C489.017 625.516 487.102 625.378 485.364 625.378C481.653 625.378 478.336 626.187 475.413 627.806C472.531 629.386 470.24 631.597 468.542 634.44C466.884 637.284 466.055 640.561 466.055 644.273V695.746H440.822ZM546.299 697.523C536.941 697.523 528.885 695.627 522.133 691.836C515.42 688.006 510.247 682.596 506.614 675.607C502.981 668.578 501.165 660.266 501.165 650.67C501.165 641.311 502.981 633.098 506.614 626.03C510.247 618.961 515.36 613.453 521.955 609.504C528.589 605.555 536.368 603.581 545.292 603.581C551.295 603.581 556.882 604.548 562.055 606.483C567.267 608.378 571.809 611.241 575.678 615.072C579.588 618.902 582.628 623.719 584.8 629.524C586.972 635.289 588.058 642.042 588.058 649.782V656.712H511.234V641.074H564.306C564.306 637.442 563.516 634.223 561.937 631.42C560.357 628.616 558.165 626.424 555.362 624.845C552.598 623.226 549.379 622.416 545.707 622.416C541.877 622.416 538.481 623.305 535.519 625.082C532.597 626.819 530.307 629.169 528.648 632.13C526.99 635.053 526.141 638.31 526.101 641.904V656.771C526.101 661.273 526.93 665.162 528.589 668.44C530.287 671.717 532.676 674.244 535.756 676.021C538.836 677.798 542.489 678.687 546.714 678.687C549.518 678.687 552.084 678.292 554.414 677.502C556.744 676.712 558.738 675.528 560.397 673.948C562.055 672.369 563.319 670.434 564.187 668.143L587.525 669.684C586.34 675.291 583.912 680.187 580.239 684.373C576.606 688.519 571.907 691.757 566.142 694.087C560.416 696.377 553.802 697.523 546.299 697.523ZM662.868 657.008V604.765H688.101V695.746H663.875V679.22H662.927C660.874 684.551 657.458 688.835 652.68 692.073C647.941 695.311 642.156 696.93 635.325 696.93C629.244 696.93 623.893 695.548 619.273 692.784C614.653 690.02 611.04 686.091 608.434 680.997C605.867 675.903 604.564 669.802 604.524 662.694V604.765H629.757V658.193C629.797 663.563 631.238 667.808 634.081 670.927C636.924 674.047 640.735 675.607 645.513 675.607C648.553 675.607 651.397 674.916 654.042 673.534C656.688 672.112 658.82 670.019 660.439 667.255C662.098 664.491 662.907 661.075 662.868 657.008Z" fill="white"/>
<defs>
<filter id="filter0_d_1328_6555" x="0" y="366.949" width="1000.79" height="150.116" filterUnits="userSpaceOnUse" color-interpolation-filters="sRGB">
<feFlood flood-opacity="0" result="BackgroundImageFix"/>
<feColorMatrix in="SourceAlpha" type="matrix" values="0 0 0 0 0 0 0 0 0 0 0 0 0 0 0 0 0 0 127 0" result="hardAlpha"/>
<feOffset dy="16.6797"/>
<feComposite in2="hardAlpha" operator="out"/>
<feColorMatrix type="matrix" values="0 0 0 0 0 0 0 0 0 0 0 0 0 0 0 0 0 0 0.25 0"/>
<feBlend mode="normal" in2="BackgroundImageFix" result="effect1_dropShadow_1328_6555"/>
<feBlend mode="normal" in="SourceGraphic" in2="effect1_dropShadow_1328_6555" result="shape"/>
</filter>
</defs>
</svg>
