<svg width="52" height="49" viewBox="0 0 52 49" fill="none" xmlns="http://www.w3.org/2000/svg">
<path d="M48.3803 19.9919C48.3803 31.0331 38.323 29.2738 25.9167 29.2738C13.5104 29.2738 3.45312 31.0331 3.45312 19.9919C3.45312 8.95067 13.5104 0 25.9167 0C38.323 0 48.3803 8.95067 48.3803 19.9919Z" fill="#836141"/>
<path d="M19.0092 11.2317C19.0092 11.8043 18.6224 12.0957 18.1452 12.0957C17.6681 12.0957 17.2812 11.8043 17.2812 11.2317C17.2812 10.6591 17.6681 10.3677 18.1452 10.3677C18.6224 10.3677 19.0092 10.6591 19.0092 11.2317Z" fill="#463322"/>
<path d="M13.8256 12.9597C13.8256 13.5323 13.4388 13.8237 12.9616 13.8237C12.4845 13.8237 12.0977 13.5323 12.0977 12.9597C12.0977 12.3871 12.4845 12.0957 12.9616 12.0957C13.4388 12.0957 13.8256 12.3871 13.8256 12.9597Z" fill="#463322"/>
<path d="M17.2788 14.6877C17.2788 15.2604 16.8919 15.5518 16.4148 15.5518C15.9376 15.5518 15.5508 15.2604 15.5508 14.6877C15.5508 14.1151 15.9376 13.8237 16.4148 13.8237C16.8919 13.8237 17.2788 14.1151 17.2788 14.6877Z" fill="#463322"/>
<path d="M32.8267 11.2317C32.8267 10.6591 33.2135 10.3677 33.6907 10.3677C34.1679 10.3677 34.5547 10.6591 34.5547 11.2317C34.5547 11.8043 34.1679 12.0957 33.6907 12.0957C33.2135 12.0957 32.8267 11.8043 32.8267 11.2317Z" fill="#463322"/>
<path d="M38.0103 12.9597C38.0103 13.5323 38.3971 13.8237 38.8743 13.8237C39.3515 13.8237 39.7383 13.5323 39.7383 12.9597C39.7383 12.3871 39.3515 12.0957 38.8743 12.0957C38.3971 12.0957 38.0103 12.3871 38.0103 12.9597Z" fill="#463322"/>
<path d="M34.5572 14.6877C34.5572 15.2604 34.944 15.5518 35.4212 15.5518C35.8983 15.5518 36.2852 15.2604 36.2852 14.6877C36.2852 14.1151 35.8983 13.8237 35.4212 13.8237C34.944 13.8237 34.5572 14.1151 34.5572 14.6877Z" fill="#463322"/>
<mask id="path-8-inside-1_1369_6579" fill="white">
<path d="M29.3725 10.3682C29.3725 11.5134 28.9857 12.0962 28.5085 12.0962C28.0314 12.0962 27.6445 11.5134 27.6445 10.3682C27.6445 9.22293 28.0314 8.64014 28.5085 8.64014C28.9857 8.64014 29.3725 9.22293 29.3725 10.3682Z"/>
</mask>
<path d="M29.3725 10.3682C29.3725 11.5134 28.9857 12.0962 28.5085 12.0962C28.0314 12.0962 27.6445 11.5134 27.6445 10.3682C27.6445 9.22293 28.0314 8.64014 28.5085 8.64014C28.9857 8.64014 29.3725 9.22293 29.3725 10.3682Z" fill="black"/>
<path d="M27.6445 10.3682C27.6445 10.7786 27.5702 10.8937 27.5998 10.8391C27.6195 10.8026 27.6908 10.6861 27.8523 10.5727C28.0265 10.4505 28.2569 10.3682 28.5085 10.3682V13.8242C29.5686 13.8242 30.2818 13.1443 30.6391 12.4842C30.9814 11.8518 31.1005 11.103 31.1005 10.3682H27.6445ZM28.5085 10.3682C28.7602 10.3682 28.9905 10.4505 29.1648 10.5727C29.3263 10.6861 29.3975 10.8026 29.4173 10.8391C29.4468 10.8937 29.3725 10.7786 29.3725 10.3682H25.9165C25.9165 11.103 26.0356 11.8518 26.3779 12.4842C26.7352 13.1443 27.4484 13.8242 28.5085 13.8242V10.3682ZM29.3725 10.3682C29.3725 9.95775 29.4468 9.84259 29.4173 9.89725C29.3975 9.93377 29.3263 10.0503 29.1648 10.1636C28.9905 10.2859 28.7602 10.3681 28.5085 10.3681V6.91214C27.4484 6.91214 26.7352 7.59201 26.3779 8.25213C26.0356 8.88449 25.9165 9.63335 25.9165 10.3682H29.3725ZM28.5085 10.3681C28.2569 10.3681 28.0265 10.2859 27.8523 10.1636C27.6908 10.0503 27.6195 9.93377 27.5998 9.89725C27.5702 9.84259 27.6445 9.95775 27.6445 10.3682H31.1005C31.1005 9.63335 30.9814 8.88449 30.6391 8.25213C30.2818 7.59201 29.5686 6.91214 28.5085 6.91214V10.3681Z" fill="black" mask="url(#path-8-inside-1_1369_6579)"/>
<mask id="path-10-inside-2_1369_6579" fill="white">
<path d="M24.1967 10.3682C24.1967 11.5134 23.8099 12.0962 23.3327 12.0962C22.8556 12.0962 22.4688 11.5134 22.4688 10.3682C22.4688 9.22293 22.8556 8.64014 23.3327 8.64014C23.8099 8.64014 24.1967 9.22293 24.1967 10.3682Z"/>
</mask>
<path d="M24.1967 10.3682C24.1967 11.5134 23.8099 12.0962 23.3327 12.0962C22.8556 12.0962 22.4688 11.5134 22.4688 10.3682C22.4688 9.22293 22.8556 8.64014 23.3327 8.64014C23.8099 8.64014 24.1967 9.22293 24.1967 10.3682Z" fill="black"/>
<path d="M22.4687 10.3682C22.4687 10.7786 22.3944 10.8937 22.424 10.8391C22.4438 10.8026 22.515 10.6861 22.6765 10.5727C22.8507 10.4505 23.0811 10.3682 23.3327 10.3682V13.8242C24.3929 13.8242 25.106 13.1443 25.4633 12.4842C25.8056 11.8518 25.9247 11.103 25.9247 10.3682H22.4687ZM23.3327 10.3682C23.5844 10.3682 23.8147 10.4505 23.989 10.5727C24.1505 10.6861 24.2217 10.8026 24.2415 10.8391C24.2711 10.8937 24.1968 10.7786 24.1968 10.3682H20.7407C20.7407 11.103 20.8599 11.8518 21.2021 12.4842C21.5594 13.1443 22.2726 13.8242 23.3327 13.8242V10.3682ZM24.1968 10.3682C24.1968 9.95775 24.2711 9.84259 24.2415 9.89725C24.2217 9.93377 24.1505 10.0503 23.989 10.1636C23.8147 10.2859 23.5844 10.3681 23.3327 10.3681V6.91214C22.2726 6.91214 21.5594 7.59201 21.2021 8.25213C20.8599 8.88449 20.7407 9.63335 20.7407 10.3682H24.1968ZM23.3327 10.3681C23.0811 10.3681 22.8507 10.2859 22.6765 10.1636C22.515 10.0503 22.4438 9.93377 22.424 9.89725C22.3944 9.84259 22.4687 9.95775 22.4687 10.3682H25.9247C25.9247 9.63335 25.8056 8.88449 25.4633 8.25213C25.106 7.59201 24.3929 6.91214 23.3327 6.91214V10.3681Z" fill="black" mask="url(#path-10-inside-2_1369_6579)"/>
<path d="M24.1914 14.688C24.1914 14.688 25.3059 13.824 25.9194 13.824C26.5328 13.824 27.6473 14.688 27.6473 14.688" stroke="black" stroke-width="1.728" stroke-linecap="round"/>
<path d="M3.45312 22.4639H48.3803L41.8105 47.1016C41.6088 47.858 40.9237 48.3844 40.1408 48.3844H11.6926C10.9097 48.3844 10.2247 47.858 10.0229 47.1016L3.45312 22.4639Z" fill="#F03030"/>
<g filter="url(#filter0_d_1369_6579)">
<path d="M0 20.7363C0 19.782 0.773653 19.0083 1.728 19.0083H50.1111C51.0654 19.0083 51.8391 19.782 51.8391 20.7363V24.1924C51.8391 25.1468 51.0654 25.9204 50.1111 25.9204H1.728C0.773649 25.9204 0 25.1468 0 24.1924V20.7363Z" fill="#F03030"/>
</g>
<path d="M21.8751 32.5061C21.8751 33.1914 21.7453 33.7743 21.4855 34.255C21.2278 34.7357 20.8759 35.1028 20.43 35.3565C19.9862 35.6081 19.4871 35.7339 18.9328 35.7339C18.3743 35.7339 17.8732 35.607 17.4293 35.3534C16.9855 35.0998 16.6347 34.7326 16.377 34.2519C16.1192 33.7712 15.9904 33.1893 15.9904 32.5061C15.9904 31.8209 16.1192 31.2379 16.377 30.7573C16.6347 30.2766 16.9855 29.9104 17.4293 29.6589C17.8732 29.4052 18.3743 29.2784 18.9328 29.2784C19.4871 29.2784 19.9862 29.4052 20.43 29.6589C20.8759 29.9104 21.2278 30.2766 21.4855 30.7573C21.7453 31.2379 21.8751 31.8209 21.8751 32.5061ZM20.5282 32.5061C20.5282 32.0623 20.4617 31.6879 20.3288 31.3832C20.1979 31.0784 20.0128 30.8473 19.7734 30.6898C19.5341 30.5323 19.2539 30.4535 18.9328 30.4535C18.6116 30.4535 18.3314 30.5323 18.0921 30.6898C17.8528 30.8473 17.6666 31.0784 17.5337 31.3832C17.4028 31.6879 17.3373 32.0623 17.3373 32.5061C17.3373 32.95 17.4028 33.3243 17.5337 33.6291C17.6666 33.9339 17.8528 34.165 18.0921 34.3225C18.3314 34.48 18.6116 34.5587 18.9328 34.5587C19.2539 34.5587 19.5341 34.48 19.7734 34.3225C20.0128 34.165 20.1979 33.9339 20.3288 33.6291C20.4617 33.3243 20.5282 32.95 20.5282 32.5061ZM22.8347 35.6479V30.9352H24.1019V31.7575H24.151C24.2369 31.465 24.3811 31.2441 24.5836 31.0948C24.7861 30.9434 25.0193 30.8677 25.2831 30.8677C25.3486 30.8677 25.4192 30.8718 25.4948 30.88C25.5705 30.8882 25.637 30.8994 25.6943 30.9137V32.0735C25.6329 32.0551 25.548 32.0387 25.4396 32.0244C25.3312 32.0101 25.232 32.0029 25.142 32.0029C24.9497 32.0029 24.7779 32.0449 24.6265 32.1287C24.4772 32.2106 24.3586 32.3251 24.2706 32.4724C24.1847 32.6197 24.1418 32.7894 24.1418 32.9817V35.6479H22.8347ZM28.2984 35.74C27.8136 35.74 27.3963 35.6418 27.0466 35.4454C26.6988 35.247 26.4309 34.9668 26.2427 34.6048C26.0545 34.2407 25.9604 33.8101 25.9604 33.3131C25.9604 32.8283 26.0545 32.4028 26.2427 32.0367C26.4309 31.6706 26.6958 31.3852 27.0374 31.1807C27.381 30.9761 27.784 30.8739 28.2462 30.8739C28.5571 30.8739 28.8466 30.924 29.1145 31.0242C29.3845 31.1224 29.6198 31.2707 29.8202 31.4691C30.0227 31.6675 30.1802 31.917 30.2927 32.2177C30.4052 32.5164 30.4615 32.8661 30.4615 33.267V33.626H26.482V32.816H29.2311C29.2311 32.6278 29.1902 32.4611 29.1084 32.3159C29.0266 32.1707 28.913 32.0572 28.7678 31.9753C28.6246 31.8915 28.4579 31.8495 28.2677 31.8495C28.0693 31.8495 27.8934 31.8956 27.74 31.9876C27.5886 32.0776 27.47 32.1993 27.3841 32.3527C27.2982 32.5041 27.2542 32.6728 27.2521 32.859V33.6291C27.2521 33.8623 27.2951 34.0637 27.381 34.2335C27.469 34.4033 27.5927 34.5342 27.7523 34.6262C27.9118 34.7183 28.101 34.7643 28.3199 34.7643C28.4651 34.7643 28.598 34.7439 28.7187 34.7029C28.8394 34.662 28.9427 34.6007 29.0286 34.5189C29.1145 34.437 29.18 34.3368 29.225 34.2182L30.4338 34.2979C30.3725 34.5884 30.2467 34.842 30.0565 35.0589C29.8683 35.2736 29.6249 35.4414 29.3262 35.562C29.0296 35.6807 28.687 35.74 28.2984 35.74ZM34.3366 33.6414V30.9352H35.6436V35.6479H34.3887V34.7919H34.3396C34.2333 35.0681 34.0563 35.29 33.8088 35.4577C33.5634 35.6254 33.2637 35.7093 32.9099 35.7093C32.5949 35.7093 32.3177 35.6377 32.0784 35.4945C31.8391 35.3514 31.6519 35.1478 31.5169 34.884C31.384 34.6201 31.3165 34.3041 31.3144 33.9359V30.9352H32.6215V33.7027C32.6235 33.9809 32.6982 34.2008 32.8454 34.3624C32.9927 34.524 33.1901 34.6048 33.4376 34.6048C33.5951 34.6048 33.7424 34.569 33.8794 34.4974C34.0165 34.4237 34.1269 34.3153 34.2108 34.1722C34.2967 34.029 34.3386 33.852 34.3366 33.6414Z" fill="white"/>
<path d="M22.125 13.1518C22.0798 13.7915 21.7346 14.0856 21.2536 14.1459C20.7725 14.2063 20.254 13.8811 20.2732 13.3842C20.3075 12.4951 22.2311 10.9999 22.2311 10.9999C22.2311 10.9999 22.1701 12.5122 22.125 13.1518Z" fill="#84E1FF"/>
<defs>
<filter id="filter0_d_1369_6579" x="0" y="19.0083" width="51.8398" height="7.77611" filterUnits="userSpaceOnUse" color-interpolation-filters="sRGB">
<feFlood flood-opacity="0" result="BackgroundImageFix"/>
<feColorMatrix in="SourceAlpha" type="matrix" values="0 0 0 0 0 0 0 0 0 0 0 0 0 0 0 0 0 0 127 0" result="hardAlpha"/>
<feOffset dy="0.864001"/>
<feComposite in2="hardAlpha" operator="out"/>
<feColorMatrix type="matrix" values="0 0 0 0 0 0 0 0 0 0 0 0 0 0 0 0 0 0 0.25 0"/>
<feBlend mode="normal" in2="BackgroundImageFix" result="effect1_dropShadow_1369_6579"/>
<feBlend mode="normal" in="SourceGraphic" in2="effect1_dropShadow_1369_6579" result="shape"/>
</filter>
</defs>
</svg>
