<svg width="1311" height="880" viewBox="0 0 1311 880" fill="none" xmlns="http://www.w3.org/2000/svg">
<path d="M276.896 693.711C268.742 695.35 260.323 692.703 254.592 686.698C228.757 659.628 211.216 625.994 203.865 589.432C196.768 554.132 199.521 517.539 211.828 483.608C220.192 460.553 232.796 439.101 248.868 420.371C219.965 397.041 199.989 364.601 192.614 327.921C175.02 240.41 233.739 154.532 323.509 136.482C413.276 118.433 500.626 174.942 518.221 262.453C525.596 299.128 519.711 336.769 502.075 369.459C524.139 380.523 544.052 395.435 560.678 413.466C585.142 440.004 601.826 472.689 608.924 507.989C616.275 544.553 613.096 582.353 599.732 617.305C596.767 625.056 590.026 630.752 581.873 632.391L276.896 693.711Z" fill="#E8EEFF"/>
<path d="M315.937 298.347C317.523 306.237 312.251 313.956 304.155 315.584C296.062 317.211 288.214 312.13 286.628 304.24C285.041 296.349 290.314 288.631 298.408 287.003C306.504 285.375 314.35 290.456 315.937 298.347Z" fill="#636052"/>
<path d="M422.373 276.946C423.959 284.837 418.687 292.555 410.595 294.182C402.501 295.81 394.654 290.729 393.068 282.838C391.481 274.947 396.754 267.229 404.849 265.602C412.942 263.974 420.786 269.055 422.373 276.946Z" fill="#636052"/>
<path d="M388.817 317.021C391.562 330.671 382.438 344.019 368.444 346.832C354.444 349.647 340.87 340.864 338.125 327.213C335.381 313.562 344.505 300.215 358.505 297.4C372.5 294.587 386.072 303.368 388.817 317.021Z" fill="#EF6B3A"/>
<path d="M390.816 462.619C403.98 459.972 412.506 447.155 409.859 433.991C407.212 420.827 394.395 412.301 381.231 414.948C368.067 417.595 359.541 430.412 362.188 443.576C364.835 456.74 377.652 465.266 390.816 462.619Z" fill="#636052"/>
<path d="M408.425 550.202C421.589 547.555 430.115 534.738 427.469 521.574C424.822 508.41 412.004 499.884 398.84 502.531C385.676 505.177 377.151 517.995 379.797 531.159C382.444 544.323 395.261 552.848 408.425 550.202Z" fill="#636052"/>
<path opacity="0.1" d="M300.815 677.409C274.98 650.339 257.439 616.705 250.088 580.143C242.99 544.844 245.743 508.25 258.051 474.319C266.414 451.264 279.018 429.812 295.091 411.082C266.188 387.753 246.211 355.314 238.836 318.633C222.78 238.78 270.276 160.295 346.917 133.456C339.163 133.921 331.347 134.911 323.512 136.487C233.742 154.536 175.023 240.414 192.618 327.926C199.993 364.604 219.967 397.044 248.873 420.375C232.801 439.106 220.197 460.558 211.833 483.612C199.525 517.542 196.772 554.136 203.87 589.436C211.222 625.999 228.762 659.633 254.597 686.702C260.326 692.708 268.745 695.355 276.899 693.715L323.119 684.422C314.964 686.062 306.546 683.415 300.815 677.409Z" fill="#414042"/>
<path d="M253.55 417.283L498.071 366.421" stroke="#FB5C5C" stroke-width="18.7199" stroke-linecap="round"/>
<path d="M581.615 247.193C657.764 157.76 796.507 159.737 870.077 251.304L1160.16 612.345C1229.52 698.668 1184.17 826.481 1074.89 844.406C963.947 862.604 833.258 879.469 728.331 879.832C618.575 880.212 481.275 862.728 365.998 843.961C256.864 826.194 211.226 698.755 280.149 612.295L418.274 439.027L581.615 247.193Z" fill="#78AEFF"/>
<path d="M512.056 343.981L505.444 330.155L578.917 240.541C655.867 146.686 800.411 149.74 873.328 246.761L936.003 330.155L926.549 343.332C916.221 357.729 896.243 361.156 881.708 351.025L879.657 349.596C868.925 342.116 854.41 350.906 856.065 363.883C859.982 394.601 820.616 410.584 802.011 385.829L787.531 366.563C779.307 355.619 762.113 358.793 758.337 371.951L757.686 374.22C750.304 399.946 716.491 405.8 700.89 384.053C693.402 373.616 677.29 375.802 672.855 387.858L671.551 391.402C659.836 423.244 614.618 422.716 603.65 390.61L595.728 367.42C592.701 358.557 582.027 355.062 574.344 360.417C552.956 375.324 523.304 367.499 512.056 343.981Z" fill="#D3E0FF"/>
<g clip-path="url(#clip0_1001_7396)">
<mask id="mask0_1001_7396" style="mask-type:luminance" maskUnits="userSpaceOnUse" x="411" y="542" width="95" height="95">
<path d="M411.833 542.88H505.433V636.479H411.833V542.88Z" fill="white"/>
</mask>
<g mask="url(#mask0_1001_7396)">
<path d="M502.617 586.857H496.264L499.432 583.689C500.535 582.586 500.535 580.797 499.432 579.694C498.329 578.591 496.54 578.591 495.437 579.694L488.274 586.857H480.284L483.452 583.689C484.555 582.586 484.555 580.797 483.452 579.694C482.349 578.591 480.56 578.591 479.457 579.694L472.294 586.857H465.462L481.593 570.726H483.247H491.722C493.282 570.726 494.547 569.461 494.547 567.901V567.901C494.547 566.341 493.282 565.076 491.722 565.076H487.242L491.734 560.584C492.837 559.481 492.837 557.692 491.734 556.589C490.631 555.486 488.842 555.486 487.739 556.589L483.247 561.081V556.601C483.247 555.041 481.983 553.776 480.422 553.776C478.862 553.776 477.597 555.041 477.597 556.601V565.076V566.731L461.466 582.862V576.029L462.637 574.859L468.629 568.867C469.733 567.764 469.733 565.975 468.629 564.872C467.526 563.768 465.738 563.768 464.634 564.872L461.466 568.039V560.049L462.637 558.879L468.629 552.887C469.733 551.783 469.733 549.995 468.629 548.891C467.526 547.788 465.738 547.788 464.634 548.891L461.466 552.059V545.707C461.466 544.147 460.202 542.882 458.642 542.882C457.081 542.882 455.817 544.147 455.817 545.707V552.059L452.649 548.891C451.546 547.788 449.757 547.788 448.654 548.891C447.551 549.995 447.551 551.783 448.654 552.887L454.646 558.879L455.817 560.049V568.039L452.649 564.872C451.546 563.768 449.757 563.768 448.654 564.872C447.551 565.975 447.551 567.764 448.654 568.867L454.646 574.859L455.817 576.029V582.862L439.686 566.731V565.076V556.601C439.686 555.041 438.421 553.776 436.861 553.776C435.301 553.776 434.036 555.041 434.036 556.601V561.081L429.544 556.589C428.441 555.486 426.652 555.486 425.549 556.589C424.446 557.692 424.446 559.481 425.549 560.584L430.041 565.076H425.561C424.001 565.076 422.736 566.341 422.736 567.901V567.901C422.736 569.461 424.001 570.726 425.561 570.726H434.036H435.691L451.822 586.857H444.989L437.827 579.694C436.723 578.591 434.935 578.591 433.832 579.694C432.728 580.797 432.728 582.586 433.832 583.689L436.999 586.857H429.009L421.846 579.694C420.743 578.591 418.954 578.591 417.851 579.694C416.748 580.797 416.748 582.586 417.851 583.689L421.019 586.857H414.667C413.106 586.857 411.842 588.121 411.842 589.682C411.842 591.242 413.106 592.507 414.667 592.507H421.019L417.851 595.674C416.748 596.778 416.748 598.566 417.851 599.669C418.954 600.772 420.743 600.772 421.846 599.669L429.009 592.507H436.999L433.832 595.674C432.728 596.778 432.728 598.566 433.832 599.669C434.935 600.772 436.723 600.772 437.827 599.669L443.819 593.677L444.989 592.507H451.822L435.691 608.637H434.036H425.561C424.001 608.637 422.736 609.902 422.736 611.462C422.736 613.022 424.001 614.287 425.561 614.287H430.041L425.549 618.779C424.446 619.882 424.446 621.671 425.549 622.774C426.652 623.877 428.441 623.877 429.544 622.774L434.036 618.282V622.762C434.036 624.322 435.301 625.587 436.861 625.587C438.421 625.587 439.686 624.322 439.686 622.762V614.287V612.633L455.817 596.502V603.334L454.646 604.504L448.654 610.497C447.551 611.6 447.551 613.388 448.654 614.492V614.492C449.757 615.595 451.546 615.595 452.649 614.492L455.817 611.324V619.314L454.646 620.484L448.654 626.477C447.551 627.58 447.551 629.369 448.654 630.472C449.757 631.575 451.546 631.575 452.649 630.472L455.817 627.304V633.656C455.817 635.217 457.081 636.481 458.642 636.481C460.202 636.481 461.466 635.217 461.466 633.656V627.304L464.634 630.472C465.738 631.575 467.526 631.575 468.629 630.472C469.733 629.369 469.733 627.58 468.629 626.477L462.637 620.484L461.466 619.314V611.324L464.634 614.492C465.738 615.595 467.526 615.595 468.629 614.492V614.492C469.733 613.388 469.733 611.6 468.629 610.497L462.637 604.504L461.466 603.334V596.502L477.597 612.633V614.287V622.762C477.597 624.322 478.862 625.587 480.422 625.587C481.983 625.587 483.247 624.322 483.247 622.762V618.282L487.739 622.774C488.842 623.877 490.631 623.877 491.734 622.774C492.837 621.671 492.837 619.882 491.734 618.779L487.242 614.287H491.722C493.282 614.287 494.547 613.022 494.547 611.462C494.547 609.902 493.282 608.637 491.722 608.637H483.247H481.593L465.462 592.507H472.294L473.464 593.677L479.457 599.669C480.56 600.772 482.349 600.772 483.452 599.669C484.555 598.566 484.555 596.778 483.452 595.674L480.284 592.507H488.274L495.437 599.669C496.54 600.772 498.329 600.772 499.432 599.669C500.535 598.566 500.535 596.778 499.432 595.674L496.264 592.507H502.617C504.177 592.507 505.442 591.242 505.442 589.682C505.442 588.121 504.177 586.857 502.617 586.857Z" fill="#A2DDFD"/>
<path d="M472.295 592.506C470.735 592.506 469.47 591.242 469.47 589.681C469.47 588.121 470.735 586.857 472.295 586.857H465.463L470.294 582.025C469.191 583.129 467.402 583.129 466.299 582.025C465.196 580.922 465.195 579.134 466.299 578.03L461.467 582.861V576.029L462.638 574.859L468.63 568.867C469.733 567.763 469.733 565.975 468.63 564.871C467.527 563.768 465.738 563.768 464.635 564.871L461.467 568.039V560.049L462.638 558.879L468.63 552.886C469.733 551.783 469.733 549.994 468.63 548.891C467.527 547.788 465.738 547.788 464.635 548.891L461.467 552.059V545.707C461.467 544.147 460.203 542.882 458.643 542.882C457.082 542.882 455.818 544.147 455.818 545.707V552.059L452.65 548.891C451.547 547.788 449.758 547.788 448.655 548.891C447.552 549.994 447.552 551.783 448.655 552.886L454.647 558.879L455.818 560.049V568.039L452.65 564.871C451.547 563.768 449.758 563.768 448.655 564.871C447.552 565.975 447.552 567.763 448.655 568.867L454.647 574.859L455.818 576.029V582.861L439.687 566.731V565.076V556.601C439.687 555.041 438.422 553.776 436.862 553.776C435.302 553.776 434.037 555.041 434.037 556.601V561.081L429.545 556.589C428.442 555.486 426.653 555.486 425.55 556.589C424.447 557.692 424.447 559.481 425.55 560.584L430.042 565.076H425.562C424.002 565.076 422.737 566.341 422.737 567.901C422.737 569.461 424.002 570.726 425.562 570.726H434.037H435.692L451.822 586.857H444.99L437.827 579.694C436.724 578.591 434.936 578.591 433.832 579.694C432.729 580.797 432.729 582.586 433.832 583.689L437 586.857H429.01L421.847 579.694C420.744 578.591 418.955 578.591 417.852 579.694C416.749 580.797 416.749 582.586 417.852 583.689L421.02 586.857H414.668C413.107 586.857 411.843 588.121 411.843 589.681C411.843 591.242 413.107 592.506 414.668 592.506H421.02L417.852 595.674C416.749 596.777 416.749 598.566 417.852 599.669C418.955 600.772 420.744 600.772 421.847 599.669L429.01 592.506H437L433.832 595.674C432.729 596.777 432.729 598.566 433.832 599.669C434.936 600.772 436.724 600.772 437.827 599.669L443.82 593.677L444.99 592.506H451.822L435.692 608.637H434.037H425.562C424.002 608.637 422.737 609.902 422.737 611.462C422.737 613.022 424.002 614.287 425.562 614.287H430.042L425.55 618.779C424.447 619.882 424.447 621.671 425.55 622.774C426.653 623.877 428.442 623.877 429.545 622.774L434.037 618.282V622.762C434.037 624.322 435.302 625.587 436.862 625.587C438.422 625.587 439.687 624.322 439.687 622.762V614.287V612.632L455.818 596.501V603.334L454.647 604.504L448.655 610.496C447.552 611.6 447.552 613.388 448.655 614.491C449.758 615.595 451.547 615.595 452.65 614.491L455.818 611.324V619.314L454.647 620.484L448.655 626.477C447.552 627.58 447.552 629.368 448.655 630.472C449.758 631.575 451.547 631.575 452.65 630.472L455.818 627.304V633.656C455.818 635.216 457.082 636.481 458.643 636.481C460.203 636.481 461.467 635.216 461.467 633.656V627.304L464.635 630.472C465.738 631.575 467.527 631.575 468.63 630.472C469.733 629.368 469.733 627.58 468.63 626.477L462.638 620.484L461.467 619.314V611.324L464.635 614.491C465.738 615.595 467.527 615.595 468.63 614.491C469.733 613.388 469.733 611.6 468.63 610.496L462.638 604.504L461.467 603.334V596.501L466.299 601.333C465.195 600.229 465.195 598.441 466.299 597.338C467.402 596.234 469.19 596.234 470.293 597.337L465.463 592.506H472.295Z" fill="#A2DDFD"/>
</g>
</g>
<g clip-path="url(#clip1_1001_7396)">
<mask id="mask1_1001_7396" style="mask-type:luminance" maskUnits="userSpaceOnUse" x="935" y="617" width="95" height="95">
<path d="M935.997 617.759H1029.6V711.358H935.997V617.759Z" fill="white"/>
</mask>
<g mask="url(#mask1_1001_7396)">
<path d="M1026.78 661.74H1020.42L1023.59 658.572C1024.69 657.469 1024.69 655.68 1023.59 654.577C1022.49 653.474 1020.7 653.474 1019.6 654.577L1012.43 661.74H1004.44L1007.61 658.572C1008.71 657.469 1008.71 655.68 1007.61 654.577C1006.51 653.474 1004.72 653.474 1003.62 654.577L996.453 661.74H989.621L1005.75 645.609H1007.41H1015.88C1017.44 645.609 1018.71 644.344 1018.71 642.784V642.784C1018.71 641.224 1017.44 639.959 1015.88 639.959H1011.4L1015.89 635.467C1017 634.364 1017 632.576 1015.89 631.472C1014.79 630.369 1013 630.369 1011.9 631.472L1007.41 635.964V631.484C1007.41 629.924 1006.14 628.659 1004.58 628.659C1003.02 628.659 1001.76 629.924 1001.76 631.484V639.959V641.614L985.626 657.745V650.912L986.796 649.742L992.788 643.75C993.892 642.647 993.892 640.858 992.788 639.755C991.685 638.651 989.897 638.651 988.793 639.755L985.626 642.922V634.932L986.796 633.762L992.788 627.77C993.892 626.666 993.892 624.878 992.788 623.774C991.685 622.671 989.897 622.671 988.793 623.774L985.626 626.942V620.59C985.626 619.03 984.361 617.765 982.801 617.765C981.241 617.765 979.976 619.03 979.976 620.59V626.942L976.808 623.774C975.705 622.671 973.916 622.671 972.813 623.774C971.71 624.878 971.71 626.666 972.813 627.77L978.806 633.762L979.976 634.932V642.922L976.808 639.755C975.705 638.651 973.916 638.651 972.813 639.755C971.71 640.858 971.71 642.647 972.813 643.75L978.806 649.742L979.976 650.912V657.745L963.845 641.614V639.959V631.484C963.845 629.924 962.58 628.659 961.02 628.659C959.46 628.659 958.195 629.924 958.195 631.484V635.964L953.703 631.472C952.6 630.369 950.811 630.369 949.708 631.472C948.605 632.576 948.605 634.364 949.708 635.467L954.2 639.959H949.72C948.16 639.959 946.895 641.224 946.895 642.784V642.784C946.895 644.344 948.16 645.609 949.72 645.609H958.195H959.85L975.981 661.74H969.148L961.986 654.577C960.883 653.474 959.094 653.474 957.991 654.577C956.887 655.68 956.887 657.469 957.991 658.572L961.158 661.74H953.168L946.006 654.577C944.902 653.474 943.114 653.474 942.01 654.577C940.907 655.68 940.907 657.469 942.01 658.572L945.178 661.74H938.826C937.266 661.74 936.001 663.004 936.001 664.565C936.001 666.125 937.266 667.39 938.826 667.39H945.178L942.01 670.557C940.907 671.661 940.907 673.449 942.01 674.552C943.114 675.656 944.902 675.656 946.006 674.552L953.168 667.39H961.158L957.991 670.557C956.887 671.661 956.887 673.449 957.991 674.552C959.094 675.656 960.883 675.656 961.986 674.552L967.978 668.56L969.148 667.39H975.981L959.85 683.52H958.195H949.72C948.16 683.52 946.895 684.785 946.895 686.345C946.895 687.906 948.16 689.17 949.72 689.17H954.2L949.708 693.662C948.605 694.765 948.605 696.554 949.708 697.657C950.811 698.76 952.6 698.76 953.703 697.657L958.195 693.165V697.645C958.195 699.205 959.46 700.47 961.02 700.47C962.58 700.47 963.845 699.205 963.845 697.645V689.17V687.516L979.976 671.385V678.217L978.806 679.387L972.813 685.38C971.71 686.483 971.71 688.272 972.813 689.375V689.375C973.916 690.478 975.705 690.478 976.808 689.375L979.976 686.207V694.197L978.806 695.367L972.813 701.36C971.71 702.463 971.71 704.252 972.813 705.355C973.916 706.458 975.705 706.458 976.808 705.355L979.976 702.187V708.539C979.976 710.1 981.241 711.364 982.801 711.364C984.361 711.364 985.626 710.1 985.626 708.539V702.187L988.793 705.355C989.897 706.458 991.685 706.458 992.788 705.355C993.892 704.252 993.892 702.463 992.788 701.36L986.796 695.367L985.626 694.197V686.207L988.793 689.375C989.897 690.478 991.685 690.478 992.788 689.375V689.375C993.892 688.272 993.892 686.483 992.788 685.38L986.796 679.387L985.626 678.217V671.385L1001.76 687.516V689.17V697.645C1001.76 699.205 1003.02 700.47 1004.58 700.47C1006.14 700.47 1007.41 699.205 1007.41 697.645V693.165L1011.9 697.657C1013 698.76 1014.79 698.76 1015.89 697.657C1017 696.554 1017 694.765 1015.89 693.662L1011.4 689.17H1015.88C1017.44 689.17 1018.71 687.906 1018.71 686.345C1018.71 684.785 1017.44 683.52 1015.88 683.52H1007.41H1005.75L989.621 667.39H996.453L997.623 668.56L1003.62 674.552C1004.72 675.656 1006.51 675.656 1007.61 674.552C1008.71 673.449 1008.71 671.661 1007.61 670.557L1004.44 667.39H1012.43L1019.6 674.552C1020.7 675.656 1022.49 675.656 1023.59 674.552C1024.69 673.449 1024.69 671.661 1023.59 670.557L1020.42 667.39H1026.78C1028.34 667.39 1029.6 666.125 1029.6 664.565C1029.6 663.004 1028.34 661.74 1026.78 661.74Z" fill="#A2DDFD"/>
<path d="M996.453 667.382C994.893 667.382 993.628 666.118 993.628 664.557C993.628 662.997 994.893 661.733 996.453 661.733H989.621L994.452 656.901C993.349 658.005 991.56 658.005 990.457 656.901C989.354 655.798 989.354 654.01 990.457 652.907L985.626 657.737V650.905L986.796 649.735L992.788 643.743C993.892 642.639 993.892 640.851 992.788 639.747C991.685 638.644 989.897 638.644 988.793 639.747L985.626 642.915V634.925L986.796 633.755L992.788 627.762C993.892 626.659 993.892 624.87 992.788 623.767C991.685 622.664 989.897 622.664 988.793 623.767L985.626 626.935V620.583C985.626 619.023 984.361 617.758 982.801 617.758C981.241 617.758 979.976 619.023 979.976 620.583V626.935L976.808 623.767C975.705 622.664 973.916 622.664 972.813 623.767C971.71 624.87 971.71 626.659 972.813 627.762L978.806 633.755L979.976 634.925V642.915L976.808 639.747C975.705 638.644 973.916 638.644 972.813 639.747C971.71 640.851 971.71 642.639 972.813 643.743L978.806 649.735L979.976 650.905V657.737L963.845 641.607V639.952V631.477C963.845 629.917 962.58 628.652 961.02 628.652C959.46 628.652 958.195 629.917 958.195 631.477V635.957L953.703 631.465C952.6 630.362 950.811 630.362 949.708 631.465C948.605 632.568 948.605 634.357 949.708 635.46L954.2 639.952H949.72C948.16 639.952 946.895 641.217 946.895 642.777C946.895 644.337 948.16 645.602 949.72 645.602H958.195H959.85L975.981 661.733H969.148L961.986 654.57C960.883 653.467 959.094 653.467 957.991 654.57C956.887 655.673 956.887 657.462 957.991 658.565L961.158 661.733H953.168L946.005 654.57C944.902 653.467 943.114 653.467 942.01 654.57C940.907 655.673 940.907 657.462 942.01 658.565L945.178 661.733H938.826C937.266 661.733 936.001 662.997 936.001 664.557C936.001 666.118 937.266 667.382 938.826 667.382H945.178L942.01 670.55C940.907 671.653 940.907 673.442 942.01 674.545C943.114 675.648 944.902 675.648 946.005 674.545L953.168 667.382H961.158L957.991 670.55C956.887 671.653 956.887 673.442 957.991 674.545C959.094 675.648 960.883 675.648 961.986 674.545L967.978 668.553L969.148 667.382H975.981L959.85 683.513H958.195H949.72C948.16 683.513 946.895 684.778 946.895 686.338C946.895 687.898 948.16 689.163 949.72 689.163H954.2L949.708 693.655C948.605 694.758 948.605 696.547 949.708 697.65C950.811 698.753 952.6 698.753 953.703 697.65L958.195 693.158V697.638C958.195 699.198 959.46 700.463 961.02 700.463C962.58 700.463 963.845 699.198 963.845 697.638V689.163V687.508L979.976 671.377V678.21L978.806 679.38L972.813 685.373C971.71 686.476 971.71 688.264 972.813 689.367C973.916 690.471 975.705 690.471 976.808 689.367L979.976 686.2V694.19L978.806 695.36L972.813 701.353C971.71 702.456 971.71 704.244 972.813 705.348C973.916 706.451 975.705 706.451 976.808 705.348L979.976 702.18V708.532C979.976 710.092 981.241 711.357 982.801 711.357C984.361 711.357 985.626 710.092 985.626 708.532V702.18L988.793 705.348C989.897 706.451 991.685 706.451 992.788 705.348C993.892 704.244 993.892 702.456 992.788 701.353L986.796 695.36L985.626 694.19V686.2L988.793 689.367C989.897 690.471 991.685 690.471 992.788 689.367C993.892 688.264 993.892 686.476 992.788 685.373L986.796 679.38L985.626 678.21V671.377L990.457 676.209C989.354 675.105 989.354 673.317 990.457 672.214C991.56 671.11 993.349 671.11 994.452 672.213L989.621 667.382H996.453Z" fill="#A2DDFD"/>
</g>
</g>
<g clip-path="url(#clip2_1001_7396)">
<mask id="mask2_1001_7396" style="mask-type:luminance" maskUnits="userSpaceOnUse" x="1067" y="730" width="38" height="38">
<path d="M1067.04 730.078H1104.48V767.518H1067.04V730.078Z" fill="white"/>
</mask>
<g mask="url(#mask2_1001_7396)">
<path d="M1103.35 747.668H1100.81L1102.07 746.401C1102.51 745.96 1102.51 745.244 1102.07 744.803C1101.63 744.362 1100.92 744.362 1100.47 744.803L1097.61 747.668H1094.41L1095.68 746.401C1096.12 745.96 1096.12 745.244 1095.68 744.803C1095.24 744.362 1094.52 744.362 1094.08 744.803L1091.22 747.668H1088.48L1094.94 741.216H1095.6H1098.99C1099.61 741.216 1100.12 740.71 1100.12 740.086V740.086C1100.12 739.462 1099.61 738.956 1098.99 738.956H1097.2L1098.99 737.159C1099.43 736.718 1099.43 736.002 1098.99 735.561C1098.55 735.12 1097.84 735.12 1097.4 735.561L1095.6 737.358V735.566C1095.6 734.942 1095.09 734.436 1094.47 734.436C1093.84 734.436 1093.34 734.942 1093.34 735.566V738.956V739.618L1086.89 746.07V743.337L1087.35 742.869L1089.75 740.472C1090.19 740.031 1090.19 739.315 1089.75 738.874C1089.31 738.433 1088.59 738.433 1088.15 738.874L1086.89 740.141V736.945L1087.35 736.477L1089.75 734.08C1090.19 733.639 1090.19 732.923 1089.75 732.482C1089.31 732.041 1088.59 732.041 1088.15 732.482L1086.89 733.749V731.208C1086.89 730.584 1086.38 730.078 1085.76 730.078C1085.13 730.078 1084.63 730.584 1084.63 731.208V733.749L1083.36 732.482C1082.92 732.041 1082.2 732.041 1081.76 732.482C1081.32 732.923 1081.32 733.639 1081.76 734.08L1084.16 736.477L1084.63 736.945V740.141L1083.36 738.874C1082.92 738.433 1082.2 738.433 1081.76 738.874C1081.32 739.315 1081.32 740.031 1081.76 740.472L1084.16 742.869L1084.63 743.337V746.07L1078.17 739.618V738.956V735.566C1078.17 734.942 1077.67 734.436 1077.04 734.436C1076.42 734.436 1075.91 734.942 1075.91 735.566V737.358L1074.12 735.561C1073.68 735.12 1072.96 735.12 1072.52 735.561C1072.08 736.002 1072.08 736.718 1072.52 737.159L1074.32 738.956H1072.52C1071.9 738.956 1071.39 739.462 1071.39 740.086V740.086C1071.39 740.71 1071.9 741.216 1072.52 741.216H1075.91H1076.58L1083.03 747.668H1080.3L1077.43 744.803C1076.99 744.362 1076.27 744.362 1075.83 744.803C1075.39 745.244 1075.39 745.96 1075.83 746.401L1077.1 747.668H1073.9L1071.04 744.803C1070.6 744.362 1069.88 744.362 1069.44 744.803C1069 745.244 1069 745.96 1069.44 746.401L1070.71 747.668H1068.17C1067.54 747.668 1067.04 748.174 1067.04 748.798C1067.04 749.422 1067.54 749.928 1068.17 749.928H1070.71L1069.44 751.195C1069 751.636 1069 752.352 1069.44 752.793C1069.88 753.234 1070.6 753.234 1071.04 752.793L1073.9 749.928H1077.1L1075.83 751.195C1075.39 751.636 1075.39 752.352 1075.83 752.793C1076.27 753.234 1076.99 753.234 1077.43 752.793L1079.83 750.396L1080.3 749.928H1083.03L1076.58 756.38H1075.91H1072.52C1071.9 756.38 1071.39 756.886 1071.39 757.51C1071.39 758.134 1071.9 758.64 1072.52 758.64H1074.32L1072.52 760.437C1072.08 760.878 1072.08 761.594 1072.52 762.035C1072.96 762.476 1073.68 762.476 1074.12 762.035L1075.91 760.238V762.03C1075.91 762.654 1076.42 763.16 1077.04 763.16C1077.67 763.16 1078.17 762.654 1078.17 762.03V758.64V757.978L1084.63 751.526V754.259L1084.16 754.727L1081.76 757.124C1081.32 757.565 1081.32 758.281 1081.76 758.722V758.722C1082.2 759.163 1082.92 759.163 1083.36 758.722L1084.63 757.455V760.651L1084.16 761.119L1081.76 763.516C1081.32 763.957 1081.32 764.673 1081.76 765.114C1082.2 765.555 1082.92 765.555 1083.36 765.114L1084.63 763.847V766.388C1084.63 767.012 1085.13 767.518 1085.76 767.518C1086.38 767.518 1086.89 767.012 1086.89 766.388V763.847L1088.15 765.114C1088.59 765.555 1089.31 765.555 1089.75 765.114C1090.19 764.673 1090.19 763.957 1089.75 763.516L1087.35 761.119L1086.89 760.651V757.455L1088.15 758.722C1088.59 759.163 1089.31 759.163 1089.75 758.722V758.722C1090.19 758.281 1090.19 757.565 1089.75 757.124L1087.35 754.727L1086.89 754.259V751.526L1093.34 757.978V758.64V762.03C1093.34 762.654 1093.84 763.16 1094.47 763.16C1095.09 763.16 1095.6 762.654 1095.6 762.03V760.238L1097.4 762.035C1097.84 762.476 1098.55 762.476 1098.99 762.035C1099.43 761.594 1099.43 760.878 1098.99 760.437L1097.2 758.64H1098.99C1099.61 758.64 1100.12 758.134 1100.12 757.51C1100.12 756.886 1099.61 756.38 1098.99 756.38H1095.6H1094.94L1088.48 749.928H1091.22L1091.69 750.396L1094.08 752.793C1094.52 753.234 1095.24 753.234 1095.68 752.793C1096.12 752.352 1096.12 751.636 1095.68 751.195L1094.41 749.928H1097.61L1100.47 752.793C1100.92 753.234 1101.63 753.234 1102.07 752.793C1102.51 752.352 1102.51 751.636 1102.07 751.195L1100.81 749.928H1103.35C1103.97 749.928 1104.48 749.422 1104.48 748.798C1104.48 748.174 1103.97 747.668 1103.35 747.668Z" fill="#D2F0FF"/>
<path d="M1091.22 749.921C1090.59 749.921 1090.09 749.415 1090.09 748.791C1090.09 748.167 1090.59 747.661 1091.22 747.661H1088.49L1090.42 745.729C1089.98 746.17 1089.26 746.17 1088.82 745.729C1088.38 745.288 1088.38 744.572 1088.82 744.131L1086.89 746.063V743.33L1087.36 742.862L1089.75 740.465C1090.19 740.024 1090.19 739.309 1089.75 738.867C1089.31 738.426 1088.6 738.426 1088.15 738.867L1086.89 740.134V736.938L1087.36 736.47L1089.75 734.073C1090.19 733.632 1090.19 732.917 1089.75 732.475C1089.31 732.034 1088.6 732.034 1088.15 732.475L1086.89 733.742V731.201C1086.89 730.577 1086.38 730.071 1085.76 730.071C1085.13 730.071 1084.63 730.577 1084.63 731.201V733.742L1083.36 732.475C1082.92 732.034 1082.2 732.034 1081.76 732.475C1081.32 732.917 1081.32 733.632 1081.76 734.073L1084.16 736.47L1084.63 736.938V740.134L1083.36 738.867C1082.92 738.426 1082.2 738.426 1081.76 738.867C1081.32 739.309 1081.32 740.024 1081.76 740.465L1084.16 742.862L1084.63 743.33V746.063L1078.18 739.611V738.949V735.559C1078.18 734.935 1077.67 734.429 1077.05 734.429C1076.42 734.429 1075.92 734.935 1075.92 735.559V737.351L1074.12 735.554C1073.68 735.113 1072.96 735.113 1072.52 735.554C1072.08 735.996 1072.08 736.711 1072.52 737.152L1074.32 738.949H1072.53C1071.9 738.949 1071.4 739.455 1071.4 740.079C1071.4 740.703 1071.9 741.209 1072.53 741.209H1075.92H1076.58L1083.03 747.661H1080.3L1077.43 744.796C1076.99 744.355 1076.27 744.355 1075.83 744.796C1075.39 745.238 1075.39 745.953 1075.83 746.394L1077.1 747.661H1073.9L1071.04 744.796C1070.6 744.355 1069.88 744.355 1069.44 744.796C1069 745.238 1069 745.953 1069.44 746.394L1070.71 747.661H1068.17C1067.54 747.661 1067.04 748.167 1067.04 748.791C1067.04 749.415 1067.54 749.921 1068.17 749.921H1070.71L1069.44 751.188C1069 751.63 1069 752.345 1069.44 752.786C1069.88 753.228 1070.6 753.228 1071.04 752.786L1073.9 749.921H1077.1L1075.83 751.188C1075.39 751.63 1075.39 752.345 1075.83 752.786C1076.27 753.228 1076.99 753.228 1077.43 752.786L1079.83 750.389L1080.3 749.921H1083.03L1076.58 756.374H1075.92H1072.53C1071.9 756.374 1071.4 756.88 1071.4 757.504C1071.4 758.128 1071.9 758.634 1072.53 758.634H1074.32L1072.52 760.43C1072.08 760.872 1072.08 761.587 1072.52 762.028C1072.96 762.47 1073.68 762.47 1074.12 762.028L1075.92 760.232V762.024C1075.92 762.648 1076.42 763.154 1077.05 763.154C1077.67 763.154 1078.18 762.648 1078.18 762.024V758.634V757.972L1084.63 751.519V754.252L1084.16 754.72L1081.76 757.117C1081.32 757.559 1081.32 758.274 1081.76 758.715C1082.2 759.157 1082.92 759.157 1083.36 758.715L1084.63 757.448V760.644L1084.16 761.112L1081.76 763.509C1081.32 763.951 1081.32 764.666 1081.76 765.107C1082.2 765.549 1082.92 765.549 1083.36 765.107L1084.63 763.84V766.381C1084.63 767.005 1085.13 767.511 1085.76 767.511C1086.38 767.511 1086.89 767.005 1086.89 766.381V763.84L1088.15 765.107C1088.6 765.549 1089.31 765.549 1089.75 765.107C1090.19 764.666 1090.19 763.951 1089.75 763.509L1087.36 761.112L1086.89 760.644V757.448L1088.15 758.715C1088.6 759.157 1089.31 759.157 1089.75 758.715C1090.19 758.274 1090.19 757.559 1089.75 757.117L1087.36 754.72L1086.89 754.252V751.519L1088.82 753.452C1088.38 753.011 1088.38 752.295 1088.82 751.854C1089.26 751.413 1089.98 751.413 1090.42 751.854L1088.49 749.921H1091.22Z" fill="#D2F0FF"/>
</g>
</g>
<g clip-path="url(#clip3_1001_7396)">
<mask id="mask3_1001_7396" style="mask-type:luminance" maskUnits="userSpaceOnUse" x="486" y="692" width="39" height="39">
<path d="M486.715 692.64H524.155V730.079H486.715V692.64Z" fill="white"/>
</mask>
<g mask="url(#mask3_1001_7396)">
<path d="M523.024 710.236H520.483L521.75 708.969C522.192 708.528 522.192 707.812 521.75 707.371C521.309 706.93 520.594 706.93 520.152 707.371L517.287 710.236H514.091L515.358 708.969C515.8 708.528 515.8 707.812 515.358 707.371C514.917 706.93 514.202 706.93 513.76 707.371L510.895 710.236H508.162L514.615 703.784H515.277H518.667C519.291 703.784 519.797 703.278 519.797 702.654V702.654C519.797 702.03 519.291 701.524 518.667 701.524H516.875L518.671 699.727C519.113 699.286 519.113 698.57 518.671 698.129C518.23 697.688 517.515 697.688 517.073 698.129L515.277 699.926V698.134C515.277 697.51 514.771 697.004 514.147 697.004C513.523 697.004 513.017 697.51 513.017 698.134V701.524V702.186L506.564 708.638V705.905L507.032 705.437L509.429 703.04C509.871 702.599 509.871 701.883 509.429 701.442C508.988 701.001 508.273 701.001 507.831 701.442L506.564 702.709V699.513L507.032 699.045L509.429 696.648C509.871 696.207 509.871 695.491 509.429 695.05C508.988 694.609 508.273 694.609 507.831 695.05L506.564 696.317V693.776C506.564 693.152 506.058 692.646 505.434 692.646C504.81 692.646 504.304 693.152 504.304 693.776V696.317L503.037 695.05C502.596 694.609 501.881 694.609 501.439 695.05C500.998 695.491 500.998 696.207 501.439 696.648L503.836 699.045L504.304 699.513V702.709L503.037 701.442C502.596 701.001 501.881 701.001 501.439 701.442C500.998 701.883 500.998 702.599 501.439 703.04L503.836 705.437L504.304 705.905V708.638L497.852 702.186V701.524V698.134C497.852 697.51 497.346 697.004 496.722 697.004C496.098 697.004 495.592 697.51 495.592 698.134V699.926L493.795 698.129C493.354 697.688 492.639 697.688 492.197 698.129C491.756 698.57 491.756 699.286 492.197 699.727L493.994 701.524H492.202C491.578 701.524 491.072 702.03 491.072 702.654V702.654C491.072 703.278 491.578 703.784 492.202 703.784H495.592H496.254L502.706 710.236H499.973L497.108 707.371C496.667 706.93 495.952 706.93 495.51 707.371C495.069 707.812 495.069 708.528 495.51 708.969L496.777 710.236H493.581L490.716 707.371C490.275 706.93 489.559 706.93 489.118 707.371C488.677 707.812 488.677 708.528 489.118 708.969L490.385 710.236H487.844C487.22 710.236 486.714 710.742 486.714 711.366C486.714 711.99 487.22 712.496 487.844 712.496H490.385L489.118 713.763C488.677 714.204 488.677 714.92 489.118 715.361C489.559 715.802 490.275 715.802 490.716 715.361L493.581 712.496H496.777L495.51 713.763C495.069 714.204 495.069 714.92 495.51 715.361C495.952 715.802 496.667 715.802 497.108 715.361L499.505 712.964L499.973 712.496H502.706L496.254 718.948H495.592H492.202C491.578 718.948 491.072 719.454 491.072 720.078C491.072 720.702 491.578 721.208 492.202 721.208H493.994L492.197 723.005C491.756 723.446 491.756 724.162 492.197 724.603C492.639 725.044 493.354 725.044 493.795 724.603L495.592 722.806V724.598C495.592 725.222 496.098 725.728 496.722 725.728C497.346 725.728 497.852 725.222 497.852 724.598V721.208V720.546L504.304 714.094V716.827L503.836 717.295L501.439 719.692C500.998 720.133 500.998 720.849 501.439 721.29V721.29C501.881 721.731 502.596 721.731 503.037 721.29L504.304 720.023V723.219L503.836 723.687L501.439 726.084C500.998 726.525 500.998 727.241 501.439 727.682C501.881 728.123 502.596 728.123 503.037 727.682L504.304 726.415V728.956C504.304 729.58 504.81 730.086 505.434 730.086C506.058 730.086 506.564 729.58 506.564 728.956V726.415L507.831 727.682C508.273 728.123 508.988 728.123 509.429 727.682C509.871 727.241 509.871 726.525 509.429 726.084L507.032 723.687L506.564 723.219V720.023L507.831 721.29C508.273 721.731 508.988 721.731 509.429 721.29V721.29C509.871 720.849 509.871 720.133 509.429 719.692L507.032 717.295L506.564 716.827V714.094L513.017 720.546V721.208V724.598C513.017 725.222 513.523 725.728 514.147 725.728C514.771 725.728 515.277 725.222 515.277 724.598V722.806L517.073 724.603C517.515 725.044 518.23 725.044 518.671 724.603C519.113 724.162 519.113 723.446 518.671 723.005L516.875 721.208H518.667C519.291 721.208 519.797 720.702 519.797 720.078C519.797 719.454 519.291 718.948 518.667 718.948H515.277H514.615L508.162 712.496H510.895L511.363 712.964L513.76 715.361C514.202 715.802 514.917 715.802 515.358 715.361C515.8 714.92 515.8 714.204 515.358 713.763L514.091 712.496H517.287L520.152 715.361C520.594 715.802 521.309 715.802 521.75 715.361C522.192 714.92 522.192 714.204 521.75 713.763L520.483 712.496H523.024C523.648 712.496 524.154 711.99 524.154 711.366C524.154 710.742 523.648 710.236 523.024 710.236Z" fill="#A2DDFD"/>
<path d="M510.895 712.486C510.271 712.486 509.765 711.98 509.765 711.356C509.765 710.732 510.271 710.226 510.895 710.226H508.162L510.095 708.293C509.653 708.735 508.938 708.735 508.497 708.293C508.055 707.852 508.055 707.137 508.497 706.695L506.564 708.628V705.895L507.032 705.427L509.429 703.03C509.871 702.588 509.871 701.873 509.429 701.432C508.988 700.991 508.273 700.991 507.831 701.432L506.564 702.699V699.503L507.032 699.035L509.429 696.638C509.871 696.196 509.871 695.481 509.429 695.04C508.988 694.598 508.273 694.598 507.831 695.04L506.564 696.307V693.766C506.564 693.142 506.058 692.636 505.434 692.636C504.81 692.636 504.304 693.142 504.304 693.766V696.307L503.037 695.04C502.596 694.598 501.881 694.598 501.439 695.04C500.998 695.481 500.998 696.196 501.439 696.638L503.836 699.035L504.304 699.503V702.699L503.037 701.432C502.596 700.991 501.881 700.991 501.439 701.432C500.998 701.873 500.998 702.588 501.439 703.03L503.836 705.427L504.304 705.895V708.628L497.852 702.175V701.513V698.124C497.852 697.5 497.346 696.994 496.722 696.994C496.098 696.994 495.592 697.5 495.592 698.124V699.916L493.795 698.119C493.354 697.678 492.639 697.678 492.197 698.119C491.756 698.56 491.756 699.276 492.197 699.717L493.994 701.513H492.202C491.578 701.513 491.072 702.019 491.072 702.643C491.072 703.268 491.578 703.773 492.202 703.773H495.592H496.254L502.706 710.226H499.973L497.108 707.361C496.667 706.919 495.951 706.919 495.51 707.361C495.069 707.802 495.069 708.517 495.51 708.959L496.777 710.226H493.581L490.716 707.361C490.275 706.919 489.559 706.919 489.118 707.361C488.677 707.802 488.677 708.517 489.118 708.959L490.385 710.226H487.844C487.22 710.226 486.714 710.732 486.714 711.356C486.714 711.98 487.22 712.486 487.844 712.486H490.385L489.118 713.753C488.677 714.194 488.677 714.91 489.118 715.351C489.559 715.792 490.275 715.792 490.716 715.351L493.581 712.486H496.777L495.51 713.753C495.069 714.194 495.069 714.91 495.51 715.351C495.951 715.792 496.667 715.792 497.108 715.351L499.505 712.954L499.973 712.486H502.706L496.254 718.938H495.592H492.202C491.578 718.938 491.072 719.444 491.072 720.068C491.072 720.692 491.578 721.198 492.202 721.198H493.994L492.197 722.995C491.756 723.436 491.756 724.151 492.197 724.593C492.639 725.034 493.354 725.034 493.795 724.593L495.592 722.796V724.588C495.592 725.212 496.098 725.718 496.722 725.718C497.346 725.718 497.852 725.212 497.852 724.588V721.198V720.536L504.304 714.084V716.817L503.836 717.285L501.439 719.682C500.998 720.123 500.998 720.838 501.439 721.28C501.881 721.721 502.596 721.721 503.037 721.28L504.304 720.013V723.209L503.836 723.677L501.439 726.074C500.998 726.515 500.998 727.231 501.439 727.672C501.881 728.113 502.596 728.113 503.037 727.672L504.304 726.405V728.946C504.304 729.57 504.81 730.076 505.434 730.076C506.058 730.076 506.564 729.57 506.564 728.946V726.405L507.831 727.672C508.273 728.113 508.988 728.113 509.429 727.672C509.871 727.231 509.871 726.515 509.429 726.074L507.032 723.677L506.564 723.209V720.013L507.831 721.28C508.273 721.721 508.988 721.721 509.429 721.28C509.871 720.838 509.871 720.123 509.429 719.682L507.032 717.285L506.564 716.817V714.084L508.497 716.016C508.055 715.575 508.055 714.86 508.497 714.418C508.938 713.977 509.653 713.977 510.095 714.418L508.162 712.486H510.895Z" fill="#A2DDFD"/>
</g>
</g>
<g clip-path="url(#clip4_1001_7396)">
<mask id="mask4_1001_7396" style="mask-type:luminance" maskUnits="userSpaceOnUse" x="299" y="711" width="38" height="38">
<path d="M299.52 711.358H336.959V748.798H299.52V711.358Z" fill="white"/>
</mask>
<g mask="url(#mask4_1001_7396)">
<path d="M335.829 728.953H333.288L334.555 727.686C334.996 727.245 334.996 726.529 334.555 726.088C334.114 725.647 333.398 725.647 332.957 726.088L330.092 728.953H326.896L328.163 727.686C328.604 727.245 328.604 726.529 328.163 726.088C327.722 725.647 327.006 725.647 326.565 726.088L323.7 728.953H320.967L327.419 722.501H328.081H331.471C332.095 722.501 332.601 721.995 332.601 721.371V721.371C332.601 720.747 332.095 720.241 331.471 720.241H329.679L331.476 718.444C331.917 718.003 331.917 717.287 331.476 716.846C331.035 716.405 330.319 716.405 329.878 716.846L328.081 718.643V716.851C328.081 716.227 327.575 715.721 326.951 715.721C326.327 715.721 325.821 716.227 325.821 716.851V720.241V720.903L319.369 727.355V724.622L319.837 724.154L322.234 721.757C322.675 721.316 322.675 720.6 322.234 720.159C321.793 719.718 321.077 719.718 320.636 720.159L319.369 721.426V718.23L319.837 717.762L322.234 715.365C322.675 714.924 322.675 714.208 322.234 713.767C321.793 713.326 321.077 713.326 320.636 713.767L319.369 715.034V712.493C319.369 711.869 318.863 711.363 318.239 711.363C317.615 711.363 317.109 711.869 317.109 712.493V715.034L315.842 713.767C315.401 713.326 314.685 713.326 314.244 713.767C313.803 714.208 313.803 714.924 314.244 715.365L316.641 717.762L317.109 718.23V721.426L315.842 720.159C315.401 719.718 314.685 719.718 314.244 720.159C313.803 720.6 313.803 721.316 314.244 721.757L316.641 724.154L317.109 724.622V727.355L310.657 720.903V720.241V716.851C310.657 716.227 310.151 715.721 309.527 715.721C308.903 715.721 308.397 716.227 308.397 716.851V718.643L306.6 716.846C306.159 716.405 305.443 716.405 305.002 716.846C304.561 717.287 304.561 718.003 305.002 718.444L306.799 720.241H305.007C304.383 720.241 303.877 720.747 303.877 721.371V721.371C303.877 721.995 304.383 722.501 305.007 722.501H308.397H309.059L315.511 728.953H312.778L309.913 726.088C309.472 725.647 308.756 725.647 308.315 726.088C307.874 726.529 307.874 727.245 308.315 727.686L309.582 728.953H306.386L303.521 726.088C303.08 725.647 302.364 725.647 301.923 726.088C301.481 726.529 301.481 727.245 301.923 727.686L303.19 728.953H300.649C300.025 728.953 299.519 729.459 299.519 730.083C299.519 730.707 300.025 731.213 300.649 731.213H303.19L301.923 732.48C301.481 732.921 301.481 733.637 301.923 734.078C302.364 734.519 303.08 734.519 303.521 734.078L306.386 731.213H309.582L308.315 732.48C307.874 732.921 307.874 733.637 308.315 734.078C308.756 734.519 309.472 734.519 309.913 734.078L312.31 731.681L312.778 731.213H315.511L309.059 737.665H308.397H305.007C304.383 737.665 303.877 738.171 303.877 738.795C303.877 739.419 304.383 739.925 305.007 739.925H306.799L305.002 741.722C304.561 742.163 304.561 742.879 305.002 743.32C305.443 743.761 306.159 743.761 306.6 743.32L308.397 741.523V743.315C308.397 743.939 308.903 744.445 309.527 744.445C310.151 744.445 310.657 743.939 310.657 743.315V739.925V739.263L317.109 732.811V735.544L316.641 736.012L314.244 738.409C313.803 738.85 313.803 739.566 314.244 740.007V740.007C314.685 740.448 315.401 740.448 315.842 740.007L317.109 738.74V741.936L316.641 742.404L314.244 744.801C313.803 745.242 313.803 745.958 314.244 746.399C314.685 746.84 315.401 746.84 315.842 746.399L317.109 745.132V747.673C317.109 748.297 317.615 748.803 318.239 748.803C318.863 748.803 319.369 748.297 319.369 747.673V745.132L320.636 746.399C321.077 746.84 321.793 746.84 322.234 746.399C322.675 745.958 322.675 745.242 322.234 744.801L319.837 742.404L319.369 741.936V738.74L320.636 740.007C321.077 740.448 321.793 740.448 322.234 740.007V740.007C322.675 739.566 322.675 738.85 322.234 738.409L319.837 736.012L319.369 735.544V732.811L325.821 739.263V739.925V743.315C325.821 743.939 326.327 744.445 326.951 744.445C327.575 744.445 328.081 743.939 328.081 743.315V741.523L329.878 743.32C330.319 743.761 331.035 743.761 331.476 743.32C331.917 742.879 331.917 742.163 331.476 741.722L329.679 739.925H331.471C332.095 739.925 332.601 739.419 332.601 738.795C332.601 738.171 332.095 737.665 331.471 737.665H328.081H327.419L320.967 731.213H323.7L324.168 731.681L326.565 734.078C327.006 734.519 327.722 734.519 328.163 734.078C328.604 733.637 328.604 732.921 328.163 732.48L326.896 731.213H330.092L332.957 734.078C333.398 734.519 334.114 734.519 334.555 734.078C334.996 733.637 334.996 732.921 334.555 732.48L333.288 731.213H335.829C336.453 731.213 336.959 730.707 336.959 730.083C336.959 729.459 336.453 728.953 335.829 728.953Z" fill="#D2F0FF"/>
<path d="M323.699 731.206C323.075 731.206 322.569 730.7 322.569 730.076C322.569 729.452 323.075 728.946 323.699 728.946H320.967L322.899 727.013C322.458 727.455 321.742 727.455 321.301 727.013C320.86 726.572 320.86 725.857 321.301 725.415L319.368 727.348V724.615L319.837 724.147L322.234 721.75C322.675 721.308 322.675 720.593 322.234 720.152C321.792 719.71 321.077 719.71 320.636 720.152L319.368 721.419V718.223L319.837 717.755L322.234 715.358C322.675 714.916 322.675 714.201 322.234 713.76C321.792 713.318 321.077 713.318 320.636 713.76L319.368 715.027V712.486C319.368 711.862 318.863 711.356 318.239 711.356C317.614 711.356 317.109 711.862 317.109 712.486V715.027L315.841 713.76C315.4 713.318 314.685 713.318 314.243 713.76C313.802 714.201 313.802 714.916 314.243 715.358L316.64 717.755L317.109 718.223V721.419L315.841 720.152C315.4 719.71 314.685 719.71 314.243 720.152C313.802 720.593 313.802 721.308 314.243 721.75L316.64 724.147L317.109 724.615V727.348L310.656 720.895V720.233V716.844C310.656 716.22 310.15 715.714 309.526 715.714C308.902 715.714 308.396 716.22 308.396 716.844V718.635L306.6 716.839C306.158 716.397 305.443 716.397 305.001 716.839C304.56 717.28 304.56 717.996 305.001 718.437L306.798 720.233H305.006C304.382 720.233 303.876 720.739 303.876 721.363C303.876 721.987 304.382 722.493 305.006 722.493H308.396H309.058L315.51 728.946H312.778L309.912 726.081C309.471 725.639 308.756 725.639 308.314 726.081C307.873 726.522 307.873 727.237 308.314 727.679L309.581 728.946H306.385L303.52 726.081C303.079 725.639 302.364 725.639 301.922 726.081C301.481 726.522 301.481 727.237 301.922 727.679L303.189 728.946H300.648C300.024 728.946 299.519 729.452 299.519 730.076C299.519 730.7 300.024 731.206 300.648 731.206H303.189L301.922 732.473C301.481 732.914 301.481 733.63 301.922 734.071C302.364 734.512 303.079 734.512 303.52 734.071L306.385 731.206H309.581L308.314 732.473C307.873 732.914 307.873 733.63 308.314 734.071C308.756 734.512 309.471 734.512 309.912 734.071L312.309 731.674L312.778 731.206H315.51L309.058 737.658H308.396H305.006C304.382 737.658 303.876 738.164 303.876 738.788C303.876 739.412 304.382 739.918 305.006 739.918H306.798L305.001 741.715C304.56 742.156 304.56 742.871 305.001 743.313C305.443 743.754 306.158 743.754 306.6 743.313L308.396 741.516V743.308C308.396 743.932 308.902 744.438 309.526 744.438C310.15 744.438 310.656 743.932 310.656 743.308V739.918V739.256L317.109 732.804V735.537L316.64 736.005L314.243 738.402C313.802 738.843 313.802 739.558 314.243 740C314.685 740.441 315.4 740.441 315.841 740L317.109 738.733V741.929L316.64 742.397L314.243 744.794C313.802 745.235 313.802 745.951 314.243 746.392C314.685 746.833 315.4 746.833 315.841 746.392L317.109 745.125V747.666C317.109 748.29 317.614 748.796 318.239 748.796C318.863 748.796 319.368 748.29 319.368 747.666V745.125L320.636 746.392C321.077 746.833 321.792 746.833 322.234 746.392C322.675 745.951 322.675 745.235 322.234 744.794L319.837 742.397L319.368 741.929V738.733L320.636 740C321.077 740.441 321.792 740.441 322.234 740C322.675 739.558 322.675 738.843 322.234 738.402L319.837 736.005L319.368 735.537V732.804L321.301 734.736C320.86 734.295 320.86 733.579 321.301 733.138C321.742 732.697 322.458 732.697 322.899 733.138L320.967 731.206H323.699Z" fill="#D2F0FF"/>
</g>
</g>
<path d="M931.639 746.555C934.534 746.555 936.881 744.494 936.881 741.951C936.881 739.409 934.534 737.348 931.639 737.348C928.743 737.348 926.396 739.409 926.396 741.951C926.396 744.494 928.743 746.555 931.639 746.555Z" fill="#E8F7FF"/>
<path d="M571.359 683.367L571.471 683.269C572.495 682.369 572.495 680.913 571.471 680.014C570.447 679.114 568.789 679.114 567.764 680.014L567.652 680.112L567.539 680.014C566.515 679.114 564.857 679.114 563.833 680.014C562.808 680.913 562.808 682.369 563.833 683.269L563.945 683.367L563.833 683.466C562.808 684.366 562.808 685.822 563.833 686.721C564.344 687.171 565.015 687.396 565.686 687.396C566.356 687.396 567.027 687.171 567.539 686.721L567.652 686.622L567.764 686.721C568.276 687.171 568.947 687.396 569.618 687.396C570.288 687.396 570.959 687.171 571.471 686.721C572.495 685.822 572.495 684.366 571.471 683.466L571.359 683.367Z" fill="#D2F0FF"/>
<path d="M1007.46 814.93L1007.57 814.832C1008.59 813.932 1008.59 812.476 1007.57 811.577C1006.54 810.677 1004.89 810.677 1003.86 811.577L1003.75 811.675L1003.64 811.577C1002.61 810.677 1000.95 810.677 999.93 811.577C998.906 812.476 998.906 813.932 999.93 814.832L1000.04 814.93L999.93 815.029C998.906 815.928 998.906 817.385 999.93 818.284C1000.44 818.734 1001.11 818.959 1001.78 818.959C1002.45 818.959 1003.13 818.734 1003.64 818.284L1003.75 818.185L1003.86 818.284C1004.37 818.734 1005.04 818.959 1005.72 818.959C1006.39 818.959 1007.06 818.734 1007.57 818.284C1008.59 817.385 1008.59 815.928 1007.57 815.029L1007.46 814.93Z" fill="#D2F0FF"/>
<path d="M806.35 815.506H803.729V813.204C803.729 811.933 802.556 810.902 801.107 810.902C799.658 810.902 798.486 811.933 798.486 813.204V815.506H795.865C794.416 815.506 793.243 816.537 793.243 817.808C793.243 819.079 794.416 820.11 795.865 820.11H798.486V822.412C798.486 823.683 799.658 824.713 801.107 824.713C802.556 824.713 803.729 823.683 803.729 822.412V820.11H806.35C807.799 820.11 808.971 819.079 808.971 817.808C808.971 816.537 807.799 815.506 806.35 815.506Z" fill="#D2F0FF"/>
<path d="M413.232 778.064H410.611V775.762C410.611 774.491 409.438 773.46 407.99 773.46C406.541 773.46 405.368 774.491 405.368 775.762V778.064H402.747C401.298 778.064 400.125 779.095 400.125 780.366C400.125 781.637 401.298 782.668 402.747 782.668H405.368V784.969C405.368 786.241 406.541 787.271 407.99 787.271C409.438 787.271 410.611 786.241 410.611 784.969V782.668H413.232C414.681 782.668 415.854 781.637 415.854 780.366C415.854 779.095 414.682 778.064 413.232 778.064Z" fill="#D2F0FF"/>
<path d="M539.46 609.01L539.572 608.911C540.596 608.012 540.596 606.555 539.572 605.656C538.548 604.757 536.89 604.757 535.865 605.656L535.753 605.755L535.64 605.656C534.616 604.757 532.958 604.757 531.934 605.656C530.91 606.555 530.91 608.012 531.934 608.911L532.046 609.01L531.934 609.109C530.91 610.008 530.91 611.464 531.934 612.364C532.445 612.813 533.116 613.038 533.787 613.038C534.458 613.038 535.128 612.813 535.64 612.364L535.753 612.265L535.865 612.364C536.377 612.813 537.048 613.038 537.719 613.038C538.389 613.038 539.06 612.813 539.572 612.364C540.596 611.464 540.596 610.008 539.572 609.109L539.46 609.01Z" fill="#D2F0FF"/>
<path d="M769.534 726.875L769.647 726.974C770.671 727.873 770.671 729.33 769.647 730.229C768.623 731.128 766.964 731.128 765.94 730.229L765.828 730.13L765.715 730.229C764.691 731.128 763.032 731.128 762.008 730.229C760.984 729.33 760.984 727.873 762.008 726.974L762.121 726.875L762.008 726.776C760.984 725.877 760.984 724.421 762.008 723.521C762.52 723.072 763.191 722.847 763.862 722.847C764.532 722.847 765.203 723.072 765.715 723.521L765.828 723.62L765.94 723.521C766.452 723.072 767.123 722.847 767.794 722.847C768.464 722.847 769.135 723.072 769.647 723.521C770.671 724.421 770.671 725.877 769.647 726.776L769.534 726.875Z" fill="#D2F0FF"/>
<path d="M1066.81 654.365L1066.92 654.266C1067.95 653.367 1067.95 651.911 1066.92 651.011C1065.9 650.112 1064.24 650.112 1063.22 651.011L1063.11 651.11L1062.99 651.011C1061.97 650.112 1060.31 650.112 1059.29 651.011C1058.26 651.911 1058.26 653.367 1059.29 654.266L1059.4 654.365L1059.29 654.464C1058.26 655.363 1058.26 656.82 1059.29 657.719C1059.8 658.168 1060.47 658.393 1061.14 658.393C1061.81 658.393 1062.48 658.168 1062.99 657.719L1063.11 657.62L1063.22 657.719C1063.73 658.168 1064.4 658.393 1065.07 658.393C1065.74 658.393 1066.41 658.168 1066.92 657.719C1067.95 656.82 1067.95 655.363 1066.92 654.464L1066.81 654.365Z" fill="#D2F0FF"/>
<path d="M355.535 630.609L358.925 627.633C359.949 626.734 359.949 625.277 358.925 624.378C357.901 623.479 356.242 623.479 355.218 624.378L351.829 627.354L348.439 624.378C347.415 623.479 345.757 623.479 344.732 624.378C343.708 625.277 343.708 626.734 344.732 627.633L348.122 630.609L344.732 633.585C343.708 634.485 343.708 635.941 344.732 636.84C345.244 637.29 345.915 637.515 346.586 637.515C347.256 637.515 347.927 637.29 348.439 636.84L351.829 633.864L355.218 636.84C355.73 637.29 356.401 637.515 357.071 637.515C357.742 637.515 358.413 637.29 358.925 636.84C359.949 635.941 359.949 634.485 358.925 633.585L355.535 630.609Z" fill="#D2F0FF"/>
<path d="M972.526 582.428H969.905V580.127C969.905 578.855 968.732 577.825 967.284 577.825C965.835 577.825 964.662 578.855 964.662 580.127V582.428H962.041C960.592 582.428 959.419 583.459 959.419 584.73C959.419 586.001 960.592 587.032 962.041 587.032H964.662V589.334C964.662 590.605 965.835 591.636 967.284 591.636C968.732 591.636 969.905 590.605 969.905 589.334V587.032H972.526C973.975 587.032 975.148 586.001 975.148 584.73C975.148 583.459 973.975 582.428 972.526 582.428Z" fill="#D2F0FF"/>
<path d="M424.089 689.068C426.985 689.068 429.332 687.007 429.332 684.465C429.332 681.922 426.985 679.861 424.089 679.861C421.194 679.861 418.847 681.922 418.847 684.465C418.847 687.007 421.194 689.068 424.089 689.068Z" fill="#E8F7FF"/>
<path d="M865.584 616.035C868.48 616.035 870.827 613.974 870.827 611.432C870.827 608.889 868.48 606.828 865.584 606.828C862.689 606.828 860.341 608.889 860.341 611.432C860.341 613.974 862.689 616.035 865.584 616.035Z" fill="#E8F7FF"/>
<path d="M708.291 674.042H705.67V676.343C705.67 677.615 704.498 678.645 703.049 678.645C701.6 678.645 700.427 677.615 700.427 676.343V674.042H697.806C696.357 674.042 695.185 673.011 695.185 671.74C695.185 670.468 696.357 669.438 697.806 669.438H700.427V667.136C700.427 665.865 701.6 664.834 703.049 664.834C704.498 664.834 705.67 665.865 705.67 667.136V669.438H708.291C709.74 669.438 710.913 670.468 710.913 671.74C710.913 673.011 709.741 674.042 708.291 674.042Z" fill="#D2F0FF"/>
<path d="M700.427 770.953C703.323 770.953 705.67 773.014 705.67 775.557C705.67 778.099 703.323 780.16 700.427 780.16C697.532 780.16 695.185 778.099 695.185 775.557C695.185 773.014 697.532 770.953 700.427 770.953Z" fill="#E8F7FF"/>
<mask id="mask5_1001_7396" style="mask-type:luminance" maskUnits="userSpaceOnUse" x="1017" y="548" width="39" height="39">
<path d="M1017.88 548.822H1055.32V586.262H1017.88V548.822Z" fill="white"/>
</mask>
<g mask="url(#mask5_1001_7396)">
<path d="M1054.19 566.413H1051.65L1052.92 565.146C1053.36 564.705 1053.36 563.99 1052.92 563.548C1052.48 563.107 1051.76 563.107 1051.32 563.548L1048.46 566.413H1045.26L1046.53 565.146C1046.97 564.705 1046.97 563.99 1046.53 563.548C1046.09 563.107 1045.37 563.107 1044.93 563.548L1042.07 566.413H1039.33L1045.78 559.961H1046.45H1049.84C1050.46 559.961 1050.97 559.455 1050.97 558.831V558.831C1050.97 558.207 1050.46 557.701 1049.84 557.701H1048.04L1049.84 555.904C1050.28 555.463 1050.28 554.748 1049.84 554.306C1049.4 553.865 1048.68 553.865 1048.24 554.306L1046.45 556.103V554.311C1046.45 553.687 1045.94 553.181 1045.32 553.181C1044.69 553.181 1044.19 553.687 1044.19 554.311V557.701V558.363L1037.73 564.815V562.082L1038.2 561.614L1040.6 559.217C1041.04 558.776 1041.04 558.061 1040.6 557.619C1040.16 557.178 1039.44 557.178 1039 557.619L1037.73 558.886V555.69L1038.2 555.222L1040.6 552.825C1041.04 552.384 1041.04 551.669 1040.6 551.227C1040.16 550.786 1039.44 550.786 1039 551.227L1037.73 552.494V549.953C1037.73 549.329 1037.23 548.823 1036.6 548.823C1035.98 548.823 1035.47 549.329 1035.47 549.953V552.494L1034.21 551.227C1033.77 550.786 1033.05 550.786 1032.61 551.227C1032.17 551.669 1032.17 552.384 1032.61 552.825L1035.01 555.222L1035.47 555.69V558.886L1034.21 557.619C1033.77 557.178 1033.05 557.178 1032.61 557.619C1032.17 558.061 1032.17 558.776 1032.61 559.217L1035.01 561.614L1035.47 562.082V564.815L1029.02 558.363V557.701V554.311C1029.02 553.687 1028.52 553.181 1027.89 553.181C1027.27 553.181 1026.76 553.687 1026.76 554.311V556.103L1024.97 554.306C1024.52 553.865 1023.81 553.865 1023.37 554.306C1022.93 554.748 1022.93 555.463 1023.37 555.904L1025.16 557.701H1023.37C1022.75 557.701 1022.24 558.207 1022.24 558.831V558.831C1022.24 559.455 1022.75 559.961 1023.37 559.961H1026.76H1027.42L1033.88 566.413H1031.14L1028.28 563.548C1027.84 563.107 1027.12 563.107 1026.68 563.548C1026.24 563.99 1026.24 564.705 1026.68 565.146L1027.95 566.413H1024.75L1021.89 563.548C1021.44 563.107 1020.73 563.107 1020.29 563.548C1019.85 563.99 1019.85 564.705 1020.29 565.146L1021.56 566.413H1019.01C1018.39 566.413 1017.88 566.919 1017.88 567.543C1017.88 568.167 1018.39 568.673 1019.01 568.673H1021.56L1020.29 569.94C1019.85 570.382 1019.85 571.097 1020.29 571.538C1020.73 571.98 1021.44 571.98 1021.89 571.538L1024.75 568.673H1027.95L1026.68 569.94C1026.24 570.382 1026.24 571.097 1026.68 571.538C1027.12 571.98 1027.84 571.98 1028.28 571.538L1030.68 569.141L1031.14 568.673H1033.88L1027.42 575.126H1026.76H1023.37C1022.75 575.126 1022.24 575.632 1022.24 576.256C1022.24 576.88 1022.75 577.386 1023.37 577.386H1025.16L1023.37 579.182C1022.93 579.623 1022.93 580.339 1023.37 580.78C1023.81 581.222 1024.52 581.222 1024.97 580.78L1026.76 578.984V580.775C1026.76 581.4 1027.27 581.905 1027.89 581.905C1028.52 581.905 1029.02 581.4 1029.02 580.775V577.386V576.724L1035.47 570.271V573.004L1035.01 573.472L1032.61 575.869C1032.17 576.311 1032.17 577.026 1032.61 577.467V577.467C1033.05 577.909 1033.77 577.909 1034.21 577.467L1035.47 576.2V579.396L1035.01 579.864L1032.61 582.261C1032.17 582.703 1032.17 583.418 1032.61 583.859C1033.05 584.301 1033.77 584.301 1034.21 583.859L1035.47 582.592V585.133C1035.47 585.757 1035.98 586.263 1036.6 586.263C1037.23 586.263 1037.73 585.757 1037.73 585.133V582.592L1039 583.859C1039.44 584.301 1040.16 584.301 1040.6 583.859C1041.04 583.418 1041.04 582.703 1040.6 582.261L1038.2 579.864L1037.73 579.396V576.2L1039 577.467C1039.44 577.909 1040.16 577.909 1040.6 577.467V577.467C1041.04 577.026 1041.04 576.311 1040.6 575.869L1038.2 573.472L1037.73 573.004V570.271L1044.19 576.724V577.386V580.775C1044.19 581.4 1044.69 581.905 1045.32 581.905C1045.94 581.905 1046.45 581.4 1046.45 580.775V578.984L1048.24 580.78C1048.68 581.222 1049.4 581.222 1049.84 580.78C1050.28 580.339 1050.28 579.623 1049.84 579.182L1048.04 577.386H1049.84C1050.46 577.386 1050.97 576.88 1050.97 576.256C1050.97 575.632 1050.46 575.126 1049.84 575.126H1046.45H1045.78L1039.33 568.673H1042.07L1042.53 569.141L1044.93 571.538C1045.37 571.98 1046.09 571.98 1046.53 571.538C1046.97 571.097 1046.97 570.382 1046.53 569.94L1045.26 568.673H1048.46L1051.32 571.538C1051.76 571.98 1052.48 571.98 1052.92 571.538C1053.36 571.097 1053.36 570.382 1052.92 569.94L1051.65 568.673H1054.19C1054.82 568.673 1055.32 568.167 1055.32 567.543C1055.32 566.919 1054.82 566.413 1054.19 566.413Z" fill="#A2DDFD"/>
<path d="M1042.07 568.669C1041.44 568.669 1040.94 568.164 1040.94 567.539C1040.94 566.915 1041.44 566.409 1042.07 566.409H1039.34L1041.27 564.477C1040.83 564.918 1040.11 564.918 1039.67 564.477C1039.23 564.036 1039.23 563.32 1039.67 562.879L1037.74 564.811V562.079L1038.21 561.61L1040.6 559.213C1041.04 558.772 1041.04 558.057 1040.6 557.615C1040.16 557.174 1039.45 557.174 1039 557.615L1037.74 558.882V555.686L1038.21 555.218L1040.6 552.821C1041.04 552.38 1041.04 551.665 1040.6 551.223C1040.16 550.782 1039.45 550.782 1039 551.223L1037.74 552.49V549.95C1037.74 549.325 1037.23 548.82 1036.61 548.82C1035.98 548.82 1035.48 549.325 1035.48 549.95V552.49L1034.21 551.223C1033.77 550.782 1033.05 550.782 1032.61 551.223C1032.17 551.665 1032.17 552.38 1032.61 552.821L1035.01 555.218L1035.48 555.686V558.882L1034.21 557.615C1033.77 557.174 1033.05 557.174 1032.61 557.615C1032.17 558.057 1032.17 558.772 1032.61 559.213L1035.01 561.61L1035.48 562.079V564.811L1029.03 558.359V557.697V554.307C1029.03 553.683 1028.52 553.177 1027.9 553.177C1027.27 553.177 1026.77 553.683 1026.77 554.307V556.099L1024.97 554.302C1024.53 553.861 1023.81 553.861 1023.37 554.302C1022.93 554.744 1022.93 555.459 1023.37 555.9L1025.17 557.697H1023.38C1022.75 557.697 1022.25 558.203 1022.25 558.827C1022.25 559.451 1022.75 559.957 1023.38 559.957H1026.77H1027.43L1033.88 566.409H1031.15L1028.28 563.544C1027.84 563.103 1027.12 563.103 1026.68 563.544C1026.24 563.986 1026.24 564.701 1026.68 565.142L1027.95 566.409H1024.75L1021.89 563.544C1021.45 563.103 1020.73 563.103 1020.29 563.544C1019.85 563.986 1019.85 564.701 1020.29 565.142L1021.56 566.409H1019.02C1018.39 566.409 1017.89 566.915 1017.89 567.539C1017.89 568.164 1018.39 568.669 1019.02 568.669H1021.56L1020.29 569.936C1019.85 570.378 1019.85 571.093 1020.29 571.534C1020.73 571.976 1021.45 571.976 1021.89 571.534L1024.75 568.669H1027.95L1026.68 569.936C1026.24 570.378 1026.24 571.093 1026.68 571.534C1027.12 571.976 1027.84 571.976 1028.28 571.534L1030.68 569.137L1031.15 568.669H1033.88L1027.43 575.122H1026.77H1023.38C1022.75 575.122 1022.25 575.628 1022.25 576.252C1022.25 576.876 1022.75 577.382 1023.38 577.382H1025.17L1023.37 579.178C1022.93 579.62 1022.93 580.335 1023.37 580.776C1023.81 581.218 1024.53 581.218 1024.97 580.776L1026.77 578.98V580.772C1026.77 581.396 1027.27 581.902 1027.9 581.902C1028.52 581.902 1029.03 581.396 1029.03 580.772V577.382V576.72L1035.48 570.267V573L1035.01 573.468L1032.61 575.865C1032.17 576.307 1032.17 577.022 1032.61 577.463C1033.05 577.905 1033.77 577.905 1034.21 577.463L1035.48 576.196V579.392L1035.01 579.86L1032.61 582.257C1032.17 582.699 1032.17 583.414 1032.61 583.856C1033.05 584.297 1033.77 584.297 1034.21 583.856L1035.48 582.588V585.129C1035.48 585.753 1035.98 586.259 1036.61 586.259C1037.23 586.259 1037.74 585.753 1037.74 585.129V582.588L1039 583.856C1039.45 584.297 1040.16 584.297 1040.6 583.856C1041.04 583.414 1041.04 582.699 1040.6 582.257L1038.21 579.86L1037.74 579.392V576.196L1039 577.463C1039.45 577.905 1040.16 577.905 1040.6 577.463C1041.04 577.022 1041.04 576.307 1040.6 575.865L1038.21 573.468L1037.74 573V570.267L1039.67 572.2C1039.23 571.759 1039.23 571.043 1039.67 570.602C1040.11 570.161 1040.83 570.161 1041.27 570.602L1039.34 568.669H1042.07Z" fill="#A2DDFD"/>
</g>
<g clip-path="url(#clip5_1001_7396)">
<mask id="mask6_1001_7396" style="mask-type:luminance" maskUnits="userSpaceOnUse" x="568" y="754" width="90" height="90">
<path d="M584.553 754.744L657.715 770.688L641.771 843.85L568.608 827.906L584.553 754.744Z" fill="white"/>
</mask>
<g mask="url(#mask6_1001_7396)">
<path d="M648.016 804.579L643.051 803.497L646.066 801.561C647.117 800.886 647.421 799.488 646.747 798.438C646.073 797.388 644.674 797.083 643.624 797.758L636.805 802.136L630.56 800.775L633.575 798.839C634.626 798.164 634.93 796.766 634.256 795.716C633.582 794.666 632.184 794.361 631.133 795.035L624.314 799.414L618.974 798.25L634.331 788.389L635.624 788.671L642.248 790.115C643.468 790.381 644.672 789.607 644.938 788.388L644.938 788.388C645.204 787.168 644.43 785.964 643.211 785.699L639.709 784.935L643.985 782.19C645.036 781.515 645.34 780.117 644.666 779.067C643.991 778.017 642.593 777.712 641.543 778.386L637.267 781.132L638.03 777.631C638.296 776.411 637.523 775.207 636.303 774.941C635.084 774.676 633.88 775.449 633.614 776.668L632.17 783.293L631.888 784.586L616.532 794.447L617.695 789.106L618.809 788.391L624.514 784.728C625.565 784.053 625.869 782.655 625.195 781.605C624.521 780.555 623.122 780.25 622.072 780.925L619.056 782.861L620.418 776.615L621.532 775.9L627.236 772.237C628.287 771.562 628.591 770.164 627.917 769.114C627.243 768.064 625.845 767.759 624.794 768.434L621.779 770.37L622.861 765.405C623.126 764.185 622.353 762.981 621.134 762.716C619.914 762.45 618.71 763.223 618.445 764.442L617.362 769.408L615.426 766.392C614.752 765.342 613.354 765.037 612.303 765.711C611.253 766.386 610.948 767.784 611.623 768.834L615.286 774.539L616.001 775.653L614.64 781.899L612.704 778.883C612.029 777.833 610.631 777.528 609.581 778.202C608.531 778.877 608.226 780.275 608.901 781.325L612.564 787.03L613.279 788.144L612.115 793.485L602.254 778.128L602.536 776.835L603.98 770.21C604.246 768.991 603.473 767.787 602.253 767.521C601.033 767.255 599.829 768.028 599.564 769.248L598.801 772.749L596.055 768.473C595.38 767.423 593.982 767.118 592.932 767.793C591.882 768.467 591.577 769.865 592.251 770.916L594.997 775.192L591.496 774.428C590.276 774.163 589.072 774.936 588.806 776.155L588.806 776.155C588.541 777.375 589.314 778.579 590.533 778.845L597.158 780.288L598.451 780.57L608.312 795.927L602.972 794.763L598.593 787.944C597.919 786.894 596.52 786.589 595.47 787.263C594.42 787.938 594.115 789.336 594.79 790.386L596.726 793.402L590.48 792.041L586.102 785.222C585.428 784.172 584.029 783.867 582.979 784.541C581.929 785.216 581.624 786.614 582.299 787.664L584.235 790.68L579.27 789.598C578.05 789.332 576.846 790.105 576.58 791.325C576.315 792.544 577.088 793.748 578.307 794.014L583.273 795.096L580.257 797.032C579.207 797.707 578.902 799.105 579.576 800.155C580.251 801.205 581.649 801.51 582.699 800.836L589.518 796.457L595.764 797.818L592.748 799.755C591.698 800.429 591.393 801.827 592.068 802.877C592.742 803.928 594.14 804.232 595.19 803.558L600.895 799.894L602.009 799.179L607.35 800.343L591.993 810.204L590.7 809.922L584.075 808.478C582.856 808.213 581.652 808.986 581.386 810.205C581.12 811.425 581.893 812.629 583.113 812.895L586.614 813.658L582.338 816.404C581.288 817.078 580.983 818.476 581.658 819.526C582.332 820.577 583.73 820.881 584.781 820.207L589.057 817.461L588.294 820.963C588.028 822.182 588.801 823.386 590.02 823.652C591.24 823.918 592.444 823.145 592.71 821.925L594.153 815.301L594.435 814.007L609.792 804.146L608.628 809.487L607.514 810.202L601.809 813.865C600.759 814.54 600.454 815.938 601.129 816.988L601.129 816.988C601.803 818.038 603.201 818.343 604.251 817.669L607.267 815.732L605.906 821.978L604.792 822.693L599.087 826.356C598.037 827.031 597.732 828.429 598.406 829.479C599.081 830.529 600.479 830.834 601.529 830.16L604.545 828.223L603.463 833.188C603.197 834.408 603.97 835.612 605.19 835.878C606.409 836.144 607.613 835.37 607.879 834.151L608.961 829.186L610.898 832.201C611.572 833.252 612.97 833.556 614.02 832.882C615.07 832.207 615.375 830.809 614.701 829.759L611.037 824.054L610.322 822.94L611.683 816.695L613.62 819.71C614.294 820.76 615.692 821.065 616.742 820.391L616.742 820.391C617.793 819.716 618.097 818.318 617.423 817.268L613.76 811.563L613.044 810.449L614.208 805.109L624.069 820.465L623.787 821.759L622.344 828.383C622.078 829.603 622.851 830.807 624.071 831.072C625.29 831.338 626.494 830.565 626.76 829.346L627.523 825.844L630.269 830.12C630.943 831.17 632.341 831.475 633.392 830.8C634.442 830.126 634.747 828.728 634.072 827.678L631.326 823.402L634.828 824.165C636.047 824.431 637.252 823.657 637.517 822.438C637.783 821.218 637.01 820.014 635.79 819.749L629.166 818.305L627.872 818.023L618.011 802.666L623.352 803.83L624.067 804.944L627.731 810.649C628.405 811.699 629.803 812.004 630.853 811.33C631.904 810.655 632.208 809.257 631.534 808.207L629.597 805.191L635.843 806.552L640.222 813.371C640.896 814.422 642.294 814.726 643.344 814.052C644.395 813.378 644.699 811.979 644.025 810.929L642.089 807.913L647.054 808.995C648.273 809.261 649.477 808.488 649.743 807.269C650.009 806.049 649.236 804.845 648.016 804.579Z" fill="#D2F0FF"/>
<path d="M623.355 803.827C622.136 803.561 621.363 802.357 621.628 801.138C621.894 799.918 623.098 799.145 624.318 799.411L618.977 798.247L623.576 795.294C622.526 795.968 621.128 795.663 620.454 794.613C619.779 793.563 620.084 792.165 621.134 791.491L616.535 794.444L617.699 789.103L618.813 788.388L624.518 784.725C625.568 784.05 625.873 782.652 625.198 781.602C624.524 780.552 623.126 780.247 622.076 780.921L619.06 782.858L620.421 776.612L621.535 775.897L627.24 772.234C628.29 771.559 628.595 770.161 627.92 769.111C627.246 768.061 625.848 767.756 624.798 768.43L621.782 770.367L622.864 765.402C623.13 764.182 622.357 762.978 621.137 762.712C619.918 762.446 618.714 763.22 618.448 764.439L617.366 769.404L615.429 766.389C614.755 765.338 613.357 765.034 612.307 765.708C611.256 766.383 610.952 767.781 611.626 768.831L615.289 774.536L616.005 775.65L614.644 781.895L612.707 778.88C612.033 777.83 610.635 777.525 609.584 778.199C608.534 778.874 608.23 780.272 608.904 781.322L612.567 787.027L613.283 788.141L612.119 793.481L602.258 778.125L602.54 776.831L603.983 770.207C604.249 768.987 603.476 767.783 602.256 767.518C601.037 767.252 599.833 768.025 599.567 769.244L598.804 772.746L596.058 768.47C595.384 767.42 593.986 767.115 592.935 767.79C591.885 768.464 591.58 769.862 592.255 770.912L595.001 775.188L591.499 774.425C590.279 774.159 589.075 774.933 588.81 776.152C588.544 777.372 589.317 778.576 590.537 778.841L597.161 780.285L598.455 780.567L608.315 795.924L602.975 794.76L598.596 787.941C597.922 786.891 596.524 786.586 595.474 787.26C594.423 787.935 594.119 789.333 594.793 790.383L596.729 793.399L590.484 792.038L586.105 785.219C585.431 784.168 584.033 783.864 582.982 784.538C581.932 785.212 581.628 786.611 582.302 787.661L584.238 790.677L579.273 789.594C578.054 789.329 576.85 790.102 576.584 791.321C576.318 792.541 577.091 793.745 578.311 794.011L583.276 795.093L580.26 797.029C579.21 797.704 578.905 799.102 579.58 800.152C580.254 801.202 581.652 801.507 582.703 800.832L589.521 796.454L595.767 797.815L592.751 799.751C591.701 800.426 591.396 801.824 592.071 802.874C592.745 803.924 594.143 804.229 595.194 803.555L600.899 799.891L602.013 799.176L607.353 800.34L591.996 810.201L590.703 809.919L584.078 808.475C582.859 808.209 581.655 808.983 581.389 810.202C581.123 811.422 581.897 812.626 583.116 812.891L586.618 813.654L582.342 816.4C581.291 817.075 580.987 818.473 581.661 819.523C582.336 820.573 583.734 820.878 584.784 820.204L589.06 817.458L588.297 820.959C588.031 822.179 588.804 823.383 590.024 823.649C591.243 823.915 592.447 823.141 592.713 821.922L594.157 815.297L594.439 814.004L609.795 804.143L608.631 809.484L607.517 810.199L601.812 813.862C600.762 814.536 600.458 815.935 601.132 816.985C601.806 818.035 603.205 818.34 604.255 817.665L607.27 815.729L605.909 821.974L604.795 822.69L599.09 826.353C598.04 827.028 597.735 828.426 598.41 829.476C599.084 830.526 600.482 830.831 601.533 830.156L604.548 828.22L603.466 833.185C603.2 834.405 603.974 835.609 605.193 835.875C606.413 836.14 607.617 835.367 607.882 834.148L608.964 829.182L610.901 832.198C611.575 833.248 612.973 833.553 614.024 832.879C615.074 832.204 615.379 830.806 614.704 829.756L611.041 824.051L610.325 822.937L611.687 816.691L613.623 819.707C614.297 820.757 615.695 821.062 616.746 820.388C617.796 819.713 618.101 818.315 617.426 817.265L613.763 811.56L613.048 810.446L614.211 805.105L617.165 809.705C616.49 808.654 616.795 807.256 617.845 806.582C618.896 805.908 620.294 806.212 620.968 807.262L618.015 802.663L623.355 803.827Z" fill="#D2F0FF"/>
</g>
</g>
<path d="M498.966 801.389C501.862 801.389 504.209 799.328 504.209 796.786C504.209 794.243 501.862 792.182 498.966 792.182C496.071 792.182 493.724 794.243 493.724 796.786C493.724 799.328 496.071 801.389 498.966 801.389Z" fill="#E8F7FF"/>
<mask id="mask7_1001_7396" style="mask-type:luminance" maskUnits="userSpaceOnUse" x="820" y="670" width="45" height="45">
<path d="M820.434 677.858L857.179 670.678L864.359 707.423L827.614 714.603L820.434 677.858Z" fill="white"/>
</mask>
<g mask="url(#mask7_1001_7396)">
<path d="M859.442 688.159L856.949 688.646L857.949 687.16C858.298 686.642 858.16 685.94 857.643 685.591C857.125 685.243 856.423 685.38 856.074 685.898L853.812 689.259L850.675 689.872L851.676 688.386C852.024 687.868 851.887 687.166 851.369 686.817C850.851 686.469 850.149 686.606 849.801 687.124L847.538 690.485L844.856 691.009L849.951 683.439L850.601 683.312L853.928 682.662C854.541 682.542 854.94 681.949 854.82 681.336L854.82 681.336C854.701 680.724 854.107 680.324 853.495 680.444L851.736 680.788L853.155 678.68C853.503 678.162 853.366 677.46 852.848 677.111C852.331 676.763 851.628 676.9 851.28 677.418L849.861 679.526L849.518 677.767C849.398 677.155 848.804 676.755 848.192 676.875C847.579 676.994 847.18 677.588 847.3 678.201L847.95 681.527L848.077 682.177L842.981 689.747L842.457 687.065L842.827 686.516L844.72 683.704C845.068 683.186 844.931 682.484 844.413 682.135C843.896 681.787 843.193 681.924 842.845 682.442L841.844 683.928L841.231 680.791L841.601 680.242L843.494 677.43C843.842 676.912 843.705 676.21 843.187 675.862C842.67 675.513 841.968 675.65 841.619 676.168L840.619 677.655L840.131 675.161C840.012 674.548 839.418 674.149 838.806 674.269C838.193 674.388 837.794 674.982 837.913 675.594L838.401 678.088L836.914 677.087C836.396 676.739 835.694 676.876 835.346 677.394C834.997 677.912 835.134 678.614 835.652 678.962L838.464 680.855L839.013 681.225L839.626 684.361L838.14 683.361C837.622 683.012 836.92 683.15 836.571 683.667C836.223 684.185 836.36 684.887 836.878 685.236L839.69 687.129L840.239 687.498L840.763 690.18L833.193 685.085L833.066 684.436L832.416 681.109C832.297 680.496 831.703 680.097 831.091 680.216C830.478 680.336 830.079 680.929 830.198 681.542L830.542 683.301L828.434 681.882C827.916 681.533 827.214 681.671 826.866 682.188C826.517 682.706 826.654 683.408 827.172 683.757L829.28 685.175L827.521 685.519C826.909 685.639 826.509 686.232 826.629 686.845L826.629 686.845C826.749 687.457 827.342 687.857 827.955 687.737L831.282 687.087L831.931 686.96L839.501 692.055L836.819 692.579L833.458 690.317C832.94 689.968 832.238 690.106 831.889 690.623C831.541 691.141 831.678 691.843 832.196 692.192L833.682 693.192L830.546 693.805L827.184 691.543C826.667 691.194 825.964 691.331 825.616 691.849C825.267 692.367 825.405 693.069 825.922 693.417L827.409 694.418L824.915 694.905C824.303 695.025 823.903 695.618 824.023 696.231C824.143 696.843 824.736 697.243 825.349 697.123L827.842 696.636L826.842 698.123C826.493 698.64 826.63 699.342 827.148 699.691C827.666 700.039 828.368 699.902 828.717 699.384L830.979 696.023L834.116 695.41L833.115 696.897C832.767 697.414 832.904 698.117 833.422 698.465C833.939 698.814 834.642 698.676 834.99 698.159L836.883 695.346L837.253 694.797L839.935 694.273L834.839 701.843L834.19 701.97L830.863 702.62C830.25 702.74 829.851 703.333 829.971 703.946C830.09 704.558 830.684 704.958 831.296 704.838L833.055 704.495L831.636 706.602C831.288 707.12 831.425 707.822 831.942 708.171C832.46 708.519 833.162 708.382 833.511 707.864L834.93 705.756L835.273 707.515C835.393 708.128 835.986 708.527 836.599 708.407C837.211 708.288 837.611 707.694 837.491 707.082L836.841 703.755L836.714 703.105L841.81 695.535L842.334 698.217L841.964 698.766L840.071 701.579C839.723 702.096 839.86 702.799 840.378 703.147L840.378 703.147C840.895 703.495 841.598 703.358 841.946 702.841L842.947 701.354L843.559 704.491L843.19 705.04L841.297 707.852C840.948 708.37 841.086 709.072 841.603 709.42C842.121 709.769 842.823 709.632 843.172 709.114L844.172 707.628L844.66 710.121C844.779 710.734 845.373 711.133 845.985 711.014C846.598 710.894 846.997 710.3 846.878 709.688L846.39 707.194L847.877 708.195C848.395 708.543 849.097 708.406 849.445 707.888C849.794 707.371 849.657 706.668 849.139 706.32L846.327 704.427L845.777 704.057L845.165 700.921L846.651 701.921C847.169 702.27 847.871 702.133 848.219 701.615L848.219 701.615C848.568 701.097 848.431 700.395 847.913 700.046L845.101 698.154L844.552 697.784L844.028 695.102L851.598 700.197L851.724 700.847L852.375 704.174C852.494 704.786 853.088 705.186 853.7 705.066C854.313 704.946 854.712 704.353 854.593 703.74L854.249 701.982L856.357 703.4C856.875 703.749 857.577 703.612 857.925 703.094C858.274 702.576 858.136 701.874 857.619 701.526L855.511 700.107L857.27 699.763C857.882 699.644 858.282 699.05 858.162 698.438C858.042 697.825 857.449 697.426 856.836 697.545L853.509 698.195L852.859 698.322L845.29 693.227L847.972 692.703L848.521 693.072L851.333 694.965C851.851 695.314 852.553 695.177 852.901 694.659C853.25 694.141 853.113 693.439 852.595 693.091L851.108 692.09L854.245 691.477L857.607 693.74C858.124 694.088 858.826 693.951 859.175 693.433C859.523 692.915 859.386 692.213 858.868 691.865L857.382 690.864L859.876 690.377C860.488 690.257 860.888 689.664 860.768 689.051C860.648 688.439 860.055 688.039 859.442 688.159Z" fill="#D2F0FF"/>
<path d="M847.972 692.698C847.359 692.818 846.766 692.419 846.646 691.806C846.526 691.194 846.926 690.6 847.538 690.48L844.856 691.004L846.382 688.737C846.034 689.255 845.331 689.392 844.814 689.044C844.296 688.695 844.159 687.993 844.507 687.475L842.981 689.743L842.457 687.06L842.827 686.511L844.72 683.699C845.068 683.181 844.931 682.479 844.413 682.131C843.896 681.782 843.193 681.919 842.845 682.437L841.844 683.924L841.231 680.787L841.601 680.238L843.494 677.426C843.842 676.908 843.705 676.206 843.187 675.857C842.67 675.509 841.968 675.646 841.619 676.164L840.619 677.65L840.131 675.156C840.012 674.544 839.418 674.144 838.806 674.264C838.193 674.384 837.794 674.977 837.913 675.59L838.401 678.084L836.914 677.083C836.396 676.734 835.694 676.872 835.346 677.389C834.997 677.907 835.134 678.609 835.652 678.958L838.464 680.851L839.013 681.22L839.626 684.357L838.14 683.356C837.622 683.008 836.92 683.145 836.571 683.663C836.223 684.181 836.36 684.883 836.878 685.231L839.69 687.124L840.239 687.494L840.763 690.176L833.193 685.081L833.066 684.431L832.416 681.104C832.297 680.492 831.703 680.092 831.091 680.212C830.478 680.331 830.079 680.925 830.198 681.537L830.542 683.296L828.434 681.877C827.916 681.529 827.214 681.666 826.866 682.184C826.517 682.701 826.654 683.404 827.172 683.752L829.28 685.171L827.521 685.514C826.909 685.634 826.509 686.228 826.629 686.84C826.749 687.453 827.342 687.852 827.955 687.732L831.282 687.082L831.931 686.955L839.501 692.051L836.819 692.575L833.458 690.312C832.94 689.964 832.238 690.101 831.889 690.619C831.541 691.136 831.678 691.839 832.196 692.187L833.682 693.188L830.546 693.801L827.184 691.538C826.667 691.19 825.964 691.327 825.616 691.845C825.267 692.362 825.405 693.064 825.922 693.413L827.409 694.413L824.915 694.901C824.303 695.02 823.903 695.614 824.023 696.226C824.143 696.839 824.736 697.238 825.349 697.119L827.842 696.631L826.842 698.118C826.493 698.636 826.63 699.338 827.148 699.686C827.666 700.035 828.368 699.898 828.717 699.38L830.979 696.019L834.116 695.406L833.115 696.892C832.767 697.41 832.904 698.112 833.422 698.461C833.939 698.809 834.642 698.672 834.99 698.154L836.883 695.342L837.253 694.793L839.935 694.269L834.84 701.839L834.19 701.966L830.863 702.616C830.25 702.735 829.851 703.329 829.971 703.941C830.09 704.554 830.684 704.953 831.296 704.834L833.055 704.49L831.636 706.598C831.288 707.116 831.425 707.818 831.942 708.166C832.46 708.515 833.162 708.377 833.511 707.86L834.93 705.752L835.273 707.511C835.393 708.123 835.986 708.523 836.599 708.403C837.212 708.283 837.611 707.69 837.491 707.077L836.841 703.75L836.714 703.101L841.81 695.531L842.334 698.213L841.964 698.762L840.071 701.574C839.723 702.092 839.86 702.794 840.378 703.142C840.895 703.491 841.598 703.354 841.946 702.836L842.947 701.35L843.559 704.486L843.19 705.035L841.297 707.848C840.948 708.365 841.086 709.067 841.603 709.416C842.121 709.764 842.823 709.627 843.172 709.11L844.172 707.623L844.66 710.117C844.779 710.729 845.373 711.129 845.985 711.009C846.598 710.889 846.997 710.296 846.878 709.683L846.39 707.19L847.877 708.19C848.395 708.539 849.097 708.401 849.445 707.884C849.794 707.366 849.657 706.664 849.139 706.315L846.327 704.422L845.777 704.053L845.165 700.916L846.651 701.917C847.169 702.265 847.871 702.128 848.219 701.61C848.568 701.093 848.431 700.39 847.913 700.042L845.101 698.149L844.552 697.779L844.028 695.097L846.295 696.623C845.777 696.275 845.64 695.573 845.988 695.055C846.337 694.537 847.039 694.4 847.557 694.748L845.29 693.222L847.972 692.698Z" fill="#D2F0FF"/>
</g>
<mask id="mask8_1001_7396" style="mask-type:luminance" maskUnits="userSpaceOnUse" x="861" y="786" width="38" height="38">
<path d="M861.118 786.241H898.558V823.681H861.118V786.241Z" fill="white"/>
</mask>
<g mask="url(#mask8_1001_7396)">
<path d="M897.426 803.831H894.885L896.152 802.564C896.594 802.123 896.594 801.407 896.152 800.966C895.711 800.525 894.996 800.525 894.554 800.966L891.689 803.831H888.493L889.76 802.564C890.201 802.123 890.201 801.407 889.76 800.966C889.319 800.525 888.603 800.525 888.162 800.966L885.297 803.831H882.564L889.017 797.379H889.678H893.068C893.692 797.379 894.198 796.873 894.198 796.249V796.249C894.198 795.625 893.692 795.119 893.068 795.119H891.276L893.073 793.322C893.514 792.881 893.514 792.165 893.073 791.724C892.632 791.283 891.916 791.283 891.475 791.724L889.678 793.521V791.729C889.678 791.105 889.173 790.599 888.548 790.599C887.924 790.599 887.418 791.105 887.418 791.729V795.119V795.781L880.966 802.233V799.5L881.434 799.032L883.831 796.635C884.272 796.194 884.272 795.478 883.831 795.037C883.39 794.596 882.674 794.596 882.233 795.037L880.966 796.304V793.108L881.434 792.64L883.831 790.243C884.272 789.802 884.272 789.086 883.831 788.645C883.39 788.204 882.674 788.204 882.233 788.645L880.966 789.912V787.371C880.966 786.747 880.46 786.241 879.836 786.241C879.212 786.241 878.706 786.747 878.706 787.371V789.912L877.439 788.645C876.998 788.204 876.282 788.204 875.841 788.645C875.4 789.086 875.4 789.802 875.841 790.243L878.238 792.64L878.706 793.108V796.304L877.439 795.037C876.998 794.596 876.282 794.596 875.841 795.037C875.4 795.478 875.4 796.194 875.841 796.635L878.238 799.032L878.706 799.5V802.233L872.254 795.781V795.119V791.729C872.254 791.105 871.748 790.599 871.124 790.599C870.5 790.599 869.994 791.105 869.994 791.729V793.521L868.197 791.724C867.756 791.283 867.04 791.283 866.599 791.724C866.158 792.165 866.158 792.881 866.599 793.322L868.396 795.119H866.604C865.98 795.119 865.474 795.625 865.474 796.249V796.249C865.474 796.873 865.98 797.379 866.604 797.379H869.994H870.656L877.108 803.831H874.375L871.51 800.966C871.069 800.525 870.353 800.525 869.912 800.966C869.471 801.407 869.471 802.123 869.912 802.564L871.179 803.831H867.983L865.118 800.966C864.677 800.525 863.961 800.525 863.52 800.966C863.079 801.407 863.079 802.123 863.52 802.564L864.787 803.831H862.246C861.622 803.831 861.116 804.337 861.116 804.961C861.116 805.585 861.622 806.091 862.246 806.091H864.787L863.52 807.358C863.079 807.799 863.079 808.515 863.52 808.956C863.961 809.397 864.677 809.397 865.118 808.956L867.983 806.091H871.179L869.912 807.358C869.471 807.799 869.471 808.515 869.912 808.956C870.353 809.397 871.069 809.397 871.51 808.956L873.907 806.559L874.375 806.091H877.108L870.656 812.543H869.994H866.604C865.98 812.543 865.474 813.049 865.474 813.673C865.474 814.297 865.98 814.803 866.604 814.803H868.396L866.599 816.6C866.158 817.041 866.158 817.757 866.599 818.198C867.04 818.639 867.756 818.639 868.197 818.198L869.994 816.401V818.193C869.994 818.817 870.5 819.323 871.124 819.323C871.748 819.323 872.254 818.817 872.254 818.193V814.803V814.142L878.706 807.689V810.422L878.238 810.89L875.841 813.287C875.4 813.728 875.4 814.444 875.841 814.885V814.885C876.282 815.326 876.998 815.326 877.439 814.885L878.706 813.618V816.814L878.238 817.282L875.841 819.679C875.4 820.121 875.4 820.836 875.841 821.277C876.282 821.719 876.998 821.719 877.439 821.277L878.706 820.01V822.551C878.706 823.175 879.212 823.681 879.836 823.681C880.46 823.681 880.966 823.175 880.966 822.551V820.01L882.233 821.277C882.674 821.719 883.39 821.719 883.831 821.277C884.272 820.836 884.272 820.121 883.831 819.679L881.434 817.282L880.966 816.814V813.618L882.233 814.885C882.674 815.326 883.39 815.326 883.831 814.885V814.885C884.272 814.444 884.272 813.728 883.831 813.287L881.434 810.89L880.966 810.422V807.689L887.418 814.142V814.803V818.193C887.418 818.817 887.924 819.323 888.548 819.323C889.173 819.323 889.678 818.817 889.678 818.193V816.401L891.475 818.198C891.916 818.639 892.632 818.639 893.073 818.198C893.514 817.757 893.514 817.041 893.073 816.6L891.276 814.803H893.068C893.692 814.803 894.198 814.297 894.198 813.673C894.198 813.049 893.692 812.543 893.068 812.543H889.678H889.017L882.564 806.091H885.297L885.765 806.559L888.162 808.956C888.603 809.397 889.319 809.397 889.76 808.956C890.201 808.515 890.201 807.799 889.76 807.358L888.493 806.091H891.689L894.554 808.956C894.996 809.397 895.711 809.397 896.152 808.956C896.594 808.515 896.594 807.799 896.152 807.358L894.885 806.091H897.426C898.05 806.091 898.556 805.585 898.556 804.961C898.556 804.337 898.05 803.831 897.426 803.831Z" fill="#A2DDFD"/>
<path d="M885.295 806.084C884.671 806.084 884.165 805.579 884.165 804.954C884.165 804.33 884.671 803.825 885.295 803.825H882.562L884.495 801.892C884.053 802.333 883.338 802.333 882.897 801.892C882.455 801.451 882.455 800.735 882.897 800.294L880.964 802.226V799.494L881.432 799.026L883.829 796.628C884.271 796.187 884.271 795.472 883.829 795.03C883.388 794.589 882.672 794.589 882.231 795.03L880.964 796.298V793.101L881.432 792.633L883.829 790.236C884.271 789.795 884.271 789.08 883.829 788.638C883.388 788.197 882.672 788.197 882.231 788.638L880.964 789.905V787.365C880.964 786.741 880.458 786.235 879.834 786.235C879.21 786.235 878.704 786.741 878.704 787.365V789.905L877.437 788.638C876.996 788.197 876.28 788.197 875.839 788.638C875.398 789.08 875.398 789.795 875.839 790.236L878.236 792.633L878.704 793.101V796.298L877.437 795.03C876.996 794.589 876.28 794.589 875.839 795.03C875.398 795.472 875.398 796.187 875.839 796.628L878.236 799.026L878.704 799.494V802.226L872.252 795.774V795.112V791.722C872.252 791.098 871.746 790.592 871.122 790.592C870.498 790.592 869.992 791.098 869.992 791.722V793.514L868.195 791.718C867.754 791.276 867.038 791.276 866.597 791.718C866.156 792.159 866.156 792.874 866.597 793.316L868.394 795.112H866.602C865.978 795.112 865.472 795.618 865.472 796.242C865.472 796.866 865.978 797.372 866.602 797.372H869.992H870.654L877.106 803.825H874.373L871.508 800.959C871.067 800.518 870.351 800.518 869.91 800.959C869.469 801.401 869.469 802.116 869.91 802.557L871.177 803.825H867.981L865.116 800.959C864.675 800.518 863.959 800.518 863.518 800.959C863.077 801.401 863.077 802.116 863.518 802.557L864.785 803.825H862.244C861.62 803.825 861.114 804.33 861.114 804.954C861.114 805.579 861.62 806.084 862.244 806.084H864.785L863.518 807.351C863.077 807.793 863.077 808.508 863.518 808.95C863.959 809.391 864.675 809.391 865.116 808.95L867.981 806.084H871.177L869.91 807.351C869.469 807.793 869.469 808.508 869.91 808.95C870.351 809.391 871.067 809.391 871.508 808.95L873.905 806.553L874.373 806.084H877.106L870.654 812.537H869.992H866.602C865.978 812.537 865.472 813.043 865.472 813.667C865.472 814.291 865.978 814.797 866.602 814.797H868.394L866.597 816.593C866.156 817.035 866.156 817.75 866.597 818.191C867.038 818.633 867.754 818.633 868.195 818.191L869.992 816.395V818.187C869.992 818.811 870.498 819.317 871.122 819.317C871.746 819.317 872.252 818.811 872.252 818.187V814.797V814.135L878.704 807.682V810.415L878.236 810.883L875.839 813.28C875.398 813.722 875.398 814.437 875.839 814.878C876.28 815.32 876.996 815.32 877.437 814.878L878.704 813.611V816.807L878.236 817.275L875.839 819.673C875.398 820.114 875.398 820.829 875.839 821.271C876.28 821.712 876.996 821.712 877.437 821.271L878.704 820.003V822.544C878.704 823.168 879.21 823.674 879.834 823.674C880.458 823.674 880.964 823.168 880.964 822.544V820.003L882.231 821.271C882.672 821.712 883.388 821.712 883.829 821.271C884.271 820.829 884.271 820.114 883.829 819.673L881.432 817.275L880.964 816.807V813.611L882.231 814.878C882.672 815.32 883.388 815.32 883.829 814.878C884.271 814.437 884.271 813.722 883.829 813.28L881.432 810.883L880.964 810.415V807.682L882.897 809.615C882.455 809.174 882.455 808.458 882.897 808.017C883.338 807.576 884.053 807.576 884.495 808.017L882.562 806.084H885.295Z" fill="#A2DDFD"/>
</g>
<path d="M686.606 531.961C686.606 531.961 701.642 540.763 724.046 540.763C746.449 540.763 761.486 531.961 761.486 531.961" stroke="black" stroke-width="18.7199" stroke-linecap="round"/>
<path d="M689.624 462.247C689.624 483.247 681.918 493.933 672.413 493.933C662.908 493.933 655.203 483.247 655.203 462.247C655.203 441.247 662.908 430.561 672.413 430.561C681.918 430.561 689.624 441.247 689.624 462.247Z" fill="black"/>
<path fill-rule="evenodd" clip-rule="evenodd" d="M687.088 444.132C687.931 446.643 688.587 449.501 689.02 452.702C688.081 454.832 686.133 455.91 683.883 455.91C680.714 455.91 678.146 453.773 678.146 449.573C678.146 445.373 680.714 443.236 683.883 443.236C685.07 443.236 686.172 443.536 687.088 444.132Z" fill="white"/>
<path d="M792.887 462.247C792.887 483.247 785.182 493.933 775.677 493.933C766.172 493.933 758.466 483.247 758.466 462.247C758.466 441.247 766.172 430.561 775.677 430.561C785.182 430.561 792.887 441.247 792.887 462.247Z" fill="black"/>
<path fill-rule="evenodd" clip-rule="evenodd" d="M790.337 444.126C791.183 446.642 791.841 449.505 792.274 452.713C791.333 454.836 789.388 455.91 787.141 455.91C783.973 455.91 781.404 453.773 781.404 449.573C781.404 445.373 783.973 443.236 787.141 443.236C788.324 443.236 789.424 443.534 790.337 444.126Z" fill="white"/>
<g filter="url(#filter0_f_1001_7396)">
<ellipse cx="832.736" cy="518.116" rx="34.4206" ry="12.6744" fill="#FF9C9C"/>
</g>
<g filter="url(#filter1_f_1001_7396)">
<ellipse cx="614.743" cy="518.116" rx="34.4206" ry="12.6744" fill="#FF9C9C"/>
</g>
<defs>
<filter id="filter0_f_1001_7396" x="742.156" y="449.282" width="181.161" height="137.668" filterUnits="userSpaceOnUse" color-interpolation-filters="sRGB">
<feFlood flood-opacity="0" result="BackgroundImageFix"/>
<feBlend mode="normal" in="SourceGraphic" in2="BackgroundImageFix" result="shape"/>
<feGaussianBlur stdDeviation="28.0799" result="effect1_foregroundBlur_1001_7396"/>
</filter>
<filter id="filter1_f_1001_7396" x="524.163" y="449.282" width="181.161" height="137.668" filterUnits="userSpaceOnUse" color-interpolation-filters="sRGB">
<feFlood flood-opacity="0" result="BackgroundImageFix"/>
<feBlend mode="normal" in="SourceGraphic" in2="BackgroundImageFix" result="shape"/>
<feGaussianBlur stdDeviation="28.0799" result="effect1_foregroundBlur_1001_7396"/>
</filter>
<clipPath id="clip0_1001_7396">
<rect width="93.5998" height="93.5994" fill="white" transform="translate(411.837 542.88)"/>
</clipPath>
<clipPath id="clip1_1001_7396">
<rect width="93.5998" height="93.5994" fill="white" transform="translate(935.994 617.762)"/>
</clipPath>
<clipPath id="clip2_1001_7396">
<rect width="37.4399" height="37.4397" fill="white" transform="translate(1067.04 730.081)"/>
</clipPath>
<clipPath id="clip3_1001_7396">
<rect width="37.4399" height="37.4397" fill="white" transform="translate(486.717 692.639)"/>
</clipPath>
<clipPath id="clip4_1001_7396">
<rect width="37.4399" height="37.4397" fill="white" transform="translate(299.518 711.362)"/>
</clipPath>
<clipPath id="clip5_1001_7396">
<rect width="74.8798" height="74.8795" fill="white" transform="matrix(0.977068 0.212929 -0.212931 0.977067 584.548 754.74)"/>
</clipPath>
</defs>
</svg>
