<svg width="63" height="48" viewBox="0 0 63 48" fill="none" xmlns="http://www.w3.org/2000/svg">
<circle cx="36" cy="12" r="12" fill="#FFD058"/>
<circle cx="39.9091" cy="19" r="4.90909" fill="#D9FFFD"/>
<circle cx="45.6364" cy="23.0909" r="4.90909" fill="#D9FFFD"/>
<circle cx="45.6364" cy="14.9091" r="4.90909" fill="#D9FFFD"/>
<circle cx="53" cy="15.7273" r="4.90909" fill="#D9FFFD"/>
<circle cx="57.0909" cy="19.8182" r="4.90909" fill="#D9FFFD"/>
<circle cx="52.1818" cy="23.0909" r="4.90909" fill="#D9FFFD"/>
<circle cx="48.0909" cy="19" r="4.90909" fill="#D9FFFD"/>
<path d="M24.1471 14.9011C28.2085 10.2421 35.4815 10.3462 39.4079 15.1194L54.7081 33.7195C58.5026 38.3324 56.0722 45.2521 50.1734 46.1906C44.3003 47.125 37.4342 47.9811 31.9065 47.9997C26.1202 48.0193 18.9009 47.131 12.7936 46.1665C6.9025 45.2362 4.4583 38.3372 8.22937 33.7166L15.3435 24.9999L24.1471 14.9011Z" fill="#5EC639"/>
<path d="M27.9355 28.53C27.9355 28.53 29.8032 29.207 31 29.207C32.1968 29.207 34.0645 28.53 34.0645 28.53" stroke="black" stroke-linecap="round"/>
<path d="M29.1613 24.8062C29.1613 25.928 28.7497 26.4988 28.2419 26.4988C27.7342 26.4988 27.3226 25.928 27.3226 24.8062C27.3226 23.6844 27.7342 23.1135 28.2419 23.1135C28.7497 23.1135 29.1613 23.6844 29.1613 24.8062Z" fill="black"/>
<path fill-rule="evenodd" clip-rule="evenodd" d="M29.0258 23.8383C29.0709 23.9726 29.106 24.1254 29.1292 24.2966C29.0789 24.4101 28.9749 24.4676 28.8548 24.4676C28.6856 24.4676 28.5484 24.3535 28.5484 24.1291C28.5484 23.9048 28.6856 23.7906 28.8548 23.7906C28.9181 23.7906 28.977 23.8066 29.0258 23.8383Z" fill="white"/>
<path d="M34.6774 24.8062C34.6774 25.928 34.2658 26.4988 33.7581 26.4988C33.2503 26.4988 32.8387 25.928 32.8387 24.8062C32.8387 23.6844 33.2503 23.1135 33.7581 23.1135C34.2658 23.1135 34.6774 23.6844 34.6774 24.8062Z" fill="black"/>
<path fill-rule="evenodd" clip-rule="evenodd" d="M34.5419 23.8383C34.5871 23.9726 34.6222 24.1254 34.6453 24.2966C34.5951 24.4101 34.4911 24.4676 34.371 24.4676C34.2017 24.4676 34.0645 24.3535 34.0645 24.1291C34.0645 23.9048 34.2017 23.7906 34.371 23.7906C34.4343 23.7906 34.4931 23.8066 34.5419 23.8383Z" fill="white"/>
<g filter="url(#filter0_f_561_5646)">
<ellipse cx="37.129" cy="27.8529" rx="1.83871" ry="0.677057" fill="#FF9C9C"/>
</g>
<g filter="url(#filter1_f_561_5646)">
<ellipse cx="25.4839" cy="27.8529" rx="1.83871" ry="0.677057" fill="#FF9C9C"/>
</g>
<circle cx="12.9091" cy="10" r="4.90909" fill="#D9FFFD"/>
<circle cx="18.6364" cy="14.0909" r="4.90909" fill="#D9FFFD"/>
<circle cx="18.6364" cy="5.90909" r="4.90909" fill="#D9FFFD"/>
<circle cx="26" cy="6.72727" r="4.90909" fill="#D9FFFD"/>
<circle cx="30.0909" cy="10.8182" r="4.90909" fill="#D9FFFD"/>
<circle cx="25.1818" cy="14.0909" r="4.90909" fill="#D9FFFD"/>
<circle cx="21.0909" cy="10" r="4.90909" fill="#D9FFFD"/>
<defs>
<filter id="filter0_f_561_5646" x="32.2903" y="24.1759" width="9.67742" height="7.35411" filterUnits="userSpaceOnUse" color-interpolation-filters="sRGB">
<feFlood flood-opacity="0" result="BackgroundImageFix"/>
<feBlend mode="normal" in="SourceGraphic" in2="BackgroundImageFix" result="shape"/>
<feGaussianBlur stdDeviation="1.5" result="effect1_foregroundBlur_561_5646"/>
</filter>
<filter id="filter1_f_561_5646" x="20.6452" y="24.1759" width="9.67742" height="7.35411" filterUnits="userSpaceOnUse" color-interpolation-filters="sRGB">
<feFlood flood-opacity="0" result="BackgroundImageFix"/>
<feBlend mode="normal" in="SourceGraphic" in2="BackgroundImageFix" result="shape"/>
<feGaussianBlur stdDeviation="1.5" result="effect1_foregroundBlur_561_5646"/>
</filter>
</defs>
</svg>
