<svg width="38" height="32" viewBox="0 0 38 32" fill="none" xmlns="http://www.w3.org/2000/svg">
<path d="M12.2825 7.65284C15.6993 3.67002 21.8903 3.75837 25.1921 7.83706L35.2683 20.2841C36.1647 21.3914 35.5874 23.0413 34.1889 23.313C30.3746 24.0541 23.7281 25.1937 18.8478 25.2105C13.8051 25.2278 6.91979 24.0591 3.0197 23.3071C1.62285 23.0378 1.04167 21.3925 1.93251 20.2834L9.06377 11.4047L12.2825 7.65284Z" fill="#4BCA80"/>
<path d="M17.2871 12.2451C17.2871 12.2451 18.0188 12.4852 18.4876 12.4852C18.9564 12.4852 19.6881 12.2451 19.6881 12.2451" stroke="black" stroke-width="0.2401" stroke-linecap="round"/>
<path d="M17.7674 10.9245C17.7674 11.3223 17.6061 11.5247 17.4072 11.5247C17.2083 11.5247 17.0471 11.3223 17.0471 10.9245C17.0471 10.5267 17.2083 10.3242 17.4072 10.3242C17.6061 10.3242 17.7674 10.5267 17.7674 10.9245Z" fill="black"/>
<path fill-rule="evenodd" clip-rule="evenodd" d="M17.7142 10.5814C17.7319 10.629 17.7457 10.6832 17.7547 10.7439C17.7351 10.7842 17.6943 10.8046 17.6473 10.8046C17.581 10.8046 17.5272 10.7641 17.5272 10.6845C17.5272 10.6049 17.581 10.5645 17.6473 10.5645C17.6721 10.5645 17.6951 10.5701 17.7142 10.5814Z" fill="white"/>
<path d="M17.7674 10.9245C17.7674 11.3223 17.6061 11.5247 17.4072 11.5247C17.2083 11.5247 17.0471 11.3223 17.0471 10.9245C17.0471 10.5267 17.2083 10.3242 17.4072 10.3242C17.6061 10.3242 17.7674 10.5267 17.7674 10.9245Z" fill="black"/>
<path fill-rule="evenodd" clip-rule="evenodd" d="M17.7142 10.5814C17.7319 10.629 17.7457 10.6832 17.7547 10.7439C17.7351 10.7842 17.6943 10.8046 17.6473 10.8046C17.581 10.8046 17.5272 10.7641 17.5272 10.6845C17.5272 10.6049 17.581 10.5645 17.6473 10.5645C17.6721 10.5645 17.6951 10.5701 17.7142 10.5814Z" fill="white"/>
<path d="M19.9282 10.9245C19.9282 11.3223 19.767 11.5247 19.5681 11.5247C19.3692 11.5247 19.2079 11.3223 19.2079 10.9245C19.2079 10.5267 19.3692 10.3242 19.5681 10.3242C19.767 10.3242 19.9282 10.5267 19.9282 10.9245Z" fill="black"/>
<path fill-rule="evenodd" clip-rule="evenodd" d="M19.8751 10.5814C19.8928 10.629 19.9066 10.6832 19.9156 10.7439C19.8959 10.7842 19.8552 10.8046 19.8082 10.8046C19.7419 10.8046 19.6881 10.7641 19.6881 10.6845C19.6881 10.6049 19.7419 10.5645 19.8082 10.5645C19.833 10.5645 19.856 10.5701 19.8751 10.5814Z" fill="white"/>
<ellipse cx="5.69114" cy="15.1327" rx="1.07439" ry="1.81704" transform="rotate(-67.5331 5.69114 15.1327)" fill="#4BCA80"/>
<path d="M15.6064 25.5869C15.6064 24.5834 16.0874 23.7699 16.6808 23.7699C17.2742 23.7699 17.7552 24.5834 17.7552 25.5869C17.7552 26.5904 17.6404 27.0112 17.047 27.0112C16.4536 27.0112 15.6064 26.5904 15.6064 25.5869Z" fill="#4BCA80"/>
<path d="M15.9666 25.6906C16.9611 25.6906 17.6473 26.0669 17.6473 26.531C17.6473 26.9951 16.9611 27.3713 15.9666 27.3713C14.9721 27.3713 14.1658 26.9951 14.1658 26.531C14.1658 26.0669 14.9721 25.6906 15.9666 25.6906Z" fill="#4BCA80"/>
<path d="M22.0771 25.5869C22.0771 24.5834 21.596 23.7699 21.0027 23.7699C20.4093 23.7699 19.9283 24.5834 19.9283 25.5869C19.9283 26.5904 20.0431 27.0112 20.6365 27.0112C21.2298 27.0112 22.0771 26.5904 22.0771 25.5869Z" fill="#4BCA80"/>
<path d="M21.7169 25.6906C20.7224 25.6906 20.0362 26.0669 20.0362 26.531C20.0362 26.9951 20.7224 27.3713 21.7169 27.3713C22.7114 27.3713 23.5176 26.9951 23.5176 26.531C23.5176 26.0669 22.7114 25.6906 21.7169 25.6906Z" fill="#4BCA80"/>
<ellipse cx="1.07439" cy="1.81704" rx="1.07439" ry="1.81704" transform="matrix(-0.382149 -0.924101 -0.924101 0.382149 33.7117 15.4312)" fill="#4BCA80"/>
<path d="M14.526 13.0854C13.3304 12.1221 8.52351 12.2451 8.52351 12.2451L6.96286 14.2859C6.96286 14.2859 11.3858 13.7287 13.5056 15.1325C15.3164 16.3316 14.9767 18.4695 16.6869 19.8082C19.2608 21.823 22.0241 19.2735 24.7903 21.015C26.1653 21.8805 28.0917 24.2501 28.0917 24.2501L32.2934 23.5298L34.5744 23.0496C34.5744 23.0496 32.4795 23.2527 30.9729 22.7561C29.3393 22.2178 26.9981 19.0291 25.3305 18.6077C22.7524 17.9562 20.1634 19.0909 18.9679 18.1275C16.5767 16.2008 16.9171 15.0121 14.526 13.0854Z" fill="#7FD2F5" stroke="#7FD2F5" stroke-width="0.2401"/>
<g filter="url(#filter0_f_526_156)">
<ellipse cx="20.8886" cy="12.005" rx="0.7203" ry="0.2401" fill="#FF9C9C"/>
</g>
<g filter="url(#filter1_f_526_156)">
<ellipse cx="16.3267" cy="12.005" rx="0.7203" ry="0.2401" fill="#FF9C9C"/>
</g>
<path d="M21.2643 2.89483L19.9512 1.92438L19.6996 3.42313L21.2643 2.89483Z" fill="#FF4444"/>
<path d="M19.4481 4.92188L19.6996 3.42313M19.6996 3.42313L19.9512 1.92438L21.2643 2.89483L19.6996 3.42313Z" stroke="black" stroke-width="0.2401"/>
<defs>
<filter id="filter0_f_526_156" x="19.448" y="11.0446" width="2.88121" height="1.92082" filterUnits="userSpaceOnUse" color-interpolation-filters="sRGB">
<feFlood flood-opacity="0" result="BackgroundImageFix"/>
<feBlend mode="normal" in="SourceGraphic" in2="BackgroundImageFix" result="shape"/>
<feGaussianBlur stdDeviation="0.36015" result="effect1_foregroundBlur_526_156"/>
</filter>
<filter id="filter1_f_526_156" x="14.8861" y="11.0446" width="2.88121" height="1.92082" filterUnits="userSpaceOnUse" color-interpolation-filters="sRGB">
<feFlood flood-opacity="0" result="BackgroundImageFix"/>
<feBlend mode="normal" in="SourceGraphic" in2="BackgroundImageFix" result="shape"/>
<feGaussianBlur stdDeviation="0.36015" result="effect1_foregroundBlur_526_156"/>
</filter>
</defs>
</svg>
