<svg width="44" height="41" viewBox="0 0 44 41" fill="none" xmlns="http://www.w3.org/2000/svg">
<rect x="21" y="13.0674" width="2" height="10" fill="#75D753"/>
<path d="M21.9376 13.8883C24.0982 15.9585 27.5759 16.1581 30.7921 15.8885C36.7394 15.3898 41.1563 10.1643 40.6576 4.21709C40.5106 2.46378 40.1375 1.33919 39.8543 0.709224C39.675 0.310385 39.2235 0.171281 38.8135 0.323155C37.4209 0.838912 34.2947 1.9808 33.0928 2.28935C26.1253 4.18542 22.6757 6.7283 21.9376 13.8883Z" fill="#75D753"/>
<path d="M22.623 13.9557C20.4623 16.0259 16.9847 16.2255 13.7684 15.9558C7.82119 15.4572 3.40425 10.2317 3.90293 4.28447C4.04994 2.53116 4.42306 1.40657 4.70627 0.776607C4.88558 0.377768 5.33703 0.238664 5.7471 0.390538C7.13967 0.906295 10.2658 2.04819 11.4677 2.35674C18.4352 4.2528 21.8849 6.79568 22.623 13.9557Z" fill="#75D753"/>
<path d="M44 33.6782C44 41.1952 34.5097 39.9974 22.2316 39.9974C9.95342 39.9974 0 41.1952 0 33.6782C0.926316 25.5219 9.95342 20.0674 22.2316 20.0674C34.5097 20.0674 43.0737 25.9765 44 33.6782Z" fill="#9F7147"/>
<path d="M18 29.5674C18 29.8988 17.7761 30.0674 17.5 30.0674C17.2239 30.0674 17 29.8988 17 29.5674C17 29.236 17.2239 29.0674 17.5 29.0674C17.7761 29.0674 18 29.236 18 29.5674Z" fill="#463822"/>
<path d="M15 30.5674C15 30.8988 14.7761 31.0674 14.5 31.0674C14.2239 31.0674 14 30.8988 14 30.5674C14 30.236 14.2239 30.0674 14.5 30.0674C14.7761 30.0674 15 30.236 15 30.5674Z" fill="#463822"/>
<path d="M17 31.5674C17 31.8988 16.7761 32.0674 16.5 32.0674C16.2239 32.0674 16 31.8988 16 31.5674C16 31.236 16.2239 31.0674 16.5 31.0674C16.7761 31.0674 17 31.236 17 31.5674Z" fill="#463822"/>
<path d="M26 29.5674C26 29.8988 26.2239 30.0674 26.5 30.0674C26.7761 30.0674 27 29.8988 27 29.5674C27 29.236 26.7761 29.0674 26.5 29.0674C26.2239 29.0674 26 29.236 26 29.5674Z" fill="#463822"/>
<path d="M29 30.5674C29 30.8988 29.2239 31.0674 29.5 31.0674C29.7761 31.0674 30 30.8988 30 30.5674C30 30.236 29.7761 30.0674 29.5 30.0674C29.2239 30.0674 29 30.236 29 30.5674Z" fill="#463822"/>
<path d="M27 31.5674C27 31.8988 27.2239 32.0674 27.5 32.0674C27.7761 32.0674 28 31.8988 28 31.5674C28 31.236 27.7761 31.0674 27.5 31.0674C27.2239 31.0674 27 31.236 27 31.5674Z" fill="#463822"/>
<mask id="path-11-inside-1_561_5728" fill="white">
<path d="M24 28.0674C24 28.7301 23.7761 29.0674 23.5 29.0674C23.2239 29.0674 23 28.7301 23 28.0674C23 27.4046 23.2239 27.0674 23.5 27.0674C23.7761 27.0674 24 27.4046 24 28.0674Z"/>
</mask>
<path d="M24 28.0674C24 28.7301 23.7761 29.0674 23.5 29.0674C23.2239 29.0674 23 28.7301 23 28.0674C23 27.4046 23.2239 27.0674 23.5 27.0674C23.7761 27.0674 24 27.4046 24 28.0674Z" fill="black"/>
<path d="M23 28.0674C23 28.3049 22.957 28.3715 22.9741 28.3399C22.9856 28.3187 23.0268 28.2513 23.1202 28.1857C23.2211 28.115 23.3544 28.0674 23.5 28.0674V30.0674C24.1135 30.0674 24.5262 29.674 24.733 29.2919C24.9311 28.926 25 28.4926 25 28.0674H23ZM23.5 28.0674C23.6456 28.0674 23.7789 28.115 23.8798 28.1857C23.9732 28.2513 24.0144 28.3187 24.0259 28.3399C24.043 28.3715 24 28.3049 24 28.0674H22C22 28.4926 22.0689 28.926 22.267 29.2919C22.4738 29.674 22.8865 30.0674 23.5 30.0674V28.0674ZM24 28.0674C24 27.8299 24.043 27.7632 24.0259 27.7949C24.0144 27.816 23.9732 27.8834 23.8798 27.949C23.7789 28.0198 23.6456 28.0674 23.5 28.0674V26.0674C22.8865 26.0674 22.4738 26.4608 22.267 26.8428C22.0689 27.2088 22 27.6421 22 28.0674H24ZM23.5 28.0674C23.3544 28.0674 23.2211 28.0198 23.1202 27.949C23.0268 27.8834 22.9856 27.816 22.9741 27.7949C22.957 27.7632 23 27.8299 23 28.0674H25C25 27.6421 24.9311 27.2088 24.733 26.8428C24.5262 26.4608 24.1135 26.0674 23.5 26.0674V28.0674Z" fill="black" mask="url(#path-11-inside-1_561_5728)"/>
<mask id="path-13-inside-2_561_5728" fill="white">
<path d="M21 28.0674C21 28.7301 20.7761 29.0674 20.5 29.0674C20.2239 29.0674 20 28.7301 20 28.0674C20 27.4046 20.2239 27.0674 20.5 27.0674C20.7761 27.0674 21 27.4046 21 28.0674Z"/>
</mask>
<path d="M21 28.0674C21 28.7301 20.7761 29.0674 20.5 29.0674C20.2239 29.0674 20 28.7301 20 28.0674C20 27.4046 20.2239 27.0674 20.5 27.0674C20.7761 27.0674 21 27.4046 21 28.0674Z" fill="black"/>
<path d="M20 28.0674C20 28.3049 19.957 28.3715 19.9741 28.3399C19.9856 28.3187 20.0268 28.2513 20.1202 28.1857C20.2211 28.115 20.3544 28.0674 20.5 28.0674V30.0674C21.1135 30.0674 21.5262 29.674 21.733 29.2919C21.9311 28.926 22 28.4926 22 28.0674H20ZM20.5 28.0674C20.6456 28.0674 20.7789 28.115 20.8798 28.1857C20.9732 28.2513 21.0144 28.3187 21.0259 28.3399C21.043 28.3715 21 28.3049 21 28.0674H19C19 28.4926 19.0689 28.926 19.267 29.2919C19.4738 29.674 19.8865 30.0674 20.5 30.0674V28.0674ZM21 28.0674C21 27.8299 21.043 27.7632 21.0259 27.7949C21.0144 27.816 20.9732 27.8834 20.8798 27.949C20.7789 28.0198 20.6456 28.0674 20.5 28.0674V26.0674C19.8865 26.0674 19.4738 26.4608 19.267 26.8428C19.0689 27.2088 19 27.6421 19 28.0674H21ZM20.5 28.0674C20.3544 28.0674 20.2211 28.0198 20.1202 27.949C20.0268 27.8834 19.9856 27.816 19.9741 27.7949C19.957 27.7632 20 27.8299 20 28.0674H22C22 27.6421 21.9311 27.2088 21.733 26.8428C21.5262 26.4608 21.1135 26.0674 20.5 26.0674V28.0674Z" fill="black" mask="url(#path-13-inside-2_561_5728)"/>
<path d="M20.5 31.0674C20.5 31.0674 21.4675 31.5674 22 31.5674C22.5325 31.5674 23.5 31.0674 23.5 31.0674" stroke="black" stroke-linecap="round"/>
</svg>
