<svg width="51" height="59" viewBox="0 0 51 59" fill="none" xmlns="http://www.w3.org/2000/svg">
<rect x="17" y="27" width="18" height="31" rx="2" fill="#996A3D"/>
<path d="M18.5 45V43L11.5 40L10.9522 39.5617C10.661 39.3288 10.2763 39.7017 10.5 40C10.2535 39.9014 10.0812 40.2487 10.3089 40.3853L10.5 40.5C10.2968 40.5 10.2724 40.7954 10.4728 40.8288L11.5 41L18.5 45Z" fill="#996A3D"/>
<path d="M34 45V43L41 40L41.5478 39.5617C41.839 39.3288 42.2237 39.7017 42 40C42.2465 39.9014 42.4188 40.2487 42.1911 40.3853L42 40.5C42.2032 40.5 42.2276 40.7954 42.0272 40.8288L41 41L34 45Z" fill="#996A3D"/>
<ellipse cx="16" cy="27" rx="7" ry="6" fill="#6DC94C"/>
<ellipse cx="33.3282" cy="25" rx="9.36223" ry="8" fill="#6DC94C"/>
<ellipse cx="23.9659" cy="25" rx="9.36223" ry="8" fill="#6DC94C"/>
<ellipse cx="30.2074" cy="22.3333" rx="9.36223" ry="8" fill="#6DC94C"/>
<ellipse cx="10.8723" cy="23.8205" rx="9" ry="4.95372" transform="rotate(-12.7697 10.8723 23.8205)" fill="#6DC94C"/>
<ellipse cx="14.5" cy="12" rx="9.5" ry="8" fill="#6DC94C"/>
<ellipse cx="19" cy="8" rx="7" ry="8" fill="#6DC94C"/>
<ellipse cx="40.7996" cy="24.1643" rx="8" ry="4.5" transform="rotate(12.8316 40.7996 24.1643)" fill="#6DC94C"/>
<ellipse cx="28.3622" cy="8" rx="9.36223" ry="8" fill="#6DC94C"/>
<ellipse cx="44" cy="18.5" rx="7" ry="5.5" fill="#6DC94C"/>
<ellipse cx="35" cy="7.5" rx="8" ry="5.5" fill="#6DC94C"/>
<ellipse cx="38.5" cy="12.5" rx="9.5" ry="6.5" fill="#6DC94C"/>
<ellipse cx="9.5" cy="18" rx="9.5" ry="7" fill="#6DC94C"/>
<ellipse cx="17.3622" cy="15" rx="9.36223" ry="8" fill="#6DC94C"/>
<mask id="path-18-inside-1_561_5734" fill="white">
<path d="M28 37C28 37.6627 27.7761 38 27.5 38C27.2239 38 27 37.6627 27 37C27 36.3373 27.2239 36 27.5 36C27.7761 36 28 36.3373 28 37Z"/>
</mask>
<path d="M28 37C28 37.6627 27.7761 38 27.5 38C27.2239 38 27 37.6627 27 37C27 36.3373 27.2239 36 27.5 36C27.7761 36 28 36.3373 28 37Z" fill="black"/>
<path d="M27 37C27 37.2375 26.957 37.3041 26.9741 37.2725C26.9856 37.2514 27.0268 37.1839 27.1202 37.1184C27.2211 37.0476 27.3544 37 27.5 37V39C28.1135 39 28.5262 38.6066 28.733 38.2246C28.9311 37.8586 29 37.4252 29 37H27ZM27.5 37C27.6456 37 27.7789 37.0476 27.8798 37.1184C27.9732 37.1839 28.0144 37.2514 28.0259 37.2725C28.043 37.3041 28 37.2375 28 37H26C26 37.4252 26.0689 37.8586 26.267 38.2246C26.4738 38.6066 26.8865 39 27.5 39V37ZM28 37C28 36.7625 28.043 36.6959 28.0259 36.7275C28.0144 36.7486 27.9732 36.8161 27.8798 36.8816C27.7789 36.9524 27.6456 37 27.5 37V35C26.8865 35 26.4738 35.3934 26.267 35.7754C26.0689 36.1414 26 36.5748 26 37H28ZM27.5 37C27.3544 37 27.2211 36.9524 27.1202 36.8816C27.0268 36.8161 26.9856 36.7486 26.9741 36.7275C26.957 36.6959 27 36.7625 27 37H29C29 36.5748 28.9311 36.1414 28.733 35.7754C28.5262 35.3934 28.1135 35 27.5 35V37Z" fill="black" mask="url(#path-18-inside-1_561_5734)"/>
<mask id="path-20-inside-2_561_5734" fill="white">
<path d="M25 37C25 37.6627 24.7761 38 24.5 38C24.2239 38 24 37.6627 24 37C24 36.3373 24.2239 36 24.5 36C24.7761 36 25 36.3373 25 37Z"/>
</mask>
<path d="M25 37C25 37.6627 24.7761 38 24.5 38C24.2239 38 24 37.6627 24 37C24 36.3373 24.2239 36 24.5 36C24.7761 36 25 36.3373 25 37Z" fill="black"/>
<path d="M24 37C24 37.2375 23.957 37.3041 23.9741 37.2725C23.9856 37.2514 24.0268 37.1839 24.1202 37.1184C24.2211 37.0476 24.3544 37 24.5 37V39C25.1135 39 25.5262 38.6066 25.733 38.2246C25.9311 37.8586 26 37.4252 26 37H24ZM24.5 37C24.6456 37 24.7789 37.0476 24.8798 37.1184C24.9732 37.1839 25.0144 37.2514 25.0259 37.2725C25.043 37.3041 25 37.2375 25 37H23C23 37.4252 23.0689 37.8586 23.267 38.2246C23.4738 38.6066 23.8865 39 24.5 39V37ZM25 37C25 36.7625 25.043 36.6959 25.0259 36.7275C25.0144 36.7486 24.9732 36.8161 24.8798 36.8816C24.7789 36.9524 24.6456 37 24.5 37V35C23.8865 35 23.4738 35.3934 23.267 35.7754C23.0689 36.1414 23 36.5748 23 37H25ZM24.5 37C24.3544 37 24.2211 36.9524 24.1202 36.8816C24.0268 36.8161 23.9856 36.7486 23.9741 36.7275C23.957 36.6959 24 36.7625 24 37H26C26 36.5748 25.9311 36.1414 25.733 35.7754C25.5262 35.3934 25.1135 35 24.5 35V37Z" fill="black" mask="url(#path-20-inside-2_561_5734)"/>
<path d="M24.5 40C24.5 40 25.4675 40.5 26 40.5C26.5325 40.5 27.5 40 27.5 40" stroke="black" stroke-linecap="round"/>
<path d="M20 20.0001C20 22.7615 17.7614 25.0001 15 25.0001C12.2386 25.0001 10 22.7615 10 20.0001C10 18.6014 10.3406 17.0798 11.5 16.5001C12.5 16.0001 14 16.5001 14 16.5001C14 16.5001 13.9154 15.2713 15 15.0001C17 14.5 20 16.5 20 20.0001Z" fill="#EC4141"/>
<path d="M13.5 16.5L12.4998 14.7868C12.4026 14.6202 12.4525 14.4067 12.6134 14.3004C12.7809 14.1899 13.0062 14.236 13.1168 14.4034L14.0854 15.8705L14 16.5L13.5 16.5Z" fill="#822D22"/>
<g filter="url(#filter0_d_561_5734)">
<path d="M13.5 16.5H13.25C13.1119 16.5 13 16.6119 13 16.75C13 16.8881 13.1119 17 13.25 17H13.5H13.7643C13.9152 17 14.06 16.94 14.1667 16.8333L14.4482 16.5518C14.4814 16.5186 14.5 16.4737 14.5 16.4268C14.5 16.2693 14.3096 16.1904 14.1982 16.3018L14.0395 16.4605C14.0142 16.4858 13.9799 16.5 13.9441 16.5H13.5Z" fill="#572018"/>
</g>
<path d="M32.9619 10.8781C31.2653 13.0568 28.1237 13.4476 25.9449 11.751C23.7662 10.0543 23.3754 6.91271 25.0721 4.73398C25.9315 3.63043 27.135 2.63919 28.406 2.89416C29.5022 3.11406 30.3785 4.43019 30.3785 4.43019C30.3785 4.43019 31.0667 3.40868 32.0891 3.86111C33.9743 4.69536 35.1124 8.11659 32.9619 10.8781Z" fill="#EC4141"/>
<path d="M29.984 4.1229L30.2475 2.15668C30.2732 1.96552 30.4437 1.8277 30.636 1.84274C30.836 1.8584 30.9855 2.03325 30.9698 2.23328L30.8327 3.98594L30.3785 4.43011L29.984 4.1229Z" fill="#822D22"/>
<g filter="url(#filter1_d_561_5734)">
<path d="M29.984 4.1229L29.7868 3.9693C29.6778 3.88447 29.5208 3.90401 29.4359 4.01294C29.3511 4.12188 29.3706 4.27896 29.4796 4.36379L29.6768 4.51739L29.8853 4.67978C30.0044 4.77251 30.1554 4.81414 30.3052 4.79551L30.7003 4.74635C30.7469 4.74057 30.7892 4.71653 30.818 4.67954C30.9148 4.55528 30.813 4.37606 30.6567 4.3955L30.434 4.42321C30.3985 4.42763 30.3627 4.41776 30.3344 4.39578L29.984 4.1229Z" fill="#572018"/>
</g>
<path d="M32.3024 20.236C31.9318 22.9725 33.8497 25.4912 36.5861 25.8618C39.3226 26.2324 41.8413 24.3145 42.2119 21.578C42.3996 20.192 42.2663 18.6385 41.1952 17.9084C40.2713 17.2787 38.7178 17.5729 38.7178 17.5729C38.7178 17.5729 38.9666 16.3665 37.9281 15.9522C36.0133 15.1882 32.7721 16.7676 32.3024 20.236Z" fill="#EC4141"/>
<path d="M39.2133 17.6399L40.4343 16.0764C40.553 15.9243 40.5323 15.7061 40.387 15.5792C40.2359 15.4471 40.0064 15.4626 39.8744 15.6137L38.7176 16.9375L38.7178 17.5728L39.2133 17.6399Z" fill="#822D22"/>
<g filter="url(#filter2_d_561_5734)">
<path d="M39.2133 17.6399L39.461 17.6734C39.5978 17.692 39.6937 17.8179 39.6752 17.9547C39.6567 18.0916 39.5307 18.1875 39.3939 18.1689L39.1462 18.1354L38.8843 18.0999C38.7347 18.0796 38.5993 18.0008 38.5079 17.8807L38.2667 17.564C38.2383 17.5266 38.2259 17.4796 38.2322 17.4331C38.2533 17.2771 38.4526 17.2245 38.548 17.3498L38.684 17.5283C38.7056 17.5568 38.7377 17.5755 38.7732 17.5803L39.2133 17.6399Z" fill="#572018"/>
</g>
<path d="M19 33V57.5051" stroke="#80542B" stroke-opacity="0.4" stroke-linecap="round"/>
<path d="M30 33V57.5051" stroke="#80542B" stroke-opacity="0.4" stroke-linecap="round"/>
<path d="M23 39V57" stroke="#80542B" stroke-opacity="0.4" stroke-linecap="round"/>
<path d="M32 39V57" stroke="#80542B" stroke-opacity="0.4" stroke-linecap="round"/>
<path d="M27 46V57" stroke="#80542B" stroke-opacity="0.4" stroke-linecap="round"/>
<path d="M21 34V44" stroke="#80542B" stroke-opacity="0.4" stroke-linecap="round"/>
<defs>
<filter id="filter0_d_561_5734" x="12" y="16.2496" width="9.5" height="8.75037" filterUnits="userSpaceOnUse" color-interpolation-filters="sRGB">
<feFlood flood-opacity="0" result="BackgroundImageFix"/>
<feColorMatrix in="SourceAlpha" type="matrix" values="0 0 0 0 0 0 0 0 0 0 0 0 0 0 0 0 0 0 127 0" result="hardAlpha"/>
<feOffset dx="3" dy="4"/>
<feGaussianBlur stdDeviation="2"/>
<feComposite in2="hardAlpha" operator="out"/>
<feColorMatrix type="matrix" values="0 0 0 0 0 0 0 0 0 0 0 0 0 0 0 0 0 0 0.25 0"/>
<feBlend mode="normal" in2="BackgroundImageFix" result="effect1_dropShadow_561_5734"/>
<feBlend mode="normal" in="SourceGraphic" in2="effect1_dropShadow_561_5734" result="shape"/>
</filter>
<filter id="filter1_d_561_5734" x="28.3832" y="3.91653" width="9.47263" height="8.88333" filterUnits="userSpaceOnUse" color-interpolation-filters="sRGB">
<feFlood flood-opacity="0" result="BackgroundImageFix"/>
<feColorMatrix in="SourceAlpha" type="matrix" values="0 0 0 0 0 0 0 0 0 0 0 0 0 0 0 0 0 0 127 0" result="hardAlpha"/>
<feOffset dx="3" dy="4"/>
<feGaussianBlur stdDeviation="2"/>
<feComposite in2="hardAlpha" operator="out"/>
<feColorMatrix type="matrix" values="0 0 0 0 0 0 0 0 0 0 0 0 0 0 0 0 0 0 0.25 0"/>
<feBlend mode="normal" in2="BackgroundImageFix" result="effect1_dropShadow_561_5734"/>
<feBlend mode="normal" in="SourceGraphic" in2="effect1_dropShadow_561_5734" result="shape"/>
</filter>
<filter id="filter2_d_561_5734" x="37.2306" y="17.2799" width="9.44695" height="8.8913" filterUnits="userSpaceOnUse" color-interpolation-filters="sRGB">
<feFlood flood-opacity="0" result="BackgroundImageFix"/>
<feColorMatrix in="SourceAlpha" type="matrix" values="0 0 0 0 0 0 0 0 0 0 0 0 0 0 0 0 0 0 127 0" result="hardAlpha"/>
<feOffset dx="3" dy="4"/>
<feGaussianBlur stdDeviation="2"/>
<feComposite in2="hardAlpha" operator="out"/>
<feColorMatrix type="matrix" values="0 0 0 0 0 0 0 0 0 0 0 0 0 0 0 0 0 0 0.25 0"/>
<feBlend mode="normal" in2="BackgroundImageFix" result="effect1_dropShadow_561_5734"/>
<feBlend mode="normal" in="SourceGraphic" in2="effect1_dropShadow_561_5734" result="shape"/>
</filter>
</defs>
</svg>
