<svg width="51" height="59" viewBox="0 0 51 59" fill="none" xmlns="http://www.w3.org/2000/svg">
<rect x="17" y="27" width="18" height="31" rx="2" fill="#996A3D"/>
<path d="M18.5 45V43L11.5 40L10.9522 39.5617C10.661 39.3288 10.2763 39.7017 10.5 40C10.2535 39.9014 10.0812 40.2487 10.3089 40.3853L10.5 40.5C10.2968 40.5 10.2724 40.7954 10.4728 40.8288L11.5 41L18.5 45Z" fill="#996A3D"/>
<path d="M34 45V43L41 40L41.5478 39.5617C41.839 39.3288 42.2237 39.7017 42 40C42.2465 39.9014 42.4188 40.2487 42.1911 40.3853L42 40.5C42.2032 40.5 42.2276 40.7954 42.0272 40.8288L41 41L34 45Z" fill="#996A3D"/>
<ellipse cx="16" cy="27" rx="7" ry="6" fill="#6DC94C"/>
<ellipse cx="33.3282" cy="25" rx="9.36223" ry="8" fill="#6DC94C"/>
<ellipse cx="23.9659" cy="25" rx="9.36223" ry="8" fill="#6DC94C"/>
<ellipse cx="30.2074" cy="22.3333" rx="9.36223" ry="8" fill="#6DC94C"/>
<ellipse cx="10.8723" cy="23.8205" rx="9" ry="4.95372" transform="rotate(-12.7697 10.8723 23.8205)" fill="#6DC94C"/>
<ellipse cx="14.5" cy="12" rx="9.5" ry="8" fill="#6DC94C"/>
<ellipse cx="19" cy="8" rx="7" ry="8" fill="#6DC94C"/>
<ellipse cx="40.7996" cy="24.1643" rx="8" ry="4.5" transform="rotate(12.8316 40.7996 24.1643)" fill="#6DC94C"/>
<ellipse cx="28.3622" cy="8" rx="9.36223" ry="8" fill="#6DC94C"/>
<ellipse cx="44" cy="18.5" rx="7" ry="5.5" fill="#6DC94C"/>
<ellipse cx="35" cy="7.5" rx="8" ry="5.5" fill="#6DC94C"/>
<ellipse cx="38.5" cy="12.5" rx="9.5" ry="6.5" fill="#6DC94C"/>
<ellipse cx="9.5" cy="18" rx="9.5" ry="7" fill="#6DC94C"/>
<ellipse cx="17.3622" cy="15" rx="9.36223" ry="8" fill="#6DC94C"/>
<mask id="path-18-inside-1_561_5732" fill="white">
<path d="M28 37C28 37.6627 27.7761 38 27.5 38C27.2239 38 27 37.6627 27 37C27 36.3373 27.2239 36 27.5 36C27.7761 36 28 36.3373 28 37Z"/>
</mask>
<path d="M28 37C28 37.6627 27.7761 38 27.5 38C27.2239 38 27 37.6627 27 37C27 36.3373 27.2239 36 27.5 36C27.7761 36 28 36.3373 28 37Z" fill="black"/>
<path d="M27 37C27 37.2375 26.957 37.3041 26.9741 37.2725C26.9856 37.2514 27.0268 37.1839 27.1202 37.1184C27.2211 37.0476 27.3544 37 27.5 37V39C28.1135 39 28.5262 38.6066 28.733 38.2246C28.9311 37.8586 29 37.4252 29 37H27ZM27.5 37C27.6456 37 27.7789 37.0476 27.8798 37.1184C27.9732 37.1839 28.0144 37.2514 28.0259 37.2725C28.043 37.3041 28 37.2375 28 37H26C26 37.4252 26.0689 37.8586 26.267 38.2246C26.4738 38.6066 26.8865 39 27.5 39V37ZM28 37C28 36.7625 28.043 36.6959 28.0259 36.7275C28.0144 36.7486 27.9732 36.8161 27.8798 36.8816C27.7789 36.9524 27.6456 37 27.5 37V35C26.8865 35 26.4738 35.3934 26.267 35.7754C26.0689 36.1414 26 36.5748 26 37H28ZM27.5 37C27.3544 37 27.2211 36.9524 27.1202 36.8816C27.0268 36.8161 26.9856 36.7486 26.9741 36.7275C26.957 36.6959 27 36.7625 27 37H29C29 36.5748 28.9311 36.1414 28.733 35.7754C28.5262 35.3934 28.1135 35 27.5 35V37Z" fill="black" mask="url(#path-18-inside-1_561_5732)"/>
<mask id="path-20-inside-2_561_5732" fill="white">
<path d="M25 37C25 37.6627 24.7761 38 24.5 38C24.2239 38 24 37.6627 24 37C24 36.3373 24.2239 36 24.5 36C24.7761 36 25 36.3373 25 37Z"/>
</mask>
<path d="M25 37C25 37.6627 24.7761 38 24.5 38C24.2239 38 24 37.6627 24 37C24 36.3373 24.2239 36 24.5 36C24.7761 36 25 36.3373 25 37Z" fill="black"/>
<path d="M24 37C24 37.2375 23.957 37.3041 23.9741 37.2725C23.9856 37.2514 24.0268 37.1839 24.1202 37.1184C24.2211 37.0476 24.3544 37 24.5 37V39C25.1135 39 25.5262 38.6066 25.733 38.2246C25.9311 37.8586 26 37.4252 26 37H24ZM24.5 37C24.6456 37 24.7789 37.0476 24.8798 37.1184C24.9732 37.1839 25.0144 37.2514 25.0259 37.2725C25.043 37.3041 25 37.2375 25 37H23C23 37.4252 23.0689 37.8586 23.267 38.2246C23.4738 38.6066 23.8865 39 24.5 39V37ZM25 37C25 36.7625 25.043 36.6959 25.0259 36.7275C25.0144 36.7486 24.9732 36.8161 24.8798 36.8816C24.7789 36.9524 24.6456 37 24.5 37V35C23.8865 35 23.4738 35.3934 23.267 35.7754C23.0689 36.1414 23 36.5748 23 37H25ZM24.5 37C24.3544 37 24.2211 36.9524 24.1202 36.8816C24.0268 36.8161 23.9856 36.7486 23.9741 36.7275C23.957 36.6959 24 36.7625 24 37H26C26 36.5748 25.9311 36.1414 25.733 35.7754C25.5262 35.3934 25.1135 35 24.5 35V37Z" fill="black" mask="url(#path-20-inside-2_561_5732)"/>
<path d="M24.5 40C24.5 40 25.4675 40.5 26 40.5C26.5325 40.5 27.5 40 27.5 40" stroke="black" stroke-linecap="round"/>
<path d="M20 18.0001C20 20.7615 17.7614 23.0001 15 23.0001C12.2386 23.0001 10 20.7615 10 18.0001C10 16.6014 10.3406 15.0798 11.5 14.5001C12.5 14.0001 14 14.5001 14 14.5001C14 14.5001 13.9154 13.2713 15 13.0001C17 12.5 20 14.5 20 18.0001Z" fill="#EC4141"/>
<path d="M13.5 14.5L12.4998 12.7868C12.4026 12.6202 12.4525 12.4067 12.6134 12.3004C12.7809 12.1899 13.0062 12.236 13.1168 12.4034L14.0854 13.8705L14 14.5L13.5 14.5Z" fill="#822D22"/>
<g filter="url(#filter0_d_561_5732)">
<path d="M13.5 14.5H13.25C13.1119 14.5 13 14.6119 13 14.75C13 14.8881 13.1119 15 13.25 15H13.5H13.7643C13.9152 15 14.06 14.94 14.1667 14.8333L14.4482 14.5518C14.4814 14.5186 14.5 14.4737 14.5 14.4268C14.5 14.2693 14.3096 14.1904 14.1982 14.3018L14.0395 14.4605C14.0142 14.4858 13.9799 14.5 13.9441 14.5H13.5Z" fill="#572018"/>
</g>
<path d="M38.7536 17.7544C37.0569 19.9331 33.9153 20.3239 31.7366 18.6273C29.5579 16.9306 29.1671 13.789 30.8637 11.6103C31.7231 10.5067 32.9267 9.51547 34.1977 9.77044C35.2939 9.99034 36.1701 11.3065 36.1701 11.3065C36.1701 11.3065 36.8583 10.285 37.8807 10.7374C39.766 11.5716 40.9041 14.9929 38.7536 17.7544Z" fill="#EC4141"/>
<path d="M35.7757 10.9992L36.0392 9.03296C36.0648 8.8418 36.2354 8.70398 36.4276 8.71902C36.6277 8.73468 36.7771 8.90953 36.7615 9.10956L36.6243 10.8622L36.1702 11.3064L35.7757 10.9992Z" fill="#822D22"/>
<g filter="url(#filter1_d_561_5732)">
<path d="M35.7757 10.9992L35.5784 10.8456C35.4695 10.7607 35.3124 10.7803 35.2276 10.8892C35.1428 10.9982 35.1623 11.1552 35.2712 11.2401L35.4685 11.3937L35.677 11.5561C35.7961 11.6488 35.9471 11.6904 36.0969 11.6718L36.492 11.6226C36.5385 11.6168 36.5808 11.5928 36.6097 11.5558C36.7064 11.4316 36.6046 11.2523 36.4484 11.2718L36.2256 11.2995C36.1901 11.3039 36.1543 11.294 36.1261 11.2721L35.7757 10.9992Z" fill="#572018"/>
</g>
<path d="M19 33V57.5051" stroke="#80542B" stroke-opacity="0.4" stroke-linecap="round"/>
<path d="M30 33V57.5051" stroke="#80542B" stroke-opacity="0.4" stroke-linecap="round"/>
<path d="M23 39V57" stroke="#80542B" stroke-opacity="0.4" stroke-linecap="round"/>
<path d="M32 39V57" stroke="#80542B" stroke-opacity="0.4" stroke-linecap="round"/>
<path d="M27 46V57" stroke="#80542B" stroke-opacity="0.4" stroke-linecap="round"/>
<path d="M21 34V44" stroke="#80542B" stroke-opacity="0.4" stroke-linecap="round"/>
<defs>
<filter id="filter0_d_561_5732" x="12" y="14.2496" width="9.5" height="8.75037" filterUnits="userSpaceOnUse" color-interpolation-filters="sRGB">
<feFlood flood-opacity="0" result="BackgroundImageFix"/>
<feColorMatrix in="SourceAlpha" type="matrix" values="0 0 0 0 0 0 0 0 0 0 0 0 0 0 0 0 0 0 127 0" result="hardAlpha"/>
<feOffset dx="3" dy="4"/>
<feGaussianBlur stdDeviation="2"/>
<feComposite in2="hardAlpha" operator="out"/>
<feColorMatrix type="matrix" values="0 0 0 0 0 0 0 0 0 0 0 0 0 0 0 0 0 0 0.25 0"/>
<feBlend mode="normal" in2="BackgroundImageFix" result="effect1_dropShadow_561_5732"/>
<feBlend mode="normal" in="SourceGraphic" in2="effect1_dropShadow_561_5732" result="shape"/>
</filter>
<filter id="filter1_d_561_5732" x="34.1748" y="10.7928" width="9.47263" height="8.88333" filterUnits="userSpaceOnUse" color-interpolation-filters="sRGB">
<feFlood flood-opacity="0" result="BackgroundImageFix"/>
<feColorMatrix in="SourceAlpha" type="matrix" values="0 0 0 0 0 0 0 0 0 0 0 0 0 0 0 0 0 0 127 0" result="hardAlpha"/>
<feOffset dx="3" dy="4"/>
<feGaussianBlur stdDeviation="2"/>
<feComposite in2="hardAlpha" operator="out"/>
<feColorMatrix type="matrix" values="0 0 0 0 0 0 0 0 0 0 0 0 0 0 0 0 0 0 0.25 0"/>
<feBlend mode="normal" in2="BackgroundImageFix" result="effect1_dropShadow_561_5732"/>
<feBlend mode="normal" in="SourceGraphic" in2="effect1_dropShadow_561_5732" result="shape"/>
</filter>
</defs>
</svg>
