<svg width="51" height="59" viewBox="0 0 51 59" fill="none" xmlns="http://www.w3.org/2000/svg">
<rect x="17" y="27" width="18" height="31" rx="2" fill="#996A3D"/>
<path d="M18.5 45V43L11.5 40L10.9522 39.5617C10.661 39.3288 10.2763 39.7017 10.5 40C10.2535 39.9014 10.0812 40.2487 10.3089 40.3853L10.5 40.5C10.2968 40.5 10.2724 40.7954 10.4728 40.8288L11.5 41L18.5 45Z" fill="#996A3D"/>
<path d="M34 45V43L41 40L41.5478 39.5617C41.839 39.3288 42.2237 39.7017 42 40C42.2465 39.9014 42.4188 40.2487 42.1911 40.3853L42 40.5C42.2032 40.5 42.2276 40.7954 42.0272 40.8288L41 41L34 45Z" fill="#996A3D"/>
<ellipse cx="16" cy="27" rx="7" ry="6" fill="#6DC94C"/>
<ellipse cx="33.3282" cy="25" rx="9.36223" ry="8" fill="#6DC94C"/>
<ellipse cx="23.9659" cy="25" rx="9.36223" ry="8" fill="#6DC94C"/>
<ellipse cx="30.2074" cy="22.3333" rx="9.36223" ry="8" fill="#6DC94C"/>
<ellipse cx="10.8723" cy="23.8205" rx="9" ry="4.95372" transform="rotate(-12.7697 10.8723 23.8205)" fill="#6DC94C"/>
<ellipse cx="14.5" cy="12" rx="9.5" ry="8" fill="#6DC94C"/>
<ellipse cx="19" cy="8" rx="7" ry="8" fill="#6DC94C"/>
<ellipse cx="40.7996" cy="24.1643" rx="8" ry="4.5" transform="rotate(12.8316 40.7996 24.1643)" fill="#6DC94C"/>
<ellipse cx="28.3622" cy="8" rx="9.36223" ry="8" fill="#6DC94C"/>
<ellipse cx="44" cy="18.5" rx="7" ry="5.5" fill="#6DC94C"/>
<ellipse cx="35" cy="7.5" rx="8" ry="5.5" fill="#6DC94C"/>
<ellipse cx="38.5" cy="12.5" rx="9.5" ry="6.5" fill="#6DC94C"/>
<ellipse cx="9.5" cy="18" rx="9.5" ry="7" fill="#6DC94C"/>
<ellipse cx="17.3622" cy="15" rx="9.36223" ry="8" fill="#6DC94C"/>
<mask id="path-18-inside-1_564_5591" fill="white">
<path d="M28 37C28 37.6627 27.7761 38 27.5 38C27.2239 38 27 37.6627 27 37C27 36.3373 27.2239 36 27.5 36C27.7761 36 28 36.3373 28 37Z"/>
</mask>
<path d="M28 37C28 37.6627 27.7761 38 27.5 38C27.2239 38 27 37.6627 27 37C27 36.3373 27.2239 36 27.5 36C27.7761 36 28 36.3373 28 37Z" fill="black"/>
<path d="M27 37C27 37.2375 26.957 37.3041 26.9741 37.2725C26.9856 37.2514 27.0268 37.1839 27.1202 37.1184C27.2211 37.0476 27.3544 37 27.5 37V39C28.1135 39 28.5262 38.6066 28.733 38.2246C28.9311 37.8586 29 37.4252 29 37H27ZM27.5 37C27.6456 37 27.7789 37.0476 27.8798 37.1184C27.9732 37.1839 28.0144 37.2514 28.0259 37.2725C28.043 37.3041 28 37.2375 28 37H26C26 37.4252 26.0689 37.8586 26.267 38.2246C26.4738 38.6066 26.8865 39 27.5 39V37ZM28 37C28 36.7625 28.043 36.6959 28.0259 36.7275C28.0144 36.7486 27.9732 36.8161 27.8798 36.8816C27.7789 36.9524 27.6456 37 27.5 37V35C26.8865 35 26.4738 35.3934 26.267 35.7754C26.0689 36.1414 26 36.5748 26 37H28ZM27.5 37C27.3544 37 27.2211 36.9524 27.1202 36.8816C27.0268 36.8161 26.9856 36.7486 26.9741 36.7275C26.957 36.6959 27 36.7625 27 37H29C29 36.5748 28.9311 36.1414 28.733 35.7754C28.5262 35.3934 28.1135 35 27.5 35V37Z" fill="black" mask="url(#path-18-inside-1_564_5591)"/>
<mask id="path-20-inside-2_564_5591" fill="white">
<path d="M25 37C25 37.6627 24.7761 38 24.5 38C24.2239 38 24 37.6627 24 37C24 36.3373 24.2239 36 24.5 36C24.7761 36 25 36.3373 25 37Z"/>
</mask>
<path d="M25 37C25 37.6627 24.7761 38 24.5 38C24.2239 38 24 37.6627 24 37C24 36.3373 24.2239 36 24.5 36C24.7761 36 25 36.3373 25 37Z" fill="black"/>
<path d="M24 37C24 37.2375 23.957 37.3041 23.9741 37.2725C23.9856 37.2514 24.0268 37.1839 24.1202 37.1184C24.2211 37.0476 24.3544 37 24.5 37V39C25.1135 39 25.5262 38.6066 25.733 38.2246C25.9311 37.8586 26 37.4252 26 37H24ZM24.5 37C24.6456 37 24.7789 37.0476 24.8798 37.1184C24.9732 37.1839 25.0144 37.2514 25.0259 37.2725C25.043 37.3041 25 37.2375 25 37H23C23 37.4252 23.0689 37.8586 23.267 38.2246C23.4738 38.6066 23.8865 39 24.5 39V37ZM25 37C25 36.7625 25.043 36.6959 25.0259 36.7275C25.0144 36.7486 24.9732 36.8161 24.8798 36.8816C24.7789 36.9524 24.6456 37 24.5 37V35C23.8865 35 23.4738 35.3934 23.267 35.7754C23.0689 36.1414 23 36.5748 23 37H25ZM24.5 37C24.3544 37 24.2211 36.9524 24.1202 36.8816C24.0268 36.8161 23.9856 36.7486 23.9741 36.7275C23.957 36.6959 24 36.7625 24 37H26C26 36.5748 25.9311 36.1414 25.733 35.7754C25.5262 35.3934 25.1135 35 24.5 35V37Z" fill="black" mask="url(#path-20-inside-2_564_5591)"/>
<path d="M24.5 40C24.5 40 25.4675 40.5 26 40.5C26.5325 40.5 27.5 40 27.5 40" stroke="black" stroke-linecap="round"/>
<path d="M19 33V57.5051" stroke="#80542B" stroke-opacity="0.4" stroke-linecap="round"/>
<path d="M30 33V57.5051" stroke="#80542B" stroke-opacity="0.4" stroke-linecap="round"/>
<path d="M23 39V57" stroke="#80542B" stroke-opacity="0.4" stroke-linecap="round"/>
<path d="M32 39V57" stroke="#80542B" stroke-opacity="0.4" stroke-linecap="round"/>
<path d="M27 46V57" stroke="#80542B" stroke-opacity="0.4" stroke-linecap="round"/>
<path d="M21 34V44" stroke="#80542B" stroke-opacity="0.4" stroke-linecap="round"/>
<path d="M15 22.0001C15 24.7615 12.7614 27.0001 10 27.0001C7.23858 27.0001 5 24.7615 5 22.0001C5 20.6014 5.34057 19.0798 6.5 18.5001C7.5 18.0001 9 18.5001 9 18.5001C9 18.5001 8.91537 17.2713 10 17.0001C12 16.5 15 18.5 15 22.0001Z" fill="#EC4141"/>
<path d="M8.5 18.5L7.49985 16.7868C7.40261 16.6202 7.45247 16.4067 7.61342 16.3004C7.78087 16.1899 8.00623 16.236 8.11678 16.4034L9.08543 17.8705L9 18.5L8.5 18.5Z" fill="#822D22"/>
<g filter="url(#filter0_d_564_5591)">
<path d="M8.5 18.5H8.25C8.11193 18.5 8 18.6119 8 18.75C8 18.8881 8.11193 19 8.25 19H8.5H8.7643C8.91522 19 9.05995 18.94 9.16667 18.8333L9.44822 18.5518C9.48138 18.5186 9.5 18.4737 9.5 18.4268C9.5 18.2693 9.30959 18.1904 9.19822 18.3018L9.0395 18.4605C9.01421 18.4858 8.9799 18.5 8.94413 18.5H8.5Z" fill="#572018"/>
</g>
<path d="M22 10.0001C22 12.7615 19.7614 15.0001 17 15.0001C14.2386 15.0001 12 12.7615 12 10.0001C12 8.60139 12.3406 7.07983 13.5 6.50009C14.5 6.00007 16 6.50009 16 6.50009C16 6.50009 15.9154 5.27129 17 5.00007C19 4.49996 22 6.5 22 10.0001Z" fill="#EC4141"/>
<path d="M15.5 6.5L14.4998 4.78676C14.4026 4.6202 14.4525 4.40668 14.6134 4.30042C14.7809 4.18986 15.0062 4.23598 15.1168 4.40342L16.0854 5.87051L16 6.5L15.5 6.5Z" fill="#822D22"/>
<g filter="url(#filter1_d_564_5591)">
<path d="M15.5 6.5H15.25C15.1119 6.5 15 6.61193 15 6.75C15 6.88807 15.1119 7 15.25 7H15.5H15.7643C15.9152 7 16.06 6.94005 16.1667 6.83333L16.4482 6.55178C16.4814 6.51862 16.5 6.47366 16.5 6.42678C16.5 6.26929 16.3096 6.19041 16.1982 6.30178L16.0395 6.4605C16.0142 6.48579 15.9799 6.5 15.9441 6.5H15.5Z" fill="#572018"/>
</g>
<path d="M36.9619 11.8781C35.2653 14.0568 32.1237 14.4476 29.9449 12.7509C27.7662 11.0543 27.3754 7.91267 29.0721 5.73395C29.9315 4.6304 31.135 3.63916 32.406 3.89413C33.5022 4.11403 34.3785 5.43016 34.3785 5.43016C34.3785 5.43016 35.0667 4.40865 36.0891 4.86108C37.9743 5.69533 39.1124 9.11656 36.9619 11.8781Z" fill="#EC4141"/>
<path d="M33.984 5.1229L34.2475 3.15668C34.2732 2.96552 34.4437 2.8277 34.636 2.84274C34.836 2.8584 34.9855 3.03325 34.9698 3.23328L34.8327 4.98594L34.3785 5.43011L33.984 5.1229Z" fill="#822D22"/>
<g filter="url(#filter2_d_564_5591)">
<path d="M33.984 5.1229L33.7868 4.9693C33.6778 4.88447 33.5208 4.90401 33.4359 5.01294C33.3511 5.12188 33.3706 5.27896 33.4796 5.36379L33.6768 5.51739L33.8853 5.67978C34.0044 5.77251 34.1554 5.81414 34.3052 5.79551L34.7003 5.74635C34.7469 5.74057 34.7892 5.71653 34.818 5.67954C34.9148 5.55528 34.813 5.37606 34.6567 5.3955L34.434 5.42321C34.3985 5.42763 34.3627 5.41776 34.3344 5.39578L33.984 5.1229Z" fill="#572018"/>
</g>
<path d="M35.671 20.9458C35.3004 23.6822 37.2183 26.201 39.9548 26.5716C42.6912 26.9421 45.21 25.0242 45.5805 22.2878C45.7683 20.9017 45.635 19.3482 44.5638 18.6182C43.64 17.9885 42.0864 18.2826 42.0864 18.2826C42.0864 18.2826 42.3352 17.0763 41.2968 16.662C39.382 15.898 36.1407 17.4774 35.671 20.9458Z" fill="#EC4141"/>
<path d="M42.5819 18.3497L43.8029 16.7861C43.9216 16.6341 43.9009 16.4159 43.7557 16.2889C43.6046 16.1569 43.3751 16.1724 43.243 16.3235L42.0863 17.6473L42.0864 18.2826L42.5819 18.3497Z" fill="#822D22"/>
<g filter="url(#filter3_d_564_5591)">
<path d="M42.5819 18.3496L42.8297 18.3832C42.9665 18.4017 43.0624 18.5277 43.0438 18.6645C43.0253 18.8013 42.8994 18.8972 42.7626 18.8787L42.5148 18.8451L42.2529 18.8096C42.1034 18.7894 41.968 18.7106 41.8765 18.5905L41.6353 18.2737C41.6069 18.2364 41.5945 18.1893 41.6008 18.1429C41.6219 17.9868 41.8212 17.9342 41.9166 18.0595L42.0526 18.2381C42.0743 18.2666 42.1064 18.2852 42.1418 18.29L42.5819 18.3496Z" fill="#572018"/>
</g>
<path d="M20.671 23.9458C20.3004 26.6822 22.2183 29.201 24.9548 29.5716C27.6912 29.9421 30.21 28.0242 30.5805 25.2878C30.7683 23.9017 30.635 22.3482 29.5638 21.6182C28.64 20.9885 27.0864 21.2826 27.0864 21.2826C27.0864 21.2826 27.3352 20.0763 26.2968 19.662C24.382 18.898 21.1407 20.4774 20.671 23.9458Z" fill="#EC4141"/>
<path d="M27.5819 21.3497L28.8029 19.7861C28.9216 19.6341 28.9009 19.4159 28.7557 19.2889C28.6046 19.1569 28.3751 19.1724 28.243 19.3235L27.0863 20.6473L27.0864 21.2826L27.5819 21.3497Z" fill="#822D22"/>
<g filter="url(#filter4_d_564_5591)">
<path d="M27.5819 21.3496L27.8297 21.3832C27.9665 21.4017 28.0624 21.5277 28.0438 21.6645C28.0253 21.8013 27.8994 21.8972 27.7626 21.8787L27.5148 21.8451L27.2529 21.8096C27.1034 21.7894 26.968 21.7106 26.8765 21.5905L26.6353 21.2737C26.6069 21.2364 26.5945 21.1893 26.6008 21.1429C26.6219 20.9868 26.8212 20.9342 26.9166 21.0595L27.0526 21.2381C27.0743 21.2666 27.1064 21.2852 27.1418 21.29L27.5819 21.3496Z" fill="#572018"/>
</g>
<defs>
<filter id="filter0_d_564_5591" x="7" y="18.2496" width="9.5" height="8.75037" filterUnits="userSpaceOnUse" color-interpolation-filters="sRGB">
<feFlood flood-opacity="0" result="BackgroundImageFix"/>
<feColorMatrix in="SourceAlpha" type="matrix" values="0 0 0 0 0 0 0 0 0 0 0 0 0 0 0 0 0 0 127 0" result="hardAlpha"/>
<feOffset dx="3" dy="4"/>
<feGaussianBlur stdDeviation="2"/>
<feComposite in2="hardAlpha" operator="out"/>
<feColorMatrix type="matrix" values="0 0 0 0 0 0 0 0 0 0 0 0 0 0 0 0 0 0 0.25 0"/>
<feBlend mode="normal" in2="BackgroundImageFix" result="effect1_dropShadow_564_5591"/>
<feBlend mode="normal" in="SourceGraphic" in2="effect1_dropShadow_564_5591" result="shape"/>
</filter>
<filter id="filter1_d_564_5591" x="14" y="6.24963" width="9.5" height="8.75037" filterUnits="userSpaceOnUse" color-interpolation-filters="sRGB">
<feFlood flood-opacity="0" result="BackgroundImageFix"/>
<feColorMatrix in="SourceAlpha" type="matrix" values="0 0 0 0 0 0 0 0 0 0 0 0 0 0 0 0 0 0 127 0" result="hardAlpha"/>
<feOffset dx="3" dy="4"/>
<feGaussianBlur stdDeviation="2"/>
<feComposite in2="hardAlpha" operator="out"/>
<feColorMatrix type="matrix" values="0 0 0 0 0 0 0 0 0 0 0 0 0 0 0 0 0 0 0.25 0"/>
<feBlend mode="normal" in2="BackgroundImageFix" result="effect1_dropShadow_564_5591"/>
<feBlend mode="normal" in="SourceGraphic" in2="effect1_dropShadow_564_5591" result="shape"/>
</filter>
<filter id="filter2_d_564_5591" x="32.3832" y="4.9165" width="9.47263" height="8.88336" filterUnits="userSpaceOnUse" color-interpolation-filters="sRGB">
<feFlood flood-opacity="0" result="BackgroundImageFix"/>
<feColorMatrix in="SourceAlpha" type="matrix" values="0 0 0 0 0 0 0 0 0 0 0 0 0 0 0 0 0 0 127 0" result="hardAlpha"/>
<feOffset dx="3" dy="4"/>
<feGaussianBlur stdDeviation="2"/>
<feComposite in2="hardAlpha" operator="out"/>
<feColorMatrix type="matrix" values="0 0 0 0 0 0 0 0 0 0 0 0 0 0 0 0 0 0 0.25 0"/>
<feBlend mode="normal" in2="BackgroundImageFix" result="effect1_dropShadow_564_5591"/>
<feBlend mode="normal" in="SourceGraphic" in2="effect1_dropShadow_564_5591" result="shape"/>
</filter>
<filter id="filter3_d_564_5591" x="40.5992" y="17.9896" width="9.44695" height="8.89136" filterUnits="userSpaceOnUse" color-interpolation-filters="sRGB">
<feFlood flood-opacity="0" result="BackgroundImageFix"/>
<feColorMatrix in="SourceAlpha" type="matrix" values="0 0 0 0 0 0 0 0 0 0 0 0 0 0 0 0 0 0 127 0" result="hardAlpha"/>
<feOffset dx="3" dy="4"/>
<feGaussianBlur stdDeviation="2"/>
<feComposite in2="hardAlpha" operator="out"/>
<feColorMatrix type="matrix" values="0 0 0 0 0 0 0 0 0 0 0 0 0 0 0 0 0 0 0.25 0"/>
<feBlend mode="normal" in2="BackgroundImageFix" result="effect1_dropShadow_564_5591"/>
<feBlend mode="normal" in="SourceGraphic" in2="effect1_dropShadow_564_5591" result="shape"/>
</filter>
<filter id="filter4_d_564_5591" x="25.5992" y="20.9896" width="9.44695" height="8.89136" filterUnits="userSpaceOnUse" color-interpolation-filters="sRGB">
<feFlood flood-opacity="0" result="BackgroundImageFix"/>
<feColorMatrix in="SourceAlpha" type="matrix" values="0 0 0 0 0 0 0 0 0 0 0 0 0 0 0 0 0 0 127 0" result="hardAlpha"/>
<feOffset dx="3" dy="4"/>
<feGaussianBlur stdDeviation="2"/>
<feComposite in2="hardAlpha" operator="out"/>
<feColorMatrix type="matrix" values="0 0 0 0 0 0 0 0 0 0 0 0 0 0 0 0 0 0 0.25 0"/>
<feBlend mode="normal" in2="BackgroundImageFix" result="effect1_dropShadow_564_5591"/>
<feBlend mode="normal" in="SourceGraphic" in2="effect1_dropShadow_564_5591" result="shape"/>
</filter>
</defs>
</svg>
