<svg width="51" height="59" viewBox="0 0 51 59" fill="none" xmlns="http://www.w3.org/2000/svg">
<rect x="17" y="27" width="18" height="31" rx="2" fill="#996A3D"/>
<path d="M18.5 45V43L11.5 40L10.9522 39.5617C10.661 39.3288 10.2763 39.7017 10.5 40C10.2535 39.9014 10.0812 40.2487 10.3089 40.3853L10.5 40.5C10.2968 40.5 10.2724 40.7954 10.4728 40.8288L11.5 41L18.5 45Z" fill="#996A3D"/>
<path d="M34 45V43L41 40L41.5478 39.5617C41.839 39.3288 42.2237 39.7017 42 40C42.2465 39.9014 42.4188 40.2487 42.1911 40.3853L42 40.5C42.2032 40.5 42.2276 40.7954 42.0272 40.8288L41 41L34 45Z" fill="#996A3D"/>
<ellipse cx="16" cy="27" rx="7" ry="6" fill="#6DC94C"/>
<ellipse cx="33.3282" cy="25" rx="9.36223" ry="8" fill="#6DC94C"/>
<ellipse cx="23.9659" cy="25" rx="9.36223" ry="8" fill="#6DC94C"/>
<ellipse cx="30.2074" cy="22.3333" rx="9.36223" ry="8" fill="#6DC94C"/>
<ellipse cx="10.8723" cy="23.8205" rx="9" ry="4.95372" transform="rotate(-12.7697 10.8723 23.8205)" fill="#6DC94C"/>
<ellipse cx="14.5" cy="12" rx="9.5" ry="8" fill="#6DC94C"/>
<ellipse cx="19" cy="8" rx="7" ry="8" fill="#6DC94C"/>
<ellipse cx="40.7996" cy="24.1643" rx="8" ry="4.5" transform="rotate(12.8316 40.7996 24.1643)" fill="#6DC94C"/>
<ellipse cx="28.3622" cy="8" rx="9.36223" ry="8" fill="#6DC94C"/>
<ellipse cx="44" cy="18.5" rx="7" ry="5.5" fill="#6DC94C"/>
<ellipse cx="35" cy="7.5" rx="8" ry="5.5" fill="#6DC94C"/>
<ellipse cx="38.5" cy="12.5" rx="9.5" ry="6.5" fill="#6DC94C"/>
<ellipse cx="9.5" cy="18" rx="9.5" ry="7" fill="#6DC94C"/>
<ellipse cx="17.3622" cy="15" rx="9.36223" ry="8" fill="#6DC94C"/>
<mask id="path-18-inside-1_561_5735" fill="white">
<path d="M28 37C28 37.6627 27.7761 38 27.5 38C27.2239 38 27 37.6627 27 37C27 36.3373 27.2239 36 27.5 36C27.7761 36 28 36.3373 28 37Z"/>
</mask>
<path d="M28 37C28 37.6627 27.7761 38 27.5 38C27.2239 38 27 37.6627 27 37C27 36.3373 27.2239 36 27.5 36C27.7761 36 28 36.3373 28 37Z" fill="black"/>
<path d="M27 37C27 37.2375 26.957 37.3041 26.9741 37.2725C26.9856 37.2514 27.0268 37.1839 27.1202 37.1184C27.2211 37.0476 27.3544 37 27.5 37V39C28.1135 39 28.5262 38.6066 28.733 38.2246C28.9311 37.8586 29 37.4252 29 37H27ZM27.5 37C27.6456 37 27.7789 37.0476 27.8798 37.1184C27.9732 37.1839 28.0144 37.2514 28.0259 37.2725C28.043 37.3041 28 37.2375 28 37H26C26 37.4252 26.0689 37.8586 26.267 38.2246C26.4738 38.6066 26.8865 39 27.5 39V37ZM28 37C28 36.7625 28.043 36.6959 28.0259 36.7275C28.0144 36.7486 27.9732 36.8161 27.8798 36.8816C27.7789 36.9524 27.6456 37 27.5 37V35C26.8865 35 26.4738 35.3934 26.267 35.7754C26.0689 36.1414 26 36.5748 26 37H28ZM27.5 37C27.3544 37 27.2211 36.9524 27.1202 36.8816C27.0268 36.8161 26.9856 36.7486 26.9741 36.7275C26.957 36.6959 27 36.7625 27 37H29C29 36.5748 28.9311 36.1414 28.733 35.7754C28.5262 35.3934 28.1135 35 27.5 35V37Z" fill="black" mask="url(#path-18-inside-1_561_5735)"/>
<mask id="path-20-inside-2_561_5735" fill="white">
<path d="M25 37C25 37.6627 24.7761 38 24.5 38C24.2239 38 24 37.6627 24 37C24 36.3373 24.2239 36 24.5 36C24.7761 36 25 36.3373 25 37Z"/>
</mask>
<path d="M25 37C25 37.6627 24.7761 38 24.5 38C24.2239 38 24 37.6627 24 37C24 36.3373 24.2239 36 24.5 36C24.7761 36 25 36.3373 25 37Z" fill="black"/>
<path d="M24 37C24 37.2375 23.957 37.3041 23.9741 37.2725C23.9856 37.2514 24.0268 37.1839 24.1202 37.1184C24.2211 37.0476 24.3544 37 24.5 37V39C25.1135 39 25.5262 38.6066 25.733 38.2246C25.9311 37.8586 26 37.4252 26 37H24ZM24.5 37C24.6456 37 24.7789 37.0476 24.8798 37.1184C24.9732 37.1839 25.0144 37.2514 25.0259 37.2725C25.043 37.3041 25 37.2375 25 37H23C23 37.4252 23.0689 37.8586 23.267 38.2246C23.4738 38.6066 23.8865 39 24.5 39V37ZM25 37C25 36.7625 25.043 36.6959 25.0259 36.7275C25.0144 36.7486 24.9732 36.8161 24.8798 36.8816C24.7789 36.9524 24.6456 37 24.5 37V35C23.8865 35 23.4738 35.3934 23.267 35.7754C23.0689 36.1414 23 36.5748 23 37H25ZM24.5 37C24.3544 37 24.2211 36.9524 24.1202 36.8816C24.0268 36.8161 23.9856 36.7486 23.9741 36.7275C23.957 36.6959 24 36.7625 24 37H26C26 36.5748 25.9311 36.1414 25.733 35.7754C25.5262 35.3934 25.1135 35 24.5 35V37Z" fill="black" mask="url(#path-20-inside-2_561_5735)"/>
<path d="M24.5 40C24.5 40 25.4675 40.5 26 40.5C26.5325 40.5 27.5 40 27.5 40" stroke="black" stroke-linecap="round"/>
<path d="M15 18.0001C15 20.7615 12.7614 23.0001 10 23.0001C7.23858 23.0001 5 20.7615 5 18.0001C5 16.6014 5.34057 15.0798 6.5 14.5001C7.5 14.0001 9 14.5001 9 14.5001C9 14.5001 8.91537 13.2713 10 13.0001C12 12.5 15 14.5 15 18.0001Z" fill="#EC4141"/>
<path d="M8.5 14.5L7.49985 12.7868C7.40261 12.6202 7.45247 12.4067 7.61342 12.3004C7.78087 12.1899 8.00623 12.236 8.11678 12.4034L9.08543 13.8705L9 14.5L8.5 14.5Z" fill="#822D22"/>
<g filter="url(#filter0_d_561_5735)">
<path d="M8.5 14.5H8.25C8.11193 14.5 8 14.6119 8 14.75C8 14.8881 8.11193 15 8.25 15H8.5H8.7643C8.91522 15 9.05995 14.94 9.16667 14.8333L9.44822 14.5518C9.48138 14.5186 9.5 14.4737 9.5 14.4268C9.5 14.2693 9.30959 14.1904 9.19822 14.3018L9.0395 14.4605C9.01421 14.4858 8.9799 14.5 8.94413 14.5H8.5Z" fill="#572018"/>
</g>
<path d="M29 22.0001C29 24.7615 26.7614 27.0001 24 27.0001C21.2386 27.0001 19 24.7615 19 22.0001C19 20.6014 19.3406 19.0798 20.5 18.5001C21.5 18.0001 23 18.5001 23 18.5001C23 18.5001 22.9154 17.2713 24 17.0001C26 16.5 29 18.5 29 22.0001Z" fill="#EC4141"/>
<path d="M22.5 18.5L21.4998 16.7868C21.4026 16.6202 21.4525 16.4067 21.6134 16.3004C21.7809 16.1899 22.0062 16.236 22.1168 16.4034L23.0854 17.8705L23 18.5L22.5 18.5Z" fill="#822D22"/>
<g filter="url(#filter1_d_561_5735)">
<path d="M22.5 18.5H22.25C22.1119 18.5 22 18.6119 22 18.75C22 18.8881 22.1119 19 22.25 19H22.5H22.7643C22.9152 19 23.06 18.94 23.1667 18.8333L23.4482 18.5518C23.4814 18.5186 23.5 18.4737 23.5 18.4268C23.5 18.2693 23.3096 18.1904 23.1982 18.3018L23.0395 18.4605C23.0142 18.4858 22.9799 18.5 22.9441 18.5H22.5Z" fill="#572018"/>
</g>
<path d="M33.9619 11.8781C32.2653 14.0568 29.1237 14.4476 26.9449 12.7509C24.7662 11.0543 24.3754 7.91267 26.0721 5.73395C26.9315 4.6304 28.135 3.63916 29.406 3.89413C30.5022 4.11403 31.3785 5.43016 31.3785 5.43016C31.3785 5.43016 32.0667 4.40865 33.0891 4.86108C34.9743 5.69533 36.1124 9.11656 33.9619 11.8781Z" fill="#EC4141"/>
<path d="M30.984 5.1229L31.2475 3.15668C31.2732 2.96552 31.4437 2.8277 31.636 2.84274C31.836 2.8584 31.9855 3.03325 31.9698 3.23328L31.8327 4.98594L31.3785 5.43011L30.984 5.1229Z" fill="#822D22"/>
<g filter="url(#filter2_d_561_5735)">
<path d="M30.984 5.1229L30.7868 4.9693C30.6778 4.88447 30.5208 4.90401 30.4359 5.01294C30.3511 5.12188 30.3706 5.27896 30.4796 5.36379L30.6768 5.51739L30.8853 5.67978C31.0044 5.77251 31.1554 5.81414 31.3052 5.79551L31.7003 5.74635C31.7469 5.74057 31.7892 5.71653 31.818 5.67954C31.9148 5.55528 31.813 5.37606 31.6567 5.3955L31.434 5.42321C31.3985 5.42763 31.3627 5.41776 31.3344 5.39578L30.984 5.1229Z" fill="#572018"/>
</g>
<path d="M35.671 18.9458C35.3004 21.6823 37.2183 24.201 39.9548 24.5716C42.6912 24.9422 45.2099 23.0243 45.5805 20.2879C45.7682 18.9018 45.6349 17.3483 44.5638 16.6182C43.6399 15.9885 42.0864 16.2827 42.0864 16.2827C42.0864 16.2827 42.3352 15.0764 41.2968 14.6621C39.382 13.8981 36.1407 15.4774 35.671 18.9458Z" fill="#EC4141"/>
<path d="M42.5819 16.3497L43.8029 14.7862C43.9216 14.6342 43.9009 14.4159 43.7556 14.289C43.6045 14.157 43.375 14.1724 43.243 14.3235L42.0862 15.6474L42.0864 16.2826L42.5819 16.3497Z" fill="#822D22"/>
<g filter="url(#filter3_d_561_5735)">
<path d="M42.5819 16.3497L42.8296 16.3833C42.9665 16.4018 43.0624 16.5277 43.0438 16.6645C43.0253 16.8014 42.8994 16.8973 42.7625 16.8787L42.5148 16.8452L42.2529 16.8097C42.1033 16.7895 41.968 16.7106 41.8765 16.5906L41.6353 16.2738C41.6069 16.2365 41.5945 16.1894 41.6008 16.1429C41.6219 15.9869 41.8212 15.9343 41.9166 16.0596L42.0526 16.2382C42.0742 16.2666 42.1063 16.2853 42.1418 16.2901L42.5819 16.3497Z" fill="#572018"/>
</g>
<path d="M19 33V57.5051" stroke="#80542B" stroke-opacity="0.4" stroke-linecap="round"/>
<path d="M30 33V57.5051" stroke="#80542B" stroke-opacity="0.4" stroke-linecap="round"/>
<path d="M23 39V57" stroke="#80542B" stroke-opacity="0.4" stroke-linecap="round"/>
<path d="M32 39V57" stroke="#80542B" stroke-opacity="0.4" stroke-linecap="round"/>
<path d="M27 46V57" stroke="#80542B" stroke-opacity="0.4" stroke-linecap="round"/>
<path d="M21 34V44" stroke="#80542B" stroke-opacity="0.4" stroke-linecap="round"/>
<defs>
<filter id="filter0_d_561_5735" x="7" y="14.2496" width="9.5" height="8.75037" filterUnits="userSpaceOnUse" color-interpolation-filters="sRGB">
<feFlood flood-opacity="0" result="BackgroundImageFix"/>
<feColorMatrix in="SourceAlpha" type="matrix" values="0 0 0 0 0 0 0 0 0 0 0 0 0 0 0 0 0 0 127 0" result="hardAlpha"/>
<feOffset dx="3" dy="4"/>
<feGaussianBlur stdDeviation="2"/>
<feComposite in2="hardAlpha" operator="out"/>
<feColorMatrix type="matrix" values="0 0 0 0 0 0 0 0 0 0 0 0 0 0 0 0 0 0 0.25 0"/>
<feBlend mode="normal" in2="BackgroundImageFix" result="effect1_dropShadow_561_5735"/>
<feBlend mode="normal" in="SourceGraphic" in2="effect1_dropShadow_561_5735" result="shape"/>
</filter>
<filter id="filter1_d_561_5735" x="21" y="18.2496" width="9.5" height="8.75037" filterUnits="userSpaceOnUse" color-interpolation-filters="sRGB">
<feFlood flood-opacity="0" result="BackgroundImageFix"/>
<feColorMatrix in="SourceAlpha" type="matrix" values="0 0 0 0 0 0 0 0 0 0 0 0 0 0 0 0 0 0 127 0" result="hardAlpha"/>
<feOffset dx="3" dy="4"/>
<feGaussianBlur stdDeviation="2"/>
<feComposite in2="hardAlpha" operator="out"/>
<feColorMatrix type="matrix" values="0 0 0 0 0 0 0 0 0 0 0 0 0 0 0 0 0 0 0.25 0"/>
<feBlend mode="normal" in2="BackgroundImageFix" result="effect1_dropShadow_561_5735"/>
<feBlend mode="normal" in="SourceGraphic" in2="effect1_dropShadow_561_5735" result="shape"/>
</filter>
<filter id="filter2_d_561_5735" x="29.3832" y="4.9165" width="9.47263" height="8.88336" filterUnits="userSpaceOnUse" color-interpolation-filters="sRGB">
<feFlood flood-opacity="0" result="BackgroundImageFix"/>
<feColorMatrix in="SourceAlpha" type="matrix" values="0 0 0 0 0 0 0 0 0 0 0 0 0 0 0 0 0 0 127 0" result="hardAlpha"/>
<feOffset dx="3" dy="4"/>
<feGaussianBlur stdDeviation="2"/>
<feComposite in2="hardAlpha" operator="out"/>
<feColorMatrix type="matrix" values="0 0 0 0 0 0 0 0 0 0 0 0 0 0 0 0 0 0 0.25 0"/>
<feBlend mode="normal" in2="BackgroundImageFix" result="effect1_dropShadow_561_5735"/>
<feBlend mode="normal" in="SourceGraphic" in2="effect1_dropShadow_561_5735" result="shape"/>
</filter>
<filter id="filter3_d_561_5735" x="40.5992" y="15.9897" width="9.44695" height="8.89136" filterUnits="userSpaceOnUse" color-interpolation-filters="sRGB">
<feFlood flood-opacity="0" result="BackgroundImageFix"/>
<feColorMatrix in="SourceAlpha" type="matrix" values="0 0 0 0 0 0 0 0 0 0 0 0 0 0 0 0 0 0 127 0" result="hardAlpha"/>
<feOffset dx="3" dy="4"/>
<feGaussianBlur stdDeviation="2"/>
<feComposite in2="hardAlpha" operator="out"/>
<feColorMatrix type="matrix" values="0 0 0 0 0 0 0 0 0 0 0 0 0 0 0 0 0 0 0.25 0"/>
<feBlend mode="normal" in2="BackgroundImageFix" result="effect1_dropShadow_561_5735"/>
<feBlend mode="normal" in="SourceGraphic" in2="effect1_dropShadow_561_5735" result="shape"/>
</filter>
</defs>
</svg>
